<svg xmlns="http://www.w3.org/2000/svg" viewBox="0 0 400 400" width="100%" height="100%"
    preserveAspectRatio="xMidYMid meet">
    <defs>
        <clipPath id="__lottie_element_175">
            <rect width="400" height="400" x="0" y="0"></rect>
        </clipPath>
    </defs>
    <g clip-path="url(#__lottie_element_175)">
        <g transform="matrix(1,0,0,1,102.4000015258789,107.4699935913086)" opacity="1" style="display: block;">
            <g opacity="0.1" transform="matrix(1,0,0,1,93.58300018310547,273.2409973144531)">
                <path fill="rgb(43,43,43)" fill-opacity="1"
                    d=" M129.8800048828125,4.460000038146973 C129.8800048828125,4.460000038146973 103.4800033569336,-0.47999998927116394 103.4800033569336,-0.47999998927116394 C103.4800033569336,-0.47999998927116394 -3.0399999618530273,-18.180999755859375 -3.0399999618530273,-18.180999755859375 C-3.0399999618530273,-18.180999755859375 -103.08000183105469,-0.7099999785423279 -103.08000183105469,-0.7099999785423279 C-103.08000183105469,-0.7099999785423279 -129.8800048828125,7.760000228881836 -129.8800048828125,7.760000228881836 C-129.8800048828125,7.760000228881836 40.93000030517578,19.18000030517578 40.93000030517578,19.18000030517578 C40.93000030517578,19.18000030517578 129.8800048828125,4.460000038146973 129.8800048828125,4.460000038146973z">
                </path>
            </g>
        </g>
        <g transform="matrix(1,0,0,1,102.39998626708984,106.4699935913086)" opacity="1" style="display: block;">
            <g opacity="1" transform="matrix(1,0,0,1,91.18000030517578,46.18000030517578)">
                <path fill="rgb(184,198,69)" fill-opacity="1"
                    d=" M-55,-45.93000030517578 C-55,-45.93000030517578 -88.73999786376953,-22.700000762939453 -88.73999786376953,-22.700000762939453 C-88.73999786376953,-22.700000762939453 -90.93000030517578,4.909999847412109 -90.93000030517578,4.909999847412109 C-90.93000030517578,4.909999847412109 -67.8499984741211,45.93000030517578 -67.8499984741211,45.93000030517578 C-67.8499984741211,45.93000030517578 90.93000030517578,31.760000228881836 90.93000030517578,31.760000228881836 C90.93000030517578,31.760000228881836 86.04000091552734,-29.8799991607666 86.04000091552734,-29.8799991607666 C86.04000091552734,-29.8799991607666 69.20999908447266,-40.08000183105469 69.20999908447266,-40.08000183105469 C69.20999908447266,-40.08000183105469 -55,-45.93000030517578 -55,-45.93000030517578z">
                </path>
            </g>
            <g opacity="1" transform="matrix(1,0,0,1,88.73500061035156,25.670000076293945)">
                <path fill="rgb(232,239,120)" fill-opacity="1"
                    d=" M71.65499877929688,-19.56999969482422 C71.65499877929688,-19.56999969482422 -52.55500030517578,-25.420000076293945 -52.55500030517578,-25.420000076293945 C-52.55500030517578,-25.420000076293945 -86.29499816894531,-2.190000057220459 -86.29499816894531,-2.190000057220459 C-86.29499816894531,-2.190000057220459 -88.48500061035156,25.420000076293945 -88.48500061035156,25.420000076293945 C-88.48500061035156,25.420000076293945 -69.1050033569336,12.079999923706055 -69.1050033569336,12.079999923706055 C-69.1050033569336,12.079999923706055 74.68499755859375,0.12999999523162842 74.68499755859375,0.12999999523162842 C74.68499755859375,0.12999999523162842 88.48500061035156,-9.369999885559082 88.48500061035156,-9.369999885559082 C88.48500061035156,-9.369999885559082 71.65499877929688,-19.56999969482422 71.65499877929688,-19.56999969482422z">
                </path>
            </g>
        </g>
        <g transform="matrix(1,0,0,1,131.3699951171875,-0.25)" opacity="0.99" style="display: block;">
            <g opacity="1" transform="matrix(1,0,0,1,13.050000190734863,102.1449966430664)">
                <path fill="rgb(43,43,43)" fill-opacity="1"
                    d=" M122.3290023803711,51.8380012512207 C122.3290023803711,51.8380012512207 117.40499877929688,-39.529998779296875 117.40499877929688,-39.529998779296875 C117.40499877929688,-39.529998779296875 97.57599639892578,-46.167999267578125 97.57599639892578,-46.167999267578125 C97.57599639892578,-46.167999267578125 52.09000015258789,-74.80500030517578 52.09000015258789,-74.80500030517578 C52.09000015258789,-74.80500030517578 3.86899995803833,-39.70899963378906 3.86899995803833,-39.70899963378906 C3.86899995803833,-39.70899963378906 -10.020000457763672,-33.0890007019043 -10.020000457763672,-33.0890007019043 C-10.020000457763672,-33.0890007019043 -13.265999794006348,45.71200180053711 -13.265999794006348,45.71200180053711 C-13.265999794006348,45.71200180053711 122.3290023803711,51.8380012512207 122.3290023803711,51.8380012512207z">
                </path>
            </g>
        </g>
        <g transform="matrix(1,0,0,1,66.739990234375,-0.25)" opacity="1" style="display: block;">
            <g opacity="1" transform="matrix(1,0,0,1,136.4949951171875,280.9649963378906)">
                <path fill="rgb(68,96,36)" fill-opacity="1"
                    d=" M73.01499938964844,67.99500274658203 C73.01499938964844,67.99500274658203 68.90499877929688,-43.1349983215332 68.90499877929688,-43.1349983215332 C68.90499877929688,-43.1349983215332 62.584999084472656,-80.83499908447266 62.584999084472656,-80.83499908447266 C62.584999084472656,-80.83499908447266 4.804999828338623,-104.33499908447266 4.804999828338623,-104.33499908447266 C4.804999828338623,-104.33499908447266 -69.85199737548828,-64.0199966430664 -69.85199737548828,-64.0199966430664 C-69.85199737548828,-64.0199966430664 -96.90499877929688,81.92500305175781 -96.90499877929688,81.92500305175781 C-96.90499877929688,81.92500305175781 -71.61499786376953,103.95500183105469 -71.61499786376953,103.95500183105469 C-71.61499786376953,103.95500183105469 74.0250015258789,104.33499908447266 74.0250015258789,104.33499908447266 C74.0250015258789,104.33499908447266 96.90499877929688,99.3949966430664 96.90499877929688,99.3949966430664 C96.90499877929688,99.3949966430664 73.01499938964844,67.99500274658203 73.01499938964844,67.99500274658203z">
                </path>
            </g>
            <g opacity="1" transform="matrix(1,0,0,1,46.814998626708984,290.1700134277344)">
                <path fill="rgb(90,117,60)" fill-opacity="1"
                    d=" M20.139999389648438,-73.3499984741211 C20.139999389648438,-73.3499984741211 3.4649999141693115,-90.19000244140625 3.4649999141693115,-90.19000244140625 C3.4649999141693115,-90.19000244140625 -20.014999389648438,90.19000244140625 -20.014999389648438,90.19000244140625 C-20.014999389648438,90.19000244140625 -3.2249999046325684,79.17900085449219 -3.2249999046325684,79.17900085449219 C-3.2249999046325684,79.17900085449219 5.394999980926514,63.61000061035156 5.394999980926514,63.61000061035156 C5.394999980926514,63.61000061035156 20.139999389648438,-73.3499984741211 20.139999389648438,-73.3499984741211z">
                </path>
            </g>
            <g opacity="1" transform="matrix(1,0,0,1,45.84000015258789,369.3489990234375)">
                <path fill="rgb(111,157,82)" fill-opacity="1"
                    d=" M19.040000915527344,15.569999694824219 C19.040000915527344,15.569999694824219 -19.040000915527344,11.010000228881836 -19.040000915527344,11.010000228881836 C-19.040000915527344,11.010000228881836 6.369999885559082,-15.569999694824219 6.369999885559082,-15.569999694824219 C6.369999885559082,-15.569999694824219 19.040000915527344,15.569999694824219 19.040000915527344,15.569999694824219z">
                </path>
            </g>
        </g>
        <g transform="matrix(1,0,0,1,66.739990234375,247.71998596191406)" opacity="1" style="display: block;">
            <g opacity="1" transform="matrix(1,0,0,1,171.10000610351562,102.6709976196289)">
                <path fill="rgb(62,143,110)" fill-opacity="1"
                    d=" M16.145000457763672,-21.96500015258789 C16.145000457763672,-21.96500015258789 -16.270000457763672,-5.340000152587891 -16.270000457763672,-5.340000152587891 C-16.270000457763672,-5.340000152587891 -11.451000213623047,18.59000015258789 -11.451000213623047,18.59000015258789 C-11.451000213623047,18.59000015258789 5.298999786376953,18.59000015258789 5.298999786376953,18.59000015258789 C5.298999786376953,18.59000015258789 16.270000457763672,9.079999923706055 16.270000457763672,9.079999923706055 C16.270000457763672,9.079999923706055 16.145000457763672,-21.96500015258789 16.145000457763672,-21.96500015258789z">
                </path>
            </g>
            <g opacity="1" transform="matrix(1,0,0,1,183.6750030517578,124.3499984741211)">
                <path fill="rgb(83,175,138)" fill-opacity="1"
                    d=" M3.696000099182129,-12.600000381469727 C3.696000099182129,-12.600000381469727 24.513999938964844,8.041000366210938 24.513999938964844,8.041000366210938 C24.513999938964844,8.041000366210938 26.334999084472656,7.939000129699707 17.584999084472656,8.0600004196167 C8.835000038146973,8.180999755859375 2.6449999809265137,8.100000381469727 2.6449999809265137,8.100000381469727 C2.6449999809265137,8.100000381469727 -24.513999938964844,8.041000366210938 -24.513999938964844,8.041000366210938 C-24.513999938964844,8.041000366210938 -24.024999618530273,-3.0889999866485596 -24.024999618530273,-3.0889999866485596 C-24.024999618530273,-3.0889999866485596 3.696000099182129,-12.600000381469727 3.696000099182129,-12.600000381469727z">
                </path>
            </g>
            <g opacity="1" transform="matrix(1,0,0,1,187.9600067138672,133.94000244140625)">
                <path fill="rgb(62,143,110)" fill-opacity="1"
                    d=" M20.229999542236328,7.670000076293945 C20.229999542236328,7.670000076293945 -28.798999786376953,7.670000076293945 -28.798999786376953,7.670000076293945 C-28.798999786376953,7.670000076293945 -28.798999786376953,-1.5499999523162842 -28.798999786376953,-1.5499999523162842 C-28.798999786376953,-1.5499999523162842 12.548999786376953,-1.5499999523162842 12.548999786376953,-1.5499999523162842 C12.548999786376953,-1.5499999523162842 28.798999786376953,-7.670000076293945 28.798999786376953,-7.670000076293945 C28.798999786376953,-7.670000076293945 20.229999542236328,7.670000076293945 20.229999542236328,7.670000076293945z">
                </path>
            </g>
            <g opacity="1" transform="matrix(1,0,0,1,171.10000610351562,96.81500244140625)">
                <path fill="rgb(53,120,93)" fill-opacity="1"
                    d=" M16.270000457763672,-12.734999656677246 C16.270000457763672,-12.734999656677246 -13.571000099182129,12.734999656677246 -13.571000099182129,12.734999656677246 C-13.571000099182129,12.734999656677246 -16.270000457763672,0.5149999856948853 -16.270000457763672,0.5149999856948853 C-16.270000457763672,0.5149999856948853 -20.049999237060547,-16.80299949645996 -20.049999237060547,-16.80299949645996 C-20.049999237060547,-16.80299949645996 16.124000549316406,-28.735000610351562 16.124000549316406,-28.735000610351562 C16.124000549316406,-28.735000610351562 16.270000457763672,-12.734999656677246 16.270000457763672,-12.734999656677246z">
                </path>
            </g>
            <g opacity="1" transform="matrix(1,0,0,1,93.52999877929688,106.30599975585938)">
                <path fill="rgb(62,143,110)" fill-opacity="1"
                    d=" M18.450000762939453,-7.395999908447266 C18.450000762939453,-7.395999908447266 13.34000015258789,12.956000328063965 13.34000015258789,12.956000328063965 C13.34000015258789,12.956000328063965 -3.4200000762939453,14.956000328063965 -3.4200000762939453,14.956000328063965 C-3.4200000762939453,14.956000328063965 -18.450000762939453,8.614999771118164 -18.450000762939453,8.614999771118164 C-18.450000762939453,8.614999771118164 -15.729999542236328,-15.005999565124512 -15.729999542236328,-15.005999565124512 C-15.729999542236328,-15.005999565124512 -15.390000343322754,-17.95599937438965 -15.390000343322754,-17.95599937438965 C-15.390000343322754,-17.95599937438965 18.450000762939453,-7.395999908447266 18.450000762939453,-7.395999908447266z">
                </path>
            </g>
            <g opacity="1" transform="matrix(1,0,0,1,86.2249984741211,125.93499755859375)">
                <path fill="rgb(83,175,138)" fill-opacity="1"
                    d=" M-11.145000457763672,-11.015000343322754 C-11.145000457763672,-11.015000343322754 -21.344999313354492,11.015000343322754 -21.344999313354492,11.015000343322754 C-21.344999313354492,11.015000343322754 21.344999313354492,11.015000343322754 21.344999313354492,11.015000343322754 C21.344999313354492,11.015000343322754 20.645000457763672,-6.673999786376953 20.645000457763672,-6.673999786376953 C20.645000457763672,-6.673999786376953 -11.145000457763672,-11.015000343322754 -11.145000457763672,-11.015000343322754z">
                </path>
            </g>
            <g opacity="1" transform="matrix(1,0,0,1,86.2249984741211,137.5)">
                <path fill="rgb(62,143,110)" fill-opacity="1"
                    d=" M21.344999313354492,7.110000133514404 C21.344999313354492,7.110000133514404 -21.344999313354492,7.110000133514404 -21.344999313354492,7.110000133514404 C-21.344999313354492,7.110000133514404 -21.344999313354492,-0.550000011920929 -21.344999313354492,-0.550000011920929 C-21.344999313354492,-0.550000011920929 0.004999999888241291,-7.110000133514404 0.004999999888241291,-7.110000133514404 C0.004999999888241291,-7.110000133514404 21.344999313354492,-0.550000011920929 21.344999313354492,-0.550000011920929 C21.344999313354492,-0.550000011920929 21.344999313354492,7.110000133514404 21.344999313354492,7.110000133514404z">
                </path>
            </g>
            <g opacity="1" transform="matrix(1,0,0,1,94.80999755859375,99.55999755859375)">
                <path fill="rgb(53,120,93)" fill-opacity="1"
                    d=" M-16.920000076293945,-7.710000038146973 C-16.920000076293945,-7.710000038146973 14.5,9.989999771118164 14.5,9.989999771118164 C14.5,9.989999771118164 17.170000076293945,-0.6499999761581421 17.170000076293945,-0.6499999761581421 C17.170000076293945,-0.6499999761581421 25.514999389648438,-28.739999771118164 25.514999389648438,-28.739999771118164 C25.514999389648438,-28.739999771118164 -15.086000442504883,-26.371999740600586 -15.086000442504883,-26.371999740600586 C-15.086000442504883,-26.371999740600586 -16.920000076293945,-7.710000038146973 -16.920000076293945,-7.710000038146973z">
                </path>
            </g>
        </g>
        <g transform="matrix(1,0.000005427737960417289,-0.000005427737960417289,1,66.74070739746094,-0.5010833740234375)"
            opacity="1" style="display: block;">
            <g opacity="1" transform="matrix(1,0,0,1,211.55999755859375,175.2100067138672)">
                <path fill="rgb(90,117,60)" fill-opacity="1"
                    d=" M-24.329999923706055,-19.600000381469727 C-24.329999923706055,-19.600000381469727 -12.479999542236328,-42.689998626708984 -12.479999542236328,-42.689998626708984 C-12.479999542236328,-42.689998626708984 29.889999389648438,21.059999465942383 29.889999389648438,21.059999465942383 C29.889999389648438,21.059999465942383 -25.64900016784668,42.691001892089844 -25.64900016784668,42.691001892089844 C-25.64900016784668,42.691001892089844 -29.891000747680664,30.43000030517578 -29.891000747680664,30.43000030517578 C-29.891000747680664,30.43000030517578 -24.329999923706055,-19.600000381469727 -24.329999923706055,-19.600000381469727z">
                </path>
            </g>
        </g>
        <g transform="matrix(1,0,0,1,66.739990234375,-0.5)" opacity="1" style="display: block;">
            <g opacity="1" transform="matrix(1,0,0,1,110.1050033569336,194.86900329589844)">
                <path fill="rgb(90,117,60)" fill-opacity="1"
                    d=" M-28.405000686645508,-59.979000091552734 C-28.405000686645508,-59.979000091552734 10.194999694824219,-39.75899887084961 10.194999694824219,-39.75899887084961 C10.194999694824219,-39.75899887084961 45.224998474121094,-12.74899959564209 45.224998474121094,-12.74899959564209 C45.224998474121094,-12.74899959564209 26.38599967956543,59.97999954223633 26.38599967956543,59.97999954223633 C26.38599967956543,59.97999954223633 -24.225000381469727,59.97999954223633 -24.225000381469727,59.97999954223633 C-24.225000381469727,59.97999954223633 -24.225000381469727,42.96099853515625 -24.225000381469727,42.96099853515625 C-24.225000381469727,42.96099853515625 -45.224998474121094,-11.23900032043457 -45.224998474121094,-11.23900032043457 C-45.224998474121094,-11.23900032043457 -28.405000686645508,-59.979000091552734 -28.405000686645508,-59.979000091552734z">
                </path>
            </g>
            <g opacity="1" transform="matrix(1,0,0,1,167.76499938964844,192.52499389648438)">
                <path fill="rgb(111,157,82)" fill-opacity="1"
                    d=" M-26.46500015258789,-15.895000457763672 C-26.46500015258789,-15.895000457763672 -31.315000534057617,45.30500030517578 -31.315000534057617,45.30500030517578 C-31.315000534057617,45.30500030517578 -31.274999618530273,62.32500076293945 -31.274999618530273,62.32500076293945 C-31.274999618530273,62.32500076293945 19.46500015258789,62.32500076293945 19.46500015258789,62.32500076293945 C19.46500015258789,62.32500076293945 19.604999542236328,38.55500030517578 19.604999542236328,38.55500030517578 C19.604999542236328,38.55500030517578 31.315000534057617,-60.005001068115234 31.315000534057617,-60.005001068115234 C31.315000534057617,-60.005001068115234 6.565000057220459,-62.32500076293945 6.565000057220459,-62.32500076293945 C6.565000057220459,-62.32500076293945 5.684999942779541,-52.03499984741211 5.684999942779541,-52.03499984741211 C5.684999942779541,-52.03499984741211 -4.835000038146973,-52.525001525878906 -4.835000038146973,-52.525001525878906 C-4.835000038146973,-52.525001525878906 -10.364999771118164,-28.7450008392334 -10.364999771118164,-28.7450008392334 C-10.364999771118164,-28.7450008392334 -26.46500015258789,-15.895000457763672 -26.46500015258789,-15.895000457763672z">
                </path>
            </g>
        </g>
        <g transform="matrix(1,0,0,1,66.74000549316406,247.71986389160156)" opacity="1" style="display: block;">
            <g opacity="1" transform="matrix(1,0,0,1,149.6750030517578,52.404998779296875)">
                <path fill="rgb(90,117,60)" fill-opacity="1"
                    d=" M-13.1850004196167,-45.5260009765625 C-13.1850004196167,-45.5260009765625 -37.69499969482422,31.673999786376953 -37.69499969482422,31.673999786376953 C-37.69499969482422,31.673999786376953 -12.03600025177002,52.15599822998047 -12.03600025177002,52.15599822998047 C-12.03600025177002,52.15599822998047 37.81999969482422,31.423999786376953 37.81999969482422,31.423999786376953 C37.81999969482422,31.423999786376953 37.55400085449219,-43.505001068115234 37.55400085449219,-43.505001068115234 C37.55400085449219,-43.505001068115234 14.604000091552734,-38.15599822998047 14.604000091552734,-38.15599822998047 C14.604000091552734,-38.15599822998047 -13.1850004196167,-45.5260009765625 -13.1850004196167,-45.5260009765625z">
                </path>
            </g>
            <g opacity="1" transform="matrix(1,0,0,1,107.63999938964844,55.720001220703125)">
                <path fill="rgb(111,157,82)" fill-opacity="1"
                    d=" M-23,-30.6200008392334 C-23,-30.6200008392334 -30,35.005001068115234 -30,35.005001068115234 C-30,35.005001068115234 30,48.84000015258789 30,48.84000015258789 C30,48.84000015258789 28.85099983215332,-48.84000015258789 28.85099983215332,-48.84000015258789 C28.85099983215332,-48.84000015258789 -23,-30.6200008392334 -23,-30.6200008392334z">
                </path>
            </g>
            <g opacity="1" transform="matrix(1,0,0,1,135.93499755859375,16.399999618530273)">
                <path fill="rgb(153,194,108)" fill-opacity="1"
                    d=" M-50.05500030517578,-9.520000457763672 C-50.05500030517578,-9.520000457763672 51.29499816894531,-9.520000457763672 51.29499816894531,-9.520000457763672 C51.29499816894531,-9.520000457763672 51.29499816894531,9.520000457763672 51.29499816894531,9.520000457763672 C51.29499816894531,9.520000457763672 -51.29499816894531,8.701000213623047 -51.29499816894531,8.701000213623047 C-51.29499816894531,8.701000213623047 -50.05500030517578,-9.520000457763672 -50.05500030517578,-9.520000457763672z">
                </path>
            </g>
        </g>
        <g transform="matrix(1,0,0,1,66.739990234375,-0.5)" opacity="1" style="display: block;">
            <g opacity="1" transform="matrix(1,0,0,1,72.26499938964844,169.18499755859375)">
                <path fill="rgb(115,141,86)" fill-opacity="1"
                    d=" M-21.985000610351562,30.795000076293945 C-21.985000610351562,30.795000076293945 -16.975000381469727,-24.71500015258789 -16.975000381469727,-24.71500015258789 C-16.975000381469727,-24.71500015258789 21.985000610351562,-37.845001220703125 21.985000610351562,-37.845001220703125 C21.985000610351562,-37.845001220703125 12.295000076293945,-3.2750000953674316 12.295000076293945,-3.2750000953674316 C12.295000076293945,-3.2750000953674316 15.765000343322754,37.845001220703125 15.765000343322754,37.845001220703125 C15.765000343322754,37.845001220703125 -21.985000610351562,30.795000076293945 -21.985000610351562,30.795000076293945z">
                </path>
            </g>
        </g>
        <g transform="matrix(1,0,0,1,66.739990234375,-0.5)" opacity="1" style="display: block;">
            <g opacity="1" transform="matrix(1,0,0,1,155.3249969482422,158.31500244140625)">
                <path fill="rgb(53,120,93)" fill-opacity="1"
                    d=" M-14.475000381469727,9.095000267028809 C-14.475000381469727,9.095000267028809 -0.4950000047683716,-5.414999961853027 -0.4950000047683716,-5.414999961853027 C-0.4950000047683716,-5.414999961853027 7.605000019073486,-18.315000534057617 7.605000019073486,-18.315000534057617 C7.605000019073486,-18.315000534057617 22.344999313354492,-16.174999237060547 22.344999313354492,-16.174999237060547 C22.344999313354492,-16.174999237060547 21.05500030517578,5.59499979019165 21.05500030517578,5.59499979019165 C21.05500030517578,5.59499979019165 -14.024999618530273,18.315000534057617 -14.024999618530273,18.315000534057617 C-14.024999618530273,18.315000534057617 -22.344999313354492,10.875 -22.344999313354492,10.875 C-22.344999313354492,10.875 -14.475000381469727,9.095000267028809 -14.475000381469727,9.095000267028809z">
                </path>
            </g>
            <g opacity="1" transform="matrix(1,0,0,1,111.5,153.98500061035156)">
                <path fill="rgb(83,175,138)" fill-opacity="1"
                    d=" M29.350000381469727,13.425000190734863 C29.350000381469727,13.425000190734863 29.799999237060547,22.645000457763672 29.799999237060547,22.645000457763672 C29.799999237060547,22.645000457763672 -26.940000534057617,11.925000190734863 -26.940000534057617,11.925000190734863 C-26.940000534057617,11.925000190734863 -29.799999237060547,-18.344999313354492 -29.799999237060547,-18.344999313354492 C-29.799999237060547,-18.344999313354492 -17.25,-21.895000457763672 -17.25,-21.895000457763672 C-17.25,-21.895000457763672 -3.0299999713897705,-7.215000152587891 -3.0299999713897705,-7.215000152587891 C-3.0299999713897705,-7.215000152587891 29.350000381469727,13.425000190734863 29.350000381469727,13.425000190734863z">
                </path>
            </g>
        </g>
        <g transform="matrix(1,0,0,1,131.3699951171875,-0.25)" opacity="1" style="display: block;">
            <g opacity="1" transform="matrix(1,0,0,1,71.2750015258789,81.30500030517578)">
                <path fill="rgb(223,188,164)" fill-opacity="1"
                    d=" M41.76499938964844,60.834999084472656 C41.76499938964844,60.834999084472656 -23.924999237060547,57.744998931884766 -23.924999237060547,57.744998931884766 C-23.924999237060547,57.744998931884766 -42.525001525878906,44.45500183105469 -42.525001525878906,44.45500183105469 C-42.525001525878906,44.45500183105469 -51.345001220703125,-56.415000915527344 -51.345001220703125,-56.415000915527344 C-51.345001220703125,-56.415000915527344 51.345001220703125,-60.834999084472656 51.345001220703125,-60.834999084472656 C51.345001220703125,-60.834999084472656 41.76499938964844,60.834999084472656 41.76499938964844,60.834999084472656z">
                </path>
            </g>
            <g opacity="1" transform="matrix(1,0,0,1,59.470001220703125,91.45500183105469)">
                <path fill="rgb(195,151,122)" fill-opacity="1"
                    d=" M43.68000030517578,50.224998474121094 C43.68000030517578,50.224998474121094 -23.52899932861328,41.3849983215332 -23.52899932861328,41.3849983215332 C-23.52899932861328,41.3849983215332 -31.600000381469727,-56.73500061035156 -31.600000381469727,-56.73500061035156 C-31.600000381469727,-56.73500061035156 -43.68000030517578,-75.95500183105469 -43.68000030517578,-75.95500183105469 C-43.68000030517578,-75.95500183105469 -33.119998931884766,46.875 -33.119998931884766,46.875 C-33.119998931884766,46.875 -30.7189998626709,62.154998779296875 -30.7189998626709,62.154998779296875 C-30.7189998626709,62.154998779296875 16.749000549316406,75.95500183105469 16.749000549316406,75.95500183105469 C16.749000549316406,75.95500183105469 41.45100021362305,63.80500030517578 41.45100021362305,63.80500030517578 C41.45100021362305,63.80500030517578 43.68000030517578,50.224998474121094 43.68000030517578,50.224998474121094z">
                </path>
            </g>
            <g opacity="1" transform="matrix(1,0,0,1,64.75,148.968994140625)">
                <path fill="rgb(138,102,81)" fill-opacity="1"
                    d=" M14.1899995803833,10.640000343322754 C14.1899995803833,10.640000343322754 38.400001525878906,-7.289999961853027 38.400001525878906,-7.289999961853027 C38.400001525878906,-7.289999961853027 -38.400001525878906,-10.640000343322754 -38.400001525878906,-10.640000343322754 C-38.400001525878906,-10.640000343322754 14.1899995803833,10.640000343322754 14.1899995803833,10.640000343322754z">
                </path>
            </g>
            <g opacity="1" transform="matrix(1,0,0,1,68.91899871826172,42.1150016784668)">
                <path fill="rgb(79,82,82)" fill-opacity="1"
                    d=" M-25.798999786376953,-41.8650016784668 C-25.798999786376953,-41.8650016784668 -42.569000244140625,-29.086000442504883 -42.569000244140625,-29.086000442504883 C-42.569000244140625,-29.086000442504883 -63.93899917602539,-23.7549991607666 -63.93899917602539,-23.7549991607666 C-63.93899917602539,-23.7549991607666 -65.9800033569336,27.385000228881836 -65.9800033569336,27.385000228881836 C-65.9800033569336,27.385000228881836 -47.5099983215332,41.8650016784668 -47.5099983215332,41.8650016784668 C-47.5099983215332,41.8650016784668 -39.40999984741211,-19.985000610351562 -39.40999984741211,-19.985000610351562 C-39.40999984741211,-19.985000610351562 8.531000137329102,1.593999981880188 8.531000137329102,1.593999981880188 C8.531000137329102,1.593999981880188 52.861000061035156,-12.916000366210938 52.861000061035156,-12.916000366210938 C52.861000061035156,-12.916000366210938 50.209999084472656,22.714000701904297 50.209999084472656,22.714000701904297 C50.209999084472656,22.714000701904297 61.67100143432617,20.735000610351562 61.67100143432617,20.735000610351562 C61.67100143432617,20.735000610351562 65.9800033569336,-17.22599983215332 65.9800033569336,-17.22599983215332 C65.9800033569336,-17.22599983215332 44.12099838256836,-26.614999771118164 44.12099838256836,-26.614999771118164 C44.12099838256836,-26.614999771118164 31.47100067138672,-41.8650016784668 31.47100067138672,-41.8650016784668 C31.47100067138672,-41.8650016784668 -25.798999786376953,-41.8650016784668 -25.798999786376953,-41.8650016784668z">
                </path>
            </g>
            <g opacity="1" transform="matrix(1,0,0,1,41.21500015258789,21.979999542236328)">
                <path fill="rgb(110,112,115)" fill-opacity="1"
                    d=" M1.9049999713897705,-21.729999542236328 C1.9049999713897705,-21.729999542236328 -36.23500061035156,-3.61899995803833 -36.23500061035156,-3.61899995803833 C-36.23500061035156,-3.61899995803833 -13.345000267028809,12.739999771118164 -13.345000267028809,12.739999771118164 C-13.345000267028809,12.739999771118164 36.23500061035156,21.729999542236328 36.23500061035156,21.729999542236328 C36.23500061035156,21.729999542236328 1.9049999713897705,-21.729999542236328 1.9049999713897705,-21.729999542236328z">
                </path>
            </g>
            <g opacity="1" transform="matrix(1,0,0,1,74.62999725341797,125.18000030517578)">
                <path fill="rgb(195,151,122)" fill-opacity="1"
                    d=" M-40.709999084472656,-16.959999084472656 C-40.709999084472656,-16.959999084472656 40.709999084472656,-12.229999542236328 40.709999084472656,-12.229999542236328 C40.709999084472656,-12.229999542236328 38.40999984741211,16.959999084472656 38.40999984741211,16.959999084472656 C38.40999984741211,16.959999084472656 -38.72999954223633,13.569999694824219 -38.72999954223633,13.569999694824219 C-38.72999954223633,13.569999694824219 -40.709999084472656,-16.959999084472656 -40.709999084472656,-16.959999084472656z">
                </path>
            </g>
            <g opacity="1" transform="matrix(1,0,0,1,106.17500305175781,21.979999542236328)">
                <path fill="rgb(70,70,70)" fill-opacity="1"
                    d=" M-5.784999847412109,-21.729999542236328 C-5.784999847412109,-21.729999542236328 -28.725000381469727,21.729999542236328 -28.725000381469727,21.729999542236328 C-28.725000381469727,21.729999542236328 15.21500015258789,12.399999618530273 15.21500015258789,12.399999618530273 C15.21500015258789,12.399999618530273 28.725000381469727,2.9100000858306885 28.725000381469727,2.9100000858306885 C28.725000381469727,2.9100000858306885 -5.784999847412109,-21.729999542236328 -5.784999847412109,-21.729999542236328z">
                </path>
            </g>
            <g opacity="1" transform="matrix(1,0,0,1,29.649999618530273,121.375)">
                <path fill="rgb(138,102,81)" fill-opacity="1"
                    d=" M4.269999980926514,-13.154999732971191 C4.269999980926514,-13.154999732971191 -6.25,-17.375 -6.25,-17.375 C-6.25,-17.375 -3.299999952316284,16.954999923706055 -3.299999952316284,16.954999923706055 C-3.299999952316284,16.954999923706055 6.25,17.375 6.25,17.375 C6.25,17.375 4.269999980926514,-13.154999732971191 4.269999980926514,-13.154999732971191z">
                </path>
            </g>
        </g>
        <g transform="matrix(1,0,0,1,172.11199951171875,109.49500274658203)" opacity="1" style="display: block;">
            <g opacity="1" transform="matrix(1,0,0,1,23.475000381469727,11.9350004196167)">
                <path fill="rgb(138,102,81)" fill-opacity="1"
                    d=" M-13.475000381469727,-1.934999942779541 C-13.475000381469727,-1.934999942779541 -9.595000267028809,1.934999942779541 -9.595000267028809,1.934999942779541 C-9.595000267028809,1.934999942779541 13.475000381469727,1.934999942779541 13.475000381469727,1.934999942779541">
                </path>
                <path stroke-linecap="butt" stroke-linejoin="miter" fill-opacity="0" stroke-miterlimit="10"
                    stroke="rgb(138,102,81)" stroke-opacity="1" stroke-width="4"
                    d=" M-13.475000381469727,-1.934999942779541 C-13.475000381469727,-1.934999942779541 -9.595000267028809,1.934999942779541 -9.595000267028809,1.934999942779541 C-9.595000267028809,1.934999942779541 13.475000381469727,1.934999942779541 13.475000381469727,1.934999942779541">
                </path>
            </g>
            <g opacity="1" transform="matrix(1,0,0,1,10.770000457763672,10.670000076293945)">
                <path fill="rgb(138,102,81)" fill-opacity="1"
                    d=" M-3.299999952316284,-3.180000066757202 C-3.299999952316284,-3.180000066757202 4.159999847412109,-4.039999961853027 4.159999847412109,-4.039999961853027 C4.159999847412109,-4.039999961853027 -4.159999847412109,4.039999961853027 -4.159999847412109,4.039999961853027 C-4.159999847412109,4.039999961853027 -3.299999952316284,-3.180000066757202 -3.299999952316284,-3.180000066757202z">
                </path>
            </g>
        </g>
        <g transform="matrix(1,0,0,1,167.02000427246094,63.06999969482422)" opacity="1" style="display: block;">
            <g opacity="1" transform="matrix(1,0,0,1,40.01499938964844,40.68000030517578)">
                <path fill="rgb(138,102,81)" fill-opacity="1"
                    d=" M-9.635000228881836,-3.299999952316284 C-9.635000228881836,-3.299999952316284 -0.004999999888241291,3.299999952316284 -0.004999999888241291,3.299999952316284 C-0.004999999888241291,3.299999952316284 9.635000228881836,-3.299999952316284 9.635000228881836,-3.299999952316284 C9.635000228881836,-3.299999952316284 -9.635000228881836,-3.299999952316284 -9.635000228881836,-3.299999952316284z">
                </path>
            </g>
            <g opacity="1" transform="matrix(1,0,0,1,18.155000686645508,20.65999984741211)">
                <path fill="rgb(195,151,122)" fill-opacity="1"
                    d=" M-17.905000686645508,-8.5600004196167 C-17.905000686645508,-8.5600004196167 2.244999885559082,-2.369999885559082 2.244999885559082,-2.369999885559082 C2.244999885559082,-2.369999885559082 12.225000381469727,16.719999313354492 12.225000381469727,16.719999313354492 C12.225000381469727,16.719999313354492 17.905000686645508,-14.119999885559082 17.905000686645508,-14.119999885559082 C17.905000686645508,-14.119999885559082 -10.795000076293945,-16.719999313354492 -10.795000076293945,-16.719999313354492 C-10.795000076293945,-16.719999313354492 -17.905000686645508,-8.5600004196167 -17.905000686645508,-8.5600004196167z">
                </path>
            </g>
            <g opacity="1" transform="matrix(1,0,0,1,61.8650016784668,21.780000686645508)">
                <path fill="rgb(195,151,122)" fill-opacity="1"
                    d=" M-12.21500015258789,15.600000381469727 C-12.21500015258789,15.600000381469727 2.1050000190734863,-3.490000009536743 2.1050000190734863,-3.490000009536743 C2.1050000190734863,-3.490000009536743 17.905000686645508,-9.680000305175781 17.905000686645508,-9.680000305175781 C17.905000686645508,-9.680000305175781 10.805999755859375,-14.149999618530273 10.805999755859375,-14.149999618530273 C10.805999755859375,-14.149999618530273 -2.2360000610351562,-15.600000381469727 -2.2360000610351562,-15.600000381469727 C-2.2360000610351562,-15.600000381469727 -17.905000686645508,-15.239999771118164 -17.905000686645508,-15.239999771118164 C-17.905000686645508,-15.239999771118164 -17.905000686645508,3.880000114440918 -17.905000686645508,3.880000114440918 C-17.905000686645508,3.880000114440918 -12.21500015258789,15.600000381469727 -12.21500015258789,15.600000381469727z">
                </path>
            </g>
            <g opacity="1" transform="matrix(1,0,0,1,40.01499938964844,23.174999237060547)">
                <path fill="rgb(232,201,182)" fill-opacity="1"
                    d=" M9.635000228881836,14.204999923706055 C9.635000228881836,14.204999923706055 -0.004999999888241291,16.635000228881836 -0.004999999888241291,16.635000228881836 C-0.004999999888241291,16.635000228881836 -9.635000228881836,14.204999923706055 -9.635000228881836,14.204999923706055 C-9.635000228881836,14.204999923706055 -3.9549999237060547,-16.635000228881836 -3.9549999237060547,-16.635000228881836 C-3.9549999237060547,-16.635000228881836 3.946000099182129,-16.635000228881836 3.946000099182129,-16.635000228881836 C3.946000099182129,-16.635000228881836 9.635000228881836,14.204999923706055 9.635000228881836,14.204999923706055z">
                </path>
            </g>
            <g opacity="1" transform="matrix(1,0,0,1,61.8650016784668,6.175000190734863)">
                <path fill="rgb(70,70,70)" fill-opacity="1"
                    d=" M-17.905000686645508,0.36500000953674316 C-17.905000686645508,0.36500000953674316 10.805000305175781,1.4550000429153442 10.805000305175781,1.4550000429153442 C10.805000305175781,1.4550000429153442 17.905000686645508,5.925000190734863 17.905000686645508,5.925000190734863 C17.905000686645508,5.925000190734863 10.805000305175781,-5.925000190734863 10.805000305175781,-5.925000190734863 C10.805000305175781,-5.925000190734863 -2.450000047683716,-3.0209999084472656 -2.450000047683716,-3.0209999084472656 C-2.450000047683716,-3.0209999084472656 -17.905000686645508,0.36500000953674316 -17.905000686645508,0.36500000953674316z">
                </path>
            </g>
            <g opacity="1" transform="matrix(1,0,0,1,18.155000686645508,6.175000190734863)">
                <path fill="rgb(70,70,70)" fill-opacity="1"
                    d=" M17.905000686645508,0.36500000953674316 C17.905000686645508,0.36500000953674316 -10.795000076293945,1.4550000429153442 -10.795000076293945,1.4550000429153442 C-10.795000076293945,1.4550000429153442 -17.905000686645508,5.925000190734863 -17.905000686645508,5.925000190734863 C-17.905000686645508,5.925000190734863 -10.795000076293945,-5.925000190734863 -10.795000076293945,-5.925000190734863 C-10.795000076293945,-5.925000190734863 17.905000686645508,0.36500000953674316 17.905000686645508,0.36500000953674316z">
                </path>
            </g>
        </g>

        <g transform="matrix(1,0,0,1,177.75,76.2300033569336)" opacity="1" style="display: block;">
            <g opacity="1" transform="matrix(1,0,0,1,48.900001525878906,5.130000114440918)">
                <path fill="rgb(43,43,43)" fill-opacity="1"
                    d=" M0.0010000000474974513,-4.880000114440918 C2.694999933242798,-4.880000114440918 4.88100004196167,-2.694999933242798 4.88100004196167,0 C4.88100004196167,2.694999933242798 2.694999933242798,4.880000114440918 0.0010000000474974513,4.880000114440918 C-2.694000005722046,4.880000114440918 -4.88100004196167,2.694999933242798 -4.88100004196167,0 C-4.88100004196167,-2.694999933242798 -2.694000005722046,-4.880000114440918 0.0010000000474974513,-4.880000114440918z">
                </path>
            </g>
            <g opacity="1" transform="matrix(1,0,0,1,5.130000114440918,5.130000114440918)">
                <path fill="rgb(43,43,43)" fill-opacity="1"
                    d=" M0,-4.880000114440918 C2.694999933242798,-4.880000114440918 4.880000114440918,-2.694999933242798 4.880000114440918,0 C4.880000114440918,2.694999933242798 2.694999933242798,4.880000114440918 0,4.880000114440918 C-2.694999933242798,4.880000114440918 -4.880000114440918,2.694999933242798 -4.880000114440918,0 C-4.880000114440918,-2.694999933242798 -2.694999933242798,-4.880000114440918 0,-4.880000114440918z">
                </path>
            </g>
        </g>

        <g transform="matrix(1,0,0,1,66.74000549316406,-0.5)" opacity="1" style="display: block;">
            <g opacity="1" transform="matrix(1,0,0,1,170.125,272.7950134277344)">
                <path fill="rgb(196,196,196)" fill-opacity="1"
                    d=" M-5.505000114440918,-112.93599700927734 C-5.505000114440918,-112.93599700927734 5.505000114440918,-112.93599700927734 5.505000114440918,-112.93599700927734 C5.505000114440918,-112.93599700927734 5.505000114440918,112.93499755859375 5.505000114440918,112.93499755859375 C5.505000114440918,112.93499755859375 -5.505000114440918,112.93499755859375 -5.505000114440918,112.93499755859375 C-5.505000114440918,112.93499755859375 -5.505000114440918,-112.93599700927734 -5.505000114440918,-112.93599700927734z">
                </path>
            </g>
            <g opacity="1" transform="matrix(1,0,0,1,170.1199951171875,159.17999267578125)">
                <path fill="rgb(221,221,220)" fill-opacity="1"
                    d=" M0.0010000000474974513,-10.239999771118164 C5.656000137329102,-10.239999771118164 10.239999771118164,-5.656000137329102 10.239999771118164,0 C10.239999771118164,5.656000137329102 5.656000137329102,10.239999771118164 0.0010000000474974513,10.239999771118164 C-5.6539998054504395,10.239999771118164 -10.239999771118164,5.656000137329102 -10.239999771118164,0 C-10.239999771118164,-5.656000137329102 -5.6539998054504395,-10.239999771118164 0.0010000000474974513,-10.239999771118164z">
                </path>
            </g>
            <g opacity="1" transform="matrix(1,0,0,1,0,0)">
                <g opacity="1" transform="matrix(1,0,0,1,166.21499633789062,312.9549865722656)">
                    <path fill="rgb(196,196,196)" fill-opacity="1"
                        d=" M-14.145000457763672,76.70500183105469 C-14.145000457763672,76.70500183105469 3.505000114440918,84.84500122070312 3.505000114440918,84.84500122070312 C3.505000114440918,84.84500122070312 14.145000457763672,67.40499877929688 14.145000457763672,67.40499877929688 C14.145000457763672,67.40499877929688 9.416000366210938,-84.84500122070312 9.416000366210938,-84.84500122070312 C9.416000366210938,-84.84500122070312 -14.145000457763672,-84.71499633789062 -14.145000457763672,-84.71499633789062 C-14.145000457763672,-84.71499633789062 -14.145000457763672,76.70500183105469 -14.145000457763672,76.70500183105469z">
                    </path>
                </g>
                <g opacity="1" transform="matrix(1,0,0,1,178.5449981689453,313.0199890136719)">
                    <path fill="rgb(157,160,161)" fill-opacity="1"
                        d=" M8.824999809265137,-84.77999877929688 C8.824999809265137,-84.77999877929688 -8.425000190734863,-84.77999877929688 -8.425000190734863,-84.77999877929688 C-8.425000190734863,-84.77999877929688 -8.824999809265137,84.77999877929688 -8.824999809265137,84.77999877929688 C-8.824999809265137,84.77999877929688 8.824999809265137,76.63999938964844 8.824999809265137,76.63999938964844 C8.824999809265137,76.63999938964844 8.824999809265137,-84.77999877929688 8.824999809265137,-84.77999877929688z">
                    </path>
                </g>
            </g>
            <g opacity="1" transform="matrix(1,0,0,1,170.125,226.90499877929688)">
                <path fill="rgb(221,221,220)" fill-opacity="1"
                    d=" M35.275001525878906,10.925000190734863 C35.275001525878906,10.925000190734863 45.79600143432617,-1.2050000429153442 45.79600143432617,-1.2050000429153442 C45.79600143432617,-1.2050000429153442 35.275001525878906,-11.725000381469727 35.275001525878906,-11.725000381469727 C35.275001525878906,-11.725000381469727 25.30500030517578,-1.7549999952316284 25.30500030517578,-1.7549999952316284 C25.30500030517578,-1.7549999952316284 7.546000003814697,-1.7549999952316284 7.546000003814697,-1.7549999952316284 C7.546000003814697,-1.7549999952316284 -0.004999999888241291,-9.3149995803833 -0.004999999888241291,-9.3149995803833 C-0.004999999888241291,-9.3149995803833 -7.554999828338623,-1.7549999952316284 -7.554999828338623,-1.7549999952316284 C-7.554999828338623,-1.7549999952316284 -23.70400047302246,-1.7549999952316284 -23.70400047302246,-1.7549999952316284 C-23.70400047302246,-1.7549999952316284 -33.67399978637695,-11.725000381469727 -33.67399978637695,-11.725000381469727 C-33.67399978637695,-11.725000381469727 -45.79600143432617,-1.2050000429153442 -45.79600143432617,-1.2050000429153442 C-45.79600143432617,-1.2050000429153442 -33.67399978637695,10.925000190734863 -33.67399978637695,10.925000190734863 C-33.67399978637695,10.925000190734863 -27.81599998474121,4.175000190734863 -27.81599998474121,4.175000190734863 C-27.81599998474121,4.175000190734863 -7.554999828338623,4.175000190734863 -7.554999828338623,4.175000190734863 C-7.554999828338623,4.175000190734863 -0.004999999888241291,11.725000381469727 -0.004999999888241291,11.725000381469727 C-0.004999999888241291,11.725000381469727 7.546000003814697,4.175000190734863 7.546000003814697,4.175000190734863 C7.546000003814697,4.175000190734863 29.423999786376953,4.175000190734863 29.423999786376953,4.175000190734863 C29.423999786376953,4.175000190734863 35.275001525878906,10.925000190734863 35.275001525878906,10.925000190734863z">
                </path>
            </g>
        </g>
        <g transform="matrix(1,0,0,1,66.739990234375,-0.5)" opacity="1" style="display: block;">
            <g opacity="1" transform="matrix(1,0,0,1,98.63999938964844,218.90499877929688)">
                <path fill="rgb(83,175,138)" fill-opacity="1"
                    d=" M-48.36000061035156,-18.924999237060547 C-48.36000061035156,-18.924999237060547 -12.760000228881836,18.924999237060547 -12.760000228881836,18.924999237060547 C-12.760000228881836,18.924999237060547 46.349998474121094,9.074999809265137 46.349998474121094,9.074999809265137 C46.349998474121094,9.074999809265137 48.36000061035156,-8.755000114440918 48.36000061035156,-8.755000114440918 C48.36000061035156,-8.755000114440918 40.619998931884766,-16.5049991607666 40.619998931884766,-16.5049991607666 C40.619998931884766,-16.5049991607666 -48.36000061035156,-18.924999237060547 -48.36000061035156,-18.924999237060547z">
                </path>
            </g>
        </g>
        <g transform="matrix(1,0.000005427737960417289,-0.000005427737960417289,1,66.74070739746094,-0.5010833740234375)"
            opacity="1" style="display: block;">
            <g opacity="1" transform="matrix(1,0,0,1,211.55999755859375,212.5050048828125)">
                <path fill="rgb(83,175,138)" fill-opacity="1"
                    d=" M29.889999389648438,-16.235000610351562 C29.889999389648438,-16.235000610351562 -20.750999450683594,-10.364999771118164 -20.750999450683594,-10.364999771118164 C-20.750999450683594,-10.364999771118164 -29.889999389648438,0.004999999888241291 -29.889999389648438,0.004999999888241291 C-29.889999389648438,0.004999999888241291 -23.490999221801758,12.645000457763672 -23.490999221801758,12.645000457763672 C-23.490999221801758,12.645000457763672 1.628999948501587,16.235000610351562 1.628999948501587,16.235000610351562 C1.628999948501587,16.235000610351562 29.889999389648438,-16.235000610351562 29.889999389648438,-16.235000610351562z">
                </path>
            </g>
        </g>
        <g transform="matrix(1,0,0,1,66.74000549316406,-0.5)" opacity="1" style="display: block;">
            <g opacity="1" transform="matrix(1,0,0,1,151.81500244140625,211.41000366210938)">
                <path fill="rgb(223,188,164)" fill-opacity="1"
                    d=" M-6.824999809265137,16.56999969482422 C-6.824999809265137,16.56999969482422 -12.555000305175781,-9.008999824523926 -12.555000305175781,-9.008999824523926 C-12.555000305175781,-9.008999824523926 12.555000305175781,-16.56999969482422 12.555000305175781,-16.56999969482422 C12.555000305175781,-16.56999969482422 -6.824999809265137,16.56999969482422 -6.824999809265137,16.56999969482422z">
                </path>
            </g>
            <g opacity="1" transform="matrix(1,0,0,1,175.34500122070312,209.9949951171875)">
                <path fill="rgb(223,188,164)" fill-opacity="1"
                    d=" M-10.973999977111816,-15.156000137329102 C-10.973999977111816,-15.156000137329102 -15.46399974822998,1.4149999618530273 -15.46399974822998,1.4149999618530273 C-15.46399974822998,1.4149999618530273 -13.354000091552734,15.156000137329102 -13.354000091552734,15.156000137329102 C-13.354000091552734,15.156000137329102 12.725000381469727,15.156000137329102 12.725000381469727,15.156000137329102 C12.725000381469727,15.156000137329102 15.46399974822998,-7.855000019073486 15.46399974822998,-7.855000019073486 C15.46399974822998,-7.855000019073486 -10.973999977111816,-15.156000137329102 -10.973999977111816,-15.156000137329102z">
                </path>
            </g>
            <g opacity="1" transform="matrix(1,0,0,1,154.67999267578125,211.41000366210938)">
                <path fill="rgb(195,151,122)" fill-opacity="1"
                    d=" M9.6899995803833,-16.570999145507812 C9.6899995803833,-16.570999145507812 7.309999942779541,13.739999771118164 7.309999942779541,13.739999771118164 C7.309999942779541,13.739999771118164 -9.6899995803833,16.56999969482422 -9.6899995803833,16.56999969482422 C-9.6899995803833,16.56999969482422 -6.620999813079834,-2.6410000324249268 -6.620999813079834,-2.6410000324249268 C-6.620999813079834,-2.6410000324249268 9.6899995803833,-16.570999145507812 9.6899995803833,-16.570999145507812z">
                </path>
            </g>
        </g>
    </g>
</svg>