<svg xmlns="http://www.w3.org/2000/svg" viewBox="0 0 400 400" width="100%" height="100%"
    preserveAspectRatio="xMidYMid meet">
    <defs>
        <clipPath id="__lottie_element_109">
            <rect width="400" height="400" x="0" y="0"></rect>
        </clipPath>
    </defs>
    <g clip-path="url(#__lottie_element_109)">
        <g transform="matrix(1,0.0000025833678591880016,-0.0000025833678591880016,1,284.82025146484375,141.80003356933594)"
            opacity="1" style="display: block;">
            <g opacity="1" transform="matrix(1,0,0,1,18.424999237060547,39.9900016784668)">
                <path fill="rgb(223,188,164)" fill-opacity="1"
                    d=" M-16.71500015258789,4.230000019073486 C-16.71500015258789,4.230000019073486 -8.324999809265137,-18.200000762939453 -8.324999809265137,-18.200000762939453 C-8.324999809265137,-18.200000762939453 4.885000228881836,-13.569999694824219 4.885000228881836,-13.569999694824219 C4.885000228881836,-13.569999694824219 16.71500015258789,-2.7699999809265137 16.71500015258789,-2.7699999809265137 C16.71500015258789,-2.7699999809265137 -6.864999771118164,18.200000762939453 -6.864999771118164,18.200000762939453 C-6.864999771118164,18.200000762939453 -17.253000259399414,19.368999481201172 -17.253000259399414,19.368999481201172 C-17.253000259399414,19.368999481201172 -16.71500015258789,4.230000019073486 -16.71500015258789,4.230000019073486z">
                </path>
            </g>
            <g opacity="1" transform="matrix(1,0,0,1,7.840000152587891,32.974998474121094)">
                <path fill="rgb(195,151,122)" fill-opacity="1"
                    d=" M7.590000152587891,3.8450000286102295 C7.590000152587891,3.8450000286102295 -0.5299999713897705,-18.5049991607666 -0.5299999713897705,-18.5049991607666 C-0.5299999713897705,-18.5049991607666 -7.590000152587891,-18.364999771118164 -7.590000152587891,-18.364999771118164 C-7.590000152587891,-18.364999771118164 -6.130000114440918,11.244999885559082 -6.130000114440918,11.244999885559082 C-6.130000114440918,11.244999885559082 -10.854999542236328,27.440000534057617 -10.854999542236328,27.440000534057617 C-10.854999542236328,27.440000534057617 0.3799999952316284,18.5049991607666 0.3799999952316284,18.5049991607666 C0.3799999952316284,18.5049991607666 7.590000152587891,3.8450000286102295 7.590000152587891,3.8450000286102295z">
                </path>
            </g>
            <g opacity="1" transform="matrix(1,0,0,1,26.989999771118164,18.735000610351562)">
                <path fill="rgb(195,151,122)" fill-opacity="1"
                    d=" M-16.889999389648438,3.055000066757202 C-16.889999389648438,3.055000066757202 3.7899999618530273,-18.485000610351562 3.7899999618530273,-18.485000610351562 C3.7899999618530273,-18.485000610351562 16.889999389648438,-6.235000133514404 16.889999389648438,-6.235000133514404 C16.889999389648438,-6.235000133514404 8.149999618530273,18.485000610351562 8.149999618530273,18.485000610351562 C8.149999618530273,18.485000610351562 -16.889999389648438,3.055000066757202 -16.889999389648438,3.055000066757202z">
                </path>
            </g>
        </g>
        <g transform="matrix(1,0,0,1,226.45001220703125,162.9399871826172)" opacity="1" style="display: block;">
            <g opacity="1" transform="matrix(1,0,0,1,10.904999732971191,23.524999618530273)">
                <path fill="rgb(62,143,110)" fill-opacity="1"
                    d=" M-10.654999732971191,-23.274999618530273 C-10.654999732971191,-23.274999618530273 10.654999732971191,-4.804999828338623 10.654999732971191,-4.804999828338623 C10.654999732971191,-4.804999828338623 6.073999881744385,8.03499984741211 6.073999881744385,8.03499984741211 C6.073999881744385,8.03499984741211 -6.914999961853027,23.274999618530273 -6.914999961853027,23.274999618530273 C-6.914999961853027,23.274999618530273 -38.446998596191406,55.62099838256836 -38.446998596191406,55.62099838256836 C-38.446998596191406,55.62099838256836 -29.5310001373291,7.050000190734863 -29.5310001373291,7.050000190734863 C-29.5310001373291,7.050000190734863 -10.654999732971191,-23.274999618530273 -10.654999732971191,-23.274999618530273z">
                </path>
            </g>
            <g opacity="1" transform="matrix(1,0,0,1,26.799999237060547,37.709999084472656)">
                <path fill="rgb(153,194,108)" fill-opacity="1"
                    d=" M-5.239999771118164,-18.989999771118164 C-5.239999771118164,-18.989999771118164 22.80900001525879,3.759999990463257 22.80900001525879,3.759999990463257 C22.80900001525879,3.759999990463257 17.7189998626709,14.331000328063965 17.7189998626709,14.331000328063965 C17.7189998626709,14.331000328063965 -8.710000038146973,18.989999771118164 -8.710000038146973,18.989999771118164 C-8.710000038146973,18.989999771118164 -22.80900001525879,9.09000015258789 -22.80900001525879,9.09000015258789 C-22.80900001525879,9.09000015258789 -5.239999771118164,-18.989999771118164 -5.239999771118164,-18.989999771118164z">
                </path>
            </g>
        </g>
        <g transform="matrix(1,0.0000025775213998713298,-0.0000025775213998713298,1,244.29014587402344,185.30992126464844)"
            opacity="1" style="display: block;">
            <g opacity="1" transform="matrix(1,0,0,1,32.17499923706055,25.600000381469727)">
                <path fill="rgb(115,141,86)" fill-opacity="1"
                    d=" M-31.924999237060547,8.729999542236328 C-31.924999237060547,8.729999542236328 10.114999771118164,-25.350000381469727 10.114999771118164,-25.350000381469727 C10.114999771118164,-25.350000381469727 31.924999237060547,-2.690000057220459 31.924999237060547,-2.690000057220459 C31.924999237060547,-2.690000057220459 -8.045000076293945,25.350000381469727 -8.045000076293945,25.350000381469727 C-8.045000076293945,25.350000381469727 -31.924999237060547,8.729999542236328 -31.924999237060547,8.729999542236328z">
                </path>
            </g>
        </g>
        <g transform="matrix(1,0,0,1,71.44000244140625,235.25)" opacity="1" style="display: block;">
            <g opacity="0.1" transform="matrix(1,0,0,1,128.98500061035156,151.97999572753906)">
                <path fill="rgb(0,0,0)" fill-opacity="1"
                    d=" M128.98500061035156,-2.1500000953674316 C128.98500061035156,-2.1500000953674316 -8.045000076293945,-12.770000457763672 -8.045000076293945,-12.770000457763672 C-8.045000076293945,-12.770000457763672 -128.98500061035156,-0.9100000262260437 -128.98500061035156,-0.9100000262260437 C-128.98500061035156,-0.9100000262260437 -7.764999866485596,12.770000457763672 -7.764999866485596,12.770000457763672 C-7.764999866485596,12.770000457763672 128.98500061035156,-2.1500000953674316 128.98500061035156,-2.1500000953674316z">
                </path>
            </g>
            <g opacity="1" transform="matrix(1,0,0,1,70.43499755859375,136.10400390625)">
                <path fill="rgb(79,82,82)" fill-opacity="1"
                    d=" M15.295000076293945,4.735000133514404 C15.295000076293945,4.735000133514404 -10.755000114440918,14.944999694824219 -10.755000114440918,14.944999694824219 C-10.755000114440918,14.944999694824219 -15.295000076293945,4.864999771118164 -15.295000076293945,4.864999771118164 C-15.295000076293945,4.864999771118164 -11.625,-11.925000190734863 -11.625,-11.925000190734863 C-11.625,-11.925000190734863 -3.575000047683716,-14.944999694824219 -3.575000047683716,-14.944999694824219 C-3.575000047683716,-14.944999694824219 8.414999961853027,-11.154999732971191 8.414999961853027,-11.154999732971191 C8.414999961853027,-11.154999732971191 15.295000076293945,4.735000133514404 15.295000076293945,4.735000133514404z">
                </path>
            </g>
            <g opacity="1" transform="matrix(1,0,0,1,168.49000549316406,130.7100067138672)">
                <path fill="rgb(79,82,82)" fill-opacity="1"
                    d=" M16.139999389648438,-3.3399999141693115 C16.139999389648438,-3.3399999141693115 5.849999904632568,15.329999923706055 5.849999904632568,15.329999923706055 C5.849999904632568,15.329999923706055 -14.4399995803833,4.800000190734863 -14.4399995803833,4.800000190734863 C-14.4399995803833,4.800000190734863 -16.139999389648438,-6.820000171661377 -16.139999389648438,-6.820000171661377 C-16.139999389648438,-6.820000171661377 2.180000066757202,-15.329999923706055 2.180000066757202,-15.329999923706055 C2.180000066757202,-15.329999923706055 16.139999389648438,-3.3399999141693115 16.139999389648438,-3.3399999141693115z">
                </path>
            </g>
            <g opacity="0.1" transform="matrix(1,0,0,1,161.8800048828125,125.75900268554688)">
                <path fill="rgb(0,0,0)" fill-opacity="1"
                    d=" M9.529999732971191,-9.75 C9.529999732971191,-9.75 -7.828999996185303,9.75 -7.828999996185303,9.75 C-7.828999996185303,9.75 -9.529999732971191,-1.8700000047683716 -9.529999732971191,-1.8700000047683716 C-9.529999732971191,-1.8700000047683716 -3.5390000343322754,-8.319000244140625 -3.5390000343322754,-8.319000244140625 C-3.5390000343322754,-8.319000244140625 9.529999732971191,-9.75 9.529999732971191,-9.75z">
                </path>
            </g>
            <g opacity="0.1" transform="matrix(1,0,0,1,67.73999786376953,127.65499877929688)">
                <path fill="rgb(0,0,0)" fill-opacity="1"
                    d=" M-8.930000305175781,-3.4749999046325684 C-8.930000305175781,-3.4749999046325684 1.600000023841858,-6.494999885559082 1.600000023841858,-6.494999885559082 C1.600000023841858,-6.494999885559082 11.109999656677246,-2.7039999961853027 11.109999656677246,-2.7039999961853027 C11.109999656677246,-2.7039999961853027 -11.109999656677246,6.495999813079834 -11.109999656677246,6.495999813079834 C-11.109999656677246,6.495999813079834 -8.930000305175781,-3.4749999046325684 -8.930000305175781,-3.4749999046325684z">
                </path>
            </g>
            <g opacity="1" transform="matrix(1,0,0,1,182,138.69000244140625)">
                <path fill="rgb(110,112,115)" fill-opacity="1"
                    d=" M-10.659000396728516,4.349999904632568 C-10.659000396728516,4.349999904632568 -27.948999404907227,-3.180000066757202 -27.948999404907227,-3.180000066757202 C-27.948999404907227,-3.180000066757202 -26.670000076293945,10.859999656677246 -26.670000076293945,10.859999656677246 C-26.670000076293945,10.859999656677246 27.948999404907227,11.319999694824219 27.948999404907227,11.319999694824219 C27.948999404907227,11.319999694824219 27.650999069213867,-3.7899999618530273 27.650999069213867,-3.7899999618530273 C27.650999069213867,-3.7899999618530273 2.630000114440918,-11.319999694824219 2.630000114440918,-11.319999694824219 C2.630000114440918,-11.319999694824219 -10.659000396728516,4.349999904632568 -10.659000396728516,4.349999904632568z">
                </path>
            </g>
            <g opacity="1" transform="matrix(1,0,0,1,75.2300033569336,147.23399353027344)">
                <path fill="rgb(110,112,115)" fill-opacity="1"
                    d=" M20.790000915527344,9.395000457763672 C20.790000915527344,9.395000457763672 20.5,-6.864999771118164 20.5,-6.864999771118164 C20.5,-6.864999771118164 -3.509999990463257,-9.395000457763672 -3.509999990463257,-9.395000457763672 C-3.509999990463257,-9.395000457763672 -13.890000343322754,1.184999942779541 -13.890000343322754,1.184999942779541 C-13.890000343322754,1.184999942779541 -20.09000015258789,-6.264999866485596 -20.09000015258789,-6.264999866485596 C-20.09000015258789,-6.264999866485596 -20.790000915527344,9.395000457763672 -20.790000915527344,9.395000457763672 C-20.790000915527344,9.395000457763672 20.790000915527344,9.395000457763672 20.790000915527344,9.395000457763672z">
                </path>
            </g>
        </g>
        <g transform="matrix(1,0,0,1,71.44001007080078,235.24998474121094)" opacity="1" style="display: block;">
            <g opacity="1" transform="matrix(1,0,0,1,117.55500030517578,60.70500183105469)">
                <path fill="rgb(83,175,138)" fill-opacity="1"
                    d=" M39.744998931884766,-36.595001220703125 C39.744998931884766,-36.595001220703125 63.933998107910156,36.665000915527344 63.933998107910156,36.665000915527344 C63.933998107910156,36.665000915527344 46.3849983215332,52.64400100708008 46.3849983215332,52.64400100708008 C46.3849983215332,52.64400100708008 26.344999313354492,50.7239990234375 26.344999313354492,50.7239990234375 C26.344999313354492,50.7239990234375 17.364999771118164,23.545000076293945 17.364999771118164,23.545000076293945 C17.364999771118164,23.545000076293945 0.41499999165534973,12.505000114440918 0.41499999165534973,12.505000114440918 C0.41499999165534973,12.505000114440918 -23.364999771118164,50.7239990234375 -23.364999771118164,50.7239990234375 C-23.364999771118164,50.7239990234375 -38.70399856567383,60.45500183105469 -38.70399856567383,60.45500183105469 C-38.70399856567383,60.45500183105469 -63.935001373291016,48.82500076293945 -63.935001373291016,48.82500076293945 C-63.935001373291016,48.82500076293945 -63.685001373291016,-24.395999908447266 -63.685001373291016,-24.395999908447266 C-63.685001373291016,-24.395999908447266 -50.45399856567383,-60.45500183105469 -50.45399856567383,-60.45500183105469 C-50.45399856567383,-60.45500183105469 39.744998931884766,-36.595001220703125 39.744998931884766,-36.595001220703125z">
                </path>
            </g>
            <g opacity="1" transform="matrix(1,0,0,1,156.78500366210938,68.13500213623047)">
                <path fill="rgb(62,143,110)" fill-opacity="1"
                    d=" M-6.514999866485596,-38.505001068115234 C-6.514999866485596,-38.505001068115234 18.934999465942383,33.625 18.934999465942383,33.625 C18.934999465942383,33.625 9.324999809265137,38.505001068115234 9.324999809265137,38.505001068115234 C9.324999809265137,38.505001068115234 -18.934999465942383,-25.145000457763672 -18.934999465942383,-25.145000457763672 C-18.934999465942383,-25.145000457763672 -6.514999866485596,-38.505001068115234 -6.514999866485596,-38.505001068115234z">
                </path>
            </g>
            <g opacity="1" transform="matrix(1,0,0,1,136.8800048828125,77.06400299072266)">
                <path fill="rgb(62,143,110)" fill-opacity="1"
                    d=" M-4.380000114440918,-17.415000915527344 C-4.380000114440918,-17.415000915527344 18.90999984741211,33.23400115966797 18.90999984741211,33.23400115966797 C18.90999984741211,33.23400115966797 7.019000053405762,34.3650016784668 7.019000053405762,34.3650016784668 C7.019000053405762,34.3650016784668 -18.90999984741211,-3.8540000915527344 -18.90999984741211,-3.8540000915527344 C-18.90999984741211,-3.8540000915527344 -16.969999313354492,-34.3650016784668 -16.969999313354492,-34.3650016784668 C-16.969999313354492,-34.3650016784668 -4.380000114440918,-17.415000915527344 -4.380000114440918,-17.415000915527344z">
                </path>
            </g>
            <g opacity="1" transform="matrix(1,0,0,1,89.4800033569336,78.5739974975586)">
                <path fill="rgb(62,143,110)" fill-opacity="1"
                    d=" M14.449999809265137,-16.503999710083008 C14.449999809265137,-16.503999710083008 -4.409999847412109,34.814998626708984 -4.409999847412109,34.814998626708984 C-4.409999847412109,34.814998626708984 -14.449999809265137,33.775001525878906 -14.449999809265137,33.775001525878906 C-14.449999809265137,33.775001525878906 1.399999976158142,-34.814998626708984 1.399999976158142,-34.814998626708984 C1.399999976158142,-34.814998626708984 14.449999809265137,-16.503999710083008 14.449999809265137,-16.503999710083008z">
                </path>
            </g>
            <g opacity="1" transform="matrix(1,0,0,1,69.95500183105469,72.01499938964844)">
                <path fill="rgb(62,143,110)" fill-opacity="1"
                    d=" M11.345000267028809,-41.71500015258789 C11.345000267028809,-41.71500015258789 -2.615000009536743,41.71500015258789 -2.615000009536743,41.71500015258789 C-2.615000009536743,41.71500015258789 -11.345000267028809,37.98400115966797 -11.345000267028809,37.98400115966797 C-11.345000267028809,37.98400115966797 -8.154999732971191,-24.46500015258789 -8.154999732971191,-24.46500015258789 C-8.154999732971191,-24.46500015258789 11.345000267028809,-41.71500015258789 11.345000267028809,-41.71500015258789z">
                </path>
            </g>
            <g opacity="1" transform="matrix(1,0,0,1,165.0749969482422,110.62999725341797)">
                <path fill="rgb(53,120,93)" fill-opacity="1"
                    d=" M16.415000915527344,-13.260000228881836 C16.415000915527344,-13.260000228881836 -21.174999237060547,0.800000011920929 -21.174999237060547,0.800000011920929 C-21.174999237060547,0.800000011920929 -12.725000381469727,13.260000228881836 -12.725000381469727,13.260000228881836 C-12.725000381469727,13.260000228881836 21.174999237060547,1.159999966621399 21.174999237060547,1.159999966621399 C21.174999237060547,1.159999966621399 16.415000915527344,-13.260000228881836 16.415000915527344,-13.260000228881836z">
                </path>
            </g>
            <g opacity="1" transform="matrix(1,0,0,1,73.87999725341797,117.44000244140625)">
                <path fill="rgb(53,120,93)" fill-opacity="1"
                    d=" M20.309999465942383,-6.010000228881836 C20.309999465942383,-6.010000228881836 -20.260000228881836,-7.909999847412109 -20.260000228881836,-7.909999847412109 C-20.260000228881836,-7.909999847412109 -20.309999465942383,6.449999809265137 -20.309999465942383,6.449999809265137 C-20.309999465942383,6.449999809265137 11.649999618530273,7.909999847412109 11.649999618530273,7.909999847412109 C11.649999618530273,7.909999847412109 20.309999465942383,-6.010000228881836 20.309999465942383,-6.010000228881836z">
                </path>
            </g>
            <g opacity="1" transform="matrix(1,0,0,1,118.21499633789062,54.45500183105469)">
                <path fill="rgb(53,120,93)" fill-opacity="1"
                    d=" M14.28499984741211,5.195000171661377 C14.28499984741211,5.195000171661377 -0.24500000476837158,18.7549991607666 -0.24500000476837158,18.7549991607666 C-0.24500000476837158,18.7549991607666 -14.28499984741211,7.614999771118164 -14.28499984741211,7.614999771118164 C-14.28499984741211,7.614999771118164 1.6950000524520874,-18.7549991607666 1.6950000524520874,-18.7549991607666 C1.6950000524520874,-18.7549991607666 14.28499984741211,5.195000171661377 14.28499984741211,5.195000171661377z">
                </path>
            </g>
        </g>
        <g transform="matrix(1,0,0,1,74.34001159667969,129.83998107910156)" opacity="1" style="display: block;">
            <g opacity="1" transform="matrix(1,0,0,1,25.459999084472656,120.26000213623047)">
                <path fill="rgb(79,82,82)" fill-opacity="1"
                    d=" M-25.209999084472656,-13.399999618530273 C-25.209999084472656,-13.399999618530273 14.40999984741211,13.399999618530273 14.40999984741211,13.399999618530273 C14.40999984741211,13.399999618530273 25.209999084472656,-8.220000267028809 25.209999084472656,-8.220000267028809 C25.209999084472656,-8.220000267028809 -25.209999084472656,-13.399999618530273 -25.209999084472656,-13.399999618530273z">
                </path>
            </g>
            <g opacity="1" transform="matrix(1,0,0,1,56.154998779296875,10.1850004196167)">
                <path fill="rgb(196,196,196)" fill-opacity="1"
                    d=" M-42.775001525878906,-9.9350004196167 C-42.775001525878906,-9.9350004196167 42.775001525878906,-9.175000190734863 42.775001525878906,-9.175000190734863 C42.775001525878906,-9.175000190734863 68.25,-7.443999767303467 68.25,-7.443999767303467 C68.25,-7.443999767303467 28.895000457763672,8.635000228881836 28.895000457763672,8.635000228881836 C28.895000457763672,8.635000228881836 -3.7750000953674316,9.9350004196167 -3.7750000953674316,9.9350004196167 C-3.7750000953674316,9.9350004196167 -42.775001525878906,-9.9350004196167 -42.775001525878906,-9.9350004196167z">
                </path>
            </g>
            <g opacity="1" transform="matrix(1,0,0,1,32.75,58.21500015258789)">
                <path fill="rgb(110,112,115)" fill-opacity="1"
                    d=" M20.360000610351562,-44.69499969482422 C20.360000610351562,-44.69499969482422 -19.3700008392334,-57.96500015258789 -19.3700008392334,-57.96500015258789 C-19.3700008392334,-57.96500015258789 -22.829999923706055,-29.80500030517578 -22.829999923706055,-29.80500030517578 C-22.829999923706055,-29.80500030517578 -23.030000686645508,-8.404999732971191 -23.030000686645508,-8.404999732971191 C-23.030000686645508,-8.404999732971191 -27.540000915527344,8.395000457763672 -27.540000915527344,8.395000457763672 C-27.540000915527344,8.395000457763672 -32.5,48.64500045776367 -32.5,48.64500045776367 C-32.5,48.64500045776367 32.5,57.96500015258789 32.5,57.96500015258789 C32.5,57.96500015258789 20.360000610351562,-44.69499969482422 20.360000610351562,-44.69499969482422z">
                </path>
            </g>
            <g opacity="1" transform="matrix(1,0,0,1,75.83499908447266,61.61000061035156)">
                <path fill="rgb(79,82,82)" fill-opacity="1"
                    d=" M11.21500015258789,-52.29999923706055 C11.21500015258789,-52.29999923706055 -22.725000381469727,-48.09000015258789 -22.725000381469727,-48.09000015258789 C-22.725000381469727,-48.09000015258789 -24.364999771118164,-33.220001220703125 -24.364999771118164,-33.220001220703125 C-24.364999771118164,-33.220001220703125 -29.985000610351562,52.29999923706055 -29.985000610351562,52.29999923706055 C-29.985000610351562,52.29999923706055 29.985000610351562,39.189998626708984 29.985000610351562,39.189998626708984 C29.985000610351562,39.189998626708984 43.229000091552734,-58.481998443603516 43.229000091552734,-58.481998443603516 C43.229000091552734,-58.481998443603516 11.21500015258789,-52.29999923706055 11.21500015258789,-52.29999923706055z">
                </path>
            </g>
            <g opacity="1" transform="matrix(1,0,0,1,19.709999084472656,52.904998779296875)">
                <path fill="rgb(157,160,161)" fill-opacity="1"
                    d=" M-9.789999961853027,-24.4950008392334 C-9.789999961853027,-24.4950008392334 0.15000000596046448,-18.204999923706055 0.15000000596046448,-18.204999923706055 C0.15000000596046448,-18.204999923706055 14.5,-15.645000457763672 14.5,-15.645000457763672 C14.5,-15.645000457763672 8.539999961853027,24.4950008392334 8.539999961853027,24.4950008392334 C8.539999961853027,24.4950008392334 -14.5,13.704999923706055 -14.5,13.704999923706055 C-14.5,13.704999923706055 -12.3100004196167,-4.054999828338623 -12.3100004196167,-4.054999828338623 C-12.3100004196167,-4.054999828338623 -9.25,-11.524999618530273 -9.25,-11.524999618530273 C-9.25,-11.524999618530273 -9.789999961853027,-24.4950008392334 -9.789999961853027,-24.4950008392334z">
                </path>
            </g>
            <g opacity="1" transform="matrix(1,0,0,1,20.80500030517578,38.630001068115234)">
                <path fill="rgb(196,196,196)" fill-opacity="1"
                    d=" M13.404999732971191,-1.3700000047683716 C13.404999732971191,-1.3700000047683716 -13.404999732971191,10.220000267028809 -13.404999732971191,10.220000267028809 C-13.404999732971191,10.220000267028809 -10.885000228881836,-10.220000267028809 -10.885000228881836,-10.220000267028809 C-10.885000228881836,-10.220000267028809 13.404999732971191,-1.3700000047683716 13.404999732971191,-1.3700000047683716z">
                </path>
            </g>
        </g>
        <g transform="matrix(1,0,0,1,124.760009765625,148.4099884033203)" opacity="1" style="display: block;">
            <g opacity="1" transform="matrix(1,0,0,1,52.96500015258789,74.58000183105469)">
                <path fill="rgb(115,141,86)" fill-opacity="1"
                    d=" M38.564998626708984,-57.59000015258789 C38.564998626708984,-57.59000015258789 52.71500015258789,-13.25 52.71500015258789,-13.25 C52.71500015258789,-13.25 51.01499938964844,36.369998931884766 51.01499938964844,36.369998931884766 C51.01499938964844,36.369998931884766 26.21500015258789,71.91000366210938 26.21500015258789,71.91000366210938 C26.21500015258789,71.91000366210938 13.625,54.959999084472656 13.625,54.959999084472656 C13.625,54.959999084472656 -2.3550000190734863,74.33000183105469 -2.3550000190734863,74.33000183105469 C-2.3550000190734863,74.33000183105469 -31.315000534057617,33.66999816894531 -31.315000534057617,33.66999816894531 C-31.315000534057617,33.66999816894531 -52.71500015258789,30.329999923706055 -52.71500015258789,30.329999923706055 C-52.71500015258789,30.329999923706055 -48.845001220703125,-10.600000381469727 -48.845001220703125,-10.600000381469727 C-48.845001220703125,-10.600000381469727 -18.861000061035156,-74.14099884033203 -18.861000061035156,-74.14099884033203 C-18.861000061035156,-74.14099884033203 10.059000015258789,-78.65399932861328 10.059000015258789,-78.65399932861328 C10.059000015258789,-78.65399932861328 38.564998626708984,-57.59000015258789 38.564998626708984,-57.59000015258789z">
                </path>
            </g>
            <g opacity="1" transform="matrix(1,0,0,1,0,0)">
                <g opacity="1" transform="matrix(1,0,0,1,67.07499694824219,89.11000061035156)">
                    <path fill="rgb(79,82,82)" fill-opacity="1"
                        d=" M2.424999952316284,-29.301000595092773 C2.424999952316284,-29.301000595092773 -15.015000343322754,18.15999984741211 -15.015000343322754,18.15999984741211 C-15.015000343322754,18.15999984741211 -0.48500001430511475,29.301000595092773 -0.48500001430511475,29.301000595092773 C-0.48500001430511475,29.301000595092773 15.015000343322754,18.638999938964844 15.015000343322754,18.638999938964844 C15.015000343322754,18.638999938964844 2.424999952316284,-29.301000595092773 2.424999952316284,-29.301000595092773z">
                    </path>
                </g>
                <g opacity="1" transform="matrix(1,0,0,1,67.07499694824219,118.40499877929688)">
                    <path fill="rgb(70,70,70)" fill-opacity="1"
                        d=" M15.015000343322754,-10.654999732971191 C15.015000343322754,-10.654999732971191 -15.015000343322754,-11.135000228881836 -15.015000343322754,-11.135000228881836 C-15.015000343322754,-11.135000228881836 -0.48500001430511475,11.135000228881836 -0.48500001430511475,11.135000228881836 C-0.48500001430511475,11.135000228881836 15.015000343322754,-10.654999732971191 15.015000343322754,-10.654999732971191z">
                    </path>
                </g>
                <g opacity="1" transform="matrix(1,0,0,1,69.9000015258789,48.915000915527344)">
                    <path fill="rgb(70,70,70)" fill-opacity="1"
                        d=" M14.880000114440918,-5.954999923706055 C14.880000114440918,-5.954999923706055 -0.4000000059604645,10.895000457763672 -0.4000000059604645,10.895000457763672 C-0.4000000059604645,10.895000457763672 -14.880000114440918,-8.095000267028809 -14.880000114440918,-8.095000267028809 C-14.880000114440918,-8.095000267028809 1.0499999523162842,-10.895000457763672 1.0499999523162842,-10.895000457763672 C1.0499999523162842,-10.895000457763672 14.880000114440918,-5.954999923706055 14.880000114440918,-5.954999923706055z">
                    </path>
                </g>
            </g>
        </g>
        <g transform="matrix(1,0,0,1,96.43000793457031,148.4099884033203)" opacity="1" style="display: block;">
            <g opacity="1" transform="matrix(1,0,0,1,20.704999923706055,43.16999816894531)">
                <path fill="rgb(90,117,60)" fill-opacity="1"
                    d=" M20.454999923706055,12.640000343322754 C20.454999923706055,12.640000343322754 20.454999923706055,-17.639999389648438 20.454999923706055,-17.639999389648438 C20.454999923706055,-17.639999389648438 8.675000190734863,-33.349998474121094 8.675000190734863,-33.349998474121094 C8.675000190734863,-33.349998474121094 -20.454999923706055,33.349998474121094 -20.454999923706055,33.349998474121094 C-20.454999923706055,33.349998474121094 0.004999999888241291,32.29999923706055 0.004999999888241291,32.29999923706055 C0.004999999888241291,32.29999923706055 11.744999885559082,25.820999145507812 11.744999885559082,25.820999145507812 C11.744999885559082,25.820999145507812 20.454999923706055,12.640000343322754 20.454999923706055,12.640000343322754z">
                </path>
            </g>
            <g opacity="1" transform="matrix(1,0,0,1,46.16999816894531,28.030000686645508)">
                <path fill="rgb(62,143,110)" fill-opacity="1"
                    d=" M16.790000915527344,-27.780000686645508 C16.790000915527344,-27.780000686645508 -16.790000915527344,-18.209999084472656 -16.790000915527344,-18.209999084472656 C-16.790000915527344,-18.209999084472656 -5.010000228881836,27.780000686645508 -5.010000228881836,27.780000686645508 C-5.010000228881836,27.780000686645508 16.790000915527344,-27.780000686645508 16.790000915527344,-27.780000686645508z">
                </path>
            </g>
        </g>
        <g transform="matrix(1,0,0,1,96.43000793457031,217.1499786376953)" opacity="1" style="display: block;">
            <g opacity="1" transform="matrix(1,0,0,1,42.595001220703125,52.58000183105469)">
                <path fill="rgb(195,151,122)" fill-opacity="1"
                    d=" M7.385000228881836,-13.069999694824219 C7.385000228881836,-13.069999694824219 13.71500015258789,-4.179999828338623 13.71500015258789,-4.179999828338623 C13.71500015258789,-4.179999828338623 -5.784999847412109,13.069999694824219 -5.784999847412109,13.069999694824219 C-5.784999847412109,13.069999694824219 -13.71500015258789,1.8289999961853027 -13.71500015258789,1.8289999961853027 C-13.71500015258789,1.8289999961853027 -8.975000381469727,-11.100000381469727 -8.975000381469727,-11.100000381469727 C-8.975000381469727,-11.100000381469727 7.385000228881836,-13.069999694824219 7.385000228881836,-13.069999694824219z">
                </path>
            </g>
            <g opacity="1" transform="matrix(1,0,0,1,25.114999771118164,29.315000534057617)">
                <path fill="rgb(153,194,108)" fill-opacity="1"
                    d=" M-24.864999771118164,-21.535999298095703 C-24.864999771118164,-21.535999298095703 -1.8550000190734863,29.065000534057617 -1.8550000190734863,29.065000534057617 C-1.8550000190734863,29.065000534057617 24.864999771118164,10.194000244140625 24.864999771118164,10.194000244140625 C24.864999771118164,10.194000244140625 7.335000038146973,-29.065000534057617 7.335000038146973,-29.065000534057617 C7.335000038146973,-29.065000534057617 -24.864999771118164,-21.535999298095703 -24.864999771118164,-21.535999298095703z">
                </path>
            </g>
        </g>
        <g transform="matrix(1,0,0,1,0.00000762939453125,-0.0000152587890625)" opacity="1" style="display: block;">
            <g opacity="1" transform="matrix(1,0,0,1,175.5399932861328,177.4499969482422)">
                <path fill="rgb(153,194,108)" fill-opacity="1"
                    d=" M20.170000076293945,8.979999542236328 C20.170000076293945,8.979999542236328 5.239999771118164,-17.329999923706055 5.239999771118164,-17.329999923706055 C5.239999771118164,-17.329999923706055 -16.149999618530273,-28.790000915527344 -16.149999618530273,-28.790000915527344 C-16.149999618530273,-28.790000915527344 -20.170000076293945,28.790000915527344 -20.170000076293945,28.790000915527344 C-20.170000076293945,28.790000915527344 20.170000076293945,8.979999542236328 20.170000076293945,8.979999542236328z">
                </path>
            </g>
            <g opacity="1" transform="matrix(1,0,0,1,213.0749969482422,186.46499633789062)">
                <path fill="rgb(153,194,108)" fill-opacity="1"
                    d=" M13.625,-23.274999618530273 C13.625,-23.274999618530273 -11.28499984741211,-17.9950008392334 -11.28499984741211,-17.9950008392334 C-11.28499984741211,-17.9950008392334 -17.364999771118164,-0.03500000014901161 -17.364999771118164,-0.03500000014901161 C-17.364999771118164,-0.03500000014901161 17.364999771118164,23.274999618530273 17.364999771118164,23.274999618530273 C17.364999771118164,23.274999618530273 13.625,-23.274999618530273 13.625,-23.274999618530273z">
                </path>
            </g>
            <g opacity="1" transform="matrix(1,0,0,1,159.38999938964844,26.875)">
                <path fill="rgb(62,143,110)" fill-opacity="1"
                    d=" M12.59000015258789,-26.875 C12.59000015258789,-26.875 -46.970001220703125,26.875 -46.970001220703125,26.875 C-46.970001220703125,26.875 46.970001220703125,15.133999824523926 46.970001220703125,15.133999824523926 C46.970001220703125,15.133999824523926 12.59000015258789,-26.875 12.59000015258789,-26.875z">
                </path>
            </g>
            <g opacity="1" transform="matrix(1,0,0,1,0,0)">
                <g opacity="1" transform="matrix(1,0,0,1,216.52999877929688,160.28500366210938)">
                    <path fill="rgb(90,117,60)" fill-opacity="1"
                        d=" M5.809999942779541,-18.405000686645508 C5.809999942779541,-18.405000686645508 -10.168999671936035,-5.554999828338623 -10.168999671936035,-5.554999828338623 C-10.168999671936035,-5.554999828338623 -10.168999671936035,18.405000686645508 -10.168999671936035,18.405000686645508 C-10.168999671936035,18.405000686645508 10.168999671936035,2.9049999713897705 10.168999671936035,2.9049999713897705 C10.168999671936035,2.9049999713897705 5.809999942779541,-18.405000686645508 5.809999942779541,-18.405000686645508z">
                    </path>
                </g>
                <g opacity="1" transform="matrix(1,0,0,1,168.7550048828125,143.4149932861328)">
                    <path fill="rgb(90,117,60)" fill-opacity="1"
                        d=" M-3.055000066757202,-24.725000381469727 C-3.055000066757202,-24.725000381469727 -9.364999771118164,5.244999885559082 -9.364999771118164,5.244999885559082 C-9.364999771118164,5.244999885559082 9.364999771118164,24.725000381469727 9.364999771118164,24.725000381469727 C9.364999771118164,24.725000381469727 8.0649995803833,0.4050000011920929 8.0649995803833,0.4050000011920929 C8.0649995803833,0.4050000011920929 -3.055000066757202,-24.725000381469727 -3.055000066757202,-24.725000381469727z">
                    </path>
                </g>
                <g opacity="1" transform="matrix(1,0,0,1,148.28500366210938,111.1300048828125)">
                    <path fill="rgb(53,120,93)" fill-opacity="1"
                        d=" M-19.405000686645508,14.770000457763672 C-19.405000686645508,14.770000457763672 17.415000915527344,7.559999942779541 17.415000915527344,7.559999942779541 C17.415000915527344,7.559999942779541 19.405000686645508,-3.049999952316284 19.405000686645508,-3.049999952316284 C19.405000686645508,-3.049999952316284 13.03499984741211,-14.770000457763672 13.03499984741211,-14.770000457763672 C13.03499984741211,-14.770000457763672 -1.6749999523162842,-5.429999828338623 -1.6749999523162842,-5.429999828338623 C-1.6749999523162842,-5.429999828338623 -19.405000686645508,14.770000457763672 -19.405000686645508,14.770000457763672z">
                    </path>
                </g>
                <g opacity="1" transform="matrix(1,0,0,1,279.54400634765625,91.80000305175781)">
                    <path fill="rgb(62,143,110)" fill-opacity="1"
                        d=" M5.835000038146973,-36.66999816894531 C5.835000038146973,-36.66999816894531 -9.545000076293945,-4.130000114440918 -9.545000076293945,-4.130000114440918 C-9.545000076293945,-4.130000114440918 -14.46500015258789,36.66999816894531 -14.46500015258789,36.66999816894531 C-14.46500015258789,36.66999816894531 14.46500015258789,22.479999542236328 14.46500015258789,22.479999542236328 C14.46500015258789,22.479999542236328 13.015000343322754,-28.850000381469727 13.015000343322754,-28.850000381469727 C13.015000343322754,-28.850000381469727 11.925000190734863,-35.33000183105469 11.925000190734863,-35.33000183105469 C11.925000190734863,-35.33000183105469 5.835000038146973,-36.66999816894531 5.835000038146973,-36.66999816894531z">
                    </path>
                </g>
                <g opacity="1" transform="matrix(1,0,0,1,274.7950134277344,107.57000732421875)">
                    <path fill="rgb(153,194,108)" fill-opacity="1"
                        d=" M0.574999988079071,-20.899999618530273 C0.574999988079071,-20.899999618530273 9.71500015258789,11.369999885559082 9.71500015258789,11.369999885559082 C9.71500015258789,11.369999885559082 -9.71500015258789,20.899999618530273 -9.71500015258789,20.899999618530273 C-9.71500015258789,20.899999618530273 -6.965000152587891,8.34000015258789 -6.965000152587891,8.34000015258789 C-6.965000152587891,8.34000015258789 -0.2150000035762787,4.900000095367432 -0.2150000035762787,4.900000095367432 C-0.2150000035762787,4.900000095367432 -2.7149999141693115,-4.389999866485596 -2.7149999141693115,-4.389999866485596 C-2.7149999141693115,-4.389999866485596 0.574999988079071,-20.899999618530273 0.574999988079071,-20.899999618530273z">
                    </path>
                </g>
                <g opacity="1" transform="matrix(1,0,0,1,223.35000610351562,107.26000213623047)">
                    <path fill="rgb(223,188,164)" fill-opacity="1"
                        d=" M62.029998779296875,-52.130001068115234 C62.029998779296875,-52.130001068115234 49.27299880981445,-6.03000020980835 49.27299880981445,-6.03000020980835 C49.27299880981445,-6.03000020980835 45.641998291015625,7.0879998207092285 45.641998291015625,7.0879998207092285 C45.641998291015625,7.0879998207092285 36.279998779296875,40.91999816894531 36.279998779296875,40.91999816894531 C36.279998779296875,40.91999816894531 -1.0099999904632568,34.619998931884766 -1.0099999904632568,34.619998931884766 C-1.0099999904632568,34.619998931884766 -20.059999465942383,64.22000122070312 -20.059999465942383,64.22000122070312 C-20.059999465942383,64.22000122070312 -27.639999389648438,79.16999816894531 -27.639999389648438,79.16999816894531 C-27.639999389648438,79.16999816894531 -35.5099983215332,53.02000045776367 -35.5099983215332,53.02000045776367 C-35.5099983215332,53.02000045776367 -62.029998779296875,-10.899999618530273 -62.029998779296875,-10.899999618530273 C-62.029998779296875,-10.899999618530273 -13.619000434875488,-55.0099983215332 -13.619000434875488,-55.0099983215332 C-13.619000434875488,-55.0099983215332 37.25,-79.16999816894531 37.25,-79.16999816894531 C37.25,-79.16999816894531 62.029998779296875,-52.130001068115234 62.029998779296875,-52.130001068115234z">
                    </path>
                </g>
                <g opacity="1" transform="matrix(1,0,0,1,268.2099914550781,39.72999954223633)">
                    <path fill="rgb(138,102,81)" fill-opacity="1"
                        d=" M-17.388999938964844,-7 C-17.388999938964844,-7 17.388999938964844,15.640000343322754 17.388999938964844,15.640000343322754 C17.388999938964844,15.640000343322754 5.120999813079834,-3.3499999046325684 5.120999813079834,-3.3499999046325684 C5.120999813079834,-3.3499999046325684 -7.611000061035156,-15.640000343322754 -7.611000061035156,-15.640000343322754 C-7.611000061035156,-15.640000343322754 -16.018999099731445,-13.25 -16.018999099731445,-13.25 C-16.018999099731445,-13.25 -17.388999938964844,-7 -17.388999938964844,-7z">
                    </path>
                </g>
                <g opacity="1" transform="matrix(1,0,0,1,187.83399963378906,119.33999633789062)">
                    <path fill="rgb(195,151,122)" fill-opacity="1"
                        d=" M21.895999908447266,-67.08999633789062 C21.895999908447266,-67.08999633789062 4.125,16.139999389648438 4.125,16.139999389648438 C4.125,16.139999389648438 19.2549991607666,28.84000015258789 19.2549991607666,28.84000015258789 C19.2549991607666,28.84000015258789 26.514999389648438,40.939998626708984 26.514999389648438,40.939998626708984 C26.514999389648438,40.939998626708984 18.525999069213867,59.349998474121094 18.525999069213867,59.349998474121094 C18.525999069213867,59.349998474121094 7.875,67.08999633789062 7.875,67.08999633789062 C7.875,67.08999633789062 -9.71399974822998,48.79999923706055 -9.71399974822998,48.79999923706055 C-9.71399974822998,48.79999923706055 -22.134000778198242,-0.6499999761581421 -22.134000778198242,-0.6499999761581421 C-22.134000778198242,-0.6499999761581421 -20.145000457763672,-11.260000228881836 -20.145000457763672,-11.260000228881836 C-20.145000457763672,-11.260000228881836 -26.514999389648438,-22.979999542236328 -26.514999389648438,-22.979999542236328 C-26.514999389648438,-22.979999542236328 21.895999908447266,-67.08999633789062 21.895999908447266,-67.08999633789062z">
                    </path>
                </g>
                <g opacity="1" transform="matrix(1,0,0,1,185.52499389648438,85.47000122070312)">
                    <path fill="rgb(138,102,81)" fill-opacity="1"
                        d=" M24.20599937438965,-33.220001220703125 C24.20599937438965,-33.220001220703125 6.494999885559082,-4.139999866485596 6.494999885559082,-4.139999866485596 C6.494999885559082,-4.139999866485596 -11.055000305175781,7.079999923706055 -11.055000305175781,7.079999923706055 C-11.055000305175781,7.079999923706055 7.275000095367432,14.279999732971191 7.275000095367432,14.279999732971191 C7.275000095367432,14.279999732971191 -19.823999404907227,33.220001220703125 -19.823999404907227,33.220001220703125 C-19.823999404907227,33.220001220703125 -24.20599937438965,10.890000343322754 -24.20599937438965,10.890000343322754 C-24.20599937438965,10.890000343322754 -6.554999828338623,-8.34000015258789 -6.554999828338623,-8.34000015258789 C-6.554999828338623,-8.34000015258789 24.20599937438965,-33.220001220703125 24.20599937438965,-33.220001220703125z">
                    </path>
                </g>
                <g opacity="1" transform="matrix(1,0,0,1,173.26499938964844,86.06999969482422)">
                    <path fill="rgb(153,194,108)" fill-opacity="1"
                        d=" M18.225000381469727,-17.200000762939453 C18.225000381469727,-17.200000762939453 19.53499984741211,13.680000305175781 19.53499984741211,13.680000305175781 C19.53499984741211,13.680000305175781 -19.53499984741211,17.200000762939453 -19.53499984741211,17.200000762939453 C-19.53499984741211,17.200000762939453 -24.155000686645508,-4.769999980926514 -24.155000686645508,-4.769999980926514 C-24.155000686645508,-4.769999980926514 -16.746000289916992,-10.07699966430664 -16.746000289916992,-10.07699966430664 C-16.746000289916992,-10.07699966430664 -9.885000228881836,6.5 -9.885000228881836,6.5 C-9.885000228881836,6.5 11.305000305175781,5.449999809265137 11.305000305175781,5.449999809265137 C11.305000305175781,5.449999809265137 9.895000457763672,-11.529999732971191 9.895000457763672,-11.529999732971191 C9.895000457763672,-11.529999732971191 18.225000381469727,-17.200000762939453 18.225000381469727,-17.200000762939453z">
                    </path>
                </g>
                <g opacity="1" transform="matrix(1,0,0,1,200.42999267578125,146.46499633789062)">
                    <path fill="rgb(138,102,81)" fill-opacity="1"
                        d=" M21.90999984741211,-4.585000038146973 C21.90999984741211,-4.585000038146973 -21.90999984741211,-13.8149995803833 -21.90999984741211,-13.8149995803833 C-21.90999984741211,-13.8149995803833 13.920000076293945,13.8149995803833 13.920000076293945,13.8149995803833 C13.920000076293945,13.8149995803833 21.90999984741211,-4.585000038146973 21.90999984741211,-4.585000038146973z">
                    </path>
                </g>
                <g opacity="1" transform="matrix(1,0,0,1,162.76998901367188,89.07499694824219)">
                    <path fill="rgb(62,143,110)" fill-opacity="1"
                        d=" M46.959999084472656,-36.82500076293945 C46.959999084472656,-36.82500076293945 -9.039999961853027,-17.485000610351562 -9.039999961853027,-17.485000610351562 C-9.039999961853027,-17.485000610351562 -46.959999084472656,7.775000095367432 -46.959999084472656,7.775000095367432 C-46.959999084472656,7.775000095367432 -33.89099884033203,36.82500076293945 -33.89099884033203,36.82500076293945 C-33.89099884033203,36.82500076293945 46.959999084472656,-36.82500076293945 46.959999084472656,-36.82500076293945z">
                    </path>
                </g>
                <g opacity="1"
                    transform="matrix(0.9975640773773193,-0.06975647062063217,0.06975647062063217,0.9975640773773193,161.36090087890625,27.732343673706055)">
                    <path fill="rgb(62,143,110)" fill-opacity="1"
                        d=" M12.59000015258789,-26.875 C12.59000015258789,-26.875 -46.970001220703125,26.875 -46.970001220703125,26.875 C-46.970001220703125,26.875 46.970001220703125,15.133999824523926 46.970001220703125,15.133999824523926 C46.970001220703125,15.133999824523926 12.59000015258789,-26.875 12.59000015258789,-26.875z">
                    </path>
                </g>
                <g opacity="1" transform="matrix(1,0,0,1,102.92898559570312,75.30000305175781)">
                    <path fill="rgb(62,143,110)" fill-opacity="1"
                        d=" M9.489999771118164,-21.549999237060547 C9.489999771118164,-21.549999237060547 -15.210000038146973,1.7000000476837158 -15.210000038146973,1.7000000476837158 C-15.210000038146973,1.7000000476837158 12.880000114440918,21.549999237060547 12.880000114440918,21.549999237060547 C12.880000114440918,21.549999237060547 15.210000038146973,-3.7100000381469727 15.210000038146973,-3.7100000381469727 C15.210000038146973,-3.7100000381469727 9.489999771118164,-21.549999237060547 9.489999771118164,-21.549999237060547z">
                    </path>
                </g>
                <g opacity="1" transform="matrix(1,0,0,1,216.2899932861328,19.58100128173828)">
                    <path fill="rgb(113,200,166)" fill-opacity="1"
                        d=" M-44.308998107910156,-19.579999923706055 C-44.308998107910156,-19.579999923706055 -19.6299991607666,19.579999923706055 -19.6299991607666,19.579999923706055 C-19.6299991607666,19.579999923706055 44.308998107910156,8.510000228881836 44.308998107910156,8.510000228881836 C44.308998107910156,8.510000228881836 44.308998107910156,-0.0010000000474974513 44.308998107910156,-0.0010000000474974513 C44.308998107910156,-0.0010000000474974513 33.17100143432617,-19.09000015258789 33.17100143432617,-19.09000015258789 C33.17100143432617,-19.09000015258789 -44.308998107910156,-19.579999923706055 -44.308998107910156,-19.579999923706055z">
                    </path>
                </g>
                <g opacity="1" transform="matrix(1,0,0,1,279.7250061035156,31.719999313354492)">
                    <path fill="rgb(83,175,138)" fill-opacity="1"
                        d=" M-19.125999450683594,-3.630000114440918 C-19.125999450683594,-3.630000114440918 12.833999633789062,31.229999542236328 12.833999633789062,31.229999542236328 C12.833999633789062,31.229999542236328 30.264999389648438,9.928999900817871 30.264999389648438,9.928999900817871 C30.264999389648438,9.928999900817871 -30.264999389648438,-31.229999542236328 -30.264999389648438,-31.229999542236328 C-30.264999389648438,-31.229999542236328 -19.125999450683594,-3.630000114440918 -19.125999450683594,-3.630000114440918z">
                    </path>
                </g>
                <g opacity="1" transform="matrix(1,0,0,1,186.5089874267578,62.470001220703125)">
                    <path fill="rgb(83,175,138)" fill-opacity="1"
                        d=" M74.08999633789062,-34.380001068115234 C74.08999633789062,-34.380001068115234 -70.69999694824219,34.380001068115234 -70.69999694824219,34.380001068115234 C-70.69999694824219,34.380001068115234 -74.08999633789062,-8.720000267028809 -74.08999633789062,-8.720000267028809 C-74.08999633789062,-8.720000267028809 74.08999633789062,-34.380001068115234 74.08999633789062,-34.380001068115234z">
                    </path>
                </g>
            </g>
        </g>
        <g transform="matrix(1,0,0,1,227.42001342773438,47.68998718261719)" opacity="1" style="display: block;">
            <g opacity="1" transform="matrix(1,0,0,1,10.1850004196167,27.575000762939453)">
                <path fill="rgb(195,151,122)" fill-opacity="1"
                    d=" M4.014999866485596,21.9950008392334 C4.014999866485596,21.9950008392334 -2.4049999713897705,-6.974999904632568 -2.4049999713897705,-6.974999904632568 C-2.4049999713897705,-6.974999904632568 -9.9350004196167,-21.514999389648438 -9.9350004196167,-21.514999389648438 C-9.9350004196167,-21.514999389648438 9.4350004196167,-21.9950008392334 9.4350004196167,-21.9950008392334 C9.4350004196167,-21.9950008392334 9.9350004196167,-13.265000343322754 9.9350004196167,-13.265000343322754 C9.9350004196167,-13.265000343322754 4.014999866485596,21.9950008392334 4.014999866485596,21.9950008392334z">
                </path>
            </g>
            <g opacity="1" transform="matrix(1,0,0,1,36.88999938964844,23.895000457763672)">
                <path fill="rgb(195,151,122)" fill-opacity="1"
                    d=" M-8.520000457763672,-8.074999809265137 C-8.520000457763672,-8.074999809265137 -3.7100000381469727,-15.414999961853027 -3.7100000381469727,-15.414999961853027 C-3.7100000381469727,-15.414999961853027 12.75,-7.175000190734863 12.75,-7.175000190734863 C12.75,-7.175000190734863 -12.75,15.414999961853027 -12.75,15.414999961853027 C-12.75,15.414999961853027 -8.520000457763672,-8.074999809265137 -8.520000457763672,-8.074999809265137z">
                </path>
            </g>
            <g opacity="1" transform="matrix(1,0,0,1,18.110000610351562,52.665000915527344)">
                <path fill="rgb(138,102,81)" fill-opacity="1"
                    d=" M3.9100000858306885,-1.6050000190734863 C3.9100000858306885,-1.6050000190734863 -1.180999994277954,3.0950000286102295 -1.180999994277954,3.0950000286102295 C-1.180999994277954,3.0950000286102295 -3.9100000858306885,-3.0950000286102295 -3.9100000858306885,-3.0950000286102295 C-3.9100000858306885,-3.0950000286102295 3.9100000858306885,-1.6050000190734863 3.9100000858306885,-1.6050000190734863z">
                </path>
            </g>
            <g opacity="1" transform="matrix(1,0,0,1,21.28499984741211,32.685001373291016)">
                <path fill="rgb(232,201,182)" fill-opacity="1"
                    d=" M7.085000038146973,-16.864999771118164 C7.085000038146973,-16.864999771118164 0.7350000143051147,18.375 0.7350000143051147,18.375 C0.7350000143051147,18.375 -7.085000038146973,16.885000228881836 -7.085000038146973,16.885000228881836 C-7.085000038146973,16.885000228881836 -1.1649999618530273,-18.375 -1.1649999618530273,-18.375 C-1.1649999618530273,-18.375 7.085000038146973,-16.864999771118164 7.085000038146973,-16.864999771118164z">
                </path>
            </g>
            <g opacity="1" transform="matrix(1,0,0,1,41.40999984741211,11.635000228881836)">
                <path fill="rgb(62,143,110)" fill-opacity="1"
                    d=" M-8.229999542236328,-3.1549999713897705 C-8.229999542236328,-3.1549999713897705 2.9010000228881836,-5.085000038146973 2.9010000228881836,-5.085000038146973 C2.9010000228881836,-5.085000038146973 8.229999542236328,5.085000038146973 8.229999542236328,5.085000038146973 C8.229999542236328,5.085000038146973 -8.229999542236328,-3.1549999713897705 -8.229999542236328,-3.1549999713897705z">
                </path>
            </g>
            <g opacity="1" transform="matrix(1,0,0,1,9.9350004196167,3.1549999713897705)">
                <path fill="rgb(62,143,110)" fill-opacity="1"
                    d=" M9.6850004196167,2.424999952316284 C9.6850004196167,2.424999952316284 1.4550000429153442,-2.9049999713897705 1.4550000429153442,-2.9049999713897705 C1.4550000429153442,-2.9049999713897705 -9.6850004196167,2.9049999713897705 -9.6850004196167,2.9049999713897705 C-9.6850004196167,2.9049999713897705 9.6850004196167,2.424999952316284 9.6850004196167,2.424999952316284z">
                </path>
            </g>
        </g>
        <g transform="matrix(1,0,0,1,215.58001708984375,109.11998748779297)" opacity="1" style="display: block;">
            <g opacity="1" transform="matrix(1,0,0,1,23.78499984741211,11.890000343322754)">
                <path fill="rgb(115,141,86)" fill-opacity="1"
                    d=" M23.53499984741211,-3.3399999141693115 C23.53499984741211,-3.3399999141693115 -0.7950000166893005,11.640000343322754 -0.7950000166893005,11.640000343322754 C-0.7950000166893005,11.640000343322754 -23.53499984741211,-11.640000343322754 -23.53499984741211,-11.640000343322754 C-23.53499984741211,-11.640000343322754 23.53499984741211,-3.3399999141693115 23.53499984741211,-3.3399999141693115z">
                </path>
            </g>
            <g opacity="1" transform="matrix(1,0,0,1,23.704999923706055,9.324999809265137)">
                <path fill="rgb(255,255,255)" fill-opacity="1"
                    d=" M17.55500030517578,-0.36500000953674316 C17.55500030517578,-0.36500000953674316 5.284999847412109,0.06199999898672104 5.284999847412109,0.06199999898672104 C5.284999847412109,0.06199999898672104 2.3350000381469727,0.16500000655651093 2.3350000381469727,0.16500000655651093 C2.3350000381469727,0.16500000655651093 -1.9210000038146973,-1.3240000009536743 -1.9210000038146973,-1.3240000009536743 C-1.9210000038146973,-1.3240000009536743 -17.55500030517578,-6.795000076293945 -17.55500030517578,-6.795000076293945 C-17.55500030517578,-6.795000076293945 -4.535999774932861,5.235000133514404 -4.535999774932861,5.235000133514404 C-4.535999774932861,5.235000133514404 4.74399995803833,6.795000076293945 4.74399995803833,6.795000076293945 C4.74399995803833,6.795000076293945 17.55500030517578,-0.36500000953674316 17.55500030517578,-0.36500000953674316z">
                </path>
            </g>
            <g opacity="1" transform="matrix(1,0,0,1,23.78499984741211,5.235000133514404)">
                <path fill="rgb(68,96,36)" fill-opacity="1"
                    d=" M23.53499984741211,3.315000057220459 C23.53499984741211,3.315000057220459 3.5950000286102295,-3.2249999046325684 3.5950000286102295,-3.2249999046325684 C3.5950000286102295,-3.2249999046325684 -23.53499984741211,-4.985000133514404 -23.53499984741211,-4.985000133514404 C-23.53499984741211,-4.985000133514404 -1.5490000247955322,3.5139999389648438 -1.5490000247955322,3.5139999389648438 C-1.5490000247955322,3.5139999389648438 2.255000114440918,4.985000133514404 2.255000114440918,4.985000133514404 C2.255000114440918,4.985000133514404 23.53499984741211,3.315000057220459 23.53499984741211,3.315000057220459z">
                </path>
            </g>
        </g>

        <g transform="matrix(1,0,0,1,228,65.44998168945312)" opacity="1" style="display: block;">
            <g opacity="1" transform="matrix(1,0,0,1,37.689998626708984,12.550000190734863)">
                <path fill="rgb(43,43,43)" fill-opacity="1"
                    d=" M5,0 C5,2.760999917984009 2.760999917984009,5 0,5 C-2.76200008392334,5 -5,2.760999917984009 -5,0 C-5,-2.760999917984009 -2.76200008392334,-5 0,-5 C2.760999917984009,-5 5,-2.760999917984009 5,0z">
                </path>
            </g>
            <g opacity="1" transform="matrix(1.0000001192092896,0,0,1.0000001192092896,5.25,5.25)">
                <path fill="rgb(43,43,43)" fill-opacity="1"
                    d=" M5,0 C5,2.760999917984009 2.76200008392334,5 0,5 C-2.76200008392334,5 -5,2.760999917984009 -5,0 C-5,-2.76200008392334 -2.76200008392334,-5 0,-5 C2.76200008392334,-5 5,-2.76200008392334 5,0z">
                </path>
            </g>
        </g>

    </g>
</svg>