<svg xmlns="http://www.w3.org/2000/svg" viewBox="0 0 400 400" width="100%" height="100%"
    preserveAspectRatio="xMidYMid meet">
    <defs>
        <clipPath id="__lottie_element_5">
            <rect width="400" height="400" x="0" y="0"></rect>
        </clipPath>
    </defs>
    <g clip-path="url(#__lottie_element_5)">
        <g transform="matrix(1,0,0,1,0,0)" opacity="1" style="display: block;">
            <g opacity="1" transform="matrix(1,0,0,1,0,0)">
                <g opacity="0.1" transform="matrix(1,0,0,1,177.01499938964844,385.92999267578125)">
                    <path fill="rgb(43,43,43)" fill-opacity="1"
                        d=" M-105.34500122070312,-3.490000009536743 C-105.34500122070312,-3.490000009536743 -10.045000076293945,-14.069999694824219 -10.045000076293945,-14.069999694824219 C-10.045000076293945,-14.069999694824219 105.34500122070312,-0.4699999988079071 105.34500122070312,-0.4699999988079071 C105.34500122070312,-0.4699999988079071 -23.575000762939453,14.069999694824219 -23.575000762939453,14.069999694824219 C-23.575000762939453,14.069999694824219 -105.34500122070312,-3.490000009536743 -105.34500122070312,-3.490000009536743z">
                    </path>
                </g>
                <g opacity="1" transform="matrix(1,0,0,1,133.61000061035156,337.05499267578125)">
                    <path fill="rgb(195,151,122)" fill-opacity="1"
                        d=" M11.550000190734863,-1.5549999475479126 C11.550000190734863,-1.5549999475479126 4.639999866485596,24.145000457763672 4.639999866485596,24.145000457763672 C4.639999866485596,24.145000457763672 -4.429999828338623,33.07500076293945 -4.429999828338623,33.07500076293945 C-4.429999828338623,33.07500076293945 -8.890000343322754,27.385000228881836 -8.890000343322754,27.385000228881836 C-8.890000343322754,27.385000228881836 -11.550000190734863,-9.904999732971191 -11.550000190734863,-9.904999732971191 C-11.550000190734863,-9.904999732971191 -8.460000038146973,-33.07500076293945 -8.460000038146973,-33.07500076293945 C-8.460000038146973,-33.07500076293945 11.550000190734863,-1.5549999475479126 11.550000190734863,-1.5549999475479126z">
                    </path>
                </g>
                <g opacity="1" transform="matrix(1,0,0,1,134.65499877929688,328.125)">
                    <path fill="rgb(138,102,81)" fill-opacity="1"
                        d=" M-7.414999961853027,-7.375 C-7.414999961853027,-7.375 12.595000267028809,-0.6850000023841858 12.595000267028809,-0.6850000023841858 C12.595000267028809,-0.6850000023841858 10.505000114440918,7.375 10.505000114440918,7.375 C10.505000114440918,7.375 -12.595000267028809,-0.9750000238418579 -12.595000267028809,-0.9750000238418579 C-12.595000267028809,-0.9750000238418579 -7.414999961853027,-7.375 -7.414999961853027,-7.375z">
                    </path>
                </g>
                <g opacity="1" transform="matrix(1,0,0,1,178.4149932861328,327.79998779296875)">
                    <path fill="rgb(195,151,122)" fill-opacity="1"
                        d=" M9.9350004196167,-39.52000045776367 C9.9350004196167,-39.52000045776367 11.154999732971191,0.07000000029802322 11.154999732971191,0.07000000029802322 C11.154999732971191,0.07000000029802322 9.71500015258789,27 9.71500015258789,27 C9.71500015258789,27 0.9350000023841858,39.52000045776367 0.9350000023841858,39.52000045776367 C0.9350000023841858,39.52000045776367 -5.034999847412109,29.729999542236328 -5.034999847412109,29.729999542236328 C-5.034999847412109,29.729999542236328 -11.154999732971191,7.699999809265137 -11.154999732971191,7.699999809265137 C-11.154999732971191,7.699999809265137 9.9350004196167,-39.52000045776367 9.9350004196167,-39.52000045776367z">
                    </path>
                </g>
                <g opacity="1" transform="matrix(1,0,0,1,177.3000030517578,325.7850036621094)">
                    <path fill="rgb(138,102,81)" fill-opacity="1"
                        d=" M-3.200000047683716,-9.71500015258789 C-3.200000047683716,-9.71500015258789 12.270000457763672,2.0850000381469727 12.270000457763672,2.0850000381469727 C12.270000457763672,2.0850000381469727 -10.039999961853027,9.71500015258789 -10.039999961853027,9.71500015258789 C-10.039999961853027,9.71500015258789 -12.270000457763672,1.8049999475479126 -12.270000457763672,1.8049999475479126 C-12.270000457763672,1.8049999475479126 -3.200000047683716,-9.71500015258789 -3.200000047683716,-9.71500015258789z">
                    </path>
                </g>
                <g opacity="1" transform="matrix(1,0,0,1,177.08999633789062,371.82000732421875)">
                    <path fill="rgb(115,77,95)" fill-opacity="1"
                        d=" M0.6800000071525574,14.289999961853027 C0.6800000071525574,14.289999961853027 -3.569999933242798,14.220000267028809 -3.569999933242798,14.220000267028809 C-3.569999933242798,14.220000267028809 -6.369999885559082,-2.7709999084472656 -6.369999885559082,-2.7709999084472656 C-6.369999885559082,-2.7709999084472656 -3.7100000381469727,-14.289999961853027 -3.7100000381469727,-14.289999961853027 C-3.7100000381469727,-14.289999961853027 6.369999885559082,-7.520999908447266 6.369999885559082,-7.520999908447266 C6.369999885559082,-7.520999908447266 4.210000038146973,-0.7609999775886536 4.210000038146973,-0.7609999775886536 C4.210000038146973,-0.7609999775886536 0.6800000071525574,14.289999961853027 0.6800000071525574,14.289999961853027z">
                    </path>
                </g>
                <g opacity="1" transform="matrix(1,0,0,1,121.41000366210938,378.0450134277344)">
                    <path fill="rgb(115,77,95)" fill-opacity="1"
                        d=" M3.309999942779541,-13.604999542236328 C3.309999942779541,-13.604999542236328 -3.309999942779541,0.9350000023841858 -3.309999942779541,0.9350000023841858 C-3.309999942779541,0.9350000023841858 1.5800000429153442,13.604999542236328 1.5800000429153442,13.604999542236328 C1.5800000429153442,13.604999542236328 3.309999942779541,-13.604999542236328 3.309999942779541,-13.604999542236328z">
                    </path>
                </g>
                <g opacity="1" transform="matrix(1,0,0,1,133.28500366210938,371.6000061035156)">
                    <path fill="rgb(223,188,164)" fill-opacity="1"
                        d=" M4.965000152587891,-10.399999618530273 C4.965000152587891,-10.399999618530273 10.005000114440918,-0.4699999988079071 10.005000114440918,-0.4699999988079071 C10.005000114440918,-0.4699999988079071 3.384999990463257,7.809999942779541 3.384999990463257,7.809999942779541 C3.384999990463257,7.809999942779541 -10.005000114440918,10.399999618530273 -10.005000114440918,10.399999618530273 C-10.005000114440918,10.399999618530273 -8.5649995803833,-7.159999847412109 -8.5649995803833,-7.159999847412109 C-8.5649995803833,-7.159999847412109 4.965000152587891,-10.399999618530273 4.965000152587891,-10.399999618530273z">
                    </path>
                </g>
                <g opacity="1" transform="matrix(1,0,0,1,134.36500549316406,378.8349914550781)">
                    <path fill="rgb(149,98,123)" fill-opacity="1"
                        d=" M-11.085000038146973,3.1649999618530273 C-11.085000038146973,3.1649999618530273 8.925000190734863,-7.704999923706055 8.925000190734863,-7.704999923706055 C8.925000190734863,-7.704999923706055 11.375,-3.305000066757202 11.375,-3.305000066757202 C11.375,-3.305000066757202 7.125,3.1649999618530273 7.125,3.1649999618530273 C7.125,3.1649999618530273 -11.375,7.704999923706055 -11.375,7.704999923706055 C-11.375,7.704999923706055 -11.085000038146973,3.1649999618530273 -11.085000038146973,3.1649999618530273z">
                    </path>
                </g>
                <g opacity="1" transform="matrix(1,0,0,1,137.88999938964844,382.0799865722656)">
                    <path fill="rgb(149,98,123)" fill-opacity="1"
                        d=" M-14.899999618530273,4.460000038146973 C-14.899999618530273,4.460000038146973 7.849999904632568,-6.550000190734863 7.849999904632568,-6.550000190734863 C7.849999904632568,-6.550000190734863 14.899999618530273,4.460000038146973 14.899999618530273,4.460000038146973 C14.899999618530273,4.460000038146973 3.740000009536743,6.550000190734863 3.740000009536743,6.550000190734863 C3.740000009536743,6.550000190734863 -14.899999618530273,4.460000038146973 -14.899999618530273,4.460000038146973z">
                    </path>
                </g>
                <g opacity="1" transform="matrix(1,0,0,1,186.51499938964844,365.6650085449219)">
                    <path fill="rgb(223,188,164)" fill-opacity="1"
                        d=" M1.6150000095367432,-11.085000038146973 C1.6150000095367432,-11.085000038146973 13.135000228881836,1.3650000095367432 13.135000228881836,1.3650000095367432 C13.135000228881836,1.3650000095367432 7.164999961853027,7.84499979019165 7.164999961853027,7.84499979019165 C7.164999961853027,7.84499979019165 -1.9049999713897705,11.085000038146973 -1.9049999713897705,11.085000038146973 C-1.9049999713897705,11.085000038146973 -13.135000228881836,-8.135000228881836 -13.135000228881836,-8.135000228881836 C-13.135000228881836,-8.135000228881836 1.6150000095367432,-11.085000038146973 1.6150000095367432,-11.085000038146973z">
                    </path>
                </g>
                <g opacity="1" transform="matrix(1,0,0,1,193.89500427246094,373.44000244140625)">
                    <path fill="rgb(149,98,123)" fill-opacity="1"
                        d=" M-9.28499984741211,3.309999942779541 C-9.28499984741211,3.309999942779541 5.755000114440918,-6.409999847412109 5.755000114440918,-6.409999847412109 C5.755000114440918,-6.409999847412109 9.28499984741211,-2.950000047683716 9.28499984741211,-2.950000047683716 C9.28499984741211,-2.950000047683716 3.884999990463257,3.0899999141693115 3.884999990463257,3.0899999141693115 C3.884999990463257,3.0899999141693115 -6.914999961853027,6.409999847412109 -6.914999961853027,6.409999847412109 C-6.914999961853027,6.409999847412109 -9.28499984741211,3.309999942779541 -9.28499984741211,3.309999942779541z">
                    </path>
                </g>
                <g opacity="1" transform="matrix(1,0,0,1,200.51499938964844,376.75)">
                    <path fill="rgb(149,98,123)" fill-opacity="1"
                        d=" M-13.53499984741211,4.098999977111816 C-13.53499984741211,4.098999977111816 2.6649999618530273,-6.260000228881836 2.6649999618530273,-6.260000228881836 C2.6649999618530273,-6.260000228881836 13.53499984741211,4.098999977111816 13.53499984741211,4.098999977111816 C13.53499984741211,4.098999977111816 -0.7950000166893005,6.258999824523926 -0.7950000166893005,6.258999824523926 C-0.7950000166893005,6.258999824523926 -13.53499984741211,4.098999977111816 -13.53499984741211,4.098999977111816z">
                    </path>
                </g>
                <g opacity="1" transform="matrix(1,0,0,1,137.88999938964844,389.0950012207031)">
                    <path fill="rgb(115,77,95)" fill-opacity="1"
                        d=" M-14.899999618530273,2.555000066757202 C-14.899999618530273,2.555000066757202 14.899999618530273,2.555000066757202 14.899999618530273,2.555000066757202 C14.899999618530273,2.555000066757202 14.899999618530273,-2.555000066757202 14.899999618530273,-2.555000066757202 C14.899999618530273,-2.555000066757202 -14.899999618530273,-2.555000066757202 -14.899999618530273,-2.555000066757202 C-14.899999618530273,-2.555000066757202 -14.899999618530273,2.555000066757202 -14.899999618530273,2.555000066757202z">
                    </path>
                </g>
                <g opacity="1" transform="matrix(1,0,0,1,196.55499267578125,378.69000244140625)">
                    <path fill="rgb(115,77,95)" fill-opacity="1"
                        d=" M-15.255000114440918,-7.630000114440918 C-15.255000114440918,-7.630000114440918 -17.4950008392334,-5.539000034332275 -17.4950008392334,-5.539000034332275 C-17.4950008392334,-5.539000034332275 -16.55500030517578,-3.380000114440918 -16.55500030517578,-3.380000114440918 C-16.55500030517578,-3.380000114440918 -5.974999904632568,7.630000114440918 -5.974999904632568,7.630000114440918 C-5.974999904632568,7.630000114440918 17.4950008392334,7.630000114440918 17.4950008392334,7.630000114440918 C17.4950008392334,7.630000114440918 17.4950008392334,2.1600000858306885 17.4950008392334,2.1600000858306885 C17.4950008392334,2.1600000858306885 -2.015000104904175,2.1600000858306885 -2.015000104904175,2.1600000858306885 C-2.015000104904175,2.1600000858306885 -15.255000114440918,-7.630000114440918 -15.255000114440918,-7.630000114440918z">
                    </path>
                </g>
            </g>
        </g>
        <g transform="matrix(1,0,0,1,0,0)" opacity="1" style="display: block;">
            <g opacity="1" transform="matrix(1,0,0,1,154.375,272.2300109863281)">
                <path fill="rgb(83,47,66)" fill-opacity="1"
                    d=" M-55.064998626708984,40.66999816894531 C-55.064998626708984,40.66999816894531 -2.375,28.719999313354492 -2.375,28.719999313354492 C-2.375,28.719999313354492 55.064998626708984,42.10900115966797 55.064998626708984,42.10900115966797 C55.064998626708984,42.10900115966797 40.814998626708984,-7.480000019073486 40.814998626708984,-7.480000019073486 C40.814998626708984,-7.480000019073486 10.725000381469727,-42.11000061035156 10.725000381469727,-42.11000061035156 C10.725000381469727,-42.11000061035156 -37.21500015258789,2.1589999198913574 -37.21500015258789,2.1589999198913574 C-37.21500015258789,2.1589999198913574 -41.17499923706055,5.908999919891357 -41.17499923706055,5.908999919891357 C-41.17499923706055,5.908999919891357 -55.064998626708984,40.66999816894531 -55.064998626708984,40.66999816894531z">
                </path>
            </g>
        </g>
        <g transform="matrix(1,0,0,1,0,0)" opacity="1" style="display: block;">
            <g opacity="1" transform="matrix(1,0,0,1,0,0)">
                <g opacity="1" transform="matrix(1,0,0,1,301.489990234375,192.30499267578125)">
                    <path fill="rgb(138,102,81)" fill-opacity="1"
                        d=" M8.09000015258789,-0.1550000011920929 C8.09000015258789,-0.1550000011920929 -1.1299999952316284,6.554999828338623 -1.1299999952316284,6.554999828338623 C-1.1299999952316284,6.554999828338623 -8.09000015258789,2.694999933242798 -8.09000015258789,2.694999933242798 C-8.09000015258789,2.694999933242798 -8.09000015258789,-6.554999828338623 -8.09000015258789,-6.554999828338623 C-8.09000015258789,-6.554999828338623 8.09000015258789,-0.1550000011920929 8.09000015258789,-0.1550000011920929z">
                    </path>
                </g>
                <g opacity="1" transform="matrix(1,0,0,1,295.29998779296875,181.9949951171875)">
                    <path fill="rgb(195,151,122)" fill-opacity="1"
                        d=" M-13.550000190734863,-7.15500020980835 C-13.550000190734863,-7.15500020980835 13.470000267028809,-10.154999732971191 13.470000267028809,-10.154999732971191 C13.470000267028809,-10.154999732971191 14.279999732971191,10.154999732971191 14.279999732971191,10.154999732971191 C14.279999732971191,10.154999732971191 -14.279999732971191,5.784999847412109 -14.279999732971191,5.784999847412109 C-14.279999732971191,5.784999847412109 -13.550000190734863,-7.15500020980835 -13.550000190734863,-7.15500020980835z">
                    </path>
                </g>
                <g opacity="1" transform="matrix(1,0,0,1,328.6650085449219,167.35499572753906)">
                    <path fill="rgb(157,160,161)" fill-opacity="1"
                        d=" M-44.404998779296875,26.165000915527344 C-44.404998779296875,26.165000915527344 40.5260009765625,-31.5049991607666 40.5260009765625,-31.5049991607666 C40.5260009765625,-31.5049991607666 44.404998779296875,-25.844999313354492 44.404998779296875,-25.844999313354492 C44.404998779296875,-25.844999313354492 -41.005001068115234,31.5049991607666 -41.005001068115234,31.5049991607666 C-41.005001068115234,31.5049991607666 -44.404998779296875,26.165000915527344 -44.404998779296875,26.165000915527344z">
                    </path>
                </g>
                <g opacity="1" transform="matrix(1,0,0,1,284.625,197.27999877929688)">
                    <path fill="rgb(79,82,82)" fill-opacity="1"
                        d=" M-3.0350000858306885,-2.630000114440918 C-3.0350000858306885,-2.630000114440918 -0.36500000953674316,-3.759999990463257 -0.36500000953674316,-3.759999990463257 C-0.36500000953674316,-3.759999990463257 3.0350000858306885,1.5800000429153442 3.0350000858306885,1.5800000429153442 C3.0350000858306885,1.5800000429153442 1.3350000381469727,3.759999990463257 1.3350000381469727,3.759999990463257 C1.3350000381469727,3.759999990463257 -3.0350000858306885,-2.630000114440918 -3.0350000858306885,-2.630000114440918z">
                    </path>
                </g>
                <g opacity="1" transform="matrix(1,0,0,1,373.44000244140625,136.65499877929688)">
                    <path fill="rgb(79,82,82)" fill-opacity="1"
                        d=" M-4.25,-0.8050000071525574 C-4.25,-0.8050000071525574 -1.659999966621399,-4.855000019073486 -1.659999966621399,-4.855000019073486 C-1.659999966621399,-4.855000019073486 4.25,3.3949999809265137 4.25,3.3949999809265137 C4.25,3.3949999809265137 -0.3700000047683716,4.855000019073486 -0.3700000047683716,4.855000019073486 C-0.3700000047683716,4.855000019073486 -4.25,-0.8050000071525574 -4.25,-0.8050000071525574z">
                    </path>
                </g>
                <g opacity="1" transform="matrix(1,0,0,1,290.9700012207031,183.53500366210938)">
                    <path fill="rgb(223,188,164)" fill-opacity="1"
                        d=" M-11.8100004196167,-5.945000171661377 C-11.8100004196167,-5.945000171661377 12.859999656677246,-0.8550000190734863 12.859999656677246,-0.8550000190734863 C12.859999656677246,-0.8550000190734863 10.270000457763672,5.054999828338623 10.270000457763672,5.054999828338623 C10.270000457763672,5.054999828338623 -12.859999656677246,5.945000171661377 -12.859999656677246,5.945000171661377 C-12.859999656677246,5.945000171661377 -11.8100004196167,-5.945000171661377 -11.8100004196167,-5.945000171661377z">
                    </path>
                </g>
            </g>
        </g>
        <g transform="matrix(1,0,0,1,0,0)" opacity="1" style="display: block;">
            <g opacity="1" transform="matrix(1,0,0,1,0,0)">
                <g opacity="1" transform="matrix(1,0,0,1,0,0)">
                    <g opacity="1" transform="matrix(1,0,0,1,267.67498779296875,184.49000549316406)">
                        <path fill="rgb(149,98,123)" fill-opacity="1"
                            d=" M15.475000381469727,-14.180000305175781 C15.475000381469727,-14.180000305175781 -7.34499979019165,-11.59000015258789 -7.34499979019165,-11.59000015258789 C-7.34499979019165,-11.59000015258789 -15.475000381469727,-2.0899999141693115 -15.475000381469727,-2.0899999141693115 C-15.475000381469727,-2.0899999141693115 -12.885000228881836,8.850000381469727 -12.885000228881836,8.850000381469727 C-12.885000228881836,8.850000381469727 12.663999557495117,14.180000305175781 12.663999557495117,14.180000305175781 C12.663999557495117,14.180000305175781 15.475000381469727,-14.180000305175781 15.475000381469727,-14.180000305175781z">
                        </path>
                    </g>
                    <g opacity="1" transform="matrix(1,0,0,1,242.77000427246094,186.42999267578125)">
                        <path fill="rgb(115,77,95)" fill-opacity="1"
                            d=" M-16.700000762939453,-14.609999656677246 C-16.700000762939453,-14.609999656677246 17.559999465942383,-13.529999732971191 17.559999465942383,-13.529999732971191 C17.559999465942383,-13.529999732971191 12.020000457763672,6.909999847412109 12.020000457763672,6.909999847412109 C12.020000457763672,6.909999847412109 -17.559999465942383,14.609999656677246 -17.559999465942383,14.609999656677246 C-17.559999465942383,14.609999656677246 -16.700000762939453,-14.609999656677246 -16.700000762939453,-14.609999656677246z">
                        </path>
                    </g>
                </g>
                <g opacity="1" transform="matrix(1,0,0,1,212.03500366210938,190.75)">
                    <path fill="rgb(115,77,95)" fill-opacity="1"
                        d=" M-30.375,-11.8100004196167 C-30.375,-11.8100004196167 -20.225000381469727,-14.319999694824219 -20.225000381469727,-14.319999694824219 C-20.225000381469727,-14.319999694824219 -15.765000343322754,-19.940000534057617 -15.765000343322754,-19.940000534057617 C-15.765000343322754,-19.940000534057617 14.03499984741211,-18.93000030517578 14.03499984741211,-18.93000030517578 C14.03499984741211,-18.93000030517578 30.375,-3.5999999046325684 30.375,-3.5999999046325684 C30.375,-3.5999999046325684 13.175000190734863,10.289999961853027 13.175000190734863,10.289999961853027 C13.175000190734863,10.289999961853027 -25.485000610351562,19.940000534057617 -25.485000610351562,19.940000534057617 C-25.485000610351562,19.940000534057617 -30.375,-11.8100004196167 -30.375,-11.8100004196167z">
                    </path>
                </g>
            </g>
        </g>
        <g transform="matrix(1,0,0,1,0,0)" opacity="1" style="display: block;">
            <g opacity="1" transform="matrix(1,0,0,1,0,0)">
                <g opacity="1" transform="matrix(1,0,0,1,43.415000915527344,147.49000549316406)">
                    <path fill="rgb(70,70,70)" fill-opacity="1"
                        d=" M-23.645000457763672,-21.020000457763672 C-23.645000457763672,-21.020000457763672 7.164999961853027,20.729999542236328 7.164999961853027,20.729999542236328 C7.164999961853027,20.729999542236328 15.805000305175781,21.020000457763672 15.805000305175781,21.020000457763672 C15.805000305175781,21.020000457763672 23.645000457763672,-4.96999979019165 23.645000457763672,-4.96999979019165 C23.645000457763672,-4.96999979019165 19.114999771118164,-15.1899995803833 19.114999771118164,-15.1899995803833 C19.114999771118164,-15.1899995803833 -23.645000457763672,-21.020000457763672 -23.645000457763672,-21.020000457763672z">
                    </path>
                </g>
                <g opacity="1" transform="matrix(1,0,0,1,117.0199966430664,115.38500213623047)">
                    <path fill="rgb(79,82,82)" fill-opacity="1"
                        d=" M66.44000244140625,-18.934999465942383 C66.44000244140625,-18.934999465942383 -31.81999969482422,63.345001220703125 -31.81999969482422,63.345001220703125 C-31.81999969482422,63.345001220703125 -66.44000244140625,52.834999084472656 -66.44000244140625,52.834999084472656 C-66.44000244140625,52.834999084472656 -27.790000915527344,-63.345001220703125 -27.790000915527344,-63.345001220703125 C-27.790000915527344,-63.345001220703125 66.44000244140625,-18.934999465942383 66.44000244140625,-18.934999465942383z">
                    </path>
                </g>
                <g opacity="1" transform="matrix(1,0,0,1,134.3300018310547,125.06999969482422)">
                    <path fill="rgb(70,70,70)" fill-opacity="1"
                        d=" M49.130001068115234,-28.6200008392334 C49.130001068115234,-28.6200008392334 37.970001220703125,8.600000381469727 37.970001220703125,8.600000381469727 C37.970001220703125,8.600000381469727 -49.130001068115234,53.65999984741211 -49.130001068115234,53.65999984741211 C-49.130001068115234,53.65999984741211 -4.070000171661377,-53.65999984741211 -4.070000171661377,-53.65999984741211 C-4.070000171661377,-53.65999984741211 49.130001068115234,-28.6200008392334 49.130001068115234,-28.6200008392334z">
                    </path>
                </g>
                <g opacity="1" transform="matrix(1,0,0,1,200.3000030517578,65.07499694824219)">
                    <path fill="rgb(70,70,70)" fill-opacity="1"
                        d=" M-4.678999900817871,-42.1150016784668 C-4.678999900817871,-42.1150016784668 20.798999786376953,-8.135000228881836 20.798999786376953,-8.135000228881836 C20.798999786376953,-8.135000228881836 -0.13899999856948853,44.125 -0.13899999856948853,44.125 C-0.13899999856948853,44.125 -20.798999786376953,-44.125 -20.798999786376953,-44.125 C-20.798999786376953,-44.125 -4.678999900817871,-42.1150016784668 -4.678999900817871,-42.1150016784668z">
                    </path>
                </g>
                <g opacity="1" transform="matrix(1,0,0,1,200.3000030517578,37.61000061035156)">
                    <path fill="rgb(70,70,70)" fill-opacity="1"
                        d=" M-3.740000009536743,-19.329999923706055 C-3.740000009536743,-19.329999923706055 20.799999237060547,19.329999923706055 20.799999237060547,19.329999923706055 C20.799999237060547,19.329999923706055 -20.799999237060547,-16.65999984741211 -20.799999237060547,-16.65999984741211 C-20.799999237060547,-16.65999984741211 -3.740000009536743,-19.329999923706055 -3.740000009536743,-19.329999923706055z">
                    </path>
                </g>
                <g opacity="1" transform="matrix(1,0,0,1,133.10499572753906,121.82499694824219)">
                    <path fill="rgb(195,151,122)" fill-opacity="1"
                        d=" M4.425000190734863,51.21500015258789 C4.425000190734863,51.21500015258789 -40.564998626708984,-53.94499969482422 -40.564998626708984,-53.94499969482422 C-40.564998626708984,-53.94499969482422 -14.864999771118164,-72.23500061035156 -14.864999771118164,-72.23500061035156 C-14.864999771118164,-72.23500061035156 11.835000038146973,-40.415000915527344 11.835000038146973,-40.415000915527344 C11.835000038146973,-40.415000915527344 40.564998626708984,26.604999542236328 40.564998626708984,26.604999542236328 C40.564998626708984,26.604999542236328 30.774999618530273,72.23500061035156 30.774999618530273,72.23500061035156 C30.774999618530273,72.23500061035156 4.425000190734863,51.21500015258789 4.425000190734863,51.21500015258789z">
                    </path>
                </g>
                <g opacity="1" transform="matrix(1,0,0,1,161.89999389648438,93.68499755859375)">
                    <path fill="rgb(223,188,164)" fill-opacity="1"
                        d=" M29.469999313354492,-62.51499938964844 C29.469999313354492,-62.51499938964844 44.810001373291016,51.35499954223633 44.810001373291016,51.35499954223633 C44.810001373291016,51.35499954223633 -17.75,62.51499938964844 -17.75,62.51499938964844 C-17.75,62.51499938964844 -44.810001373291016,-43.73500061035156 -44.810001373291016,-43.73500061035156 C-44.810001373291016,-43.73500061035156 29.469999313354492,-62.51499938964844 29.469999313354492,-62.51499938964844z">
                    </path>
                </g>
                <g opacity="1" transform="matrix(1,0,0,1,155.31500244140625,172.5399932861328)">
                    <path fill="rgb(138,102,81)" fill-opacity="1"
                        d=" M17.9950008392334,-21.739999771118164 C17.9950008392334,-21.739999771118164 8.5649995803833,21.739999771118164 8.5649995803833,21.739999771118164 C8.5649995803833,21.739999771118164 -17.9950008392334,-15.619999885559082 -17.9950008392334,-15.619999885559082 C-17.9950008392334,-15.619999885559082 17.9950008392334,-21.739999771118164 17.9950008392334,-21.739999771118164z">
                    </path>
                </g>
                <g opacity="1" transform="matrix(1,0,0,1,105.20999908447266,108.83499908447266)">
                    <path fill="rgb(70,70,70)" fill-opacity="1"
                        d=" M5.46999979019165,-46.71500015258789 C5.46999979019165,-46.71500015258789 22.81999969482422,-15.835000038146973 22.81999969482422,-15.835000038146973 C22.81999969482422,-15.835000038146973 17.93000030517578,-11.515000343322754 17.93000030517578,-11.515000343322754 C17.93000030517578,-11.515000343322754 21.3799991607666,30.084999084472656 21.3799991607666,30.084999084472656 C21.3799991607666,30.084999084472656 24.760000228881836,46.71500015258789 24.760000228881836,46.71500015258789 C24.760000228881836,46.71500015258789 -24.760000228881836,-30.594999313354492 -24.760000228881836,-30.594999313354492 C-24.760000228881836,-30.594999313354492 5.46999979019165,-46.71500015258789 5.46999979019165,-46.71500015258789z">
                    </path>
                </g>
                <g opacity="1" transform="matrix(1,0,0,1,118.81500244140625,109.41000366210938)">
                    <path fill="rgb(223,188,164)" fill-opacity="1"
                        d=" M4.324999809265137,-12.09000015258789 C4.324999809265137,-12.09000015258789 -10.505000114440918,-7.699999809265137 -10.505000114440918,-7.699999809265137 C-10.505000114440918,-7.699999809265137 -2.5950000286102295,12.09000015258789 -2.5950000286102295,12.09000015258789 C-2.5950000286102295,12.09000015258789 10.505000114440918,6.699999809265137 10.505000114440918,6.699999809265137 C10.505000114440918,6.699999809265137 4.324999809265137,-12.09000015258789 4.324999809265137,-12.09000015258789z">
                    </path>
                </g>
                <g opacity="1" transform="matrix(1,0,0,1,117.58999633789062,106.42500305175781)">
                    <path fill="rgb(138,102,81)" fill-opacity="1"
                        d=" M2.880000114440918,-3.7049999237060547 C2.880000114440918,-3.7049999237060547 -4.320000171661377,-1.625 -4.320000171661377,-1.625 C-4.320000171661377,-1.625 4.320000171661377,3.7049999237060547 4.320000171661377,3.7049999237060547 C4.320000171661377,3.7049999237060547 2.880000114440918,-3.7049999237060547 2.880000114440918,-3.7049999237060547z">
                    </path>
                </g>
                <g opacity="1" transform="matrix(1,0,0,1,123.41999816894531,119.91999816894531)">
                    <path fill="rgb(115,77,95)" fill-opacity="1"
                        d=" M0.7200000286102295,-6.480000019073486 C0.7200000286102295,-6.480000019073486 4.389999866485596,4.679999828338623 4.389999866485596,4.679999828338623 C4.389999866485596,4.679999828338623 -1.5099999904632568,6.480000019073486 -1.5099999904632568,6.480000019073486 C-1.5099999904632568,6.480000019073486 -4.389999866485596,-4.820000171661377 -4.389999866485596,-4.820000171661377 C-4.389999866485596,-4.820000171661377 0.7200000286102295,-6.480000019073486 0.7200000286102295,-6.480000019073486z">
                    </path>
                </g>
            </g>
        </g>
        <g transform="matrix(1,0,0,1,0,0)" opacity="1" style="display: block;">
            <g opacity="1" transform="matrix(1,0,0,1,0,0)">
                <g opacity="1" transform="matrix(1,0,0,1,108.48999786376953,215.2949981689453)">
                    <path fill="rgb(115,77,95)" fill-opacity="1"
                        d=" M3.8499999046325684,-22.96500015258789 C3.8499999046325684,-22.96500015258789 -11.630000114440918,-15.404999732971191 -11.630000114440918,-15.404999732971191 C-11.630000114440918,-15.404999732971191 -17.600000381469727,22.104999542236328 -17.600000381469727,22.104999542236328 C-17.600000381469727,22.104999542236328 4.710000038146973,35.775001525878906 4.710000038146973,35.775001525878906 C4.710000038146973,35.775001525878906 13.850000381469727,31.674999237060547 13.850000381469727,31.674999237060547 C13.850000381469727,31.674999237060547 16.09000015258789,20.80500030517578 16.09000015258789,20.80500030517578 C16.09000015258789,20.80500030517578 17.600000381469727,-0.7149999737739563 17.600000381469727,-0.7149999737739563 C17.600000381469727,-0.7149999737739563 1.2599999904632568,-35.775001525878906 1.2599999904632568,-35.775001525878906 C1.2599999904632568,-35.775001525878906 3.8499999046325684,-22.96500015258789 3.8499999046325684,-22.96500015258789z">
                    </path>
                </g>
                <g opacity="1" transform="matrix(1,0,0,1,110.93499755859375,190.5)">
                    <path fill="rgb(115,77,95)" fill-opacity="1"
                        d=" M-11.765000343322754,-5.440000057220459 C-11.765000343322754,-5.440000057220459 -14.074999809265137,9.390000343322754 -14.074999809265137,9.390000343322754 C-14.074999809265137,9.390000343322754 9.03499984741211,20.84000015258789 9.03499984741211,20.84000015258789 C9.03499984741211,20.84000015258789 14.074999809265137,15.869999885559082 14.074999809265137,15.869999885559082 C14.074999809265137,15.869999885559082 8.885000228881836,-20.84000015258789 8.885000228881836,-20.84000015258789 C8.885000228881836,-20.84000015258789 -10.114999771118164,-16.229999542236328 -10.114999771118164,-16.229999542236328 C-10.114999771118164,-16.229999542236328 -11.765000343322754,-5.440000057220459 -11.765000343322754,-5.440000057220459z">
                    </path>
                </g>
                <g opacity="1" transform="matrix(1,0,0,1,107.73500061035156,243.5850067138672)">
                    <path fill="rgb(115,77,95)" fill-opacity="1"
                        d=" M-16.844999313354492,-6.184999942779541 C-16.844999313354492,-6.184999942779541 5.465000152587891,7.486000061035156 5.465000152587891,7.486000061035156 C5.465000152587891,7.486000061035156 14.604999542236328,3.384000062942505 14.604999542236328,3.384000062942505 C14.604999542236328,3.384000062942505 16.844999313354492,-7.486000061035156 16.844999313354492,-7.486000061035156 C16.844999313354492,-7.486000061035156 -16.844999313354492,-6.184999942779541 -16.844999313354492,-6.184999942779541z">
                    </path>
                </g>
            </g>
        </g>
        <g transform="matrix(1,0,0,1,0,0)" opacity="1" style="display: block;">
            <g opacity="1" transform="matrix(1,0,0,1,0,0)">
                <g opacity="1" transform="matrix(1,0,0,1,155.27499389648438,275.5050048828125)">
                    <path fill="rgb(149,98,123)" fill-opacity="1"
                        d=" M-8.024999618530273,51.93600082397461 C-8.024999618530273,51.93600082397461 -37.53499984741211,-1.5440000295639038 -37.53499984741211,-1.5440000295639038 C-37.53499984741211,-1.5440000295639038 -31.065000534057617,-17.454999923706055 -31.065000534057617,-17.454999923706055 C-31.065000534057617,-17.454999923706055 10.255000114440918,-52.3650016784668 10.255000114440918,-52.3650016784668 C10.255000114440918,-52.3650016784668 37.53499984741211,-18.2450008392334 37.53499984741211,-18.2450008392334 C37.53499984741211,-18.2450008392334 34.29499816894531,52.36600112915039 34.29499816894531,52.36600112915039 C34.29499816894531,52.36600112915039 -8.024999618530273,51.93600082397461 -8.024999618530273,51.93600082397461z">
                    </path>
                </g>
                <g opacity="1" transform="matrix(1,0,0,1,146.02499389648438,275.2900085449219)">
                    <path fill="rgb(115,77,95)" fill-opacity="1"
                        d=" M-23.96500015258789,51.86000061035156 C-23.96500015258789,51.86000061035156 -28.28499984741211,-1.3300000429153442 -28.28499984741211,-1.3300000429153442 C-28.28499984741211,-1.3300000429153442 -21.815000534057617,-17.240999221801758 -21.815000534057617,-17.240999221801758 C-21.815000534057617,-17.240999221801758 19.5049991607666,-52.1510009765625 19.5049991607666,-52.1510009765625 C19.5049991607666,-52.1510009765625 28.28499984741211,-23.43000030517578 28.28499984741211,-23.43000030517578 C28.28499984741211,-23.43000030517578 1.225000023841858,52.150001525878906 1.225000023841858,52.150001525878906 C1.225000023841858,52.150001525878906 -23.96500015258789,51.86000061035156 -23.96500015258789,51.86000061035156z">
                    </path>
                </g>
            </g>
        </g>
        <g transform="matrix(1,0,0,1,0,0)" opacity="1" style="display: block;">
            <g opacity="1" transform="matrix(1,0,0,1,0,0)">
                <g opacity="1" transform="matrix(1,0,0,1,141.7050018310547,222.4550018310547)">
                    <path fill="rgb(149,98,123)" fill-opacity="1"
                        d=" M-29.655000686645508,-42.57600021362305 C-29.655000686645508,-42.57600021362305 -21.885000228881836,-52.79499816894531 -21.885000228881836,-52.79499816894531 C-21.885000228881836,-52.79499816894531 -18.065000534057617,-54.23500061035156 -18.065000534057617,-54.23500061035156 C-18.065000534057617,-54.23500061035156 1.5850000381469727,-43.005001068115234 1.5850000381469727,-43.005001068115234 C1.5850000381469727,-43.005001068115234 22.604999542236328,-32.92499923706055 22.604999542236328,-32.92499923706055 C22.604999542236328,-32.92499923706055 29.655000686645508,-20.18600082397461 29.655000686645508,-20.18600082397461 C29.655000686645508,-20.18600082397461 23.46500015258789,13.135000228881836 23.46500015258789,13.135000228881836 C23.46500015258789,13.135000228881836 8.994999885559082,30.274999618530273 8.994999885559082,30.274999618530273 C8.994999885559082,30.274999618530273 -23.674999237060547,54.23500061035156 -23.674999237060547,54.23500061035156 C-23.674999237060547,54.23500061035156 -17.125,13.645000457763672 -17.125,13.645000457763672 C-17.125,13.645000457763672 -29.655000686645508,-42.57600021362305 -29.655000686645508,-42.57600021362305z">
                    </path>
                </g>
                <g opacity="1" transform="matrix(1,0,0,1,182.52000427246094,219.25)">
                    <path fill="rgb(179,135,157)" fill-opacity="1"
                        d=" M9.930000305175781,18.360000610351562 C9.930000305175781,18.360000610351562 18.209999084472656,50.888999938964844 18.209999084472656,50.888999938964844 C18.209999084472656,50.888999938964844 -8.210000038146973,32.61000061035156 -8.210000038146973,32.61000061035156 C-8.210000038146973,32.61000061035156 0.4300000071525574,48.02000045776367 0.4300000071525574,48.02000045776367 C0.4300000071525574,48.02000045776367 -17.350000381469727,16.339000701904297 -17.350000381469727,16.339000701904297 C-17.350000381469727,16.339000701904297 -18.209999084472656,-29.719999313354492 -18.209999084472656,-29.719999313354492 C-18.209999084472656,-29.719999313354492 -0.7900000214576721,-42.61000061035156 -0.7900000214576721,-42.61000061035156 C-0.7900000214576721,-42.61000061035156 -4.820000171661377,-50.88999938964844 -4.820000171661377,-50.88999938964844 C-4.820000171661377,-50.88999938964844 10.729999542236328,-47 10.729999542236328,-47 C10.729999542236328,-47 13.460000038146973,-42.459999084472656 13.460000038146973,-42.459999084472656 C13.460000038146973,-42.459999084472656 9.930000305175781,18.360000610351562 9.930000305175781,18.360000610351562z">
                    </path>
                </g>
                <g opacity="1" transform="matrix(1,0,0,1,164.23500061035156,208.88999938964844)">
                    <path fill="rgb(209,160,184)" fill-opacity="1"
                        d=" M-4.605000019073486,-0.14000000059604645 C-4.605000019073486,-0.14000000059604645 0.4350000023841858,-5.110000133514404 0.4350000023841858,-5.110000133514404 C0.4350000023841858,-5.110000133514404 4.605000019073486,0 4.605000019073486,0 C4.605000019073486,0 0.5049999952316284,5.110000133514404 0.5049999952316284,5.110000133514404 C0.5049999952316284,5.110000133514404 -4.605000019073486,-0.14000000059604645 -4.605000019073486,-0.14000000059604645z">
                    </path>
                </g>
                <g opacity="1" transform="matrix(1,0,0,1,164.63499450683594,227.35000610351562)">
                    <path fill="rgb(209,160,184)" fill-opacity="1"
                        d=" M-4.644999980926514,-0.18000000715255737 C-4.644999980926514,-0.18000000715255737 0.32499998807907104,-4.929999828338623 0.32499998807907104,-4.929999828338623 C0.32499998807907104,-4.929999828338623 4.644999980926514,0.10999999940395355 4.644999980926514,0.10999999940395355 C4.644999980926514,0.10999999940395355 0.5350000262260437,4.929999828338623 0.5350000262260437,4.929999828338623 C0.5350000262260437,4.929999828338623 -4.644999980926514,-0.18000000715255737 -4.644999980926514,-0.18000000715255737z">
                    </path>
                </g>
                <g opacity="1" transform="matrix(1,0,0,1,0,0)">
                    <g opacity="1" transform="matrix(1,0,0,1,124.25,274.5)">
                        <path fill="rgb(179,135,157)" fill-opacity="1"
                            d=" M26.450000762939453,-21.770000457763672 C26.450000762939453,-21.770000457763672 -24.940000534057617,38.4010009765625 -24.940000534057617,38.4010009765625 C-24.940000534057617,38.4010009765625 -26.450000762939453,-3.130000114440918 -26.450000762939453,-3.130000114440918 C-26.450000762939453,-3.130000114440918 0.33000001311302185,-38.400001525878906 0.33000001311302185,-38.400001525878906 C0.33000001311302185,-38.400001525878906 26.450000762939453,-21.770000457763672 26.450000762939453,-21.770000457763672z">
                        </path>
                    </g>
                    <g opacity="1" transform="matrix(1,0,0,1,194.03500366210938,275.9750061035156)">
                        <path fill="rgb(209,160,184)" fill-opacity="1"
                            d=" M-1.5850000381469727,-38.36399841308594 C-1.5850000381469727,-38.36399841308594 19.725000381469727,6.265999794006348 19.725000381469727,6.265999794006348 C19.725000381469727,6.265999794006348 15.404999732971191,38.3650016784668 15.404999732971191,38.3650016784668 C15.404999732971191,38.3650016784668 -11.085000038146973,-8.704999923706055 -11.085000038146973,-8.704999923706055 C-11.085000038146973,-8.704999923706055 -19.725000381469727,-24.11400032043457 -19.725000381469727,-24.11400032043457 C-19.725000381469727,-24.11400032043457 -1.5850000381469727,-38.36399841308594 -1.5850000381469727,-38.36399841308594z">
                        </path>
                    </g>
                </g>
                <g opacity="1" transform="matrix(1,0,0,1,162.5050048828125,244.16000366210938)">
                    <path fill="rgb(209,160,184)" fill-opacity="1"
                        d=" M11.805000305175781,7.699999809265137 C11.805000305175781,7.699999809265137 -11.805000305175781,8.569999694824219 -11.805000305175781,8.569999694824219 C-11.805000305175781,8.569999694824219 2.6649999618530273,-8.571000099182129 2.6649999618530273,-8.571000099182129 C2.6649999618530273,-8.571000099182129 11.805000305175781,7.699999809265137 11.805000305175781,7.699999809265137z">
                    </path>
                </g>
            </g>
        </g>
        <g transform="matrix(1,0,0,1,0,0)" opacity="1" style="display: block;">
            <g opacity="1" transform="matrix(1,0,0,1,0,0)">
                <g opacity="1" transform="matrix(1,0,0,1,0,0)">
                    <g opacity="1" transform="matrix(1,0,0,1,173.30999755859375,131.44000244140625)">
                        <path fill="rgb(255,255,255)" fill-opacity="1"
                            d=" M-4.96999979019165,3.1600000858306885 C-4.96999979019165,3.1600000858306885 -14.899999618530273,-0.4399999976158142 -14.899999618530273,-0.4399999976158142 C-14.899999618530273,-0.4399999976158142 -4.400000095367432,-3.5999999046325684 -4.400000095367432,-3.5999999046325684 C-4.400000095367432,-3.5999999046325684 3.380000114440918,-2.0199999809265137 3.380000114440918,-2.0199999809265137 C3.380000114440918,-2.0199999809265137 11.869999885559082,-3.1700000762939453 11.869999885559082,-3.1700000762939453 C11.869999885559082,-3.1700000762939453 14.899999618530273,-2.740000009536743 14.899999618530273,-2.740000009536743 C14.899999618530273,-2.740000009536743 0.9300000071525574,3.5999999046325684 0.9300000071525574,3.5999999046325684 C0.9300000071525574,3.5999999046325684 -4.96999979019165,3.1600000858306885 -4.96999979019165,3.1600000858306885z">
                        </path>
                    </g>
                    <g opacity="1" transform="matrix(1,0,0,1,173.30999755859375,127.54499816894531)">
                        <path fill="rgb(115,77,95)" fill-opacity="1"
                            d=" M14.899999618530273,1.1549999713897705 C14.899999618530273,1.1549999713897705 0.8600000143051147,-3.4549999237060547 0.8600000143051147,-3.4549999237060547 C0.8600000143051147,-3.4549999237060547 -14.899999618530273,3.4549999237060547 -14.899999618530273,3.4549999237060547 C-14.899999618530273,3.4549999237060547 0.7020000219345093,2.250999927520752 0.7020000219345093,2.250999927520752 C0.7020000219345093,2.250999927520752 14.899999618530273,1.1549999713897705 14.899999618530273,1.1549999713897705z">
                        </path>
                    </g>
                    <g opacity="1" transform="matrix(1,0,0,1,173.30999755859375,133.52499389648438)">
                        <path fill="rgb(179,135,157)" fill-opacity="1"
                            d=" M0.07000000029802322,4.824999809265137 C0.07000000029802322,4.824999809265137 14.899999618530273,-4.824999809265137 14.899999618530273,-4.824999809265137 C14.899999618530273,-4.824999809265137 1,-1.0850000381469727 1,-1.0850000381469727 C1,-1.0850000381469727 -14.899999618530273,-2.5250000953674316 -14.899999618530273,-2.5250000953674316 C-14.899999618530273,-2.5250000953674316 0.07000000029802322,4.824999809265137 0.07000000029802322,4.824999809265137z">
                        </path>
                    </g>
                </g>
                <g opacity="1" transform="matrix(1,0,0,1,173.23500061035156,96.3499984741211)">
                    <path fill="rgb(232,201,182)" fill-opacity="1"
                        d=" M0.574999988079071,-16.15999984741211 C0.574999988079071,-16.15999984741211 7.775000095367432,14.5 7.775000095367432,14.5 C7.775000095367432,14.5 -3.234999895095825,16.15999984741211 -3.234999895095825,16.15999984741211 C-3.234999895095825,16.15999984741211 -7.775000095367432,-15.079999923706055 -7.775000095367432,-15.079999923706055 C-7.775000095367432,-15.079999923706055 0.574999988079071,-16.15999984741211 0.574999988079071,-16.15999984741211z">
                    </path>
                </g>
                <g opacity="1" transform="matrix(1,0,0,1,175.5050048828125,114.19999694824219)">
                    <path fill="rgb(138,102,81)" fill-opacity="1"
                        d=" M-0.6150000095367432,3.3499999046325684 C-0.6150000095367432,3.3499999046325684 5.505000114440918,-3.3499999046325684 5.505000114440918,-3.3499999046325684 C5.505000114440918,-3.3499999046325684 -5.505000114440918,-1.690000057220459 -5.505000114440918,-1.690000057220459 C-5.505000114440918,-1.690000057220459 -0.6150000095367432,3.3499999046325684 -0.6150000095367432,3.3499999046325684z">
                    </path>
                </g>
                <g opacity="1" transform="matrix(1,0,0,1,157.2550048828125,96.88999938964844)">
                    <path fill="rgb(195,151,122)" fill-opacity="1"
                        d=" M-12.744999885559082,-12.819999694824219 C-12.744999885559082,-12.819999694824219 8.204999923706055,-15.619999885559082 8.204999923706055,-15.619999885559082 C8.204999923706055,-15.619999885559082 12.744999885559082,15.619999885559082 12.744999885559082,15.619999885559082 C12.744999885559082,15.619999885559082 -12.744999885559082,-12.819999694824219 -12.744999885559082,-12.819999694824219z">
                    </path>
                </g>
                <g opacity="1" transform="matrix(1,0,0,1,181.91000366210938,90.08499908447266)">
                    <path fill="rgb(195,151,122)" fill-opacity="1"
                        d=" M-2.490000009536743,13.854999542236328 C-2.490000009536743,13.854999542236328 8.100000381469727,-13.854999542236328 8.100000381469727,-13.854999542236328 C8.100000381469727,-13.854999542236328 -8.100000381469727,-9.895000457763672 -8.100000381469727,-9.895000457763672 C-8.100000381469727,-9.895000457763672 -2.490000009536743,13.854999542236328 -2.490000009536743,13.854999542236328z">
                    </path>
                </g>
                <g opacity="1" transform="matrix(1,0,0,1,0,0)">
                    <g opacity="1" transform="matrix(1,0,0,1,147.97000122070312,81.08999633789062)">
                        <path fill="rgb(70,70,70)" fill-opacity="1"
                            d=" M-6.190000057220459,-3.7799999713897705 C-6.190000057220459,-3.7799999713897705 12.020000457763672,0.9100000262260437 12.020000457763672,0.9100000262260437 C12.020000457763672,0.9100000262260437 -12.020000457763672,3.7799999713897705 -12.020000457763672,3.7799999713897705 C-12.020000457763672,3.7799999713897705 -6.190000057220459,-3.7799999713897705 -6.190000057220459,-3.7799999713897705z">
                        </path>
                    </g>
                    <g opacity="1" transform="matrix(1,0,0,1,184.2449951171875,73.88999938964844)">
                        <path fill="rgb(70,70,70)" fill-opacity="1"
                            d=" M10.4350004196167,0.8999999761581421 C10.4350004196167,0.8999999761581421 -10.4350004196167,6.300000190734863 -10.4350004196167,6.300000190734863 C-10.4350004196167,6.300000190734863 6.195000171661377,-6.300000190734863 6.195000171661377,-6.300000190734863 C6.195000171661377,-6.300000190734863 10.4350004196167,0.8999999761581421 10.4350004196167,0.8999999761581421z">
                        </path>
                    </g>
                </g>
            </g>
        </g>
        <g transform="matrix(1,0,0,1,0,0)" opacity="1" style="display: block;">
            <g opacity="1" transform="matrix(1,0,0,1,0,0)">
                <g opacity="1" transform="matrix(1,0,0,1,113.88999938964844,176.63999938964844)">
                    <path fill="rgb(179,135,157)" fill-opacity="1"
                        d=" M9.75,-8.420000076293945 C9.75,-8.420000076293945 -13.069999694824219,-2.450000047683716 -13.069999694824219,-2.450000047683716 C-13.069999694824219,-2.450000047683716 -14.720000267028809,8.350000381469727 -14.720000267028809,8.350000381469727 C-14.720000267028809,8.350000381469727 -14.720000267028809,8.420000076293945 -14.720000267028809,8.420000076293945 C-14.720000267028809,8.420000076293945 14.720000267028809,-1.3700000047683716 14.720000267028809,-1.3700000047683716 C14.720000267028809,-1.3700000047683716 9.75,-8.420000076293945 9.75,-8.420000076293945z">
                    </path>
                </g>
                <g opacity="1" transform="matrix(1,0,0,1,0,0)">
                    <g opacity="1" transform="matrix(1,0,0,1,173.02000427246094,172.8300018310547)">
                        <path fill="rgb(115,77,95)" fill-opacity="1"
                            d=" M-1.0800000429153442,-16.700000762939453 C-1.0800000429153442,-16.700000762939453 4.679999828338623,-4.46999979019165 4.679999828338623,-4.46999979019165 C4.679999828338623,-4.46999979019165 8.199999809265137,0.6399999856948853 8.199999809265137,0.6399999856948853 C8.199999809265137,0.6399999856948853 8.710000038146973,3.809999942779541 8.710000038146973,3.809999942779541 C8.710000038146973,3.809999942779541 1.3700000047683716,14.829999923706055 1.3700000047683716,14.829999923706055 C1.3700000047683716,14.829999923706055 -8.710000038146973,16.700000762939453 -8.710000038146973,16.700000762939453 C-8.710000038146973,16.700000762939453 -1.0800000429153442,-16.700000762939453 -1.0800000429153442,-16.700000762939453z">
                        </path>
                    </g>
                    <g opacity="1" transform="matrix(1,0,0,1,143.97500610351562,172.2899932861328)">
                        <path fill="rgb(115,77,95)" fill-opacity="1"
                            d=" M-20.334999084472656,-4.070000171661377 C-20.334999084472656,-4.070000171661377 -14.21500015258789,-17.239999771118164 -14.21500015258789,-17.239999771118164 C-14.21500015258789,-17.239999771118164 20.334999084472656,17.239999771118164 20.334999084472656,17.239999771118164 C20.334999084472656,17.239999771118164 -5.505000114440918,17.170000076293945 -5.505000114440918,17.170000076293945 C-5.505000114440918,17.170000076293945 -20.334999084472656,-4.070000171661377 -20.334999084472656,-4.070000171661377z">
                        </path>
                    </g>
                </g>
                <g opacity="1" transform="matrix(1,0,0,1,186.98500061035156,172.5749969482422)">
                    <path fill="rgb(209,160,184)" fill-opacity="1"
                        d=" M-9.28499984741211,-4.215000152587891 C-9.28499984741211,-4.215000152587891 9.28499984741211,-1.7649999856948853 9.28499984741211,-1.7649999856948853 C9.28499984741211,-1.7649999856948853 8.994999885559082,4.215000152587891 8.994999885559082,4.215000152587891 C8.994999885559082,4.215000152587891 -5.255000114440918,4.065000057220459 -5.255000114440918,4.065000057220459 C-5.255000114440918,4.065000057220459 -6.625,1.184999942779541 -6.625,1.184999942779541 C-6.625,1.184999942779541 -9.28499984741211,-4.215000152587891 -9.28499984741211,-4.215000152587891z">
                    </path>
                </g>
            </g>
        </g>

        <g transform="matrix(1,0,0,1,0,0)" opacity="1" style="display: block;">
            <g opacity="1" transform="matrix(1,0,0,1,0,0)">
                <g opacity="1" transform="matrix(1,0,0,1,186.89999389648438,85.75)">
                    <path fill="rgb(43,43,43)" fill-opacity="1"
                        d=" M0,-4.610000133514404 C-2.5460000038146973,-4.610000133514404 -4.610000133514404,-2.5460000038146973 -4.610000133514404,0 C-4.610000133514404,2.5460000038146973 -2.5460000038146973,4.610000133514404 0,4.610000133514404 C2.5460000038146973,4.610000133514404 4.610000133514404,2.5460000038146973 4.610000133514404,0 C4.610000133514404,-2.5460000038146973 2.5460000038146973,-4.610000133514404 0,-4.610000133514404z">
                    </path>
                </g>
                <g opacity="1" transform="matrix(1,0,0,1,152.13999938964844,91.73999786376953)">
                    <path fill="rgb(43,43,43)" fill-opacity="1"
                        d=" M0,-4.610000133514404 C-2.5460000038146973,-4.610000133514404 -4.610000133514404,-2.5460000038146973 -4.610000133514404,0 C-4.610000133514404,2.5460000038146973 -2.5460000038146973,4.610000133514404 0,4.610000133514404 C2.5460000038146973,4.610000133514404 4.610000133514404,2.5460000038146973 4.610000133514404,0 C4.610000133514404,-2.5460000038146973 2.5460000038146973,-4.610000133514404 0,-4.610000133514404z">
                    </path>
                </g>
            </g>
        </g>

        <g transform="matrix(1,0,0,1,0,0)" opacity="1" style="display: block;">
            <g opacity="1" transform="matrix(1,0,0,1,0,0)">
                <g opacity="1" transform="matrix(1,0,0,1,137.52999877929688,46.5)">
                    <path fill="rgb(79,82,82)" fill-opacity="1"
                        d=" M49.52000045776367,-46.5 C49.52000045776367,-46.5 -48.29999923706055,5.539999961853027 -48.29999923706055,5.539999961853027 C-48.29999923706055,5.539999961853027 -68.30999755859375,28.290000915527344 -68.30999755859375,28.290000915527344 C-68.30999755859375,28.290000915527344 -9.5,46.5 -9.5,46.5 C-9.5,46.5 68.30999755859375,-16.701000213623047 68.30999755859375,-16.701000213623047 C68.30999755859375,-16.701000213623047 49.52000045776367,-46.5 49.52000045776367,-46.5z">
                    </path>
                </g>
                <g opacity="1" transform="matrix(1,0,0,1,128.13499450683594,37.39500045776367)">
                    <path fill="rgb(70,70,70)" fill-opacity="1"
                        d=" M58.915000915527344,-37.39500045776367 C58.915000915527344,-37.39500045776367 -44.013999938964844,10.404000282287598 -44.013999938964844,10.404000282287598 C-44.013999938964844,10.404000282287598 -58.915000915527344,37.39500045776367 -58.915000915527344,37.39500045776367 C-58.915000915527344,37.39500045776367 58.915000915527344,-37.39500045776367 58.915000915527344,-37.39500045776367z">
                    </path>
                </g>
                <g opacity="1" transform="matrix(1,0,0,1,175,46.5)">
                    <path fill="rgb(110,112,115)" fill-opacity="1"
                        d=" M12.050000190734863,-46.5 C12.050000190734863,-46.5 -46.970001220703125,46.5 -46.970001220703125,46.5 C-46.970001220703125,46.5 46.970001220703125,-16.40999984741211 46.970001220703125,-16.40999984741211 C46.970001220703125,-16.40999984741211 12.050000190734863,-46.5 12.050000190734863,-46.5z">
                    </path>
                </g>
            </g>
        </g>
        <g transform="matrix(0.9396926164627075,0.3420201539993286,-0.3420201539993286,0.9396926164627075,180.7876739501953,120.24567413330078)"
            opacity="1" style="display: block;">
            <g opacity="1" transform="matrix(1,0,0,1,0,0)">
                <path stroke-linecap="butt" stroke-linejoin="miter" fill-opacity="0" stroke-miterlimit="4"
                    stroke="rgb(157,161,162)" stroke-opacity="1" stroke-width="4" d="M0 0"></path>
            </g>
            <g opacity="1" transform="matrix(1,0,0,1,0,0)">
                <path stroke-linecap="butt" stroke-linejoin="miter" fill-opacity="0" stroke-miterlimit="4"
                    stroke="rgb(157,161,162)" stroke-opacity="1" stroke-width="4" d="M0 0"></path>
            </g>
            <g opacity="1" transform="matrix(1,0,0,1,0,0)">
                <path stroke-linecap="butt" stroke-linejoin="miter" fill-opacity="0" stroke-miterlimit="4"
                    stroke="rgb(157,161,162)" stroke-opacity="1" stroke-width="4" d="M0 0"></path>
            </g>
        </g>
    </g>
</svg>