<svg xmlns="http://www.w3.org/2000/svg" viewBox="0 0 400 400" width="100%" height="100%"
    preserveAspectRatio="xMidYMid meet">
    <defs>
        <clipPath id="__lottie_element_32">
            <rect width="400" height="400" x="0" y="0"></rect>
        </clipPath>
    </defs>
    <g clip-path="url(#__lottie_element_32)">
        <g transform="matrix(1,0,0,1,0,0)" opacity="1" style="display: block;">
            <g opacity="1" transform="matrix(1,0,0,1,0,0)">
                <g opacity="0.1" transform="matrix(1,0,0,1,208.1300048828125,389.20001220703125)">
                    <path fill="rgb(0,0,0)" fill-opacity="1"
                        d=" M-142.6699981689453,3.119999885559082 C-142.6699981689453,3.119999885559082 -23.700000762939453,-10.800000190734863 -23.700000762939453,-10.800000190734863 C-23.700000762939453,-10.800000190734863 142.6699981689453,0.5299999713897705 142.6699981689453,0.5299999713897705 C142.6699981689453,0.5299999713897705 -22.639999389648438,10.800000190734863 -22.639999389648438,10.800000190734863 C-22.639999389648438,10.800000190734863 -142.6699981689453,3.119999885559082 -142.6699981689453,3.119999885559082z">
                    </path>
                </g>
            </g>
        </g>
        <g transform="matrix(1,0,0,1,0,0)" opacity="1" style="display: block;">
            <g opacity="1" transform="matrix(1,0,0,1,278.4700012207031,187.85000610351562)">
                <path fill="rgb(149,98,123)" fill-opacity="1"
                    d=" M8.180000305175781,30.999000549316406 C8.180000305175781,30.999000549316406 -7.580999851226807,33.84000015258789 -7.580999851226807,33.84000015258789 C-7.580999851226807,33.84000015258789 -8.180000305175781,-25.959999084472656 -8.180000305175781,-25.959999084472656 C-8.180000305175781,-25.959999084472656 -5.21999979019165,-30.56100082397461 -5.21999979019165,-30.56100082397461 C-5.21999979019165,-30.56100082397461 -0.7009999752044678,-33.84000015258789 -0.7009999752044678,-33.84000015258789 C-0.7009999752044678,-33.84000015258789 8.180000305175781,30.999000549316406 8.180000305175781,30.999000549316406z">
                </path>
            </g>
            <g opacity="1" transform="matrix(1,0,0,1,257.6449890136719,145.36500549316406)">
                <path fill="rgb(179,135,157)" fill-opacity="1"
                    d=" M20.125,8.645000457763672 C20.125,8.645000457763672 12.645999908447266,16.524999618530273 12.645999908447266,16.524999618530273 C12.645999908447266,16.524999618530273 -20.125,-11.954999923706055 -20.125,-11.954999923706055 C-20.125,-11.954999923706055 -19.86400032043457,-15.135000228881836 -19.86400032043457,-15.135000228881836 C-19.86400032043457,-15.135000228881836 -16.834999084472656,-16.524999618530273 -16.834999084472656,-16.524999618530273 C-16.834999084472656,-16.524999618530273 20.125,8.645000457763672 20.125,8.645000457763672z">
                </path>
            </g>
            <g opacity="1" transform="matrix(1,0,0,1,280.7650146484375,299.2200012207031)">
                <path fill="rgb(144,117,159)" fill-opacity="1"
                    d=" M37.534000396728516,90.08999633789062 C37.534000396728516,90.08999633789062 2.9739999771118164,84.14099884033203 2.9739999771118164,84.14099884033203 C2.9739999771118164,84.14099884033203 -37.53499984741211,90.08999633789062 -37.53499984741211,90.08999633789062 C-37.53499984741211,90.08999633789062 -37.53499984741211,-41.95000076293945 -37.53499984741211,-41.95000076293945 C-37.53499984741211,-41.95000076293945 -34.566001892089844,-52.3489990234375 -34.566001892089844,-52.3489990234375 C-34.566001892089844,-52.3489990234375 -37.53499984741211,-71.08999633789062 -37.53499984741211,-71.08999633789062 C-37.53499984741211,-71.08999633789062 37.534000396728516,-90.08999633789062 37.534000396728516,-90.08999633789062 C37.534000396728516,-90.08999633789062 34.095001220703125,-36.76900100708008 34.095001220703125,-36.76900100708008 C34.095001220703125,-36.76900100708008 37.534000396728516,11.10099983215332 37.534000396728516,11.10099983215332 C37.534000396728516,11.10099983215332 33.183998107910156,55.48099899291992 33.183998107910156,55.48099899291992 C33.183998107910156,55.48099899291992 37.534000396728516,90.08999633789062 37.534000396728516,90.08999633789062z">
                </path>
            </g>
            <g opacity="1" transform="matrix(1,0,0,1,280.7650146484375,259.7250061035156)">
                <path fill="rgb(88,65,100)" fill-opacity="1"
                    d=" M37.534000396728516,-50.595001220703125 C37.534000396728516,-50.595001220703125 -37.53499984741211,-32.71500015258789 -37.53499984741211,-32.71500015258789 C-37.53499984741211,-32.71500015258789 -37.53499984741211,-2.4549999237060547 -37.53499984741211,-2.4549999237060547 C-37.53499984741211,-2.4549999237060547 37.534000396728516,50.595001220703125 37.534000396728516,50.595001220703125 C37.534000396728516,50.595001220703125 37.534000396728516,-50.595001220703125 37.534000396728516,-50.595001220703125z">
                </path>
            </g>
            <g opacity="1" transform="matrix(1,0,0,1,280.760009765625,224.6999969482422)">
                <path fill="rgb(120,93,135)" fill-opacity="1"
                    d=" M52.18000030517578,-3.819999933242798 C52.18000030517578,-3.819999933242798 -52.18000030517578,22.170000076293945 -52.18000030517578,22.170000076293945 C-52.18000030517578,22.170000076293945 -52.18000030517578,3.819999933242798 -52.18000030517578,3.819999933242798 C-52.18000030517578,3.819999933242798 52.18000030517578,-22.170000076293945 52.18000030517578,-22.170000076293945 C52.18000030517578,-22.170000076293945 52.18000030517578,-3.819999933242798 52.18000030517578,-3.819999933242798z">
                </path>
            </g>
            <g opacity="1" transform="matrix(1,0,0,1,280.7650146484375,349.81500244140625)">
                <path fill="rgb(120,93,135)" fill-opacity="1"
                    d=" M37.534000396728516,-39.494998931884766 C37.534000396728516,-39.494998931884766 -37.53499984741211,39.49399948120117 -37.53499984741211,39.49399948120117 C-37.53499984741211,39.49399948120117 37.534000396728516,39.49399948120117 37.534000396728516,39.49399948120117 C37.534000396728516,39.49399948120117 37.534000396728516,-39.494998931884766 37.534000396728516,-39.494998931884766z">
                </path>
            </g>
            <g opacity="1" transform="matrix(1,0,0,1,224.46499633789062,121.18499755859375)">
                <path fill="rgb(179,135,157)" fill-opacity="1"
                    d=" M7.965000152587891,-6.014999866485596 C7.965000152587891,-6.014999866485596 3.2360000610351562,1.6950000524520874 3.2360000610351562,1.6950000524520874 C3.2360000610351562,1.6950000524520874 -2.5450000762939453,8.515000343322754 -2.5450000762939453,8.515000343322754 C-2.5450000762939453,8.515000343322754 -7.965000152587891,-0.7049999833106995 -7.965000152587891,-0.7049999833106995 C-7.965000152587891,-0.7049999833106995 -2.3350000381469727,-8.515000343322754 -2.3350000381469727,-8.515000343322754 C-2.3350000381469727,-8.515000343322754 7.965000152587891,-6.014999866485596 7.965000152587891,-6.014999866485596z">
                </path>
            </g>
            <g opacity="1" transform="matrix(1,0,0,1,232.73500061035156,125.36499786376953)">
                <path fill="rgb(149,98,123)" fill-opacity="1"
                    d=" M-0.3050000071525574,-10.194999694824219 C-0.3050000071525574,-10.194999694824219 -10.8149995803833,4.335000038146973 -10.8149995803833,4.335000038146973 C-10.8149995803833,4.335000038146973 7.25600004196167,10.194999694824219 7.25600004196167,10.194999694824219 C7.25600004196167,10.194999694824219 10.8149995803833,5.34499979019165 10.8149995803833,5.34499979019165 C10.8149995803833,5.34499979019165 -0.3050000071525574,-10.194999694824219 -0.3050000071525574,-10.194999694824219z">
                </path>
            </g>
        </g>
        <g transform="matrix(1,0,0,1,0,0)" opacity="1" style="display: block;">
            <g opacity="1" transform="matrix(1,0,0,1,0,0)">
                <g opacity="1" transform="matrix(1,0,0,1,176.88999938964844,305.1549987792969)">
                    <path fill="rgb(120,93,135)" fill-opacity="1"
                        d=" M-24.649999618530273,19.645000457763672 C-24.649999618530273,19.645000457763672 -10.1899995803833,39.19499969482422 -10.1899995803833,39.19499969482422 C-10.1899995803833,39.19499969482422 9.960000038146973,34.14500045776367 9.960000038146973,34.14500045776367 C9.960000038146973,34.14500045776367 24.649999618530273,22.235000610351562 24.649999618530273,22.235000610351562 C24.649999618530273,22.235000610351562 8.600000381469727,-39.19499969482422 8.600000381469727,-39.19499969482422 C8.600000381469727,-39.19499969482422 -19.299999237060547,3.375 -19.299999237060547,3.375 C-19.299999237060547,3.375 -24.649999618530273,19.645000457763672 -24.649999618530273,19.645000457763672z">
                    </path>
                </g>
                <g opacity="1" transform="matrix(1,0,0,1,188.30999755859375,348.4849853515625)">
                    <path fill="rgb(88,65,100)" fill-opacity="1"
                        d=" M-21.610000610351562,-4.135000228881836 C-21.610000610351562,-4.135000228881836 -3.880000114440918,21.094999313354492 -3.880000114440918,21.094999313354492 C-3.880000114440918,21.094999313354492 18.059999465942383,15.87600040435791 18.059999465942383,15.87600040435791 C18.059999465942383,15.87600040435791 21.610000610351562,10.3149995803833 21.610000610351562,10.3149995803833 C21.610000610351562,10.3149995803833 13.229999542236328,-21.094999313354492 13.229999542236328,-21.094999313354492 C13.229999542236328,-21.094999313354492 -21.610000610351562,-4.135000228881836 -21.610000610351562,-4.135000228881836z">
                    </path>
                </g>
                <g opacity="1" transform="matrix(1,0,0,1,146.53500366210938,287.2449951171875)">
                    <path fill="rgb(144,117,159)" fill-opacity="1"
                        d=" M-38.95500183105469,-20.395000457763672 C-38.95500183105469,-20.395000457763672 38.95500183105469,-21.28499984741211 38.95500183105469,-21.28499984741211 C38.95500183105469,-21.28499984741211 11.055000305175781,21.28499984741211 11.055000305175781,21.28499984741211 C11.055000305175781,21.28499984741211 -13.074999809265137,10.085000038146973 -13.074999809265137,10.085000038146973 C-13.074999809265137,10.085000038146973 -38.95500183105469,-20.395000457763672 -38.95500183105469,-20.395000457763672z">
                    </path>
                </g>
                <g opacity="1" transform="matrix(1,0,0,1,128.61500549316406,307.2640075683594)">
                    <path fill="rgb(166,135,185)" fill-opacity="1"
                        d=" M28.975000381469727,1.2660000324249268 C28.975000381469727,1.2660000324249268 21.635000228881836,32.0359992980957 21.635000228881836,32.0359992980957 C21.635000228881836,32.0359992980957 1.3550000190734863,40.415000915527344 1.3550000190734863,40.415000915527344 C1.3550000190734863,40.415000915527344 -18.924999237060547,33.0359992980957 -18.924999237060547,33.0359992980957 C-18.924999237060547,33.0359992980957 -27.334999084472656,-7.923999786376953 -27.334999084472656,-7.923999786376953 C-27.334999084472656,-7.923999786376953 -28.975000381469727,-24.56399917602539 -28.975000381469727,-24.56399917602539 C-28.975000381469727,-24.56399917602539 -21.03499984741211,-40.415000915527344 -21.03499984741211,-40.415000915527344 C-21.03499984741211,-40.415000915527344 28.975000381469727,1.2660000324249268 28.975000381469727,1.2660000324249268z">
                    </path>
                </g>
                <g opacity="1" transform="matrix(1,0,0,1,129.97000122070312,356.29998779296875)">
                    <path fill="rgb(120,93,135)" fill-opacity="1"
                        d=" M20.280000686645508,-17 C20.280000686645508,-17 13.760000228881836,10.710000038146973 13.760000228881836,10.710000038146973 C13.760000228881836,10.710000038146973 1.590000033378601,17 1.590000033378601,17 C1.590000033378601,17 -14.350000381469727,15.930999755859375 -14.350000381469727,15.930999755859375 C-14.350000381469727,15.930999755859375 -20.280000686645508,-16 -20.280000686645508,-16 C-20.280000686645508,-16 20.280000686645508,-17 20.280000686645508,-17z">
                    </path>
                </g>
                <g opacity="1" transform="matrix(1,0,0,1,133.8800048828125,378.3999938964844)">
                    <path fill="rgb(149,98,123)" fill-opacity="1"
                        d=" M9.850000381469727,-11.390000343322754 C9.850000381469727,-11.390000343322754 18.75,9.390000343322754 18.75,9.390000343322754 C18.75,9.390000343322754 0.3199999928474426,11.390000343322754 0.3199999928474426,11.390000343322754 C0.3199999928474426,11.390000343322754 -18.75,9.390000343322754 -18.75,9.390000343322754 C-18.75,9.390000343322754 -18.260000228881836,-6.169000148773193 -18.260000228881836,-6.169000148773193 C-18.260000228881836,-6.169000148773193 9.850000381469727,-11.390000343322754 9.850000381469727,-11.390000343322754z">
                    </path>
                </g>
                <g opacity="1" transform="matrix(1,0,0,1,209.875,371.7650146484375)">
                    <path fill="rgb(149,98,123)" fill-opacity="1"
                        d=" M0.04500000178813934,-12.965999603271484 C0.04500000178813934,-12.965999603271484 25.44499969482422,10.96500015258789 25.44499969482422,10.96500015258789 C25.44499969482422,10.96500015258789 -4.034999847412109,12.96500015258789 -4.034999847412109,12.96500015258789 C-4.034999847412109,12.96500015258789 -24.96500015258789,10.96500015258789 -24.96500015258789,10.96500015258789 C-24.96500015258789,10.96500015258789 -25.44499969482422,-2.186000108718872 -25.44499969482422,-2.186000108718872 C-25.44499969482422,-2.186000108718872 0.04500000178813934,-12.965999603271484 0.04500000178813934,-12.965999603271484z">
                    </path>
                </g>
                <g opacity="1" transform="matrix(1,0,0,1,133.8800048828125,391.05999755859375)">
                    <path fill="rgb(83,47,66)" fill-opacity="1"
                        d=" M-18.75,-3.2699999809265137 C-18.75,-3.2699999809265137 18.75,-3.2699999809265137 18.75,-3.2699999809265137 C18.75,-3.2699999809265137 18.75,3.2699999809265137 18.75,3.2699999809265137 C18.75,3.2699999809265137 -18.75,3.2699999809265137 -18.75,3.2699999809265137 C-18.75,3.2699999809265137 -18.75,-3.2699999809265137 -18.75,-3.2699999809265137z">
                    </path>
                </g>
                <g opacity="1" transform="matrix(1,0,0,1,210.11500549316406,386)">
                    <path fill="rgb(83,47,66)" fill-opacity="1"
                        d=" M-25.204999923706055,-3.2699999809265137 C-25.204999923706055,-3.2699999809265137 25.204999923706055,-3.2699999809265137 25.204999923706055,-3.2699999809265137 C25.204999923706055,-3.2699999809265137 25.204999923706055,3.2699999809265137 25.204999923706055,3.2699999809265137 C25.204999923706055,3.2699999809265137 -25.204999923706055,3.2699999809265137 -25.204999923706055,3.2699999809265137 C-25.204999923706055,3.2699999809265137 -25.204999923706055,-3.2699999809265137 -25.204999923706055,-3.2699999809265137z">
                    </path>
                </g>
            </g>
        </g>
        <g transform="matrix(1,0,0,1,0,0)" opacity="1" style="display: block;">
            <g opacity="1" transform="matrix(1,0,0,1,0,0)">
                <g opacity="1" transform="matrix(1,0,0,1,189.16000366210938,201.61000061035156)">
                    <path fill="rgb(179,135,157)" fill-opacity="1"
                        d=" M1.2200000286102295,-35.93000030517578 C1.2200000286102295,-35.93000030517578 11.40999984741211,-5.449999809265137 11.40999984741211,-5.449999809265137 C11.40999984741211,-5.449999809265137 8.430000305175781,22.81999969482422 8.430000305175781,22.81999969482422 C8.430000305175781,22.81999969482422 -10.380000114440918,35.93000030517578 -10.380000114440918,35.93000030517578 C-10.380000114440918,35.93000030517578 -10.526000022888184,29.451000213623047 -10.526000022888184,29.451000213623047 C-10.526000022888184,29.451000213623047 -11.40999984741211,-9.859999656677246 -11.40999984741211,-9.859999656677246 C-11.40999984741211,-9.859999656677246 1.2200000286102295,-35.93000030517578 1.2200000286102295,-35.93000030517578z">
                    </path>
                </g>
                <g opacity="1" transform="matrix(1,0,0,1,199.375,234.88999938964844)">
                    <path fill="rgb(149,98,123)" fill-opacity="1"
                        d=" M-5.6539998054504395,-15.789999961853027 C-5.6539998054504395,-15.789999961853027 -1.784999966621399,-10.460000038146973 -1.784999966621399,-10.460000038146973 C-1.784999966621399,-10.460000038146973 19.763999938964844,-7.89900016784668 19.763999938964844,-7.89900016784668 C19.763999938964844,-7.89900016784668 15.595999717712402,14.10099983215332 15.595999717712402,14.10099983215332 C15.595999717712402,14.10099983215332 -17.584999084472656,15.789999961853027 -17.584999084472656,15.789999961853027 C-17.584999084472656,15.789999961853027 -19.763999938964844,-8.720000267028809 -19.763999938964844,-8.720000267028809 C-19.763999938964844,-8.720000267028809 -5.6539998054504395,-15.789999961853027 -5.6539998054504395,-15.789999961853027z">
                    </path>
                </g>
                <g opacity="1" transform="matrix(1,0,0,1,0,0)">
                    <g opacity="1" transform="matrix(1,0,0,1,205.3800048828125,235.18499755859375)">
                        <path fill="rgb(115,77,95)" fill-opacity="1"
                            d=" M-12.529999732971191,-12.944999694824219 C-12.529999732971191,-12.944999694824219 -13.760000228881836,-1.475000023841858 -13.760000228881836,-1.475000023841858 C-13.760000228881836,-1.475000023841858 1.4900000095367432,12.944999694824219 1.4900000095367432,12.944999694824219 C1.4900000095367432,12.944999694824219 13.760000228881836,-8.194999694824219 13.760000228881836,-8.194999694824219 C13.760000228881836,-8.194999694824219 2.3889999389648438,-9.885000228881836 2.3889999389648438,-9.885000228881836 C2.3889999389648438,-9.885000228881836 -12.529999732971191,-12.944999694824219 -12.529999732971191,-12.944999694824219z">
                        </path>
                    </g>
                </g>
            </g>
        </g>
        <g transform="matrix(1,0,0,1,-0.0000152587890625,0.0000152587890625)" opacity="1" style="display: block;">
            <g opacity="1" transform="matrix(1,0,0,1,0,0)">
                <g opacity="1" transform="matrix(1,0,0,1,211.72500610351562,196.22499084472656)">
                    <path fill="rgb(195,151,122)" fill-opacity="1"
                        d=" M-7.184999942779541,16.29400062561035 C-7.184999942779541,16.29400062561035 -12.78499984741211,10.265999794006348 -12.78499984741211,10.265999794006348 C-12.78499984741211,10.265999794006348 7.704999923706055,-16.29400062561035 7.704999923706055,-16.29400062561035 C7.704999923706055,-16.29400062561035 12.78499984741211,-11.53499984741211 12.78499984741211,-11.53499984741211 C12.78499984741211,-11.53499984741211 4.465000152587891,2.7339999675750732 4.465000152587891,2.7339999675750732 C4.465000152587891,2.7339999675750732 1.0950000286102295,13.074999809265137 1.0950000286102295,13.074999809265137 C1.0950000286102295,13.074999809265137 -7.184999942779541,16.29400062561035 -7.184999942779541,16.29400062561035z">
                    </path>
                </g>
                <g opacity="1" transform="matrix(1,0,0,1,210.72999572753906,222.1699981689453)">
                    <path fill="rgb(195,151,122)" fill-opacity="1"
                        d=" M-6.190000057220459,-14.65999984741211 C-6.190000057220459,-14.65999984741211 10.619999885559082,2.619999885559082 10.619999885559082,2.619999885559082 C10.619999885559082,2.619999885559082 -1.4700000286102295,14.65999984741211 -1.4700000286102295,14.65999984741211 C-1.4700000286102295,14.65999984741211 -10.619999885559082,6.53000020980835 -10.619999885559082,6.53000020980835 C-10.619999885559082,6.53000020980835 -6.190000057220459,-14.65999984741211 -6.190000057220459,-14.65999984741211z">
                    </path>
                </g>
                <g opacity="1" transform="matrix(1,0,0,1,198.6949920654297,212.42999267578125)">
                    <path fill="rgb(223,188,164)" fill-opacity="1"
                        d=" M1.875,-16.270000457763672 C1.875,-16.270000457763672 -3.625,-16.079999923706055 -3.625,-16.079999923706055 C-3.625,-16.079999923706055 -5.84499979019165,9.8100004196167 -5.84499979019165,9.8100004196167 C-5.84499979019165,9.8100004196167 1.4149999618530273,16.270000457763672 1.4149999618530273,16.270000457763672 C1.4149999618530273,16.270000457763672 5.84499979019165,0.08900000154972076 5.84499979019165,0.08900000154972076 C5.84499979019165,0.08900000154972076 1.875,-16.270000457763672 1.875,-16.270000457763672z">
                    </path>
                </g>
                <g opacity="1" transform="matrix(1,0,0,1,216.2899932861328,212.97500610351562)">
                    <path fill="rgb(232,201,182)" fill-opacity="1"
                        d=" M-11.75,-0.4560000002384186 C-11.75,-0.4560000002384186 -0.10000000149011612,-14.015999794006348 -0.10000000149011612,-14.015999794006348 C-0.10000000149011612,-14.015999794006348 11.75,5.534999847412109 11.75,5.534999847412109 C11.75,5.534999847412109 2.8499999046325684,14.015999794006348 2.8499999046325684,14.015999794006348 C2.8499999046325684,14.015999794006348 -11.75,-0.4560000002384186 -11.75,-0.4560000002384186z">
                    </path>
                </g>
            </g>
        </g>
        <g transform="matrix(1,0,0,1,0,0)" opacity="1" style="display: block;">
            <g opacity="1" transform="matrix(1,0,0,1,0,0)">
                <g opacity="1" transform="matrix(1,0,0,1,152.625,81.7699966430664)">
                    <path fill="rgb(223,188,164)" fill-opacity="1"
                        d=" M5.585000038146973,-40.279998779296875 C5.585000038146973,-40.279998779296875 16.344999313354492,-51.91999816894531 16.344999313354492,-51.91999816894531 C16.344999313354492,-51.91999816894531 28.594999313354492,-54.220001220703125 28.594999313354492,-54.220001220703125 C28.594999313354492,-54.220001220703125 46.375,43.40999984741211 46.375,43.40999984741211 C46.375,43.40999984741211 14.21500015258789,51.59000015258789 14.21500015258789,51.59000015258789 C14.21500015258789,51.59000015258789 -24.05500030517578,54.220001220703125 -24.05500030517578,54.220001220703125 C-24.05500030517578,54.220001220703125 -42.654998779296875,-12.140000343322754 -42.654998779296875,-12.140000343322754 C-42.654998779296875,-12.140000343322754 -46.375,-43.41999816894531 -46.375,-43.41999816894531 C-46.375,-43.41999816894531 -19.864999771118164,-46.619998931884766 -19.864999771118164,-46.619998931884766 C-19.864999771118164,-46.619998931884766 5.585000038146973,-40.279998779296875 5.585000038146973,-40.279998779296875z">
                    </path>
                </g>
                <g opacity="1" transform="matrix(1,0,0,1,137.63499450683594,98.32499694824219)">
                    <path fill="rgb(195,151,122)" fill-opacity="1"
                        d=" M13.944999694824219,42.025001525878906 C13.944999694824219,42.025001525878906 61.3650016784668,26.854999542236328 61.3650016784668,26.854999542236328 C38.06399917602539,30.895000457763672 14.762999534606934,34.935001373291016 -8.536999702453613,38.97600173950195 C-13.479999542236328,15.409000396728516 -18.42300033569336,-8.157999992370605 -23.364999771118164,-31.725000381469727 C-23.364999771118164,-31.725000381469727 -31.385000228881836,-59.974998474121094 -31.385000228881836,-59.974998474121094 C-31.385000228881836,-59.974998474121094 -47.07500076293945,-40.79499816894531 -47.07500076293945,-40.79499816894531 C-47.07500076293945,-40.79499816894531 -42.625,-25.905000686645508 -42.625,-25.905000686645508 C-42.625,-25.905000686645508 -31.725000381469727,-7.664999961853027 -31.725000381469727,-7.664999961853027 C-31.725000381469727,-7.664999961853027 -36.64500045776367,-6.355000019073486 -36.64500045776367,-6.355000019073486 C-36.64500045776367,-6.355000019073486 -39.404998779296875,-1.0449999570846558 -39.404998779296875,-1.0449999570846558 C-39.404998779296875,-1.0449999570846558 -45.19499969482422,-5.215000152587891 -45.19499969482422,-5.215000152587891 C-45.19499969482422,-5.215000152587891 -49.8650016784668,-15.335000038146973 -49.8650016784668,-15.335000038146973 C-49.8650016784668,-15.335000038146973 -55.05500030517578,-7.364999771118164 -55.05500030517578,-7.364999771118164 C-55.05500030517578,-7.364999771118164 -61.3650016784668,-3.8350000381469727 -61.3650016784668,-3.8350000381469727 C-61.3650016784668,-3.8350000381469727 -52.005001068115234,3.875 -52.005001068115234,3.875 C-52.005001068115234,3.875 -47.775001525878906,13.255000114440918 -47.775001525878906,13.255000114440918 C-47.775001525878906,13.255000114440918 -45.064998626708984,19.155000686645508 -45.064998626708984,19.155000686645508 C-45.064998626708984,19.155000686645508 -43.665000915527344,30.985000610351562 -43.665000915527344,30.985000610351562 C-43.665000915527344,30.985000610351562 -36.96500015258789,59.974998474121094 -36.96500015258789,59.974998474121094 C-36.96500015258789,59.974998474121094 21.614999771118164,57.185001373291016 21.614999771118164,57.185001373291016 C21.614999771118164,57.185001373291016 13.944999694824219,42.025001525878906 13.944999694824219,42.025001525878906z">
                    </path>
                </g>
                <g opacity="1" transform="matrix(1,0,0,1,182.2899932861328,38.95000076293945)">
                    <path fill="rgb(70,70,70)" fill-opacity="1"
                        d=" M4.099999904632568,16.979999542236328 C4.099999904632568,16.979999542236328 8.699999809265137,-16.979999542236328 8.699999809265137,-16.979999542236328 C8.699999809265137,-16.979999542236328 -8.699999809265137,-14.15999984741211 -8.699999809265137,-14.15999984741211 C-8.699999809265137,-14.15999984741211 4.099999904632568,16.979999542236328 4.099999904632568,16.979999542236328z">
                    </path>
                </g>
                <g opacity="1" transform="matrix(1,0,0,1,88.47000122070312,97.28500366210938)">
                    <path fill="rgb(223,188,164)" fill-opacity="1"
                        d=" M9.760000228881836,-0.004999999888241291 C9.760000228881836,-0.004999999888241291 12.199999809265137,5.574999809265137 12.199999809265137,5.574999809265137 C12.199999809265137,5.574999809265137 1.3899999856948853,14.295000076293945 1.3899999856948853,14.295000076293945 C1.3899999856948853,14.295000076293945 -12.199999809265137,-2.7950000762939453 -12.199999809265137,-2.7950000762939453 C-12.199999809265137,-2.7950000762939453 -0.699999988079071,-14.295000076293945 -0.699999988079071,-14.295000076293945 C-0.699999988079071,-14.295000076293945 9.760000228881836,-0.004999999888241291 9.760000228881836,-0.004999999888241291z">
                    </path>
                </g>
                <g opacity="1" transform="matrix(1,0,0,1,172.1999969482422,20.7450008392334)">
                    <path fill="rgb(110,112,115)" fill-opacity="1"
                        d=" M-13.989999771118164,20.7450008392334 C-13.989999771118164,20.7450008392334 18.790000915527344,1.225000023841858 18.790000915527344,1.225000023841858 C18.790000915527344,1.225000023841858 -16.079999923706055,-20.7450008392334 -16.079999923706055,-20.7450008392334 C-16.079999923706055,-20.7450008392334 -18.790000915527344,2.005000114440918 -18.790000915527344,2.005000114440918 C-18.790000915527344,2.005000114440918 -13.989999771118164,20.7450008392334 -13.989999771118164,20.7450008392334z">
                    </path>
                </g>
                <g opacity="1" transform="matrix(1,0,0,1,111.83499908447266,20.7450008392334)">
                    <path fill="rgb(143,143,143)" fill-opacity="1"
                        d=" M46.375,20.7450008392334 C46.375,20.7450008392334 44.28499984741211,-20.7450008392334 44.28499984741211,-20.7450008392334 C44.28499984741211,-20.7450008392334 -46.375,13.425000190734863 -46.375,13.425000190734863 C-46.375,13.425000190734863 -26.815000534057617,19.405000686645508 -26.815000534057617,19.405000686645508 C-26.815000534057617,19.405000686645508 -5.585000038146973,17.604999542236328 -5.585000038146973,17.604999542236328 C-5.585000038146973,17.604999542236328 46.375,20.7450008392334 46.375,20.7450008392334z">
                    </path>
                </g>
                <g opacity="1" transform="matrix(1,0,0,1,84.11000061035156,60.66999816894531)">
                    <path fill="rgb(110,112,115)" fill-opacity="1"
                        d=" M-18.649999618530273,-26.5 C-18.649999618530273,-26.5 -22.139999389648438,26.5 -22.139999389648438,26.5 C-22.139999389648438,26.5 -6.320000171661377,13.149999618530273 -6.320000171661377,13.149999618530273 C-6.320000171661377,13.149999618530273 6.449999809265137,-3.140000104904175 6.449999809265137,-3.140000104904175 C6.449999809265137,-3.140000104904175 22.139999389648438,-22.31999969482422 22.139999389648438,-22.31999969482422 C22.139999389648438,-22.31999969482422 -18.649999618530273,-26.5 -18.649999618530273,-26.5z">
                    </path>
                </g>
                <g opacity="1" transform="matrix(1,0,0,1,83.94000244140625,77.40499877929688)">
                    <path fill="rgb(70,70,70)" fill-opacity="1"
                        d=" M6.619999885559082,-19.875 C6.619999885559082,-19.875 21.969999313354492,13.255000114440918 21.969999313354492,13.255000114440918 C21.969999313354492,13.255000114440918 14.289999961853027,19.875 14.289999961853027,19.875 C14.289999961853027,19.875 3.8299999237060547,5.585000038146973 3.8299999237060547,5.585000038146973 C3.8299999237060547,5.585000038146973 -7.670000076293945,17.084999084472656 -7.670000076293945,17.084999084472656 C-7.670000076293945,17.084999084472656 -21.969999313354492,9.765000343322754 -21.969999313354492,9.765000343322754 C-21.969999313354492,9.765000343322754 6.619999885559082,-19.875 6.619999885559082,-19.875z">
                    </path>
                </g>
                <g opacity="1" transform="matrix(1,0,0,1,87.25,95.36499786376953)">
                    <path fill="rgb(138,102,81)" fill-opacity="1"
                        d=" M-4.710000038146973,-0.17499999701976776 C-4.710000038146973,-0.17499999701976776 -0.5199999809265137,-4.355000019073486 -0.5199999809265137,-4.355000019073486 C-0.5199999809265137,-4.355000019073486 4.710000038146973,4.355000019073486 4.710000038146973,4.355000019073486 C4.710000038146973,4.355000019073486 -4.710000038146973,-0.17499999701976776 -4.710000038146973,-0.17499999701976776z">
                    </path>
                </g>
                <g opacity="1" transform="matrix(1,0,0,1,93.69999694824219,117.58000183105469)">
                    <path fill="rgb(138,102,81)" fill-opacity="1"
                        d=" M-3.8399999141693115,-6 C-3.8399999141693115,-6 3.8399999141693115,-12.279999732971191 3.8399999141693115,-12.279999732971191 C3.8399999141693115,-12.279999732971191 0.4000000059604645,12.279999732971191 0.4000000059604645,12.279999732971191 C0.4000000059604645,12.279999732971191 -3.8399999141693115,-6 -3.8399999141693115,-6z">
                    </path>
                </g>
                <g opacity="1" transform="matrix(1,0,0,1,157.7449951171875,140.34500122070312)">
                    <path fill="rgb(138,102,81)" fill-opacity="1"
                        d=" M-41.255001068115234,-2.7950000762939453 C-41.255001068115234,-2.7950000762939453 41.255001068115234,-15.164999961853027 41.255001068115234,-15.164999961853027 C41.255001068115234,-15.164999961853027 1.5049999952316284,2.265000104904175 1.5049999952316284,2.265000104904175 C1.5049999952316284,2.265000104904175 1.5049999952316284,15.164999961853027 1.5049999952316284,15.164999961853027 C1.5049999952316284,15.164999961853027 -15.987000465393066,7.817999839782715 -15.987000465393066,7.817999839782715 C-15.987000465393066,7.817999839782715 -41.255001068115234,-2.7950000762939453 -41.255001068115234,-2.7950000762939453z">
                    </path>
                </g>
                <g opacity="1" transform="matrix(1,0,0,1,156.81500244140625,109.48500061035156)">
                    <path fill="rgb(138,102,81)" fill-opacity="1"
                        d=" M21.96500015258789,1.5850000381469727 C21.96500015258789,1.5850000381469727 0.824999988079071,2.994999885559082 0.824999988079071,2.994999885559082 C0.824999988079071,2.994999885559082 -15.625,-2.015000104904175 -15.625,-2.015000104904175 C-15.625,-2.015000104904175 -12.925000190734863,-8.555000305175781 -12.925000190734863,-8.555000305175781 C-12.925000190734863,-8.555000305175781 -21.96500015258789,-2.7750000953674316 -21.96500015258789,-2.7750000953674316 C-21.96500015258789,-2.7750000953674316 -19.614999771118164,8.555000305175781 -19.614999771118164,8.555000305175781 C-19.614999771118164,8.555000305175781 -16.44499969482422,2.4549999237060547 -16.44499969482422,2.4549999237060547 C-16.44499969482422,2.4549999237060547 0.824999988079071,7.465000152587891 0.824999988079071,7.465000152587891 C0.824999988079071,7.465000152587891 21.96500015258789,1.5850000381469727 21.96500015258789,1.5850000381469727z">
                    </path>
                </g>
                <g opacity="1" transform="matrix(1,0,0,1,172.09500122070312,61.33000183105469)">
                    <path fill="rgb(195,151,122)" fill-opacity="1"
                        d=" M-7.264999866485596,-6.239999771118164 C-7.264999866485596,-6.239999771118164 -10.404999732971191,1.4299999475479126 -10.404999732971191,1.4299999475479126 C-10.404999732971191,1.4299999475479126 -10.875,9.390000343322754 -10.875,9.390000343322754 C-10.875,9.390000343322754 -6.855000019073486,19.139999389648438 -6.855000019073486,19.139999389648438 C-6.855000019073486,19.139999389648438 10.875,-9.729999542236328 10.875,-9.729999542236328 C10.875,-9.729999542236328 2.505000114440918,-19.139999389648438 2.505000114440918,-19.139999389648438 C2.505000114440918,-19.139999389648438 -7.264999866485596,-6.239999771118164 -7.264999866485596,-6.239999771118164z">
                    </path>
                </g>
                <g opacity="1" transform="matrix(1,0,0,1,172.3300018310547,48.814998626708984)">
                    <path fill="rgb(70,70,70)" fill-opacity="1"
                        d=" M-10.640000343322754,2.0950000286102295 C-10.640000343322754,2.0950000286102295 2.2699999809265137,-6.625 2.2699999809265137,-6.625 C2.2699999809265137,-6.625 10.640000343322754,2.7850000858306885 10.640000343322754,2.7850000858306885 C10.640000343322754,2.7850000858306885 5.75,6.625 5.75,6.625 C5.75,6.625 0,0.004999999888241291 0,0.004999999888241291 C0,0.004999999888241291 -7.5,6.275000095367432 -7.5,6.275000095367432 C-7.5,6.275000095367432 -10.640000343322754,2.0950000286102295 -10.640000343322754,2.0950000286102295z">
                    </path>
                </g>
                <g opacity="1" transform="matrix(1,0,0,1,139.55499267578125,78.80000305175781)">
                    <path fill="rgb(195,151,122)" fill-opacity="1"
                        d=" M-16.915000915527344,-16.389999389648438 C-16.915000915527344,-16.389999389648438 4.494999885559082,-5.269999980926514 4.494999885559082,-5.269999980926514 C4.494999885559082,-5.269999980926514 16.915000915527344,16.389999389648438 16.915000915527344,16.389999389648438 C16.915000915527344,16.389999389648438 15.425000190734863,-3.759999990463257 15.425000190734863,-3.759999990463257 C15.425000190734863,-3.759999990463257 12.024999618530273,-14.640000343322754 12.024999618530273,-14.640000343322754 C12.024999618530273,-14.640000343322754 -16.915000915527344,-16.389999389648438 -16.915000915527344,-16.389999389648438z">
                    </path>
                </g>
                <g opacity="1" transform="matrix(1,0,0,1,137.11000061035156,62.939998626708984)">
                    <path fill="rgb(70,70,70)" fill-opacity="1"
                        d=" M14.470000267028809,1.2200000286102295 C14.470000267028809,1.2200000286102295 -12.720000267028809,-7.150000095367432 -12.720000267028809,-7.150000095367432 C-12.720000267028809,-7.150000095367432 -14.470000267028809,-0.5299999713897705 -14.470000267028809,-0.5299999713897705 C-14.470000267028809,-0.5299999713897705 9.59000015258789,7.150000095367432 9.59000015258789,7.150000095367432 C9.59000015258789,7.150000095367432 14.470000267028809,1.2200000286102295 14.470000267028809,1.2200000286102295z">
                    </path>
                </g>
                <g opacity="1" transform="matrix(1,0,0,1,159.60000610351562,79.18000030517578)">
                    <path fill="rgb(232,201,182)" fill-opacity="1"
                        d=" M2.0899999141693115,-16.420000076293945 C2.0899999141693115,-16.420000076293945 8.020000457763672,13.220000267028809 8.020000457763672,13.220000267028809 C8.020000457763672,13.220000267028809 3.2899999618530273,16.420000076293945 3.2899999618530273,16.420000076293945 C3.2899999618530273,16.420000076293945 -3.130000114440918,16.010000228881836 -3.130000114440918,16.010000228881836 C-3.130000114440918,16.010000228881836 -8.020000457763672,-15.020000457763672 -8.020000457763672,-15.020000457763672 C-8.020000457763672,-15.020000457763672 2.0899999141693115,-16.420000076293945 2.0899999141693115,-16.420000076293945z">
                    </path>
                </g>
                <g opacity="1" transform="matrix(1,0,0,1,162.0449981689453,96.41000366210938)">
                    <path fill="rgb(138,102,81)" fill-opacity="1"
                        d=" M5.574999809265137,-4.010000228881836 C5.574999809265137,-4.010000228881836 0.6949999928474426,4.010000228881836 0.6949999928474426,4.010000228881836 C0.6949999928474426,4.010000228881836 -5.574999809265137,-1.2200000286102295 -5.574999809265137,-1.2200000286102295 C-5.574999809265137,-1.2200000286102295 5.574999809265137,-4.010000228881836 5.574999809265137,-4.010000228881836z">
                    </path>
                </g>
            </g>
        </g>
        <g transform="matrix(1,0,0,1,0,0)" opacity="1" style="display: block;">
            <g opacity="1" transform="matrix(1,0,0,1,0,0)">
                <path fill="rgb(195,152,123)" fill-opacity="1"
                    d=" M160,156.375 C160,156.375 100.81199645996094,157.125 100.81199645996094,157.125 C100.81199645996094,157.125 98.25,162.875 98.25,162.875 C98.25,162.875 160,156.375 160,156.375z">
                </path>
            </g>
            <g opacity="1" transform="matrix(1,0,0,1,0,0)">
                <g opacity="1" transform="matrix(1,0,0,1,131.38499450683594,177.80499267578125)">
                    <path fill="rgb(253,253,253)" fill-opacity="1"
                        d=" M-35.31999969482422,-16.934999465942383 C-35.31999969482422,-16.934999465942383 -33.97100067138672,2.5360000133514404 -33.97100067138672,2.5360000133514404 C-33.97100067138672,2.5360000133514404 16.475000381469727,27.05500030517578 16.475000381469727,27.05500030517578 C16.475000381469727,27.05500030517578 28.131999969482422,-22.10700035095215 28.131999969482422,-22.10700035095215 C28.131999969482422,-22.10700035095215 -30.746999740600586,-19.41699981689453 -30.746999740600586,-19.41699981689453 C-30.746999740600586,-19.41699981689453 -35.31999969482422,-16.934999465942383 -35.31999969482422,-16.934999465942383z">
                    </path>
                </g>
                <g opacity="1" transform="matrix(1,0,0,1,107.58000183105469,192.8800048828125)">
                    <path fill="rgb(149,98,123)" fill-opacity="1"
                        d=" M-6.71999979019165,-35.2599983215332 C-6.71999979019165,-35.2599983215332 36.33000183105469,-3.2100000381469727 36.33000183105469,-3.2100000381469727 C36.33000183105469,-3.2100000381469727 11.5600004196167,16.4689998626709 11.5600004196167,16.4689998626709 C11.5600004196167,16.4689998626709 -18.93000030517578,35.2599983215332 -18.93000030517578,35.2599983215332 C-18.93000030517578,35.2599983215332 -29.290000915527344,11.609999656677246 -29.290000915527344,11.609999656677246 C-29.290000915527344,11.609999656677246 -36.33000183105469,-19.079999923706055 -36.33000183105469,-19.079999923706055 C-36.33000183105469,-19.079999923706055 -6.71999979019165,-35.2599983215332 -6.71999979019165,-35.2599983215332z">
                    </path>
                </g>
                <g opacity="1" transform="matrix(1,0,0,1,167.14500427246094,178.25)">
                    <path fill="rgb(149,98,123)" fill-opacity="1"
                        d=" M-7.894999980926514,-22.739999771118164 C-7.894999980926514,-22.739999771118164 23.235000610351562,-12.569999694824219 23.235000610351562,-12.569999694824219 C23.235000610351562,-12.569999694824219 13.744999885559082,19 13.744999885559082,19 C13.744999885559082,19 -3.755000114440918,22.739999771118164 -3.755000114440918,22.739999771118164 C-3.755000114440918,22.739999771118164 -23.235000610351562,11.420000076293945 -23.235000610351562,11.420000076293945 C-23.235000610351562,11.420000076293945 -7.894999980926514,-22.739999771118164 -7.894999980926514,-22.739999771118164z">
                    </path>
                </g>
                <g opacity="1" transform="matrix(1,0,0,1,120.63999938964844,230.55499267578125)">
                    <path fill="rgb(115,77,95)" fill-opacity="1"
                        d=" M-31.989999771118164,-2.4159998893737793 C-31.989999771118164,-2.4159998893737793 -23.520000457763672,27.315000534057617 -23.520000457763672,27.315000534057617 C-23.520000457763672,27.315000534057617 -13.0600004196167,36.29399871826172 -13.0600004196167,36.29399871826172 C-13.0600004196167,36.29399871826172 31.780000686645508,40.8849983215332 31.780000686645508,40.8849983215332 C31.780000686645508,40.8849983215332 31.989999771118164,-3.563999891281128 31.989999771118164,-3.563999891281128 C31.989999771118164,-3.563999891281128 23.270000457763672,-40.88600158691406 23.270000457763672,-40.88600158691406 C23.270000457763672,-40.88600158691406 -31.989999771118164,-2.4159998893737793 -31.989999771118164,-2.4159998893737793z">
                    </path>
                </g>
                <g opacity="1" transform="matrix(1,0,0,1,164.6999969482422,230.55499267578125)">
                    <path fill="rgb(83,47,66)" fill-opacity="1"
                        d=" M-20.790000915527344,-40.88600158691406 C-20.790000915527344,-40.88600158691406 16.190000534057617,-33.305999755859375 16.190000534057617,-33.305999755859375 C16.190000534057617,-33.305999755859375 20.790000915527344,35.40399932861328 20.790000915527344,35.40399932861328 C20.790000915527344,35.40399932861328 -12.279999732971191,40.8849983215332 -12.279999732971191,40.8849983215332 C-12.279999732971191,40.8849983215332 -20.790000915527344,-40.88600158691406 -20.790000915527344,-40.88600158691406z">
                    </path>
                </g>
            </g>
        </g>
        <g transform="matrix(1,0,0,1,0,0)" opacity="1" style="display: block;">
            <g opacity="1" transform="matrix(1,0,0,1,0,0)">
                <g opacity="1" transform="matrix(1,0,0,1,86.44999694824219,259.0799865722656)">
                    <path fill="rgb(149,98,123)" fill-opacity="1"
                        d=" M-4.539999961853027,-26.770000457763672 C-4.539999961853027,-26.770000457763672 21.1299991607666,7.769999980926514 21.1299991607666,7.769999980926514 C21.1299991607666,7.769999980926514 5.25,26.770000457763672 5.25,26.770000457763672 C5.25,26.770000457763672 -21.1299991607666,3.990999937057495 -21.1299991607666,3.990999937057495 C-21.1299991607666,3.990999937057495 -4.539999961853027,-26.770000457763672 -4.539999961853027,-26.770000457763672z">
                    </path>
                </g>
                <g opacity="1" transform="matrix(1,0,0,1,99.63999938964844,283.0950012207031)">
                    <path fill="rgb(223,188,164)" fill-opacity="1"
                        d=" M1.6399999856948853,16.2450008392334 C1.6399999856948853,16.2450008392334 -7.940000057220459,2.755000114440918 -7.940000057220459,2.755000114440918 C-7.940000057220459,2.755000114440918 7.940000057220459,-16.2450008392334 7.940000057220459,-16.2450008392334 C7.940000057220459,-16.2450008392334 1.6399999856948853,16.2450008392334 1.6399999856948853,16.2450008392334z">
                    </path>
                </g>
                <g opacity="1" transform="matrix(1,0,0,1,68.47000122070312,218.43499755859375)">
                    <path fill="rgb(179,135,157)" fill-opacity="1"
                        d=" M2.7799999713897705,-44.6349983215332 C2.7799999713897705,-44.6349983215332 -20.18000030517578,30.04599952697754 -20.18000030517578,30.04599952697754 C-20.18000030517578,30.04599952697754 -3.1500000953674316,44.6349983215332 -3.1500000953674316,44.6349983215332 C-3.1500000953674316,44.6349983215332 20.18000030517578,9.704999923706055 20.18000030517578,9.704999923706055 C20.18000030517578,9.704999923706055 2.7799999713897705,-44.6349983215332 2.7799999713897705,-44.6349983215332z">
                    </path>
                </g>
            </g>
        </g>

        <g transform="matrix(1,0,0,1,0,0)" opacity="1" style="display: block;">
            <g opacity="1" transform="matrix(1,0,0,1,0,0)">
                <g opacity="1" transform="matrix(1,0,0,1,173.58999633789062,65.86000061035156)">
                    <path fill="rgb(43,43,43)" fill-opacity="1"
                        d=" M4.230000019073486,0 C4.230000019073486,2.3359999656677246 2.3359999656677246,4.230000019073486 0,4.230000019073486 C-2.3359999656677246,4.230000019073486 -4.230000019073486,2.3359999656677246 -4.230000019073486,0 C-4.230000019073486,-2.3359999656677246 -2.3359999656677246,-4.230000019073486 0,-4.230000019073486 C2.3340001106262207,-4.223999977111816 4.224999904632568,-2.3340001106262207 4.230000019073486,0z">
                    </path>
                </g>
                <g opacity="1" transform="matrix(1,0,0,1,139.82000732421875,73.52999877929688)">
                    <path fill="rgb(43,43,43)" fill-opacity="1"
                        d=" M4.230000019073486,0 C4.230000019073486,2.3359999656677246 2.3359999656677246,4.230000019073486 0,4.230000019073486 C-2.3359999656677246,4.230000019073486 -4.230000019073486,2.3359999656677246 -4.230000019073486,0 C-4.230000019073486,-2.3359999656677246 -2.3359999656677246,-4.230000019073486 0,-4.230000019073486 C2.3359999656677246,-4.230000019073486 4.230000019073486,-2.3359999656677246 4.230000019073486,0z">
                    </path>
                </g>
            </g>
        </g>

    </g>
</svg>