<svg xmlns="http://www.w3.org/2000/svg" viewBox="0 0 400 400" width="100%" height="100%"
    preserveAspectRatio="xMidYMid meet">
    <defs>
        <clipPath id="__lottie_element_423">
            <rect width="400" height="400" x="0" y="0"></rect>
        </clipPath>
    </defs>
    <g clip-path="url(#__lottie_element_423)">
        <g transform="matrix(1,0,0,1,79.47000122070312,-0.248992919921875)" opacity="0.1" style="display: block;">
            <g opacity="1" transform="matrix(1,0,0,1,117.53099822998047,389.9939880371094)">
                <path fill="rgb(0,0,0)" fill-opacity="1"
                    d=" M-107.40299987792969,3.25 C-107.40299987792969,3.25 10.682999610900879,-10.255000114440918 10.682999610900879,-10.255000114440918 C10.682999610900879,-10.255000114440918 107.40399932861328,1.0010000467300415 107.40399932861328,1.0010000467300415 C107.40399932861328,1.0010000467300415 8.359999656677246,10.255000114440918 8.359999656677246,10.255000114440918 C8.359999656677246,10.255000114440918 -107.40299987792969,3.25 -107.40299987792969,3.25z">
                </path>
            </g>
        </g>
        <g transform="matrix(1,0,0,1,79.4699935913086,-0.248992919921875)" opacity="1" style="display: block;">
            <g opacity="1" transform="matrix(1,0,0,1,123.55000305175781,305.2430114746094)">
                <path fill="rgb(133,99,0)" fill-opacity="1"
                    d=" M-16.79199981689453,23.218000411987305 C-16.79199981689453,23.218000411987305 10.04800033569336,12.406000137329102 10.04800033569336,12.406000137329102 C10.04800033569336,12.406000137329102 26.694000244140625,-23.218000411987305 26.694000244140625,-23.218000411987305 C26.694000244140625,-23.218000411987305 -26.694000244140625,-9.73799991607666 -26.694000244140625,-9.73799991607666 C-26.694000244140625,-9.73799991607666 -16.79199981689453,23.218000411987305 -16.79199981689453,23.218000411987305z">
                </path>
            </g>
        </g>
        <g transform="matrix(1,0,0,1,79.4699935913086,-0.248992919921875)" opacity="1" style="display: block;">
            <g opacity="1" transform="matrix(1,0,0,1,165.40199279785156,189.156005859375)">
                <path fill="rgb(223,188,164)" fill-opacity="1"
                    d=" M-22.52899932861328,-28.16200065612793 C-22.52899932861328,-28.16200065612793 22.52899932861328,19.19099998474121 22.52899932861328,19.19099998474121 C22.52899932861328,19.19099998474121 18.21299934387207,28.160999298095703 18.21299934387207,28.160999298095703 C18.21299934387207,28.160999298095703 -7.609000205993652,18.242000579833984 -7.609000205993652,18.242000579833984 C-7.609000205993652,18.242000579833984 -21.857999801635742,6.072000026702881 -21.857999801635742,6.072000026702881 C-21.857999801635742,6.072000026702881 -20.264999389648438,-14.6899995803833 -20.264999389648438,-14.6899995803833 C-20.264999389648438,-14.6899995803833 -22.52899932861328,-28.16200065612793 -22.52899932861328,-28.16200065612793z">
                </path>
            </g>
        </g>
        <g transform="matrix(1,0,0,1,79.4699935913086,-0.248992919921875)" opacity="1" style="display: block;">
            <g opacity="1" transform="matrix(1,0,0,1,185.47000122070312,210.0709991455078)">
                <path fill="rgb(195,151,122)" fill-opacity="1"
                    d=" M-27.677000045776367,-2.671999931335449 C-27.677000045776367,-2.671999931335449 22.68600082397461,-14.842000007629395 22.68600082397461,-14.842000007629395 C22.68600082397461,-14.842000007629395 26.757999420166016,-11.116000175476074 26.757999420166016,-11.116000175476074 C26.757999420166016,-11.116000175476074 27.677000045776367,-0.3610000014305115 27.677000045776367,-0.3610000014305115 C27.677000045776367,-0.3610000014305115 -3.938999891281128,14.840999603271484 -3.938999891281128,14.840999603271484 C-3.938999891281128,14.840999603271484 -27.677000045776367,-2.671999931335449 -27.677000045776367,-2.671999931335449z">
                </path>
            </g>
        </g>
        <g transform="matrix(1,0,0,1,79.4699935913086,-0.248992919921875)" opacity="1" style="display: block;">
            <g opacity="1" transform="matrix(1,0,0,1,0,0)">
                <g opacity="1" transform="matrix(1,0,0,1,220.93099975585938,197.72500610351562)">
                    <path fill="rgb(138,102,81)" fill-opacity="1"
                        d=" M-7.810999870300293,-0.5460000038146973 C-7.810999870300293,-0.5460000038146973 4.757999897003174,-11.984000205993652 4.757999897003174,-11.984000205993652 C4.757999897003174,-11.984000205993652 10.00100040435791,-3.124000072479248 10.00100040435791,-3.124000072479248 C10.00100040435791,-3.124000072479248 5.895999908447266,10.723999977111816 5.895999908447266,10.723999977111816 C5.895999908447266,10.723999977111816 -7.785999774932861,11.982999801635742 -7.785999774932861,11.982999801635742 C-7.785999774932861,11.982999801635742 -10.00100040435791,5.553999900817871 -10.00100040435791,5.553999900817871 C-10.00100040435791,5.553999900817871 -7.810999870300293,-0.5460000038146973 -7.810999870300293,-0.5460000038146973z">
                    </path>
                </g>
                <g opacity="1" transform="matrix(1,0,0,1,227.05299377441406,198.01300048828125)">
                    <path fill="rgb(158,119,0)" fill-opacity="1"
                        d=" M13.255000114440918,22.43000030517578 C13.255000114440918,22.43000030517578 5.715000152587891,25.417999267578125 5.715000152587891,25.417999267578125 C5.715000152587891,25.417999267578125 -2.4619998931884766,4.796999931335449 -2.4619998931884766,4.796999931335449 C-2.4619998931884766,4.796999931335449 -4,-0.14800000190734863 -4,-0.14800000190734863 C-4,-0.14800000190734863 -8.918999671936035,-11.491999626159668 -8.918999671936035,-11.491999626159668 C-8.918999671936035,-11.491999626159668 -13.255000114440918,-22.426000595092773 -13.255000114440918,-22.426000595092773 C-13.255000114440918,-22.426000595092773 -5.7170000076293945,-25.41699981689453 -5.7170000076293945,-25.41699981689453 C-5.7170000076293945,-25.41699981689453 -1.465999960899353,-14.694999694824219 -1.465999960899353,-14.694999694824219 C-1.465999960899353,-14.694999694824219 3.5940001010894775,-0.3889999985694885 3.5940001010894775,-0.3889999985694885 C3.5940001010894775,-0.3889999985694885 6.377999782562256,5.085999965667725 6.377999782562256,5.085999965667725 C6.377999782562256,5.085999965667725 13.255000114440918,22.43000030517578 13.255000114440918,22.43000030517578z">
                    </path>
                </g>
                <g opacity="1" transform="matrix(1,0,0,1,224.77200317382812,190.76499938964844)">
                    <path fill="rgb(117,87,0)" fill-opacity="1"
                        d=" M10.972999572753906,18.16900062561035 C10.972999572753906,18.16900062561035 2.055999994277954,17.684999465942383 2.055999994277954,17.684999465942383 C2.055999994277954,17.684999465942383 -10.972999572753906,-15.180000305175781 -10.972999572753906,-15.180000305175781 C-10.972999572753906,-15.180000305175781 -3.434999942779541,-18.16900062561035 -3.434999942779541,-18.16900062561035 C-3.434999942779541,-18.16900062561035 10.972999572753906,18.16900062561035 10.972999572753906,18.16900062561035z">
                    </path>
                </g>
                <g opacity="1" transform="matrix(1,0,0,1,233.36099243164062,193.45399475097656)">
                    <path fill="rgb(195,151,122)" fill-opacity="1"
                        d=" M-8.302000045776367,-11.472000122070312 C-8.302000045776367,-11.472000122070312 0.5260000228881836,-13.043999671936035 0.5260000228881836,-13.043999671936035 C0.5260000228881836,-13.043999671936035 8.302000045776367,5.985000133514404 8.302000045776367,5.985000133514404 C8.302000045776367,5.985000133514404 -3.0179998874664307,13.043999671936035 -3.0179998874664307,13.043999671936035 C-3.0179998874664307,13.043999671936035 -8.128000259399414,2.7950000762939453 -8.128000259399414,2.7950000762939453 C-8.128000259399414,2.7950000762939453 -8.302000045776367,-11.472000122070312 -8.302000045776367,-11.472000122070312z">
                    </path>
                </g>
                <g opacity="1" transform="matrix(1,0,0,1,219.48199462890625,192.63099670410156)">
                    <path fill="rgb(223,188,164)" fill-opacity="1"
                        d=" M-11.326000213623047,2.5980000495910645 C-11.326000213623047,2.5980000495910645 -8.552000045776367,10.64799976348877 -8.552000045776367,10.64799976348877 C-8.552000045776367,10.64799976348877 -1.0130000114440918,6.408999919891357 -1.0130000114440918,6.408999919891357 C-1.0130000114440918,6.408999919891357 0.8700000047683716,0.07900000363588333 0.8700000047683716,0.07900000363588333 C0.8700000047683716,0.07900000363588333 6.800000190734863,5.7210001945495605 6.800000190734863,5.7210001945495605 C6.800000190734863,5.7210001945495605 11.326000213623047,4.243000030517578 11.326000213623047,4.243000030517578 C11.326000213623047,4.243000030517578 5.576000213623047,-10.64799976348877 5.576000213623047,-10.64799976348877 C5.576000213623047,-10.64799976348877 -1.8289999961853027,-7.326000213623047 -1.8289999961853027,-7.326000213623047 C-1.8289999961853027,-7.326000213623047 -11.326000213623047,2.5980000495910645 -11.326000213623047,2.5980000495910645z">
                    </path>
                </g>
                <g opacity="1" transform="matrix(1,0,0,1,214.0540008544922,169.76300048828125)">
                    <path fill="rgb(204,172,19)" fill-opacity="1"
                        d=" M15.164999961853027,2.934999942779541 C15.164999961853027,2.934999942779541 3.8499999046325684,5.271999835968018 3.8499999046325684,5.271999835968018 C3.8499999046325684,5.271999835968018 -5.926000118255615,11.29699993133545 -5.926000118255615,11.29699993133545 C-5.926000118255615,11.29699993133545 -17.051000595092773,2.2249999046325684 -17.051000595092773,2.2249999046325684 C-17.051000595092773,2.2249999046325684 -1.468999981880188,-6.105000019073486 -1.468999981880188,-6.105000019073486 C-1.468999981880188,-6.105000019073486 17.051000595092773,-11.29699993133545 17.051000595092773,-11.29699993133545 C17.051000595092773,-11.29699993133545 15.164999961853027,2.934999942779541 15.164999961853027,2.934999942779541z">
                    </path>
                </g>
                <g opacity="1" transform="matrix(1,0,0,1,212.88699340820312,162.28500366210938)">
                    <path fill="rgb(158,119,0)" fill-opacity="1"
                        d=" M18.218000411987305,-3.819000005722046 C18.218000411987305,-3.819000005722046 -15.885000228881836,9.70300006866455 -15.885000228881836,9.70300006866455 C-15.885000228881836,9.70300006866455 -18.218000411987305,3.819999933242798 -18.218000411987305,3.819999933242798 C-18.218000411987305,3.819999933242798 -1.7050000429153442,-4.877999782562256 -1.7050000429153442,-4.877999782562256 C-1.7050000429153442,-4.877999782562256 15.88599967956543,-9.70300006866455 15.88599967956543,-9.70300006866455 C15.88599967956543,-9.70300006866455 18.218000411987305,-3.819000005722046 18.218000411987305,-3.819000005722046z">
                    </path>
                </g>
                <g opacity="1" transform="matrix(1,0,0,1,210.55499267578125,156.4010009765625)">
                    <path fill="rgb(228,199,40)" fill-opacity="1"
                        d=" M18.2189998626709,-3.819000005722046 C18.2189998626709,-3.819000005722046 -15.885000228881836,9.70300006866455 -15.885000228881836,9.70300006866455 C-15.885000228881836,9.70300006866455 -18.2189998626709,3.819000005722046 -18.2189998626709,3.819000005722046 C-18.2189998626709,3.819000005722046 -2.1730000972747803,-4.695000171661377 -2.1730000972747803,-4.695000171661377 C-2.1730000972747803,-4.695000171661377 15.885000228881836,-9.70300006866455 15.885000228881836,-9.70300006866455 C15.885000228881836,-9.70300006866455 18.2189998626709,-3.819000005722046 18.2189998626709,-3.819000005722046z">
                    </path>
                </g>
                <g opacity="1" transform="matrix(1,0,0,1,208.2209930419922,150.51600646972656)">
                    <path fill="rgb(158,119,0)" fill-opacity="1"
                        d=" M18.2189998626709,-3.819000005722046 C18.2189998626709,-3.819000005722046 -15.885000228881836,9.70300006866455 -15.885000228881836,9.70300006866455 C-15.885000228881836,9.70300006866455 -18.2189998626709,3.819000005722046 -18.2189998626709,3.819000005722046 C-18.2189998626709,3.819000005722046 -1.7070000171661377,-4.879000186920166 -1.7070000171661377,-4.879000186920166 C-1.7070000171661377,-4.879000186920166 15.88700008392334,-9.70300006866455 15.88700008392334,-9.70300006866455 C15.88700008392334,-9.70300006866455 18.2189998626709,-3.819000005722046 18.2189998626709,-3.819000005722046z">
                    </path>
                </g>
                <g opacity="1" transform="matrix(1,0,0,1,207.05499267578125,143.03799438476562)">
                    <path fill="rgb(204,172,19)" fill-opacity="1"
                        d=" M5.925000190734863,-11.295999526977539 C5.925000190734863,-11.295999526977539 -4.14900016784668,-5.150000095367432 -4.14900016784668,-5.150000095367432 C-4.14900016784668,-5.150000095367432 -15.164999961853027,-2.934000015258789 -15.164999961853027,-2.934000015258789 C-15.164999961853027,-2.934000015258789 -17.05299949645996,11.29699993133545 -17.05299949645996,11.29699993133545 C-17.05299949645996,11.29699993133545 17.05299949645996,-2.2249999046325684 17.05299949645996,-2.2249999046325684 C17.05299949645996,-2.2249999046325684 5.925000190734863,-11.295999526977539 5.925000190734863,-11.295999526977539z">
                    </path>
                </g>
                <g opacity="1" transform="matrix(1,0,0,1,218.6739959716797,173.1439971923828)">
                    <path fill="rgb(158,119,0)" fill-opacity="1"
                        d=" M-10.545000076293945,7.915999889373779 C-10.545000076293945,7.915999889373779 -4.619999885559082,-7.916999816894531 -4.619999885559082,-7.916999816894531 C-4.619999885559082,-7.916999816894531 10.545000076293945,-0.44600000977516174 10.545000076293945,-0.44600000977516174 C10.545000076293945,-0.44600000977516174 -10.545000076293945,7.915999889373779 -10.545000076293945,7.915999889373779z">
                    </path>
                </g>
                <g opacity="1" transform="matrix(1,0,0,1,202.43499755859375,139.6580047607422)">
                    <path fill="rgb(158,119,0)" fill-opacity="1"
                        d=" M-10.543999671936035,0.44600000977516174 C-10.543999671936035,0.44600000977516174 4.61899995803833,7.915999889373779 4.61899995803833,7.915999889373779 C4.61899995803833,7.915999889373779 10.543999671936035,-7.915999889373779 10.543999671936035,-7.915999889373779 C10.543999671936035,-7.915999889373779 -10.543999671936035,0.44600000977516174 -10.543999671936035,0.44600000977516174z">
                    </path>
                </g>
            </g>
        </g>
        <g transform="matrix(1,0,0,1,79.47000122070312,-0.248992919921875)" opacity="1" style="display: block;">
            <g opacity="1" transform="matrix(1,0,0,1,0,0)">
                <g opacity="1" transform="matrix(1,0,0,1,90.33200073242188,387.77301025390625)">
                    <path fill="rgb(117,87,0)" fill-opacity="1"
                        d=" M17.856000900268555,5.4720001220703125 C17.856000900268555,5.4720001220703125 -16.386999130249023,4.751999855041504 -16.386999130249023,4.751999855041504 C-16.386999130249023,4.751999855041504 -17.856000900268555,-5.4720001220703125 -17.856000900268555,-5.4720001220703125 C-17.856000900268555,-5.4720001220703125 -1.590999960899353,-5.4720001220703125 -1.590999960899353,-5.4720001220703125 C-1.590999960899353,-5.4720001220703125 17.856000900268555,5.4720001220703125 17.856000900268555,5.4720001220703125z">
                    </path>
                </g>
                <g opacity="1" transform="matrix(1,0,0,1,91.72799682617188,372.84100341796875)">
                    <path fill="rgb(223,188,164)" fill-opacity="1"
                        d=" M-2.7209999561309814,-17.850000381469727 C-2.7209999561309814,-17.850000381469727 -4.355999946594238,-3.9570000171661377 -4.355999946594238,-3.9570000171661377 C-4.355999946594238,-3.9570000171661377 17.764999389648438,16.124000549316406 17.764999389648438,16.124000549316406 C17.764999389648438,16.124000549316406 12.687000274658203,17.850000381469727 12.687000274658203,17.850000381469727 C12.687000274658203,17.850000381469727 -7.751999855041504,12.960000038146973 -7.751999855041504,12.960000038146973 C-7.751999855041504,12.960000038146973 -15.987000465393066,7.0980000495910645 -15.987000465393066,7.0980000495910645 C-15.987000465393066,7.0980000495910645 -17.764999389648438,-1.8420000076293945 -17.764999389648438,-1.8420000076293945 C-17.764999389648438,-1.8420000076293945 -2.7209999561309814,-17.850000381469727 -2.7209999561309814,-17.850000381469727z">
                    </path>
                </g>
                <g opacity="1" transform="matrix(1,0,0,1,93.25599670410156,382.12200927734375)">
                    <path fill="rgb(195,151,122)" fill-opacity="1"
                        d=" M-19.29199981689453,-11.123000144958496 C-19.29199981689453,-11.123000144958496 -9.279999732971191,3.678999900817871 -9.279999732971191,3.678999900817871 C-9.279999732971191,3.678999900817871 20.780000686645508,5.857999801635742 20.780000686645508,5.857999801635742 C20.780000686645508,5.857999801635742 14.932999610900879,11.123000144958496 14.932999610900879,11.123000144958496 C14.932999610900879,11.123000144958496 -20.780000686645508,0.17900000512599945 -20.780000686645508,0.17900000512599945 C-20.780000686645508,0.17900000512599945 -19.29199981689453,-11.123000144958496 -19.29199981689453,-11.123000144958496z">
                    </path>
                </g>
                <g opacity="1" transform="matrix(1,0,0,1,97.88800048828125,384.6929931640625)">
                    <path fill="rgb(158,119,0)" fill-opacity="1"
                        d=" M0.9679999947547913,-5.385000228881836 C0.9679999947547913,-5.385000228881836 -4.631999969482422,3.9749999046325684 -4.631999969482422,3.9749999046325684 C-4.631999969482422,3.9749999046325684 -0.03500000014901161,5.385000228881836 -0.03500000014901161,5.385000228881836 C-0.03500000014901161,5.385000228881836 4.631999969482422,-2.059000015258789 4.631999969482422,-2.059000015258789 C4.631999969482422,-2.059000015258789 0.9679999947547913,-5.385000228881836 0.9679999947547913,-5.385000228881836z">
                    </path>
                </g>
            </g>
            <g opacity="1" transform="matrix(1,0,0,1,0,0)">
                <g opacity="1" transform="matrix(1,0,0,1,85.90799713134766,350.96099853515625)">
                    <path fill="rgb(195,151,122)" fill-opacity="1"
                        d=" M11.944999694824219,-3.930999994277954 C11.944999694824219,-3.930999994277954 1.465000033378601,17.92300033569336 1.465000033378601,17.92300033569336 C1.465000033378601,17.92300033569336 -11.944999694824219,20.038999557495117 -11.944999694824219,20.038999557495117 C-11.944999694824219,20.038999557495117 -7.870999813079834,-10.930999755859375 -7.870999813079834,-10.930999755859375 C-7.870999813079834,-10.930999755859375 -2.6670000553131104,-20.038000106811523 -2.6670000553131104,-20.038000106811523 C-2.6670000553131104,-20.038000106811523 11.944999694824219,-3.930999994277954 11.944999694824219,-3.930999994277954z">
                    </path>
                </g>
                <g opacity="1" transform="matrix(1,0,0,1,92.50800323486328,335.2130126953125)">
                    <path fill="rgb(138,102,81)" fill-opacity="1"
                        d=" M-14.25,4.7270002365112305 C-14.25,4.7270002365112305 5.34499979019165,11.815999984741211 5.34499979019165,11.815999984741211 C5.34499979019165,11.815999984741211 14.25,-6.751999855041504 14.25,-6.751999855041504 C14.25,-6.751999855041504 -2.8380000591278076,-11.817000389099121 -2.8380000591278076,-11.817000389099121 C-2.8380000591278076,-11.817000389099121 -14.25,4.7270002365112305 -14.25,4.7270002365112305z">
                    </path>
                </g>
            </g>
        </g>
        <g transform="matrix(1,0,0,1,79.4699935913086,-0.248992919921875)" opacity="1" style="display: block;">
            <g opacity="1" transform="matrix(1,0,0,1,73.26000213623047,193.6699981689453)">
                <path fill="rgb(223,188,164)" fill-opacity="1"
                    d=" M12.659000396728516,-23.0939998626709 C12.659000396728516,-23.0939998626709 -15.748000144958496,16.573999404907227 -15.748000144958496,16.573999404907227 C-15.748000144958496,16.573999404907227 -5.767000198364258,23.0939998626709 -5.767000198364258,23.0939998626709 C-5.767000198364258,23.0939998626709 13.597000122070312,16.573999404907227 13.597000122070312,16.573999404907227 C13.597000122070312,16.573999404907227 15.748000144958496,-12.326000213623047 15.748000144958496,-12.326000213623047 C15.748000144958496,-12.326000213623047 12.659000396728516,-23.0939998626709 12.659000396728516,-23.0939998626709z">
                </path>
            </g>
        </g>
        <g transform="matrix(1,0,0,1,79.4699935913086,-0.248992919921875)" opacity="1" style="display: block;">
            <g opacity="1" transform="matrix(1,0,0,1,57.512001037597656,210.1739959716797)">
                <path fill="rgb(195,151,122)" fill-opacity="1"
                    d=" M29.344999313354492,0.0689999982714653 C29.344999313354492,0.0689999982714653 -23.576000213623047,-15.652999877929688 -23.576000213623047,-15.652999877929688 C-23.576000213623047,-15.652999877929688 -27.843000411987305,-12.154000282287598 -27.843000411987305,-12.154000282287598 C-27.843000411987305,-12.154000282287598 -29.344999313354492,-1.465000033378601 -29.344999313354492,-1.465000033378601 C-29.344999313354492,-1.465000033378601 5.39300012588501,15.652000427246094 5.39300012588501,15.652000427246094 C5.39300012588501,15.652000427246094 29.344999313354492,0.0689999982714653 29.344999313354492,0.0689999982714653z">
                </path>
            </g>
        </g>
        <g transform="matrix(1,0,0,1,79.47000122070312,-0.248992919921875)" opacity="1" style="display: block;">
            <g opacity="1" transform="matrix(1,0,0,1,0,0)">
                <g opacity="1" transform="matrix(1,0,0,1,141.02000427246094,354.9549865722656)">
                    <path fill="rgb(117,87,0)" fill-opacity="1"
                        d=" M15.300999641418457,13.458000183105469 C15.300999641418457,13.458000183105469 -15.300999641418457,-3.9749999046325684 -15.300999641418457,-3.9749999046325684 C-15.300999641418457,-3.9749999046325684 -10.913000106811523,-13.458000183105469 -10.913000106811523,-13.458000183105469 C-10.913000106811523,-13.458000183105469 4.301000118255615,-0.23600000143051147 4.301000118255615,-0.23600000143051147 C4.301000118255615,-0.23600000143051147 15.300999641418457,13.458000183105469 15.300999641418457,13.458000183105469z">
                    </path>
                </g>
                <g opacity="1" transform="matrix(1,0,0,1,146.8459930419922,344.1940002441406)">
                    <path fill="rgb(223,188,164)" fill-opacity="1"
                        d=" M3.052000045776367,-10.977999687194824 C3.052000045776367,-10.977999687194824 12.359000205993652,20.797000885009766 12.359000205993652,20.797000885009766 C12.359000205993652,20.797000885009766 8.142999649047852,19.788999557495117 8.142999649047852,19.788999557495117 C8.142999649047852,19.788999557495117 3.2960000038146973,17.288000106811523 3.2960000038146973,17.288000106811523 C3.2960000038146973,17.288000106811523 -10.008999824523926,4.211999893188477 -10.008999824523926,4.211999893188477 C-10.008999824523926,4.211999893188477 -12.359000205993652,-3.697999954223633 -12.359000205993652,-3.697999954223633 C-12.359000205993652,-3.697999954223633 -9.104000091552734,-10.206000328063965 -9.104000091552734,-10.206000328063965 C-9.104000091552734,-10.206000328063965 -3.302000045776367,-20.797000885009766 -3.302000045776367,-20.797000885009766 C-3.302000045776367,-20.797000885009766 3.052000045776367,-10.977999687194824 3.052000045776367,-10.977999687194824z">
                    </path>
                </g>
                <g opacity="1" transform="matrix(1,0,0,1,146.93800354003906,351.20098876953125)">
                    <path fill="rgb(195,151,122)" fill-opacity="1"
                        d=" M-9.196000099182129,-17.211999893188477 C-9.196000099182129,-17.211999893188477 -10.100000381469727,-2.7929999828338623 -10.100000381469727,-2.7929999828338623 C-10.100000381469727,-2.7929999828338623 16.83099937438965,14.67300033569336 16.83099937438965,14.67300033569336 C16.83099937438965,14.67300033569336 9.383000373840332,17.211999893188477 9.383000373840332,17.211999893188477 C9.383000373840332,17.211999893188477 -16.829999923706055,-9.70300006866455 -16.829999923706055,-9.70300006866455 C-16.829999923706055,-9.70300006866455 -9.196000099182129,-17.211999893188477 -9.196000099182129,-17.211999893188477z">
                    </path>
                </g>
                <g opacity="1" transform="matrix(1,0,0,1,150.64100646972656,354.9909973144531)">
                    <path fill="rgb(158,119,0)" fill-opacity="1"
                        d=" M4.211999893188477,-4.854000091552734 C4.211999893188477,-4.854000091552734 -5.624000072479248,1.8140000104904175 -5.624000072479248,1.8140000104904175 C-5.624000072479248,1.8140000104904175 -2.6640000343322754,4.854000091552734 -2.6640000343322754,4.854000091552734 C-2.6640000343322754,4.854000091552734 5.624000072479248,-0.035999998450279236 5.624000072479248,-0.035999998450279236 C5.624000072479248,-0.035999998450279236 4.211999893188477,-4.854000091552734 4.211999893188477,-4.854000091552734z">
                    </path>
                </g>
            </g>
            <g opacity="1" transform="matrix(1,0,0,1,144.99600219726562,307.4700012207031)">
                <path fill="rgb(195,151,122)" fill-opacity="1"
                    d=" M11.39799976348877,-24.395000457763672 C11.39799976348877,-24.395000457763672 4.9019999504089355,25.746000289916992 4.9019999504089355,25.746000289916992 C4.9019999504089355,25.746000289916992 -7.254000186920166,26.51799964904785 -7.254000186920166,26.51799964904785 C-7.254000186920166,26.51799964904785 -11.39799976348877,10.178000450134277 -11.39799976348877,10.178000450134277 C-11.39799976348877,10.178000450134277 -0.45500001311302185,-26.517000198364258 -0.45500001311302185,-26.517000198364258 C-0.45500001311302185,-26.517000198364258 11.39799976348877,-24.395000457763672 11.39799976348877,-24.395000457763672z">
                </path>
            </g>
            <g opacity="1" transform="matrix(1,0,0,1,143.54299926757812,296.9259948730469)">
                <path fill="rgb(138,102,81)" fill-opacity="1"
                    d=" M-12.85099983215332,9.267999649047852 C-12.85099983215332,9.267999649047852 -9.944999694824219,20.724000930786133 -9.944999694824219,20.724000930786133 C-9.944999694824219,20.724000930786133 12.85099983215332,-13.848999977111816 12.85099983215332,-13.848999977111816 C12.85099983215332,-13.848999977111816 -5.164999961853027,-20.724000930786133 -5.164999961853027,-20.724000930786133 C-5.164999961853027,-20.724000930786133 -12.85099983215332,9.267999649047852 -12.85099983215332,9.267999649047852z">
                </path>
            </g>
        </g>
        <g transform="matrix(1,0,0,1,79.4699935913086,-0.248992919921875)" opacity="1" style="display: block;">
            <g opacity="1" transform="matrix(1,0,0,1,114.31099700927734,175.4290008544922)">
                <path fill="rgb(223,188,164)" fill-opacity="1"
                    d=" M-28.562000274658203,-5.392000198364258 C-28.562000274658203,-5.392000198364258 28.562000274658203,-14.434000015258789 28.562000274658203,-14.434000015258789 C28.562000274658203,-14.434000015258789 10.71399974822998,14.434000015258789 10.71399974822998,14.434000015258789 C10.71399974822998,14.434000015258789 -28.562000274658203,-5.392000198364258 -28.562000274658203,-5.392000198364258z">
                </path>
            </g>
            <g opacity="1" transform="matrix(1,0,0,1,105.2699966430664,190.13999938964844)">
                <path fill="rgb(158,119,0)" fill-opacity="1"
                    d=" M-19.520999908447266,-20.104000091552734 C-19.520999908447266,-20.104000091552734 -18.413999557495117,20.104000091552734 -18.413999557495117,20.104000091552734 C-18.413999557495117,20.104000091552734 9.003000259399414,6.811999797821045 9.003000259399414,6.811999797821045 C9.003000259399414,6.811999797821045 19.520999908447266,-4.486000061035156 19.520999908447266,-4.486000061035156 C19.520999908447266,-4.486000061035156 -19.520999908447266,-20.104000091552734 -19.520999908447266,-20.104000091552734z">
                </path>
            </g>
            <g opacity="1" transform="matrix(1,0,0,1,141.29200744628906,184.19700622558594)">
                <path fill="rgb(158,119,0)" fill-opacity="1"
                    d=" M-16.500999450683594,1.4570000171661377 C-16.500999450683594,1.4570000171661377 1.5809999704360962,-23.20199966430664 1.5809999704360962,-23.20199966430664 C1.5809999704360962,-23.20199966430664 16.500999450683594,23.20199966430664 16.500999450683594,23.20199966430664 C16.500999450683594,23.20199966430664 -7.495999813079834,16.066999435424805 -7.495999813079834,16.066999435424805 C-7.495999813079834,16.066999435424805 -16.500999450683594,1.4570000171661377 -16.500999450683594,1.4570000171661377z">
                </path>
            </g>
            <g opacity="1" transform="matrix(1,0,0,1,122.32499694824219,228.81399536132812)">
                <path fill="rgb(117,87,0)" fill-opacity="1"
                    d=" M-35.46799850463867,-18.56999969482422 C-35.46799850463867,-18.56999969482422 -34.645999908447266,7.2820000648498535 -34.645999908447266,7.2820000648498535 C-34.645999908447266,7.2820000648498535 2.572999954223633,43.15999984741211 2.572999954223633,43.15999984741211 C2.572999954223633,43.15999984741211 35.46799850463867,-21.415000915527344 35.46799850463867,-21.415000915527344 C35.46799850463867,-21.415000915527344 2.4660000801086426,-43.15999984741211 2.4660000801086426,-43.15999984741211 C2.4660000801086426,-43.15999984741211 -35.46799850463867,-18.56999969482422 -35.46799850463867,-18.56999969482422z">
                </path>
            </g>
        </g>
        <g transform="matrix(1,0,0,1,79.4699935913086,-0.248992919921875)" opacity="1" style="display: block;">
            <g opacity="1" transform="matrix(1,0,0,1,110.1500015258789,289.14801025390625)">
                <path fill="rgb(228,199,40)" fill-opacity="1"
                    d=" M-19.816999435424805,-39.9109992980957 C-19.816999435424805,-39.9109992980957 46.244998931884766,-6.070000171661377 46.244998931884766,-6.070000171661377 C46.244998931884766,-6.070000171661377 -4.879000186920166,39.9109992980957 -4.879000186920166,39.9109992980957 C-4.879000186920166,39.9109992980957 -16.878000259399414,37.895999908447266 -16.878000259399414,37.895999908447266 C-16.878000259399414,37.895999908447266 -46.244998931884766,-24.562999725341797 -46.244998931884766,-24.562999725341797 C-46.244998931884766,-24.562999725341797 -19.816999435424805,-39.9109992980957 -19.816999435424805,-39.9109992980957z">
                </path>
            </g>
            <g opacity="1" transform="matrix(1,0,0,1,85.33200073242188,302.3059997558594)">
                <path fill="rgb(204,172,19)" fill-opacity="1"
                    d=" M-21.427000045776367,-37.722999572753906 C-21.427000045776367,-37.722999572753906 21.427000045776367,26.155000686645508 21.427000045776367,26.155000686645508 C21.427000045776367,26.155000686645508 -7.295000076293945,37.722999572753906 -7.295000076293945,37.722999572753906 C-7.295000076293945,37.722999572753906 -21.427000045776367,-37.722999572753906 -21.427000045776367,-37.722999572753906z">
                </path>
            </g>
            <g opacity="1" transform="matrix(1,0,0,1,110.1500015258789,259.58599853515625)">
                <path fill="rgb(244,214,93)" fill-opacity="1"
                    d=" M46.244998931884766,23.490999221801758 C46.244998931884766,23.490999221801758 -46.244998931884766,4.998000144958496 -46.244998931884766,4.998000144958496 C-46.244998931884766,4.998000144958496 -22.47100067138672,-23.489999771118164 -22.47100067138672,-23.489999771118164 C-22.47100067138672,-23.489999771118164 46.244998931884766,23.490999221801758 46.244998931884766,23.490999221801758z">
                </path>
            </g>
        </g>
        <g transform="matrix(1,0,0,1,79.4699935913086,-0.248992919921875)" opacity="1" style="display: block;">
            <g opacity="1" transform="matrix(1,0,0,1,0,0)">
                <g opacity="1" transform="matrix(1,0,0,1,20.979000091552734,196.4029998779297)">
                    <path fill="rgb(138,102,81)" fill-opacity="1"
                        d=" M7.895999908447266,-0.2029999941587448 C7.895999908447266,-0.2029999941587448 -4.033999919891357,-12.307000160217285 -4.033999919891357,-12.307000160217285 C-4.033999919891357,-12.307000160217285 -9.75,-3.746000051498413 -9.75,-3.746000051498413 C-9.75,-3.746000051498413 -6.406000137329102,10.305000305175781 -6.406000137329102,10.305000305175781 C-6.406000137329102,10.305000305175781 7.188000202178955,12.307000160217285 7.188000202178955,12.307000160217285 C7.188000202178955,12.307000160217285 9.75,6.006999969482422 9.75,6.006999969482422 C9.75,6.006999969482422 7.895999908447266,-0.2029999941587448 7.895999908447266,-0.2029999941587448z">
                    </path>
                </g>
                <g opacity="1" transform="matrix(1,0,0,1,14.916000366210938,196.2760009765625)">
                    <path fill="rgb(158,119,0)" fill-opacity="1"
                        d=" M-14.454000473022461,21.673999786376953 C-14.454000473022461,21.673999786376953 -7.0879998207092285,25.069000244140625 -7.0879998207092285,25.069000244140625 C-7.0879998207092285,25.069000244140625 2.197000026702881,4.921999931335449 2.197000026702881,4.921999931335449 C2.197000026702881,4.921999931335449 4.002999782562256,0.06800000369548798 4.002999782562256,0.06800000369548798 C4.002999782562256,0.06800000369548798 9.529999732971191,-10.991000175476074 9.529999732971191,-10.991000175476074 C9.529999732971191,-10.991000175476074 14.454000473022461,-21.674999237060547 14.454000473022461,-21.674999237060547 C14.454000473022461,-21.674999237060547 7.090000152587891,-25.06999969482422 7.090000152587891,-25.06999969482422 C7.090000152587891,-25.06999969482422 2.263000011444092,-14.595999717712402 2.263000011444092,-14.595999717712402 C2.263000011444092,-14.595999717712402 -3.566999912261963,-0.5860000252723694 -3.566999912261963,-0.5860000252723694 C-3.566999912261963,-0.5860000252723694 -6.644000053405762,4.730999946594238 -6.644000053405762,4.730999946594238 C-6.644000053405762,4.730999946594238 -14.454000473022461,21.673999786376953 -14.454000473022461,21.673999786376953z">
                    </path>
                </g>
                <g opacity="1" transform="matrix(1,0,0,1,17.506999969482422,188.95700073242188)">
                    <path fill="rgb(117,87,0)" fill-opacity="1"
                        d=" M-11.86299991607666,17.750999450683594 C-11.86299991607666,17.750999450683594 -2.934000015258789,17.750999450683594 -2.934000015258789,17.750999450683594 C-2.934000015258789,17.750999450683594 11.86299991607666,-14.354999542236328 11.86299991607666,-14.354999542236328 C11.86299991607666,-14.354999542236328 4.499000072479248,-17.750999450683594 4.499000072479248,-17.750999450683594 C4.499000072479248,-17.750999450683594 -11.86299991607666,17.750999450683594 -11.86299991607666,17.750999450683594z">
                    </path>
                </g>
                <g opacity="1" transform="matrix(1,0,0,1,9.015000343322754,191.44700622558594)">
                    <path fill="rgb(195,151,122)" fill-opacity="1"
                        d=" M8.765000343322754,-11.071000099182129 C8.765000343322754,-11.071000099182129 0.03400000184774399,-13.119999885559082 0.03400000184774399,-13.119999885559082 C0.03400000184774399,-13.119999885559082 -8.765000343322754,5.456999778747559 -8.765000343322754,5.456999778747559 C-8.765000343322754,5.456999778747559 2.1559998989105225,13.119999885559082 2.1559998989105225,13.119999885559082 C2.1559998989105225,13.119999885559082 7.815000057220459,3.1640000343322754 7.815000057220459,3.1640000343322754 C7.815000057220459,3.1640000343322754 8.765000343322754,-11.071000099182129 8.765000343322754,-11.071000099182129z">
                    </path>
                </g>
                <g opacity="1" transform="matrix(1,0,0,1,22.582000732421875,191.39300537109375)">
                    <path fill="rgb(223,188,164)" fill-opacity="1"
                        d=" M11.354000091552734,3.128999948501587 C11.354000091552734,3.128999948501587 8.147000312805176,11.017000198364258 8.147000312805176,11.017000198364258 C8.147000312805176,11.017000198364258 0.8489999771118164,6.372000217437744 0.8489999771118164,6.372000217437744 C0.8489999771118164,6.372000217437744 -0.6869999766349792,-0.04800000041723251 -0.6869999766349792,-0.04800000041723251 C-0.6869999766349792,-0.04800000041723251 -6.914999961853027,5.263000011444092 -6.914999961853027,5.263000011444092 C-6.914999961853027,5.263000011444092 -11.354000091552734,3.5390000343322754 -11.354000091552734,3.5390000343322754 C-11.354000091552734,3.5390000343322754 -4.802000045776367,-11.017000198364258 -4.802000045776367,-11.017000198364258 C-4.802000045776367,-11.017000198364258 2.4119999408721924,-7.296999931335449 2.4119999408721924,-7.296999931335449 C2.4119999408721924,-7.296999931335449 11.354000091552734,3.128999948501587 11.354000091552734,3.128999948501587z">
                    </path>
                </g>
                <g opacity="1" transform="matrix(1,0,0,1,29.679000854492188,168.4720001220703)">
                    <path fill="rgb(204,172,19)" fill-opacity="1"
                        d=" M-15.548999786376953,2.4079999923706055 C-15.548999786376953,2.4079999923706055 -4.377999782562256,5.355999946594238 -4.377999782562256,5.355999946594238 C-4.377999782562256,5.355999946594238 5.054999828338623,11.904999732971191 5.054999828338623,11.904999732971191 C5.054999828338623,11.904999732971191 16.659000396728516,3.450000047683716 16.659000396728516,3.450000047683716 C16.659000396728516,3.450000047683716 1.5509999990463257,-5.714000225067139 1.5509999990463257,-5.714000225067139 C1.5509999990463257,-5.714000225067139 -16.659000396728516,-11.904999732971191 -16.659000396728516,-11.904999732971191 C-16.659000396728516,-11.904999732971191 -15.548999786376953,2.4079999923706055 -15.548999786376953,2.4079999923706055z">
                    </path>
                </g>
                <g opacity="1" transform="matrix(1,0,0,1,31.003000259399414,161.3699951171875)">
                    <path fill="rgb(158,119,0)" fill-opacity="1"
                        d=" M-17.982999801635742,-4.803999900817871 C-17.982999801635742,-4.803999900817871 15.333999633789062,10.550999641418457 15.333999633789062,10.550999641418457 C15.333999633789062,10.550999641418457 17.982999801635742,4.803999900817871 17.982999801635742,4.803999900817871 C17.982999801635742,4.803999900817871 1.968000054359436,-4.7789998054504395 1.968000054359436,-4.7789998054504395 C1.968000054359436,-4.7789998054504395 -15.336000442504883,-10.550999641418457 -15.336000442504883,-10.550999641418457 C-15.336000442504883,-10.550999641418457 -17.982999801635742,-4.803999900817871 -17.982999801635742,-4.803999900817871z">
                    </path>
                </g>
                <g opacity="1" transform="matrix(1,0,0,1,33.652000427246094,155.6219940185547)">
                    <path fill="rgb(228,199,40)" fill-opacity="1"
                        d=" M-17.983999252319336,-4.803999900817871 C-17.983999252319336,-4.803999900817871 15.333999633789062,10.552000045776367 15.333999633789062,10.552000045776367 C15.333999633789062,10.552000045776367 17.983999252319336,4.802999973297119 17.983999252319336,4.802999973297119 C17.983999252319336,4.802999973297119 2.4240000247955322,-4.572000026702881 2.4240000247955322,-4.572000026702881 C2.4240000247955322,-4.572000026702881 -15.333999633789062,-10.553000450134277 -15.333999633789062,-10.553000450134277 C-15.333999633789062,-10.553000450134277 -17.983999252319336,-4.803999900817871 -17.983999252319336,-4.803999900817871z">
                    </path>
                </g>
                <g opacity="1" transform="matrix(1,0,0,1,36.303001403808594,149.8719940185547)">
                    <path fill="rgb(158,119,0)" fill-opacity="1"
                        d=" M-17.983999252319336,-4.803999900817871 C-17.983999252319336,-4.803999900817871 15.333000183105469,10.552000045776367 15.333000183105469,10.552000045776367 C15.333000183105469,10.552000045776367 17.983999252319336,4.802999973297119 17.983999252319336,4.802999973297119 C17.983999252319336,4.802999973297119 1.968999981880188,-4.7789998054504395 1.968999981880188,-4.7789998054504395 C1.968999981880188,-4.7789998054504395 -15.336000442504883,-10.552000045776367 -15.336000442504883,-10.552000045776367 C-15.336000442504883,-10.552000045776367 -17.983999252319336,-4.803999900817871 -17.983999252319336,-4.803999900817871z">
                    </path>
                </g>
                <g opacity="1" transform="matrix(1,0,0,1,37.62699890136719,142.77099609375)">
                    <path fill="rgb(204,172,19)" fill-opacity="1"
                        d=" M-5.054999828338623,-11.904000282287598 C-5.054999828338623,-11.904000282287598 4.669000148773193,-5.218999862670898 4.669000148773193,-5.218999862670898 C4.669000148773193,-5.218999862670898 15.54800033569336,-2.4079999923706055 15.54800033569336,-2.4079999923706055 C15.54800033569336,-2.4079999923706055 16.65999984741211,11.904999732971191 16.65999984741211,11.904999732971191 C16.65999984741211,11.904999732971191 -16.65999984741211,-3.4509999752044678 -16.65999984741211,-3.4509999752044678 C-16.65999984741211,-3.4509999752044678 -5.054999828338623,-11.904000282287598 -5.054999828338623,-11.904000282287598z">
                    </path>
                </g>
                <g opacity="1" transform="matrix(1,0,0,1,24.433000564575195,172.30999755859375)">
                    <path fill="rgb(158,119,0)" fill-opacity="1"
                        d=" M10.302000045776367,8.065999984741211 C10.302000045776367,8.065999984741211 5.244999885559082,-8.065999984741211 5.244999885559082,-8.065999984741211 C5.244999885559082,-8.065999984741211 -10.302000045776367,-1.4299999475479126 -10.302000045776367,-1.4299999475479126 C-10.302000045776367,-1.4299999475479126 10.302000045776367,8.065999984741211 10.302000045776367,8.065999984741211z">
                    </path>
                </g>
                <g opacity="1" transform="matrix(1,0,0,1,42.87300109863281,138.93299865722656)">
                    <path fill="rgb(158,119,0)" fill-opacity="1"
                        d=" M10.300999641418457,1.4299999475479126 C10.300999641418457,1.4299999475479126 -5.247000217437744,8.0649995803833 -5.247000217437744,8.0649995803833 C-5.247000217437744,8.0649995803833 -10.300999641418457,-8.0649995803833 -10.300999641418457,-8.0649995803833 C-10.300999641418457,-8.0649995803833 10.300999641418457,1.4299999475479126 10.300999641418457,1.4299999475479126z">
                    </path>
                </g>
            </g>
        </g>
        <g transform="matrix(1,0,0,1,79.4699935913086,-0.248992919921875)" opacity="1" style="display: block;">
            <g opacity="1" transform="matrix(1,0,0,1,81.73200225830078,127.9800033569336)">
                <path fill="rgb(43,43,43)" fill-opacity="1"
                    d=" M-18.238000869750977,13.734999656677246 C-18.238000869750977,13.734999656677246 18.238000869750977,15.560999870300293 18.238000869750977,15.560999870300293 C18.238000869750977,15.560999870300293 18.238000869750977,-15.560999870300293 18.238000869750977,-15.560999870300293 C18.238000869750977,-15.560999870300293 -18.238000869750977,13.734999656677246 -18.238000869750977,13.734999656677246z">
                </path>
            </g>
            <g opacity="1" transform="matrix(1,0,0,1,46.68000030517578,77.18199920654297)">
                <path fill="rgb(110,112,115)" fill-opacity="1"
                    d=" M6.234000205993652,-18.236000061035156 C6.234000205993652,-18.236000061035156 -17.795000076293945,18.236000061035156 -17.795000076293945,18.236000061035156 C-17.795000076293945,18.236000061035156 17.795000076293945,9.416999816894531 17.795000076293945,9.416999816894531 C17.795000076293945,9.416999816894531 6.234000205993652,-18.236000061035156 6.234000205993652,-18.236000061035156z">
                </path>
            </g>
            <g opacity="1" transform="matrix(1,0,0,1,0,0)">
                <g opacity="1" transform="matrix(1,0,0,1,202.99600219726562,93.20500183105469)">
                    <path fill="rgb(43,43,43)" fill-opacity="1"
                        d=" M12.640999794006348,-2.8550000190734863 C12.640999794006348,-2.8550000190734863 11.692999839782715,14.539999961853027 11.692999839782715,14.539999961853027 C11.692999839782715,14.539999961853027 -12.640999794006348,13.4399995803833 -12.640999794006348,13.4399995803833 C-12.640999794006348,13.4399995803833 -7.260000228881836,-14.539999961853027 -7.260000228881836,-14.539999961853027 C-7.260000228881836,-14.539999961853027 12.640999794006348,-2.8550000190734863 12.640999794006348,-2.8550000190734863z">
                    </path>
                </g>
                <g opacity="1" transform="matrix(1,0,0,1,210.32400512695312,71.19000244140625)">
                    <path fill="rgb(79,82,82)" fill-opacity="1"
                        d=" M-2.496000051498413,-18.177000045776367 C-2.496000051498413,-18.177000045776367 15.789999961853027,12.406999588012695 15.789999961853027,12.406999588012695 C15.789999961853027,12.406999588012695 -4.425000190734863,18.177000045776367 -4.425000190734863,18.177000045776367 C-4.425000190734863,18.177000045776367 -12.53600025177002,12.640000343322754 -12.53600025177002,12.640000343322754 C-12.53600025177002,12.640000343322754 -15.789999961853027,-11.003999710083008 -15.789999961853027,-11.003999710083008 C-15.789999961853027,-11.003999710083008 -2.496000051498413,-18.177000045776367 -2.496000051498413,-18.177000045776367z">
                    </path>
                </g>
                <g opacity="1" transform="matrix(1,0,0,1,204.76400756835938,95.12100219726562)">
                    <path fill="rgb(70,70,70)" fill-opacity="1"
                        d=" M21.350000381469727,-11.52400016784668 C21.350000381469727,-11.52400016784668 -6.97599983215332,-11.291000366210938 -6.97599983215332,-11.291000366210938 C-6.97599983215332,-11.291000366210938 -21.350000381469727,-2.759000062942505 -21.350000381469727,-2.759000062942505 C-21.350000381469727,-2.759000062942505 -14.409000396728516,11.52400016784668 -14.409000396728516,11.52400016784668 C-14.409000396728516,11.52400016784668 21.350000381469727,-11.52400016784668 21.350000381469727,-11.52400016784668z">
                    </path>
                </g>
            </g>
            <g opacity="1" transform="matrix(1,0,0,1,63.37099838256836,95.43399810791016)">
                <path fill="rgb(70,70,70)" fill-opacity="1"
                    d=" M-34.486000061035156,-0.01600000075995922 C-34.486000061035156,-0.01600000075995922 11.119999885559082,21.33799934387207 11.119999885559082,21.33799934387207 C11.119999885559082,21.33799934387207 33.71200180053711,23.7450008392334 33.71200180053711,23.7450008392334 C33.71200180053711,23.7450008392334 34.486000061035156,-3.055000066757202 34.486000061035156,-3.055000066757202 C34.486000061035156,-3.055000066757202 22.378000259399414,-23.7450008392334 22.378000259399414,-23.7450008392334 C22.378000259399414,-23.7450008392334 -34.486000061035156,-0.01600000075995922 -34.486000061035156,-0.01600000075995922z">
                </path>
            </g>
            <g opacity="1" transform="matrix(1,0,0,1,188.7899932861328,107.20800018310547)">
                <path fill="rgb(133,99,0)" fill-opacity="1"
                    d=" M1.6790000200271606,-16.958999633789062 C1.6790000200271606,-16.958999633789062 9.371000289916992,10.640999794006348 9.371000289916992,10.640999794006348 C9.371000289916992,10.640999794006348 -9.371000289916992,16.958999633789062 -9.371000289916992,16.958999633789062 C-9.371000289916992,16.958999633789062 -6.181000232696533,7.172999858856201 -6.181000232696533,7.172999858856201 C-6.181000232696533,7.172999858856201 -1.2230000495910645,5.441999912261963 -1.2230000495910645,5.441999912261963 C-1.2230000495910645,5.441999912261963 -3.2019999027252197,-1.975000023841858 -3.2019999027252197,-1.975000023841858 C-3.2019999027252197,-1.975000023841858 -4.577000141143799,-7.688000202178955 -4.577000141143799,-7.688000202178955 C-4.577000141143799,-7.688000202178955 1.6790000200271606,-16.958999633789062 1.6790000200271606,-16.958999633789062z">
                </path>
            </g>
            <g opacity="1" transform="matrix(1,0,0,1,151.08099365234375,106.50399780273438)">
                <path fill="rgb(223,188,164)" fill-opacity="1"
                    d=" M-56.74700164794922,-10.536999702453613 C-56.74700164794922,-10.536999702453613 -51.06999969482422,22.143999099731445 -51.06999969482422,22.143999099731445 C-51.06999969482422,22.143999099731445 -40.57600021362305,52.24300003051758 -40.57600021362305,52.24300003051758 C-40.57600021362305,52.24300003051758 -21.555999755859375,53.4900016784668 -21.555999755859375,53.4900016784668 C-21.555999755859375,53.4900016784668 -10.390000343322754,40.1879997253418 -10.390000343322754,40.1879997253418 C-10.390000343322754,40.1879997253418 22.8439998626709,50.573001861572266 22.8439998626709,50.573001861572266 C22.8439998626709,50.573001861572266 56.74700164794922,-53.4900016784668 56.74700164794922,-53.4900016784668 C56.74700164794922,-53.4900016784668 -23.632999420166016,-34.07099914550781 -23.632999420166016,-34.07099914550781 C-23.632999420166016,-34.07099914550781 -56.74700164794922,-10.536999702453613 -56.74700164794922,-10.536999702453613z">
                </path>
            </g>
            <g opacity="1" transform="matrix(1,0,0,1,117.51300048828125,123.85600280761719)">
                <path fill="rgb(195,151,122)" fill-opacity="1"
                    d=" M11.494000434875488,-28.315000534057617 C11.494000434875488,-28.315000534057617 0.8420000076293945,17.58799934387207 0.8420000076293945,17.58799934387207 C0.8420000076293945,17.58799934387207 23.179000854492188,22.836000442504883 23.179000854492188,22.836000442504883 C23.179000854492188,22.836000442504883 10.062000274658203,38.34400177001953 10.062000274658203,38.34400177001953 C10.062000274658203,38.34400177001953 8.8149995803833,49.606998443603516 8.8149995803833,49.606998443603516 C8.8149995803833,49.606998443603516 -15.043000221252441,43.53499984741211 -15.043000221252441,43.53499984741211 C-15.043000221252441,43.53499984741211 -20.429000854492188,-4.677000045776367 -20.429000854492188,-4.677000045776367 C-20.429000854492188,-4.677000045776367 -18.490999221801758,-12.774999618530273 -18.490999221801758,-12.774999618530273 C-18.490999221801758,-12.774999618530273 -23.179000854492188,-27.88800048828125 -23.179000854492188,-27.88800048828125 C-23.179000854492188,-27.88800048828125 3.184000015258789,-49.606998443603516 3.184000015258789,-49.606998443603516 C3.184000015258789,-49.606998443603516 11.494000434875488,-28.315000534057617 11.494000434875488,-28.315000534057617z">
                </path>
            </g>
            <g opacity="1" transform="matrix(1,0,0,1,181.6179962158203,89.36599731445312)">
                <path fill="rgb(195,151,122)" fill-opacity="1"
                    d=" M-0.421999990940094,-12.00100040435791 C-0.421999990940094,-12.00100040435791 -3.7990000247955322,-9.402999877929688 -3.7990000247955322,-9.402999877929688 C-3.7990000247955322,-9.402999877929688 -10.741000175476074,12.00100040435791 -10.741000175476074,12.00100040435791 C-10.741000175476074,12.00100040435791 4.7230000495910645,-1.4450000524520874 4.7230000495910645,-1.4450000524520874 C4.7230000495910645,-1.4450000524520874 10.741000175476074,-6.547999858856201 10.741000175476074,-6.547999858856201 C10.741000175476074,-6.547999858856201 -0.421999990940094,-12.00100040435791 -0.421999990940094,-12.00100040435791z">
                </path>
            </g>
            <g opacity="1" transform="matrix(1,0,0,1,159.88699340820312,88.83200073242188)">
                <path fill="rgb(195,151,122)" fill-opacity="1"
                    d=" M10.857000350952148,-11.206999778747559 C10.857000350952148,-11.206999778747559 5.730000019073486,-16.91900062561035 5.730000019073486,-16.91900062561035 C5.730000019073486,-16.91900062561035 -10.857000350952148,-17.354999542236328 -10.857000350952148,-17.354999542236328 C-10.857000350952148,-17.354999542236328 -0.7609999775886536,1.5169999599456787 -0.7609999775886536,1.5169999599456787 C-0.7609999775886536,1.5169999599456787 0.5360000133514404,17.354999542236328 0.5360000133514404,17.354999542236328 C0.5360000133514404,17.354999542236328 10.857000350952148,-11.206999778747559 10.857000350952148,-11.206999778747559z">
                </path>
            </g>
            <g opacity="1" transform="matrix(1,0,0,1,109.22900390625,99.69500732421875)">
                <path fill="rgb(138,102,81)" fill-opacity="1"
                    d=" M4.197000026702881,10.904999732971191 C4.197000026702881,10.904999732971191 -12.145999908447266,19.482999801635742 -12.145999908447266,19.482999801635742 C-12.145999908447266,19.482999801635742 -14.895999908447266,-3.7279999256134033 -14.895999908447266,-3.7279999256134033 C-14.895999908447266,-3.7279999256134033 0.5720000267028809,-19.482999801635742 0.5720000267028809,-19.482999801635742 C0.5720000267028809,-19.482999801635742 14.895999908447266,-6.84499979019165 14.895999908447266,-6.84499979019165 C14.895999908447266,-6.84499979019165 4.197000026702881,10.904999732971191 4.197000026702881,10.904999732971191z">
                </path>
            </g>
            <g opacity="1" transform="matrix(1,0,0,1,169.12100219726562,93.20500183105469)">
                <path fill="rgb(232,201,182)" fill-opacity="1"
                    d=" M1.6230000257492065,-15.579000473022461 C1.6230000257492065,-15.579000473022461 8.697999954223633,-13.241999626159668 8.697999954223633,-13.241999626159668 C8.697999954223633,-13.241999626159668 -0.6480000019073486,15.579000473022461 -0.6480000019073486,15.579000473022461 C-0.6480000019073486,15.579000473022461 -8.697999954223633,12.982999801635742 -8.697999954223633,12.982999801635742 C-8.697999954223633,12.982999801635742 1.6230000257492065,-15.579000473022461 1.6230000257492065,-15.579000473022461z">
                </path>
            </g>
            <g opacity="1" transform="matrix(1,0,0,1,164.447998046875,109.3030014038086)">
                <path fill="rgb(138,102,81)" fill-opacity="1"
                    d=" M-4.025000095367432,-3.115999937057495 C-4.025000095367432,-3.115999937057495 -1.4270000457763672,3.115999937057495 -1.4270000457763672,3.115999937057495 C-1.4270000457763672,3.115999937057495 4.025000095367432,-0.5180000066757202 4.025000095367432,-0.5180000066757202 C4.025000095367432,-0.5180000066757202 -4.025000095367432,-3.115999937057495 -4.025000095367432,-3.115999937057495z">
                </path>
            </g>
            <g opacity="1" transform="matrix(1,0,0,1,161.1280059814453,76.2249984741211)">
                <path fill="rgb(138,102,81)" fill-opacity="1"
                    d=" M44.51499938964844,-16.50200080871582 C44.51499938964844,-16.50200080871582 -32.900001525878906,23.211999893188477 -32.900001525878906,23.211999893188477 C-32.900001525878906,23.211999893188477 -46.70000076293945,22.347000122070312 -46.70000076293945,22.347000122070312 C-46.70000076293945,22.347000122070312 -41.58000183105469,10.015999794006348 -41.58000183105469,10.015999794006348 C-41.58000183105469,10.015999794006348 4.489999771118164,-4.311999797821045 4.489999771118164,-4.311999797821045 C4.489999771118164,-4.311999797821045 46.70000076293945,-23.211999893188477 46.70000076293945,-23.211999893188477 C46.70000076293945,-23.211999893188477 44.51499938964844,-16.50200080871582 44.51499938964844,-16.50200080871582z">
                </path>
            </g>
            <g opacity="1" transform="matrix(1,0,0,1,61.47200012207031,71.03099822998047)">
                <path fill="rgb(79,82,82)" fill-opacity="1"
                    d=" M18.395000457763672,-15.91100025177002 C18.395000457763672,-15.91100025177002 13.935999870300293,-26.599000930786133 13.935999870300293,-26.599000930786133 C13.935999870300293,-26.599000930786133 -28.535999298095703,-37.2859992980957 -28.535999298095703,-37.2859992980957 C-28.535999298095703,-37.2859992980957 4.439000129699707,37.2859992980957 4.439000129699707,37.2859992980957 C4.439000129699707,37.2859992980957 25.76799964904785,18.334999084472656 25.76799964904785,18.334999084472656 C25.76799964904785,18.334999084472656 28.535999298095703,3.005000114440918 28.535999298095703,3.005000114440918 C28.535999298095703,3.005000114440918 18.395000457763672,-15.91100025177002 18.395000457763672,-15.91100025177002z">
                </path>
            </g>
            <g opacity="1" transform="matrix(1,0,0,1,63.6349983215332,44.10900115966797)">
                <path fill="rgb(110,112,115)" fill-opacity="1"
                    d=" M2.2769999504089355,16.638999938964844 C2.2769999504089355,16.638999938964844 -30.698999404907227,-10.364999771118164 -30.698999404907227,-10.364999771118164 C-30.698999404907227,-10.364999771118164 30.698999404907227,-16.638999938964844 30.698999404907227,-16.638999938964844 C30.698999404907227,-16.638999938964844 23.267000198364258,4.926000118255615 23.267000198364258,4.926000118255615 C23.267000198364258,4.926000118255615 2.2769999504089355,16.638999938964844 2.2769999504089355,16.638999938964844z">
                </path>
            </g>
            <g opacity="1" transform="matrix(1,0,0,1,117.53600311279297,30.5)">
                <path fill="rgb(79,82,82)" fill-opacity="1"
                    d=" M-51.625,30.249000549316406 C-51.625,30.249000549316406 11.201000213623047,12.611000061035156 11.201000213623047,12.611000061035156 C11.201000213623047,12.611000061035156 51.625,-11.390999794006348 51.625,-11.390999794006348 C51.625,-11.390999794006348 0.04399999976158142,-30.249000549316406 0.04399999976158142,-30.249000549316406 C0.04399999976158142,-30.249000549316406 -51.625,30.249000549316406 -51.625,30.249000549316406z">
                </path>
            </g>
            <g opacity="1" transform="matrix(1,0,0,1,186.7779998779297,76.3270034790039)">
                <path fill="rgb(43,43,43)" fill-opacity="1"
                    d=" M-1.9479999542236328,-6.492000102996826 C-1.9479999542236328,-6.492000102996826 5.581999778747559,6.492000102996826 5.581999778747559,6.492000102996826 C5.581999778747559,6.492000102996826 -5.581999778747559,1.0390000343322754 -5.581999778747559,1.0390000343322754 C-5.581999778747559,1.0390000343322754 -1.9479999542236328,-6.492000102996826 -1.9479999542236328,-6.492000102996826z">
                </path>
            </g>
            <g opacity="1" transform="matrix(1,0,0,1,156.03799438476562,126.43099975585938)">
                <path fill="rgb(133,99,0)" fill-opacity="1"
                    d=" M-22.242000579833984,-16.488000869750977 C-22.242000579833984,-16.488000869750977 6.255000114440918,-11.98900032043457 6.255000114440918,-11.98900032043457 C6.255000114440918,-11.98900032043457 22.242000579833984,-0.5180000066757202 22.242000579833984,-0.5180000066757202 C22.242000579833984,-0.5180000066757202 -3.5480000972747803,16.488000869750977 -3.5480000972747803,16.488000869750977 C-3.5480000972747803,16.488000869750977 -22.242000579833984,-16.488000869750977 -22.242000579833984,-16.488000869750977z">
                </path>
            </g>
            <g opacity="1" transform="matrix(1,0,0,1,155.6219940185547,127.19499969482422)">
                <path fill="rgb(117,87,0)" fill-opacity="1"
                    d=" M-9.494000434875488,-4.010000228881836 C-9.494000434875488,-4.010000228881836 0.6510000228881836,-7.3520002365112305 0.6510000228881836,-7.3520002365112305 C0.6510000228881836,-7.3520002365112305 9.494000434875488,2.809000015258789 9.494000434875488,2.809000015258789 C9.494000434875488,2.809000015258789 2.7699999809265137,7.3520002365112305 2.7699999809265137,7.3520002365112305 C2.7699999809265137,7.3520002365112305 -4.431000232696533,4.816999912261963 -4.431000232696533,4.816999912261963 C-4.431000232696533,4.816999912261963 -9.494000434875488,-4.010000228881836 -9.494000434875488,-4.010000228881836z">
                </path>
            </g>
            <g opacity="1" transform="matrix(1,0,0,1,156.4530029296875,122.18099975585938)">
                <path fill="rgb(255,255,255)" fill-opacity="1"
                    d=" M-10.324999809265137,1.003999948501587 C-10.324999809265137,1.003999948501587 8.663000106811523,7.822999954223633 8.663000106811523,7.822999954223633 C8.663000106811523,7.822999954223633 15.387999534606934,3.2799999713897705 15.387999534606934,3.2799999713897705 C15.387999534606934,3.2799999713897705 -15.38700008392334,-7.822999954223633 -15.38700008392334,-7.822999954223633 C-15.38700008392334,-7.822999954223633 -10.324999809265137,1.003999948501587 -10.324999809265137,1.003999948501587z">
                </path>
            </g>
            <g opacity="1" transform="matrix(1,0,0,1,103.09900665283203,100.64500427246094)">
                <path fill="rgb(133,99,0)" fill-opacity="1"
                    d=" M17.108999252319336,-9.954999923706055 C17.108999252319336,-9.954999923706055 10.32699966430664,9.954999923706055 10.32699966430664,9.954999923706055 C10.32699966430664,9.954999923706055 -17.108999252319336,1.2699999809265137 -17.108999252319336,1.2699999809265137 C-17.108999252319336,1.2699999809265137 -15.565999984741211,-3.364000082015991 -15.565999984741211,-3.364000082015991 C-15.565999984741211,-3.364000082015991 -8.765999794006348,-4.678999900817871 -8.765999794006348,-4.678999900817871 C-8.765999794006348,-4.678999900817871 5.394000053405762,-0.4320000112056732 5.394000053405762,-0.4320000112056732 C5.394000053405762,-0.4320000112056732 7.914000034332275,-8.079999923706055 7.914000034332275,-8.079999923706055 C7.914000034332275,-8.079999923706055 17.108999252319336,-9.954999923706055 17.108999252319336,-9.954999923706055z">
                </path>
            </g>
            <g opacity="1" transform="matrix(1,0,0,1,125.89099884033203,155.2740020751953)">
                <path fill="rgb(138,102,81)" fill-opacity="1"
                    d=" M14.800999641418457,-8.581999778747559 C14.800999641418457,-8.581999778747559 -14.800999641418457,-18.18899917602539 -14.800999641418457,-18.18899917602539 C-14.800999641418457,-18.18899917602539 0.43799999356269836,18.18899917602539 0.43799999356269836,18.18899917602539 C0.43799999356269836,18.18899917602539 14.800999641418457,-8.581999778747559 14.800999641418457,-8.581999778747559z">
                </path>
            </g>
            <g opacity="1" transform="matrix(1,0,0,1,93.05999755859375,91.177001953125)">
                <path fill="rgb(43,43,43)" fill-opacity="1"
                    d=" M-3.0510001182556152,-17.141000747680664 C-3.0510001182556152,-17.141000747680664 -27.148000717163086,17.141000747680664 -27.148000717163086,17.141000747680664 C-27.148000717163086,17.141000747680664 27.148000717163086,-0.4860000014305115 27.148000717163086,-0.4860000014305115 C27.148000717163086,-0.4860000014305115 -3.0510001182556152,-17.141000747680664 -3.0510001182556152,-17.141000747680664z">
                </path>
            </g>
            <g opacity="1" transform="matrix(1,0,0,1,62.98400115966797,118.56600189208984)">
                <path fill="rgb(70,70,70)" fill-opacity="1"
                    d=" M-34.099998474121094,-23.14900016784668 C-34.099998474121094,-23.14900016784668 34.099998474121094,0.6129999756813049 34.099998474121094,0.6129999756813049 C34.099998474121094,0.6129999756813049 0.5099999904632568,23.14900016784668 0.5099999904632568,23.14900016784668 C0.5099999904632568,23.14900016784668 -34.099998474121094,-23.14900016784668 -34.099998474121094,-23.14900016784668z">
                </path>
            </g>
        </g>

        <g transform="matrix(1,0,0,1,79.4699935913086,-0.248992919921875)" opacity="1" style="display: block;">
            <g opacity="1" transform="matrix(1,0,0,1,183.41400146484375,92.36199951171875)">
                <path fill="rgb(43,43,43)" fill-opacity="1"
                    d=" M4.416999816894531,0 C4.416999816894531,2.438999891281128 2.438999891281128,4.416999816894531 0,4.416999816894531 C-2.438999891281128,4.416999816894531 -4.416999816894531,2.438999891281128 -4.416999816894531,0 C-4.416999816894531,-2.438999891281128 -2.438999891281128,-4.416999816894531 0,-4.416999816894531 C2.438999891281128,-4.416999816894531 4.416999816894531,-2.438999891281128 4.416999816894531,0z">
                </path>
            </g>
            <g opacity="1" transform="matrix(1,0,0,1,157.18499755859375,83.59700012207031)">
                <path fill="rgb(43,43,43)" fill-opacity="1"
                    d=" M4.418000221252441,0 C4.418000221252441,2.438999891281128 2.437999963760376,4.416999816894531 -0.0010000000474974513,4.416999816894531 C-2.440000057220459,4.416999816894531 -4.416999816894531,2.438999891281128 -4.416999816894531,0 C-4.416999816894531,-2.438999891281128 -2.440000057220459,-4.416999816894531 -0.0010000000474974513,-4.416999816894531 C2.437999963760376,-4.416999816894531 4.418000221252441,-2.438999891281128 4.418000221252441,0z">
                </path>
            </g>
        </g>

        <g transform="matrix(1,0,0,1,79.4699935913086,-0.248992919921875)" opacity="1" style="display: block;">
            <g opacity="1" transform="matrix(1,0,0,1,143.41600036621094,70.74500274658203)">
                <path fill="rgb(70,70,70)" fill-opacity="1"
                    d=" M77.50499725341797,-24.797000885009766 C77.50499725341797,-24.797000885009766 -14.40999984741211,24.797000885009766 -14.40999984741211,24.797000885009766 C-14.40999984741211,24.797000885009766 -77.50499725341797,-9.996000289916992 -77.50499725341797,-9.996000289916992 C-77.50499725341797,-9.996000289916992 -4.163000106811523,-19.78499984741211 -4.163000106811523,-19.78499984741211 C-4.163000106811523,-19.78499984741211 77.50499725341797,-24.797000885009766 77.50499725341797,-24.797000885009766z">
                </path>
            </g>
            <g opacity="1" transform="matrix(1,0,0,1,143.41600036621094,35.30400085449219)">
                <path fill="rgb(143,143,143)" fill-opacity="1"
                    d=" M77.50499725341797,10.645000457763672 C77.50499725341797,10.645000457763672 48.68299865722656,-25.44499969482422 48.68299865722656,-25.44499969482422 C48.68299865722656,-25.44499969482422 -77.50499725341797,25.44499969482422 -77.50499725341797,25.44499969482422 C-77.50499725341797,25.44499969482422 77.50499725341797,10.645000457763672 77.50499725341797,10.645000457763672z">
                </path>
            </g>
        </g>
        <g transform="matrix(0.9822283387184143,0.1876899003982544,-0.1876899003982544,0.9822283387184143,185.22048950195312,218.64031982421875)"
            opacity="1" style="display: block;">
            <g opacity="1" transform="matrix(1,0,0,1,0,0)">
                <g opacity="1" transform="matrix(1,0,0,1,0,0)">
                    <path stroke-linecap="butt" stroke-linejoin="miter" fill-opacity="0" stroke-miterlimit="4"
                        stroke="rgb(229,200,40)" stroke-opacity="1" stroke-width="4" d="M0 0"></path>
                </g>
                <g opacity="1" transform="matrix(1,0,0,1,0,0)">
                    <path stroke-linecap="butt" stroke-linejoin="miter" fill-opacity="0" stroke-miterlimit="4"
                        stroke="rgb(229,200,40)" stroke-opacity="1" stroke-width="4" d="M0 0"></path>
                </g>
                <g opacity="1" transform="matrix(1,0,0,1,0,0)">
                    <path stroke-linecap="butt" stroke-linejoin="miter" fill-opacity="0" stroke-miterlimit="4"
                        stroke="rgb(229,200,40)" stroke-opacity="1" stroke-width="4" d="M0 0"></path>
                </g>
            </g>
            <g opacity="1"
                transform="matrix(-0.6900112628936768,0.7237986326217651,-0.7237986326217651,-0.6900112628936768,-177.23727416992188,-19.660463333129883)">
                <g opacity="1" transform="matrix(1,0,0,1,0,0)">
                    <path stroke-linecap="butt" stroke-linejoin="miter" fill-opacity="0" stroke-miterlimit="4"
                        stroke="rgb(229,200,40)" stroke-opacity="1" stroke-width="4" d="M0 0"></path>
                </g>
                <g opacity="1" transform="matrix(1,0,0,1,0,0)">
                    <path stroke-linecap="butt" stroke-linejoin="miter" fill-opacity="0" stroke-miterlimit="4"
                        stroke="rgb(229,200,40)" stroke-opacity="1" stroke-width="4" d="M0 0"></path>
                </g>
                <g opacity="1" transform="matrix(1,0,0,1,0,0)">
                    <path stroke-linecap="butt" stroke-linejoin="miter" fill-opacity="0" stroke-miterlimit="4"
                        stroke="rgb(229,200,40)" stroke-opacity="1" stroke-width="4" d="M0 0"></path>
                </g>
            </g>
        </g>
        <g transform="matrix(0.9198009371757507,0.3923852741718292,0.3923852741718292,-0.9198009371757507,386.64990234375,148.42620849609375)"
            opacity="1" style="display: block;">
            <g opacity="1" transform="matrix(1,0,0,1,0,0)">
                <g opacity="1" transform="matrix(1,0,0,1,0,0)">
                    <path stroke-linecap="butt" stroke-linejoin="miter" fill-opacity="0" stroke-miterlimit="4"
                        stroke="rgb(229,200,40)" stroke-opacity="1" stroke-width="4" d="M0 0"></path>
                </g>
                <g opacity="1" transform="matrix(1,0,0,1,0,0)">
                    <path stroke-linecap="butt" stroke-linejoin="miter" fill-opacity="0" stroke-miterlimit="4"
                        stroke="rgb(229,200,40)" stroke-opacity="1" stroke-width="4" d="M0 0"></path>
                </g>
                <g opacity="1" transform="matrix(1,0,0,1,0,0)">
                    <path stroke-linecap="butt" stroke-linejoin="miter" fill-opacity="0" stroke-miterlimit="4"
                        stroke="rgb(229,200,40)" stroke-opacity="1" stroke-width="4" d="M0 0"></path>
                </g>
            </g>
            <g opacity="1"
                transform="matrix(-0.9722189903259277,-0.23407325148582458,0.23407325148582458,-0.9722189903259277,-153.92691040039062,-111.8303451538086)">
                <g opacity="1" transform="matrix(1,0,0,1,0,0)">
                    <path stroke-linecap="butt" stroke-linejoin="miter" fill-opacity="0" stroke-miterlimit="4"
                        stroke="rgb(229,200,40)" stroke-opacity="1" stroke-width="4" d="M0 0"></path>
                </g>
                <g opacity="1" transform="matrix(1,0,0,1,0,0)">
                    <path stroke-linecap="butt" stroke-linejoin="miter" fill-opacity="0" stroke-miterlimit="4"
                        stroke="rgb(229,200,40)" stroke-opacity="1" stroke-width="4" d="M0 0"></path>
                </g>
                <g opacity="1" transform="matrix(1,0,0,1,0,0)">
                    <path stroke-linecap="butt" stroke-linejoin="miter" fill-opacity="0" stroke-miterlimit="4"
                        stroke="rgb(229,200,40)" stroke-opacity="1" stroke-width="4" d="M0 0"></path>
                </g>
            </g>
        </g>
    </g>
</svg>