<svg xmlns="http://www.w3.org/2000/svg" viewBox="0 0 400 400" width="100%" height="100%"
    preserveAspectRatio="xMidYMid meet">
    <defs>
        <clipPath id="__lottie_element_328">
            <rect width="400" height="400" x="0" y="0"></rect>
        </clipPath>
    </defs>
    <g clip-path="url(#__lottie_element_328)">
        <g transform="matrix(1,0,0,1,90.57999420166016,-0.25)" opacity="1" style="display: block;">
            <g opacity="1" transform="matrix(1,0,0,1,144.2449951171875,201.6199951171875)">
                <path fill="rgb(143,143,143)" fill-opacity="1"
                    d=" M-14.21500015258789,-35.880001068115234 C-14.21500015258789,-35.880001068115234 14.21500015258789,5.429999828338623 14.21500015258789,5.429999828338623 C14.21500015258789,5.429999828338623 7.953999996185303,17.527000427246094 7.953999996185303,17.527000427246094 C7.953999996185303,17.527000427246094 -1.5449999570846558,35.880001068115234 -1.5449999570846558,35.880001068115234 C-1.5449999570846558,35.880001068115234 -1.5449999570846558,22.920000076293945 -1.5449999570846558,22.920000076293945 C-1.5449999570846558,22.920000076293945 2.3450000286102295,5.64900016784668 2.3450000286102295,5.64900016784668 C2.3450000286102295,5.64900016784668 -4.425000190734863,-6.300000190734863 -4.425000190734863,-6.300000190734863 C-4.425000190734863,-6.300000190734863 -14.21500015258789,-35.880001068115234 -14.21500015258789,-35.880001068115234z">
                </path>
            </g>
        </g>
        <g transform="matrix(1,0,0,1,90.57999420166016,-0.25)" opacity="1" style="display: block;">
            <g opacity="1" transform="matrix(1,0,0,1,165.84100341796875,230.44500732421875)">
                <path fill="rgb(70,70,70)" fill-opacity="1"
                    d=" M14.508999824523926,-13.96500015258789 C14.508999824523926,-13.96500015258789 24.729999542236328,2.5239999294281006 24.729999542236328,2.5239999294281006 C24.729999542236328,2.5239999294281006 12.918999671936035,7.414999961853027 12.918999671936035,7.414999961853027 C12.918999671936035,7.414999961853027 -12.781000137329102,13.96500015258789 -12.781000137329102,13.96500015258789 C-12.781000137329102,13.96500015258789 -23.500999450683594,7.054999828338623 -23.500999450683594,7.054999828338623 C-23.500999450683594,7.054999828338623 -24.729999542236328,-2.0160000324249268 -24.729999542236328,-2.0160000324249268 C-24.729999542236328,-2.0160000324249268 -24.461000442504883,-10.503999710083008 -24.461000442504883,-10.503999710083008 C-24.461000442504883,-10.503999710083008 14.508999824523926,-13.96500015258789 14.508999824523926,-13.96500015258789z">
                </path>
            </g>
        </g>
        <g transform="matrix(1,0,0,1,90.57999420166016,-0.25)" opacity="1" style="display: block;">
            <g opacity="1" transform="matrix(1,0,0,1,0,0)">
                <g opacity="1" transform="matrix(1,0,0,1,108.62000274658203,95.80400085449219)">
                    <path fill="rgb(223,188,164)" fill-opacity="1"
                        d=" M42.720001220703125,-68.48500061035156 C42.720001220703125,-68.48500061035156 -0.1899999976158142,-57.834999084472656 -0.1899999976158142,-57.834999084472656 C-0.1899999976158142,-57.834999084472656 -38.77000045776367,-43.724998474121094 -38.77000045776367,-43.724998474121094 C-38.77000045776367,-43.724998474121094 -35.599998474121094,-26.024999618530273 -35.599998474121094,-26.024999618530273 C-35.599998474121094,-26.024999618530273 -25.450000762939453,-5.284999847412109 -25.450000762939453,-5.284999847412109 C-25.450000762939453,-5.284999847412109 -29.90999984741211,-5.505000114440918 -29.90999984741211,-5.505000114440918 C-29.90999984741211,-5.505000114440918 -33.08000183105469,-0.2549999952316284 -33.08000183105469,-0.2549999952316284 C-33.08000183105469,-0.2549999952316284 -38.04999923706055,-9.53499984741211 -38.04999923706055,-9.53499984741211 C-38.04999923706055,-9.53499984741211 -42.08000183105469,-13.5649995803833 -42.08000183105469,-13.5649995803833 C-42.08000183105469,-13.5649995803833 -48.47999954223633,-10.475000381469727 -48.47999954223633,-10.475000381469727 C-48.47999954223633,-10.475000381469727 -55.38999938964844,-2.694999933242798 -55.38999938964844,-2.694999933242798 C-55.38999938964844,-2.694999933242798 -53.380001068115234,2.055000066757202 -53.380001068115234,2.055000066757202 C-53.380001068115234,2.055000066757202 -47.689998626708984,8.675000190734863 -47.689998626708984,8.675000190734863 C-47.689998626708984,8.675000190734863 -42.58000183105469,16.165000915527344 -42.58000183105469,16.165000915527344 C-42.58000183105469,16.165000915527344 -22.139999389648438,61.57500076293945 -22.139999389648438,61.57500076293945 C-22.139999389648438,61.57500076293945 13.850000381469727,68.48500061035156 13.850000381469727,68.48500061035156 C13.850000381469727,68.48500061035156 13.5600004196167,47.6150016784668 13.5600004196167,47.6150016784668 C13.5600004196167,47.6150016784668 16.8700008392334,33.724998474121094 16.8700008392334,33.724998474121094 C16.8700008392334,33.724998474121094 32.349998474121094,28.03499984741211 32.349998474121094,28.03499984741211 C32.349998474121094,28.03499984741211 55.38999938964844,21.344999313354492 55.38999938964844,21.344999313354492 C55.38999938964844,21.344999313354492 52.939998626708984,-21.635000228881836 52.939998626708984,-21.635000228881836 C52.939998626708984,-21.635000228881836 42.720001220703125,-68.48500061035156 42.720001220703125,-68.48500061035156z">
                    </path>
                </g>
                <g opacity="1" transform="matrix(1,0,0,1,118.65499877929688,74.61000061035156)">
                    <path fill="rgb(195,151,122)" fill-opacity="1"
                        d=" M-13.385000228881836,7.340000152587891 C-13.385000228881836,7.340000152587891 -7.054999828338623,-7.559999942779541 -7.054999828338623,-7.559999942779541 C-7.054999828338623,-7.559999942779541 9.864999771118164,-7.989999771118164 9.864999771118164,-7.989999771118164 C9.864999771118164,-7.989999771118164 19.864999771118164,17.1299991607666 19.864999771118164,17.1299991607666 C19.864999771118164,17.1299991607666 12.385000228881836,-17.1299991607666 12.385000228881836,-17.1299991607666 C12.385000228881836,-17.1299991607666 -5.105000019073486,-16.1299991607666 -5.105000019073486,-16.1299991607666 C-5.105000019073486,-16.1299991607666 -15.545000076293945,-7.989999771118164 -15.545000076293945,-7.989999771118164 C-15.545000076293945,-7.989999771118164 -19.864999771118164,-0.4399999976158142 -19.864999771118164,-0.4399999976158142 C-19.864999771118164,-0.4399999976158142 -13.385000228881836,7.340000152587891 -13.385000228881836,7.340000152587891z">
                    </path>
                </g>
                <g opacity="1" transform="matrix(1,0,0,1,146.0449981689453,65.8949966430664)">
                    <path fill="rgb(195,151,122)" fill-opacity="1"
                        d=" M11.196000099182129,-11.585000038146973 C11.196000099182129,-11.585000038146973 -0.10499999672174454,-3.375 -0.10499999672174454,-3.375 C-0.10499999672174454,-3.375 -0.8259999752044678,11.734999656677246 -0.8259999752044678,11.734999656677246 C-0.8259999752044678,11.734999656677246 -11.194999694824219,-11.734999656677246 -11.194999694824219,-11.734999656677246 C-11.194999694824219,-11.734999656677246 11.196000099182129,-11.585000038146973 11.196000099182129,-11.585000038146973z">
                    </path>
                </g>
                <g opacity="1" transform="matrix(1,0,0,1,119.125,85.79900360107422)">
                    <path fill="rgb(195,151,122)" fill-opacity="1"
                        d=" M-17.885000228881836,3.059999942779541 C-17.885000228881836,3.059999942779541 17.885000228881836,1.9800000190734863 17.885000228881836,1.9800000190734863 C17.885000228881836,1.9800000190734863 17.454999923706055,-3.059999942779541 17.454999923706055,-3.059999942779541 C17.454999923706055,-3.059999942779541 -17.885000228881836,3.059999942779541 -17.885000228881836,3.059999942779541z">
                    </path>
                </g>
                <g opacity="1" transform="matrix(1,0,0,1,153.7100067138672,80.65399932861328)">
                    <path fill="rgb(195,151,122)" fill-opacity="1"
                        d=" M7.920000076293945,-4.894999980926514 C7.920000076293945,-4.894999980926514 -6.619999885559082,4.894999980926514 -6.619999885559082,4.894999980926514 C-6.619999885559082,4.894999980926514 -7.920000076293945,-0.4350000023841858 -7.920000076293945,-0.4350000023841858 C-7.920000076293945,-0.4350000023841858 7.920000076293945,-4.894999980926514 7.920000076293945,-4.894999980926514z">
                    </path>
                </g>
                <g opacity="1" transform="matrix(1,0,0,1,94.25499725341797,106.45500183105469)">
                    <path fill="rgb(195,151,122)" fill-opacity="1"
                        d=" M-12.954999923706055,-57.834999084472656 C-12.954999923706055,-57.834999084472656 2.444999933242798,-44.44499969482422 2.444999933242798,-44.44499969482422 C2.444999933242798,-44.44499969482422 6.985000133514404,-17.594999313354492 6.985000133514404,-17.594999313354492 C6.985000133514404,-17.594999313354492 10.074999809265137,22.78499984741211 10.074999809265137,22.78499984741211 C10.074999809265137,22.78499984741211 28.21500015258789,57.834999084472656 28.21500015258789,57.834999084472656 C28.21500015258789,57.834999084472656 11.585000038146973,56.32500076293945 11.585000038146973,56.32500076293945 C11.585000038146973,56.32500076293945 -7.775000095367432,50.92499923706055 -7.775000095367432,50.92499923706055 C-7.775000095367432,50.92499923706055 -13.916999816894531,37.27899932861328 -13.916999816894531,37.27899932861328 C-13.916999816894531,37.27899932861328 -28.21500015258789,5.514999866485596 -28.21500015258789,5.514999866485596 C-28.21500015258789,5.514999866485596 -16.985000610351562,-1.1150000095367432 -16.985000610351562,-1.1150000095367432 C-16.985000610351562,-1.1150000095367432 -18.71500015258789,-10.904999732971191 -18.71500015258789,-10.904999732971191 C-18.71500015258789,-10.904999732971191 -11.085000038146973,-15.9350004196167 -11.085000038146973,-15.9350004196167 C-11.085000038146973,-15.9350004196167 -24.405000686645508,-54.375 -24.405000686645508,-54.375 C-24.405000686645508,-54.375 -12.954999923706055,-57.834999084472656 -12.954999923706055,-57.834999084472656z">
                    </path>
                </g>
                <g opacity="1" transform="matrix(1,0,0,1,71.65499877929688,117.32499694824219)">
                    <path fill="rgb(138,102,81)" fill-opacity="1"
                        d=" M-5.614999771118164,-5.355000019073486 C-5.614999771118164,-5.355000019073486 5.614999771118164,-11.984999656677246 5.614999771118164,-11.984999656677246 C5.614999771118164,-11.984999656677246 2.234999895095825,11.984999656677246 2.234999895095825,11.984999656677246 C2.234999895095825,11.984999656677246 -5.614999771118164,-5.355000019073486 -5.614999771118164,-5.355000019073486z">
                    </path>
                </g>
                <g opacity="1" transform="matrix(1,0,0,1,128.9499969482422,141.07899475097656)">
                    <path fill="rgb(138,102,81)" fill-opacity="1"
                        d=" M35.060001373291016,-23.93000030517578 C35.060001373291016,-23.93000030517578 -35.060001373291016,-10.180000305175781 -35.060001373291016,-10.180000305175781 C-35.060001373291016,-10.180000305175781 -16.839000701904297,21.200000762939453 -16.839000701904297,21.200000762939453 C-16.839000701904297,21.200000762939453 -12.520000457763672,23.93000030517578 -12.520000457763672,23.93000030517578 C-12.520000457763672,23.93000030517578 -6.480000019073486,23.209999084472656 -6.480000019073486,23.209999084472656 C-6.480000019073486,23.209999084472656 -3.4600000381469727,-11.550000190734863 -3.4600000381469727,-11.550000190734863 C-3.4600000381469727,-11.550000190734863 35.060001373291016,-23.93000030517578 35.060001373291016,-23.93000030517578z">
                    </path>
                </g>
                <g opacity="1" transform="matrix(1,0,0,1,0,0)">
                    <g opacity="1" transform="matrix(1,0,0,1,116.81999969482422,55.71500015258789)">
                        <path fill="rgb(43,43,43)" fill-opacity="1"
                            d=" M-13.710000038146973,-3.2750000953674316 C-13.710000038146973,-3.2750000953674316 -2.190000057220459,3.2750000953674316 -2.190000057220459,3.2750000953674316 C-2.190000057220459,3.2750000953674316 13.710000038146973,-0.9049999713897705 13.710000038146973,-0.9049999713897705 C13.710000038146973,-0.9049999713897705 -13.710000038146973,-3.2750000953674316 -13.710000038146973,-3.2750000953674316z">
                        </path>
                    </g>
                    <g opacity="1" transform="matrix(1,0,0,1,144.27999877929688,43.57899856567383)">
                        <path fill="rgb(43,43,43)" fill-opacity="1"
                            d=" M-7.698999881744385,4.679999828338623 C-7.698999881744385,4.679999828338623 0.6499999761581421,-4.679999828338623 0.6499999761581421,-4.679999828338623 C0.6499999761581421,-4.679999828338623 7.698999881744385,-3.1600000858306885 7.698999881744385,-3.1600000858306885 C7.698999881744385,-3.1600000858306885 -7.698999881744385,4.679999828338623 -7.698999881744385,4.679999828338623z">
                        </path>
                    </g>
                </g>
                <g opacity="1" transform="matrix(1,0,0,1,139.38499450683594,72.62999725341797)">
                    <path fill="rgb(232,201,182)" fill-opacity="1"
                        d=" M-8.854999542236328,-17.81999969482422 C-8.854999542236328,-17.81999969482422 -0.8659999966621399,19.110000610351562 -0.8659999966621399,19.110000610351562 C-0.8659999966621399,19.110000610351562 8.854999542236328,17.670000076293945 8.854999542236328,17.670000076293945 C8.854999542236328,17.670000076293945 -0.14499999582767487,-19.110000610351562 -0.14499999582767487,-19.110000610351562 C-0.14499999582767487,-19.110000610351562 -8.854999542236328,-17.81999969482422 -8.854999542236328,-17.81999969482422z">
                    </path>
                </g>
                <g opacity="1" transform="matrix(1,0,0,1,143.3800048828125,93.61000061035156)">
                    <path fill="rgb(138,102,81)" fill-opacity="1"
                        d=" M-4.860000133514404,-1.8700000047683716 C-4.860000133514404,-1.8700000047683716 0.32899999618530273,3.309999942779541 0.32899999618530273,3.309999942779541 C0.32899999618530273,3.309999942779541 4.861000061035156,-3.309999942779541 4.861000061035156,-3.309999942779541 C4.861000061035156,-3.309999942779541 -4.860000133514404,-1.8700000047683716 -4.860000133514404,-1.8700000047683716z">
                    </path>
                </g>
                <g opacity="1" transform="matrix(1,0,0,1,0,0)">
                    <g opacity="1" transform="matrix(1,0,0,1,127.11000061035156,105.81500244140625)">
                        <path fill="rgb(39,120,139)" fill-opacity="1"
                            d=" M-16.15999984741211,-2.4149999618530273 C-16.15999984741211,-2.4149999618530273 5.510000228881836,-2.555000066757202 5.510000228881836,-2.555000066757202 C5.510000228881836,-2.555000066757202 16.15999984741211,1.9049999713897705 16.15999984741211,1.9049999713897705 C16.15999984741211,1.9049999713897705 2.489000082015991,2.555000066757202 2.489000082015991,2.555000066757202 C2.489000082015991,2.555000066757202 -5.789999961853027,1.7549999952316284 -5.789999961853027,1.7549999952316284 C-5.789999961853027,1.7549999952316284 -8.020000457763672,1.4049999713897705 -8.020000457763672,1.4049999713897705 C-8.020000457763672,1.4049999713897705 -10.680999755859375,-0.2549999952316284 -10.680999755859375,-0.2549999952316284 C-10.680999755859375,-0.2549999952316284 -16.15999984741211,-2.4149999618530273 -16.15999984741211,-2.4149999618530273z">
                        </path>
                    </g>
                    <g opacity="1" transform="matrix(1,0,0,1,129.7050018310547,108.44000244140625)">
                        <path fill="rgb(57,159,185)" fill-opacity="1"
                            d=" M-13.5649995803833,-2.950000047683716 C-13.5649995803833,-2.950000047683716 -8.164999961853027,2.950000047683716 -8.164999961853027,2.950000047683716 C-8.164999961853027,2.950000047683716 13.5649995803833,-0.7200000286102295 13.5649995803833,-0.7200000286102295 C13.5649995803833,-0.7200000286102295 -8.383999824523926,-0.8700000047683716 -8.383999824523926,-0.8700000047683716 C-8.383999824523926,-0.8700000047683716 -13.5649995803833,-2.950000047683716 -13.5649995803833,-2.950000047683716z">
                        </path>
                    </g>
                </g>
                <g opacity="1" transform="matrix(1,0,0,1,65.45999908447266,94.7239990234375)">
                    <path fill="rgb(138,102,81)" fill-opacity="1"
                        d=" M-5.110000133514404,1.1150000095367432 C-5.110000133514404,1.1150000095367432 -0.14000000059604645,-3.924999952316284 -0.14000000059604645,-3.924999952316284 C-0.14000000059604645,-3.924999952316284 5.110000133514404,3.924999952316284 5.110000133514404,3.924999952316284 C5.110000133514404,3.924999952316284 -5.110000133514404,1.1150000095367432 -5.110000133514404,1.1150000095367432z">
                    </path>
                </g>
                <g opacity="1" transform="matrix(1,0,0,1,131.29100036621094,18.81999969482422)">
                    <path fill="rgb(70,70,70)" fill-opacity="1"
                        d=" M-20.049999237060547,-18.56999969482422 C-20.049999237060547,-18.56999969482422 -18.75,1.8009999990463257 -18.75,1.8009999990463257 C-18.75,1.8009999990463257 -13.140000343322754,18.56999969482422 -13.140000343322754,18.56999969482422 C-13.140000343322754,18.56999969482422 20.049999237060547,8.49899959564209 20.049999237060547,8.49899959564209 C20.049999237060547,8.49899959564209 -20.049999237060547,-18.56999969482422 -20.049999237060547,-18.56999969482422z">
                    </path>
                </g>
                <g opacity="1" transform="matrix(1,0,0,1,79.71499633789062,26.165000915527344)">
                    <path fill="rgb(110,112,115)" fill-opacity="1"
                        d=" M31.525999069213867,-25.915000915527344 C31.525999069213867,-25.915000915527344 -33.685001373291016,-3.6050000190734863 -33.685001373291016,-3.6050000190734863 C-33.685001373291016,-3.6050000190734863 -38.43600082397461,7.775000095367432 -38.43600082397461,7.775000095367432 C-38.43600082397461,7.775000095367432 -38.145999908447266,17.3439998626709 -38.145999908447266,17.3439998626709 C-38.145999908447266,17.3439998626709 -24.325000762939453,23.03499984741211 -24.325000762939453,23.03499984741211 C-24.325000762939453,23.03499984741211 -9.864999771118164,25.915000915527344 -9.864999771118164,25.915000915527344 C-9.864999771118164,25.915000915527344 1.5850000381469727,22.454999923706055 1.5850000381469727,22.454999923706055 C1.5850000381469727,22.454999923706055 38.43600082397461,11.223999977111816 38.43600082397461,11.223999977111816 C38.43600082397461,11.223999977111816 31.525999069213867,-25.915000915527344 31.525999069213867,-25.915000915527344z">
                    </path>
                </g>
                <g opacity="1" transform="matrix(1,0,0,1,56.06999969482422,64.88899993896484)">
                    <path fill="rgb(70,70,70)" fill-opacity="1"
                        d=" M-14.5,-21.3799991607666 C-14.5,-21.3799991607666 -17.239999771118164,-14.470000267028809 -17.239999771118164,-14.470000267028809 C-17.239999771118164,-14.470000267028809 -16.520000457763672,-9.140000343322754 -16.520000457763672,-9.140000343322754 C-16.520000457763672,-9.140000343322754 -21.6299991607666,21.3799991607666 -21.6299991607666,21.3799991607666 C-21.6299991607666,21.3799991607666 0.9700000286102295,17.780000686645508 0.9700000286102295,17.780000686645508 C0.9700000286102295,17.780000686645508 21.6299991607666,9.930000305175781 21.6299991607666,9.930000305175781 C21.6299991607666,9.930000305175781 13.779999732971191,-12.8100004196167 13.779999732971191,-12.8100004196167 C13.779999732971191,-12.8100004196167 -14.5,-21.3799991607666 -14.5,-21.3799991607666z">
                    </path>
                </g>
                <g opacity="1" transform="matrix(1,0,0,1,58.80500030517578,89.6500015258789)">
                    <path fill="rgb(43,43,43)" fill-opacity="1"
                        d=" M-24.364999771118164,-3.380000114440918 C-24.364999771118164,-3.380000114440918 18.895000457763672,-14.829999923706055 18.895000457763672,-14.829999923706055 C18.895000457763672,-14.829999923706055 24.364999771118164,0.8700000047683716 24.364999771118164,0.8700000047683716 C24.364999771118164,0.8700000047683716 16.735000610351562,5.900000095367432 16.735000610351562,5.900000095367432 C16.735000610351562,5.900000095367432 7.735000133514404,-7.409999847412109 7.735000133514404,-7.409999847412109 C7.735000133514404,-7.409999847412109 -5.574999809265137,3.4600000381469727 -5.574999809265137,3.4600000381469727 C-5.574999809265137,3.4600000381469727 2.125,14.829999923706055 2.125,14.829999923706055 C2.125,14.829999923706055 -24.364999771118164,-3.380000114440918 -24.364999771118164,-3.380000114440918z">
                    </path>
                </g>
                <g opacity="1" transform="matrix(1,0,0,1,32.029998779296875,39.224998474121094)">
                    <path fill="rgb(43,43,43)" fill-opacity="1"
                        d=" M7.449999809265137,16.665000915527344 C7.449999809265137,16.665000915527344 -14,14.725000381469727 -14,14.725000381469727 C-14,14.725000381469727 -3.2100000381469727,0.5450000166893005 -3.2100000381469727,0.5450000166893005 C-3.2100000381469727,0.5450000166893005 14,-16.665000915527344 14,-16.665000915527344 C14,-16.665000915527344 9.539999961853027,4.284999847412109 9.539999961853027,4.284999847412109 C9.539999961853027,4.284999847412109 7.449999809265137,16.665000915527344 7.449999809265137,16.665000915527344z">
                    </path>
                </g>
                <g opacity="1"
                    transform="matrix(1,0.000009076197784452233,-0.000009076197784452233,1,23.13983154296875,40.77479553222656)">
                    <path fill="rgb(110,112,115)" fill-opacity="1"
                        d=" M22.889999389648438,-18.21500015258789 C22.889999389648438,-18.21500015258789 -3.890000104904175,-32.17499923706055 -3.890000104904175,-32.17499923706055 C-3.890000104904175,-32.17499923706055 -22.889999389648438,32.17499923706055 -22.889999389648438,32.17499923706055 C-22.889999389648438,32.17499923706055 -5.110000133514404,13.175000190734863 -5.110000133514404,13.175000190734863 C-5.110000133514404,13.175000190734863 22.889999389648438,-18.21500015258789 22.889999389648438,-18.21500015258789z">
                    </path>
                </g>
            </g>
        </g>
        <g transform="matrix(1,0,0,1,90.57999420166016,-0.25)" opacity="1" style="display: block;">
            <g opacity="1" transform="matrix(1,0,0,1,0,0)">
                <g opacity="1" transform="matrix(1,0,0,1,103.9000015258789,173.07400512695312)">
                    <path fill="rgb(70,70,70)" fill-opacity="1"
                        d=" M-17.420000076293945,-15.694999694824219 C-17.420000076293945,-15.694999694824219 26.1299991607666,-7.335000038146973 26.1299991607666,-7.335000038146973 C26.1299991607666,-7.335000038146973 21.670000076293945,3.315000057220459 21.670000076293945,3.315000057220459 C21.670000076293945,3.315000057220459 12.09000015258789,15.694999694824219 12.09000015258789,15.694999694824219 C12.09000015258789,15.694999694824219 -11.520000457763672,3.9649999141693115 -11.520000457763672,3.9649999141693115 C-11.520000457763672,3.9649999141693115 -26.1299991607666,-10.4350004196167 -26.1299991607666,-10.4350004196167 C-26.1299991607666,-10.4350004196167 -17.420000076293945,-15.694999694824219 -17.420000076293945,-15.694999694824219z">
                    </path>
                </g>
                <g opacity="1" transform="matrix(1,0,0,1,104.91000366210938,189.95399475097656)">
                    <path fill="rgb(113,202,204)" fill-opacity="1"
                        d=" M-27.139999389648438,-27.315000534057617 C-27.139999389648438,-27.315000534057617 -41.68000030517578,-19.905000686645508 -41.68000030517578,-19.905000686645508 C-41.68000030517578,-19.905000686645508 -35.849998474121094,0.39500001072883606 -35.849998474121094,0.39500001072883606 C-35.849998474121094,0.39500001072883606 -26.270000457763672,20.985000610351562 -26.270000457763672,20.985000610351562 C-26.270000457763672,20.985000610351562 -18,24.295000076293945 -18,24.295000076293945 C-18,24.295000076293945 11.4399995803833,27.31399917602539 11.4399995803833,27.31399917602539 C11.4399995803833,27.31399917602539 41.68000030517578,17.31399917602539 41.68000030517578,17.31399917602539 C41.68000030517578,17.31399917602539 25.1200008392334,-24.21500015258789 25.1200008392334,-24.21500015258789 C25.1200008392334,-24.21500015258789 11.079999923706055,-1.184999942779541 11.079999923706055,-1.184999942779541 C11.079999923706055,-1.184999942779541 -27.139999389648438,-27.315000534057617 -27.139999389648438,-27.315000534057617z">
                    </path>
                </g>
                <g opacity="1" transform="matrix(1,0,0,1,112.61499786376953,232.2100067138672)">
                    <path fill="rgb(28,118,120)" fill-opacity="1"
                        d=" M-33.974998474121094,-21.270000457763672 C-33.974998474121094,-21.270000457763672 33.974998474121094,-24.94099998474121 33.974998474121094,-24.94099998474121 C33.974998474121094,-24.94099998474121 27.204999923706055,23.7189998626709 27.204999923706055,23.7189998626709 C27.204999923706055,23.7189998626709 5.105000019073486,24.94099998474121 5.105000019073486,24.94099998474121 C5.105000019073486,24.94099998474121 -21.524999618530273,20.839000701904297 -21.524999618530273,20.839000701904297 C-21.524999618530273,20.839000701904297 -33.974998474121094,-21.270000457763672 -33.974998474121094,-21.270000457763672z">
                    </path>
                </g>
            </g>
        </g>
        <g transform="matrix(1,0,0,1,90.57999420166016,-0.25)" opacity="1" style="display: block;">
            <g opacity="1" transform="matrix(1,0,0,1,0,0)">
                <g opacity="0.1" transform="matrix(1,0,0,1,124.23500061035156,388.4100036621094)">
                    <path fill="rgb(43,43,43)" fill-opacity="1"
                        d=" M-82.38500213623047,0.10899999737739563 C-82.38500213623047,0.10899999737739563 2.625,-11.84000015258789 2.625,-11.84000015258789 C2.625,-11.84000015258789 82.38500213623047,1.1890000104904175 82.38500213623047,1.1890000104904175 C82.38500213623047,1.1890000104904175 2.125,11.84000015258789 2.125,11.84000015258789 C2.125,11.84000015258789 -82.38500213623047,0.10899999737739563 -82.38500213623047,0.10899999737739563z">
                    </path>
                </g>
                <g opacity="1" transform="matrix(1,0,0,1,80.03500366210938,379.65899658203125)">
                    <path fill="rgb(70,70,70)" fill-opacity="1"
                        d=" M3.2049999237060547,-13.100000381469727 C3.2049999237060547,-13.100000381469727 -3.2049999237060547,0.800000011920929 -3.2049999237060547,0.800000011920929 C-3.2049999237060547,0.800000011920929 1.475000023841858,13.100000381469727 1.475000023841858,13.100000381469727 C1.475000023841858,13.100000381469727 3.2049999237060547,-13.100000381469727 3.2049999237060547,-13.100000381469727z">
                    </path>
                </g>
                <g opacity="1" transform="matrix(1,0,0,1,92.45500183105469,375.9949951171875)">
                    <path fill="rgb(195,151,122)" fill-opacity="1"
                        d=" M9.354999542236328,-3.315999984741211 C9.354999542236328,-3.315999984741211 6.625,-11.736000061035156 6.625,-11.736000061035156 C6.625,-11.736000061035156 -9.21500015258789,-9.435999870300293 -9.21500015258789,-9.435999870300293 C-9.21500015258789,-9.435999870300293 -10.725000381469727,7.486000061035156 -10.725000381469727,7.486000061035156 C-10.725000381469727,7.486000061035156 -10.944999694824219,11.736000061035156 -10.944999694824219,11.736000061035156 C-10.944999694824219,11.736000061035156 6.914999961853027,7.486000061035156 6.914999961853027,7.486000061035156 C6.914999961853027,7.486000061035156 10.944999694824219,1.2239999771118164 10.944999694824219,1.2239999771118164 C10.944999694824219,1.2239999771118164 9.354999542236328,-3.315999984741211 9.354999542236328,-3.315999984741211z">
                    </path>
                </g>
                <g opacity="1" transform="matrix(1,0,0,1,95.87000274658203,383.5140075683594)">
                    <path fill="rgb(110,112,115)" fill-opacity="1"
                        d=" M-14.359999656677246,4.216000080108643 C-14.359999656677246,4.216000080108643 7.53000020980835,-6.295000076293945 7.53000020980835,-6.295000076293945 C7.53000020980835,-6.295000076293945 14.359999656677246,4.216000080108643 14.359999656677246,4.216000080108643 C14.359999656677246,4.216000080108643 3.640000104904175,6.295000076293945 3.640000104904175,6.295000076293945 C3.640000104904175,6.295000076293945 -14.359999656677246,4.216000080108643 -14.359999656677246,4.216000080108643z">
                    </path>
                </g>
                <g opacity="1" transform="matrix(1,0,0,1,95.87000274658203,390.2449951171875)">
                    <path fill="rgb(70,70,70)" fill-opacity="1"
                        d=" M-14.359999656677246,2.5139999389648438 C-14.359999656677246,2.5139999389648438 14.359999656677246,2.5139999389648438 14.359999656677246,2.5139999389648438 C14.359999656677246,2.5139999389648438 14.359999656677246,-2.515000104904175 14.359999656677246,-2.515000104904175 C14.359999656677246,-2.515000104904175 -14.359999656677246,-2.515000104904175 -14.359999656677246,-2.515000104904175 C-14.359999656677246,-2.515000104904175 -14.359999656677246,2.5139999389648438 -14.359999656677246,2.5139999389648438z">
                    </path>
                </g>
                <g opacity="1" transform="matrix(1,0,0,1,93,335.1090087890625)">
                    <path fill="rgb(28,118,120)" fill-opacity="1"
                        d=" M-5.010000228881836,-29.299999237060547 C-5.010000228881836,-29.299999237060547 -10.399999618530273,32.68000030517578 -10.399999618530273,32.68000030517578 C-10.399999618530273,32.68000030517578 7.369999885559082,33.11000061035156 7.369999885559082,33.11000061035156 C7.369999885559082,33.11000061035156 10.399999618530273,-33.11000061035156 10.399999618530273,-33.11000061035156 C10.399999618530273,-33.11000061035156 -5.010000228881836,-29.299999237060547 -5.010000228881836,-29.299999237060547z">
                    </path>
                </g>
                <g opacity="1" transform="matrix(1,0,0,1,144.78500366210938,373.1549987792969)">
                    <path fill="rgb(70,70,70)" fill-opacity="1"
                        d=" M0.6050000190734863,13.78499984741211 C0.6050000190734863,13.78499984741211 -3.494999885559082,13.635000228881836 -3.494999885559082,13.635000228881836 C-3.494999885559082,13.635000228881836 -6.15500020980835,-2.635999917984009 -6.15500020980835,-2.635999917984009 C-6.15500020980835,-2.635999917984009 -2.2750000953674316,-13.78499984741211 -2.2750000953674316,-13.78499984741211 C-2.2750000953674316,-13.78499984741211 6.15500020980835,-7.236000061035156 6.15500020980835,-7.236000061035156 C6.15500020980835,-7.236000061035156 3.996000051498413,-0.765999972820282 3.996000051498413,-0.765999972820282 C3.996000051498413,-0.765999972820282 0.6050000190734863,13.78499984741211 0.6050000190734863,13.78499984741211z">
                    </path>
                </g>
                <g opacity="1" transform="matrix(1,0,0,1,155.1300048828125,370.010009765625)">
                    <path fill="rgb(195,151,122)" fill-opacity="1"
                        d=" M10.210000038146973,-3.0810000896453857 C10.210000038146973,-3.0810000896453857 6.150000095367432,-10.8100004196167 6.150000095367432,-10.8100004196167 C6.150000095367432,-10.8100004196167 -12.619999885559082,-10.640999794006348 -12.619999885559082,-10.640999794006348 C-12.619999885559082,-10.640999794006348 -3.190000057220459,7.849999904632568 -3.190000057220459,7.849999904632568 C-3.190000057220459,7.849999904632568 -0.8799999952316284,10.8100004196167 -0.8799999952316284,10.8100004196167 C-0.8799999952316284,10.8100004196167 9.550000190734863,7.709000110626221 9.550000190734863,7.709000110626221 C9.550000190734863,7.709000110626221 12.619999885559082,0.8190000057220459 12.619999885559082,0.8190000057220459 C12.619999885559082,0.8190000057220459 10.210000038146973,-3.0810000896453857 10.210000038146973,-3.0810000896453857z">
                    </path>
                </g>
                <g opacity="1" transform="matrix(1,0,0,1,167.27999877929688,377.3699951171875)">
                    <path fill="rgb(110,112,115)" fill-opacity="1"
                        d=" M-13.029999732971191,4.449999809265137 C-13.029999732971191,4.449999809265137 0.4699999988079071,-6.539999961853027 0.4699999988079071,-6.539999961853027 C0.4699999988079071,-6.539999961853027 13.029999732971191,4.449999809265137 13.029999732971191,4.449999809265137 C13.029999732971191,4.449999809265137 -0.8009999990463257,6.539999961853027 -0.8009999990463257,6.539999961853027 C-0.8009999990463257,6.539999961853027 -13.029999732971191,4.449999809265137 -13.029999732971191,4.449999809265137z">
                    </path>
                </g>
                <g opacity="1" transform="matrix(1,0,0,1,163.32000732421875,379.5199890136719)">
                    <path fill="rgb(70,70,70)" fill-opacity="1"
                        d=" M-14.399999618530273,-7.559999942779541 C-14.399999618530273,-7.559999942779541 -16.700000762939453,-5.110000133514404 -16.700000762939453,-5.110000133514404 C-16.700000762939453,-5.110000133514404 -16.989999771118164,0.36000001430511475 -16.989999771118164,0.36000001430511475 C-16.989999771118164,0.36000001430511475 -5.619999885559082,7.559999942779541 -5.619999885559082,7.559999942779541 C-5.619999885559082,7.559999942779541 16.989999771118164,7.559999942779541 16.989999771118164,7.559999942779541 C16.989999771118164,7.559999942779541 16.989999771118164,2.299999952316284 16.989999771118164,2.299999952316284 C16.989999771118164,2.299999952316284 -1.7999999523162842,2.299999952316284 -1.7999999523162842,2.299999952316284 C-1.7999999523162842,2.299999952316284 -14.399999618530273,-7.559999942779541 -14.399999618530273,-7.559999942779541z">
                    </path>
                </g>
                <g opacity="1" transform="matrix(1,0,0,1,115.45500183105469,270.93499755859375)">
                    <path fill="rgb(113,202,204)" fill-opacity="1"
                        d=" M-24.364999771118164,-17.885000228881836 C-24.364999771118164,-17.885000228881836 -1.7649999856948853,9.104999542236328 -1.7649999856948853,9.104999542236328 C-1.7649999856948853,9.104999542236328 11.984999656677246,17.885000228881836 11.984999656677246,17.885000228881836 C11.984999656677246,17.885000228881836 23.71500015258789,6.943999767303467 23.71500015258789,6.943999767303467 C23.71500015258789,6.943999767303467 24.364999771118164,-15.005000114440918 24.364999771118164,-15.005000114440918 C24.364999771118164,-15.005000114440918 -24.364999771118164,-17.885000228881836 -24.364999771118164,-17.885000228881836z">
                    </path>
                </g>
                <g opacity="1" transform="matrix(1,0,0,1,102.82099914550781,310.6340026855469)">
                    <path fill="rgb(54,147,149)" fill-opacity="1"
                        d=" M-11.729999542236328,-57.584999084472656 C-11.729999542236328,-57.584999084472656 24.6200008392334,-21.81399917602539 24.6200008392334,-21.81399917602539 C24.6200008392334,-21.81399917602539 28.58099937438965,19.21500015258789 28.58099937438965,19.21500015258789 C28.58099937438965,19.21500015258789 -2.4509999752044678,57.584999084472656 -2.4509999752044678,57.584999084472656 C-2.4509999752044678,57.584999084472656 -28.58099937438965,-28.21500015258789 -28.58099937438965,-28.21500015258789 C-28.58099937438965,-28.21500015258789 -11.729999542236328,-57.584999084472656 -11.729999542236328,-57.584999084472656z">
                    </path>
                </g>
                <g opacity="1" transform="matrix(1,0,0,1,139.63999938964844,284.39898681640625)">
                    <path fill="rgb(80,169,170)" fill-opacity="1"
                        d=" M0.1809999942779541,-28.469999313354492 C0.1809999942779541,-28.469999313354492 12.201000213623047,28.469999313354492 12.201000213623047,28.469999313354492 C12.201000213623047,28.469999313354492 2.119999885559082,22.350000381469727 2.119999885559082,22.350000381469727 C2.119999885559082,22.350000381469727 -12.201000213623047,4.421000003814697 -12.201000213623047,4.421000003814697 C-12.201000213623047,4.421000003814697 0.1809999942779541,-28.469999313354492 0.1809999942779541,-28.469999313354492z">
                    </path>
                </g>
                <g opacity="1" transform="matrix(1,0,0,1,130.8260040283203,328.5190124511719)">
                    <path fill="rgb(28,118,120)" fill-opacity="1"
                        d=" M-3.385999917984009,-39.70000076293945 C-3.385999917984009,-39.70000076293945 21.013999938964844,-15.649999618530273 21.013999938964844,-15.649999618530273 C21.013999938964844,-15.649999618530273 30.454999923706055,30.68000030517578 30.454999923706055,30.68000030517578 C30.454999923706055,30.68000030517578 -30.454999923706055,39.69900131225586 -30.454999923706055,39.69900131225586 C-30.454999923706055,39.69900131225586 -3.385999917984009,-39.70000076293945 -3.385999917984009,-39.70000076293945z">
                    </path>
                </g>
            </g>
        </g>
        <g transform="matrix(1,0,0,1,90.57999420166016,-0.25)" opacity="0.2" style="display: block;">
            <g opacity="1" transform="matrix(1,0,0,1,108.98500061035156,267.1700134277344)">
                <path fill="rgb(43,43,43)" fill-opacity="1"
                    d=" M-33.35499954223633,19.780000686645508 C-33.35499954223633,19.780000686645508 -30.344999313354492,29.670000076293945 -30.344999313354492,29.670000076293945 C-30.344999313354492,29.670000076293945 32.70500183105469,-24.559999465942383 32.70500183105469,-24.559999465942383 C32.70500183105469,-24.559999465942383 33.35499954223633,-29.670000076293945 33.35499954223633,-29.670000076293945 C33.35499954223633,-29.670000076293945 -24.375,-2.6110000610351562 -24.375,-2.6110000610351562 C-24.375,-2.6110000610351562 -33.35499954223633,19.780000686645508 -33.35499954223633,19.780000686645508z">
                </path>
            </g>
        </g>
        <g transform="matrix(1,0,0,1,90.57999420166016,-0.25)" opacity="1" style="display: block;">
            <g opacity="1" transform="matrix(1,0,0,1,203.08999633789062,212.6649932861328)">
                <path fill="rgb(195,151,122)" fill-opacity="1"
                    d=" M-1.7999999523162842,5.684000015258789 C-1.7999999523162842,5.684000015258789 4.96999979019165,-2.6649999618530273 4.96999979019165,-2.6649999618530273 C4.96999979019165,-2.6649999618530273 0.5799999833106995,-5.684000015258789 0.5799999833106995,-5.684000015258789 C0.5799999833106995,-5.684000015258789 -4.96999979019165,-1.725000023841858 -4.96999979019165,-1.725000023841858 C-4.96999979019165,-1.725000023841858 -4.889999866485596,2.5250000953674316 -4.889999866485596,2.5250000953674316 C-4.889999866485596,2.5250000953674316 -1.7999999523162842,5.684000015258789 -1.7999999523162842,5.684000015258789z">
                </path>
            </g>
        </g>
        <g transform="matrix(1,0,0,1,90.57999420166016,-0.25)" opacity="1" style="display: block;">
            <g opacity="1" transform="matrix(1,0,0,1,53.869998931884766,197.58399963378906)">
                <path fill="rgb(143,143,143)" fill-opacity="1"
                    d=" M9.359999656677246,-27.53499984741211 C9.359999656677246,-27.53499984741211 -24.690000534057617,27.53499984741211 -24.690000534057617,27.53499984741211 C-24.690000534057617,27.53499984741211 -6.190000057220459,24.364999771118164 -6.190000057220459,24.364999771118164 C-6.190000057220459,24.364999771118164 6.909999847412109,18.395999908447266 6.909999847412109,18.395999908447266 C6.909999847412109,18.395999908447266 24.690000534057617,13.21500015258789 24.690000534057617,13.21500015258789 C24.690000534057617,13.21500015258789 9.359999656677246,-27.53499984741211 9.359999656677246,-27.53499984741211z">
                </path>
            </g>
        </g>
        <g transform="matrix(1,0,0,1,90.57999420166016,-0.25)" opacity="1" style="display: block;">
            <g opacity="1" transform="matrix(1,0,0,1,49.625,235.16000366210938)">
                <path fill="rgb(70,70,70)" fill-opacity="1"
                    d=" M11.234999656677246,-19.18000030517578 C11.234999656677246,-19.18000030517578 20.44499969482422,13.069999694824219 20.44499969482422,13.069999694824219 C20.44499969482422,13.069999694824219 13.755000114440918,18.608999252319336 13.755000114440918,18.608999252319336 C13.755000114440918,18.608999252319336 6.264999866485596,19.18000030517578 6.264999866485596,19.18000030517578 C6.264999866485596,19.18000030517578 -20.44499969482422,-10.038999557495117 -20.44499969482422,-10.038999557495117 C-20.44499969482422,-10.038999557495117 11.234999656677246,-19.18000030517578 11.234999656677246,-19.18000030517578z">
                </path>
            </g>
        </g>
        <g transform="matrix(1,0,0,1,90.57999420166016,-0.25)" opacity="1" style="display: block;">
            <g opacity="1" transform="matrix(1,0,0,1,0,0)">
                <g opacity="1" transform="matrix(1,0,0,1,128.9499969482422,233.86500549316406)">
                    <path fill="rgb(94,192,217)" fill-opacity="1"
                        d=" M-87.0999984741211,36.24599838256836 C-87.0999984741211,36.24599838256836 -78.02999877929688,53.08599853515625 -78.02999877929688,53.08599853515625 C-78.02999877929688,53.08599853515625 87.0999984741211,-36.24399948120117 87.0999984741211,-36.24399948120117 C87.0999984741211,-36.24399948120117 77.95999908447266,-53.084999084472656 77.95999908447266,-53.084999084472656 C77.95999908447266,-53.084999084472656 -87.0999984741211,36.24599838256836 -87.0999984741211,36.24599838256836z M-74.0999984741211,46.32600021362305 C-74.0999984741211,46.32600021362305 -74.0999984741211,46.32600021362305 -74.0999984741211,46.32600021362305 C-75.2760009765625,46.95899963378906 -76.74299621582031,46.54100036621094 -77.41000366210938,45.3849983215332 C-77.98500061035156,44.24599838256836 -77.572998046875,42.85599899291992 -76.47000122070312,42.215999603271484 C-75.29499816894531,41.57099914550781 -73.82099914550781,41.9900016784668 -73.16000366210938,43.154998779296875 C-72.53099822998047,44.26499938964844 -72.9209976196289,45.67599868774414 -74.03099822998047,46.30500030517578 C-74.04399871826172,46.31100082397461 -74.05699920654297,46.31800079345703 -74.06999969482422,46.32600021362305 C-74.06999969482422,46.32600021362305 -74.0999984741211,46.32600021362305 -74.0999984741211,46.32600021362305z">
                    </path>
                </g>
                <g opacity="1" transform="matrix(1,0,0,1,126.03500366210938,228.46499633789062)">
                    <path fill="rgb(115,207,228)" fill-opacity="1"
                        d=" M84.18499755859375,-41.6349983215332 C84.18499755859375,-41.6349983215332 -81.01499938964844,47.685001373291016 -81.01499938964844,47.685001373291016 C-81.01499938964844,47.685001373291016 -84.18499755859375,41.64500045776367 -84.18499755859375,41.64500045776367 C-84.18499755859375,41.64500045776367 80.875,-47.685001373291016 80.875,-47.685001373291016 C80.875,-47.685001373291016 84.18499755859375,-41.6349983215332 84.18499755859375,-41.6349983215332z">
                    </path>
                </g>
                <g opacity="1" transform="matrix(1,0,0,1,0,0)">
                    <g opacity="1" transform="matrix(1,0,0,1,48.040000915527344,270.5050048828125)">
                        <path fill="rgb(48,143,166)" fill-opacity="1"
                            d=" M2.5899999141693115,2.553999900817871 C2.5899999141693115,2.553999900817871 0.7200000286102295,3.565000057220459 0.7200000286102295,3.565000057220459 C0.7200000286102295,3.565000057220459 -2.5899999141693115,-2.4159998893737793 -2.5899999141693115,-2.4159998893737793 C-2.5899999141693115,-2.4159998893737793 -0.5699999928474426,-3.565000057220459 -0.5699999928474426,-3.565000057220459 C-0.5699999928474426,-3.565000057220459 2.5899999141693115,2.553999900817871 2.5899999141693115,2.553999900817871z">
                        </path>
                    </g>
                    <g opacity="1" transform="matrix(1,0,0,1,52.650001525878906,266.7590026855469)">
                        <path fill="rgb(48,143,166)" fill-opacity="1"
                            d=" M1.5099999904632568,1.7599999904632568 C1.5099999904632568,1.7599999904632568 0.6499999761581421,2.200000047683716 0.6499999761581421,2.200000047683716 C0.6499999761581421,2.200000047683716 -1.5099999904632568,-1.7599999904632568 -1.5099999904632568,-1.7599999904632568 C-1.5099999904632568,-1.7599999904632568 -0.6499999761581421,-2.200000047683716 -0.6499999761581421,-2.200000047683716 C-0.6499999761581421,-2.200000047683716 1.5099999904632568,1.7599999904632568 1.5099999904632568,1.7599999904632568z">
                        </path>
                    </g>
                    <g opacity="1" transform="matrix(1,0,0,1,57.255001068115234,264.2799987792969)">
                        <path fill="rgb(48,143,166)" fill-opacity="1"
                            d=" M1.5149999856948853,1.7200000286102295 C1.5149999856948853,1.7200000286102295 0.6549999713897705,2.2300000190734863 0.6549999713897705,2.2300000190734863 C0.6549999713897705,2.2300000190734863 -1.5149999856948853,-1.7999999523162842 -1.5149999856948853,-1.7999999523162842 C-1.5149999856948853,-1.7999999523162842 -0.6449999809265137,-2.2300000190734863 -0.6449999809265137,-2.2300000190734863 C-0.6449999809265137,-2.2300000190734863 1.5149999856948853,1.7200000286102295 1.5149999856948853,1.7200000286102295z">
                        </path>
                    </g>
                    <g opacity="1" transform="matrix(1,0,0,1,61.8650016784668,261.79400634765625)">
                        <path fill="rgb(48,143,166)" fill-opacity="1"
                            d=" M1.5149999856948853,1.6950000524520874 C1.5149999856948853,1.6950000524520874 0.6449999809265137,2.2639999389648438 0.6449999809265137,2.2639999389648438 C0.6449999809265137,2.2639999389648438 -1.5149999856948853,-1.7640000581741333 -1.5149999856948853,-1.7640000581741333 C-1.5149999856948853,-1.7640000581741333 -0.6549999713897705,-2.2639999389648438 -0.6549999713897705,-2.2639999389648438 C-0.6549999713897705,-2.2639999389648438 1.5149999856948853,1.6950000524520874 1.5149999856948853,1.6950000524520874z">
                        </path>
                    </g>
                    <g opacity="1" transform="matrix(1,0,0,1,67.4800033569336,260.0639953613281)">
                        <path fill="rgb(48,143,166)" fill-opacity="1"
                            d=" M2.5899999141693115,2.484999895095825 C2.5899999141693115,2.484999895095825 0.7200000286102295,3.565000057220459 0.7200000286102295,3.565000057220459 C0.7200000286102295,3.565000057220459 -2.5899999141693115,-2.484999895095825 -2.5899999141693115,-2.484999895095825 C-2.5899999141693115,-2.484999895095825 -0.5799999833106995,-3.565000057220459 -0.5799999833106995,-3.565000057220459 C-0.5799999833106995,-3.565000057220459 2.5899999141693115,2.484999895095825 2.5899999141693115,2.484999895095825z">
                        </path>
                    </g>
                    <g opacity="1" transform="matrix(1,0,0,1,72.12000274658203,256.25)">
                        <path fill="rgb(48,143,166)" fill-opacity="1"
                            d=" M1.5499999523162842,1.7699999809265137 C1.5499999523162842,1.7699999809265137 0.6100000143051147,2.2699999809265137 0.6100000143051147,2.2699999809265137 C0.6100000143051147,2.2699999809265137 -1.5499999523162842,-1.690000057220459 -1.5499999523162842,-1.690000057220459 C-1.5499999523162842,-1.690000057220459 -0.6800000071525574,-2.2690000534057617 -0.6800000071525574,-2.2690000534057617 C-0.6800000071525574,-2.2690000534057617 1.5499999523162842,1.7699999809265137 1.5499999523162842,1.7699999809265137z">
                        </path>
                    </g>
                    <g opacity="1" transform="matrix(1,0,0,1,81.30000305175781,251.28500366210938)">
                        <path fill="rgb(48,143,166)" fill-opacity="1"
                            d=" M1.5099999904632568,1.7640000581741333 C1.5099999904632568,1.7640000581741333 0.6499999761581421,2.196000099182129 0.6499999761581421,2.196000099182129 C0.6499999761581421,2.196000099182129 -1.5099999904632568,-1.7660000324249268 -1.5099999904632568,-1.7660000324249268 C-1.5099999904632568,-1.7660000324249268 -0.6499999761581421,-2.194999933242798 -0.6499999761581421,-2.194999933242798 C-0.6499999761581421,-2.194999933242798 1.5099999904632568,1.7640000581741333 1.5099999904632568,1.7640000581741333z">
                        </path>
                    </g>
                    <g opacity="1" transform="matrix(1,0,0,1,86.91500091552734,249.52000427246094)">
                        <path fill="rgb(48,143,166)" fill-opacity="1"
                            d=" M2.5950000286102295,2.5199999809265137 C2.5950000286102295,2.5199999809265137 0.7149999737739563,3.5299999713897705 0.7149999737739563,3.5299999713897705 C0.7149999737739563,3.5299999713897705 -2.5950000286102295,-2.5199999809265137 -2.5950000286102295,-2.5199999809265137 C-2.5950000286102295,-2.5199999809265137 -0.574999988079071,-3.5299999713897705 -0.574999988079071,-3.5299999713897705 C-0.574999988079071,-3.5299999713897705 2.5950000286102295,2.5199999809265137 2.5950000286102295,2.5199999809265137z">
                        </path>
                    </g>
                    <g opacity="1" transform="matrix(1,0,0,1,91.5199966430664,245.7449951171875)">
                        <path fill="rgb(48,143,166)" fill-opacity="1"
                            d=" M1.5800000429153442,1.7640000581741333 C1.5800000429153442,1.7640000581741333 0.6499999761581421,2.196000099182129 0.6499999761581421,2.196000099182129 C0.6499999761581421,2.196000099182129 -1.5800000429153442,-1.7640000581741333 -1.5800000429153442,-1.7640000581741333 C-1.5800000429153442,-1.7640000581741333 -0.5799999833106995,-2.194999933242798 -0.5799999833106995,-2.194999933242798 C-0.5799999833106995,-2.194999933242798 1.5800000429153442,1.7640000581741333 1.5800000429153442,1.7640000581741333z">
                        </path>
                    </g>
                    <g opacity="1" transform="matrix(1,0,0,1,96.125,243.29400634765625)">
                        <path fill="rgb(48,143,166)" fill-opacity="1"
                            d=" M1.5149999856948853,1.6950000524520874 C1.5149999856948853,1.6950000524520874 0.6449999809265137,2.2639999389648438 0.6449999809265137,2.2639999389648438 C0.6449999809265137,2.2639999389648438 -1.5149999856948853,-1.8350000381469727 -1.5149999856948853,-1.8350000381469727 C-1.5149999856948853,-1.8350000381469727 -0.6449999809265137,-2.2639999389648438 -0.6449999809265137,-2.2639999389648438 C-0.6449999809265137,-2.2639999389648438 1.5149999856948853,1.6950000524520874 1.5149999856948853,1.6950000524520874z">
                        </path>
                    </g>
                    <g opacity="1" transform="matrix(1,0,0,1,100.73500061035156,240.77499389648438)">
                        <path fill="rgb(48,143,166)" fill-opacity="1"
                            d=" M1.5149999856948853,1.7649999856948853 C1.5149999856948853,1.7649999856948853 0.6449999809265137,2.265000104904175 0.6449999809265137,2.265000104904175 C0.6449999809265137,2.265000104904175 -1.5149999856948853,-1.684999942779541 -1.5149999856948853,-1.684999942779541 C-1.5149999856948853,-1.684999942779541 -0.6449999809265137,-2.265000104904175 -0.6449999809265137,-2.265000104904175 C-0.6449999809265137,-2.265000104904175 1.5149999856948853,1.7649999856948853 1.5149999856948853,1.7649999856948853z">
                        </path>
                    </g>
                    <g opacity="1" transform="matrix(1,0,0,1,106.41999816894531,239.0500030517578)">
                        <path fill="rgb(48,143,166)" fill-opacity="1"
                            d=" M2.5899999141693115,2.4800000190734863 C2.5899999141693115,2.4800000190734863 0.6499999761581421,3.559999942779541 0.6499999761581421,3.559999942779541 C0.6499999761581421,3.559999942779541 -2.5899999141693115,-2.490999937057495 -2.5899999141693115,-2.490999937057495 C-2.5899999141693115,-2.490999937057495 -0.7200000286102295,-3.559999942779541 -0.7200000286102295,-3.559999942779541 C-0.7200000286102295,-3.559999942779541 2.5899999141693115,2.4800000190734863 2.5899999141693115,2.4800000190734863z">
                        </path>
                    </g>
                    <g opacity="1" transform="matrix(1,0,0,1,110.98999786376953,235.23500061035156)">
                        <path fill="rgb(48,143,166)" fill-opacity="1"
                            d=" M1.5499999523162842,1.7649999856948853 C1.5499999523162842,1.7649999856948853 0.6100000143051147,2.265000104904175 0.6100000143051147,2.265000104904175 C0.6100000143051147,2.265000104904175 -1.5499999523162842,-1.6950000524520874 -1.5499999523162842,-1.6950000524520874 C-1.5499999523162842,-1.6950000524520874 -0.6100000143051147,-2.265000104904175 -0.6100000143051147,-2.265000104904175 C-0.6100000143051147,-2.265000104904175 1.5499999523162842,1.7649999856948853 1.5499999523162842,1.7649999856948853z">
                        </path>
                    </g>
                    <g opacity="1" transform="matrix(1,0,0,1,115.62999725341797,232.75)">
                        <path fill="rgb(48,143,166)" fill-opacity="1"
                            d=" M1.5099999904632568,1.7990000247955322 C1.5099999904632568,1.7990000247955322 0.6510000228881836,2.2309999465942383 0.6510000228881836,2.2309999465942383 C0.6510000228881836,2.2309999465942383 -1.5099999904632568,-1.7300000190734863 -1.5099999904632568,-1.7300000190734863 C-1.5099999904632568,-1.7300000190734863 -0.6499999761581421,-2.2300000190734863 -0.6499999761581421,-2.2300000190734863 C-0.6499999761581421,-2.2300000190734863 1.5099999904632568,1.7990000247955322 1.5099999904632568,1.7990000247955322z">
                        </path>
                    </g>
                    <g opacity="1" transform="matrix(1,0,0,1,120.16999816894531,230.26499938964844)">
                        <path fill="rgb(48,143,166)" fill-opacity="1"
                            d=" M1.5099999904632568,1.7649999856948853 C1.5099999904632568,1.7649999856948853 0.6510000228881836,2.194999933242798 0.6510000228881836,2.194999933242798 C0.6510000228881836,2.194999933242798 -1.5099999904632568,-1.7649999856948853 -1.5099999904632568,-1.7649999856948853 C-1.5099999904632568,-1.7649999856948853 -0.6499999761581421,-2.194999933242798 -0.6499999761581421,-2.194999933242798 C-0.6499999761581421,-2.194999933242798 1.5099999904632568,1.7649999856948853 1.5099999904632568,1.7649999856948853z">
                        </path>
                    </g>
                    <g opacity="1" transform="matrix(1,0,0,1,125.8550033569336,228.5050048828125)">
                        <path fill="rgb(48,143,166)" fill-opacity="1"
                            d=" M2.5950000286102295,2.5139999389648438 C2.5950000286102295,2.5139999389648438 0.7250000238418579,3.5250000953674316 0.7250000238418579,3.5250000953674316 C0.7250000238418579,3.5250000953674316 -2.5950000286102295,-2.5250000953674316 -2.5950000286102295,-2.5250000953674316 C-2.5950000286102295,-2.5250000953674316 -0.7160000205039978,-3.5250000953674316 -0.7160000205039978,-3.5250000953674316 C-0.7160000205039978,-3.5250000953674316 2.5950000286102295,2.5139999389648438 2.5950000286102295,2.5139999389648438z">
                        </path>
                    </g>
                    <g opacity="1" transform="matrix(1,0,0,1,130.38999938964844,224.72500610351562)">
                        <path fill="rgb(48,143,166)" fill-opacity="1"
                            d=" M1.5099999904632568,1.7649999856948853 C1.5099999904632568,1.7649999856948853 0.6499999761581421,2.194999933242798 0.6499999761581421,2.194999933242798 C0.6499999761581421,2.194999933242798 -1.5110000371932983,-1.7649999856948853 -1.5110000371932983,-1.7649999856948853 C-1.5110000371932983,-1.7649999856948853 -0.6499999761581421,-2.194999933242798 -0.6499999761581421,-2.194999933242798 C-0.6499999761581421,-2.194999933242798 1.5099999904632568,1.7649999856948853 1.5099999904632568,1.7649999856948853z">
                        </path>
                    </g>
                    <g opacity="1" transform="matrix(1,0,0,1,135.02999877929688,222.27499389648438)">
                        <path fill="rgb(48,143,166)" fill-opacity="1"
                            d=" M1.5509999990463257,1.7649999856948853 C1.5509999990463257,1.7649999856948853 0.6110000014305115,2.265000104904175 0.6110000014305115,2.265000104904175 C0.6110000014305115,2.265000104904175 -1.5509999990463257,-1.8350000381469727 -1.5509999990463257,-1.8350000381469727 C-1.5509999990463257,-1.8350000381469727 -0.609000027179718,-2.265000104904175 -0.609000027179718,-2.265000104904175 C-0.609000027179718,-2.265000104904175 1.5509999990463257,1.7649999856948853 1.5509999990463257,1.7649999856948853z">
                        </path>
                    </g>
                    <g opacity="1" transform="matrix(1,0,0,1,139.60000610351562,219.7550048828125)">
                        <path fill="rgb(48,143,166)" fill-opacity="1"
                            d=" M1.5099999904632568,1.7640000581741333 C1.5099999904632568,1.7640000581741333 0.6499999761581421,2.2639999389648438 0.6499999761581421,2.2639999389648438 C0.6499999761581421,2.2639999389648438 -1.5110000371932983,-1.6950000524520874 -1.5110000371932983,-1.6950000524520874 C-1.5110000371932983,-1.6950000524520874 -0.6399999856948853,-2.2639999389648438 -0.6399999856948853,-2.2639999389648438 C-0.6399999856948853,-2.2639999389648438 1.5099999904632568,1.7640000581741333 1.5099999904632568,1.7640000581741333z">
                        </path>
                    </g>
                    <g opacity="1" transform="matrix(1,0,0,1,145.2899932861328,218.0290069580078)">
                        <path fill="rgb(48,143,166)" fill-opacity="1"
                            d=" M2.5899999141693115,2.559999942779541 C2.5899999141693115,2.559999942779541 0.7200000286102295,3.559999942779541 0.7200000286102295,3.559999942779541 C0.7200000286102295,3.559999942779541 -2.5899999141693115,-2.4800000190734863 -2.5899999141693115,-2.4800000190734863 C-2.5899999141693115,-2.4800000190734863 -0.6499999761581421,-3.559999942779541 -0.6499999761581421,-3.559999942779541 C-0.6499999761581421,-3.559999942779541 2.5899999141693115,2.559999942779541 2.5899999141693115,2.559999942779541z">
                        </path>
                    </g>
                    <g opacity="1" transform="matrix(1,0,0,1,149.8249969482422,214.25)">
                        <path fill="rgb(48,143,166)" fill-opacity="1"
                            d=" M1.5149999856948853,1.7300000190734863 C1.5149999856948853,1.7300000190734863 0.6449999809265137,2.2300000190734863 0.6449999809265137,2.2300000190734863 C0.6449999809265137,2.2300000190734863 -1.5149999856948853,-1.7300000190734863 -1.5149999856948853,-1.7300000190734863 C-1.5149999856948853,-1.7300000190734863 -0.6449999809265137,-2.2300000190734863 -0.6449999809265137,-2.2300000190734863 C-0.6449999809265137,-2.2300000190734863 1.5149999856948853,1.7300000190734863 1.5149999856948853,1.7300000190734863z">
                        </path>
                    </g>
                    <g opacity="1" transform="matrix(1,0,0,1,154.46499633789062,211.72999572753906)">
                        <path fill="rgb(48,143,166)" fill-opacity="1"
                            d=" M1.5449999570846558,1.7999999523162842 C1.5449999570846558,1.7999999523162842 0.6150000095367432,2.2300000190734863 0.6150000095367432,2.2300000190734863 C0.6150000095367432,2.2300000190734863 -1.5449999570846558,-1.7300000190734863 -1.5449999570846558,-1.7300000190734863 C-1.5449999570846558,-1.7300000190734863 -0.6039999723434448,-2.2300000190734863 -0.6039999723434448,-2.2300000190734863 C-0.6039999723434448,-2.2300000190734863 1.5449999570846558,1.7999999523162842 1.5449999570846558,1.7999999523162842z">
                        </path>
                    </g>
                    <g opacity="1" transform="matrix(1,0,0,1,159.03500366210938,209.2449951171875)">
                        <path fill="rgb(48,143,166)" fill-opacity="1"
                            d=" M1.5850000381469727,1.7640000581741333 C1.5850000381469727,1.7640000581741333 0.574999988079071,2.196000099182129 0.574999988079071,2.196000099182129 C0.574999988079071,2.196000099182129 -1.5850000381469727,-1.7640000581741333 -1.5850000381469727,-1.7640000581741333 C-1.5850000381469727,-1.7640000581741333 -0.574999988079071,-2.194999933242798 -0.574999988079071,-2.194999933242798 C-0.574999988079071,-2.194999933242798 1.5850000381469727,1.7640000581741333 1.5850000381469727,1.7640000581741333z">
                        </path>
                    </g>
                    <g opacity="1" transform="matrix(1,0,0,1,165.00999450683594,207.4149932861328)">
                        <path fill="rgb(48,143,166)" fill-opacity="1"
                            d=" M2.5899999141693115,2.444999933242798 C2.5899999141693115,2.444999933242798 0.7200000286102295,3.5250000953674316 0.7200000286102295,3.5250000953674316 C0.7200000286102295,3.5250000953674316 -2.5899999141693115,-2.5250000953674316 -2.5899999141693115,-2.5250000953674316 C-2.5899999141693115,-2.5250000953674316 -0.7200000286102295,-3.5250000953674316 -0.7200000286102295,-3.5250000953674316 C-0.7200000286102295,-3.5250000953674316 2.5899999141693115,2.444999933242798 2.5899999141693115,2.444999933242798z">
                        </path>
                    </g>
                    <g opacity="1" transform="matrix(1,0,0,1,169.5500030517578,203.60000610351562)">
                        <path fill="rgb(48,143,166)" fill-opacity="1"
                            d=" M1.5099999904632568,1.7200000286102295 C1.5099999904632568,1.7200000286102295 0.6399999856948853,2.2300000190734863 0.6399999856948853,2.2300000190734863 C0.6399999856948853,2.2300000190734863 -1.5099999904632568,-1.8009999990463257 -1.5099999904632568,-1.8009999990463257 C-1.5099999904632568,-1.8009999990463257 -0.6489999890327454,-2.2300000190734863 -0.6489999890327454,-2.2300000190734863 C-0.6489999890327454,-2.2300000190734863 1.5099999904632568,1.7200000286102295 1.5099999904632568,1.7200000286102295z">
                        </path>
                    </g>
                    <g opacity="1" transform="matrix(1,0,0,1,174.19000244140625,201.11500549316406)">
                        <path fill="rgb(48,143,166)" fill-opacity="1"
                            d=" M1.5509999990463257,1.694000005722046 C1.5509999990463257,1.694000005722046 0.6110000014305115,2.2639999389648438 0.6110000014305115,2.2639999389648438 C0.6110000014305115,2.2639999389648438 -1.5509999990463257,-1.7649999856948853 -1.5509999990463257,-1.7649999856948853 C-1.5509999990463257,-1.7649999856948853 -0.609000027179718,-2.265000104904175 -0.609000027179718,-2.265000104904175 C-0.609000027179718,-2.265000104904175 1.5509999990463257,1.694000005722046 1.5509999990463257,1.694000005722046z">
                        </path>
                    </g>
                    <g opacity="1" transform="matrix(1,0,0,1,178.8000030517578,198.59500122070312)">
                        <path fill="rgb(48,143,166)" fill-opacity="1"
                            d=" M1.5499999523162842,1.8350000381469727 C1.5499999523162842,1.8350000381469727 0.6110000014305115,2.265000104904175 0.6110000014305115,2.265000104904175 C0.6110000014305115,2.265000104904175 -1.5499999523162842,-1.7649999856948853 -1.5499999523162842,-1.7649999856948853 C-1.5499999523162842,-1.7649999856948853 -0.6890000104904175,-2.265000104904175 -0.6890000104904175,-2.265000104904175 C-0.6890000104904175,-2.265000104904175 1.5499999523162842,1.8350000381469727 1.5499999523162842,1.8350000381469727z">
                        </path>
                    </g>
                    <g opacity="1" transform="matrix(1,0,0,1,184.4499969482422,196.8699951171875)">
                        <path fill="rgb(48,143,166)" fill-opacity="1"
                            d=" M2.5899999141693115,2.4800000190734863 C2.5899999141693115,2.4800000190734863 0.7200000286102295,3.559999942779541 0.7200000286102295,3.559999942779541 C0.7200000286102295,3.559999942779541 -2.5899999141693115,-2.490000009536743 -2.5899999141693115,-2.490000009536743 C-2.5899999141693115,-2.490000009536743 -0.6499999761581421,-3.559999942779541 -0.6499999761581421,-3.559999942779541 C-0.6499999761581421,-3.559999942779541 2.5899999141693115,2.4800000190734863 2.5899999141693115,2.4800000190734863z">
                        </path>
                    </g>
                    <g opacity="1" transform="matrix(1,0,0,1,188.97999572753906,193.0500030517578)">
                        <path fill="rgb(48,143,166)" fill-opacity="1"
                            d=" M1.5110000371932983,1.840000033378601 C1.5110000371932983,1.840000033378601 0.6499999761581421,2.2699999809265137 0.6499999761581421,2.2699999809265137 C0.6499999761581421,2.2699999809265137 -1.5110000371932983,-1.690000057220459 -1.5110000371932983,-1.690000057220459 C-1.5110000371932983,-1.690000057220459 -0.6399999856948853,-2.2699999809265137 -0.6399999856948853,-2.2699999809265137 C-0.6399999856948853,-2.2699999809265137 1.5110000371932983,1.840000033378601 1.5110000371932983,1.840000033378601z">
                        </path>
                    </g>
                    <g opacity="1" transform="matrix(1,0,0,1,193.625,190.60499572753906)">
                        <path fill="rgb(48,143,166)" fill-opacity="1"
                            d=" M1.5449999570846558,1.7649999856948853 C1.5449999570846558,1.7649999856948853 0.6150000095367432,2.194999933242798 0.6150000095367432,2.194999933242798 C0.6150000095367432,2.194999933242798 -1.5449999570846558,-1.7649999856948853 -1.5449999570846558,-1.7649999856948853 C-1.5449999570846558,-1.7649999856948853 -0.6150000095367432,-2.194999933242798 -0.6150000095367432,-2.194999933242798 C-0.6150000095367432,-2.194999933242798 1.5449999570846558,1.7649999856948853 1.5449999570846558,1.7649999856948853z">
                        </path>
                    </g>
                    <g opacity="1" transform="matrix(1,0,0,1,198.27000427246094,188.1199951171875)">
                        <path fill="rgb(48,143,166)" fill-opacity="1"
                            d=" M1.5110000371932983,1.7300000190734863 C1.5110000371932983,1.7300000190734863 0.6499999761581421,2.2300000190734863 0.6499999761581421,2.2300000190734863 C0.6499999761581421,2.2300000190734863 -1.5110000371932983,-1.7999999523162842 -1.5110000371932983,-1.7999999523162842 C-1.5110000371932983,-1.7999999523162842 -0.6489999890327454,-2.2300000190734863 -0.6489999890327454,-2.2300000190734863 C-0.6489999890327454,-2.2300000190734863 1.5110000371932983,1.7300000190734863 1.5110000371932983,1.7300000190734863z">
                        </path>
                    </g>
                    <g opacity="1" transform="matrix(1,0,0,1,203.88499450683594,186.35899353027344)">
                        <path fill="rgb(48,143,166)" fill-opacity="1"
                            d=" M2.5950000286102295,2.4800000190734863 C2.5950000286102295,2.4800000190734863 0.7149999737739563,3.490000009536743 0.7149999737739563,3.490000009536743 C0.7149999737739563,3.490000009536743 -2.5950000286102295,-2.490000009536743 -2.5950000286102295,-2.490000009536743 C-2.5950000286102295,-2.490000009536743 -0.6549999713897705,-3.490000009536743 -0.6549999713897705,-3.490000009536743 C-0.6549999713897705,-3.490000009536743 2.5950000286102295,2.4800000190734863 2.5950000286102295,2.4800000190734863z">
                        </path>
                    </g>
                </g>
            </g>
        </g>
        <g transform="matrix(1,0,0,1,90.57999420166016,-0.25)" opacity="1" style="display: block;">
            <g opacity="1" transform="matrix(1,0,0,1,73.2300033569336,263.45001220703125)">
                <path fill="rgb(223,188,164)" fill-opacity="1"
                    d=" M-17.34000015258789,-9.109999656677246 C-17.34000015258789,-9.109999656677246 -6.980000019073486,15.220000267028809 -6.980000019073486,15.220000267028809 C-6.980000019073486,15.220000267028809 1.9500000476837158,12.701000213623047 1.9500000476837158,12.701000213623047 C1.9500000476837158,12.701000213623047 17.34000015258789,2.0490000247955322 17.34000015258789,2.0490000247955322 C17.34000015258789,2.0490000247955322 -3.1600000858306885,-15.218999862670898 -3.1600000858306885,-15.218999862670898 C-3.1600000858306885,-15.218999862670898 -17.34000015258789,-9.109999656677246 -17.34000015258789,-9.109999656677246z">
                </path>
            </g>
        </g>
        <g transform="matrix(1,0,0,1,90.57999420166016,-0.25)" opacity="1" style="display: block;">
            <g opacity="1" transform="matrix(1,0,0,1,78.41000366210938,276.2250061035156)">
                <path fill="rgb(138,102,81)" fill-opacity="1"
                    d=" M12.15999984741211,-10.725000381469727 C12.15999984741211,-10.725000381469727 -12.15999984741211,2.444999933242798 -12.15999984741211,2.444999933242798 C-12.15999984741211,2.444999933242798 -2.7799999713897705,10.725000381469727 -2.7799999713897705,10.725000381469727 C-2.7799999713897705,10.725000381469727 12.15999984741211,-10.725000381469727 12.15999984741211,-10.725000381469727z">
                </path>
            </g>
        </g>
        <g transform="matrix(1,0,0,1,90.57999420166016,-0.25)" opacity="1" style="display: block;">
            <g opacity="1" transform="matrix(1,0,0,1,188.1199951171875,228.10499572753906)">
                <path fill="rgb(138,102,81)" fill-opacity="1"
                    d=" M13.170000076293945,-9.755999565124512 C13.170000076293945,-9.755999565124512 3.450000047683716,6.445000171661377 3.450000047683716,6.445000171661377 C3.450000047683716,6.445000171661377 -9.359999656677246,9.755000114440918 -9.359999656677246,9.755000114440918 C-9.359999656677246,9.755000114440918 -13.170000076293945,2.625999927520752 -13.170000076293945,2.625999927520752 C-13.170000076293945,2.625999927520752 -4.10099983215332,-9.244999885559082 -4.10099983215332,-9.244999885559082 C-4.10099983215332,-9.244999885559082 13.170000076293945,-9.755999565124512 13.170000076293945,-9.755999565124512z">
                </path>
            </g>
        </g>
        <g transform="matrix(1,0,0,1,90.57999420166016,-0.25)" opacity="1" style="display: block;">
            <g opacity="1" transform="matrix(1,0,0,1,188.12100219726562,216.0850067138672)">
                <path fill="rgb(223,188,164)" fill-opacity="1"
                    d=" M5.89900016784668,-14.645000457763672 C5.89900016784668,-14.645000457763672 -9.071000099182129,-4.285999774932861 -9.071000099182129,-4.285999774932861 C-9.071000099182129,-4.285999774932861 -13.170000076293945,14.645000457763672 -13.170000076293945,14.645000457763672 C-13.170000076293945,14.645000457763672 13.170000076293945,2.2639999389648438 13.170000076293945,2.2639999389648438 C13.170000076293945,2.2639999389648438 5.89900016784668,-14.645000457763672 5.89900016784668,-14.645000457763672z">
                </path>
            </g>
        </g>

        <g transform="matrix(1,0,0,1,90.57999420166016,-0.25)" opacity="1" style="display: block;">
            <g opacity="1" transform="matrix(1,0,0,1,0,0)">
                <g opacity="1" transform="matrix(1,0,0,1,152.7100067138672,63.277000427246094)">
                    <path fill="rgb(43,43,43)" fill-opacity="1"
                        d=" M3.7100000381469727,-0.027000000700354576 C3.7269999980926514,2.0220000743865967 2.0789999961853027,3.696000099182129 0.029999999329447746,3.7130000591278076 C-2.0190000534057617,3.7290000915527344 -3.693000078201294,2.0810000896453857 -3.7100000381469727,0.032999999821186066 C-3.7269999980926514,-2.01200008392334 -2.0850000381469727,-3.684999942779541 -0.03999999910593033,-3.7070000171661377 C2.009000062942505,-3.7290000915527344 3.687999963760376,-2.0859999656677246 3.7100000381469727,-0.03700000047683716 C3.7100000381469727,-0.03700000047683716 3.7100000381469727,-0.027000000700354576 3.7100000381469727,-0.027000000700354576z">
                    </path>
                </g>
                <g opacity="1" transform="matrix(1,0,0,1,118.81999969482422,71.79900360107422)">
                    <path fill="rgb(43,43,43)" fill-opacity="1"
                        d=" M3.6700000762939453,0 C3.6700000762939453,2.0269999504089355 2.0260000228881836,3.6700000762939453 0,3.6700000762939453 C-2.0269999504089355,3.6700000762939453 -3.6700000762939453,2.0269999504089355 -3.6700000762939453,0 C-3.6700000762939453,-2.0269999504089355 -2.0269999504089355,-3.6700000762939453 0,-3.6700000762939453 C2.0220000743865967,-3.6589999198913574 3.6579999923706055,-2.0220000743865967 3.6700000762939453,0z">
                    </path>
                </g>
            </g>
        </g>

        <g transform="matrix(1,0,0,1,90.57999420166016,-0.25)" opacity="1" style="display: block;">
            <g opacity="1" transform="matrix(1,0,0,1,136.2449951171875,66.87000274658203)">
                <path fill="rgb(48,143,166)" fill-opacity="1"
                    d=" M34.3849983215332,-21.989999771118164 C34.3849983215332,-21.989999771118164 -39.54600143432617,-4.860000133514404 -39.54600143432617,-4.860000133514404 C-39.54600143432617,-4.860000133514404 -35.005001068115234,21.989999771118164 -35.005001068115234,21.989999771118164 C-35.005001068115234,21.989999771118164 0.33500000834465027,15.869999885559082 0.33500000834465027,15.869999885559082 C0.33500000834465027,15.869999885559082 -4.565000057220459,-6.739999771118164 -4.565000057220459,-6.739999771118164 C-4.565000057220459,-6.739999771118164 4.144999980926514,-8.739999771118164 4.144999980926514,-8.739999771118164 C4.144999980926514,-8.739999771118164 9.545999526977539,13.260000228881836 9.545999526977539,13.260000228881836 C9.545999526977539,13.260000228881836 39.54600143432617,4.840000152587891 39.54600143432617,4.840000152587891 C39.54600143432617,4.840000152587891 34.3849983215332,-21.989999771118164 34.3849983215332,-21.989999771118164z M-33.13399887084961,-0.25 C-33.13399887084961,-0.25 -9.444999694824219,-5.619999885559082 -9.444999694824219,-5.619999885559082 C-9.444999694824219,-5.619999885559082 -5.906000137329102,10.779999732971191 -5.906000137329102,10.779999732971191 C-5.906000137329102,10.779999732971191 -30.975000381469727,15.079999923706055 -30.975000381469727,15.079999923706055 C-30.975000381469727,15.079999923706055 -33.13399887084961,-0.25 -33.13399887084961,-0.25z M12.866000175476074,6.75 C12.866000175476074,6.75 8.484000205993652,-9.329999923706055 8.484000205993652,-9.329999923706055 C8.484000205993652,-9.329999923706055 29.944000244140625,-14.8100004196167 29.944000244140625,-14.8100004196167 C29.944000244140625,-14.8100004196167 32.7239990234375,0.3799999952316284 32.7239990234375,0.3799999952316284 C32.7239990234375,0.3799999952316284 12.866000175476074,6.75 12.866000175476074,6.75z">
                </path>
            </g>
        </g>
    </g>
</svg>