<svg xmlns="http://www.w3.org/2000/svg" viewBox="0 0 400 400" width="100%" height="100%"
    preserveAspectRatio="xMidYMid meet">
    <defs>
        <clipPath id="__lottie_element_377">
            <rect width="400" height="400" x="0" y="0"></rect>
        </clipPath>
    </defs>
    <g clip-path="url(#__lottie_element_377)">
        <g transform="matrix(1,0,0,1,53.201995849609375,-0.24798583984375)" opacity="1" style="display: block;">
            <g opacity="0.1" transform="matrix(1,0,0,1,149.29600524902344,388.32598876953125)">
                <path fill="rgb(0,0,0)" fill-opacity="1"
                    d=" M123.00299835205078,-1.055999994277954 C123.00299835205078,-1.055999994277954 -1.2289999723434448,-11.92300033569336 -1.2289999723434448,-11.92300033569336 C-1.2289999723434448,-11.92300033569336 -123.00199890136719,3.1689999103546143 -123.00199890136719,3.1689999103546143 C-123.00199890136719,3.1689999103546143 -1.8680000305175781,11.923999786376953 -1.8680000305175781,11.923999786376953 C-1.8680000305175781,11.923999786376953 123.00299835205078,-1.055999994277954 123.00299835205078,-1.055999994277954z">
                </path>
            </g>
        </g>
        <g transform="matrix(1,-0.0000023930911083880346,0.0000023930911083880346,1,53.20155334472656,-0.2477874755859375)"
            opacity="1" style="display: block;">
            <g opacity="1" transform="matrix(1,0,0,1,33.856998443603516,262.6289978027344)">
                <path fill="rgb(79,82,82)" fill-opacity="1"
                    d=" M-10.814000129699707,6.76200008392334 C-10.814000129699707,6.76200008392334 -1.1019999980926514,-11.96500015258789 -1.1019999980926514,-11.96500015258789 C-1.1019999980926514,-11.96500015258789 3.6740000247955322,-20.70400047302246 3.6740000247955322,-20.70400047302246 C3.6740000247955322,-20.70400047302246 15.772000312805176,-17.218000411987305 15.772000312805176,-17.218000411987305 C15.772000312805176,-17.218000411987305 10.814000129699707,-9.234999656677246 10.814000129699707,-9.234999656677246 C10.814000129699707,-9.234999656677246 -1.2389999628067017,11.96500015258789 -1.2389999628067017,11.96500015258789 C-1.2389999628067017,11.96500015258789 -10.814000129699707,6.76200008392334 -10.814000129699707,6.76200008392334z">
                </path>
            </g>
        </g>
        <g transform="matrix(1,0,0,1,53.201995849609375,-0.24798583984375)" opacity="1" style="display: block;">
            <g opacity="1" transform="matrix(1,0,0,1,73.35600280761719,220.8090057373047)">
                <path fill="rgb(133,99,0)" fill-opacity="1"
                    d=" M-7.840000152587891,-32.262001037597656 C-7.840000152587891,-32.262001037597656 24.698999404907227,23.739999771118164 24.698999404907227,23.739999771118164 C24.698999404907227,23.739999771118164 -0.37700000405311584,32.262001037597656 -0.37700000405311584,32.262001037597656 C-0.37700000405311584,32.262001037597656 -24.700000762939453,0.6890000104904175 -24.700000762939453,0.6890000104904175 C-24.700000762939453,0.6890000104904175 -7.840000152587891,-32.262001037597656 -7.840000152587891,-32.262001037597656z">
                </path>
            </g>
        </g>
        <g transform="matrix(1,0.000009050670996657573,-0.000009050670996657573,1,53.20347595214844,-0.2496490478515625)"
            opacity="1" style="display: block;">
            <g opacity="1" transform="matrix(1,0,0,1,196.75,200.95399475097656)">
                <path fill="rgb(133,99,0)" fill-opacity="1"
                    d=" M-11.704999923706055,-38.87900161743164 C-11.704999923706055,-38.87900161743164 17.72100067138672,5.14300012588501 17.72100067138672,5.14300012588501 C17.72100067138672,5.14300012588501 13.388999938964844,26.191999435424805 13.388999938964844,26.191999435424805 C13.388999938964844,26.191999435424805 1.3140000104904175,38.87799835205078 1.3140000104904175,38.87799835205078 C1.3140000104904175,38.87799835205078 -14.050999641418457,25.759000778198242 -14.050999641418457,25.759000778198242 C-14.050999641418457,25.759000778198242 -17.72100067138672,-11.446999549865723 -17.72100067138672,-11.446999549865723 C-17.72100067138672,-11.446999549865723 -11.704999923706055,-38.87900161743164 -11.704999923706055,-38.87900161743164z">
                </path>
            </g>
        </g>
        <g transform="matrix(1,0.000009050670996657573,-0.000009050670996657573,1,53.20347595214844,-0.2496490478515625)"
            opacity="1" style="display: block;">
            <g opacity="1" transform="matrix(1,0,0,1,221.2169952392578,221.84100341796875)">
                <path fill="rgb(190,143,0)" fill-opacity="1"
                    d=" M-6.744999885559082,-15.744999885559082 C-6.744999885559082,-15.744999885559082 19.145000457763672,-17.989999771118164 19.145000457763672,-17.989999771118164 C19.145000457763672,-17.989999771118164 23.152000427246094,-4.791999816894531 23.152000427246094,-4.791999816894531 C23.152000427246094,-4.791999816894531 19.413000106811523,11.04800033569336 19.413000106811523,11.04800033569336 C19.413000106811523,11.04800033569336 -23.152000427246094,17.989999771118164 -23.152000427246094,17.989999771118164 C-23.152000427246094,17.989999771118164 -6.744999885559082,-15.744999885559082 -6.744999885559082,-15.744999885559082z">
                </path>
            </g>
        </g>
        <g transform="matrix(1,0,0,1,53.201995849609375,-0.24798583984375)" opacity="1" style="display: block;">
            <g opacity="1" transform="matrix(1,0,0,1,0,0)">
                <g opacity="1" transform="matrix(1,0,0,1,156.67100524902344,315.4840087890625)">
                    <path fill="rgb(133,99,0)" fill-opacity="1"
                        d=" M24.82900047302246,-31.16900062561035 C24.82900047302246,-31.16900062561035 30.125999450683594,9.902999877929688 30.125999450683594,9.902999877929688 C30.125999450683594,9.902999877929688 16.972000122070312,31.16900062561035 16.972000122070312,31.16900062561035 C16.972000122070312,31.16900062561035 -6.874000072479248,27.18899917602539 -6.874000072479248,27.18899917602539 C-6.874000072479248,27.18899917602539 -30.12700080871582,-10.930999755859375 -30.12700080871582,-10.930999755859375 C-30.12700080871582,-10.930999755859375 24.82900047302246,-31.16900062561035 24.82900047302246,-31.16900062561035z">
                    </path>
                </g>
                <g opacity="1" transform="matrix(1,0,0,1,170.2899932861328,346.65301513671875)">
                    <path fill="rgb(117,87,0)" fill-opacity="1"
                        d=" M-20.493000030517578,-3.9790000915527344 C-20.493000030517578,-3.9790000915527344 16.506999969482422,-21.266000747680664 16.506999969482422,-21.266000747680664 C16.506999969482422,-21.266000747680664 20.492000579833984,9.645999908447266 20.492000579833984,9.645999908447266 C20.492000579833984,9.645999908447266 8.291000366210938,21.266000747680664 8.291000366210938,21.266000747680664 C8.291000366210938,21.266000747680664 -5.982999801635742,19.80699920654297 -5.982999801635742,19.80699920654297 C-5.982999801635742,19.80699920654297 -20.493000030517578,-3.9790000915527344 -20.493000030517578,-3.9790000915527344z">
                    </path>
                </g>
                <g opacity="1" transform="matrix(1,0,0,1,190.89100646972656,368.0159912109375)">
                    <path fill="rgb(181,138,0)" fill-opacity="1"
                        d=" M0.5910000205039978,-8.711000442504883 C0.5910000205039978,-8.711000442504883 10.178999900817871,-2.760999917984009 10.178999900817871,-2.760999917984009 C10.178999900817871,-2.760999917984009 26.583999633789062,11.522000312805176 26.583999633789062,11.522000312805176 C26.583999633789062,11.522000312805176 -3.265000104904175,13.739999771118164 -3.265000104904175,13.739999771118164 C-3.265000104904175,13.739999771118164 -25.448999404907227,11.522000312805176 -25.448999404907227,11.522000312805176 C-25.448999404907227,11.522000312805176 -26.583999633789062,-1.5549999475479126 -26.583999633789062,-1.5549999475479126 C-26.583999633789062,-1.5549999475479126 -5.8460001945495605,-13.739999771118164 -5.8460001945495605,-13.739999771118164 C-5.8460001945495605,-13.739999771118164 0.5910000205039978,-8.711000442504883 0.5910000205039978,-8.711000442504883z">
                    </path>
                </g>
                <g opacity="1" transform="matrix(1,0,0,1,192.55499267578125,361.09698486328125)">
                    <path fill="rgb(228,199,40)" fill-opacity="1"
                        d=" M-8.512999534606934,-2.2119998931884766 C-8.512999534606934,-2.2119998931884766 1.5230000019073486,6.822000026702881 1.5230000019073486,6.822000026702881 C1.5230000019073486,6.822000026702881 8.512999534606934,4.1579999923706055 8.512999534606934,4.1579999923706055 C8.512999534606934,4.1579999923706055 -1.7730000019073486,-4.797999858856201 -1.7730000019073486,-4.797999858856201 C-1.7730000019073486,-4.797999858856201 -5.757999897003174,-6.822000026702881 -5.757999897003174,-6.822000026702881 C-5.757999897003174,-6.822000026702881 -8.512999534606934,-2.2119998931884766 -8.512999534606934,-2.2119998931884766z">
                    </path>
                </g>
                <g opacity="1" transform="matrix(1,0,0,1,116.35700225830078,316.2860107421875)">
                    <path fill="rgb(190,143,0)" fill-opacity="1"
                        d=" M30.26300048828125,-3.634000062942505 C30.26300048828125,-3.634000062942505 23.60300064086914,19.448999404907227 23.60300064086914,19.448999404907227 C23.60300064086914,19.448999404907227 2.6510000228881836,30.367000579833984 2.6510000228881836,30.367000579833984 C2.6510000228881836,30.367000579833984 -18.301000595092773,24.733999252319336 -18.301000595092773,24.733999252319336 C-18.301000595092773,24.733999252319336 -30.26300048828125,-30.367000579833984 -30.26300048828125,-30.367000579833984 C-30.26300048828125,-30.367000579833984 13.927000045776367,-17.415000915527344 13.927000045776367,-17.415000915527344 C13.927000045776367,-17.415000915527344 30.26300048828125,-3.634000062942505 30.26300048828125,-3.634000062942505z">
                    </path>
                </g>
                <g opacity="1" transform="matrix(1,0,0,1,119.00700378417969,354.2760009765625)">
                    <path fill="rgb(133,99,0)" fill-opacity="1"
                        d=" M-20.95199966430664,-13.255999565124512 C-20.95199966430664,-13.255999565124512 20.95199966430664,-18.540000915527344 20.95199966430664,-18.540000915527344 C20.95199966430664,-18.540000915527344 12.277000427246094,11.527000427246094 12.277000427246094,11.527000427246094 C12.277000427246094,11.527000427246094 -1.6360000371932983,18.540000915527344 -1.6360000371932983,18.540000915527344 C-1.6360000371932983,18.540000915527344 -15.019000053405762,16.56800079345703 -15.019000053405762,16.56800079345703 C-15.019000053405762,16.56800079345703 -20.95199966430664,-13.255999565124512 -20.95199966430664,-13.255999565124512z">
                    </path>
                </g>
                <g opacity="1" transform="matrix(1,0,0,1,120.677001953125,376.4020080566406)">
                    <path fill="rgb(181,138,0)" fill-opacity="1"
                        d=" M10.607999801635742,-10.597999572753906 C10.607999801635742,-10.597999572753906 19.283000946044922,9.656999588012695 19.283000946044922,9.656999588012695 C19.283000946044922,9.656999588012695 -2.0220000743865967,12.64900016784668 -2.0220000743865967,12.64900016784668 C-2.0220000743865967,12.64900016784668 -19.283000946044922,9.656999588012695 -19.283000946044922,9.656999588012695 C-19.283000946044922,9.656999588012695 -16.68899917602539,-5.557000160217285 -16.68899917602539,-5.557000160217285 C-16.68899917602539,-5.557000160217285 -7.494999885559082,-11.463000297546387 -7.494999885559082,-11.463000297546387 C-7.494999885559082,-11.463000297546387 -2.934000015258789,-12.64900016784668 -2.934000015258789,-12.64900016784668 C-2.934000015258789,-12.64900016784668 1.5379999876022339,-12.64900016784668 1.5379999876022339,-12.64900016784668 C1.5379999876022339,-12.64900016784668 10.607999801635742,-10.597999572753906 10.607999801635742,-10.597999572753906z">
                    </path>
                </g>
                <g opacity="1" transform="matrix(1,0,0,1,120.677001953125,389.04998779296875)">
                    <path fill="rgb(228,199,40)" fill-opacity="1"
                        d=" M19.283000946044922,2.990999937057495 C19.283000946044922,2.990999937057495 -19.283000946044922,2.990999937057495 -19.283000946044922,2.990999937057495 C-19.283000946044922,2.990999937057495 -19.283000946044922,-2.992000102996826 -19.283000946044922,-2.992000102996826 C-19.283000946044922,-2.992000102996826 19.283000946044922,-2.992000102996826 19.283000946044922,-2.992000102996826 C19.283000946044922,-2.992000102996826 19.283000946044922,2.990999937057495 19.283000946044922,2.990999937057495z">
                    </path>
                </g>
                <g opacity="1" transform="matrix(1,0,0,1,119.4020004272461,372.5509948730469)">
                    <path fill="rgb(228,199,40)" fill-opacity="1"
                        d=" M-6.218999862670898,-3.5230000019073486 C-6.218999862670898,-3.5230000019073486 -4.866000175476074,6.090000152587891 -4.866000175476074,6.090000152587891 C-4.866000175476074,6.090000152587891 6.218999862670898,6.090000152587891 6.218999862670898,6.090000152587891 C6.218999862670898,6.090000152587891 2.572000026702881,-5.0879998207092285 2.572000026702881,-5.0879998207092285 C2.572000026702881,-5.0879998207092285 -1.659000039100647,-6.090000152587891 -1.659000039100647,-6.090000152587891 C-1.659000039100647,-6.090000152587891 -6.218999862670898,-3.5230000019073486 -6.218999862670898,-3.5230000019073486z">
                    </path>
                </g>
                <g opacity="1" transform="matrix(1,0,0,1,191.48199462890625,382.4289855957031)">
                    <path fill="rgb(228,199,40)" fill-opacity="1"
                        d=" M26.040000915527344,2.992000102996826 C26.040000915527344,2.992000102996826 -26.038999557495117,2.992000102996826 -26.038999557495117,2.992000102996826 C-26.038999557495117,2.992000102996826 -26.038999557495117,-2.990999937057495 -26.038999557495117,-2.990999937057495 C-26.038999557495117,-2.990999937057495 26.040000915527344,-2.990999937057495 26.040000915527344,-2.990999937057495 C26.040000915527344,-2.990999937057495 26.040000915527344,2.992000102996826 26.040000915527344,2.992000102996826z">
                    </path>
                </g>
                <g opacity="1" transform="matrix(1,0,0,1,133.7969970703125,290.20001220703125)">
                    <path fill="rgb(158,119,0)" fill-opacity="1"
                        d=" M47.702999114990234,-5.885000228881836 C47.702999114990234,-5.885000228881836 12.821999549865723,22.45199966430664 12.821999549865723,22.45199966430664 C12.821999549865723,22.45199966430664 -47.70399856567383,-4.2820000648498535 -47.70399856567383,-4.2820000648498535 C-47.70399856567383,-4.2820000648498535 -5.73199987411499,-10.100000381469727 -5.73199987411499,-10.100000381469727 C-5.73199987411499,-10.100000381469727 14.267999649047852,-22.45199966430664 14.267999649047852,-22.45199966430664 C14.267999649047852,-22.45199966430664 26.53499984741211,-13.234000205993652 26.53499984741211,-13.234000205993652 C26.53499984741211,-13.234000205993652 47.702999114990234,-5.885000228881836 47.702999114990234,-5.885000228881836z">
                    </path>
                </g>
                <g opacity="1" transform="matrix(1,0,0,1,0,0)">
                    <g opacity="1" transform="matrix(1,0,0,1,117.74199676513672,361.718994140625)">
                        <path fill="rgb(158,119,0)" fill-opacity="1"
                            d=" M-17.354000091552734,-8.968999862670898 C-17.354000091552734,-8.968999862670898 17.354000091552734,-9.12600040435791 17.354000091552734,-9.12600040435791 C17.354000091552734,-9.12600040435791 13.541999816894531,4.085000038146973 13.541999816894531,4.085000038146973 C13.541999816894531,4.085000038146973 -13.753999710083008,9.12600040435791 -13.753999710083008,9.12600040435791 C-13.753999710083008,9.12600040435791 -17.354000091552734,-8.968999862670898 -17.354000091552734,-8.968999862670898z">
                        </path>
                    </g>
                    <g opacity="1" transform="matrix(1,0,0,1,117.87300109863281,363.75299072265625)">
                        <path fill="rgb(204,172,19)" fill-opacity="1"
                            d=" M-4.671000003814697,5.389999866485596 C-4.671000003814697,5.389999866485596 -4.671000003814697,-4.447999954223633 -4.671000003814697,-4.447999954223633 C-4.671000003814697,-4.447999954223633 4.671000003814697,-5.388999938964844 4.671000003814697,-5.388999938964844 C4.671000003814697,-5.388999938964844 4.111000061035156,3.7690000534057617 4.111000061035156,3.7690000534057617 C4.111000061035156,3.7690000534057617 -4.671000003814697,5.389999866485596 -4.671000003814697,5.389999866485596z">
                        </path>
                    </g>
                    <g opacity="1" transform="matrix(1,0,0,1,174.1020050048828,353.4339904785156)">
                        <path fill="rgb(158,119,0)" fill-opacity="1"
                            d=" M-16.68000030517578,1.7380000352859497 C-16.68000030517578,1.7380000352859497 14.631999969482422,-13.026000022888184 14.631999969482422,-13.026000022888184 C14.631999969482422,-13.026000022888184 16.68000030517578,2.865000009536743 16.68000030517578,2.865000009536743 C16.68000030517578,2.865000009536743 -9.795000076293945,13.026000022888184 -9.795000076293945,13.026000022888184 C-9.795000076293945,13.026000022888184 -16.68000030517578,1.7380000352859497 -16.68000030517578,1.7380000352859497z">
                        </path>
                    </g>
                    <g opacity="1" transform="matrix(1,0,0,1,186.48599243164062,352.7699890136719)">
                        <path fill="rgb(204,172,19)" fill-opacity="1"
                            d=" M-2.443000078201294,6.116000175476074 C-2.443000078201294,6.116000175476074 -4.296000003814697,-3.88100004196167 -4.296000003814697,-3.88100004196167 C-4.296000003814697,-3.88100004196167 3.052000045776367,-6.116000175476074 3.052000045776367,-6.116000175476074 C3.052000045776367,-6.116000175476074 4.296000003814697,3.5290000438690186 4.296000003814697,3.5290000438690186 C4.296000003814697,3.5290000438690186 -2.443000078201294,6.116000175476074 -2.443000078201294,6.116000175476074z">
                        </path>
                    </g>
                </g>
            </g>
        </g>
        <g transform="matrix(1,0,0,1,53.201995849609375,-0.24798583984375)" opacity="1" style="display: block;">
            <g opacity="1" transform="matrix(1,0,0,1,0,0)">
                <g opacity="1" transform="matrix(1,0,0,1,129.08700561523438,228.20399475097656)">
                    <path fill="rgb(228,199,40)" fill-opacity="1"
                        d=" M46.125999450683594,-59.784000396728516 C46.125999450683594,-59.784000396728516 31.2450008392334,-66.39700317382812 31.2450008392334,-66.39700317382812 C31.2450008392334,-66.39700317382812 21.025999069213867,-52.38399887084961 21.025999069213867,-52.38399887084961 C21.025999069213867,-52.38399887084961 12.819999694824219,-32.73500061035156 12.819999694824219,-32.73500061035156 C12.819999694824219,-32.73500061035156 -14.272000312805176,-41.952999114990234 -14.272000312805176,-41.952999114990234 C-14.272000312805176,-41.952999114990234 -41.084999084472656,-47.84400177001953 -41.084999084472656,-47.84400177001953 C-41.084999084472656,-47.84400177001953 -53.611000061035156,-33.944000244140625 -53.611000061035156,-33.944000244140625 C-53.611000061035156,-33.944000244140625 -45.30500030517578,16.341999053955078 -45.30500030517578,16.341999053955078 C-45.30500030517578,16.341999053955078 -41.084999084472656,29.27899932861328 -41.084999084472656,29.27899932861328 C-41.084999084472656,29.27899932861328 -42.99399948120117,57.7140007019043 -42.99399948120117,57.7140007019043 C-42.99399948120117,57.7140007019043 7.835999965667725,66.39700317382812 7.835999965667725,66.39700317382812 C7.835999965667725,66.39700317382812 18.979000091552734,40.97700119018555 18.979000091552734,40.97700119018555 C18.979000091552734,40.97700119018555 32.62099838256836,63.50699996948242 32.62099838256836,63.50699996948242 C32.62099838256836,63.50699996948242 52.41299819946289,56.11199951171875 52.41299819946289,56.11199951171875 C52.41299819946289,56.11199951171875 53.611000061035156,-1.4910000562667847 53.611000061035156,-1.4910000562667847 C53.611000061035156,-1.4910000562667847 46.125999450683594,-59.784000396728516 46.125999450683594,-59.784000396728516z">
                    </path>
                </g>
                <g opacity="1" transform="matrix(1,0,0,1,88.83100128173828,157.42100524902344)">
                    <path fill="rgb(117,87,0)" fill-opacity="1"
                        d=" M-8.895999908447266,0.6200000047683716 C-8.895999908447266,0.6200000047683716 1.225000023841858,-9.954000473022461 1.225000023841858,-9.954000473022461 C1.225000023841858,-9.954000473022461 2.7739999294281006,-0.2770000100135803 2.7739999294281006,-0.2770000100135803 C2.7739999294281006,-0.2770000100135803 8.895999908447266,9.954000473022461 8.895999908447266,9.954000473022461 C8.895999908447266,9.954000473022461 -8.895999908447266,0.6200000047683716 -8.895999908447266,0.6200000047683716z">
                    </path>
                </g>
                <g opacity="1" transform="matrix(1,0,0,1,155.77099609375,165.5679931640625)">
                    <path fill="rgb(117,87,0)" fill-opacity="1"
                        d=" M-6.196000099182129,-29.900999069213867 C-6.196000099182129,-29.900999069213867 13.86299991607666,-19.356000900268555 13.86299991607666,-19.356000900268555 C13.86299991607666,-19.356000900268555 4.561999797821045,-3.760999917984009 4.561999797821045,-3.760999917984009 C4.561999797821045,-3.760999917984009 -13.86299991607666,29.900999069213867 -13.86299991607666,29.900999069213867 C-13.86299991607666,29.900999069213867 -12.871000289916992,-4.333000183105469 -12.871000289916992,-4.333000183105469 C-12.871000289916992,-4.333000183105469 -6.196000099182129,-29.900999069213867 -6.196000099182129,-29.900999069213867z">
                    </path>
                </g>
                <g opacity="1" transform="matrix(1,0,0,1,76.75900268554688,212.4550018310547)">
                    <path fill="rgb(190,143,0)" fill-opacity="1"
                        d=" M7.025000095367432,32.09400177001953 C7.025000095367432,32.09400177001953 11.244000434875488,-32.09400177001953 11.244000434875488,-32.09400177001953 C11.244000434875488,-32.09400177001953 -11.244000434875488,-23.908000946044922 -11.244000434875488,-23.908000946044922 C-11.244000434875488,-23.908000946044922 7.025000095367432,32.09400177001953 7.025000095367432,32.09400177001953z">
                    </path>
                </g>
                <g opacity="1" transform="matrix(1,0,0,1,172.68800354003906,194.25999450683594)">
                    <path fill="rgb(190,143,0)" fill-opacity="1"
                        d=" M12.355999946594238,-32.185001373291016 C12.355999946594238,-32.185001373291016 10.010000228881836,32.452999114990234 10.010000228881836,32.452999114990234 C10.010000228881836,32.452999114990234 -12.355999946594238,-32.45399856567383 -12.355999946594238,-32.45399856567383 C-12.355999946594238,-32.45399856567383 12.355999946594238,-32.185001373291016 12.355999946594238,-32.185001373291016z">
                    </path>
                </g>
                <g opacity="1" transform="matrix(1,0,0,1,114.53500366210938,221.49899291992188)">
                    <path fill="rgb(190,143,0)" fill-opacity="1"
                        d=" M18.829999923706055,-5.71999979019165 C18.829999923706055,-5.71999979019165 -19.673999786376953,0.4090000092983246 -19.673999786376953,0.4090000092983246 C-19.673999786376953,0.4090000092983246 -18.827999114990234,5.71999979019165 -18.827999114990234,5.71999979019165 C-18.827999114990234,5.71999979019165 19.673999786376953,-0.40799999237060547 19.673999786376953,-0.40799999237060547 C19.673999786376953,-0.40799999237060547 18.829999923706055,-5.71999979019165 18.829999923706055,-5.71999979019165z">
                    </path>
                </g>
            </g>
        </g>
        <g transform="matrix(1,0.000007596510840812698,-0.000007596510840812698,1,53.203521728515625,-0.2490692138671875)"
            opacity="1" style="display: block;">
            <g opacity="1" transform="matrix(1,0,0,1,0,0)">
                <g opacity="1" transform="matrix(1,0,0,1,113.56099700927734,102.79499816894531)">
                    <path fill="rgb(223,188,164)" fill-opacity="1"
                        d=" M-32.79399871826172,-50.77899932861328 C-32.79399871826172,-50.77899932861328 25.409000396728516,-56.90599822998047 25.409000396728516,-56.90599822998047 C25.409000396728516,-56.90599822998047 43.31800079345703,-65.625 43.31800079345703,-65.625 C43.31800079345703,-65.625 62.875999450683594,24.624000549316406 62.875999450683594,24.624000549316406 C62.875999450683594,24.624000549316406 36.013999938964844,32.87200164794922 36.013999938964844,32.87200164794922 C36.013999938964844,32.87200164794922 32.34000015258789,44.529998779296875 32.34000015258789,44.529998779296875 C32.34000015258789,44.529998779296875 28.57699966430664,52.17599868774414 28.57699966430664,52.17599868774414 C28.57699966430664,52.17599868774414 3.9670000076293945,65.625 3.9670000076293945,65.625 C3.9670000076293945,65.625 -16.298999786376953,52.8380012512207 -16.298999786376953,52.8380012512207 C-16.298999786376953,52.8380012512207 -47.07699966430664,17.711999893188477 -47.07699966430664,17.711999893188477 C-47.07699966430664,17.711999893188477 -59.42100143432617,-1.531000018119812 -59.42100143432617,-1.531000018119812 C-59.42100143432617,-1.531000018119812 -62.875999450683594,-21.291000366210938 -62.875999450683594,-21.291000366210938 C-62.875999450683594,-21.291000366210938 -32.79399871826172,-50.77899932861328 -32.79399871826172,-50.77899932861328z">
                    </path>
                </g>
                <g opacity="1" transform="matrix(1,0,0,1,97.26200103759766,123.39199829101562)">
                    <path fill="rgb(195,151,122)" fill-opacity="1"
                        d=" M-9.836999893188477,-72.0770034790039 C-9.836999893188477,-72.0770034790039 17.709999084472656,22.367000579833984 17.709999084472656,22.367000579833984 C17.709999084472656,22.367000579833984 52.3120002746582,12.276000022888184 52.3120002746582,12.276000022888184 C52.3120002746582,12.276000022888184 49.13399887084961,24.375 49.13399887084961,24.375 C49.13399887084961,24.375 49.42499923706055,36.31100082397461 49.42499923706055,36.31100082397461 C49.42499923706055,36.31100082397461 44.64500045776367,72.0770034790039 44.64500045776367,72.0770034790039 C44.64500045776367,72.0770034790039 13.597999572753906,54.189998626708984 13.597999572753906,54.189998626708984 C13.597999572753906,54.189998626708984 -5.184000015258789,37.016998291015625 -5.184000015258789,37.016998291015625 C-5.184000015258789,37.016998291015625 -23.04599952697754,9.170000076293945 -23.04599952697754,9.170000076293945 C-23.04599952697754,9.170000076293945 -23.68199920654297,1.2719999551773071 -23.68199920654297,1.2719999551773071 C-23.68199920654297,1.2719999551773071 -30.775999069213867,-2.882999897003174 -30.775999069213867,-2.882999897003174 C-30.775999069213867,-2.882999897003174 -15.548999786376953,-14.3100004196167 -15.548999786376953,-14.3100004196167 C-15.548999786376953,-14.3100004196167 -28.511999130249023,-32.731998443603516 -28.511999130249023,-32.731998443603516 C-28.511999130249023,-32.731998443603516 -43.12099838256836,-22.128000259399414 -43.12099838256836,-22.128000259399414 C-43.12099838256836,-22.128000259399414 -52.3120002746582,-36.26599884033203 -52.3120002746582,-36.26599884033203 C-52.3120002746582,-36.26599884033203 -24.3439998626709,-63.68000030517578 -24.3439998626709,-63.68000030517578 C-24.3439998626709,-63.68000030517578 -16.493999481201172,-71.3759994506836 -16.493999481201172,-71.3759994506836 C-16.493999481201172,-71.3759994506836 -9.836999893188477,-72.0770034790039 -9.836999893188477,-72.0770034790039z">
                    </path>
                </g>
                <g opacity="1" transform="matrix(1,0,0,1,124.4280014038086,77.87100219726562)">
                    <path fill="rgb(195,151,122)" fill-opacity="1"
                        d=" M18.420000076293945,19.257999420166016 C18.420000076293945,19.257999420166016 1.5490000247955322,-4.7779998779296875 1.5490000247955322,-4.7779998779296875 C1.5490000247955322,-4.7779998779296875 -19.858999252319336,-11.717000007629395 -19.858999252319336,-11.717000007629395 C-19.858999252319336,-11.717000007629395 4.645999908447266,-19.257999420166016 4.645999908447266,-19.257999420166016 C4.645999908447266,-19.257999420166016 10.939000129699707,-11.630999565124512 10.939000129699707,-11.630999565124512 C10.939000129699707,-11.630999565124512 19.858999252319336,4.440000057220459 19.858999252319336,4.440000057220459 C19.858999252319336,4.440000057220459 18.420000076293945,19.257999420166016 18.420000076293945,19.257999420166016z">
                    </path>
                </g>
                <g opacity="1" transform="matrix(1,0,0,1,152.2899932861328,69.69100189208984)">
                    <path fill="rgb(195,151,122)" fill-opacity="1"
                        d=" M-7.756999969482422,-5.645999908447266 C-7.756999969482422,-5.645999908447266 -6.770999908447266,-13.434000015258789 -6.770999908447266,-13.434000015258789 C-6.770999908447266,-13.434000015258789 7.756999969482422,-17.9060001373291 7.756999969482422,-17.9060001373291 C7.756999969482422,-17.9060001373291 -3.635999917984009,17.9060001373291 -3.635999917984009,17.9060001373291 C-3.635999917984009,17.9060001373291 -7.756999969482422,-5.645999908447266 -7.756999969482422,-5.645999908447266z">
                    </path>
                </g>
                <g opacity="1" transform="matrix(1,0,0,1,74.0989990234375,120.81900024414062)">
                    <path fill="rgb(138,102,81)" fill-opacity="1"
                        d=" M7.613999843597412,-11.73900032043457 C7.613999843597412,-11.73900032043457 -7.613999843597412,-0.3089999854564667 -7.613999843597412,-0.3089999854564667 C-7.613999843597412,-0.3089999854564667 0.11500000208616257,11.73900032043457 0.11500000208616257,11.73900032043457 C0.11500000208616257,11.73900032043457 7.613999843597412,-11.73900032043457 7.613999843597412,-11.73900032043457z">
                    </path>
                </g>
                <g opacity="1" transform="matrix(1,0,0,1,115.31400299072266,91.13400268554688)">
                    <path fill="rgb(138,102,81)" fill-opacity="1"
                        d=" M23.256999969482422,-11.661999702453613 C23.256999969482422,-11.661999702453613 -4.619999885559082,11.661999702453613 -4.619999885559082,11.661999702453613 C-4.619999885559082,11.661999702453613 -16.100000381469727,0.597000002861023 -16.100000381469727,0.597000002861023 C-16.100000381469727,0.597000002861023 -21.007999420166016,0.41999998688697815 -21.007999420166016,0.41999998688697815 C-21.007999420166016,0.41999998688697815 -23.256999969482422,-2.927000045776367 -23.256999969482422,-2.927000045776367 C-23.256999969482422,-2.927000045776367 -10.746999740600586,-8.911999702453613 -10.746999740600586,-8.911999702453613 C-10.746999740600586,-8.911999702453613 23.256999969482422,-11.661999702453613 23.256999969482422,-11.661999702453613z">
                    </path>
                </g>
                <g opacity="1" transform="matrix(1,0,0,1,157.4320068359375,78.73100280761719)">
                    <path fill="rgb(138,102,81)" fill-opacity="1"
                        d=" M-9.588000297546387,-1.0110000371932983 C-9.588000297546387,-1.0110000371932983 9.588000297546387,5.235000133514404 9.588000297546387,5.235000133514404 C9.588000297546387,5.235000133514404 8.772000312805176,1.475000023841858 8.772000312805176,1.475000023841858 C8.772000312805176,1.475000023841858 5.034999847412109,-5.235000133514404 5.034999847412109,-5.235000133514404 C5.034999847412109,-5.235000133514404 -9.588000297546387,-1.0110000371932983 -9.588000297546387,-1.0110000371932983z">
                    </path>
                </g>
                <g opacity="1" transform="matrix(1,0,0,1,73.91899871826172,90.16000366210938)">
                    <path fill="rgb(133,99,0)" fill-opacity="1"
                        d=" M0.6439999938011169,-28.000999450683594 C0.6439999938011169,-28.000999450683594 28.9689998626709,14.170999526977539 28.9689998626709,14.170999526977539 C28.9689998626709,14.170999526977539 14.184000015258789,28.000999450683594 14.184000015258789,28.000999450683594 C14.184000015258789,28.000999450683594 -5.169000148773193,0.5009999871253967 -5.169000148773193,0.5009999871253967 C-5.169000148773193,0.5009999871253967 -19.77899932861328,11.104000091552734 -19.77899932861328,11.104000091552734 C-19.77899932861328,11.104000091552734 -28.9689998626709,-3.0329999923706055 -28.9689998626709,-3.0329999923706055 C-28.9689998626709,-3.0329999923706055 -14.211000442504883,-20.91699981689453 -14.211000442504883,-20.91699981689453 C-14.211000442504883,-20.91699981689453 0.6439999938011169,-28.000999450683594 0.6439999938011169,-28.000999450683594z">
                    </path>
                </g>
                <g opacity="1" transform="matrix(1,0,0,1,143.68699645996094,80.58699798583984)">
                    <path fill="rgb(232,201,182)" fill-opacity="1"
                        d=" M0.8460000157356262,-16.54199981689453 C0.8460000157356262,-16.54199981689453 -8.321999549865723,-14.347999572753906 -8.321999549865723,-14.347999572753906 C-8.321999549865723,-14.347999572753906 -0.8399999737739563,16.54199981689453 -0.8399999737739563,16.54199981689453 C-0.8399999737739563,16.54199981689453 8.321999549865723,14.322999954223633 8.321999549865723,14.322999954223633 C8.321999549865723,14.322999954223633 0.8460000157356262,-16.54199981689453 0.8460000157356262,-16.54199981689453z">
                    </path>
                </g>
                <g opacity="1" transform="matrix(1,0,0,1,66.46900177001953,102.45899963378906)">
                    <path fill="rgb(138,102,81)" fill-opacity="1"
                        d=" M7.359000205993652,5.133999824523926 C7.359000205993652,5.133999824523926 1.4190000295639038,-5.133999824523926 1.4190000295639038,-5.133999824523926 C1.4190000295639038,-5.133999824523926 -7.359000205993652,0.9309999942779541 -7.359000205993652,0.9309999942779541 C-7.359000205993652,0.9309999942779541 7.359000205993652,5.133999824523926 7.359000205993652,5.133999824523926z">
                    </path>
                </g>
                <g opacity="1" transform="matrix(1,0,0,1,116.82099914550781,60.38100051879883)">
                    <path fill="rgb(133,99,0)" fill-opacity="1"
                        d=" M-12.253000259399414,5.7729997634887695 C-12.253000259399414,5.7729997634887695 4.711999893188477,-5.7729997634887695 4.711999893188477,-5.7729997634887695 C4.711999893188477,-5.7729997634887695 12.253000259399414,-1.7669999599456787 12.253000259399414,-1.7669999599456787 C12.253000259399414,-1.7669999599456787 -12.253000259399414,5.7729997634887695 -12.253000259399414,5.7729997634887695z">
                    </path>
                </g>
                <g opacity="1" transform="matrix(1,0,0,1,152.7830047607422,52.45800018310547)">
                    <path fill="rgb(133,99,0)" fill-opacity="1"
                        d=" M-7.263999938964844,3.7980000972747803 C-7.263999938964844,3.7980000972747803 0,-3.7980000972747803 0,-3.7980000972747803 C0,-3.7980000972747803 7.263000011444092,-0.6729999780654907 7.263000011444092,-0.6729999780654907 C7.263000011444092,-0.6729999780654907 -7.263999938964844,3.7980000972747803 -7.263999938964844,3.7980000972747803z">
                    </path>
                </g>
                <g opacity="1" transform="matrix(1,0,0,1,140.73699951171875,111.04199981689453)">
                    <path fill="rgb(195,151,122)" fill-opacity="1"
                        d=" M25.802000045776367,-11.192999839782715 C25.802000045776367,-11.192999839782715 -25.802000045776367,1.2949999570846558 -25.802000045776367,1.2949999570846558 C-25.802000045776367,1.2949999570846558 -6.24399995803833,11.192999839782715 -6.24399995803833,11.192999839782715 C-6.24399995803833,11.192999839782715 16.142000198364258,6.008999824523926 16.142000198364258,6.008999824523926 C16.142000198364258,6.008999824523926 25.802000045776367,-11.192999839782715 25.802000045776367,-11.192999839782715z">
                    </path>
                </g>
                <g opacity="1" transform="matrix(1,0,0,1,142.47799682617188,112.02999877929688)">
                    <path fill="rgb(255,255,255)" fill-opacity="1"
                        d=" M18.125999450683594,-7.386000156402588 C18.125999450683594,-7.386000156402588 -18.125999450683594,1.3459999561309814 -18.125999450683594,1.3459999561309814 C-18.125999450683594,1.3459999561309814 -7.283999919891357,7.386000156402588 -7.283999919891357,7.386000156402588 C-7.283999919891357,7.386000156402588 12.100000381469727,2.8469998836517334 12.100000381469727,2.8469998836517334 C12.100000381469727,2.8469998836517334 18.125999450683594,-7.386000156402588 18.125999450683594,-7.386000156402588z">
                    </path>
                </g>
                <g opacity="1" transform="matrix(1,0,0,1,147.42799377441406,98.1729965209961)">
                    <path fill="rgb(138,102,81)" fill-opacity="1"
                        d=" M4.580999851226807,-3.263000011444092 C4.580999851226807,-3.263000011444092 0.640999972820282,3.263000011444092 0.640999972820282,3.263000011444092 C0.640999972820282,3.263000011444092 -4.580999851226807,-1.0440000295639038 -4.580999851226807,-1.0440000295639038 C-4.580999851226807,-1.0440000295639038 4.580999851226807,-3.263000011444092 4.580999851226807,-3.263000011444092z">
                    </path>
                </g>
                <g opacity="1" transform="matrix(1,0,0,1,81.52899932861328,90.0459976196289)">
                    <path fill="rgb(117,87,0)" fill-opacity="1"
                        d=" M12.779000282287598,1.5069999694824219 C12.779000282287598,1.5069999694824219 -11.156000137329102,2.9210000038146973 -11.156000137329102,2.9210000038146973 C-11.156000137329102,2.9210000038146973 -12.779000282287598,0.6129999756813049 -12.779000282287598,0.6129999756813049 C-12.779000282287598,0.6129999756813049 0.0010000000474974513,-2.9210000038146973 0.0010000000474974513,-2.9210000038146973 C0.0010000000474974513,-2.9210000038146973 10.585000038146973,-1.7569999694824219 10.585000038146973,-1.7569999694824219 C10.585000038146973,-1.7569999694824219 12.779000282287598,1.5069999694824219 12.779000282287598,1.5069999694824219z">
                    </path>
                </g>
                <g opacity="1" transform="matrix(1,0,0,1,126.9530029296875,147.6840057373047)">
                    <path fill="rgb(138,102,81)" fill-opacity="1"
                        d=" M22.621999740600586,-12.017999649047852 C22.621999740600586,-12.017999649047852 -22.621999740600586,1.1779999732971191 -22.621999740600586,1.1779999732971191 C-22.621999740600586,1.1779999732971191 19.733999252319336,12.017999649047852 19.733999252319336,12.017999649047852 C19.733999252319336,12.017999649047852 22.621999740600586,-12.017999649047852 22.621999740600586,-12.017999649047852z">
                    </path>
                </g>
                <g opacity="1" transform="matrix(1,0,0,1,88.81500244140625,33.6349983215332)">
                    <path fill="rgb(190,143,0)" fill-opacity="1"
                        d=" M50.154998779296875,-23.56399917602539 C50.154998779296875,-23.56399917602539 -34.67399978637695,-2.3559999465942383 -34.67399978637695,-2.3559999465942383 C-34.67399978637695,-2.3559999465942383 -50.154998779296875,23.56399917602539 -50.154998779296875,23.56399917602539 C-50.154998779296875,23.56399917602539 3.263000011444092,3.5350000858306885 3.263000011444092,3.5350000858306885 C3.263000011444092,3.5350000858306885 50.154998779296875,-23.56399917602539 50.154998779296875,-23.56399917602539z">
                    </path>
                </g>
                <g opacity="1" transform="matrix(1,0,0,1,63.042999267578125,62.85499954223633)">
                    <path fill="rgb(158,119,0)" fill-opacity="1"
                        d=" M24.382999420166016,-11.539999961853027 C24.382999420166016,-11.539999961853027 -18.091999053955078,24.270999908447266 -18.091999053955078,24.270999908447266 C-18.091999053955078,24.270999908447266 -24.382999420166016,-5.656000137329102 -24.382999420166016,-5.656000137329102 C-24.382999420166016,-5.656000137329102 13.63700008392334,-24.270999908447266 13.63700008392334,-24.270999908447266 C13.63700008392334,-24.270999908447266 24.382999420166016,-11.539999961853027 24.382999420166016,-11.539999961853027z">
                    </path>
                </g>
                <g opacity="1" transform="matrix(1,0,0,1,108.81600189208984,30.69300079345703)">
                    <path fill="rgb(133,99,0)" fill-opacity="1"
                        d=" M-21.391000747680664,20.621999740600586 C-21.391000747680664,20.621999740600586 -32.13600158691406,16.490999221801758 -32.13600158691406,16.490999221801758 C-32.13600158691406,16.490999221801758 -32.13600158691406,7.890999794006348 -32.13600158691406,7.890999794006348 C-32.13600158691406,7.890999794006348 30.155000686645508,-20.621999740600586 30.155000686645508,-20.621999740600586 C30.155000686645508,-20.621999740600586 32.13600158691406,-2.306999921798706 32.13600158691406,-2.306999921798706 C32.13600158691406,-2.306999921798706 30.155000686645508,15.194999694824219 30.155000686645508,15.194999694824219 C30.155000686645508,15.194999694824219 -21.391000747680664,20.621999740600586 -21.391000747680664,20.621999740600586z">
                    </path>
                </g>
                <g opacity="1" transform="matrix(1,0,0,1,159.35299682617188,23.069000244140625)">
                    <path fill="rgb(190,143,0)" fill-opacity="1"
                        d=" M-20.382999420166016,-12.998000144958496 C-20.382999420166016,-12.998000144958496 -20.382999420166016,22.819000244140625 -20.382999420166016,22.819000244140625 C-20.382999420166016,22.819000244140625 -2.4739999771118164,14.10099983215332 -2.4739999771118164,14.10099983215332 C-2.4739999771118164,14.10099983215332 20.382999420166016,-22.819000244140625 20.382999420166016,-22.819000244140625 C20.382999420166016,-22.819000244140625 -20.382999420166016,-12.998000144958496 -20.382999420166016,-12.998000144958496z">
                    </path>
                </g>
                <g opacity="1" transform="matrix(1,0,0,1,79.35399627685547,87.83200073242188)">
                    <path fill="rgb(70,70,70)" fill-opacity="1"
                        d=" M21.915000915527344,-13.432000160217285 C21.915000915527344,-13.432000160217285 -24.03499984741211,-2.3559999465942383 -24.03499984741211,-2.3559999465942383 C-24.03499984741211,-2.3559999465942383 -25.214000701904297,13.432000160217285 -25.214000701904297,13.432000160217285 C-25.214000701904297,13.432000160217285 -10.604999542236328,2.8289999961853027 -10.604999542236328,2.8289999961853027 C-10.604999542236328,2.8289999961853027 25.214000701904297,-0.9419999718666077 25.214000701904297,-0.9419999718666077 C25.214000701904297,-0.9419999718666077 24.79599952697754,-7.901000022888184 24.79599952697754,-7.901000022888184 C24.79599952697754,-7.901000022888184 21.915000915527344,-13.432000160217285 21.915000915527344,-13.432000160217285z">
                    </path>
                </g>
                <g opacity="1" transform="matrix(1,0,0,1,141.16200256347656,69.14600372314453)">
                    <path fill="rgb(70,70,70)" fill-opacity="1"
                        d=" M3.369999885559082,-5.10099983215332 C3.369999885559082,-5.10099983215332 -5.796999931335449,-2.9070000648498535 -5.796999931335449,-2.9070000648498535 C-5.796999931335449,-2.9070000648498535 -6.276000022888184,0.996999979019165 -6.276000022888184,0.996999979019165 C-6.276000022888184,0.996999979019165 -3.8580000400543213,5.10099983215332 -3.8580000400543213,5.10099983215332 C-3.8580000400543213,5.10099983215332 5.283999919891357,2.8010001182556152 5.283999919891357,2.8010001182556152 C5.283999919891357,2.8010001182556152 6.275000095367432,-0.5379999876022339 6.275000095367432,-0.5379999876022339 C6.275000095367432,-0.5379999876022339 3.369999885559082,-5.10099983215332 3.369999885559082,-5.10099983215332z">
                    </path>
                </g>
                <g opacity="1" transform="matrix(1,0,0,1,140.1490020751953,78.28900146484375)">
                    <path fill="rgb(79,82,82)" fill-opacity="1"
                        d=" M32.987998962402344,-21.089000701904297 C32.987998962402344,-21.089000701904297 38.880001068115234,3.6519999504089355 38.880001068115234,3.6519999504089355 C38.880001068115234,3.6519999504089355 7.695000171661377,-0.5680000185966492 7.695000171661377,-0.5680000185966492 C7.695000171661377,-0.5680000185966492 4.383999824523926,-14.244000434875488 4.383999824523926,-14.244000434875488 C4.383999824523926,-14.244000434875488 32.987998962402344,-21.089000701904297 32.987998962402344,-21.089000701904297z M-1.5779999494552612,1.1820000410079956 C-1.5779999494552612,1.1820000410079956 -32.28200149536133,21.089000701904297 -32.28200149536133,21.089000701904297 C-32.28200149536133,21.089000701904297 -38.880001068115234,-3.8889999389648438 -38.880001068115234,-3.8889999389648438 C-38.880001068115234,-3.8889999389648438 -4.7829999923706055,-12.048999786376953 -4.7829999923706055,-12.048999786376953 C-4.7829999923706055,-12.048999786376953 -1.5779999494552612,1.1820000410079956 -1.5779999494552612,1.1820000410079956z">
                    </path>
                </g>
            </g>
        </g>
        <g transform="matrix(1,0,0,1,53.201995849609375,-0.24798583984375)" opacity="1" style="display: block;">
            <g opacity="1" transform="matrix(1,0,0,1,0,0)">
                <g opacity="1" transform="matrix(1,0,0,1,110.9209976196289,176.7550048828125)">
                    <path fill="rgb(190,143,0)" fill-opacity="1"
                        d=" M7.734000205993652,-7.644000053405762 C7.734000205993652,-7.644000053405762 -30.986000061035156,-18.71299934387207 -30.986000061035156,-18.71299934387207 C-30.986000061035156,-18.71299934387207 -22.91900062561035,3.6050000190734863 -22.91900062561035,3.6050000190734863 C-22.91900062561035,3.6050000190734863 30.986000061035156,18.71299934387207 30.986000061035156,18.71299934387207 C30.986000061035156,18.71299934387207 7.734000205993652,-7.644000053405762 7.734000205993652,-7.644000053405762z">
                    </path>
                </g>
                <g opacity="1" transform="matrix(1,0,0,1,135.0959930419922,250.66900634765625)">
                    <path fill="rgb(204,172,19)" fill-opacity="1"
                        d=" M-47.09400177001953,6.814000129699707 C-47.09400177001953,6.814000129699707 7.041999816894531,-17.07900047302246 7.041999816894531,-17.07900047302246 C7.041999816894531,-17.07900047302246 12.968999862670898,-17.07900047302246 12.968999862670898,-17.07900047302246 C12.968999862670898,-17.07900047302246 47.09400177001953,0.4569999873638153 47.09400177001953,0.4569999873638153 C47.09400177001953,0.4569999873638153 12.968999862670898,17.07900047302246 12.968999862670898,17.07900047302246 C12.968999862670898,17.07900047302246 -47.09400177001953,6.814000129699707 -47.09400177001953,6.814000129699707z">
                    </path>
                </g>
                <g opacity="1" transform="matrix(1,0,0,1,144.98699951171875,232.3249969482422)">
                    <path fill="rgb(190,143,0)" fill-opacity="1"
                        d=" M-3.0789999961853027,-36.85599899291992 C-3.0789999961853027,-36.85599899291992 -2.8489999771118164,1.2649999856948853 -2.8489999771118164,1.2649999856948853 C-2.8489999771118164,1.2649999856948853 3.0789999961853027,36.85599899291992 3.0789999961853027,36.85599899291992 C3.0789999961853027,36.85599899291992 3.0789999961853027,1.2649999856948853 3.0789999961853027,1.2649999856948853 C3.0789999961853027,1.2649999856948853 -3.0789999961853027,-36.85599899291992 -3.0789999961853027,-36.85599899291992z">
                    </path>
                </g>
            </g>
        </g>
        <g transform="matrix(1,0,0,1,53.201995849609375,-0.24798583984375)" opacity="1" style="display: block;">
            <g opacity="1" transform="matrix(1,0,0,1,0,0)">
                <g opacity="1" transform="matrix(1,0,0,1,65.00900268554688,249.24400329589844)">
                    <path fill="rgb(190,143,0)" fill-opacity="1"
                        d=" M-16.354000091552734,-27.7450008392334 C-16.354000091552734,-27.7450008392334 32.25299835205078,4.151000022888184 32.25299835205078,4.151000022888184 C32.25299835205078,4.151000022888184 29.851999282836914,18.503999710083008 29.851999282836914,18.503999710083008 C29.851999282836914,18.503999710083008 21.68400001525879,27.7450008392334 21.68400001525879,27.7450008392334 C21.68400001525879,27.7450008392334 -32.25299835205078,1.4210000038146973 -32.25299835205078,1.4210000038146973 C-32.25299835205078,1.4210000038146973 -16.354000091552734,-27.7450008392334 -16.354000091552734,-27.7450008392334z">
                    </path>
                </g>
                <g opacity="1" transform="matrix(1,0,0,1,98.01399993896484,265.1919860839844)">
                    <path fill="rgb(223,188,164)" fill-opacity="1"
                        d=" M-0.7509999871253967,-11.79800033569336 C-0.7509999871253967,-11.79800033569336 11.321000099182129,-4.065000057220459 11.321000099182129,-4.065000057220459 C11.321000099182129,-4.065000057220459 -11.321000099182129,11.79699993133545 -11.321000099182129,11.79699993133545 C-11.321000099182129,11.79699993133545 -0.7509999871253967,-11.79800033569336 -0.7509999871253967,-11.79800033569336z">
                    </path>
                </g>
            </g>
        </g>
        <g transform="matrix(1,0.00001862303543020971,-0.00001862303543020971,1,53.205596923828125,-0.2519530951976776)"
            opacity="1" style="display: block;">
            <g opacity="1" transform="matrix(1,0,0,1,0,0)">
                <g opacity="1" transform="matrix(1,0,0,1,250.78599548339844,217.83200073242188)">
                    <path fill="rgb(195,151,122)" fill-opacity="1"
                        d=" M-10.425000190734863,-13.982000350952148 C-10.425000190734863,-13.982000350952148 4.836999893188477,-15.10200023651123 4.836999893188477,-15.10200023651123 C4.836999893188477,-15.10200023651123 11.805999755859375,-2.2690000534057617 11.805999755859375,-2.2690000534057617 C11.805999755859375,-2.2690000534057617 7.260000228881836,15.10200023651123 7.260000228881836,15.10200023651123 C7.260000228881836,15.10200023651123 -10.156000137329102,15.057000160217285 -10.156000137329102,15.057000160217285 C-10.156000137329102,15.057000160217285 -10.425000190734863,-13.982000350952148 -10.425000190734863,-13.982000350952148z">
                    </path>
                </g>
                <g opacity="1" transform="matrix(1,0,0,1,271.1059875488281,207.20899963378906)">
                    <path fill="rgb(195,151,122)" fill-opacity="1"
                        d=" M-15.482999801635742,-4.479000091552734 C-15.482999801635742,-4.479000091552734 15.482999801635742,-6.25600004196167 15.482999801635742,-6.25600004196167 C15.482999801635742,-6.25600004196167 15.482999801635742,0.039000000804662704 15.482999801635742,0.039000000804662704 C15.482999801635742,0.039000000804662704 -10.895999908447266,6.25600004196167 -10.895999908447266,6.25600004196167 C-10.895999908447266,6.25600004196167 -15.482999801635742,-4.479000091552734 -15.482999801635742,-4.479000091552734z">
                    </path>
                </g>
                <g opacity="1" transform="matrix(1,0,0,1,249.58900451660156,200.66700744628906)">
                    <path fill="rgb(223,188,164)" fill-opacity="1"
                        d=" M-9.229000091552734,3.184000015258789 C-9.229000091552734,3.184000015258789 2.628000020980835,-16.663999557495117 2.628000020980835,-16.663999557495117 C2.628000020980835,-16.663999557495117 9.229000091552734,-14.65999984741211 9.229000091552734,-14.65999984741211 C9.229000091552734,-14.65999984741211 4.172999858856201,11.788000106811523 4.172999858856201,11.788000106811523 C4.172999858856201,11.788000106811523 -9.104000091552734,16.665000915527344 -9.104000091552734,16.665000915527344 C-9.104000091552734,16.665000915527344 -9.229000091552734,3.184000015258789 -9.229000091552734,3.184000015258789z">
                    </path>
                </g>
                <g opacity="1" transform="matrix(1,0,0,1,263.0299987792969,221.88600158691406)">
                    <path fill="rgb(223,188,164)" fill-opacity="1"
                        d=" M8.32800006866455,-11.04800033569336 C8.32800006866455,-11.04800033569336 9.267999649047852,6.423999786376953 9.267999649047852,6.423999786376953 C9.267999649047852,6.423999786376953 -4.984000205993652,11.04800033569336 -4.984000205993652,11.04800033569336 C-4.984000205993652,11.04800033569336 -9.267999649047852,-9.430999755859375 -9.267999649047852,-9.430999755859375 C-9.267999649047852,-9.430999755859375 8.32800006866455,-11.04800033569336 8.32800006866455,-11.04800033569336z">
                    </path>
                </g>
            </g>
        </g>
        <g transform="matrix(1,-0.0000023930911083880346,0.0000023930911083880346,1,53.20155334472656,-0.2477874755859375)"
            opacity="1" style="display: block;">
            <g opacity="1" transform="matrix(1,0,0,1,0,0)">
                <g opacity="1" transform="matrix(1,0,0,1,51.569000244140625,308.9939880371094)">
                    <path fill="rgb(133,133,133)" fill-opacity="1"
                        d=" M-33.34299850463867,-32.027000427246094 C-33.34299850463867,-32.027000427246094 38.047000885009766,-4.289000034332275 38.047000885009766,-4.289000034332275 C38.047000885009766,-4.289000034332275 51.319000244140625,7.291999816894531 51.319000244140625,7.291999816894531 C51.319000244140625,7.291999816894531 46.486000061035156,32.027000427246094 46.486000061035156,32.027000427246094 C46.486000061035156,32.027000427246094 -39.305999755859375,14.494000434875488 -39.305999755859375,14.494000434875488 C-39.305999755859375,14.494000434875488 -51.319000244140625,-18.79400062561035 -51.319000244140625,-18.79400062561035 C-51.319000244140625,-18.79400062561035 -33.34299850463867,-32.027000427246094 -33.34299850463867,-32.027000427246094z">
                    </path>
                </g>
                <g opacity="1" transform="matrix(1,0,0,1,58.17599868774414,287.04901123046875)">
                    <path fill="rgb(157,160,161)" fill-opacity="1"
                        d=" M31.43899917602539,17.6560001373291 C31.43899917602539,17.6560001373291 -57.92499923706055,3.1510000228881836 -57.92499923706055,3.1510000228881836 C-57.92499923706055,3.1510000228881836 -35.13199996948242,-17.6560001373291 -35.13199996948242,-17.6560001373291 C-35.13199996948242,-17.6560001373291 57.92499923706055,-6.125 57.92499923706055,-6.125 C57.92499923706055,-6.125 50.638999938964844,10.557000160217285 50.638999938964844,10.557000160217285 C50.638999938964844,10.557000160217285 31.43899917602539,17.6560001373291 31.43899917602539,17.6560001373291z">
                    </path>
                </g>
                <g opacity="1" transform="matrix(1,0,0,1,107.71700286865234,312.75)">
                    <path fill="rgb(110,112,115)" fill-opacity="1"
                        d=" M6.0879998207092285,-28.270000457763672 C6.0879998207092285,-28.270000457763672 -1.0850000381469727,-23.323999404907227 -1.0850000381469727,-23.323999404907227 C-1.0850000381469727,-23.323999404907227 -18.10099983215332,-8.045000076293945 -18.10099983215332,-8.045000076293945 C-18.10099983215332,-8.045000076293945 -9.661999702453613,28.270000457763672 -9.661999702453613,28.270000457763672 C-9.661999702453613,28.270000457763672 18.10099983215332,3.5360000133514404 18.10099983215332,3.5360000133514404 C18.10099983215332,3.5360000133514404 11.302000045776367,-21.211000442504883 11.302000045776367,-21.211000442504883 C11.302000045776367,-21.211000442504883 6.0879998207092285,-28.270000457763672 6.0879998207092285,-28.270000457763672z">
                    </path>
                </g>
                <g opacity="1" transform="matrix(1,0,0,1,99.18099975585938,235.9499969482422)">
                    <path fill="rgb(79,82,82)" fill-opacity="1"
                        d=" M-11.178000450134277,-55.59000015258789 C-11.178000450134277,-55.59000015258789 19.82699966430664,55.59000015258789 19.82699966430664,55.59000015258789 C19.82699966430664,55.59000015258789 7.452000141143799,53.47600173950195 7.452000141143799,53.47600173950195 C7.452000141143799,53.47600173950195 -19.82699966430664,-52.44200134277344 -19.82699966430664,-52.44200134277344 C-19.82699966430664,-52.44200134277344 -11.178000450134277,-55.59000015258789 -11.178000450134277,-55.59000015258789z">
                    </path>
                </g>
                <g opacity="1" transform="matrix(1,0,0,1,0,0)">
                    <g opacity="1" transform="matrix(1,0,0,1,30.792999267578125,310.92401123046875)">
                        <path fill="rgb(221,221,220)" fill-opacity="1"
                            d=" M4.456999778747559,-6.127999782562256 C4.456999778747559,-6.127999782562256 -3.7139999866485596,-5.570000171661377 -3.7139999866485596,-5.570000171661377 C-3.7139999866485596,-5.570000171661377 -4.271999835968018,-1.4859999418258667 -4.271999835968018,-1.4859999418258667 C-4.271999835968018,-1.4859999418258667 -0.0010000000474974513,1.4839999675750732 -0.0010000000474974513,1.4839999675750732 C-0.0010000000474974513,1.4839999675750732 -5.013999938964844,3.3420000076293945 -5.013999938964844,3.3420000076293945 C-5.013999938964844,3.3420000076293945 -4.828000068664551,6.127999782562256 -4.828000068664551,6.127999782562256 C-4.828000068664551,6.127999782562256 2.0409998893737793,5.197999954223633 2.0409998893737793,5.197999954223633 C2.0409998893737793,5.197999954223633 3.8989999294281006,0.5580000281333923 3.8989999294281006,0.5580000281333923 C3.8989999294281006,0.5580000281333923 -1.4859999418258667,-2.7860000133514404 -1.4859999418258667,-2.7860000133514404 C-1.4859999418258667,-2.7860000133514404 5.013999938964844,-3.3429999351501465 5.013999938964844,-3.3429999351501465 C5.013999938964844,-3.3429999351501465 4.456999778747559,-6.127999782562256 4.456999778747559,-6.127999782562256z">
                        </path>
                    </g>
                    <g opacity="1" transform="matrix(1,0,0,1,40.632999420166016,312.781005859375)">
                        <path fill="rgb(221,221,220)" fill-opacity="1"
                            d=" M4.642000198364258,-4.828000068664551 C4.642000198364258,-4.828000068664551 -2.2290000915527344,-6.127999782562256 -2.2290000915527344,-6.127999782562256 C-2.2290000915527344,-6.127999782562256 -4.642000198364258,5.013000011444092 -4.642000198364258,5.013000011444092 C-4.642000198364258,5.013000011444092 -0.9279999732971191,6.127999782562256 -0.9279999732971191,6.127999782562256 C-0.9279999732971191,6.127999782562256 -1.3009999990463257,0.9269999861717224 -1.3009999990463257,0.9269999861717224 C-1.3009999990463257,0.9269999861717224 4.085999965667725,1.6720000505447388 4.085999965667725,1.6720000505447388 C4.085999965667725,1.6720000505447388 4.642000198364258,-4.828000068664551 4.642000198364258,-4.828000068664551z M0.9290000200271606,-0.5569999814033508 C0.9290000200271606,-0.5569999814033508 -1.3009999990463257,-1.4859999418258667 -1.3009999990463257,-1.4859999418258667 C-1.3009999990463257,-1.4859999418258667 -0.9279999732971191,-3.9000000953674316 -0.9279999732971191,-3.9000000953674316 C-0.9279999732971191,-3.9000000953674316 1.2990000247955322,-2.5989999771118164 1.2990000247955322,-2.5989999771118164 C1.2990000247955322,-2.5989999771118164 0.9290000200271606,-0.5569999814033508 0.9290000200271606,-0.5569999814033508z">
                        </path>
                    </g>
                    <g opacity="1" transform="matrix(1,0,0,1,50.9379997253418,314.7300109863281)">
                        <path fill="rgb(221,221,220)" fill-opacity="1"
                            d=" M4.177999973297119,-4.547999858856201 C4.177999973297119,-4.547999858856201 -3.25,-5.478000164031982 -3.25,-5.478000164031982 C-3.25,-5.478000164031982 -4.177999973297119,4.921000003814697 -4.177999973297119,4.921000003814697 C-4.177999973297119,4.921000003814697 3.619999885559082,5.478000164031982 3.619999885559082,5.478000164031982 C3.619999885559082,5.478000164031982 4.177999973297119,-4.547999858856201 4.177999973297119,-4.547999858856201z M0.8349999785423279,2.693000078201294 C0.8349999785423279,2.693000078201294 -1.9509999752044678,1.9490000009536743 -1.9509999752044678,1.9490000009536743 C-1.9509999752044678,1.9490000009536743 -1.3940000534057617,-2.134999990463257 -1.3940000534057617,-2.134999990463257 C-1.3940000534057617,-2.134999990463257 1.9500000476837158,-1.2059999704360962 1.9500000476837158,-1.2059999704360962 C1.9500000476837158,-1.2059999704360962 0.8349999785423279,2.693000078201294 0.8349999785423279,2.693000078201294z">
                        </path>
                    </g>
                    <g opacity="1" transform="matrix(1,0,0,1,61.54399871826172,316.67999267578125)">
                        <path fill="rgb(221,221,220)" fill-opacity="1"
                            d=" M4.757999897003174,6.033999919891357 C4.757999897003174,6.033999919891357 2.8540000915527344,1.4850000143051147 2.8540000915527344,1.4850000143051147 C2.8540000915527344,1.4850000143051147 4.525000095367432,-5.013000011444092 4.525000095367432,-5.013000011444092 C4.525000095367432,-5.013000011444092 -2.3440001010894775,-6.313000202178955 -2.3440001010894775,-6.313000202178955 C-2.3440001010894775,-6.313000202178955 -4.757999897003174,4.828000068664551 -4.757999897003174,4.828000068664551 C-4.757999897003174,4.828000068664551 -1.0440000295639038,5.940999984741211 -1.0440000295639038,5.940999984741211 C-1.0440000295639038,5.940999984741211 -1.4160000085830688,0.7429999709129333 -1.4160000085830688,0.7429999709129333 C-1.4160000085830688,0.7429999709129333 2.250999927520752,6.313000202178955 2.250999927520752,6.313000202178955 C2.250999927520752,6.313000202178955 4.757999897003174,6.033999919891357 4.757999897003174,6.033999919891357z M-1.0440000295639038,-4.085000038146973 C-1.0440000295639038,-4.085000038146973 1.184000015258789,-2.7850000858306885 1.184000015258789,-2.7850000858306885 C1.184000015258789,-2.7850000858306885 0.8119999766349792,-0.7419999837875366 0.8119999766349792,-0.7419999837875366 C0.8119999766349792,-0.7419999837875366 -1.4160000085830688,-1.6710000038146973 -1.4160000085830688,-1.6710000038146973 C-1.4160000085830688,-1.6710000038146973 -1.0440000295639038,-4.085000038146973 -1.0440000295639038,-4.085000038146973z">
                        </path>
                    </g>
                    <g opacity="1" transform="matrix(1,0,0,1,73.05599975585938,318.25799560546875)">
                        <path fill="rgb(221,221,220)" fill-opacity="1"
                            d=" M-4.664999961853027,-5.570000171661377 C-4.664999961853027,-5.570000171661377 5.361000061035156,-5.013000011444092 5.361000061035156,-5.013000011444092 C5.361000061035156,-5.013000011444092 4.942999839782715,-2.368000030517578 4.942999839782715,-2.368000030517578 C4.942999839782715,-2.368000030517578 0.4869999885559082,-2.6459999084472656 0.4869999885559082,-2.6459999084472656 C0.4869999885559082,-2.6459999084472656 -0.20900000631809235,5.570000171661377 -0.20900000631809235,5.570000171661377 C-0.20900000631809235,5.570000171661377 -3.8299999237060547,4.873000144958496 -3.8299999237060547,4.873000144958496 C-3.8299999237060547,4.873000144958496 -1.7410000562667847,-2.506999969482422 -1.7410000562667847,-2.506999969482422 C-1.7410000562667847,-2.506999969482422 -5.361000061035156,-3.063999891281128 -5.361000061035156,-3.063999891281128 C-5.361000061035156,-3.063999891281128 -4.664999961853027,-5.570000171661377 -4.664999961853027,-5.570000171661377z">
                        </path>
                    </g>
                </g>
            </g>
        </g>
    </g>
</svg>