<svg xmlns="http://www.w3.org/2000/svg" viewBox="0 0 400 400" width="100%" height="100%"
    preserveAspectRatio="xMidYMid meet">
    <defs>
        <clipPath id="__lottie_element_212">
            <rect width="400" height="400" x="0" y="0"></rect>
        </clipPath>
    </defs>
    <g clip-path="url(#__lottie_element_212)">
        <g transform="matrix(1,0,0,1,93.97999572753906,79.54199981689453)" opacity="1" style="display: block;">
            <g opacity="1" transform="matrix(1,0,0,1,145.76499938964844,31.149999618530273)">
                <path fill="rgb(143,143,143)" fill-opacity="1"
                    d=" M13.906000137329102,-18.06999969482422 C13.906000137329102,-18.06999969482422 -13.906000137329102,-12.699999809265137 -13.906000137329102,-12.699999809265137 C-13.906000137329102,-12.699999809265137 -12.055000305175781,1.2000000476837158 -12.055000305175781,1.2000000476837158 C-12.055000305175781,1.2000000476837158 -9.21500015258789,18.06999969482422 -9.21500015258789,18.06999969482422 C-9.21500015258789,18.06999969482422 4.843999862670898,8.279999732971191 4.843999862670898,8.279999732971191 C4.843999862670898,8.279999732971191 13.906000137329102,-18.06999969482422 13.906000137329102,-18.06999969482422z">
                </path>
            </g>
            <g opacity="1" transform="matrix(1,0,0,1,144.11500549316406,10.704999923706055)">
                <path fill="rgb(221,221,220)" fill-opacity="1"
                    d=" M-15.555000305175781,-10.454999923706055 C-15.555000305175781,-10.454999923706055 -7.855000019073486,10.454999923706055 -7.855000019073486,10.454999923706055 C-7.855000019073486,10.454999923706055 15.555000305175781,2.375 15.555000305175781,2.375 C15.555000305175781,2.375 -15.555000305175781,-10.454999923706055 -15.555000305175781,-10.454999923706055z">
                </path>
            </g>
            <g opacity="1" transform="matrix(1,0,0,1,152.92999267578125,62.97999954223633)">
                <path fill="rgb(143,143,143)" fill-opacity="1"
                    d=" M-13.399999618530273,3.9000000953674316 C-13.399999618530273,3.9000000953674316 -8,8.300000190734863 -8,8.300000190734863 C-8,8.300000190734863 3.4200000762939453,10.630000114440918 3.4200000762939453,10.630000114440918 C3.4200000762939453,10.630000114440918 13.399999618530273,-10.630000114440918 13.399999618530273,-10.630000114440918 C13.399999618530273,-10.630000114440918 -2.5,-5.320000171661377 -2.5,-5.320000171661377 C-2.5,-5.320000171661377 -13.399999618530273,3.9000000953674316 -13.399999618530273,3.9000000953674316z">
                </path>
            </g>
            <g opacity="1" transform="matrix(1,0,0,1,149.09500122070312,53.154998779296875)">
                <path fill="rgb(196,196,196)" fill-opacity="1"
                    d=" M1.5149999856948853,-13.725000381469727 C1.5149999856948853,-13.725000381469727 -17.235000610351562,-13.725000381469727 -17.235000610351562,-13.725000381469727 C-17.235000610351562,-13.725000381469727 -9.5649995803833,13.725000381469727 -9.5649995803833,13.725000381469727 C-9.5649995803833,13.725000381469727 17.235000610351562,-0.8050000071525574 17.235000610351562,-0.8050000071525574 C17.235000610351562,-0.8050000071525574 1.5149999856948853,-13.725000381469727 1.5149999856948853,-13.725000381469727z">
                </path>
            </g>
            <g opacity="1" transform="matrix(1,0,0,1,21.209999084472656,70.83999633789062)">
                <path fill="rgb(196,196,196)" fill-opacity="1"
                    d=" M13.930000305175781,-13.180000305175781 C13.930000305175781,-13.180000305175781 -9.029999732971191,-6.889999866485596 -9.029999732971191,-6.889999866485596 C-9.029999732971191,-6.889999866485596 -15.729999542236328,10.640000343322754 -15.729999542236328,10.640000343322754 C-15.729999542236328,10.640000343322754 -1.909999966621399,13.180000305175781 -1.909999966621399,13.180000305175781 C-1.909999966621399,13.180000305175781 15.729999542236328,-1.7799999713897705 15.729999542236328,-1.7799999713897705 C15.729999542236328,-1.7799999713897705 13.930000305175781,-13.180000305175781 13.930000305175781,-13.180000305175781z">
                </path>
            </g>
            <g opacity="1" transform="matrix(1,0,0,1,20.229999542236328,54.845001220703125)">
                <path fill="rgb(143,143,143)" fill-opacity="1"
                    d=" M11.930000305175781,-13.204999923706055 C11.930000305175781,-13.204999923706055 -19.979999542236328,-4.824999809265137 -19.979999542236328,-4.824999809265137 C-19.979999542236328,-4.824999809265137 -8.050000190734863,9.104999542236328 -8.050000190734863,9.104999542236328 C-8.050000190734863,9.104999542236328 13.65999984741211,13.204999923706055 13.65999984741211,13.204999923706055 C13.65999984741211,13.204999923706055 19.979999542236328,2.815000057220459 19.979999542236328,2.815000057220459 C19.979999542236328,2.815000057220459 11.930000305175781,-13.204999923706055 11.930000305175781,-13.204999923706055z">
                </path>
            </g>
            <g opacity="1" transform="matrix(1,0,0,1,16.565000534057617,31.950000762939453)">
                <path fill="rgb(221,221,220)" fill-opacity="1"
                    d=" M15.6850004196167,-13.279999732971191 C15.6850004196167,-13.279999732971191 9.375,-11.920000076293945 9.375,-11.920000076293945 C9.375,-11.920000076293945 4.565000057220459,-18.06999969482422 4.565000057220459,-18.06999969482422 C4.565000057220459,-18.06999969482422 -16.315000534057617,18.06999969482422 -16.315000534057617,18.06999969482422 C-16.315000534057617,18.06999969482422 16.315000534057617,13.5600004196167 16.315000534057617,13.5600004196167 C16.315000534057617,13.5600004196167 15.6850004196167,-13.279999732971191 15.6850004196167,-13.279999732971191z">
                </path>
            </g>
            <g opacity="1" transform="matrix(1,0,0,1,29.530000686645508,80.70500183105469)">
                <path fill="rgb(143,143,143)" fill-opacity="1"
                    d=" M20.770000457763672,-7.90500020980835 C20.770000457763672,-7.90500020980835 -24.049999237060547,0.7749999761581421 -24.049999237060547,0.7749999761581421 C-24.049999237060547,0.7749999761581421 -14.420000076293945,7.90500020980835 -14.420000076293945,7.90500020980835 C-14.420000076293945,7.90500020980835 24.049999237060547,1.6150000095367432 24.049999237060547,1.6150000095367432 C24.049999237060547,1.6150000095367432 20.770000457763672,-7.90500020980835 20.770000457763672,-7.90500020980835z">
                </path>
            </g>
        </g>
        <g transform="matrix(1,0,0,1,288.94000244140625,52.691001892089844)" opacity="1" style="display: block;">
            <g opacity="1" transform="matrix(1,0,0,1,15.013999938964844,77.05999755859375)">
                <path fill="rgb(138,102,81)" fill-opacity="1"
                    d=" M-4.534999847412109,24.360000610351562 C-4.534999847412109,24.360000610351562 3.994999885559082,16.829999923706055 3.994999885559082,16.829999923706055 C3.994999885559082,16.829999923706055 11.364999771118164,4.289999961853027 11.364999771118164,4.289999961853027 C11.364999771118164,4.289999961853027 10.824999809265137,-24.360000610351562 10.824999809265137,-24.360000610351562 C10.824999809265137,-24.360000610351562 -6.315000057220459,-6.940000057220459 -6.315000057220459,-6.940000057220459 C-6.315000057220459,-6.940000057220459 -11.364999771118164,13.09000015258789 -11.364999771118164,13.09000015258789 C-11.364999771118164,13.09000015258789 -4.534999847412109,24.360000610351562 -4.534999847412109,24.360000610351562z">
                </path>
            </g>
            <g opacity="1" transform="matrix(1,0,0,1,31.40399932861328,47.06999969482422)">
                <path fill="rgb(53,120,93)" fill-opacity="1"
                    d=" M24.174999237060547,-46.81999969482422 C24.174999237060547,-46.81999969482422 21.53499984741211,-44.869998931884766 21.53499984741211,-44.869998931884766 C21.53499984741211,-44.869998931884766 9.755000114440918,-24.020000457763672 9.755000114440918,-24.020000457763672 C9.755000114440918,-24.020000457763672 4.864999771118164,-17.100000381469727 4.864999771118164,-17.100000381469727 C4.864999771118164,-17.100000381469727 6.105999946594238,-3.059999942779541 6.105999946594238,-3.059999942779541 C6.105999946594238,-3.059999942779541 -5.02400016784668,4.460000038146973 -5.02400016784668,4.460000038146973 C-5.02400016784668,4.460000038146973 -3.3540000915527344,9.970000267028809 -3.3540000915527344,9.970000267028809 C-3.3540000915527344,9.970000267028809 -10.244999885559082,25.989999771118164 -10.244999885559082,25.989999771118164 C-10.244999885559082,25.989999771118164 -16.65399932861328,30.170000076293945 -16.65399932861328,30.170000076293945 C-16.65399932861328,30.170000076293945 -24.174999237060547,46.65999984741211 -24.174999237060547,46.65999984741211 C-24.174999237060547,46.65999984741211 -12.394000053405762,46.81999969482422 -12.394000053405762,46.81999969482422 C-12.394000053405762,46.81999969482422 0.5350000262260437,10.149999618530273 0.5350000262260437,10.149999618530273 C0.5350000262260437,10.149999618530273 12.446000099182129,0.14000000059604645 12.446000099182129,0.14000000059604645 C12.446000099182129,0.14000000059604645 11.986000061035156,-17.40999984741211 11.986000061035156,-17.40999984741211 C11.986000061035156,-17.40999984741211 24.174999237060547,-46.81999969482422 24.174999237060547,-46.81999969482422z">
                </path>
            </g>
            <g opacity="1" transform="matrix(1,0,0,1,21.399999618530273,64.38500213623047)">
                <path fill="rgb(83,175,138)" fill-opacity="1"
                    d=" M1.2100000381469727,12.03499984741211 C1.2100000381469727,12.03499984741211 6.64900016784668,-7.34499979019165 6.64900016784668,-7.34499979019165 C6.64900016784668,-7.34499979019165 4.980999946594238,-12.854999542236328 4.980999946594238,-12.854999542236328 C4.980999946594238,-12.854999542236328 -6.64900016784668,12.854999542236328 -6.64900016784668,12.854999542236328 C-6.64900016784668,12.854999542236328 1.2100000381469727,12.03499984741211 1.2100000381469727,12.03499984741211z">
                </path>
            </g>
            <g opacity="1" transform="matrix(1,0,0,1,45.92399978637695,15.109999656677246)">
                <path fill="rgb(83,175,138)" fill-opacity="1"
                    d=" M7.014999866485596,-12.90999984741211 C7.014999866485596,-12.90999984741211 9.654999732971191,-14.859999656677246 9.654999732971191,-14.859999656677246 C9.654999732971191,-14.859999656677246 5.224999904632568,-14.520000457763672 5.224999904632568,-14.520000457763672 C5.224999904632568,-14.520000457763672 -9.654999732971191,14.859999656677246 -9.654999732971191,14.859999656677246 C-9.654999732971191,14.859999656677246 -3.5250000953674316,11.270000457763672 -3.5250000953674316,11.270000457763672 C-3.5250000953674316,11.270000457763672 7.014999866485596,-12.90999984741211 7.014999866485596,-12.90999984741211z">
                </path>
            </g>
            <g opacity="1" transform="matrix(1,0,0,1,13.3149995803833,69.86499786376953)">
                <path fill="rgb(223,188,164)" fill-opacity="1"
                    d=" M-13.0649995803833,7.375 C-13.0649995803833,7.375 -8.586000442504883,-8.015000343322754 -8.586000442504883,-8.015000343322754 C-8.586000442504883,-8.015000343322754 10.3149995803833,-20.28499984741211 10.3149995803833,-20.28499984741211 C10.3149995803833,-20.28499984741211 13.0649995803833,-18.334999084472656 13.0649995803833,-18.334999084472656 C13.0649995803833,-18.334999084472656 9.293999671936035,-10.175000190734863 9.293999671936035,-10.175000190734863 C9.293999671936035,-10.175000190734863 1.475000023841858,-3.325000047683716 1.475000023841858,-3.325000047683716 C1.475000023841858,-3.325000047683716 1.434999942779541,7.375 1.434999942779541,7.375 C1.434999942779541,7.375 -1.8849999904632568,14.645000457763672 -1.8849999904632568,14.645000457763672 C-1.8849999904632568,14.645000457763672 -9.666000366210938,20.28499984741211 -9.666000366210938,20.28499984741211 C-9.666000366210938,20.28499984741211 -13.0649995803833,7.375 -13.0649995803833,7.375z">
                </path>
            </g>
            <g opacity="1" transform="matrix(1,0,0,1,28.350000381469727,72.70999908447266)">
                <path fill="rgb(195,151,122)" fill-opacity="1"
                    d=" M9.34000015258789,-20.31999969482422 C9.34000015258789,-20.31999969482422 7.920000076293945,11.850000381469727 7.920000076293945,11.850000381469727 C7.920000076293945,11.850000381469727 -9.34000015258789,21.18000030517578 -9.34000015258789,21.18000030517578 C-9.34000015258789,21.18000030517578 -1.9700000286102295,-21.18000030517578 -1.9700000286102295,-21.18000030517578 C-1.9700000286102295,-21.18000030517578 9.34000015258789,-20.31999969482422 9.34000015258789,-20.31999969482422z">
                </path>
            </g>
        </g>
        <g transform="matrix(1,0,0,1,0.00000762939453125,0.001007080078125)" opacity="1" style="display: block;">
            <g opacity="1" transform="matrix(1,0,0,1,276.5199890136719,164.84500122070312)">
                <path fill="rgb(115,141,86)" fill-opacity="1"
                    d=" M26.530000686645508,9.265000343322754 C26.530000686645508,9.265000343322754 7.671000003814697,-28.895000457763672 7.671000003814697,-28.895000457763672 C7.671000003814697,-28.895000457763672 -8.510000228881836,-8.645000457763672 -8.510000228881836,-8.645000457763672 C-8.510000228881836,-8.645000457763672 -26.530000686645508,28.895000457763672 -26.530000686645508,28.895000457763672 C-26.530000686645508,28.895000457763672 26.530000686645508,9.265000343322754 26.530000686645508,9.265000343322754z">
                </path>
            </g>
            <g opacity="1" transform="matrix(1,0,0,1,249.61000061035156,167.47500610351562)">
                <path fill="rgb(153,194,108)" fill-opacity="1"
                    d=" M-16.100000381469727,-21.05500030517578 C-16.100000381469727,-21.05500030517578 -18.399999618530273,1.034999966621399 -18.399999618530273,1.034999966621399 C-18.399999618530273,1.034999966621399 5.921000003814697,21.05500030517578 5.921000003814697,21.05500030517578 C5.921000003814697,21.05500030517578 18.399999618530273,-11.274999618530273 18.399999618530273,-11.274999618530273 C18.399999618530273,-11.274999618530273 -16.100000381469727,-21.05500030517578 -16.100000381469727,-21.05500030517578z">
                </path>
            </g>
            <g opacity="1" transform="matrix(1,0,0,1,253.09500122070312,171.05999755859375)">
                <path fill="rgb(90,117,60)" fill-opacity="1"
                    d=" M-15.895000457763672,27.010000228881836 C-15.895000457763672,27.010000228881836 18.524999618530273,32.279998779296875 18.524999618530273,32.279998779296875 C18.524999618530273,32.279998779296875 39.494998931884766,17.469999313354492 39.494998931884766,17.469999313354492 C39.494998931884766,17.469999313354492 45.23500061035156,0.11999999731779099 45.23500061035156,0.11999999731779099 C45.23500061035156,0.11999999731779099 2.434999942779541,17.469999313354492 2.434999942779541,17.469999313354492 C2.434999942779541,17.469999313354492 -15.895000457763672,-1.9600000381469727 -15.895000457763672,-1.9600000381469727 C-15.895000457763672,-1.9600000381469727 -45.23500061035156,-32.279998779296875 -45.23500061035156,-32.279998779296875 C-45.23500061035156,-32.279998779296875 -15.895000457763672,27.010000228881836 -15.895000457763672,27.010000228881836z">
                </path>
            </g>
            <g opacity="1" transform="matrix(1,0,0,1,289.54998779296875,166.98500061035156)">
                <path fill="rgb(53,120,93)" fill-opacity="1"
                    d=" M-0.36000001430511475,-37.05500030517578 C-0.36000001430511475,-37.05500030517578 -5.360000133514404,-31.03499984741211 -5.360000133514404,-31.03499984741211 C-5.360000133514404,-31.03499984741211 8.779999732971191,4.195000171661377 8.779999732971191,4.195000171661377 C8.779999732971191,4.195000171661377 -17.93000030517578,36.35499954223633 -17.93000030517578,36.35499954223633 C-17.93000030517578,36.35499954223633 -10.130999565124512,37.05500030517578 -10.130999565124512,37.05500030517578 C-10.130999565124512,37.05500030517578 17.93000030517578,6.164999961853027 17.93000030517578,6.164999961853027 C17.93000030517578,6.164999961853027 -0.36000001430511475,-37.05500030517578 -0.36000001430511475,-37.05500030517578z">
                </path>
            </g>
        </g>
        <g transform="matrix(1,0,0,1,108.84000396728516,131.39801025390625)" opacity="1" style="display: block;">
            <g opacity="1" transform="matrix(1,0,0,1,121.91999816894531,62.3380012512207)">
                <path fill="rgb(115,141,86)" fill-opacity="1"
                    d=" M-6.440000057220459,8.734999656677246 C-6.440000057220459,8.734999656677246 11.373000144958496,6.49399995803833 11.373000144958496,6.49399995803833 C11.373000144958496,6.49399995803833 4.756999969482422,-23.840999603271484 4.756999969482422,-23.840999603271484 C4.756999969482422,-23.840999603271484 -6.440000057220459,8.734999656677246 -6.440000057220459,8.734999656677246z">
                </path>
            </g>
            <g opacity="1" transform="matrix(1,0,0,1,37.724998474121094,71.28299713134766)">
                <path fill="rgb(115,141,86)" fill-opacity="1"
                    d=" M-1.315000057220459,-30.280000686645508 C-1.315000057220459,-30.280000686645508 -11.255000114440918,-31.780000686645508 -11.255000114440918,-31.780000686645508 C-11.255000114440918,-31.780000686645508 -37.474998474121094,-34.529998779296875 -37.474998474121094,-34.529998779296875 C-37.474998474121094,-34.529998779296875 -2.4649999141693115,-6.28000020980835 -2.4649999141693115,-6.28000020980835 C-2.4649999141693115,-6.28000020980835 0.004999999888241291,2.0199999809265137 0.004999999888241291,2.0199999809265137 C0.004999999888241291,2.0199999809265137 15.984999656677246,34.529998779296875 15.984999656677246,34.529998779296875 C15.984999656677246,34.529998779296875 37.474998474121094,13.569999694824219 37.474998474121094,13.569999694824219 C37.474998474121094,13.569999694824219 -1.315000057220459,-30.280000686645508 -1.315000057220459,-30.280000686645508z">
                </path>
            </g>
            <g opacity="1" transform="matrix(1,0,0,1,39.209999084472656,82.4280014038086)">
                <path fill="rgb(68,96,36)" fill-opacity="1"
                    d=" M-16.209999084472656,-4.114999771118164 C-16.209999084472656,-4.114999771118164 -4.639999866485596,16.184999465942383 -4.639999866485596,16.184999465942383 C-4.639999866485596,16.184999465942383 7.480000019073486,21.625 7.480000019073486,21.625 C7.480000019073486,21.625 16.209999084472656,9.194999694824219 16.209999084472656,9.194999694824219 C16.209999084472656,9.194999694824219 -1.4800000190734863,-21.625 -1.4800000190734863,-21.625 C-1.4800000190734863,-21.625 -16.209999084472656,-4.114999771118164 -16.209999084472656,-4.114999771118164z">
                </path>
            </g>
            <g opacity="1" transform="matrix(1,0,0,1,91.64399719238281,50.4640007019043)">
                <path fill="rgb(83,175,138)" fill-opacity="1"
                    d=" M-22.94499969482422,-10.973999977111816 C-8.090999603271484,4.545000076293945 6.761000156402588,20.06399917602539 21.614999771118164,35.582000732421875 C22.058000564575195,12.746999740600586 22.500999450683594,-10.086999893188477 22.94499969482422,-32.922000885009766 C22.19499969482422,-33.42499923706055 -8.314000129699707,-35.582000732421875 -8.314000129699707,-35.582000732421875 C-10.732999801635742,-33.47200012207031 -13.697999954223633,-30.44300079345703 -16.423999786376953,-26.325000762939453 C-20.32900047302246,-20.422000885009766 -22.091999053955078,-14.77299976348877 -22.94499969482422,-10.973999977111816z">
                </path>
            </g>
            <g opacity="1" transform="matrix(1,0,0,1,72.19499969482422,53.65299987792969)">
                <path fill="rgb(83,175,138)" fill-opacity="1"
                    d=" M-4.735000133514404,-29.520999908447266 C-4.735000133514404,-29.520999908447266 -7.945000171661377,-15.951000213623047 -7.945000171661377,-15.951000213623047 C-7.945000171661377,-15.951000213623047 -38.025001525878906,-2.5999999046325684 -38.025001525878906,-2.5999999046325684 C-38.025001525878906,-2.5999999046325684 7.65500020980835,29.1299991607666 7.65500020980835,29.1299991607666 C7.65500020980835,29.1299991607666 7.934999942779541,29.520999908447266 7.934999942779541,29.520999908447266 C7.934999942779541,29.520999908447266 38.025001525878906,19.219999313354492 38.025001525878906,19.219999313354492 C38.025001525878906,19.219999313354492 -4.735000133514404,-29.520999908447266 -4.735000133514404,-29.520999908447266z">
                </path>
            </g>
            <g opacity="1" transform="matrix(1,0,0,1,37.08000183105469,33.62300109863281)">
                <path fill="rgb(113,200,166)" fill-opacity="1"
                    d=" M-11.029999732971191,15.039999961853027 C-11.029999732971191,15.039999961853027 -2.9100000858306885,17.43000030517578 -2.9100000858306885,17.43000030517578 C-2.9100000858306885,17.43000030517578 32.63999938964844,4.079999923706055 32.63999938964844,4.079999923706055 C32.63999938964844,4.079999923706055 -18.049999237060547,-17.43000030517578 -18.049999237060547,-17.43000030517578 C-18.049999237060547,-17.43000030517578 -32.63999938964844,-1.4600000381469727 -32.63999938964844,-1.4600000381469727 C-32.63999938964844,-1.4600000381469727 -11.029999732971191,15.039999961853027 -11.029999732971191,15.039999961853027z">
                </path>
            </g>
            <g opacity="1" transform="matrix(1,0,0,1,97.19499969482422,3.4130001068115234)">
                <path fill="rgb(53,120,93)" fill-opacity="1"
                    d=" M0.13500000536441803,0.05000000074505806 C0.13500000536441803,0.05000000074505806 0.07500000298023224,-0.07000000029802322 0.07500000298023224,-0.07000000029802322 C0.07500000298023224,-0.07000000029802322 -0.13500000536441803,0.07000000029802322 -0.13500000536441803,0.07000000029802322 C-0.13500000536441803,0.07000000029802322 0.13500000536441803,0.05000000074505806 0.13500000536441803,0.05000000074505806z">
                </path>
            </g>
            <g opacity="1" transform="matrix(1,0,0,1,59.05500030517578,76.40799713134766)">
                <path fill="rgb(53,120,93)" fill-opacity="1"
                    d=" M17.834999084472656,1.774999976158142 C17.834999084472656,1.774999976158142 -54.6150016784668,-44.244998931884766 -54.6150016784668,-44.244998931884766 C-54.6150016784668,-44.244998931884766 -58.80500030517578,-39.654998779296875 -58.80500030517578,-39.654998779296875 C-58.80500030517578,-39.654998779296875 16.145000457763672,8.444999694824219 16.145000457763672,8.444999694824219 C16.145000457763672,8.444999694824219 43.755001068115234,44.244998931884766 43.755001068115234,44.244998931884766 C43.755001068115234,44.244998931884766 58.80500030517578,-3.5250000953674316 58.80500030517578,-3.5250000953674316 C58.80500030517578,-3.5250000953674316 17.834999084472656,1.774999976158142 17.834999084472656,1.774999976158142z">
                </path>
            </g>
            <g opacity="1" transform="matrix(1,0,0,1,44.375,21.753000259399414)">
                <path fill="rgb(53,120,93)" fill-opacity="1"
                    d=" M23.084999084472656,2.380000114440918 C23.084999084472656,2.380000114440918 6.465000152587891,-8.979999542236328 6.465000152587891,-8.979999542236328 C6.465000152587891,-8.979999542236328 -24.094999313354492,-15.949999809265137 -24.094999313354492,-15.949999809265137 C-24.094999313354492,-15.949999809265137 -25.344999313354492,-5.559999942779541 -25.344999313354492,-5.559999942779541 C-25.344999313354492,-5.559999942779541 25.344999313354492,15.949999809265137 25.344999313354492,15.949999809265137 C25.344999313354492,15.949999809265137 23.084999084472656,2.380000114440918 23.084999084472656,2.380000114440918z">
                </path>
            </g>
            <g opacity="1" transform="matrix(1,0,0,1,77.56400299072266,18.527999877929688)">
                <path fill="rgb(53,120,93)" fill-opacity="1"
                    d=" M-7.760000228881836,18.277999877929688 C-2.5859999656677246,11.192000389099121 2.5859999656677246,4.105000019073486 7.760000228881836,-2.9809999465942383 C5.764999866485596,-8.079999923706055 3.7699999809265137,-13.178999900817871 1.7740000486373901,-18.277999877929688 C-1.3289999961853027,-13.401000022888184 -4.432000160217285,-8.52299976348877 -7.535999774932861,-3.6459999084472656 C-7.611000061035156,3.6619999408721924 -7.684999942779541,10.970000267028809 -7.760000228881836,18.277999877929688z">
                </path>
            </g>
        </g>
        <g transform="matrix(1,0,0,1,64.82999420166016,348.6199951171875)" opacity="1" style="display: block;">
            <g opacity="0.1" transform="matrix(1,0,0,1,126.2750015258789,39.935001373291016)">
                <path fill="rgb(43,43,43)" fill-opacity="1"
                    d=" M-126.2750015258789,0.6850000023841858 C-126.2750015258789,0.6850000023841858 -27.295000076293945,11.444999694824219 -27.295000076293945,11.444999694824219 C-27.295000076293945,11.444999694824219 126.2750015258789,-0.7749999761581421 126.2750015258789,-0.7749999761581421 C126.2750015258789,-0.7749999761581421 -19.405000686645508,-11.444999694824219 -19.405000686645508,-11.444999694824219 C-19.405000686645508,-11.444999694824219 -126.2750015258789,0.6850000023841858 -126.2750015258789,0.6850000023841858z">
                </path>
            </g>
            <g opacity="1" transform="matrix(1,0,0,1,142.10499572753906,13.8149995803833)">
                <path fill="rgb(53,120,93)" fill-opacity="1"
                    d=" M-14.805000305175781,-1.2649999856948853 C-14.805000305175781,-1.2649999856948853 -14.805000305175781,12.404999732971191 -14.805000305175781,12.404999732971191 C-14.805000305175781,12.404999732971191 2.075000047683716,7.195000171661377 2.075000047683716,7.195000171661377 C2.075000047683716,7.195000171661377 11.664999961853027,-0.0949999988079071 11.664999961853027,-0.0949999988079071 C11.664999961853027,-0.0949999988079071 14.805000305175781,-12.404999732971191 14.805000305175781,-12.404999732971191 C14.805000305175781,-12.404999732971191 -14.805000305175781,-1.2649999856948853 -14.805000305175781,-1.2649999856948853z">
                </path>
            </g>
            <g opacity="1" transform="matrix(1,0,0,1,65.5,13.270000457763672)">
                <path fill="rgb(53,120,93)" fill-opacity="1"
                    d=" M-10.720000267028809,-13.020000457763672 C-10.720000267028809,-13.020000457763672 -15.789999961853027,13.020000457763672 -15.789999961853027,13.020000457763672 C-15.789999961853027,13.020000457763672 -1.1799999475479126,12.949999809265137 -1.1799999475479126,12.949999809265137 C-1.1799999475479126,12.949999809265137 12.680000305175781,4.179999828338623 12.680000305175781,4.179999828338623 C12.680000305175781,4.179999828338623 15.789999961853027,-2.371000051498413 15.789999961853027,-2.371000051498413 C15.789999961853027,-2.371000051498413 -10.720000267028809,-13.020000457763672 -10.720000267028809,-13.020000457763672z">
                </path>
            </g>
            <g opacity="1" transform="matrix(1,0,0,1,152.31500244140625,24.46500015258789)">
                <path fill="rgb(83,175,138)" fill-opacity="1"
                    d=" M1.4539999961853027,-10.744999885559082 C1.4539999961853027,-10.744999885559082 -25.016000747680664,1.7549999952316284 -25.016000747680664,1.7549999952316284 C-25.016000747680664,1.7549999952316284 -25.016000747680664,8.855999946594238 -25.016000747680664,8.855999946594238 C-25.016000747680664,8.855999946594238 -2.555999994277954,10.744999885559082 -2.555999994277954,10.744999885559082 C-2.555999994277954,10.744999885559082 25.014999389648438,8.855999946594238 25.014999389648438,8.855999946594238 C25.014999389648438,8.855999946594238 1.4539999961853027,-10.744999885559082 1.4539999961853027,-10.744999885559082z">
                </path>
            </g>
            <g opacity="1" transform="matrix(1,0,0,1,152.31500244140625,36.70000076293945)">
                <path fill="rgb(53,120,93)" fill-opacity="1"
                    d=" M-25.014999389648438,-3.380000114440918 C-25.014999389648438,-3.380000114440918 25.014999389648438,-3.380000114440918 25.014999389648438,-3.380000114440918 C25.014999389648438,-3.380000114440918 25.014999389648438,3.380000114440918 25.014999389648438,3.380000114440918 C25.014999389648438,3.380000114440918 -25.014999389648438,3.380000114440918 -25.014999389648438,3.380000114440918 C-25.014999389648438,3.380000114440918 -25.014999389648438,-3.380000114440918 -25.014999389648438,-3.380000114440918z">
                </path>
            </g>
            <g opacity="1" transform="matrix(1,0,0,1,65.79499816894531,28.950000762939453)">
                <path fill="rgb(83,175,138)" fill-opacity="1"
                    d=" M12.385000228881836,-11.5 C12.385000228881836,-11.5 18.545000076293945,8.119999885559082 18.545000076293945,8.119999885559082 C18.545000076293945,8.119999885559082 1.215000033378601,11.5 1.215000033378601,11.5 C1.215000033378601,11.5 -18.545000076293945,8.119999885559082 -18.545000076293945,8.119999885559082 C-18.545000076293945,8.119999885559082 -16.084999084472656,-2.6600000858306885 -16.084999084472656,-2.6600000858306885 C-16.084999084472656,-2.6600000858306885 12.385000228881836,-11.5 12.385000228881836,-11.5z">
                </path>
            </g>
            <g opacity="1" transform="matrix(1,0,0,1,65.79499816894531,40.45000076293945)">
                <path fill="rgb(53,120,93)" fill-opacity="1"
                    d=" M-18.545000076293945,-3.380000114440918 C-18.545000076293945,-3.380000114440918 18.545000076293945,-3.380000114440918 18.545000076293945,-3.380000114440918 C18.545000076293945,-3.380000114440918 18.545000076293945,3.380000114440918 18.545000076293945,3.380000114440918 C18.545000076293945,3.380000114440918 -18.545000076293945,3.380000114440918 -18.545000076293945,3.380000114440918 C-18.545000076293945,3.380000114440918 -18.545000076293945,-3.380000114440918 -18.545000076293945,-3.380000114440918z">
                </path>
            </g>
            <g opacity="1" transform="matrix(1,0,0,1,0,0)">
                <path fill="rgb(114,140,86)" fill-opacity="1" d="M0 0"></path>
                <path stroke-linecap="butt" stroke-linejoin="miter" fill-opacity="0" stroke-miterlimit="4"
                    stroke="rgb(42,42,42)" stroke-opacity="1" stroke-width="4" d="M0 0"></path>
            </g>
        </g>
        <g transform="matrix(1,0,0,1,101.2300033569336,197.82101440429688)" opacity="1" style="display: block;">
            <g opacity="1" transform="matrix(1,0,0,1,73.75499725341797,87.73500061035156)">
                <path fill="rgb(115,141,86)" fill-opacity="1"
                    d=" M67.30500030517578,-86.99500274658203 C67.30500030517578,-86.99500274658203 65.61299896240234,-84.50700378417969 65.61299896240234,-84.50700378417969 C65.61299896240234,-84.50700378417969 15.664999961853027,-11.074999809265137 15.664999961853027,-11.074999809265137 C15.664999961853027,-11.074999809265137 -10.725000381469727,-62.5359992980957 -10.725000381469727,-62.5359992980957 C-10.725000381469727,-62.5359992980957 -31.575000762939453,-55.54499816894531 -31.575000762939453,-55.54499816894531 C-31.575000762939453,-55.54499816894531 -71.1050033569336,54.525001525878906 -71.1050033569336,54.525001525878906 C-71.1050033569336,54.525001525878906 -17.684999465942383,86.8550033569336 -17.684999465942383,86.8550033569336 C-17.684999465942383,86.8550033569336 -17.4950008392334,86.99500274658203 -17.4950008392334,86.99500274658203 C-17.4950008392334,86.99500274658203 71.1050033569336,52.1150016784668 71.1050033569336,52.1150016784668 C71.1050033569336,52.1150016784668 67.30500030517578,-86.99500274658203 67.30500030517578,-86.99500274658203z">
                </path>
            </g>
            <g opacity="1" transform="matrix(1,0,0,1,96.47000122070312,83.69999694824219)">
                <path fill="rgb(153,194,108)" fill-opacity="1"
                    d=" M25.950000762939453,-77.23999786376953 C25.950000762939453,-77.23999786376953 8.470000267028809,-46.709999084472656 8.470000267028809,-46.709999084472656 C8.470000267028809,-46.709999084472656 -0.4410000145435333,-54.69900131225586 -0.4410000145435333,-54.69900131225586 C-0.4410000145435333,-54.69900131225586 -13.65999984741211,-65.2699966430664 -13.65999984741211,-65.2699966430664 C-13.65999984741211,-65.2699966430664 -33.441001892089844,-58.5 -33.441001892089844,-58.5 C-33.441001892089844,-58.5 -39.5,83.4489974975586 -39.5,83.4489974975586 C-39.5,83.4489974975586 39.5,-83.4489974975586 39.5,-83.4489974975586 C39.5,-83.4489974975586 26.6200008392334,-79.05000305175781 26.6200008392334,-79.05000305175781 C26.6200008392334,-79.05000305175781 25.950000762939453,-77.23999786376953 25.950000762939453,-77.23999786376953z">
                </path>
            </g>
            <g opacity="1" transform="matrix(1,0,0,1,72.66000366210938,157.28900146484375)">
                <path fill="rgb(53,120,93)" fill-opacity="1"
                    d=" M-15.6899995803833,9.859999656677246 C-15.6899995803833,9.859999656677246 -70.01000213623047,-15.029999732971191 -70.01000213623047,-15.029999732971191 C-70.01000213623047,-15.029999732971191 -72.41000366210938,-7.459000110626221 -72.41000366210938,-7.459000110626221 C-72.41000366210938,-7.459000110626221 -16.59000015258789,17.299999237060547 -16.59000015258789,17.299999237060547 C-16.59000015258789,17.299999237060547 -16.399999618530273,17.440000534057617 -16.399999618530273,17.440000534057617 C-16.399999618530273,17.440000534057617 72.41000366210938,-9.229999542236328 72.41000366210938,-9.229999542236328 C72.41000366210938,-9.229999542236328 72.19999694824219,-17.440000534057617 72.19999694824219,-17.440000534057617 C72.19999694824219,-17.440000534057617 -15.6899995803833,9.859999656677246 -15.6899995803833,9.859999656677246z">
                </path>
            </g>
            <g opacity="1" transform="matrix(1,0,0,1,0,0)">
                <path fill="rgb(114,140,86)" fill-opacity="1"
                    d=" M140.24899291992188,-0.5440000295639038 C140.24899291992188,-0.5440000295639038 118.22799682617188,-0.12999999523162842 118.22799682617188,-0.12999999523162842 C118.22799682617188,-0.12999999523162842 116.6449966430664,28.80500030517578 116.2699966430664,29.18000030517578 C115.8949966430664,29.55500030517578 140.89500427246094,26.68000030517578 140.89500427246094,26.68000030517578 C140.89500427246094,26.68000030517578 140.24899291992188,-0.5440000295639038 140.24899291992188,-0.5440000295639038z">
                </path>
            </g>
        </g>
        <g transform="matrix(1,0,0,1,54.60000228881836,235.20201110839844)" opacity="1" style="display: block;">
            <g opacity="1" transform="matrix(1,0,0,1,29.44499969482422,35.03900146484375)">
                <path fill="rgb(195,151,122)" fill-opacity="1"
                    d=" M5.09499979019165,-10.979999542236328 C5.09499979019165,-10.979999542236328 -5.204999923706055,0.8899999856948853 -5.204999923706055,0.8899999856948853 C-5.204999923706055,0.8899999856948853 -9.524999618530273,5.870999813079834 -9.524999618530273,5.870999813079834 C-9.524999618530273,5.870999813079834 -4.005000114440918,10.979999542236328 -4.005000114440918,10.979999542236328 C-4.005000114440918,10.979999542236328 9.524999618530273,-7.709000110626221 9.524999618530273,-7.709000110626221 C9.524999618530273,-7.709000110626221 5.09499979019165,-10.979999542236328 5.09499979019165,-10.979999542236328z">
                </path>
            </g>
            <g opacity="1" transform="matrix(1,0,0,1,18.024999618530273,22.90399932861328)">
                <path fill="rgb(223,188,164)" fill-opacity="1"
                    d=" M6.215000152587891,-18.006000518798828 C6.215000152587891,-18.006000518798828 -6.965000152587891,-13.024999618530273 -6.965000152587891,-13.024999618530273 C-6.965000152587891,-13.024999618530273 -12.324999809265137,-1.4040000438690186 -12.324999809265137,-1.4040000438690186 C-12.324999809265137,-1.4040000438690186 -5.534999847412109,14.524999618530273 -5.534999847412109,14.524999618530273 C-5.534999847412109,14.524999618530273 1.8949999809265137,18.006000518798828 1.8949999809265137,18.006000518798828 C1.8949999809265137,18.006000518798828 1.9049999713897705,17.9950008392334 1.9049999713897705,17.9950008392334 C1.9049999713897705,17.9950008392334 12.324999809265137,7.296000003814697 12.324999809265137,7.296000003814697 C12.324999809265137,7.296000003814697 6.215000152587891,-18.006000518798828 6.215000152587891,-18.006000518798828z">
                </path>
            </g>
            <g opacity="1" transform="matrix(1,0,0,1,23.05500030517578,15.225000381469727)">
                <path fill="rgb(138,102,81)" fill-opacity="1"
                    d=" M11.994999885559082,8.253999710083008 C11.994999885559082,8.253999710083008 -7.554999828338623,-14.975000381469727 -7.554999828338623,-14.975000381469727 C-7.554999828338623,-14.975000381469727 -11.994999885559082,-5.3460001945495605 -11.994999885559082,-5.3460001945495605 C-11.994999885559082,-5.3460001945495605 7.295000076293945,14.975000381469727 7.295000076293945,14.975000381469727 C7.295000076293945,14.975000381469727 11.484999656677246,8.833999633789062 11.484999656677246,8.833999633789062 C11.484999656677246,8.833999633789062 11.994999885559082,8.253999710083008 11.994999885559082,8.253999710083008z">
                </path>
            </g>
            <g opacity="1" transform="matrix(1,0,0,1,10.09000015258789,37.42900085449219)">
                <path fill="rgb(195,151,122)" fill-opacity="1"
                    d=" M9.829999923706055,3.4800000190734863 C9.829999923706055,3.4800000190734863 -4.389999866485596,-15.930000305175781 -4.389999866485596,-15.930000305175781 C-4.389999866485596,-15.930000305175781 -9.84000015258789,2.9509999752044678 -9.84000015258789,2.9509999752044678 C-9.84000015258789,2.9509999752044678 -0.8700000047683716,15.930000305175781 -0.8700000047683716,15.930000305175781 C-0.8700000047683716,15.930000305175781 9.84000015258789,3.4690001010894775 9.84000015258789,3.4690001010894775 C9.84000015258789,3.4690001010894775 9.829999923706055,3.4800000190734863 9.829999923706055,3.4800000190734863z">
                </path>
            </g>
        </g>
        <g transform="matrix(1,0,0,1,63.52000427246094,167.9010009765625)" opacity="1" style="display: block;">
            <g opacity="1" transform="matrix(1,0,0,1,39.119998931884766,30.815000534057617)">
                <path fill="rgb(153,194,108)" fill-opacity="1"
                    d=" M6.449999809265137,-30.565000534057617 C6.449999809265137,-30.565000534057617 -33.95000076293945,23.145000457763672 -33.95000076293945,23.145000457763672 C-33.95000076293945,23.145000457763672 14.770000457763672,30.565000534057617 14.770000457763672,30.565000534057617 C14.770000457763672,30.565000534057617 33.95000076293945,-16.264999389648438 33.95000076293945,-16.264999389648438 C33.95000076293945,-16.264999389648438 6.449999809265137,-30.565000534057617 6.449999809265137,-30.565000534057617z">
                </path>
            </g>
            <g opacity="1" transform="matrix(1,0,0,1,38.47999954223633,54.685001373291016)">
                <path fill="rgb(115,141,86)" fill-opacity="1"
                    d=" M-33.310001373291016,-0.7250000238418579 C-33.310001373291016,-0.7250000238418579 -33.310001373291016,-0.7250000238418579 -33.310001373291016,-0.7250000238418579 C-33.310001373291016,-0.7250000238418579 -13.920000076293945,38.17399978637695 -13.920000076293945,38.17399978637695 C-13.920000076293945,38.17399978637695 -2.9700000286102295,34.3849983215332 -2.9700000286102295,34.3849983215332 C-2.9700000286102295,34.3849983215332 33.310001373291016,-38.17399978637695 33.310001373291016,-38.17399978637695 C33.310001373291016,-38.17399978637695 -33.310001373291016,-0.7250000238418579 -33.310001373291016,-0.7250000238418579z">
                </path>
            </g>
            <g opacity="1" transform="matrix(1,0,0,1,53.80500030517578,51.67499923706055)">
                <path fill="rgb(90,117,60)" fill-opacity="1"
                    d=" M19.264999389648438,-37.125 C19.264999389648438,-37.125 -29.2450008392334,37.125 -29.2450008392334,37.125 C-29.2450008392334,37.125 -11.654999732971191,35.80500030517578 -11.654999732971191,35.80500030517578 C-11.654999732971191,35.80500030517578 -1.5549999475479126,29.694000244140625 -1.5549999475479126,29.694000244140625 C-1.5549999475479126,29.694000244140625 29.2450008392334,-27.375 29.2450008392334,-27.375 C29.2450008392334,-27.375 19.264999389648438,-37.125 19.264999389648438,-37.125z">
                </path>
            </g>
            <g opacity="1" transform="matrix(1,0,0,1,26.25,75.73100280761719)">
                <path fill="rgb(53,120,93)" fill-opacity="1"
                    d=" M-4.820000171661377,21.770000457763672 C-4.820000171661377,21.770000457763672 21.280000686645508,13.069999694824219 21.280000686645508,13.069999694824219 C21.280000686645508,13.069999694824219 26,5.638999938964844 26,5.638999938964844 C26,5.638999938964844 -1.690000057220459,13.069999694824219 -1.690000057220459,13.069999694824219 C-1.690000057220459,13.069999694824219 -21.079999923706055,-21.770000457763672 -21.079999923706055,-21.770000457763672 C-21.079999923706055,-21.770000457763672 -26,-15.3100004196167 -26,-15.3100004196167 C-26,-15.3100004196167 -4.820000171661377,21.770000457763672 -4.820000171661377,21.770000457763672z">
                </path>
            </g>
        </g>
        <g transform="matrix(1,0,0,1,104.31999969482422,-0.2389984130859375)" opacity="1" style="display: block;">
            <g opacity="1" transform="matrix(1,0,0,1,78.88500213623047,81.72100067138672)">
                <path fill="rgb(223,188,164)" fill-opacity="1"
                    d=" M52.28499984741211,49.77000045776367 C52.28499984741211,49.77000045776367 35.654998779296875,-47.33000183105469 35.654998779296875,-47.33000183105469 C35.654998779296875,-47.33000183105469 8.015000343322754,-68.62000274658203 8.015000343322754,-68.62000274658203 C8.015000343322754,-68.62000274658203 -9.524999618530273,-53.790000915527344 -9.524999618530273,-53.790000915527344 C-9.524999618530273,-53.790000915527344 -45.94499969482422,-56.18000030517578 -45.94499969482422,-56.18000030517578 C-45.94499969482422,-56.18000030517578 -52.28499984741211,-50.40999984741211 -52.28499984741211,-50.40999984741211 C-52.28499984741211,-50.40999984741211 -39.10499954223633,-24.68000030517578 -39.10499954223633,-24.68000030517578 C-39.10499954223633,-24.68000030517578 -16.46500015258789,68.62000274658203 -16.46500015258789,68.62000274658203 C-16.46500015258789,68.62000274658203 16.844999313354492,59.43000030517578 16.844999313354492,59.43000030517578 C16.844999313354492,59.43000030517578 52.28499984741211,49.77000045776367 52.28499984741211,49.77000045776367z">
                </path>
            </g>
            <g opacity="1" transform="matrix(1,0,0,1,98.09500122070312,21.410999298095703)">
                <path fill="rgb(235,235,235)" fill-opacity="1"
                    d=" M-11.194999694824219,-2.7699999809265137 C-11.194999694824219,-2.7699999809265137 16.44499969482422,12.979999542236328 16.44499969482422,12.979999542236328 C16.44499969482422,12.979999542236328 -0.03500000014901161,-9.010000228881836 -0.03500000014901161,-9.010000228881836 C-0.03500000014901161,-9.010000228881836 -13.595000267028809,-12.979999542236328 -13.595000267028809,-12.979999542236328 C-13.595000267028809,-12.979999542236328 -16.44499969482422,-8.3100004196167 -16.44499969482422,-8.3100004196167 C-16.44499969482422,-8.3100004196167 -11.194999694824219,-2.7699999809265137 -11.194999694824219,-2.7699999809265137z">
                </path>
            </g>
            <g opacity="1" transform="matrix(1,0,0,1,71.76599884033203,17.320999145507812)">
                <path fill="rgb(221,221,220)" fill-opacity="1"
                    d=" M-14.475000381469727,3.7100000381469727 C-14.475000381469727,3.7100000381469727 0.5649999976158142,17.06999969482422 0.5649999976158142,17.06999969482422 C0.5649999976158142,17.06999969482422 15.135000228881836,1.3200000524520874 15.135000228881836,1.3200000524520874 C15.135000228881836,1.3200000524520874 12.734999656677246,-8.888999938964844 12.734999656677246,-8.888999938964844 C12.734999656677246,-8.888999938964844 -15.135000228881836,-17.06999969482422 -15.135000228881836,-17.06999969482422 C-15.135000228881836,-17.06999969482422 -14.475000381469727,3.7100000381469727 -14.475000381469727,3.7100000381469727z">
                </path>
            </g>
            <g opacity="1" transform="matrix(1,0,0,1,51.21099853515625,17.34600067138672)">
                <path fill="rgb(196,196,196)" fill-opacity="1"
                    d=" M-21.1200008392334,3.684999942779541 C-21.1200008392334,3.684999942779541 -20.829999923706055,6.945000171661377 -20.829999923706055,6.945000171661377 C-20.829999923706055,6.945000171661377 -18.579999923706055,8.793999671936035 -18.579999923706055,8.793999671936035 C-18.579999923706055,8.793999671936035 21.069000244140625,17.094999313354492 21.069000244140625,17.094999313354492 C21.069000244140625,17.094999313354492 21.1200008392334,17.04599952697754 21.1200008392334,17.04599952697754 C21.1200008392334,17.04599952697754 5.420000076293945,-17.094999313354492 5.420000076293945,-17.094999313354492 C5.420000076293945,-17.094999313354492 -21.1200008392334,3.684999942779541 -21.1200008392334,3.684999942779541z">
                </path>
            </g>
            <g opacity="1" transform="matrix(1,0,0,1,34.040000915527344,88.00599670410156)">
                <path fill="rgb(195,151,122)" fill-opacity="1"
                    d=" M8.819999694824219,-45.54499816894531 C8.819999694824219,-45.54499816894531 -1.100000023841858,-62.46500015258789 -1.100000023841858,-62.46500015258789 C-1.100000023841858,-62.46500015258789 -17.440000534057617,-34.6349983215332 -17.440000534057617,-34.6349983215332 C-17.440000534057617,-34.6349983215332 -9.239999771118164,-25.155000686645508 -9.239999771118164,-25.155000686645508 C-9.239999771118164,-25.155000686645508 -7.440000057220459,-0.20499999821186066 -7.440000057220459,-0.20499999821186066 C-7.440000057220459,-0.20499999821186066 -14.850000381469727,-8.524999618530273 -14.850000381469727,-8.524999618530273 C-14.850000381469727,-8.524999618530273 -20.239999771118164,-0.35499998927116394 -20.239999771118164,-0.35499998927116394 C-20.239999771118164,-0.35499998927116394 -29.270000457763672,2.984999895095825 -29.270000457763672,2.984999895095825 C-29.270000457763672,2.984999895095825 -21.850000381469727,24.635000228881836 -21.850000381469727,24.635000228881836 C-21.850000381469727,24.635000228881836 -14.210000038146973,22.725000381469727 -14.210000038146973,22.725000381469727 C-14.210000038146973,22.725000381469727 -9.239999771118164,23.725000381469727 -9.239999771118164,23.725000381469727 C-9.239999771118164,23.725000381469727 -11.5,37.28499984741211 -11.5,37.28499984741211 C-11.5,37.28499984741211 -9.239999771118164,49.435001373291016 -9.239999771118164,49.435001373291016 C-9.239999771118164,49.435001373291016 23.25,62.05500030517578 23.25,62.05500030517578 C23.25,62.05500030517578 29.270000457763672,62.46500015258789 29.270000457763672,62.46500015258789 C29.270000457763672,62.46500015258789 8.819999694824219,-45.54499816894531 8.819999694824219,-45.54499816894531z">
                </path>
            </g>
            <g opacity="1" transform="matrix(1,0,0,1,24.795000076293945,116.6760025024414)">
                <path fill="rgb(138,102,81)" fill-opacity="1"
                    d=" M-4.965000152587891,-5.945000171661377 C-4.965000152587891,-5.945000171661377 -2.255000114440918,8.614999771118164 -2.255000114440918,8.614999771118164 C-2.255000114440918,8.614999771118164 4.965000152587891,-8.614999771118164 4.965000152587891,-8.614999771118164 C4.965000152587891,-8.614999771118164 -4.965000152587891,-5.945000171661377 -4.965000152587891,-5.945000171661377z">
                </path>
            </g>
            <g opacity="1" transform="matrix(1,0,0,1,17.170000076293945,96.41100311279297)">
                <path fill="rgb(138,102,81)" fill-opacity="1"
                    d=" M-6.380000114440918,-2.75 C-6.380000114440918,-2.75 6.380000114440918,5.789999961853027 6.380000114440918,5.789999961853027 C6.380000114440918,5.789999961853027 3.0199999809265137,-5.789999961853027 3.0199999809265137,-5.789999961853027 C3.0199999809265137,-5.789999961853027 -6.380000114440918,-2.75 -6.380000114440918,-2.75z">
                </path>
            </g>
            <g opacity="1" transform="matrix(1,0,0,1,68.08499908447266,151.12100219726562)">
                <path fill="rgb(138,102,81)" fill-opacity="1"
                    d=" M10.795000076293945,-5.320000171661377 C10.795000076293945,-5.320000171661377 -10.795000076293945,-1.059999942779541 -10.795000076293945,-1.059999942779541 C-10.795000076293945,-1.059999942779541 5.614999771118164,5.320000171661377 5.614999771118164,5.320000171661377 C5.614999771118164,5.320000171661377 10.795000076293945,-5.320000171661377 10.795000076293945,-5.320000171661377z">
                </path>
            </g>
            <g opacity="1" transform="matrix(1,0,0,1,16.594999313354492,56.236000061035156)">
                <path fill="rgb(143,143,143)" fill-opacity="1"
                    d=" M-16.344999313354492,-11.545000076293945 C-16.344999313354492,-11.545000076293945 -2.7950000762939453,31.415000915527344 -2.7950000762939453,31.415000915527344 C-2.7950000762939453,31.415000915527344 1.534999966621399,29.864999771118164 1.534999966621399,29.864999771118164 C1.534999966621399,29.864999771118164 10.765000343322754,35.20500183105469 10.765000343322754,35.20500183105469 C10.765000343322754,35.20500183105469 13.425000190734863,1.3650000095367432 13.425000190734863,1.3650000095367432 C13.425000190734863,1.3650000095367432 2.7950000762939453,-4.864999771118164 2.7950000762939453,-4.864999771118164 C2.7950000762939453,-4.864999771118164 16.344999313354492,-30.69499969482422 16.344999313354492,-30.69499969482422 C16.344999313354492,-30.69499969482422 13.494999885559082,-35.20500183105469 13.494999885559082,-35.20500183105469 C13.494999885559082,-35.20500183105469 -16.344999313354492,-11.545000076293945 -16.344999313354492,-11.545000076293945z">
                </path>
            </g>
        </g>
        <g class="ai" transform="matrix(1,0,0,1,0.00000762939453125,0.001007080078125)" opacity="0.99"
            style="display: block;">
            <g opacity="1" transform="matrix(1,0,0,1,167.89500427246094,207.80499267578125)">
                <path fill="rgb(53,120,93)" fill-opacity="1"
                    d=" M17.834999084472656,1.774999976158142 C17.834999084472656,1.774999976158142 -54.6150016784668,-44.244998931884766 -54.6150016784668,-44.244998931884766 C-54.6150016784668,-44.244998931884766 -58.80500030517578,-39.654998779296875 -58.80500030517578,-39.654998779296875 C-58.80500030517578,-39.654998779296875 16.145000457763672,8.444999694824219 16.145000457763672,8.444999694824219 C16.145000457763672,8.444999694824219 43.755001068115234,44.244998931884766 43.755001068115234,44.244998931884766 C43.755001068115234,44.244998931884766 58.80500030517578,-3.5250000953674316 58.80500030517578,-3.5250000953674316 C58.80500030517578,-3.5250000953674316 17.834999084472656,1.774999976158142 17.834999084472656,1.774999976158142z">
                </path>
            </g>
        </g>
        <g transform="matrix(1,0,0,1,104.31999969482422,-0.2389984130859375)" opacity="1" style="display: block;">
            <g opacity="1" transform="matrix(1,0,0,1,94.3949966430664,181.8209991455078)">
                <path fill="rgb(196,196,196)" fill-opacity="1"
                    d=" M-3.5450000762939453,-80.87999725341797 C-3.5450000762939453,-80.87999725341797 -27.915000915527344,-58.95000076293945 -27.915000915527344,-58.95000076293945 C-27.915000915527344,-58.95000076293945 -12.984999656677246,28 -12.984999656677246,28 C-12.984999656677246,28 14.375,53.18899917602539 14.375,53.18899917602539 C14.375,53.18899917602539 16.46500015258789,56.900001525878906 16.46500015258789,56.900001525878906 C16.46500015258789,56.900001525878906 15.515999794006348,60.59000015258789 15.515999794006348,60.59000015258789 C15.515999794006348,60.59000015258789 12.9350004196167,70.47000122070312 12.9350004196167,70.47000122070312 C12.9350004196167,70.47000122070312 27.915000915527344,80.87999725341797 27.915000915527344,80.87999725341797 C27.915000915527344,80.87999725341797 17.924999237060547,-25.3799991607666 17.924999237060547,-25.3799991607666 C17.924999237060547,-25.3799991607666 3.694999933242798,-79.30999755859375 3.694999933242798,-79.30999755859375 C3.694999933242798,-79.30999755859375 -3.5450000762939453,-80.87999725341797 -3.5450000762939453,-80.87999725341797z">
                </path>
            </g>
            <g opacity="1" transform="matrix(1,0,0,1,118.02999877929688,180.5749969482422)">
                <path fill="rgb(235,235,235)" fill-opacity="1"
                    d=" M7.150000095367432,51.92499923706055 C7.150000095367432,51.92499923706055 19.940000534057617,18.225000381469727 19.940000534057617,18.225000381469727 C19.940000534057617,18.225000381469727 5.340000152587891,-68.44499969482422 5.340000152587891,-68.44499969482422 C5.340000152587891,-68.44499969482422 -15.8100004196167,-82.125 -15.8100004196167,-82.125 C-15.8100004196167,-82.125 -19.940000534057617,-78.06500244140625 -19.940000534057617,-78.06500244140625 C-19.940000534057617,-78.06500244140625 4.28000020980835,82.125 4.28000020980835,82.125 C4.28000020980835,82.125 12.5,66.16500091552734 12.5,66.16500091552734 C12.5,66.16500091552734 8.289999961853027,59.32500076293945 8.289999961853027,59.32500076293945 C8.289999961853027,59.32500076293945 5.96999979019165,55.94599914550781 5.96999979019165,55.94599914550781 C5.96999979019165,55.94599914550781 7.150000095367432,51.92499923706055 7.150000095367432,51.92499923706055z">
                </path>
            </g>
            <g opacity="1" transform="matrix(1,0,0,1,117.54499816894531,237.45599365234375)">
                <path fill="rgb(68,96,36)" fill-opacity="1"
                    d=" M8.774999618530273,2.444999933242798 C8.774999618530273,2.444999933242798 -7.633999824523926,4.954999923706055 -7.633999824523926,4.954999923706055 C-7.633999824523926,4.954999923706055 -8.774999618530273,-2.446000099182129 -8.774999618530273,-2.446000099182129 C-8.774999618530273,-2.446000099182129 7.635000228881836,-4.954999923706055 7.635000228881836,-4.954999923706055 C7.635000228881836,-4.954999923706055 8.774999618530273,2.444999933242798 8.774999618530273,2.444999933242798z">
                </path>
            </g>
        </g>
        <g transform="matrix(1,0,0,1,189.5,110.02200317382812)" opacity="1" style="display: block;">
            <g opacity="1" transform="matrix(1,0,0,1,12.109999656677246,4.489999771118164)">
                <path fill="rgb(138,102,81)" fill-opacity="1"
                    d=" M11.859999656677246,0.36000001430511475 C11.859999656677246,0.36000001430511475 -10.850000381469727,4.239999771118164 -10.850000381469727,4.239999771118164 C-10.850000381469727,4.239999771118164 -11.859999656677246,-0.3700000047683716 -11.859999656677246,-0.3700000047683716 C-11.859999656677246,-0.3700000047683716 10.84000015258789,-4.239999771118164 10.84000015258789,-4.239999771118164 C10.84000015258789,-4.239999771118164 11.859999656677246,0.36000001430511475 11.859999656677246,0.36000001430511475z">
                </path>
            </g>
        </g>
        <g transform="matrix(1,0,0,1,157.2209930419922,45.762001037597656)" opacity="1" style="display: block;">
            <g opacity="1" transform="matrix(1,0,0,1,69.3489990234375,33.89500045776367)">
                <path fill="rgb(143,143,143)" fill-opacity="1"
                    d=" M-0.028999999165534973,-0.13500000536441803 C-0.028999999165534973,-0.13500000536441803 0.028999999165534973,0.13500000536441803 0.028999999165534973,0.13500000536441803 C0.028999999165534973,0.13500000536441803 0.0010000000474974513,-0.13500000536441803 0.0010000000474974513,-0.13500000536441803 C0.0010000000474974513,-0.13500000536441803 -0.028999999165534973,-0.13500000536441803 -0.028999999165534973,-0.13500000536441803z">
                </path>
            </g>
            <g opacity="1" transform="matrix(1,0,0,1,27.395000457763672,29.985000610351562)">
                <path fill="rgb(195,151,122)" fill-opacity="1"
                    d=" M-25.295000076293945,-11.704999923706055 C-25.295000076293945,-11.704999923706055 10.555000305175781,24.954999923706055 10.555000305175781,24.954999923706055 C10.555000305175781,24.954999923706055 8.725000381469727,-6.275000095367432 8.725000381469727,-6.275000095367432 C8.725000381469727,-6.275000095367432 -4.465000152587891,-19.024999618530273 -4.465000152587891,-19.024999618530273 C-4.465000152587891,-19.024999618530273 6.715000152587891,-20.985000610351562 6.715000152587891,-20.985000610351562 C6.715000152587891,-20.985000610351562 12.475000381469727,-4.914999961853027 12.475000381469727,-4.914999961853027 C12.475000381469727,-4.914999961853027 17.826000213623047,3.9549999237060547 17.826000213623047,3.9549999237060547 C17.826000213623047,3.9549999237060547 25.295000076293945,-22.614999771118164 25.295000076293945,-22.614999771118164 C25.295000076293945,-22.614999771118164 10.324999809265137,-24.954999923706055 10.324999809265137,-24.954999923706055 C10.324999809265137,-24.954999923706055 6.715000152587891,-20.985000610351562 6.715000152587891,-20.985000610351562 C6.715000152587891,-20.985000610351562 -4.465000152587891,-19.024999618530273 -4.465000152587891,-19.024999618530273 C-4.465000152587891,-19.024999618530273 -10.9350004196167,-22.174999237060547 -10.9350004196167,-22.174999237060547 C-10.9350004196167,-22.174999237060547 -25.295000076293945,-11.704999923706055 -25.295000076293945,-11.704999923706055z">
                </path>
            </g>
            <g opacity="1" transform="matrix(1,0,0,1,8.354999542236328,11.045000076293945)">
                <path fill="rgb(143,143,143)" fill-opacity="1"
                    d=" M6.775000095367432,-7.235000133514404 C6.775000095367432,-7.235000133514404 8.104999542236328,-3.234999895095825 8.104999542236328,-3.234999895095825 C8.104999542236328,-3.234999895095825 -6.255000114440918,7.235000133514404 -6.255000114440918,7.235000133514404 C-6.255000114440918,7.235000133514404 -8.104999542236328,2.555000066757202 -8.104999542236328,2.555000066757202 C-8.104999542236328,2.555000066757202 6.775000095367432,-7.235000133514404 6.775000095367432,-7.235000133514404z">
                </path>
            </g>
            <g opacity="1" transform="matrix(1,0,0,1,44.915000915527344,3.809999942779541)">
                <path fill="rgb(143,143,143)" fill-opacity="1"
                    d=" M-8.78499984741211,-3.559999942779541 C-8.78499984741211,-3.559999942779541 -7.195000171661377,1.2200000286102295 -7.195000171661377,1.2200000286102295 C-7.195000171661377,1.2200000286102295 7.775000095367432,3.559999942779541 7.775000095367432,3.559999942779541 C7.775000095367432,3.559999942779541 8.78499984741211,0.3199999928474426 8.78499984741211,0.3199999928474426 C8.78499984741211,0.3199999928474426 -8.78499984741211,-3.559999942779541 -8.78499984741211,-3.559999942779541z">
                </path>
            </g>
            <g opacity="1" transform="matrix(1,0,0,1,36.125,31.969999313354492)">
                <path fill="rgb(232,201,182)" fill-opacity="1"
                    d=" M-2.015000104904175,-22.969999313354492 C-2.015000104904175,-22.969999313354492 6.125,-11.390000343322754 6.125,-11.390000343322754 C6.125,-11.390000343322754 13.194999694824219,20.479999542236328 13.194999694824219,20.479999542236328 C13.194999694824219,20.479999542236328 1.8250000476837158,22.969999313354492 1.8250000476837158,22.969999313354492 C1.8250000476837158,22.969999313354492 -4.335000038146973,-8.5 -4.335000038146973,-8.5 C-4.335000038146973,-8.5 -13.194999694824219,-21.010000228881836 -13.194999694824219,-21.010000228881836 C-13.194999694824219,-21.010000228881836 -2.015000104904175,-22.969999313354492 -2.015000104904175,-22.969999313354492z">
                </path>
            </g>
            <g opacity="1" transform="matrix(1,0,0,1,43.6349983215332,56.040000915527344)">
                <path fill="rgb(143,143,143)" fill-opacity="1"
                    d=" M5.684999942779541,-3.5899999141693115 C5.684999942779541,-3.5899999141693115 -5.684999942779541,-1.100000023841858 -5.684999942779541,-1.100000023841858 C-5.684999942779541,-1.100000023841858 2.0250000953674316,3.5899999141693115 2.0250000953674316,3.5899999141693115 C2.0250000953674316,3.5899999141693115 5.684999942779541,-3.5899999141693115 5.684999942779541,-3.5899999141693115z">
                </path>
            </g>
        </g>

        <g style="display: block;" transform="matrix(1,0,0,1,169.02999877929688,64.10199737548828)" opacity="1">
            <g opacity="1"
                transform="matrix(1.0000017881393433,0,0,1.0000017881393433,4.489999771118164,11.979999542236328)">
                <path fill="rgb(43,43,43)" fill-opacity="1"
                    d=" M0,-4.239999771118164 C2.3420000076293945,-4.239999771118164 4.239999771118164,-2.3420000076293945 4.239999771118164,0 C4.239999771118164,2.3420000076293945 2.3420000076293945,4.239999771118164 0,4.239999771118164 C-2.3420000076293945,4.239999771118164 -4.239999771118164,2.3420000076293945 -4.239999771118164,0 C-4.239999771118164,-2.3420000076293945 -2.3420000076293945,-4.239999771118164 0,-4.239999771118164z">
                </path>
            </g>
            <g opacity="1"
                transform="matrix(1.0000017881393433,0,0,1.0000017881393433,37.5099983215332,4.489999771118164)">
                <path fill="rgb(43,43,43)" fill-opacity="1"
                    d=" M0,-4.239999771118164 C2.3420000076293945,-4.239999771118164 4.239999771118164,-2.3420000076293945 4.239999771118164,0 C4.239999771118164,2.3420000076293945 2.3420000076293945,4.239999771118164 0,4.239999771118164 C-2.3420000076293945,4.239999771118164 -4.239999771118164,2.3420000076293945 -4.239999771118164,0 C-4.239999771118164,-2.3420000076293945 -2.3420000076293945,-4.239999771118164 0,-4.239999771118164z">
                </path>
            </g>
        </g>

    </g>
</svg>