<svg xmlns="http://www.w3.org/2000/svg" viewBox="0 0 400 400" width="100%" height="100%"
    preserveAspectRatio="xMidYMid meet">
    <defs>
        <clipPath id="__lottie_element_51">
            <rect width="400" height="400" x="0" y="0"></rect>
        </clipPath>
    </defs>
    <g clip-path="url(#__lottie_element_51)">
        <g transform="matrix(1,0,0,1,36.19999694824219,275.530029296875)" opacity="1" style="display: block;">
            <g opacity="0.1" transform="matrix(1,0,0,1,163.49000549316406,104.30999755859375)">
                <path fill="rgb(0,0,0)" fill-opacity="1"
                    d=" M163.49000549316406,0.4399999976158142 C163.49000549316406,0.4399999976158142 122.94999694824219,-15.930000305175781 122.94999694824219,-15.930000305175781 C122.94999694824219,-15.930000305175781 -51.94900131225586,-20.160999298095703 -51.94900131225586,-20.160999298095703 C-51.94900131225586,-20.160999298095703 -163.48899841308594,4.099999904632568 -163.48899841308594,4.099999904632568 C-163.48899841308594,4.099999904632568 -63.619998931884766,20.15999984741211 -63.619998931884766,20.15999984741211 C-63.619998931884766,20.15999984741211 163.49000549316406,0.4399999976158142 163.49000549316406,0.4399999976158142z">
                </path>
            </g>
            <g opacity="1" transform="matrix(1,0,0,1,254.14100646972656,84.49500274658203)">
                <path fill="rgb(79,82,82)" fill-opacity="1"
                    d=" M-9.109999656677246,-11.234999656677246 C-9.109999656677246,-11.234999656677246 -6.929999828338623,11.234999656677246 -6.929999828338623,11.234999656677246 C-6.929999828338623,11.234999656677246 8.49899959564209,11.175000190734863 8.49899959564209,11.175000190734863 C8.49899959564209,11.175000190734863 9.109999656677246,-9.475000381469727 9.109999656677246,-9.475000381469727 C9.109999656677246,-9.475000381469727 -9.109999656677246,-11.234999656677246 -9.109999656677246,-11.234999656677246z">
                </path>
            </g>
            <g opacity="1" transform="matrix(1,0,0,1,150.11000061035156,84.49500274658203)">
                <path fill="rgb(79,82,82)" fill-opacity="1"
                    d=" M-10.819999694824219,-11.234999656677246 C-10.819999694824219,-11.234999656677246 -8.630000114440918,11.234999656677246 -8.630000114440918,11.234999656677246 C-8.630000114440918,11.234999656677246 6.789999961853027,11.175000190734863 6.789999961853027,11.175000190734863 C6.789999961853027,11.175000190734863 10.819999694824219,-9.475000381469727 10.819999694824219,-9.475000381469727 C10.819999694824219,-9.475000381469727 -10.819999694824219,-11.234999656677246 -10.819999694824219,-11.234999656677246z">
                </path>
            </g>
            <g opacity="1" transform="matrix(1,0,0,1,131.44000244140625,87.73999786376953)">
                <path fill="rgb(133,133,133)" fill-opacity="1"
                    d=" M11.770000457763672,14.99899959564209 C11.770000457763672,14.99899959564209 14.710000038146973,-16.510000228881836 14.710000038146973,-16.510000228881836 C14.710000038146973,-16.510000228881836 -14.710000038146973,-13.10099983215332 -14.710000038146973,-13.10099983215332 C-14.710000038146973,-13.10099983215332 -12.960000038146973,16.510000228881836 -12.960000038146973,16.510000228881836 C-12.960000038146973,16.510000228881836 11.770000457763672,14.99899959564209 11.770000457763672,14.99899959564209z">
                </path>
            </g>
            <g opacity="1" transform="matrix(1,0,0,1,272.82000732421875,87.73999786376953)">
                <path fill="rgb(133,133,133)" fill-opacity="1"
                    d=" M12.770000457763672,16.510000228881836 C12.770000457763672,16.510000228881836 13.619999885559082,-12.529999732971191 13.619999885559082,-12.529999732971191 C13.619999885559082,-12.529999732971191 -13.619999885559082,-16.51099967956543 -13.619999885559082,-16.51099967956543 C-13.619999885559082,-16.51099967956543 -13.100000381469727,16.510000228881836 -13.100000381469727,16.510000228881836 C-13.100000381469727,16.510000228881836 12.770000457763672,16.510000228881836 12.770000457763672,16.510000228881836z">
                </path>
            </g>
            <g opacity="1" transform="matrix(1,0,0,1,202.2050018310547,55.19499969482422)">
                <path fill="rgb(133,133,133)" fill-opacity="1"
                    d=" M84.23500061035156,23.426000595092773 C84.23500061035156,23.426000595092773 84.5250015258789,8.925999641418457 84.5250015258789,8.925999641418457 C84.5250015258789,8.925999641418457 5.554999828338623,-23.426000595092773 5.554999828338623,-23.426000595092773 C5.554999828338623,-23.426000595092773 -84.5250015258789,2.325000047683716 -84.5250015258789,2.325000047683716 C-84.5250015258789,2.325000047683716 -83.83499908447266,23.426000595092773 -83.83499908447266,23.426000595092773 C-83.83499908447266,23.426000595092773 84.23500061035156,23.426000595092773 84.23500061035156,23.426000595092773z">
                </path>
            </g>
            <g opacity="1" transform="matrix(1,0,0,1,201.16000366210938,52.099998474121094)">
                <path fill="rgb(196,196,196)" fill-opacity="1"
                    d=" M77.61000061035156,12.020000457763672 C77.61000061035156,12.020000457763672 -77.61000061035156,7.178999900817871 -77.61000061035156,7.178999900817871 C-77.61000061035156,7.178999900817871 8.479999542236328,-12.020000457763672 8.479999542236328,-12.020000457763672 C8.479999542236328,-12.020000457763672 77.61000061035156,12.020000457763672 77.61000061035156,12.020000457763672z">
                </path>
            </g>
            <g opacity="0.1" transform="matrix(1,0,0,1,165.39500427246094,70.42500305175781)">
                <path fill="rgb(0,0,0)" fill-opacity="1"
                    d=" M46.125,-14.03499984741211 C46.125,-14.03499984741211 -46.125,14.03499984741211 -46.125,14.03499984741211 C-46.125,14.03499984741211 -40.6150016784668,3.2760000228881836 -40.6150016784668,3.2760000228881836 C-40.6150016784668,3.2760000228881836 3.186000108718872,-12.194999694824219 3.186000108718872,-12.194999694824219 C3.186000108718872,-12.194999694824219 46.125,-14.03499984741211 46.125,-14.03499984741211z">
                </path>
            </g>
            <g opacity="0.1" transform="matrix(1,0,0,1,249.125,62.779998779296875)">
                <path fill="rgb(43,43,43)" fill-opacity="1"
                    d=" M-37.60499954223633,-14.380000114440918 C-37.60499954223633,-14.380000114440918 -37.60499954223633,-6.389999866485596 -37.60499954223633,-6.389999866485596 C-37.60499954223633,-6.389999866485596 37.255001068115234,14.380999565124512 37.255001068115234,14.380999565124512 C37.255001068115234,14.380999565124512 37.60499954223633,1.340999960899353 37.60499954223633,1.340999960899353 C37.60499954223633,1.340999960899353 -37.60499954223633,-14.380000114440918 -37.60499954223633,-14.380000114440918z">
                </path>
            </g>
            <g opacity="1" transform="matrix(1,0,0,1,170.3350067138672,54.7599983215332)">
                <path fill="rgb(206,206,205)" fill-opacity="1"
                    d=" M-45.55500030517578,18.94099998474121 C-45.55500030517578,18.94099998474121 41.185001373291016,1.6299999952316284 41.185001373291016,1.6299999952316284 C41.185001373291016,1.6299999952316284 45.55500030517578,-8.510000228881836 45.55500030517578,-8.510000228881836 C45.55500030517578,-8.510000228881836 39.79499816894531,-18.94099998474121 39.79499816894531,-18.94099998474121 C39.79499816894531,-18.94099998474121 -42.814998626708984,-9.638999938964844 -42.814998626708984,-9.638999938964844 C-42.814998626708984,-9.638999938964844 -45.55500030517578,18.94099998474121 -45.55500030517578,18.94099998474121z">
                </path>
            </g>
            <g opacity="1" transform="matrix(1,0,0,1,168.8249969482422,25.31999969482422)">
                <path fill="rgb(157,160,161)" fill-opacity="1"
                    d=" M40.814998626708984,14.760000228881836 C40.814998626708984,14.760000228881836 -41.30500030517578,19.801000595092773 -41.30500030517578,19.801000595092773 C-41.30500030517578,19.801000595092773 -36.185001373291016,-19.801000595092773 -36.185001373291016,-19.801000595092773 C-36.185001373291016,-19.801000595092773 -12.21500015258789,-13.789999961853027 -12.21500015258789,-13.789999961853027 C-12.21500015258789,-13.789999961853027 37.255001068115234,-1.3309999704360962 37.255001068115234,-1.3309999704360962 C37.255001068115234,-1.3309999704360962 41.30500030517578,7.420000076293945 41.30500030517578,7.420000076293945 C41.30500030517578,7.420000076293945 40.814998626708984,14.760000228881836 40.814998626708984,14.760000228881836z">
                </path>
            </g>
            <g opacity="1" transform="matrix(1,0,0,1,248.30999755859375,24.584999084472656)">
                <path fill="rgb(196,196,196)" fill-opacity="1"
                    d=" M-42.22999954223633,-0.5950000286102295 C-42.22999954223633,-0.5950000286102295 -38.66999816894531,15.496000289916992 -38.66999816894531,15.496000289916992 C-38.66999816894531,15.496000289916992 -6.230000019073486,19.065000534057617 -6.230000019073486,19.065000534057617 C-6.230000019073486,19.065000534057617 31.149999618530273,9.944999694824219 31.149999618530273,9.944999694824219 C31.149999618530273,9.944999694824219 42.22999954223633,-19.065000534057617 42.22999954223633,-19.065000534057617 C42.22999954223633,-19.065000534057617 -42.22999954223633,-0.5950000286102295 -42.22999954223633,-0.5950000286102295z">
                </path>
            </g>
            <g opacity="1" transform="matrix(1,0,0,1,259.3550109863281,50.77899932861328)">
                <path fill="rgb(235,235,235)" fill-opacity="1"
                    d=" M-49.71500015258789,-10.699000358581543 C-49.71500015258789,-10.699000358581543 -47.834999084472656,5.611000061035156 -47.834999084472656,5.611000061035156 C-47.834999084472656,5.611000061035156 49.71500015258789,16.25 49.71500015258789,16.25 C49.71500015258789,16.25 20.104999542236328,-16.25 20.104999542236328,-16.25 C20.104999542236328,-16.25 -49.71500015258789,-10.699000358581543 -49.71500015258789,-10.699000358581543z">
                </path>
            </g>
        </g>
        <g transform="matrix(1,0,0,1,36.19999694824219,275.530029296875)" opacity="1" style="display: block;">
            <g opacity="0.1" transform="matrix(1,0,0,1,263.1050109863281,39.415000915527344)">
                <path fill="rgb(0,0,0)" fill-opacity="1"
                    d=" M16.354999542236328,-4.881243705749512 C16.354999542236328,-4.881243705749512 3.194999933242798,4.889756202697754 3.194999933242798,4.889756202697754 C3.194999933242798,4.889756202697754 -16.36520767211914,-2.1985838413238525 -16.36520767211914,-2.1985838413238525 C-16.36520767211914,-2.1985838413238525 16.354999542236328,-4.881243705749512 16.354999542236328,-4.881243705749512z">
                </path>
            </g>
            <g opacity="0.1" transform="matrix(1,0,0,1,223.80999755859375,47.45500183105469)">
                <path fill="rgb(0,0,0)" fill-opacity="1"
                    d=" M13.680000305175781,-3.8024685382843018 C13.680000305175781,-3.8024685382843018 -1.2799999713897705,3.8075313568115234 -1.2799999713897705,3.8075313568115234 C-1.2799999713897705,3.8075313568115234 -13.680000305175781,-3.2545433044433594 -13.680000305175781,-3.2545433044433594 C-13.680000305175781,-3.2545433044433594 13.680000305175781,-3.8024685382843018 13.680000305175781,-3.8024685382843018z">
                </path>
            </g>
            <g opacity="0.1" transform="matrix(1,0,0,1,183.11500549316406,32.720001220703125)">
                <path fill="rgb(0,0,0)" fill-opacity="1"
                    d=" M16.03499984741211,1.3438379764556885 C16.03499984741211,1.3438379764556885 0.9739999771118164,6.513837814331055 0.9739999771118164,6.513837814331055 C0.9739999771118164,6.513837814331055 -16.065622329711914,-6.2611823081970215 -16.065622329711914,-6.2611823081970215 C-16.065622329711914,-6.2611823081970215 16.03499984741211,1.3438379764556885 16.03499984741211,1.3438379764556885z">
                </path>
            </g>
        </g>
        <g transform="matrix(1,0,0,1,0,0)" opacity="1" style="display: block;">
            <g opacity="1" transform="matrix(1,0,0,1,289.1000061035156,291.6499938964844)">
                <path fill="rgb(144,117,159)" fill-opacity="1"
                    d=" M9.109999656677246,-10.800999641418457 C9.109999656677246,-10.800999641418457 -10.794522285461426,0.07365719228982925 -10.794522285461426,0.07365719228982925 C-10.794522285461426,0.07365719228982925 10.819999694824219,10.800999641418457 10.819999694824219,10.800999641418457 C10.819999694824219,10.800999641418457 9.109999656677246,-10.800999641418457 9.109999656677246,-10.800999641418457z">
                </path>
            </g>
            <g opacity="1" transform="matrix(1,0,0,1,251.36099243164062,298.6100158691406)">
                <g opacity="1" transform="matrix(1,0,0,1,251.36000061035156,298.6099853515625)">
                    <g opacity="1" transform="matrix(1,0,0,1,251.36000061035156,298.6099853515625)">
                        <g opacity="1" transform="matrix(1,0,0,1,251.36000061035156,298.6099853515625)">
                            <g opacity="1" transform="matrix(1,0,0,1,251.36000061035156,298.6099853515625)">
                                <path fill="rgb(144,117,159)" fill-opacity="1"
                                    d=" M7.369999885559082,-10.800999641418457 C7.369999885559082,-10.800999641418457 -9.079999923706055,0.9089999794960022 -9.079999923706055,0.9089999794960022 C-9.079999923706055,0.9089999794960022 9.079999923706055,10.800999641418457 9.079999923706055,10.800999641418457 C9.079999923706055,10.800999641418457 7.369999885559082,-10.800999641418457 7.369999885559082,-10.800999641418457z">
                                </path>
                            </g>
                            <path fill="rgb(144,117,159)" fill-opacity="1"
                                d=" M7.369999885559082,-10.800999641418457 C7.369999885559082,-10.800999641418457 -9.079999923706055,0.9089999794960022 -9.079999923706055,0.9089999794960022 C-9.079999923706055,0.9089999794960022 9.079999923706055,10.800999641418457 9.079999923706055,10.800999641418457 C9.079999923706055,10.800999641418457 7.369999885559082,-10.800999641418457 7.369999885559082,-10.800999641418457z">
                            </path>
                        </g>
                        <path fill="rgb(144,117,159)" fill-opacity="1"
                            d=" M7.369999885559082,-10.800999641418457 C7.369999885559082,-10.800999641418457 -9.079999923706055,0.9089999794960022 -9.079999923706055,0.9089999794960022 C-9.079999923706055,0.9089999794960022 9.079999923706055,10.800999641418457 9.079999923706055,10.800999641418457 C9.079999923706055,10.800999641418457 7.369999885559082,-10.800999641418457 7.369999885559082,-10.800999641418457z">
                        </path>
                    </g>
                    <path fill="rgb(144,117,159)" fill-opacity="1"
                        d=" M7.369999885559082,-10.800999641418457 C7.369999885559082,-10.800999641418457 -9.079999923706055,0.9089999794960022 -9.079999923706055,0.9089999794960022 C-9.079999923706055,0.9089999794960022 9.079999923706055,10.800999641418457 9.079999923706055,10.800999641418457 C9.079999923706055,10.800999641418457 7.369999885559082,-10.800999641418457 7.369999885559082,-10.800999641418457z">
                    </path>
                </g>
                <path fill="rgb(144,117,159)" fill-opacity="1"
                    d=" M7.369999885559082,-10.800999641418457 C7.369999885559082,-10.800999641418457 -9.079999923706055,0.7660952806472778 -9.079999923706055,0.7660952806472778 C-9.079999923706055,0.7660952806472778 9.079999923706055,10.800999641418457 9.079999923706055,10.800999641418457 C9.079999923706055,10.800999641418457 7.369999885559082,-10.800999641418457 7.369999885559082,-10.800999641418457z">
                </path>
            </g>
            <g opacity="1" transform="matrix(1,0,0,1,212.22500610351562,286.5799865722656)">
                <path fill="rgb(144,117,159)" fill-opacity="1"
                    d=" M8.324999809265137,-10.800000190734863 C8.324999809265137,-10.800000190734863 -9.983963012695312,3.0131123065948486 -9.983963012695312,3.0131123065948486 C-9.983963012695312,3.0131123065948486 10.03499984741211,10.800000190734863 10.03499984741211,10.800000190734863 C10.03499984741211,10.800000190734863 8.324999809265137,-10.800000190734863 8.324999809265137,-10.800000190734863z">
                </path>
            </g>
        </g>
        <g transform="matrix(1,0,0,1,36.19999694824219,275.530029296875)" opacity="1" style="display: block;">
            <g opacity="1" transform="matrix(1,0,0,1,264.1549987792969,22.75)">
                <path fill="rgb(120,93,135)" fill-opacity="1"
                    d=" M-2.1449999809265137,-17.43000030517578 C-2.1449999809265137,-17.43000030517578 2.1449999809265137,-17.43000030517578 2.1449999809265137,-17.43000030517578 C2.1449999809265137,-17.43000030517578 2.1449999809265137,17.43000030517578 2.1449999809265137,17.43000030517578 C2.1449999809265137,17.43000030517578 -2.1449999809265137,17.43000030517578 -2.1449999809265137,17.43000030517578 C-2.1449999809265137,17.43000030517578 -2.1449999809265137,-17.43000030517578 -2.1449999809265137,-17.43000030517578z">
                </path>
            </g>
            <g opacity="1" transform="matrix(1,0,0,1,224.6750030517578,29.709999084472656)">
                <path fill="rgb(120,93,135)" fill-opacity="1"
                    d=" M-2.1449999809265137,-17.43000030517578 C-2.1449999809265137,-17.43000030517578 2.1449999809265137,-17.43000030517578 2.1449999809265137,-17.43000030517578 C2.1449999809265137,-17.43000030517578 2.1449999809265137,17.43000030517578 2.1449999809265137,17.43000030517578 C2.1449999809265137,17.43000030517578 -2.1449999809265137,17.43000030517578 -2.1449999809265137,17.43000030517578 C-2.1449999809265137,17.43000030517578 -2.1449999809265137,-17.43000030517578 -2.1449999809265137,-17.43000030517578z">
                </path>
            </g>
            <g opacity="1" transform="matrix(1,0,0,1,186.4949951171875,17.68000030517578)">
                <path fill="rgb(120,93,135)" fill-opacity="1"
                    d=" M-2.1449999809265137,-17.43000030517578 C-2.1449999809265137,-17.43000030517578 2.1449999809265137,-17.43000030517578 2.1449999809265137,-17.43000030517578 C2.1449999809265137,-17.43000030517578 2.1449999809265137,17.43000030517578 2.1449999809265137,17.43000030517578 C2.1449999809265137,17.43000030517578 -2.1449999809265137,17.43000030517578 -2.1449999809265137,17.43000030517578 C-2.1449999809265137,17.43000030517578 -2.1449999809265137,-17.43000030517578 -2.1449999809265137,-17.43000030517578z">
                </path>
            </g>
        </g>
        <g transform="matrix(1,0,0,1,175.9010009765625,171.70999145507812)" opacity="1" style="display: block;">
            <g opacity="1" transform="matrix(1,0,0,1,19.32900047302246,47.28499984741211)">
                <path fill="rgb(115,77,95)" fill-opacity="1"
                    d=" M5.140999794006348,-33.494998931884766 C5.140999794006348,-33.494998931884766 23.378999710083008,20.39699935913086 23.378999710083008,20.39699935913086 C23.378999710083008,20.39699935913086 -3.5399999618530273,47.03499984741211 -3.5399999618530273,47.03499984741211 C-3.5399999618530273,47.03499984741211 -44.8390007019043,-31.969999313354492 -44.8390007019043,-31.969999313354492 C-44.8390007019043,-31.969999313354492 -14.350000381469727,-47.03499984741211 -14.350000381469727,-47.03499984741211 C-14.350000381469727,-47.03499984741211 5.140999794006348,-33.494998931884766 5.140999794006348,-33.494998931884766z">
                </path>
            </g>
        </g>
        <g transform="matrix(1,0,0,1,191.44000244140625,205.57998657226562)" opacity="1" style="display: block;">
            <g opacity="1" transform="matrix(1,0,0,1,19.600000381469727,30.600000381469727)">
                <path fill="rgb(149,98,123)" fill-opacity="1"
                    d=" M-10.020000457763672,-26.690000534057617 C-10.020000457763672,-26.690000534057617 -19.270000457763672,30.100000381469727 -19.270000457763672,30.100000381469727 C-19.270000457763672,30.100000381469727 19.270999908447266,14.770000457763672 19.270999908447266,14.770000457763672 C19.270999908447266,14.770000457763672 7.820000171661377,-24.860000610351562 7.820000171661377,-24.860000610351562 C7.820000171661377,-24.860000610351562 0.33899998664855957,-30.100000381469727 0.33899998664855957,-30.100000381469727 C0.33899998664855957,-30.100000381469727 -10.020000457763672,-26.690000534057617 -10.020000457763672,-26.690000534057617z">
                </path>
            </g>
        </g>
        <g transform="matrix(1,0,0,1,0,0)" opacity="1" style="display: block;">
            <g opacity="1" transform="matrix(1,0,0,1,0,0)">
                <path fill="rgb(84,48,66)" fill-opacity="1"
                    d=" M148.875,335.125 C148.875,335.125 136.63699340820312,341.41400146484375 136.63699340820312,341.41400146484375 C136.63699340820312,341.41400146484375 119.125,336.375 119.125,336.375 C119.125,336.375 121.75,361.75 121.75,361.75 C121.75,361.75 132.1219940185547,365.2099914550781 132.1219940185547,365.2099914550781 C132.1219940185547,365.2099914550781 142.75,361.375 142.75,361.375 C142.75,361.375 148.875,335.125 148.875,335.125z">
                </path>
            </g>
            <g opacity="1" transform="matrix(1,0,0,1,164.44000244140625,317.7699890136719)">
                <path fill="rgb(115,77,95)" fill-opacity="1"
                    d=" M28.3700008392334,-30.709999084472656 C28.3700008392334,-30.709999084472656 -28.3700008392334,-8.39900016784668 -28.3700008392334,-8.39900016784668 C-28.3700008392334,-8.39900016784668 -28.3700008392334,23.81999969482422 -28.3700008392334,23.81999969482422 C-28.3700008392334,23.81999969482422 -14.359999656677246,30.711000442504883 -14.359999656677246,30.711000442504883 C-14.359999656677246,30.711000442504883 5.400000095367432,14.149999618530273 5.400000095367432,14.149999618530273 C5.400000095367432,14.149999618530273 28.3700008392334,-30.709999084472656 28.3700008392334,-30.709999084472656z">
                </path>
            </g>
            <g opacity="1" transform="matrix(1,0,0,1,150.94500732421875,348.4849853515625)">
                <path fill="rgb(83,47,66)" fill-opacity="1"
                    d=" M18.895000457763672,-16.565000534057617 C18.895000457763672,-16.565000534057617 -14.875,-6.894999980926514 -14.875,-6.894999980926514 C-14.875,-6.894999980926514 -18.895000457763672,16.565000534057617 -18.895000457763672,16.565000534057617 C-18.895000457763672,16.565000534057617 -6.434999942779541,16.565000534057617 -6.434999942779541,16.565000534057617 C-6.434999942779541,16.565000534057617 4.525000095367432,11.505000114440918 4.525000095367432,11.505000114440918 C4.525000095367432,11.505000114440918 18.895000457763672,-16.565000534057617 18.895000457763672,-16.565000534057617z">
                </path>
            </g>
            <g opacity="1" transform="matrix(1,0,0,1,112.1449966430664,315.6099853515625)">
                <path fill="rgb(149,98,123)" fill-opacity="1"
                    d=" M23.924999237060547,25.979999542236328 C23.924999237060547,25.979999542236328 28.5049991607666,-0.7400000095367432 28.5049991607666,-0.7400000095367432 C28.5049991607666,-0.7400000095367432 9.604999542236328,-17.66900062561035 9.604999542236328,-17.66900062561035 C9.604999542236328,-17.66900062561035 -28.5049991607666,-34.560001373291016 -28.5049991607666,-34.560001373291016 C-28.5049991607666,-34.560001373291016 -17.594999313354492,20.639999389648438 -17.594999313354492,20.639999389648438 C-17.594999313354492,20.639999389648438 4.204999923706055,34.560001373291016 4.204999923706055,34.560001373291016 C4.204999923706055,34.560001373291016 23.924999237060547,25.979999542236328 23.924999237060547,25.979999542236328z">
                </path>
            </g>
            <g opacity="1" transform="matrix(1,0,0,1,138.22500610351562,297.94500732421875)">
                <path fill="rgb(83,47,66)" fill-opacity="1"
                    d=" M54.584999084472656,-10.885000228881836 C54.584999084472656,-10.885000228881836 2.424999952316284,16.926000595092773 2.424999952316284,16.926000595092773 C2.424999952316284,16.926000595092773 -54.584999084472656,-16.895000457763672 -54.584999084472656,-16.895000457763672 C-54.584999084472656,-16.895000457763672 6.284999847412109,-16.926000595092773 6.284999847412109,-16.926000595092773 C6.284999847412109,-16.926000595092773 54.584999084472656,-10.885000228881836 54.584999084472656,-10.885000228881836z">
                </path>
            </g>
            <g opacity="1" transform="matrix(1,0,0,1,115.30999755859375,352.69000244140625)">
                <path fill="rgb(115,77,95)" fill-opacity="1"
                    d=" M-20.760000228881836,-16.440000534057617 C-20.760000228881836,-16.440000534057617 20.760000228881836,-11.100000381469727 20.760000228881836,-11.100000381469727 C20.760000228881836,-11.100000381469727 16.739999771118164,12.359999656677246 16.739999771118164,12.359999656677246 C16.739999771118164,12.359999656677246 1.0399999618530273,16.440000534057617 1.0399999618530273,16.440000534057617 C1.0399999618530273,16.440000534057617 -14.5,15.239999771118164 -14.5,15.239999771118164 C-14.5,15.239999771118164 -20.760000228881836,-16.440000534057617 -20.760000228881836,-16.440000534057617z">
                </path>
            </g>
            <g opacity="1" transform="matrix(1,0,0,1,155.27000427246094,370.0249938964844)">
                <path fill="rgb(120,93,135)" fill-opacity="1"
                    d=" M-24.139999389648438,8.244000434875488 C-24.139999389648438,8.244000434875488 -4.320000171661377,10.034000396728516 -4.320000171661377,10.034000396728516 C-4.320000171661377,10.034000396728516 24.139999389648438,8.244000434875488 24.139999389648438,8.244000434875488 C24.139999389648438,8.244000434875488 0.20000000298023224,-10.03499984741211 0.20000000298023224,-10.03499984741211 C0.20000000298023224,-10.03499984741211 -23.219999313354492,-4.97599983215332 -23.219999313354492,-4.97599983215332 C-23.219999313354492,-4.97599983215332 -24.139999389648438,8.244000434875488 -24.139999389648438,8.244000434875488z">
                </path>
            </g>
            <g opacity="1" transform="matrix(1,0,0,1,155.27000427246094,381.6709899902344)">
                <path fill="rgb(88,65,100)" fill-opacity="1"
                    d=" M-24.139999389648438,-3.4010000228881836 C-24.139999389648438,-3.4010000228881836 24.139999389648438,-3.4010000228881836 24.139999389648438,-3.4010000228881836 C24.139999389648438,-3.4010000228881836 24.139999389648438,3.4010000228881836 24.139999389648438,3.4010000228881836 C24.139999389648438,3.4010000228881836 -24.139999389648438,3.4010000228881836 -24.139999389648438,3.4010000228881836 C-24.139999389648438,3.4010000228881836 -24.139999389648438,-3.4010000228881836 -24.139999389648438,-3.4010000228881836z">
                </path>
            </g>
            <g opacity="1" transform="matrix(1,0,0,1,119.53500366210938,376.1050109863281)">
                <path fill="rgb(144,117,159)" fill-opacity="1"
                    d=" M12.515000343322754,-11.055000305175781 C12.515000343322754,-11.055000305175781 21.704999923706055,8.975000381469727 21.704999923706055,8.975000381469727 C21.704999923706055,8.975000381469727 -0.004999999888241291,11.055000305175781 -0.004999999888241291,11.055000305175781 C-0.004999999888241291,11.055000305175781 -21.704999923706055,8.975000381469727 -21.704999923706055,8.975000381469727 C-21.704999923706055,8.975000381469727 -18.725000381469727,-8.175000190734863 -18.725000381469727,-8.175000190734863 C-18.725000381469727,-8.175000190734863 12.515000343322754,-11.055000305175781 12.515000343322754,-11.055000305175781z">
                </path>
            </g>
            <g opacity="1" transform="matrix(1,0,0,1,119.53500366210938,388.4800109863281)">
                <path fill="rgb(88,65,100)" fill-opacity="1"
                    d=" M-21.704999923706055,-3.4000000953674316 C-21.704999923706055,-3.4000000953674316 21.704999923706055,-3.4000000953674316 21.704999923706055,-3.4000000953674316 C21.704999923706055,-3.4000000953674316 21.704999923706055,3.4000000953674316 21.704999923706055,3.4000000953674316 C21.704999923706055,3.4000000953674316 -21.704999923706055,3.4000000953674316 -21.704999923706055,3.4000000953674316 C-21.704999923706055,3.4000000953674316 -21.704999923706055,-3.4000000953674316 -21.704999923706055,-3.4000000953674316z">
                </path>
            </g>
        </g>
        <g transform="matrix(1,0,0,1,0,0)" opacity="1" style="display: block;">
            <g opacity="1" transform="matrix(1,0,0,1,0,0)">
                <path fill="rgb(179,136,157)" fill-opacity="1"
                    d=" M130.5,154 C130.5,154 89,175.5 89,175.5 C89,175.5 109.5,235 109.5,235 C109.5,235 152,179 152,179 C152,179 130.5,154 130.5,154z">
                </path>
            </g>
            <g opacity="1" transform="matrix(1,0,0,1,0,0)">
                <g opacity="1" transform="matrix(1,0,0,1,73.88500213623047,215.9499969482422)">
                    <path fill="rgb(115,77,95)" fill-opacity="1"
                        d=" M10.765000343322754,42.400001525878906 C10.765000343322754,42.400001525878906 12.104999542236328,33.132999420166016 12.104999542236328,33.132999420166016 C12.104999542236328,33.132999420166016 21.084999084472656,-28.989999771118164 21.084999084472656,-28.989999771118164 C21.084999084472656,-28.989999771118164 -1.9249999523162842,-42.400001525878906 -1.9249999523162842,-42.400001525878906 C-1.9249999523162842,-42.400001525878906 -21.084999084472656,9.069999694824219 -21.084999084472656,9.069999694824219 C-21.084999084472656,9.069999694824219 10.765000343322754,42.400001525878906 10.765000343322754,42.400001525878906z">
                    </path>
                </g>
                <g opacity="1" transform="matrix(1,0,0,1,71.91500091552734,245.3350067138672)">
                    <path fill="rgb(83,47,66)" fill-opacity="1"
                        d=" M-19.114999771118164,-20.315000534057617 C-19.114999771118164,-20.315000534057617 15.664999961853027,-21.375 15.664999961853027,-21.375 C15.664999961853027,-21.375 19.114999771118164,-0.6740000247955322 19.114999771118164,-0.6740000247955322 C19.114999771118164,-0.6740000247955322 12.364999771118164,21.375 12.364999771118164,21.375 C12.364999771118164,21.375 -19.114999771118164,-20.315000534057617 -19.114999771118164,-20.315000534057617z">
                    </path>
                </g>
            </g>
            <g opacity="1" transform="matrix(1,0,0,1,137.98500061035156,217.69500732421875)">
                <path fill="rgb(149,98,123)" fill-opacity="1"
                    d=" M5.695000171661377,-21.9950008392334 C5.695000171661377,-21.9950008392334 25.135000228881836,-50.03499984741211 25.135000228881836,-50.03499984741211 C25.135000228881836,-50.03499984741211 47.70500183105469,-42.845001220703125 47.70500183105469,-42.845001220703125 C47.70500183105469,-42.845001220703125 53.70500183105469,48.334999084472656 53.70500183105469,48.334999084472656 C53.70500183105469,48.334999084472656 -1.9249999523162842,54.67499923706055 -1.9249999523162842,54.67499923706055 C-1.9249999523162842,54.67499923706055 -53.70500183105469,49.01499938964844 -53.70500183105469,49.01499938964844 C-53.70500183105469,49.01499938964844 -47.375,-29.264999389648438 -47.375,-29.264999389648438 C-47.375,-29.264999389648438 -35.45500183105469,-38.71500015258789 -35.45500183105469,-38.71500015258789 C-35.45500183105469,-38.71500015258789 -29.69499969482422,-54.67499923706055 -29.69499969482422,-54.67499923706055 C-29.69499969482422,-54.67499923706055 5.695000171661377,-21.9950008392334 5.695000171661377,-21.9950008392334z">
                </path>
            </g>
            <g opacity="1" transform="matrix(1,0,0,1,141.24000549316406,231.1199951171875)">
                <path fill="rgb(115,77,95)" fill-opacity="1"
                    d=" M24.860000610351562,5.53000020980835 C24.860000610351562,5.53000020980835 30.979999542236328,35.029998779296875 30.979999542236328,35.029998779296875 C30.979999542236328,35.029998779296875 -30.979999542236328,35.41999816894531 -30.979999542236328,35.41999816894531 C-30.979999542236328,35.41999816894531 -25.549999237060547,13.539999961853027 -25.549999237060547,13.539999961853027 C-25.549999237060547,13.539999961853027 -13.34000015258789,-20.75 -13.34000015258789,-20.75 C-13.34000015258789,-20.75 2.440000057220459,-35.41999816894531 2.440000057220459,-35.41999816894531 C2.440000057220459,-35.41999816894531 16.1200008392334,-20.75 16.1200008392334,-20.75 C16.1200008392334,-20.75 24.860000610351562,5.53000020980835 24.860000610351562,5.53000020980835z">
                </path>
            </g>
            <g opacity="1" transform="matrix(1,0,0,1,154.88999938964844,204.10499572753906)">
                <path fill="rgb(179,135,157)" fill-opacity="1"
                    d=" M-11.210000038146973,-8.404999732971191 C-11.210000038146973,-8.404999732971191 11.210000038146973,32.54499816894531 11.210000038146973,32.54499816894531 C11.210000038146973,32.54499816894531 10.010000228881836,-32.54499816894531 10.010000228881836,-32.54499816894531 C10.010000228881836,-32.54499816894531 -11.210000038146973,-8.404999732971191 -11.210000038146973,-8.404999732971191z">
                </path>
            </g>
            <g opacity="1" transform="matrix(1,0,0,1,0,0)">
                <g opacity="1" transform="matrix(1,0,0,1,143.73500061035156,226.125)">
                    <path fill="rgb(179,135,157)" fill-opacity="1"
                        d=" M2.3350000381469727,-6.175000190734863 C2.3350000381469727,-6.175000190734863 6.34499979019165,1.1649999618530273 6.34499979019165,1.1649999618530273 C6.34499979019165,1.1649999618530273 -1.0049999952316284,6.175000190734863 -1.0049999952316284,6.175000190734863 C-1.0049999952316284,6.175000190734863 -6.34499979019165,-1.5049999952316284 -6.34499979019165,-1.5049999952316284 C-6.34499979019165,-1.5049999952316284 2.3350000381469727,-6.175000190734863 2.3350000381469727,-6.175000190734863z">
                    </path>
                </g>
                <g opacity="1" transform="matrix(1,0,0,1,144.40499877929688,248.66000366210938)">
                    <path fill="rgb(179,135,157)" fill-opacity="1"
                        d=" M1.3350000381469727,-6.010000228881836 C1.3350000381469727,-6.010000228881836 -6.005000114440918,-1.340000033378601 -6.005000114440918,-1.340000033378601 C-6.005000114440918,-1.340000033378601 -0.33500000834465027,6.010000228881836 -0.33500000834465027,6.010000228881836 C-0.33500000834465027,6.010000228881836 6.005000114440918,1.3300000429153442 6.005000114440918,1.3300000429153442 C6.005000114440918,1.3300000429153442 1.3350000381469727,-6.010000228881836 1.3350000381469727,-6.010000228881836z">
                    </path>
                </g>
            </g>
            <g opacity="1" transform="matrix(1,0,0,1,0,0)">
                <g opacity="1" transform="matrix(1,0,0,1,138.22500610351562,276.5450134277344)">
                    <path fill="rgb(88,65,100)" fill-opacity="1"
                        d=" M-53.94499969482422,-9.835000038146973 C-53.94499969482422,-9.835000038146973 -8.96500015258789,-10.125 -8.96500015258789,-10.125 C-8.96500015258789,-10.125 6.175000190734863,-6.324999809265137 6.175000190734863,-6.324999809265137 C6.175000190734863,-6.324999809265137 21.524999618530273,-10.314000129699707 21.524999618530273,-10.314000129699707 C21.524999618530273,-10.314000129699707 53.46500015258789,-10.515000343322754 53.46500015258789,-10.515000343322754 C53.46500015258789,-10.515000343322754 54.584999084472656,10.515000343322754 54.584999084472656,10.515000343322754 C54.584999084472656,10.515000343322754 20.485000610351562,8.635000228881836 20.485000610351562,8.635000228881836 C20.485000610351562,8.635000228881836 9.085000038146973,6.385000228881836 9.085000038146973,6.385000228881836 C9.085000038146973,6.385000228881836 -8.854999542236328,7.025000095367432 -8.854999542236328,7.025000095367432 C-8.854999542236328,7.025000095367432 -54.584999084472656,4.505000114440918 -54.584999084472656,4.505000114440918 C-54.584999084472656,4.505000114440918 -53.94499969482422,-9.835000038146973 -53.94499969482422,-9.835000038146973z">
                    </path>
                </g>
                <g opacity="1" transform="matrix(1,0,0,1,144.5050048828125,275.7049865722656)">
                    <path fill="rgb(179,135,157)" fill-opacity="1"
                        d=" M15.244999885559082,-9.475000381469727 C15.244999885559082,-9.475000381469727 -15.244999885559082,-9.28600025177002 -15.244999885559082,-9.28600025177002 C-15.244999885559082,-9.28600025177002 -15.135000228881836,7.864999771118164 -15.135000228881836,7.864999771118164 C-15.135000228881836,7.864999771118164 14.204999923706055,9.473999977111816 14.204999923706055,9.473999977111816 C14.204999923706055,9.473999977111816 15.204999923706055,-9.475000381469727 15.204999923706055,-9.475000381469727 C15.204999923706055,-9.475000381469727 15.244999885559082,-9.475000381469727 15.244999885559082,-9.475000381469727z M7.574999809265137,3.3440001010894775 C7.574999809265137,3.3440001010894775 -8.78499984741211,3.3440001010894775 -8.78499984741211,3.3440001010894775 C-8.78499984741211,3.3440001010894775 -8.444999694824219,-3.3359999656677246 -8.444999694824219,-3.3359999656677246 C-8.444999694824219,-3.3359999656677246 7.914999961853027,-4.00600004196167 7.914999961853027,-4.00600004196167 C7.914999961853027,-4.00600004196167 7.574999809265137,3.3440001010894775 7.574999809265137,3.3440001010894775z">
                    </path>
                </g>
            </g>
            <g opacity="0.1" transform="matrix(1,0,0,1,165.27000427246094,183.6300048828125)">
                <path fill="rgb(0,0,0)" fill-opacity="1"
                    d=" M-21.59000015258789,12.069999694824219 C-21.59000015258789,12.069999694824219 21.59000015258789,-8.420000076293945 21.59000015258789,-8.420000076293945 C21.59000015258789,-8.420000076293945 -0.3700000047683716,-12.069999694824219 -0.3700000047683716,-12.069999694824219 C-0.3700000047683716,-12.069999694824219 -21.59000015258789,12.069999694824219 -21.59000015258789,12.069999694824219z">
                </path>
            </g>
            <g opacity="1"
                transform="matrix(1,-0.000007650462066521868,0.000007650462066521868,1,182.92005920410156,179.4508514404297)">
                <path fill="rgb(88,65,100)" fill-opacity="1"
                    d=" M-17.649999618530273,6 C-17.649999618530273,6 18.020000457763672,7.889999866485596 18.020000457763672,7.889999866485596 C18.020000457763672,7.889999866485596 14.640000343322754,-3.569999933242798 14.640000343322754,-3.569999933242798 C14.640000343322754,-3.569999933242798 -18.020000457763672,-7.889999866485596 -18.020000457763672,-7.889999866485596 C-18.020000457763672,-7.889999866485596 -17.649999618530273,6 -17.649999618530273,6z">
                </path>
            </g>
            <g opacity="1" transform="matrix(1,0,0,1,97.82499694824219,176.73500061035156)">
                <path fill="rgb(88,65,100)" fill-opacity="1"
                    d=" M25.864999771118164,0.5049999952316284 C25.864999771118164,0.5049999952316284 -16.514999389648438,14.845000267028809 -16.514999389648438,14.845000267028809 C-16.514999389648438,14.845000267028809 -25.864999771118164,-3.184999942779541 -25.864999771118164,-3.184999942779541 C-25.864999771118164,-3.184999942779541 -9.487000465393066,-7.991000175476074 -9.487000465393066,-7.991000175476074 C-9.487000465393066,-7.991000175476074 13.875,-14.845000267028809 13.875,-14.845000267028809 C13.875,-14.845000267028809 25.864999771118164,0.5049999952316284 25.864999771118164,0.5049999952316284z">
                </path>
            </g>
            <g opacity="1" transform="matrix(1,0,0,1,127.69000244140625,203.27499389648438)">
                <path fill="rgb(179,135,157)" fill-opacity="1"
                    d=" M-15.989999771118164,-41.3849983215332 C-15.989999771118164,-41.3849983215332 -12,41.3849983215332 -12,41.3849983215332 C-12,41.3849983215332 15.989999771118164,-7.574999809265137 15.989999771118164,-7.574999809265137 C15.989999771118164,-7.574999809265137 12.541999816894531,-11.220000267028809 12.541999816894531,-11.220000267028809 C12.541999816894531,-11.220000267028809 -14.89900016784668,-40.23099899291992 -14.89900016784668,-40.23099899291992 C-14.89900016784668,-40.23099899291992 -15.989999771118164,-41.3849983215332 -15.989999771118164,-41.3849983215332z">
                </path>
            </g>
        </g>
        <g transform="matrix(1,0,0,1,0,0)" opacity="1" style="display: block;">
            <g opacity="1" transform="matrix(1,0,0,1,0,0)">
                <g opacity="1" transform="matrix(1,0,0,1,105.83499908447266,123.9749984741211)">
                    <path fill="rgb(88,65,100)" fill-opacity="1"
                        d=" M-8.635000228881836,-10.545000076293945 C-8.635000228881836,-10.545000076293945 2.3550000190734863,-13.494999885559082 2.3550000190734863,-13.494999885559082 C2.3550000190734863,-13.494999885559082 20.155000686645508,-0.004999999888241291 20.155000686645508,-0.004999999888241291 C20.155000686645508,-0.004999999888241291 8.845000267028809,10.645000457763672 8.845000267028809,10.645000457763672 C8.845000267028809,10.645000457763672 -20.155000686645508,13.494999885559082 -20.155000686645508,13.494999885559082 C-20.155000686645508,13.494999885559082 -8.635000228881836,-10.545000076293945 -8.635000228881836,-10.545000076293945z">
                    </path>
                </g>
                <g opacity="1" transform="matrix(1,0,0,1,177.33999633789062,118.1449966430664)">
                    <path fill="rgb(223,188,164)" fill-opacity="1"
                        d=" M58.0099983215332,-45.57500076293945 C58.0099983215332,-45.57500076293945 52.520999908447266,-19.44499969482422 52.520999908447266,-19.44499969482422 C52.520999908447266,-19.44499969482422 27.570999145507812,60.53499984741211 27.570999145507812,60.53499984741211 C27.570999145507812,60.53499984741211 -12.4399995803833,53.415000915527344 -12.4399995803833,53.415000915527344 C-12.4399995803833,53.415000915527344 -33.659000396728516,77.55500030517578 -33.659000396728516,77.55500030517578 C-33.659000396728516,77.55500030517578 -58.0099983215332,37.60499954223633 -58.0099983215332,37.60499954223633 C-58.0099983215332,37.60499954223633 -47.47999954223633,-5.715000152587891 -47.47999954223633,-5.715000152587891 C-47.47999954223633,-5.715000152587891 -40.409000396728516,-8.6850004196167 -40.409000396728516,-8.6850004196167 C-40.409000396728516,-8.6850004196167 -36.3489990234375,-29.174999237060547 -36.3489990234375,-29.174999237060547 C-36.3489990234375,-29.174999237060547 -37.84000015258789,-60.04499816894531 -37.84000015258789,-60.04499816894531 C-37.84000015258789,-60.04499816894531 -3.190000057220459,-77.55500030517578 -3.190000057220459,-77.55500030517578 C-3.190000057220459,-77.55500030517578 29.60099983215332,-58.595001220703125 29.60099983215332,-58.595001220703125 C29.60099983215332,-58.595001220703125 36.43000030517578,-76.2750015258789 36.43000030517578,-76.2750015258789 C36.43000030517578,-76.2750015258789 58.0099983215332,-45.57500076293945 58.0099983215332,-45.57500076293945z">
                    </path>
                </g>
                <g opacity="1" transform="matrix(1,0,0,1,133.27999877929688,127.1500015258789)">
                    <path fill="rgb(195,151,122)" fill-opacity="1"
                        d=" M7.480000019073486,-68.55000305175781 C7.480000019073486,-68.55000305175781 27.440000534057617,-30.469999313354492 27.440000534057617,-30.469999313354492 C27.440000534057617,-30.469999313354492 22.809999465942383,46.08000183105469 22.809999465942383,46.08000183105469 C22.809999465942383,46.08000183105469 10.399999618530273,68.55000305175781 10.399999618530273,68.55000305175781 C10.399999618530273,68.55000305175781 -21.579999923706055,34.7400016784668 -21.579999923706055,34.7400016784668 C-21.579999923706055,34.7400016784668 -18.600000381469727,7.46999979019165 -18.600000381469727,7.46999979019165 C-18.600000381469727,7.46999979019165 -15.930000305175781,1.600000023841858 -15.930000305175781,1.600000023841858 C-15.930000305175781,1.600000023841858 -15.960000038146973,-4.260000228881836 -15.960000038146973,-4.260000228881836 C-15.960000038146973,-4.260000228881836 -27.440000534057617,-5.800000190734863 -27.440000534057617,-5.800000190734863 C-27.440000534057617,-5.800000190734863 -27.260000228881836,-32.66999816894531 -27.260000228881836,-32.66999816894531 C-27.260000228881836,-32.66999816894531 -9.880000114440918,-32.7400016784668 -9.880000114440918,-32.7400016784668 C-9.880000114440918,-32.7400016784668 -3.4200000762939453,-17.229999542236328 -3.4200000762939453,-17.229999542236328 C-3.4200000762939453,-17.229999542236328 2.1500000953674316,-16.690000534057617 2.1500000953674316,-16.690000534057617 C2.1500000953674316,-16.690000534057617 6.710000038146973,-37.93000030517578 6.710000038146973,-37.93000030517578 C6.710000038146973,-37.93000030517578 7.480000019073486,-68.55000305175781 7.480000019073486,-68.55000305175781z">
                    </path>
                </g>
                <g opacity="1" transform="matrix(1,0,0,1,116.16999816894531,108.94499969482422)">
                    <path fill="rgb(138,102,81)" fill-opacity="1"
                        d=" M-5.449999809265137,-8.78499984741211 C-5.449999809265137,-8.78499984741211 3.319999933242798,-8.53499984741211 3.319999933242798,-8.53499984741211 C3.319999933242798,-8.53499984741211 5.449999809265137,8.78499984741211 5.449999809265137,8.78499984741211 C5.449999809265137,8.78499984741211 -5.449999809265137,-8.78499984741211 -5.449999809265137,-8.78499984741211z">
                    </path>
                </g>
                <g opacity="1" transform="matrix(1,0,0,1,150.80999755859375,181.11000061035156)">
                    <path fill="rgb(138,102,81)" fill-opacity="1"
                        d=" M14.09000015258789,-9.550000190734863 C14.09000015258789,-9.550000190734863 -14.09000015258789,-14.59000015258789 -14.09000015258789,-14.59000015258789 C-14.09000015258789,-14.59000015258789 -7.130000114440918,14.59000015258789 -7.130000114440918,14.59000015258789 C-7.130000114440918,14.59000015258789 14.09000015258789,-9.550000190734863 14.09000015258789,-9.550000190734863z">
                    </path>
                </g>
                <g opacity="1" transform="matrix(1,0,0,1,119.77999877929688,128.7550048828125)">
                    <path fill="rgb(138,102,81)" fill-opacity="1"
                        d=" M-2.4600000381469727,-5.864999771118164 C-2.4600000381469727,-5.864999771118164 5.099999904632568,-4.784999847412109 5.099999904632568,-4.784999847412109 C5.099999904632568,-4.784999847412109 -5.099999904632568,5.864999771118164 -5.099999904632568,5.864999771118164 C-5.099999904632568,5.864999771118164 -2.4600000381469727,-5.864999771118164 -2.4600000381469727,-5.864999771118164z">
                    </path>
                </g>
                <g opacity="1" transform="matrix(1,0,0,1,242.27999877929688,75.13999938964844)">
                    <path fill="rgb(166,135,185)" fill-opacity="1"
                        d=" M-8.940999984741211,-2.819999933242798 C-8.940999984741211,-2.819999933242798 -2.0810000896453857,-13.970000267028809 -2.0810000896453857,-13.970000267028809 C-2.0810000896453857,-13.970000267028809 12.418999671936035,-23.559999465942383 12.418999671936035,-23.559999465942383 C12.418999671936035,-23.559999465942383 -12.420000076293945,23.559999465942383 -12.420000076293945,23.559999465942383 C-12.420000076293945,23.559999465942383 -8.940999984741211,-2.819999933242798 -8.940999984741211,-2.819999933242798z">
                    </path>
                </g>
                <g opacity="1" transform="matrix(1,0,0,1,116.21499633789062,63.05500030517578)">
                    <path fill="rgb(144,117,159)" fill-opacity="1"
                        d=" M24.545000076293945,-4.454999923706055 C24.545000076293945,-4.454999923706055 4.264999866485596,-16.344999313354492 4.264999866485596,-16.344999313354492 C4.264999866485596,-16.344999313354492 -28.78499984741211,-26.4950008392334 -28.78499984741211,-26.4950008392334 C-28.78499984741211,-26.4950008392334 -22.565000534057617,22.405000686645508 -22.565000534057617,22.405000686645508 C-22.565000534057617,22.405000686645508 5.59499979019165,26.4950008392334 5.59499979019165,26.4950008392334 C5.59499979019165,26.4950008392334 28.78499984741211,26.165000915527344 28.78499984741211,26.165000915527344 C28.78499984741211,26.165000915527344 24.545000076293945,-4.454999923706055 24.545000076293945,-4.454999923706055z">
                    </path>
                </g>
                <g opacity="1" transform="matrix(1,0,0,1,222.49000549316406,45.845001220703125)">
                    <path fill="rgb(120,93,135)" fill-opacity="1"
                        d=" M10.850000381469727,26.475000381469727 C10.850000381469727,26.475000381469727 -8.609999656677246,2.5450000762939453 -8.609999656677246,2.5450000762939453 C-8.609999656677246,2.5450000762939453 -20.270000457763672,-8.425000190734863 -20.270000457763672,-8.425000190734863 C-20.270000457763672,-8.425000190734863 -32.209999084472656,-26.475000381469727 -32.209999084472656,-26.475000381469727 C-32.209999084472656,-26.475000381469727 32.209999084472656,5.735000133514404 32.209999084472656,5.735000133514404 C32.209999084472656,5.735000133514404 10.850000381469727,26.475000381469727 10.850000381469727,26.475000381469727z">
                    </path>
                </g>
                <g opacity="1" transform="matrix(1,0,0,1,131.7899932861328,38.40999984741211)">
                    <path fill="rgb(120,93,135)" fill-opacity="1"
                        d=" M8.970000267028809,20.190000534057617 C8.970000267028809,20.190000534057617 44.36000061035156,7.440000057220459 44.36000061035156,7.440000057220459 C44.36000061035156,7.440000057220459 23.989999771118164,-9.84000015258789 23.989999771118164,-9.84000015258789 C23.989999771118164,-9.84000015258789 -2.569999933242798,-20.190000534057617 -2.569999933242798,-20.190000534057617 C-2.569999933242798,-20.190000534057617 -44.36000061035156,-1.850000023841858 -44.36000061035156,-1.850000023841858 C-44.36000061035156,-1.850000023841858 8.970000267028809,20.190000534057617 8.970000267028809,20.190000534057617z">
                    </path>
                </g>
                <g opacity="1" transform="matrix(1,0,0,1,171.5500030517578,32.53499984741211)">
                    <path fill="rgb(144,117,159)" fill-opacity="1"
                        d=" M-20.009000778198242,-32.53499984741211 C-20.009000778198242,-32.53499984741211 -42.32899856567383,-14.314000129699707 -42.32899856567383,-14.314000129699707 C-42.32899856567383,-14.314000129699707 4.60099983215332,13.315999984741211 4.60099983215332,13.315999984741211 C4.60099983215332,13.315999984741211 37.891998291015625,32.53499984741211 37.891998291015625,32.53499984741211 C37.891998291015625,32.53499984741211 42.32899856567383,15.854999542236328 42.32899856567383,15.854999542236328 C42.32899856567383,15.854999542236328 18.729999542236328,-13.163999557495117 18.729999542236328,-13.163999557495117 C18.729999542236328,-13.163999557495117 -20.009000778198242,-32.53499984741211 -20.009000778198242,-32.53499984741211z">
                    </path>
                </g>
                <g opacity="1" transform="matrix(1,0,0,1,119.32499694824219,103.40499877929688)">
                    <path fill="rgb(120,93,135)" fill-opacity="1"
                        d=" M25.674999237060547,-14.1850004196167 C25.674999237060547,-14.1850004196167 -25.674999237060547,-17.94499969482422 -25.674999237060547,-17.94499969482422 C-25.674999237060547,-17.94499969482422 -22.125,10.024999618530273 -22.125,10.024999618530273 C-22.125,10.024999618530273 -13.484999656677246,17.94499969482422 -13.484999656677246,17.94499969482422 C-13.484999656677246,17.94499969482422 -12.175000190734863,-7.795000076293945 -12.175000190734863,-7.795000076293945 C-12.175000190734863,-7.795000076293945 4.074999809265137,-6.724999904632568 4.074999809265137,-6.724999904632568 C4.074999809265137,-6.724999904632568 8.265000343322754,10.53499984741211 8.265000343322754,10.53499984741211 C8.265000343322754,10.53499984741211 18.104999542236328,9.0649995803833 18.104999542236328,9.0649995803833 C18.104999542236328,9.0649995803833 25.674999237060547,-14.1850004196167 25.674999237060547,-14.1850004196167z">
                    </path>
                </g>
            </g>
        </g>
        <g transform="matrix(1,0,0,1,0,0)" opacity="1" style="display: block;">
            <g opacity="1" transform="matrix(1,0,0,1,0,0)">
                <g opacity="1" transform="matrix(1,0,0,1,190,118.22000122070312)">
                    <path fill="rgb(195,151,122)" fill-opacity="1"
                        d=" M29.280000686645508,-11 C29.280000686645508,-11 -29.280000686645508,-21.540000915527344 -29.280000686645508,-21.540000915527344 C-29.280000686645508,-21.540000915527344 -13.850000381469727,-5.46999979019165 -13.850000381469727,-5.46999979019165 C-13.850000381469727,-5.46999979019165 -5.809999942779541,21.540000915527344 -5.809999942779541,21.540000915527344 C-5.809999942779541,21.540000915527344 29.280000686645508,-11 29.280000686645508,-11z">
                    </path>
                </g>
                <g opacity="1" transform="matrix(1,0,0,1,182.02499389648438,155.75)">
                    <path fill="rgb(138,102,81)" fill-opacity="1"
                        d=" M-24.665000915527344,-3.5 C-24.665000915527344,-3.5 4.064000129699707,6.150000095367432 4.064000129699707,6.150000095367432 C4.064000129699707,6.150000095367432 24.665000915527344,3.940000057220459 24.665000915527344,3.940000057220459 C24.665000915527344,3.940000057220459 5.323999881744385,-6.150000095367432 5.323999881744385,-6.150000095367432 C5.323999881744385,-6.150000095367432 -24.665000915527344,-3.5 -24.665000915527344,-3.5z">
                    </path>
                </g>
                <g opacity="1" transform="matrix(1,0,0,1,182.02499389648438,149.72500610351562)">
                    <path fill="rgb(120,93,135)" fill-opacity="1"
                        d=" M-24.665000915527344,2.5250000953674316 C-24.665000915527344,2.5250000953674316 2.1640000343322754,-9.96500015258789 2.1640000343322754,-9.96500015258789 C2.1640000343322754,-9.96500015258789 14.064000129699707,-7.715000152587891 14.064000129699707,-7.715000152587891 C14.064000129699707,-7.715000152587891 24.665000915527344,9.96500015258789 24.665000915527344,9.96500015258789 C24.665000915527344,9.96500015258789 -24.665000915527344,2.5250000953674316 -24.665000915527344,2.5250000953674316z">
                    </path>
                </g>
                <g opacity="1" transform="matrix(1,0,0,1,193.19000244140625,122.23500061035156)">
                    <path fill="rgb(232,201,182)" fill-opacity="1"
                        d=" M-0.3799999952316284,-19.774999618530273 C-0.3799999952316284,-19.774999618530273 -9,17.524999618530273 -9,17.524999618530273 C-9,17.524999618530273 2.9000000953674316,19.774999618530273 2.9000000953674316,19.774999618530273 C2.9000000953674316,19.774999618530273 9,-18.084999084472656 9,-18.084999084472656 C9,-18.084999084472656 -0.3799999952316284,-19.774999618530273 -0.3799999952316284,-19.774999618530273z">
                    </path>
                </g>
                <g opacity="1" transform="matrix(1,0,0,1,190.9300079345703,100.02000427246094)">
                    <path fill="rgb(120,93,135)" fill-opacity="1"
                        d=" M-30.208999633789062,-3.3399999141693115 C-30.208999633789062,-3.3399999141693115 28.35099983215332,7.199999809265137 28.35099983215332,7.199999809265137 C28.35099983215332,7.199999809265137 30.209999084472656,-0.3799999952316284 30.209999084472656,-0.3799999952316284 C30.209999084472656,-0.3799999952316284 -26.298999786376953,-7.199999809265137 -26.298999786376953,-7.199999809265137 C-26.298999786376953,-7.199999809265137 -30.208999633789062,-3.3399999141693115 -30.208999633789062,-3.3399999141693115z">
                    </path>
                </g>
                <g opacity="1" transform="matrix(1,0,0,1,190.13999938964844,142.65499877929688)">
                    <path fill="rgb(88,65,100)" fill-opacity="1"
                        d=" M5.949999809265137,-0.7049999833106995 C5.949999809265137,-0.7049999833106995 -1.090000033378601,2.8949999809265137 -1.090000033378601,2.8949999809265137 C-1.090000033378601,2.8949999809265137 -5.949999809265137,-2.8949999809265137 -5.949999809265137,-2.8949999809265137 C-5.949999809265137,-2.8949999809265137 5.949999809265137,-0.7049999833106995 5.949999809265137,-0.7049999833106995z">
                    </path>
                </g>
            </g>
        </g>

        <g style="display: block;" transform="matrix(1,0,0,1,171.5,109.05000305175781)" opacity="1">
            <g opacity="1" transform="matrix(1,0,0,1,37.16999816894531,11.050000190734863)">
                <path fill="rgb(43,43,43)" fill-opacity="1"
                    d=" M0,-4.590000152587891 C2.5350000858306885,-4.590000152587891 4.590000152587891,-2.5350000858306885 4.590000152587891,0 C4.590000152587891,2.5350000858306885 2.5350000858306885,4.590000152587891 0,4.590000152587891 C-2.5350000858306885,4.590000152587891 -4.590000152587891,2.5350000858306885 -4.590000152587891,0 C-4.590000152587891,-2.5350000858306885 -2.5350000858306885,-4.590000152587891 0,-4.590000152587891z">
                </path>
            </g>
            <g opacity="1" transform="matrix(1,0,0,1,4.840000152587891,4.840000152587891)">
                <path fill="rgb(43,43,43)" fill-opacity="1"
                    d=" M0,-4.590000152587891 C2.5350000858306885,-4.590000152587891 4.590000152587891,-2.5350000858306885 4.590000152587891,0 C4.590000152587891,2.5350000858306885 2.5350000858306885,4.590000152587891 0,4.590000152587891 C-2.5350000858306885,4.590000152587891 -4.590000152587891,2.5350000858306885 -4.590000152587891,0 C-4.590000152587891,-2.5350000858306885 -2.5350000858306885,-4.590000152587891 0,-4.590000152587891z">
                </path>
            </g>
        </g>

        <g transform="matrix(0.06381820142269135,-0.9979615211486816,0.9979615211486816,0.06381820142269135,235.08749389648438,196.77401733398438)"
            opacity="1" style="display: block;">
            <g opacity="1" transform="matrix(1,0,0,1,0,0)">
                <path fill="rgb(195,152,123)" fill-opacity="1"
                    d=" M-2.874000072479248,-29.229999542236328 C-2.874000072479248,-29.229999542236328 1.6460000276565552,-18.63800048828125 1.6460000276565552,-18.63800048828125 C1.6460000276565552,-18.63800048828125 19.889999389648438,-28.434999465942383 19.889999389648438,-28.434999465942383 C19.889999389648438,-28.434999465942383 19.844999313354492,-35.856998443603516 19.844999313354492,-35.856998443603516 C19.844999313354492,-35.856998443603516 12.982999801635742,-39.93899917602539 12.982999801635742,-39.93899917602539 C12.982999801635742,-39.93899917602539 -2.874000072479248,-29.229999542236328 -2.874000072479248,-29.229999542236328z">
                </path>
            </g>
        </g>
        <g transform="matrix(1,0,0,1,186.2100067138672,168.29998779296875)" opacity="1" style="display: block;">
            <g opacity="1" transform="matrix(1,0,0,1,17.989999771118164,31.030000686645508)">
                <path fill="rgb(138,102,81)" fill-opacity="1"
                    d=" M-10.109999656677246,2.369999885559082 C-10.109999656677246,2.369999885559082 -3.259999990463257,9.90999984741211 -3.259999990463257,9.90999984741211 C-3.259999990463257,9.90999984741211 3.299999952316284,10.789999961853027 3.299999952316284,10.789999961853027 C3.299999952316284,10.789999961853027 10.109999656677246,-10.789999961853027 10.109999656677246,-10.789999961853027 C10.109999656677246,-10.789999961853027 -9.989999771118164,-7.75 -9.989999771118164,-7.75 C-9.989999771118164,-7.75 -10.109999656677246,2.369999885559082 -10.109999656677246,2.369999885559082z">
                </path>
            </g>
            <g opacity="1" transform="matrix(1,0,0,1,29.715999603271484,29.049999237060547)">
                <path fill="rgb(195,151,122)" fill-opacity="1"
                    d=" M14.984999656677246,-10.321000099182129 C14.984999656677246,-10.321000099182129 2.8550000190734863,13.720999717712402 2.8550000190734863,13.720999717712402 C2.8550000190734863,13.720999717712402 -14.984999656677246,11.890000343322754 -14.984999656677246,11.890000343322754 C-14.984999656677246,11.890000343322754 -1.6160000562667847,-8.810999870300293 -1.6160000562667847,-8.810999870300293 C-1.6160000562667847,-8.810999870300293 2.8550000190734863,-13.720999717712402 2.8550000190734863,-13.720999717712402 C2.8550000190734863,-13.720999717712402 14.984999656677246,-10.321000099182129 14.984999656677246,-10.321000099182129z">
                </path>
            </g>
            <g opacity="1" transform="matrix(1,0,0,1,25.09000015258789,10.244999885559082)">
                <path fill="rgb(232,201,182)" fill-opacity="1"
                    d=" M-19.610000610351562,-2.2149999141693115 C-19.610000610351562,-2.2149999141693115 -3.2300000190734863,-9.994999885559082 -3.2300000190734863,-9.994999885559082 C-3.2300000190734863,-9.994999885559082 19.610000610351562,8.484999656677246 19.610000610351562,8.484999656677246 C19.610000610351562,8.484999656677246 3.009999990463257,9.994999885559082 3.009999990463257,9.994999885559082 C3.009999990463257,9.994999885559082 -10.930000305175781,6.954999923706055 -10.930000305175781,6.954999923706055 C-10.930000305175781,6.954999923706055 -19.610000610351562,-2.2149999141693115 -19.610000610351562,-2.2149999141693115z">
                </path>
            </g>
            <g opacity="1" transform="matrix(1,0,0,1,14.175000190734863,17.829999923706055)">
                <path fill="rgb(223,188,164)" fill-opacity="1"
                    d=" M13.925000190734863,2.4100000858306885 C13.925000190734863,2.4100000858306885 0.5550000071525574,9.800000190734863 0.5550000071525574,9.800000190734863 C0.5550000071525574,9.800000190734863 -13.925000190734863,0.4399999976158142 -13.925000190734863,0.4399999976158142 C-13.925000190734863,0.4399999976158142 -8.694999694824219,-9.800000190734863 -8.694999694824219,-9.800000190734863 C-8.694999694824219,-9.800000190734863 13.925000190734863,2.4100000858306885 13.925000190734863,2.4100000858306885z">
                </path>
            </g>
        </g>
    </g>
</svg>