<svg xmlns="http://www.w3.org/2000/svg" viewBox="0 0 400 400" width="100%" height="100%"
    preserveAspectRatio="xMidYMid meet">
    <defs>
        <clipPath id="__lottie_element_82">
            <rect width="400" height="400" x="0" y="0"></rect>
        </clipPath>
    </defs>
    <g clip-path="url(#__lottie_element_82)">
        <g transform="matrix(1,0,0,1,0,0)" opacity="1" style="display: block;">
            <g opacity="1" transform="matrix(1,0,0,1,0,0)">
                <g opacity="1" transform="matrix(1,0,0,1,203.84500122070312,335.4410095214844)">
                    <path fill="rgb(143,143,143)" fill-opacity="1"
                        d=" M-54.76499938964844,14.949000358581543 C-54.76499938964844,14.949000358581543 59.26499938964844,15.960000038146973 59.26499938964844,15.960000038146973 C59.26499938964844,15.960000038146973 61.4640007019043,-12.75 61.4640007019043,-12.75 C61.4640007019043,-12.75 -34.70500183105469,-15.960000038146973 -34.70500183105469,-15.960000038146973 C-34.70500183105469,-15.960000038146973 -54.76499938964844,14.949000358581543 -54.76499938964844,14.949000358581543z">
                    </path>
                </g>
            </g>
        </g>
        <g transform="matrix(1,0,0,1,0,0)" opacity="1" style="display: block;">
            <g opacity="1" transform="matrix(1,0,0,1,260.68499755859375,147.48500061035156)">
                <path fill="rgb(196,196,196)" fill-opacity="1"
                    d=" M-34.185001373291016,-4.074999809265137 C-34.185001373291016,-4.074999809265137 1.5449999570846558,-28.53499984741211 1.5449999570846558,-28.53499984741211 C1.5449999570846558,-28.53499984741211 34.185001373291016,-22.94499969482422 34.185001373291016,-22.94499969482422 C34.185001373291016,-22.94499969482422 -5.684999942779541,28.53499984741211 -5.684999942779541,28.53499984741211 C-5.684999942779541,28.53499984741211 -34.185001373291016,-4.074999809265137 -34.185001373291016,-4.074999809265137z">
                </path>
            </g>
        </g>
        <g transform="matrix(1,0,0,1,0,0)" opacity="1" style="display: block;">
            <g opacity="1" transform="matrix(1,0,0,1,280.2650146484375,97.375)">
                <path fill="rgb(157,160,161)" fill-opacity="1"
                    d=" M14.604999542236328,27.165000915527344 C14.604999542236328,27.165000915527344 18.03499984741211,-17.975000381469727 18.03499984741211,-17.975000381469727 C18.03499984741211,-17.975000381469727 5.425000190734863,-27.165000915527344 5.425000190734863,-27.165000915527344 C5.425000190734863,-27.165000915527344 -18.03499984741211,21.575000762939453 -18.03499984741211,21.575000762939453 C-18.03499984741211,21.575000762939453 14.604999542236328,27.165000915527344 14.604999542236328,27.165000915527344z">
                </path>
            </g>
        </g>
        <g transform="matrix(1,0,0,1,0,0)" opacity="1" style="display: block;">
            <g opacity="1" transform="matrix(1,0,0,1,0,0)">
                <g opacity="1" transform="matrix(1,0,0,1,284.114990234375,50.810001373291016)">
                    <path fill="rgb(235,235,235)" fill-opacity="1"
                        d=" M-1.1239999532699585,-10.930000305175781 C-1.1239999532699585,-10.930000305175781 -11.543999671936035,-38.36000061035156 -11.543999671936035,-38.36000061035156 C-11.543999671936035,-38.36000061035156 -21.784000396728516,-35.540000915527344 -21.784000396728516,-35.540000915527344 C-21.784000396728516,-35.540000915527344 -16.56399917602539,-7.889999866485596 -16.56399917602539,-7.889999866485596 C-16.56399917602539,-7.889999866485596 -27.30500030517578,31.030000686645508 -27.30500030517578,31.030000686645508 C-27.30500030517578,31.030000686645508 -18.444000244140625,38.36000061035156 -18.444000244140625,38.36000061035156 C-18.444000244140625,38.36000061035156 2.505000114440918,32.59000015258789 2.505000114440918,32.59000015258789 C2.505000114440918,32.59000015258789 23.44499969482422,26.81999969482422 23.44499969482422,26.81999969482422 C23.44499969482422,26.81999969482422 27.305999755859375,15.979999542236328 27.305999755859375,15.979999542236328 C27.305999755859375,15.979999542236328 -1.1239999532699585,-10.930000305175781 -1.1239999532699585,-10.930000305175781z">
                    </path>
                </g>
                <g opacity="1" transform="matrix(1,0,0,1,284.0799865722656,69.38500213623047)">
                    <path fill="rgb(120,93,135)" fill-opacity="1"
                        d=" M23.611000061035156,-1.6950000524520874 C23.611000061035156,-1.6950000524520874 8.229000091552734,-16.2450008392334 8.229000091552734,-16.2450008392334 C8.229000091552734,-16.2450008392334 -18.1299991607666,-8.555000305175781 -18.1299991607666,-8.555000305175781 C-18.1299991607666,-8.555000305175781 -23.611000061035156,11.305000305175781 -23.611000061035156,11.305000305175781 C-23.611000061035156,11.305000305175781 -17.650999069213867,16.2450008392334 -17.650999069213867,16.2450008392334 C-17.650999069213867,16.2450008392334 21.009000778198242,5.585000038146973 21.009000778198242,5.585000038146973 C21.009000778198242,5.585000038146973 23.611000061035156,-1.6950000524520874 23.611000061035156,-1.6950000524520874z">
                    </path>
                </g>
                <g opacity="1" transform="matrix(1,0,0,1,0,0)">
                    <g opacity="1" transform="matrix(1,0,0,1,270.02099609375,78.67500305175781)">
                        <path fill="rgb(166,135,185)" fill-opacity="1"
                            d=" M-2.7090001106262207,0.9919999837875366 C-2.7090001106262207,0.9919999837875366 -0.9909999966621399,-2.7090001106262207 -0.9909999966621399,-2.7090001106262207 C-0.9909999966621399,-2.7090001106262207 2.7090001106262207,-0.9919999837875366 2.7090001106262207,-0.9919999837875366 C2.7090001106262207,-0.9919999837875366 0.9919999837875366,2.7090001106262207 0.9919999837875366,2.7090001106262207 C0.9919999837875366,2.7090001106262207 -2.7090001106262207,0.9919999837875366 -2.7090001106262207,0.9919999837875366z">
                        </path>
                    </g>
                    <g opacity="1" transform="matrix(1,0,0,1,268.46099853515625,72.37899780273438)">
                        <path fill="rgb(166,135,185)" fill-opacity="1"
                            d=" M-1.1690000295639038,0.4269999861717224 C-1.1690000295639038,0.4269999861717224 -0.4269999861717224,-1.1690000295639038 -0.4269999861717224,-1.1690000295639038 C-0.4269999861717224,-1.1690000295639038 1.1690000295639038,-0.4269999861717224 1.1690000295639038,-0.4269999861717224 C1.1690000295639038,-0.4269999861717224 0.4269999861717224,1.1690000295639038 0.4269999861717224,1.1690000295639038 C0.4269999861717224,1.1690000295639038 -1.1690000295639038,0.4269999861717224 -1.1690000295639038,0.4269999861717224z">
                        </path>
                    </g>
                    <g opacity="1" transform="matrix(1,0,0,1,275.1669921875,77.125)">
                        <path fill="rgb(166,135,185)" fill-opacity="1"
                            d=" M-1.1690000295639038,0.4269999861717224 C-1.1690000295639038,0.4269999861717224 -0.4269999861717224,-1.1690000295639038 -0.4269999861717224,-1.1690000295639038 C-0.4269999861717224,-1.1690000295639038 1.1690000295639038,-0.4269999861717224 1.1690000295639038,-0.4269999861717224 C1.1690000295639038,-0.4269999861717224 0.4269999861717224,1.1690000295639038 0.4269999861717224,1.1690000295639038 C0.4269999861717224,1.1690000295639038 -1.1690000295639038,0.4269999861717224 -1.1690000295639038,0.4269999861717224z">
                        </path>
                    </g>
                    <g opacity="1" transform="matrix(1,0,0,1,275.15899658203125,71.95600128173828)">
                        <path fill="rgb(166,135,185)" fill-opacity="1"
                            d=" M-1.1690000295639038,0.4269999861717224 C-1.1690000295639038,0.4269999861717224 -0.42800000309944153,-1.1690000295639038 -0.42800000309944153,-1.1690000295639038 C-0.42800000309944153,-1.1690000295639038 1.1690000295639038,-0.4269999861717224 1.1690000295639038,-0.4269999861717224 C1.1690000295639038,-0.4269999861717224 0.4269999861717224,1.1690000295639038 0.4269999861717224,1.1690000295639038 C0.4269999861717224,1.1690000295639038 -1.1690000295639038,0.4269999861717224 -1.1690000295639038,0.4269999861717224z">
                        </path>
                    </g>
                </g>
                <g opacity="1" transform="matrix(1,0,0,1,291.44500732421875,41.755001068115234)">
                    <path fill="rgb(223,188,164)" fill-opacity="1"
                        d=" M-10.675999641418457,0.5049999952316284 C-10.675999641418457,0.5049999952316284 -4.085000038146973,-14.744999885559082 -4.085000038146973,-14.744999885559082 C-4.085000038146973,-14.744999885559082 10.675000190734863,7.625 10.675000190734863,7.625 C10.675000190734863,7.625 9.104000091552734,14.744999885559082 9.104000091552734,14.744999885559082 C9.104000091552734,14.744999885559082 0.8450000286102295,11.484999656677246 0.8450000286102295,11.484999656677246 C0.8450000286102295,11.484999656677246 -10.675999641418457,0.5049999952316284 -10.675999641418457,0.5049999952316284z">
                    </path>
                </g>
                <g opacity="1" transform="matrix(1,0,0,1,281.489990234375,41.654998779296875)">
                    <path fill="rgb(195,151,122)" fill-opacity="1"
                        d=" M-10.800000190734863,-1.9550000429153442 C-10.800000190734863,-1.9550000429153442 0.009999999776482582,14.645000457763672 0.009999999776482582,14.645000457763672 C0.009999999776482582,14.645000457763672 10.800000190734863,11.585000038146973 10.800000190734863,11.585000038146973 C10.800000190734863,11.585000038146973 5.869999885559082,-14.645000457763672 5.869999885559082,-14.645000457763672 C5.869999885559082,-14.645000457763672 -10.800000190734863,-1.9550000429153442 -10.800000190734863,-1.9550000429153442z">
                    </path>
                </g>
            </g>
        </g>
        <g transform="matrix(1,0,0,1,0,0)" opacity="1" style="display: block;">
            <g opacity="1" transform="matrix(1,0,0,1,0,0)">
                <g opacity="0.1" transform="matrix(1,0,0,1,221.39999389648438,389.3550109863281)">
                    <path fill="rgb(43,43,43)" fill-opacity="1"
                        d=" M-107.5199966430664,2.9549999237060547 C-107.5199966430664,2.9549999237060547 5.099999904632568,10.645000457763672 5.099999904632568,10.645000457763672 C5.099999904632568,10.645000457763672 107.5199966430664,-1.0049999952316284 107.5199966430664,-1.0049999952316284 C107.5199966430664,-1.0049999952316284 7.260000228881836,-10.645000457763672 7.260000228881836,-10.645000457763672 C7.260000228881836,-10.645000457763672 -107.5199966430664,2.9549999237060547 -107.5199966430664,2.9549999237060547z">
                    </path>
                </g>
                <g opacity="1" transform="matrix(1,0,0,1,188.5500030517578,381.25)">
                    <path fill="rgb(88,65,100)" fill-opacity="1"
                        d=" M0.03999999910593033,12.119999885559082 C0.03999999910593033,12.119999885559082 5.610000133514404,3.059000015258789 5.610000133514404,3.059000015258789 C5.610000133514404,3.059000015258789 -0.3700000047683716,-12.119999885559082 -0.3700000047683716,-12.119999885559082 C-0.3700000047683716,-12.119999885559082 -5.610000133514404,-4.360000133514404 -5.610000133514404,-4.360000133514404 C-5.610000133514404,-4.360000133514404 -3.799999952316284,12.119999885559082 -3.799999952316284,12.119999885559082 C-3.799999952316284,12.119999885559082 0.03999999910593033,12.119999885559082 0.03999999910593033,12.119999885559082z">
                    </path>
                </g>
                <g opacity="1" transform="matrix(1,0,0,1,189.42999267578125,354.114990234375)">
                    <path fill="rgb(195,151,122)" fill-opacity="1"
                        d=" M12.779999732971191,13.914999961853027 C12.779999732971191,13.914999961853027 14.210000038146973,-23.7549991607666 14.210000038146973,-23.7549991607666 C14.210000038146973,-23.7549991607666 -14.210000038146973,-23.7549991607666 -14.210000038146973,-23.7549991607666 C-14.210000038146973,-23.7549991607666 -1.25,15.015000343322754 -1.25,15.015000343322754 C-1.25,15.015000343322754 8.479999542236328,23.7549991607666 8.479999542236328,23.7549991607666 C8.479999542236328,23.7549991607666 12.779999732971191,13.914999961853027 12.779999732971191,13.914999961853027z">
                    </path>
                </g>
                <g opacity="1" transform="matrix(1,0,0,1,193.59500122070312,362.1499938964844)">
                    <path fill="rgb(138,102,81)" fill-opacity="1"
                        d=" M8.8149995803833,0.5799999833106995 C8.8149995803833,0.5799999833106995 -8.8149995803833,-3.180999994277954 -8.8149995803833,-3.180999994277954 C-8.8149995803833,-3.180999994277954 -6.684999942779541,3.180000066757202 -6.684999942779541,3.180000066757202 C-6.684999942779541,3.180000066757202 8.8149995803833,0.5799999833106995 8.8149995803833,0.5799999833106995z">
                    </path>
                </g>
                <g opacity="1" transform="matrix(1,0,0,1,201.94500732421875,380.70001220703125)">
                    <path fill="rgb(120,93,135)" fill-opacity="1"
                        d=" M-13.765000343322754,-11.569999694824219 C-13.765000343322754,-11.569999694824219 0.26499998569488525,-12.670000076293945 0.26499998569488525,-12.670000076293945 C0.26499998569488525,-12.670000076293945 13.765000343322754,12.670000076293945 13.765000343322754,12.670000076293945 C13.765000343322754,12.670000076293945 -13.354999542236328,12.670000076293945 -13.354999542236328,12.670000076293945 C-13.354999542236328,12.670000076293945 -13.765000343322754,-11.569999694824219 -13.765000343322754,-11.569999694824219z">
                    </path>
                </g>
            </g>
        </g>
        <g transform="matrix(1,0,0,1,0,0)" opacity="1" style="display: block;">
            <g opacity="1" transform="matrix(1,0,0,1,266.7099914550781,278.2200012207031)">
                <path fill="rgb(235,235,235)" fill-opacity="1"
                    d=" M-29.06999969482422,-16.290000915527344 C-29.06999969482422,-16.290000915527344 29.06999969482422,42.65999984741211 29.06999969482422,42.65999984741211 C29.06999969482422,42.65999984741211 -15.539999961853027,-42.65999984741211 -15.539999961853027,-42.65999984741211 C-15.539999961853027,-42.65999984741211 -25.548999786376953,-35.619998931884766 -25.548999786376953,-35.619998931884766 C-25.548999786376953,-35.619998931884766 -29.06999969482422,-16.290000915527344 -29.06999969482422,-16.290000915527344z">
                </path>
            </g>
            <g opacity="1" transform="matrix(1,0,0,1,268.4700012207031,304.80499267578125)">
                <path fill="rgb(196,196,196)" fill-opacity="1"
                    d=" M-27.309999465942383,-46.595001220703125 C-27.309999465942383,-46.595001220703125 27.309999465942383,16.075000762939453 27.309999465942383,16.075000762939453 C27.309999465942383,16.075000762939453 -5.360000133514404,46.595001220703125 -5.360000133514404,46.595001220703125 C-5.360000133514404,46.595001220703125 -22.25,0.004999999888241291 -22.25,0.004999999888241291 C-22.25,0.004999999888241291 -27.309999465942383,-46.595001220703125 -27.309999465942383,-46.595001220703125z">
                </path>
            </g>
            <g opacity="1" transform="matrix(1,0,0,1,237.63999938964844,220.69500732421875)">
                <path fill="rgb(143,143,143)" fill-opacity="1"
                    d=" M-16.899999618530273,-28.274999618530273 C-16.899999618530273,-28.274999618530273 3.5199999809265137,37.51499938964844 3.5199999809265137,37.51499938964844 C3.5199999809265137,37.51499938964844 13.529999732971191,14.864999771118164 13.529999732971191,14.864999771118164 C13.529999732971191,14.864999771118164 16.899999618530273,-37.51499938964844 16.899999618530273,-37.51499938964844 C16.899999618530273,-37.51499938964844 -16.899999618530273,-28.274999618530273 -16.899999618530273,-28.274999618530273z">
                </path>
            </g>
            <g opacity="1" transform="matrix(1,0,0,1,230.78500366210938,170.17999267578125)">
                <path fill="rgb(221,221,220)" fill-opacity="1"
                    d=" M-25.35099983215332,-20.027999877929688 C-25.35099983215332,-20.027999877929688 -4.284999847412109,26.770000457763672 -4.284999847412109,26.770000457763672 C-4.284999847412109,26.770000457763672 23.7549991607666,13 23.7549991607666,13 C23.7549991607666,13 24.21500015258789,5.840000152587891 24.21500015258789,5.840000152587891 C24.21500015258789,5.840000152587891 -4.284999847412109,-26.770000457763672 -4.284999847412109,-26.770000457763672 C-4.284999847412109,-26.770000457763672 -25.35099983215332,-20.027999877929688 -25.35099983215332,-20.027999877929688z">
                </path>
            </g>
            <g opacity="1" transform="matrix(1,0,0,1,206.60699462890625,179.31199645996094)">
                <path fill="rgb(88,65,100)" fill-opacity="1"
                    d=" M4.146999835968018,-25.604000091552734 C4.146999835968018,-25.604000091552734 -15.140000343322754,-3.9560000896453857 -20.14699935913086,0.7170000076293945 C-14.696999549865723,9.345999717712402 -9.246000289916992,17.975000381469727 -3.7950000762939453,26.604000091552734 C4.184999942779541,23.94300079345703 12.166999816894531,21.283000946044922 20.14699935913086,18.62299919128418 C17.413999557495117,8.100000381469727 4.146999835968018,-25.604000091552734 4.146999835968018,-25.604000091552734z">
                </path>
            </g>
            <g opacity="1" transform="matrix(1,0,0,1,0,0)">
                <g opacity="1" transform="matrix(1,0,0,1,212.1219940185547,166.6179962158203)">
                    <path fill="rgb(144,117,159)" fill-opacity="1"
                        d=" M-6.586999893188477,-16.332000732421875 C-6.586999893188477,-16.332000732421875 9.11299991607666,18.12700080871582 9.11299991607666,18.12700080871582 C9.11299991607666,18.12700080871582 -11.86299991607666,-1.1080000400543213 -11.86299991607666,-1.1080000400543213 C-11.86299991607666,-1.1080000400543213 -6.586999893188477,-16.332000732421875 -6.586999893188477,-16.332000732421875z">
                    </path>
                </g>
            </g>
            <g opacity="1" transform="matrix(1,0,0,1,221.78500366210938,227.59500122070312)">
                <path fill="rgb(88,65,100)" fill-opacity="1"
                    d=" M9.595000267028809,-10.244999885559082 C9.595000267028809,-10.244999885559082 4.724999904632568,-30.614999771118164 4.724999904632568,-30.614999771118164 C4.724999904632568,-30.614999771118164 -19.375,-22.545000076293945 -19.375,-22.545000076293945 C-19.375,-22.545000076293945 -15.484999656677246,26.31599998474121 -15.484999656677246,26.31599998474121 C-15.484999656677246,26.31599998474121 -15.21500015258789,26.614999771118164 -15.21500015258789,26.614999771118164 C-15.21500015258789,26.614999771118164 19.375,30.614999771118164 19.375,30.614999771118164 C19.375,30.614999771118164 9.595000267028809,-10.244999885559082 9.595000267028809,-10.244999885559082z">
                </path>
            </g>
            <g opacity="1" transform="matrix(1,0,0,1,224.36500549316406,172.10000610351562)">
                <path fill="rgb(235,235,235)" fill-opacity="1"
                    d=" M-18.915000915527344,-21.8700008392334 C-18.915000915527344,-21.8700008392334 2.2049999237060547,24.8700008392334 2.2049999237060547,24.8700008392334 C2.2049999237060547,24.8700008392334 8.1850004196167,21.66200065612793 8.1850004196167,21.66200065612793 C8.1850004196167,21.66200065612793 18.915000915527344,-9.489999771118164 18.915000915527344,-9.489999771118164 C18.915000915527344,-9.489999771118164 -18.915000915527344,-21.8700008392334 -18.915000915527344,-21.8700008392334z">
                </path>
            </g>
        </g>
        <g transform="matrix(1,0,0,1,0,0)" opacity="1" style="display: block;">
            <g opacity="1" transform="matrix(1,0,0,1,0,0)">
                <g opacity="1" transform="matrix(1,0,0,1,255.0050048828125,373.2149963378906)">
                    <path fill="rgb(88,65,100)" fill-opacity="1"
                        d=" M2.884999990463257,12.175000190734863 C2.884999990463257,12.175000190734863 6.005000114440918,0.19599999487400055 6.005000114440918,0.19599999487400055 C6.005000114440918,0.19599999487400055 1.7949999570846558,-7.65500020980835 1.7949999570846558,-7.65500020980835 C1.7949999570846558,-7.65500020980835 -3.234999895095825,-12.175000190734863 -3.234999895095825,-12.175000190734863 C-3.234999895095825,-12.175000190734863 -6.005000114440918,-2.8540000915527344 -6.005000114440918,-2.8540000915527344 C-6.005000114440918,-2.8540000915527344 -1.6150000095367432,12.175000190734863 -1.6150000095367432,12.175000190734863 C-1.6150000095367432,12.175000190734863 2.884999990463257,12.175000190734863 2.884999990463257,12.175000190734863z">
                    </path>
                </g>
                <g opacity="1" transform="matrix(1,0,0,1,247.93499755859375,351.6400146484375)">
                    <path fill="rgb(195,151,122)" fill-opacity="1"
                        d=" M16.684999465942383,6.389999866485596 C16.684999465942383,6.389999866485596 10.163999557495117,-21.280000686645508 10.163999557495117,-21.280000686645508 C10.163999557495117,-21.280000686645508 -16.684999465942383,-21.280000686645508 -16.684999465942383,-21.280000686645508 C-16.684999465942383,-21.280000686645508 3.8340001106262207,9.399999618530273 3.8340001106262207,9.399999618530273 C3.8340001106262207,9.399999618530273 13.635000228881836,21.280000686645508 13.635000228881836,21.280000686645508 C13.635000228881836,21.280000686645508 16.684999465942383,6.389999866485596 16.684999465942383,6.389999866485596z">
                    </path>
                </g>
                <g opacity="1" transform="matrix(1,0,0,1,244.6750030517578,331.6499938964844)">
                    <path fill="rgb(138,102,81)" fill-opacity="1"
                        d=" M13.425000190734863,-1.2899999618530273 C13.425000190734863,-1.2899999618530273 -7.034999847412109,-6.730000019073486 -7.034999847412109,-6.730000019073486 C-7.034999847412109,-6.730000019073486 -13.425000190734863,-1.2899999618530273 -13.425000190734863,-1.2899999618530273 C-13.425000190734863,-1.2899999618530273 -8.053999900817871,6.730000019073486 -8.053999900817871,6.730000019073486 C-8.053999900817871,6.730000019073486 13.425000190734863,-1.2899999618530273 13.425000190734863,-1.2899999618530273z">
                    </path>
                </g>
                <g opacity="1" transform="matrix(1,0,0,1,272.2449951171875,371.7099914550781)">
                    <path fill="rgb(120,93,135)" fill-opacity="1"
                        d=" M-20.475000381469727,-10.670000076293945 C-20.475000381469727,-10.670000076293945 -7.624000072479248,-13.680000305175781 -7.624000072479248,-13.680000305175781 C-7.624000072479248,-13.680000305175781 20.475000381469727,13.680000305175781 20.475000381469727,13.680000305175781 C20.475000381469727,13.680000305175781 -5.964000225067139,13.680000305175781 -5.964000225067139,13.680000305175781 C-5.964000225067139,13.680000305175781 -20.475000381469727,-10.670000076293945 -20.475000381469727,-10.670000076293945z">
                    </path>
                </g>
            </g>
            <g opacity="1" transform="matrix(1,0,0,1,0,0)">
                <g opacity="1" transform="matrix(1,0,0,1,211.83299255371094,288.94000244140625)">
                    <path fill="rgb(120,93,135)" fill-opacity="1"
                        d=" M-36.61199951171875,-38.35100173950195 C-36.61199951171875,-38.35100173950195 6.697999954223633,-41.42100143432617 6.697999954223633,-41.42100143432617 C6.697999954223633,-41.42100143432617 27.13800048828125,-23.190000534057617 27.13800048828125,-23.190000534057617 C27.13800048828125,-23.190000534057617 46.26599884033203,41.42100143432617 46.26599884033203,41.42100143432617 C46.26599884033203,41.42100143432617 -46.26599884033203,41.12300109863281 -46.26599884033203,41.12300109863281 C-46.26599884033203,41.12300109863281 -36.61199951171875,-38.35100173950195 -36.61199951171875,-38.35100173950195z">
                    </path>
                </g>
                <g opacity="1" transform="matrix(1,0,0,1,232.19500732421875,291.4100036621094)">
                    <path fill="rgb(144,117,159)" fill-opacity="1"
                        d=" M-25.905000686645508,-37.22999954223633 C-25.905000686645508,-37.22999954223633 25.905000686645508,38.689998626708984 25.905000686645508,38.689998626708984 C25.905000686645508,38.689998626708984 8.96500015258789,-33.20000076293945 8.96500015258789,-33.20000076293945 C8.96500015258789,-33.20000076293945 -7.835000038146973,-38.689998626708984 -7.835000038146973,-38.689998626708984 C-7.835000038146973,-38.689998626708984 -25.905000686645508,-37.22999954223633 -25.905000686645508,-37.22999954223633z">
                    </path>
                </g>
            </g>
        </g>
        <g transform="matrix(1,0.0000017110713770307484,-0.0000017110713770307484,1,0.0002899169921875,-0.0003662109375)"
            opacity="1" style="display: block;">
            <g opacity="1" transform="matrix(1,0,0,1,0,0)">
                <g opacity="1" transform="matrix(1,0,0,1,90.1449966430664,178.16000366210938)">
                    <path fill="rgb(149,98,123)" fill-opacity="1"
                        d=" M11.385000228881836,15.550000190734863 C11.385000228881836,15.550000190734863 -20.44499969482422,-6.630000114440918 -20.44499969482422,-6.630000114440918 C-20.44499969482422,-6.630000114440918 9.274999618530273,-15.550000190734863 9.274999618530273,-15.550000190734863 C9.274999618530273,-15.550000190734863 20.44499969482422,-11.479999542236328 20.44499969482422,-11.479999542236328 C20.44499969482422,-11.479999542236328 11.385000228881836,15.550000190734863 11.385000228881836,15.550000190734863z">
                    </path>
                </g>
                <g opacity="1" transform="matrix(1,0,0,1,124.2249984741211,157.0749969482422)">
                    <path fill="rgb(83,47,66)" fill-opacity="1"
                        d=" M27.2549991607666,-17.415000915527344 C27.2549991607666,-17.415000915527344 -22.69499969482422,36.6349983215332 -22.69499969482422,36.6349983215332 C-22.69499969482422,36.6349983215332 -27.2549991607666,-36.6349983215332 -27.2549991607666,-36.6349983215332 C-27.2549991607666,-36.6349983215332 27.2549991607666,-17.415000915527344 27.2549991607666,-17.415000915527344z">
                    </path>
                </g>
            </g>
            <g opacity="1" transform="matrix(1,0,0,1,89.01499938964844,81.18499755859375)">
                <path fill="rgb(179,135,157)" fill-opacity="1"
                    d=" M22.184999465942383,-38.1150016784668 C22.184999465942383,-38.1150016784668 7.954999923706055,-1.934999942779541 7.954999923706055,-1.934999942779541 C7.954999923706055,-1.934999942779541 -22.184999465942383,38.1150016784668 -22.184999465942383,38.1150016784668 C-22.184999465942383,38.1150016784668 -12.164999961853027,-29.225000381469727 -12.164999961853027,-29.225000381469727 C-12.164999961853027,-29.225000381469727 22.184999465942383,-38.1150016784668 22.184999465942383,-38.1150016784668z">
                </path>
            </g>
            <g opacity="1" transform="matrix(1,0,0,1,89.01499938964844,81.18499755859375)">
                <path fill="rgb(149,98,123)" fill-opacity="1"
                    d=" M22.184999465942383,-38.1150016784668 C22.184999465942383,-38.1150016784668 -22.184999465942383,38.1150016784668 -22.184999465942383,38.1150016784668 C-22.184999465942383,38.1150016784668 20.145000457763672,25.114999771118164 20.145000457763672,25.114999771118164 C20.145000457763672,25.114999771118164 22.184999465942383,-38.1150016784668 22.184999465942383,-38.1150016784668z">
                </path>
            </g>
            <g opacity="1" transform="matrix(1,0,0,1,109.15499877929688,121.74500274658203)">
                <path fill="rgb(115,77,95)" fill-opacity="1"
                    d=" M-42.32500076293945,-2.444999933242798 C-42.32500076293945,-2.444999933242798 -12.1850004196167,-17.915000915527344 -12.1850004196167,-17.915000915527344 C-12.1850004196167,-17.915000915527344 10.555000305175781,-9.864999771118164 10.555000305175781,-9.864999771118164 C10.555000305175781,-9.864999771118164 31.575000762939453,2.6050000190734863 31.575000762939453,2.6050000190734863 C31.575000762939453,2.6050000190734863 42.32500076293945,17.915000915527344 42.32500076293945,17.915000915527344 C42.32500076293945,17.915000915527344 -42.32500076293945,-2.444999933242798 -42.32500076293945,-2.444999933242798z">
                </path>
            </g>
            <g opacity="1" transform="matrix(1,0,0,1,117.31999969482422,111.88500213623047)">
                <path fill="rgb(83,47,66)" fill-opacity="1"
                    d=" M-20.350000381469727,-8.055000305175781 C-20.350000381469727,-8.055000305175781 20.350000381469727,13.484999656677246 20.350000381469727,13.484999656677246 C20.350000381469727,13.484999656677246 3.009999990463257,-13.484999656677246 3.009999990463257,-13.484999656677246 C3.009999990463257,-13.484999656677246 -20.350000381469727,-8.055000305175781 -20.350000381469727,-8.055000305175781z">
                </path>
            </g>
            <g opacity="1" transform="matrix(1,0,0,1,181.9250030517578,84.34500122070312)">
                <path fill="rgb(223,188,164)" fill-opacity="1"
                    d=" M27.28499984741211,-61.98500061035156 C27.28499984741211,-61.98500061035156 34.51499938964844,-56.8650016784668 34.51499938964844,-56.8650016784668 C34.51499938964844,-56.8650016784668 64.29499816894531,26.024999618530273 64.29499816894531,26.024999618530273 C64.29499816894531,26.024999618530273 31.575000762939453,40.32500076293945 31.575000762939453,40.32500076293945 C31.575000762939453,40.32500076293945 18.554000854492188,81.37799835205078 18.554000854492188,81.37799835205078 C18.554000854492188,81.37799835205078 -12.78499984741211,63.904998779296875 -12.78499984741211,63.904998779296875 C-12.78499984741211,63.904998779296875 -52.775001525878906,15.854999542236328 -52.775001525878906,15.854999542236328 C-52.775001525878906,15.854999542236328 -64.29499816894531,-50.845001220703125 -64.29499816894531,-50.845001220703125 C-64.29499816894531,-50.845001220703125 2.494999885559082,-81.1050033569336 2.494999885559082,-81.1050033569336 C2.494999885559082,-81.1050033569336 27.28499984741211,-61.98500061035156 27.28499984741211,-61.98500061035156z">
                </path>
            </g>
            <g opacity="1" transform="matrix(1,0,0,1,161.9600067138672,105.70999908447266)">
                <path fill="rgb(195,151,122)" fill-opacity="1"
                    d=" M39.347999572753906,59.801998138427734 C39.347999572753906,59.801998138427734 42.69499969482422,48.992000579833984 42.69499969482422,48.992000579833984 C42.69499969482422,48.992000579833984 26.450000762939453,34.119998931884766 26.450000762939453,34.119998931884766 C26.450000762939453,34.119998931884766 -6.769999980926514,-49.369998931884766 -6.769999980926514,-49.369998931884766 C-6.769999980926514,-49.369998931884766 -18.93000030517578,-59.7400016784668 -18.93000030517578,-59.7400016784668 C-18.93000030517578,-59.7400016784668 -44.33000183105469,-1.0800000429153442 -44.33000183105469,-1.0800000429153442 C-44.33000183105469,-1.0800000429153442 -24.290000915527344,19.65999984741211 -24.290000915527344,19.65999984741211 C-24.290000915527344,19.65999984741211 -18.770000457763672,22.690000534057617 -18.770000457763672,22.690000534057617 C-18.770000457763672,22.690000534057617 -10.479999542236328,33.95000076293945 -10.479999542236328,33.95000076293945 C-10.479999542236328,33.95000076293945 7.179999828338623,52.22999954223633 7.179999828338623,52.22999954223633 C7.179999828338623,52.22999954223633 21.239999771118164,59.7400016784668 21.239999771118164,59.7400016784668 C21.239999771118164,59.7400016784668 39.347999572753906,59.801998138427734 39.347999572753906,59.801998138427734z">
                </path>
            </g>
            <g opacity="1" transform="matrix(1,0,0,1,194.36000061035156,139.65499877929688)">
                <path fill="rgb(138,102,81)" fill-opacity="1"
                    d=" M-19.139999389648438,1.8250000476837158 C-19.139999389648438,1.8250000476837158 9.670000076293945,14.984999656677246 9.670000076293945,14.984999656677246 C9.670000076293945,14.984999656677246 10.29800033569336,15.145000457763672 10.29800033569336,15.145000457763672 C10.29800033569336,15.145000457763672 19.139999389648438,-14.984999656677246 19.139999389648438,-14.984999656677246 C19.139999389648438,-14.984999656677246 -19.139999389648438,1.8250000476837158 -19.139999389648438,1.8250000476837158z">
                </path>
            </g>
            <g opacity="1" transform="matrix(1,0,0,1,152.38499450683594,25.28499984741211)">
                <path fill="rgb(179,135,157)" fill-opacity="1"
                    d=" M-9.354999542236328,20.684999465942383 C-9.354999542236328,20.684999465942383 26.975000381469727,7.724999904632568 26.975000381469727,7.724999904632568 C26.975000381469727,7.724999904632568 38.505001068115234,-5.054999828338623 38.505001068115234,-5.054999828338623 C38.505001068115234,-5.054999828338623 32.584999084472656,-25.28499984741211 32.584999084472656,-25.28499984741211 C32.584999084472656,-25.28499984741211 -38.505001068115234,6.375 -38.505001068115234,6.375 C-38.505001068115234,6.375 -25.895000457763672,25.28499984741211 -25.895000457763672,25.28499984741211 C-25.895000457763672,25.28499984741211 -9.354999542236328,20.684999465942383 -9.354999542236328,20.684999465942383z">
                </path>
            </g>
            <g opacity="1" transform="matrix(1,0,0,1,144.5749969482422,128.39999389648438)">
                <path fill="rgb(138,102,81)" fill-opacity="1"
                    d=" M-6.90500020980835,-3.0299999713897705 C-6.90500020980835,-3.0299999713897705 -0.9850000143051147,-11.260000228881836 -0.9850000143051147,-11.260000228881836 C-0.9850000143051147,-11.260000228881836 6.90500020980835,11.260000228881836 6.90500020980835,11.260000228881836 C6.90500020980835,11.260000228881836 -6.90500020980835,-3.0299999713897705 -6.90500020980835,-3.0299999713897705z">
                </path>
            </g>
            <g opacity="1" transform="matrix(1,0,0,1,132.42999267578125,106.30000305175781)">
                <path fill="rgb(223,188,164)" fill-opacity="1"
                    d=" M5.239999771118164,19.06999969482422 C5.239999771118164,19.06999969482422 14.800000190734863,5.760000228881836 14.800000190734863,5.760000228881836 C14.800000190734863,5.760000228881836 -7.260000228881836,-19.06999969482422 -7.260000228881836,-19.06999969482422 C-7.260000228881836,-19.06999969482422 -14.800000190734863,-1.6699999570846558 -14.800000190734863,-1.6699999570846558 C-14.800000190734863,-1.6699999570846558 5.239999771118164,19.06999969482422 5.239999771118164,19.06999969482422z">
                </path>
            </g>
            <g opacity="1" transform="matrix(1,0,0,1,129.10000610351562,101.7300033569336)">
                <path fill="rgb(138,102,81)" fill-opacity="1"
                    d=" M-1.5299999713897705,-5.289999961853027 C-1.5299999713897705,-5.289999961853027 7.119999885559082,5.289999961853027 7.119999885559082,5.289999961853027 C7.119999885559082,5.289999961853027 -7.119999885559082,2.5799999237060547 -7.119999885559082,2.5799999237060547 C-7.119999885559082,2.5799999237060547 -1.5299999713897705,-5.289999961853027 -1.5299999713897705,-5.289999961853027z">
                </path>
            </g>
            <g opacity="1" transform="matrix(1,0,0,1,145.88499450683594,114.97000122070312)">
                <path fill="rgb(255,255,255)" fill-opacity="1"
                    d=" M6.784999847412109,2.559999942779541 C6.784999847412109,2.559999942779541 2.444999933242798,6.920000076293945 2.444999933242798,6.920000076293945 C2.444999933242798,6.920000076293945 -6.784999847412109,-2.3299999237060547 -6.784999847412109,-2.3299999237060547 C-6.784999847412109,-2.3299999237060547 -2.2149999141693115,-6.920000076293945 -2.2149999141693115,-6.920000076293945 C-2.2149999141693115,-6.920000076293945 6.784999847412109,2.559999942779541 6.784999847412109,2.559999942779541z">
                </path>
            </g>
            <g opacity="1" transform="matrix(1,0,0,1,194.28500366210938,16.5049991607666)">
                <path fill="rgb(149,98,123)" fill-opacity="1"
                    d=" M-9.3149995803833,-16.5049991607666 C-9.3149995803833,-16.5049991607666 -14.925000190734863,16.5049991607666 -14.925000190734863,16.5049991607666 C-14.925000190734863,16.5049991607666 14.925000190734863,5.855000019073486 14.925000190734863,5.855000019073486 C14.925000190734863,5.855000019073486 -9.3149995803833,-16.5049991607666 -9.3149995803833,-16.5049991607666z">
                </path>
            </g>
            <g opacity="1" transform="matrix(1,0,0,1,124.20500183105469,69.8550033569336)">
                <path fill="rgb(115,77,95)" fill-opacity="1"
                    d=" M0.9649999737739563,17.375 C0.9649999737739563,17.375 19.46500015258789,38.19499969482422 19.46500015258789,38.19499969482422 C19.46500015258789,38.19499969482422 27.235000610351562,26.725000381469727 27.235000610351562,26.725000381469727 C27.235000610351562,26.725000381469727 7.605000019073486,2.0250000953674316 7.605000019073486,2.0250000953674316 C7.605000019073486,2.0250000953674316 18.825000762939453,-23.885000228881836 18.825000762939453,-23.885000228881836 C18.825000762939453,-23.885000228881836 -10.324999809265137,-38.19499969482422 -10.324999809265137,-38.19499969482422 C-10.324999809265137,-38.19499969482422 -27.235000610351562,33.974998474121094 -27.235000610351562,33.974998474121094 C-27.235000610351562,33.974998474121094 -13.015000343322754,34.525001525878906 -13.015000343322754,34.525001525878906 C-13.015000343322754,34.525001525878906 -6.574999809265137,34.775001525878906 -6.574999809265137,34.775001525878906 C-6.574999809265137,34.775001525878906 0.9649999737739563,17.375 0.9649999737739563,17.375z">
                </path>
            </g>
        </g>
        <g transform="matrix(1,0,0,1,0,0)" opacity="1" style="display: block;">
            <g opacity="1" transform="matrix(1,0,0,1,175.43499755859375,206.05999755859375)">
                <path fill="rgb(221,221,220)" fill-opacity="1"
                    d=" M-6.295000076293945,-48.119998931884766 C-6.295000076293945,-48.119998931884766 17.924999237060547,-17.229999542236328 17.924999237060547,-17.229999542236328 C21.81399917602539,-11.682999610900879 25.70400047302246,-6.136000156402588 29.593000411987305,-0.5879999995231628 C30.01300048828125,15.64799976348877 30.43400001525879,31.882999420166016 30.854999542236328,48.119998931884766 C20.531999588012695,46.95899963378906 10.208999633789062,45.79800033569336 -0.11400000005960464,44.637001037597656 C-10.361000061035156,21.884000778198242 -20.607999801635742,-0.8679999709129333 -30.854999542236328,-23.6200008392334 C-30.854999542236328,-23.6200008392334 -6.295000076293945,-48.119998931884766 -6.295000076293945,-48.119998931884766z">
                </path>
            </g>
            <g opacity="1" transform="matrix(1,0,0,1,178.47999572753906,173.38499450683594)">
                <path fill="rgb(235,235,235)" fill-opacity="1"
                    d=" M-9.34000015258789,-15.444999694824219 C-9.34000015258789,-15.444999694824219 -14.880000114440918,14.71500015258789 -14.880000114440918,14.71500015258789 C-14.880000114440918,14.71500015258789 14.880000114440918,15.444999694824219 14.880000114440918,15.444999694824219 C14.880000114440918,15.444999694824219 6.400000095367432,0.9750000238418579 6.400000095367432,0.9750000238418579 C6.400000095367432,0.9750000238418579 -9.34000015258789,-15.444999694824219 -9.34000015258789,-15.444999694824219z">
                </path>
            </g>
            <g opacity="1" transform="matrix(1,0,0,1,221.78500366210938,227.59500122070312)">
                <path fill="rgb(88,65,100)" fill-opacity="1"
                    d=" M9.595000267028809,-10.244999885559082 C9.595000267028809,-10.244999885559082 4.724999904632568,-30.614999771118164 4.724999904632568,-30.614999771118164 C4.724999904632568,-30.614999771118164 -19.375,-22.545000076293945 -19.375,-22.545000076293945 C-19.375,-22.545000076293945 -15.484999656677246,26.31599998474121 -15.484999656677246,26.31599998474121 C-15.484999656677246,26.31599998474121 -15.21500015258789,26.614999771118164 -15.21500015258789,26.614999771118164 C-15.21500015258789,26.614999771118164 19.375,30.614999771118164 19.375,30.614999771118164 C19.375,30.614999771118164 9.595000267028809,-10.244999885559082 9.595000267028809,-10.244999885559082z">
                </path>
            </g>
            <g opacity="1" transform="matrix(1,0,0,1,190.88499450683594,197.21499633789062)">
                <path fill="rgb(235,235,235)" fill-opacity="1"
                    d=" M-13.994999885559082,-13.444999694824219 C-13.994999885559082,-13.444999694824219 -17.125,1.215000033378601 -17.125,1.215000033378601 C-17.125,1.215000033378601 8.135000228881836,13.444999694824219 8.135000228881836,13.444999694824219 C8.135000228881836,13.444999694824219 17.125,8.954999923706055 17.125,8.954999923706055 C17.125,8.954999923706055 1.4769999980926514,-9.814000129699707 1.4769999980926514,-9.814000129699707 C1.4769999980926514,-9.814000129699707 -13.994999885559082,-13.444999694824219 -13.994999885559082,-13.444999694824219z">
                </path>
            </g>
            <g opacity="1" transform="matrix(1,0,0,1,175.43499755859375,260.3349914550781)">
                <path fill="rgb(221,221,220)" fill-opacity="1"
                    d=" M-6.295000076293945,-102.3949966430664 C-6.295000076293945,-102.3949966430664 17.924999237060547,-71.50499725341797 17.924999237060547,-71.50499725341797 C17.924999237060547,-71.50499725341797 23.584999084472656,-49.67499923706055 23.584999084472656,-49.67499923706055 C23.584999084472656,-49.67499923706055 30.854999542236328,-6.15500020980835 30.854999542236328,-6.15500020980835 C30.854999542236328,-6.15500020980835 26.975000381469727,102.39600372314453 26.975000381469727,102.39600372314453 C26.975000381469727,102.39600372314453 -30.854999542236328,90.05500030517578 -30.854999542236328,90.05500030517578 C-30.854999542236328,90.05500030517578 6.485000133514404,-12.8149995803833 6.485000133514404,-12.8149995803833 C6.485000133514404,-12.8149995803833 -30.854999542236328,-77.8949966430664 -30.854999542236328,-77.8949966430664 C-30.854999542236328,-77.8949966430664 -6.295000076293945,-102.3949966430664 -6.295000076293945,-102.3949966430664z">
                </path>
            </g>
            <g opacity="1" transform="matrix(1,0,0,1,175.43499755859375,298.9549865722656)">
                <path fill="rgb(196,196,196)" fill-opacity="1"
                    d=" M30.854999542236328,-44.775001525878906 C30.854999542236328,-44.775001525878906 -30.854999542236328,51.435001373291016 -30.854999542236328,51.435001373291016 C-30.854999542236328,51.435001373291016 -0.2150000035762787,-48.3650016784668 -0.2150000035762787,-48.3650016784668 C-0.2150000035762787,-48.3650016784668 16.395000457763672,-51.435001373291016 16.395000457763672,-51.435001373291016 C16.395000457763672,-51.435001373291016 30.854999542236328,-44.775001525878906 30.854999542236328,-44.775001525878906z">
                </path>
            </g>
            <g opacity="1" transform="matrix(1,0,0,1,186.46499633789062,230.19000244140625)">
                <path fill="rgb(143,143,143)" fill-opacity="1"
                    d=" M21.545000076293945,-23.989999771118164 C21.545000076293945,-23.989999771118164 -3.265000104904175,-19.52899932861328 -3.265000104904175,-19.52899932861328 C-3.265000104904175,-19.52899932861328 -21.545000076293945,-2.5290000438690186 -21.545000076293945,-2.5290000438690186 C-21.545000076293945,-2.5290000438690186 -11.244999885559082,20.399999618530273 -11.244999885559082,20.399999618530273 C-11.244999885559082,20.399999618530273 19.825000762939453,23.989999771118164 19.825000762939453,23.989999771118164 C19.825000762939453,23.989999771118164 21.545000076293945,-23.989999771118164 21.545000076293945,-23.989999771118164z">
                </path>
            </g>
            <g opacity="1" transform="matrix(1,0,0,1,178.47999572753906,173.38499450683594)">
                <path fill="rgb(235,235,235)" fill-opacity="1"
                    d=" M-9.34000015258789,-15.444999694824219 C-9.34000015258789,-15.444999694824219 -14.880000114440918,14.71500015258789 -14.880000114440918,14.71500015258789 C-14.880000114440918,14.71500015258789 14.880000114440918,15.444999694824219 14.880000114440918,15.444999694824219 C14.880000114440918,15.444999694824219 6.400000095367432,0.9750000238418579 6.400000095367432,0.9750000238418579 C6.400000095367432,0.9750000238418579 -9.34000015258789,-15.444999694824219 -9.34000015258789,-15.444999694824219z">
                </path>
            </g>
            <g opacity="1" transform="matrix(1,0,0,1,184.8800048828125,168.98500061035156)">
                <path fill="rgb(144,117,159)" fill-opacity="1"
                    d=" M15.739999771118164,-3.5350000858306885 C15.739999771118164,-3.5350000858306885 9.479999542236328,7.034999847412109 9.479999542236328,7.034999847412109 C9.479999542236328,7.034999847412109 1.5800000429153442,11.045000076293945 1.5800000429153442,11.045000076293945 C1.5800000429153442,11.045000076293945 -15.739999771118164,-11.045000076293945 -15.739999771118164,-11.045000076293945 C-15.739999771118164,-11.045000076293945 15.739999771118164,-3.5350000858306885 15.739999771118164,-3.5350000858306885z">
                </path>
            </g>
            <g opacity="1" transform="matrix(1,0,0,1,194.78500366210938,177.13999938964844)">
                <path fill="rgb(88,65,100)" fill-opacity="1"
                    d=" M5.875,-11.680000305175781 C5.875,-11.680000305175781 5.835000038146973,-11.6899995803833 5.835000038146973,-11.6899995803833 C5.835000038146973,-11.6899995803833 -8.324999809265137,2.890000104904175 -8.324999809265137,2.890000104904175 C-8.324999809265137,2.890000104904175 -1.4249999523162842,11.6899995803833 -1.4249999523162842,11.6899995803833 C-1.4249999523162842,11.6899995803833 8.324999809265137,3.4200000762939453 8.324999809265137,3.4200000762939453 C8.324999809265137,3.4200000762939453 5.875,-11.680000305175781 5.875,-11.680000305175781z">
                </path>
            </g>
            <g opacity="1" transform="matrix(1,0,0,1,190.88499450683594,197.21499633789062)">
                <path fill="rgb(235,235,235)" fill-opacity="1"
                    d=" M-26.263999938964844,-13.496999740600586 C-26.263999938964844,-13.496999740600586 -29.393999099731445,1.1629999876022339 -29.393999099731445,1.1629999876022339 C-29.393999099731445,1.1629999876022339 -4.133999824523926,13.392999649047852 -4.133999824523926,13.392999649047852 C-4.133999824523926,13.392999649047852 15.88700008392334,8.324999809265137 15.88700008392334,8.324999809265137 C15.88700008392334,8.324999809265137 0.9010000228881836,-10.425000190734863 0.9010000228881836,-10.425000190734863 C0.9010000228881836,-10.425000190734863 -26.263999938964844,-13.496999740600586 -26.263999938964844,-13.496999740600586z">
                </path>
            </g>
        </g>
        <g transform="matrix(1,0.0000017110713770307484,-0.0000017110713770307484,1,0.0002899169921875,-0.0003662109375)"
            opacity="1" style="display: block;">
            <g opacity="1" transform="matrix(1,0,0,1,0,0)">
                <g opacity="1" transform="matrix(1,0,0,1,211.17100524902344,89.07499694824219)">
                    <path fill="rgb(138,102,81)" fill-opacity="1"
                        d=" M5.809999942779541,-3.315000057220459 C5.809999942779541,-3.315000057220459 2.4189999103546143,3.315000057220459 2.4189999103546143,3.315000057220459 C2.4189999103546143,3.315000057220459 -5.809999942779541,0.8949999809265137 -5.809999942779541,0.8949999809265137 C-5.809999942779541,0.8949999809265137 5.809999942779541,-3.315000057220459 5.809999942779541,-3.315000057220459z">
                    </path>
                </g>
                <g opacity="1" transform="matrix(1,0,0,1,173.80999755859375,56.165000915527344)">
                    <path fill="rgb(115,77,95)" fill-opacity="1"
                        d=" M-9.390000343322754,4.425000190734863 C-9.390000343322754,4.425000190734863 -3.319999933242798,3.305000066757202 -3.319999933242798,3.305000066757202 C-3.319999933242798,3.305000066757202 0.6700000166893005,-1.6649999618530273 0.6700000166893005,-1.6649999618530273 C0.6700000166893005,-1.6649999618530273 9.390000343322754,-1.6649999618530273 9.390000343322754,-1.6649999618530273 C9.390000343322754,-1.6649999618530273 -2.2799999713897705,-4.425000190734863 -2.2799999713897705,-4.425000190734863 C-2.2799999713897705,-4.425000190734863 -9.390000343322754,4.425000190734863 -9.390000343322754,4.425000190734863z">
                    </path>
                </g>
                <g opacity="1" transform="matrix(1,0,0,1,210.3249969482422,43.06999969482422)">
                    <path fill="rgb(115,77,95)" fill-opacity="1"
                        d=" M-7.264999866485596,5.760000228881836 C-7.264999866485596,5.760000228881836 -2.5940001010894775,4.199999809265137 -2.5940001010894775,4.199999809265137 C-2.5940001010894775,4.199999809265137 0.5249999761581421,-3.1600000858306885 0.5249999761581421,-3.1600000858306885 C0.5249999761581421,-3.1600000858306885 7.264999866485596,-3.1600000858306885 7.264999866485596,-3.1600000858306885 C7.264999866485596,-3.1600000858306885 -1.7649999856948853,-5.760000228881836 -1.7649999856948853,-5.760000228881836 C-1.7649999856948853,-5.760000228881836 -7.264999866485596,5.760000228881836 -7.264999866485596,5.760000228881836z">
                    </path>
                </g>
                <g opacity="1" transform="matrix(1,0,0,1,0,0)">
                    <g opacity="1" transform="matrix(1,0,0,1,199.02000427246094,104.83499908447266)">
                        <path fill="rgb(88,65,100)" fill-opacity="1"
                            d=" M-11.3100004196167,3.825000047683716 C-11.3100004196167,3.825000047683716 0.7099999785423279,0.6050000190734863 0.7099999785423279,0.6050000190734863 C0.7099999785423279,0.6050000190734863 11.3100004196167,3.825000047683716 11.3100004196167,3.825000047683716 C11.3100004196167,3.825000047683716 5.010000228881836,-3.015000104904175 5.010000228881836,-3.015000104904175 C5.010000228881836,-3.015000104904175 0.9800000190734863,-1.815000057220459 0.9800000190734863,-1.815000057220459 C0.9800000190734863,-1.815000057220459 -1.1699999570846558,-3.825000047683716 -1.1699999570846558,-3.825000047683716 C-1.1699999570846558,-3.825000047683716 -11.3100004196167,3.825000047683716 -11.3100004196167,3.825000047683716z">
                        </path>
                    </g>
                    <g opacity="1" transform="matrix(1,0,0,1,197.4600067138672,108.12000274658203)">
                        <path fill="rgb(144,117,159)" fill-opacity="1"
                            d=" M-9.109999656677246,0.3700000047683716 C-9.109999656677246,0.3700000047683716 -2.559999942779541,2.680000066757202 -2.559999942779541,2.680000066757202 C-2.559999942779541,2.680000066757202 9.109999656677246,-0.6000000238418579 9.109999656677246,-0.6000000238418579 C9.109999656677246,-0.6000000238418579 2.2699999809265137,-2.680000066757202 2.2699999809265137,-2.680000066757202 C2.2699999809265137,-2.680000066757202 -9.109999656677246,0.3700000047683716 -9.109999656677246,0.3700000047683716z">
                        </path>
                    </g>
                </g>
                <g opacity="1" transform="matrix(1,0,0,1,218.58999633789062,75.1050033569336)">
                    <path fill="rgb(195,151,122)" fill-opacity="1"
                        d=" M7.550000190734863,-4.144999980926514 C7.550000190734863,-4.144999980926514 -4.21999979019165,4.144999980926514 -4.21999979019165,4.144999980926514 C-4.21999979019165,4.144999980926514 -7.550000190734863,-1.4249999523162842 -7.550000190734863,-1.4249999523162842 C-7.550000190734863,-1.4249999523162842 7.550000190734863,-4.144999980926514 7.550000190734863,-4.144999980926514z">
                    </path>
                </g>
                <g opacity="1" transform="matrix(1,0,0,1,188.625,83.43499755859375)">
                    <path fill="rgb(195,151,122)" fill-opacity="1"
                        d=" M-14.8149995803833,6.534999847412109 C-14.8149995803833,6.534999847412109 14.8149995803833,1.725000023841858 14.8149995803833,1.725000023841858 C14.8149995803833,1.725000023841858 14.664999961853027,-6.534999847412109 14.664999961853027,-6.534999847412109 C14.664999961853027,-6.534999847412109 -14.8149995803833,6.534999847412109 -14.8149995803833,6.534999847412109z">
                    </path>
                </g>
                <g opacity="1" transform="matrix(1,0,0,1,179.36500549316406,66.95999908447266)">
                    <path fill="rgb(195,151,122)" fill-opacity="1"
                        d=" M-12.46500015258789,3.9700000286102295 C-12.46500015258789,3.9700000286102295 12.46500015258789,3.7699999809265137 12.46500015258789,3.7699999809265137 C12.46500015258789,3.7699999809265137 9.395000457763672,-3.9700000286102295 9.395000457763672,-3.9700000286102295 C9.395000457763672,-3.9700000286102295 -12.46500015258789,3.9700000286102295 -12.46500015258789,3.9700000286102295z">
                    </path>
                </g>
                <g opacity="1" transform="matrix(1,0,0,1,215.34500122070312,57.02000045776367)">
                    <path fill="rgb(195,151,122)" fill-opacity="1"
                        d=" M5.014999866485596,-5.480000019073486 C5.014999866485596,-5.480000019073486 -1.8450000286102295,5.480000019073486 -1.8450000286102295,5.480000019073486 C-1.8450000286102295,5.480000019073486 -5.014999866485596,-1.9299999475479126 -5.014999866485596,-1.9299999475479126 C-5.014999866485596,-1.9299999475479126 5.014999866485596,-5.480000019073486 5.014999866485596,-5.480000019073486z">
                    </path>
                </g>
                <g opacity="1" transform="matrix(1,0,0,1,204.40499877929688,70.96499633789062)">
                    <path fill="rgb(232,201,182)" fill-opacity="1"
                        d=" M12.574999809265137,14.795000076293945 C12.574999809265137,14.795000076293945 0.9549999833106995,19.0049991607666 0.9549999833106995,19.0049991607666 C0.9549999833106995,19.0049991607666 -12.574999809265137,-14.805000305175781 -12.574999809265137,-14.805000305175781 C-12.574999809265137,-14.805000305175781 -0.9649999737739563,-19.0049991607666 -0.9649999737739563,-19.0049991607666 C-0.9649999737739563,-19.0049991607666 12.574999809265137,14.795000076293945 12.574999809265137,14.795000076293945z">
                    </path>
                </g>
                <g opacity="1" transform="matrix(1,0,0,1,141.02499389648438,82.11499786376953)">
                    <path fill="rgb(88,65,100)" fill-opacity="1"
                        d=" M-15.854999542236328,5.114999771118164 C-15.854999542236328,5.114999771118164 -19.844999313354492,14.324999809265137 -19.844999313354492,14.324999809265137 C-19.844999313354492,14.324999809265137 -23.395000457763672,2.3949999809265137 -23.395000457763672,2.3949999809265137 C-23.395000457763672,2.3949999809265137 18.815000534057617,-14.324999809265137 18.815000534057617,-14.324999809265137 C18.815000534057617,-14.324999809265137 23.395000457763672,-3.015000104904175 23.395000457763672,-3.015000104904175 C23.395000457763672,-3.015000104904175 -15.854999542236328,5.114999771118164 -15.854999542236328,5.114999771118164z">
                    </path>
                </g>
                <g opacity="1" transform="matrix(1,0,0,1,201.02999877929688,66.43499755859375)">
                    <path fill="rgb(88,65,100)" fill-opacity="1"
                        d=" M12.041000366210938,9.28499984741211 C12.041000366210938,9.28499984741211 41.21099853515625,-1.3250000476837158 41.21099853515625,-1.3250000476837158 C41.21099853515625,-1.3250000476837158 31.791000366210938,-25.114999771118164 31.791000366210938,-25.114999771118164 C31.791000366210938,-25.114999771118164 -41.209999084472656,1.3550000190734863 -41.209999084472656,1.3550000190734863 C-41.209999084472656,1.3550000190734863 -31.579999923706055,25.114999771118164 -31.579999923706055,25.114999771118164 C-31.579999923706055,25.114999771118164 0.2199999988079071,13.5649995803833 0.2199999988079071,13.5649995803833 C0.2199999988079071,13.5649995803833 -7.21999979019165,-5.215000152587891 -7.21999979019165,-5.215000152587891 C-7.21999979019165,-5.215000152587891 4.410999774932861,-9.494999885559082 4.410999774932861,-9.494999885559082 C4.410999774932861,-9.494999885559082 12.041000366210938,9.28499984741211 12.041000366210938,9.28499984741211z M-28.538999557495117,18.28499984741211 C-28.538999557495117,18.28499984741211 -34.130001068115234,4.494999885559082 -34.130001068115234,4.494999885559082 C-34.130001068115234,4.494999885559082 -12.270000457763672,-3.434999942779541 -12.270000457763672,-3.434999942779541 C-12.270000457763672,-3.434999942779541 -6.800000190734863,10.375 -6.800000190734863,10.375 C-6.800000190734863,10.375 -28.538999557495117,18.28499984741211 -28.538999557495117,18.28499984741211z M34.189998626708984,-4.434999942779541 C34.189998626708984,-4.434999942779541 15.069999694824219,2.4649999141693115 15.069999694824219,2.4649999141693115 C15.069999694824219,2.4649999141693115 9.470000267028809,-11.335000038146973 9.470000267028809,-11.335000038146973 C9.470000267028809,-11.335000038146973 28.719999313354492,-18.334999084472656 28.719999313354492,-18.334999084472656 C28.719999313354492,-18.334999084472656 34.189998626708984,-4.434999942779541 34.189998626708984,-4.434999942779541z">
                    </path>
                </g>
            </g>
        </g>

        <g transform="matrix(1,0.0000017110713770307484,-0.0000017110713770307484,1,0.0002899169921875,-0.0003662109375)"
            opacity="1" style="display: block;">
            <g opacity="1" transform="matrix(1,0,0,1,185.97000122070312,73.12999725341797)">
                <path fill="rgb(43,43,43)" fill-opacity="1"
                    d=" M0,-3.2699999809265137 C1.805999994277954,-3.2699999809265137 3.2699999809265137,-1.805999994277954 3.2699999809265137,0 C3.2699999809265137,1.805999994277954 1.805999994277954,3.2699999809265137 0,3.2699999809265137 C-1.805999994277954,3.2699999809265137 -3.2699999809265137,1.805999994277954 -3.2699999809265137,0 C-3.2699999809265137,-1.805999994277954 -1.805999994277954,-3.2699999809265137 0,-3.2699999809265137z">
                </path>
            </g>
            <g opacity="1" transform="matrix(1,0,0,1,221.96099853515625,59.810001373291016)">
                <path fill="rgb(43,43,43)" fill-opacity="1"
                    d=" M-0.0010000000474974513,-3.2699999809265137 C1.8049999475479126,-3.2699999809265137 3.2699999809265137,-1.805999994277954 3.2699999809265137,0 C3.2699999809265137,1.805999994277954 1.8049999475479126,3.2699999809265137 -0.0010000000474974513,3.2699999809265137 C-1.8070000410079956,3.2699999809265137 -3.2709999084472656,1.805999994277954 -3.2709999084472656,0 C-3.2709999084472656,-1.805999994277954 -1.8070000410079956,-3.2699999809265137 -0.0010000000474974513,-3.2699999809265137z">
                </path>
            </g>
        </g>

        <g transform="matrix(1,0,0,1,0,0)" opacity="1" style="display: block;">
            <g opacity="1" transform="matrix(1,0,0,1,0,0)">
                <g opacity="1" transform="matrix(1,0,0,1,188.5749969482422,205.0500030517578)">
                    <path fill="rgb(157,160,161)" fill-opacity="1"
                        d=" M-43.994998931884766,-22.610000610351562 C-43.994998931884766,-22.610000610351562 -23.665000915527344,22.610000610351562 -23.665000915527344,22.610000610351562 C-23.665000915527344,22.610000610351562 43.994998931884766,-11.079999923706055 43.994998931884766,-11.079999923706055 C43.994998931884766,-11.079999923706055 24.924999237060547,-16.8700008392334 24.924999237060547,-16.8700008392334 C24.924999237060547,-16.8700008392334 4.784999847412109,-16.219999313354492 4.784999847412109,-16.219999313354492 C4.784999847412109,-16.219999313354492 -43.994998931884766,-22.610000610351562 -43.994998931884766,-22.610000610351562z">
                    </path>
                </g>
                <g opacity="1" transform="matrix(1,0,0,1,212.9600067138672,164.34500122070312)">
                    <path fill="rgb(196,196,196)" fill-opacity="1"
                        d=" M19.600000381469727,29.625 C19.600000381469727,29.625 13.539999961853027,-20.934999465942383 13.539999961853027,-20.934999465942383 C13.539999961853027,-20.934999465942383 6.230999946594238,-29.625 6.230999946594238,-29.625 C6.230999946594238,-29.625 -2.628999948501587,-29.625 -2.628999948501587,-29.625 C-2.628999948501587,-29.625 -19.600000381469727,24.485000610351562 -19.600000381469727,24.485000610351562 C-19.600000381469727,24.485000610351562 19.600000381469727,29.625 19.600000381469727,29.625z">
                    </path>
                </g>
            </g>
        </g>
        <g transform="matrix(1,0,0,1,0,0)" opacity="1" style="display: block;">
            <g opacity="1" transform="matrix(1,0,0,1,0,0)">
                <g opacity="1" transform="matrix(1,0,0,1,224.64999389648438,126.16000366210938)">
                    <path fill="rgb(195,151,122)" fill-opacity="1"
                        d=" M-14.319999694824219,8.5600004196167 C-14.319999694824219,8.5600004196167 -6.46999979019165,-17.25 -6.46999979019165,-17.25 C-6.46999979019165,-17.25 7.539999961853027,-11.1899995803833 7.539999961853027,-11.1899995803833 C7.539999961853027,-11.1899995803833 14.319999694824219,0.25 14.319999694824219,0.25 C14.319999694824219,0.25 1.850000023841858,17.25 1.850000023841858,17.25 C1.850000023841858,17.25 -14.319999694824219,8.5600004196167 -14.319999694824219,8.5600004196167z">
                    </path>
                </g>
                <g opacity="1" transform="matrix(1,0,0,1,232.1999969482422,108.94499969482422)">
                    <path fill="rgb(195,151,122)" fill-opacity="1"
                        d=" M-14.020000457763672,-0.03500000014901161 C-14.020000457763672,-0.03500000014901161 4.630000114440918,-5.65500020980835 4.630000114440918,-5.65500020980835 C4.630000114440918,-5.65500020980835 14.020000457763672,1.4249999523162842 14.020000457763672,1.4249999523162842 C14.020000457763672,1.4249999523162842 2.549999952316284,5.65500020980835 2.549999952316284,5.65500020980835 C2.549999952316284,5.65500020980835 -14.020000457763672,-0.03500000014901161 -14.020000457763672,-0.03500000014901161z">
                    </path>
                </g>
                <g opacity="1" transform="matrix(1,0,0,1,233.09500122070312,117.66000366210938)">
                    <path fill="rgb(223,188,164)" fill-opacity="1"
                        d=" M-14.914999961853027,-8.75 C-14.914999961853027,-8.75 13.125,-7.289999961853027 13.125,-7.289999961853027 C13.125,-7.289999961853027 14.914999961853027,5.510000228881836 14.914999961853027,5.510000228881836 C14.914999961853027,5.510000228881836 5.875,8.75 5.875,8.75 C5.875,8.75 -14.914999961853027,-8.75 -14.914999961853027,-8.75z">
                    </path>
                </g>
            </g>
        </g>
    </g>
</svg>