<svg xmlns="http://www.w3.org/2000/svg" viewBox="0 0 400 400" width="100%" height="100%"
    preserveAspectRatio="xMidYMid meet">
    <defs>
        <clipPath id="__lottie_element_274">
            <rect width="400" height="400" x="0" y="0"></rect>
        </clipPath>
    </defs>
    <g clip-path="url(#__lottie_element_274)">
        <g transform="matrix(1,-0.0000014174415809975471,0.0000014174415809975471,1,110.55976867675781,-0.2498626708984375)"
            opacity="1" style="display: block;">
            <g opacity="1" transform="matrix(1,0,0,1,0,0)">
                <g opacity="1" transform="matrix(1,0,0,1,123.47000122070312,193.50999450683594)">
                    <path fill="rgb(80,169,170)" fill-opacity="1"
                        d=" M-22.25,-27.579999923706055 C-22.25,-27.579999923706055 -12,-22.979999542236328 -12,-22.979999542236328 C-12,-22.979999542236328 22.25,27.579999923706055 22.25,27.579999923706055 C22.25,27.579999923706055 -2.819999933242798,15.720000267028809 -2.819999933242798,15.720000267028809 C-2.819999933242798,15.720000267028809 -22.25,3.259999990463257 -22.25,3.259999990463257 C-22.25,3.259999990463257 -22.25,-27.579999923706055 -22.25,-27.579999923706055z">
                    </path>
                </g>
            </g>
        </g>
        <g transform="matrix(1,0.000001310782636210206,-0.000001310782636210206,1,110.56023406982422,-0.25006103515625)"
            opacity="1" style="display: block;">
            <g opacity="1" transform="matrix(1,0,0,1,0,0)">
                <g opacity="1" transform="matrix(1,0,0,1,38.31999969482422,206.3249969482422)">
                    <path fill="rgb(80,169,170)" fill-opacity="1"
                        d=" M9.329999923706055,-32.165000915527344 C9.329999923706055,-32.165000915527344 -21,32.165000915527344 -21,32.165000915527344 C-21,32.165000915527344 4.340000152587891,17.944000244140625 4.340000152587891,17.944000244140625 C4.340000152587891,17.944000244140625 21,9.765000343322754 21,9.765000343322754 C21,9.765000343322754 9.329999923706055,-32.165000915527344 9.329999923706055,-32.165000915527344z">
                    </path>
                </g>
            </g>
        </g>
        <g transform="matrix(1,0,0,1,110.56000518798828,-0.25)" opacity="1" style="display: block;">
            <g opacity="1" transform="matrix(1,0,0,1,0,0)">
                <g opacity="1" transform="matrix(1,0,0,1,76.80000305175781,216.09500122070312)">
                    <path fill="rgb(113,202,204)" fill-opacity="1"
                        d=" M24.42099952697754,-50.165000915527344 C24.42099952697754,-50.165000915527344 12.951000213623047,-20.875 12.951000213623047,-20.875 C12.951000213623047,-20.875 -3.180000066757202,-13.975000381469727 -3.180000066757202,-13.975000381469727 C-3.180000066757202,-13.975000381469727 13.300999641418457,-26.354999542236328 13.300999641418457,-26.354999542236328 C13.300999641418457,-26.354999542236328 -8.15999984741211,-52.584999084472656 -8.15999984741211,-52.584999084472656 C-8.15999984741211,-52.584999084472656 -29.149999618530273,-41.935001373291016 -29.149999618530273,-41.935001373291016 C-29.149999618530273,-41.935001373291016 -22.030000686645508,-2.174999952316284 -22.030000686645508,-2.174999952316284 C-22.030000686645508,-2.174999952316284 -31.06999969482422,24.895000457763672 -31.06999969482422,24.895000457763672 C-31.06999969482422,24.895000457763672 -43.85100173950195,52.584999084472656 -43.85100173950195,52.584999084472656 C-43.85100173950195,52.584999084472656 -11.710000038146973,52.584999084472656 -11.710000038146973,52.584999084472656 C-11.710000038146973,52.584999084472656 24.42099952697754,46.125 24.42099952697754,46.125 C24.42099952697754,46.125 34.10100173950195,32.92399978637695 34.10100173950195,32.92399978637695 C34.10100173950195,32.92399978637695 43.85100173950195,-6.864999771118164 43.85100173950195,-6.864999771118164 C43.85100173950195,-6.864999771118164 24.42099952697754,-50.165000915527344 24.42099952697754,-50.165000915527344z">
                    </path>
                </g>
                <g opacity="1" transform="matrix(1,0,0,1,83.19000244140625,227.75)">
                    <path fill="rgb(54,147,149)" fill-opacity="1"
                        d=" M-28.420000076293945,-13.831000328063965 C-28.420000076293945,-13.831000328063965 -37.459999084472656,13.239999771118164 -37.459999084472656,13.239999771118164 C-37.459999084472656,13.239999771118164 -6.389999866485596,13.09000015258789 -6.389999866485596,13.09000015258789 C-6.389999866485596,13.09000015258789 27.43000030517578,18.520000457763672 27.43000030517578,18.520000457763672 C27.43000030517578,18.520000457763672 36.7599983215332,-8.861000061035156 36.7599983215332,-8.861000061035156 C36.7599983215332,-8.861000061035156 37.459999084472656,-18.520000457763672 37.459999084472656,-18.520000457763672 C37.459999084472656,-18.520000457763672 -28.420000076293945,-13.831000328063965 -28.420000076293945,-13.831000328063965z">
                    </path>
                </g>
                <g opacity="1" transform="matrix(1,0,0,1,91.08499908447266,185.96499633789062)">
                    <path fill="rgb(255,255,255)" fill-opacity="1"
                        d=" M10.13599967956543,-20.03499984741211 C10.13599967956543,-20.03499984741211 -25.9950008392334,-20.895000457763672 -25.9950008392334,-20.895000457763672 C-25.9950008392334,-20.895000457763672 -25.9950008392334,20.895000457763672 -25.9950008392334,20.895000457763672 C-25.9950008392334,20.895000457763672 -1.3350000381469727,9.255000114440918 -1.3350000381469727,9.255000114440918 C-1.3350000381469727,9.255000114440918 25.9950008392334,15.303999900817871 25.9950008392334,15.303999900817871 C25.9950008392334,15.303999900817871 10.13599967956543,-20.03499984741211 10.13599967956543,-20.03499984741211z">
                    </path>
                </g>
            </g>
            <g opacity="1" transform="matrix(1,0,0,1,0,0)">
                <g opacity="0.2" transform="matrix(1,0,0,1,76.83000183105469,251.52999877929688)">
                    <path fill="rgb(43,43,43)" fill-opacity="1"
                        d=" M-34.06999969482422,-4.110000133514404 C-34.06999969482422,-4.110000133514404 -31.100000381469727,-10.539999961853027 -31.100000381469727,-10.539999961853027 C-31.100000381469727,-10.539999961853027 9.079999923706055,-10.6899995803833 9.079999923706055,-10.6899995803833 C9.079999923706055,-10.6899995803833 27.32200050354004,-4.718999862670898 27.32200050354004,-4.718999862670898 C27.32200050354004,-4.718999862670898 34.06999969482422,-2.509999990463257 34.06999969482422,-2.509999990463257 C34.06999969482422,-2.509999990463257 24.389999389648438,10.6899995803833 24.389999389648438,10.6899995803833 C24.389999389648438,10.6899995803833 -34.06999969482422,-4.110000133514404 -34.06999969482422,-4.110000133514404z">
                    </path>
                </g>
            </g>
        </g>
        <g transform="matrix(1,0,0,1,110.56000518798828,-0.25)" opacity="1" style="display: block;">
            <g opacity="1" transform="matrix(1,0,0,1,0,0)">
                <g opacity="0.1" transform="matrix(1,0,0,1,87.31999969482422,388.7799987792969)">
                    <path fill="rgb(0,0,0)" fill-opacity="1"
                        d=" M-87.31999969482422,3.799999952316284 C-87.31999969482422,3.799999952316284 7.769999980926514,-11.470999717712402 7.769999980926514,-11.470999717712402 C7.769999980926514,-11.470999717712402 87.31999969482422,2.8499999046325684 87.31999969482422,2.8499999046325684 C87.31999969482422,2.8499999046325684 14.138999938964844,11.470000267028809 14.138999938964844,11.470000267028809 C14.138999938964844,11.470000267028809 -87.31999969482422,3.799999952316284 -87.31999969482422,3.799999952316284z">
                    </path>
                </g>
                <g opacity="1" transform="matrix(1,0,0,1,108.79499816894531,354.8800048828125)">
                    <path fill="rgb(195,151,122)" fill-opacity="1"
                        d=" M-13.744999885559082,-13.380000114440918 C-13.744999885559082,-13.380000114440918 1.5049999952316284,11.760000228881836 1.5049999952316284,11.760000228881836 C1.5049999952316284,11.760000228881836 9.854999542236328,13.380000114440918 9.854999542236328,13.380000114440918 C9.854999542236328,13.380000114440918 13.744999885559082,9.699999809265137 13.744999885559082,9.699999809265137 C13.744999885559082,9.699999809265137 11.854999542236328,-10.699999809265137 11.854999542236328,-10.699999809265137 C11.854999542236328,-10.699999809265137 -13.744999885559082,-13.380000114440918 -13.744999885559082,-13.380000114440918z">
                    </path>
                </g>
                <g opacity="1" transform="matrix(1,0,0,1,67.5999984741211,354.6000061035156)">
                    <path fill="rgb(195,151,122)" fill-opacity="1"
                        d=" M12.510000228881836,-14.590999603271484 C12.510000228881836,-14.590999603271484 9.880000114440918,13.680000305175781 9.880000114440918,13.680000305175781 C9.880000114440918,13.680000305175781 -0.6800000071525574,17.159000396728516 -0.6800000071525574,17.159000396728516 C-0.6800000071525574,17.159000396728516 -3.0399999618530273,12.409000396728516 -3.0399999618530273,12.409000396728516 C-3.0399999618530273,12.409000396728516 -12.510000228881836,-17.15999984741211 -12.510000228881836,-17.15999984741211 C-12.510000228881836,-17.15999984741211 12.510000228881836,-14.590999603271484 12.510000228881836,-14.590999603271484z">
                    </path>
                </g>
                <g opacity="1" transform="matrix(1,0,0,1,121.7750015258789,376.0899963378906)">
                    <path fill="rgb(39,120,139)" fill-opacity="1"
                        d=" M0.7649999856948853,-11.510000228881836 C0.7649999856948853,-11.510000228881836 12.326000213623047,-0.8399999737739563 12.326000213623047,-0.8399999737739563 C12.326000213623047,-0.8399999737739563 1.2039999961853027,11.510000228881836 1.2039999961853027,11.510000228881836 C1.2039999961853027,11.510000228881836 -12.326000213623047,9.630000114440918 -12.326000213623047,9.630000114440918 C-12.326000213623047,9.630000114440918 -11.475000381469727,-9.449999809265137 -11.475000381469727,-9.449999809265137 C-11.475000381469727,-9.449999809265137 0.7649999856948853,-11.510000228881836 0.7649999856948853,-11.510000228881836z">
                    </path>
                </g>
                <g opacity="1" transform="matrix(1,0,0,1,71.54499816894531,379.1549987792969)">
                    <path fill="rgb(39,120,139)" fill-opacity="1"
                        d=" M5.934999942779541,-10.875 C5.934999942779541,-10.875 13.845000267028809,10.064000129699707 13.845000267028809,10.064000129699707 C13.845000267028809,10.064000129699707 -0.06499999761581421,12.145999908447266 -0.06499999761581421,12.145999908447266 C-0.06499999761581421,12.145999908447266 -13.845000267028809,10.064000129699707 -13.845000267028809,10.064000129699707 C-13.845000267028809,10.064000129699707 -6.985000133514404,-12.145999908447266 -6.985000133514404,-12.145999908447266 C-6.985000133514404,-12.145999908447266 5.934999942779541,-10.875 5.934999942779541,-10.875z">
                    </path>
                </g>
                <g opacity="1" transform="matrix(1,0,0,1,107.8499984741211,344.9549865722656)">
                    <path fill="rgb(138,102,81)" fill-opacity="1"
                        d=" M12.800000190734863,-0.7749999761581421 C12.800000190734863,-0.7749999761581421 -7.869999885559082,4.673999786376953 -7.869999885559082,4.673999786376953 C-7.869999885559082,4.673999786376953 -12.800000190734863,-3.4549999237060547 -12.800000190734863,-3.4549999237060547 C-12.800000190734863,-3.4549999237060547 0,-4.673999786376953 0,-4.673999786376953 C0,-4.673999786376953 12.800000190734863,-0.7749999761581421 12.800000190734863,-0.7749999761581421z">
                    </path>
                </g>
                <g opacity="1" transform="matrix(1,0,0,1,67.5999984741211,342.3599853515625)">
                    <path fill="rgb(138,102,81)" fill-opacity="1"
                        d=" M-12.510000228881836,-4.920000076293945 C-12.510000228881836,-4.920000076293945 11.84000015258789,4.920000076293945 11.84000015258789,4.920000076293945 C11.84000015258789,4.920000076293945 12.510000228881836,-2.3510000705718994 12.510000228881836,-2.3510000705718994 C12.510000228881836,-2.3510000705718994 0.5400000214576721,-4.920000076293945 0.5400000214576721,-4.920000076293945 C0.5400000214576721,-4.920000076293945 -12.510000228881836,-4.920000076293945 -12.510000228881836,-4.920000076293945z">
                    </path>
                </g>
                <g opacity="1" transform="matrix(1,0,0,1,67.08499908447266,293.82501220703125)">
                    <path fill="rgb(54,147,149)" fill-opacity="1"
                        d=" M34.13600158691406,-31.604999542236328 C34.13600158691406,-31.604999542236328 15.425999641418457,2.1559998989105225 15.425999641418457,2.1559998989105225 C15.425999641418457,2.1559998989105225 -15.925000190734863,31.604999542236328 -15.925000190734863,31.604999542236328 C-15.925000190734863,31.604999542236328 -34.13600158691406,-25.145000457763672 -34.13600158691406,-25.145000457763672 C-34.13600158691406,-25.145000457763672 -7.581999778747559,-27.658000946044922 -7.581999778747559,-27.658000946044922 C-7.581999778747559,-27.658000946044922 34.13600158691406,-31.604999542236328 34.13600158691406,-31.604999542236328z">
                    </path>
                </g>
                <g opacity="1" transform="matrix(1,0,0,1,84.6449966430664,301.25)">
                    <path fill="rgb(80,169,170)" fill-opacity="1"
                        d=" M16.575000762939453,-39.029998779296875 C16.575000762939453,-39.029998779296875 24.643999099731445,-25.479999542236328 24.643999099731445,-25.479999542236328 C24.643999099731445,-25.479999542236328 33.48500061035156,17.388999938964844 33.48500061035156,17.388999938964844 C33.48500061035156,17.388999938964844 33.48500061035156,39.029998779296875 33.48500061035156,39.029998779296875 C33.48500061035156,39.029998779296875 -29.55500030517578,36.189998626708984 -29.55500030517578,36.189998626708984 C-29.55500030517578,36.189998626708984 -33.48500061035156,24.18000030517578 -33.48500061035156,24.18000030517578 C-33.48500061035156,24.18000030517578 16.575000762939453,-39.029998779296875 16.575000762939453,-39.029998779296875z">
                    </path>
                </g>
                <g opacity="1" transform="matrix(1,0,0,1,87.87000274658203,331.40899658203125)">
                    <path fill="rgb(54,147,149)" fill-opacity="1"
                        d=" M-32.779998779296875,6.031000137329102 C-32.779998779296875,6.031000137329102 -1.9609999656677246,-3.1600000858306885 -1.9609999656677246,-3.1600000858306885 C-1.9609999656677246,-3.1600000858306885 19.003000259399414,-9.411999702453613 19.003000259399414,-9.411999702453613 C19.003000259399414,-9.411999702453613 30.26099967956543,-12.770000457763672 30.26099967956543,-12.770000457763672 C30.26099967956543,-12.770000457763672 32.779998779296875,12.770000457763672 32.779998779296875,12.770000457763672 C32.779998779296875,12.770000457763672 -32.779998779296875,6.031000137329102 -32.779998779296875,6.031000137329102z">
                    </path>
                </g>
                <g opacity="1" transform="matrix(1,0,0,1,109.67500305175781,283.8299865722656)">
                    <path fill="rgb(54,147,149)" fill-opacity="1"
                        d=" M-8.454999923706055,-21.610000610351562 C-8.454999923706055,-21.610000610351562 6.001999855041504,26.625 6.001999855041504,26.625 C6.001999855041504,26.625 8.454999923706055,34.810001373291016 8.454999923706055,34.810001373291016 C8.454999923706055,34.810001373291016 1.225000023841858,-34.810001373291016 1.225000023841858,-34.810001373291016 C1.225000023841858,-34.810001373291016 -8.454999923706055,-21.610000610351562 -8.454999923706055,-21.610000610351562z">
                    </path>
                </g>
                <g opacity="1" transform="matrix(1,0,0,1,129.22999572753906,382.07501220703125)">
                    <path fill="rgb(57,159,185)" fill-opacity="1"
                        d=" M4.869999885559082,-6.824999809265137 C4.869999885559082,-6.824999809265137 -10.029999732971191,3.6449999809265137 -10.029999732971191,3.6449999809265137 C-10.029999732971191,3.6449999809265137 -19.780000686645508,3.6449999809265137 -19.780000686645508,3.6449999809265137 C-19.780000686645508,3.6449999809265137 -19.780000686645508,6.824999809265137 -19.780000686645508,6.824999809265137 C-19.780000686645508,6.824999809265137 19.780000686645508,6.824999809265137 19.780000686645508,6.824999809265137 C19.780000686645508,6.824999809265137 19.780000686645508,-0.35499998927116394 19.780000686645508,-0.35499998927116394 C19.780000686645508,-0.35499998927116394 4.869999885559082,-6.824999809265137 4.869999885559082,-6.824999809265137z">
                    </path>
                </g>
                <g opacity="1" transform="matrix(1,0,0,1,71.54499816894531,386.82000732421875)">
                    <path fill="rgb(57,159,185)" fill-opacity="1"
                        d=" M5.195000171661377,-5.690000057220459 C5.195000171661377,-5.690000057220459 -5.065000057220459,-5.690000057220459 -5.065000057220459,-5.690000057220459 C-5.065000057220459,-5.690000057220459 -13.845000267028809,2.4000000953674316 -13.845000267028809,2.4000000953674316 C-13.845000267028809,2.4000000953674316 -13.845000267028809,5.690000057220459 -13.845000267028809,5.690000057220459 C-13.845000267028809,5.690000057220459 13.845000267028809,5.690000057220459 13.845000267028809,5.690000057220459 C13.845000267028809,5.690000057220459 13.845000267028809,2.4000000953674316 13.845000267028809,2.4000000953674316 C13.845000267028809,2.4000000953674316 5.195000171661377,-5.690000057220459 5.195000171661377,-5.690000057220459z">
                    </path>
                </g>
            </g>
        </g>
        <g transform="matrix(1,0.000003720433369380771,-0.000003720433369380771,1,110.56080627441406,-0.2501068115234375)"
            opacity="1" style="display: block;">
            <g opacity="1" transform="matrix(1,0,0,1,51.6150016784668,229.14500427246094)">
                <path fill="rgb(223,188,164)" fill-opacity="1"
                    d=" M3.1549999713897705,-15.225000381469727 C3.1549999713897705,-15.225000381469727 32.494998931884766,3.1649999618530273 32.494998931884766,3.1649999618530273 C32.494998931884766,3.1649999618530273 34.29499816894531,8.824999809265137 34.29499816894531,8.824999809265137 C34.29499816894531,8.824999809265137 32.494998931884766,15.225000381469727 32.494998931884766,15.225000381469727 C32.494998931884766,15.225000381469727 -34.29499816894531,9.345000267028809 -34.29499816894531,9.345000267028809 C-34.29499816894531,9.345000267028809 3.1549999713897705,-15.225000381469727 3.1549999713897705,-15.225000381469727z">
                </path>
            </g>
        </g>
        <g transform="matrix(1,0,0,1,110.56000518798828,-0.25)" opacity="1" style="display: block;">
            <g opacity="1" transform="matrix(1,0,0,1,0,0)">
                <g opacity="1" transform="matrix(1,0,0,1,149.4149932861328,77.29499816894531)">
                    <path fill="rgb(79,82,82)" fill-opacity="1"
                        d=" M-11.03499984741211,-18.795000076293945 C-11.03499984741211,-18.795000076293945 11.03499984741211,-4.724999904632568 11.03499984741211,-4.724999904632568 C11.03499984741211,-4.724999904632568 -6.335999965667725,18.795000076293945 -6.335999965667725,18.795000076293945 C-6.335999965667725,18.795000076293945 -11.03499984741211,0.004999999888241291 -11.03499984741211,0.004999999888241291 C-11.03499984741211,0.004999999888241291 -11.03499984741211,-18.795000076293945 -11.03499984741211,-18.795000076293945z">
                    </path>
                </g>
                <g opacity="1" transform="matrix(1,0,0,1,59.845001220703125,29.375)">
                    <path fill="rgb(113,202,204)" fill-opacity="1"
                        d=" M33.255001068115234,-29.125 C33.255001068115234,-29.125 -40.724998474121094,3.8350000381469727 -40.724998474121094,3.8350000381469727 C-40.724998474121094,3.8350000381469727 -30.19499969482422,22.434999465942383 -30.19499969482422,22.434999465942383 C-30.19499969482422,22.434999465942383 -21.475000381469727,29.125 -21.475000381469727,29.125 C-21.475000381469727,29.125 7.954999923706055,23.434999465942383 7.954999923706055,23.434999465942383 C7.954999923706055,23.434999465942383 40.724998474121094,5.824999809265137 40.724998474121094,5.824999809265137 C40.724998474121094,5.824999809265137 39.724998474121094,-9.46500015258789 39.724998474121094,-9.46500015258789 C39.724998474121094,-9.46500015258789 33.255001068115234,-29.125 33.255001068115234,-29.125z">
                    </path>
                </g>
                <g opacity="1" transform="matrix(1,0,0,1,118.74500274658203,29.375)">
                    <path fill="rgb(139,223,220)" fill-opacity="1"
                        d=" M-18.174999237060547,5.824999809265137 C-18.174999237060547,5.824999809265137 -2.2950000762939453,19.854999542236328 -2.2950000762939453,19.854999542236328 C-2.2950000762939453,19.854999542236328 19.635000228881836,29.125 19.635000228881836,29.125 C19.635000228881836,29.125 25.645000457763672,-7.744999885559082 25.645000457763672,-7.744999885559082 C25.645000457763672,-7.744999885559082 -25.645000457763672,-29.125 -25.645000457763672,-29.125 C-25.645000457763672,-29.125 -18.174999237060547,5.824999809265137 -18.174999237060547,5.824999809265137z">
                    </path>
                </g>
                <g opacity="1" transform="matrix(1,0,0,1,28.7450008392334,55.255001068115234)">
                    <path fill="rgb(54,147,149)" fill-opacity="1"
                        d=" M-9.625,-22.045000076293945 C-9.625,-22.045000076293945 -5.114999771118164,22.045000076293945 -5.114999771118164,22.045000076293945 C-5.114999771118164,22.045000076293945 5.09499979019165,13.274999618530273 5.09499979019165,13.274999618530273 C5.09499979019165,13.274999618530273 9.625,3.244999885559082 9.625,3.244999885559082 C9.625,3.244999885559082 -9.625,-22.045000076293945 -9.625,-22.045000076293945z">
                    </path>
                </g>
                <g opacity="1" transform="matrix(1,0,0,1,92.86499786376953,18.875)">
                    <path fill="rgb(39,120,139)" fill-opacity="1"
                        d=" M1.7549999952316284,-11.53499984741211 C1.7549999952316284,-11.53499984741211 -1.2059999704360962,-10.335000038146973 -1.2059999704360962,-10.335000038146973 C-1.2059999704360962,-10.335000038146973 0.3840000033378601,-1.875 0.3840000033378601,-1.875 C0.3840000033378601,-1.875 -6.703999996185303,0.9750000238418579 -6.703999996185303,0.9750000238418579 C-6.703999996185303,0.9750000238418579 -5.636000156402588,6.585000038146973 -5.636000156402588,6.585000038146973 C-5.636000156402588,6.585000038146973 1.7339999675750732,3.7850000858306885 1.7339999675750732,3.7850000858306885 C1.7339999675750732,3.7850000858306885 3.4140000343322754,11.53499984741211 3.4140000343322754,11.53499984741211 C3.4140000343322754,11.53499984741211 6.453999996185303,10.505000114440918 6.453999996185303,10.505000114440918 C6.453999996185303,10.505000114440918 6.703999996185303,1.034999966621399 6.703999996185303,1.034999966621399 C6.703999996185303,1.034999966621399 1.7549999952316284,-11.53499984741211 1.7549999952316284,-11.53499984741211z">
                    </path>
                </g>
                <g opacity="1" transform="matrix(1,0,0,1,100.81500244140625,18.889999389648438)">
                    <path fill="rgb(48,143,166)" fill-opacity="1"
                        d=" M-6.195000171661377,-11.550000190734863 C-6.195000171661377,-11.550000190734863 -2.7060000896453857,-9.84000015258789 -2.7060000896453857,-9.84000015258789 C-2.7060000896453857,-9.84000015258789 -1.024999976158142,-2.619999885559082 -1.024999976158142,-2.619999885559082 C-1.024999976158142,-2.619999885559082 6.195000171661377,0.8500000238418579 6.195000171661377,0.8500000238418579 C6.195000171661377,0.8500000238418579 6.093999862670898,5.889999866485596 6.093999862670898,5.889999866485596 C6.093999862670898,5.889999866485596 0.18400000035762787,3.25 0.18400000035762787,3.25 C0.18400000035762787,3.25 1.815000057220459,11.550000190734863 1.815000057220459,11.550000190734863 C1.815000057220459,11.550000190734863 -1.4950000047683716,10.489999771118164 -1.4950000047683716,10.489999771118164 C-1.4950000047683716,10.489999771118164 -6.195000171661377,-11.550000190734863 -6.195000171661377,-11.550000190734863z">
                    </path>
                </g>
                <g opacity="1" transform="matrix(1,0,0,1,89.99500274658203,126.86000061035156)">
                    <path fill="rgb(223,188,164)" fill-opacity="1"
                        d=" M48.3849983215332,-68.36000061035156 C48.3849983215332,-68.36000061035156 59.35499954223633,19.450000762939453 59.35499954223633,19.450000762939453 C59.35499954223633,19.450000762939453 15.96399974822998,26.420000076293945 15.96399974822998,26.420000076293945 C15.96399974822998,26.420000076293945 -0.24500000476837158,68.36000061035156 -0.24500000476837158,68.36000061035156 C-0.24500000476837158,68.36000061035156 -35.00600051879883,19.530000686645508 -35.00600051879883,19.530000686645508 C-35.00600051879883,19.530000686645508 -59.35499954223633,-3.9100000858306885 -59.35499954223633,-3.9100000858306885 C-59.35499954223633,-3.9100000858306885 -42.67599868774414,-13.079999923706055 -42.67599868774414,-13.079999923706055 C-42.67599868774414,-13.079999923706055 -38.38600158691406,-8.25 -38.38600158691406,-8.25 C-38.38600158691406,-8.25 -22.434999465942383,-47.84000015258789 -22.434999465942383,-47.84000015258789 C-22.434999465942383,-47.84000015258789 -8.114999771118164,-56.45000076293945 -8.114999771118164,-56.45000076293945 C-8.114999771118164,-56.45000076293945 9.574000358581543,-64.31999969482422 9.574000358581543,-64.31999969482422 C9.574000358581543,-64.31999969482422 48.3849983215332,-68.36000061035156 48.3849983215332,-68.36000061035156z">
                    </path>
                </g>
                <g opacity="1" transform="matrix(1,0,0,1,66.0199966430664,137.1199951171875)">
                    <path fill="rgb(195,151,122)" fill-opacity="1"
                        d=" M1.5410000085830688,-58.099998474121094 C1.5410000085830688,-58.099998474121094 12.291000366210938,21.280000686645508 12.291000366210938,21.280000686645508 C12.291000366210938,21.280000686645508 39.93899917602539,16.15999984741211 39.93899917602539,16.15999984741211 C39.93899917602539,16.15999984741211 31.250999450683594,24.43000030517578 31.250999450683594,24.43000030517578 C31.250999450683594,24.43000030517578 33.55099868774414,32.70000076293945 33.55099868774414,32.70000076293945 C33.55099868774414,32.70000076293945 23.729999542236328,58.099998474121094 23.729999542236328,58.099998474121094 C23.729999542236328,58.099998474121094 -18.999000549316406,5.699999809265137 -18.999000549316406,5.699999809265137 C-18.999000549316406,5.699999809265137 -22.069000244140625,-1.100000023841858 -22.069000244140625,-1.100000023841858 C-22.069000244140625,-1.100000023841858 -26.538999557495117,-3.5399999618530273 -26.538999557495117,-3.5399999618530273 C-26.538999557495117,-3.5399999618530273 -39.93899917602539,-19.979999542236328 -39.93899917602539,-19.979999542236328 C-39.93899917602539,-19.979999542236328 -23.259000778198242,-34.099998474121094 -23.259000778198242,-34.099998474121094 C-23.259000778198242,-34.099998474121094 -15.579000473022461,-16.770000457763672 -15.579000473022461,-16.770000457763672 C-15.579000473022461,-16.770000457763672 -9.89900016784668,-33.099998474121094 -9.89900016784668,-33.099998474121094 C-9.89900016784668,-33.099998474121094 1.5410000085830688,-58.099998474121094 1.5410000085830688,-58.099998474121094z">
                    </path>
                </g>
                <g opacity="1" transform="matrix(1,0,0,1,107.69999694824219,97.61499786376953)">
                    <path fill="rgb(195,151,122)" fill-opacity="1"
                        d=" M23.40999984741211,-16.184999465942383 C23.40999984741211,-16.184999465942383 7.400000095367432,5.894999980926514 7.400000095367432,5.894999980926514 C7.400000095367432,5.894999980926514 -0.33000001311302185,16.184999465942383 -0.33000001311302185,16.184999465942383 C-0.33000001311302185,16.184999465942383 -23.40999984741211,-8.664999961853027 -23.40999984741211,-8.664999961853027 C-23.40999984741211,-8.664999961853027 23.40999984741211,-16.184999465942383 23.40999984741211,-16.184999465942383z">
                    </path>
                </g>
                <g opacity="1" transform="matrix(1,0,0,1,109.87999725341797,99.08499908447266)">
                    <path fill="rgb(232,201,182)" fill-opacity="1"
                        d=" M-6.570000171661377,-13.255000114440918 C-6.570000171661377,-13.255000114440918 -2.509999990463257,14.71500015258789 -2.509999990463257,14.71500015258789 C-2.509999990463257,14.71500015258789 6.570000171661377,13.46500015258789 6.570000171661377,13.46500015258789 C6.570000171661377,13.46500015258789 2.3399999141693115,-14.71500015258789 2.3399999141693115,-14.71500015258789 C2.3399999141693115,-14.71500015258789 -6.570000171661377,-13.255000114440918 -6.570000171661377,-13.255000114440918z">
                    </path>
                </g>
                <g opacity="1" transform="matrix(1,0,0,1,111.91000366210938,115.58000183105469)">
                    <path fill="rgb(138,102,81)" fill-opacity="1"
                        d=" M4.539999961853027,-3.0299999713897705 C4.539999961853027,-3.0299999713897705 0.5899999737739563,3.0299999713897705 0.5899999737739563,3.0299999713897705 C0.5899999737739563,3.0299999713897705 -4.539999961853027,-1.7799999713897705 -4.539999961853027,-1.7799999713897705 C-4.539999961853027,-1.7799999713897705 4.539999961853027,-3.0299999713897705 4.539999961853027,-3.0299999713897705z">
                    </path>
                </g>
                <g opacity="1" transform="matrix(1,0,0,1,88,161.5500030517578)">
                    <path fill="rgb(138,102,81)" fill-opacity="1"
                        d=" M17.959999084472656,-8.270000457763672 C17.959999084472656,-8.270000457763672 11.569000244140625,8.270000457763672 11.569000244140625,8.270000457763672 C11.569000244140625,8.270000457763672 -17.959999084472656,-3.069999933242798 -17.959999084472656,-3.069999933242798 C-17.959999084472656,-3.069999933242798 17.959999084472656,-8.270000457763672 17.959999084472656,-8.270000457763672z">
                    </path>
                </g>
                <g opacity="1" transform="matrix(1,0,0,1,44.845001220703125,134.84500122070312)">
                    <path fill="rgb(138,102,81)" fill-opacity="1"
                        d=" M5.355000019073486,-7.985000133514404 C5.355000019073486,-7.985000133514404 2.184999942779541,7.985000133514404 2.184999942779541,7.985000133514404 C2.184999942779541,7.985000133514404 -5.355000019073486,-1.2549999952316284 -5.355000019073486,-1.2549999952316284 C-5.355000019073486,-1.2549999952316284 5.355000019073486,-7.985000133514404 5.355000019073486,-7.985000133514404z">
                    </path>
                </g>
                <g opacity="1" transform="matrix(1,0,0,1,39.82500076293945,119.08000183105469)">
                    <path fill="rgb(138,102,81)" fill-opacity="1"
                        d=" M6.875,5.090000152587891 C6.875,5.090000152587891 0.9950000047683716,-5.090000152587891 0.9950000047683716,-5.090000152587891 C0.9950000047683716,-5.090000152587891 -6.875,-0.4699999988079071 -6.875,-0.4699999988079071 C-6.875,-0.4699999988079071 6.875,5.090000152587891 6.875,5.090000152587891z">
                    </path>
                </g>
                <g opacity="1" transform="matrix(1,0,0,1,55.619998931884766,65.54499816894531)">
                    <path fill="rgb(79,82,82)" fill-opacity="1"
                        d=" M41.650001525878906,4.864999771118164 C41.650001525878906,4.864999771118164 46.790000915527344,-12.734999656677246 46.790000915527344,-12.734999656677246 C46.790000915527344,-12.734999656677246 44.95000076293945,-30.344999313354492 44.95000076293945,-30.344999313354492 C44.95000076293945,-30.344999313354492 -17.25,-7.045000076293945 -17.25,-7.045000076293945 C-17.25,-7.045000076293945 -46.790000915527344,30.344999313354492 -46.790000915527344,30.344999313354492 C-46.790000915527344,30.344999313354492 -16.93000030517578,23.405000686645508 -16.93000030517578,23.405000686645508 C-16.93000030517578,23.405000686645508 11.9399995803833,13.475000381469727 11.9399995803833,13.475000381469727 C11.9399995803833,13.475000381469727 24.84000015258789,9.734999656677246 24.84000015258789,9.734999656677246 C24.84000015258789,9.734999656677246 41.650001525878906,4.864999771118164 41.650001525878906,4.864999771118164z">
                    </path>
                </g>
                <g opacity="1" transform="matrix(1,0,0,1,38.19499969482422,100.68499755859375)">
                    <path fill="rgb(43,43,43)" fill-opacity="1"
                        d=" M29.364999771118164,-21.665000915527344 C29.364999771118164,-21.665000915527344 13.244999885559082,21.665000915527344 13.244999885559082,21.665000915527344 C13.244999885559082,21.665000915527344 4.565000057220459,7.284999847412109 4.565000057220459,7.284999847412109 C4.565000057220459,7.284999847412109 -12.114999771118164,16.454999923706055 -12.114999771118164,16.454999923706055 C-12.114999771118164,16.454999923706055 -29.364999771118164,-4.795000076293945 -29.364999771118164,-4.795000076293945 C-29.364999771118164,-4.795000076293945 29.364999771118164,-21.665000915527344 29.364999771118164,-21.665000915527344z">
                    </path>
                </g>
                <g opacity="1" transform="matrix(1,0,0,1,117.82499694824219,52.80500030517578)">
                    <path fill="rgb(110,112,115)" fill-opacity="1"
                        d=" M-17.2549991607666,-17.604999542236328 C-17.2549991607666,-17.604999542236328 20.55500030517578,5.695000171661377 20.55500030517578,5.695000171661377 C20.55500030517578,5.695000171661377 -20.55500030517578,17.604999542236328 -20.55500030517578,17.604999542236328 C-20.55500030517578,17.604999542236328 -17.2549991607666,-17.604999542236328 -17.2549991607666,-17.604999542236328z">
                    </path>
                </g>
            </g>
        </g>
        <g transform="matrix(1,-0.000005523811978491722,0.000005523811978491722,1,110.55886840820312,-0.249267578125)"
            opacity="1" style="display: block;">
            <g opacity="1" transform="matrix(1,0,0,1,131,223.86000061035156)">
                <path fill="rgb(223,188,164)" fill-opacity="1"
                    d=" M-10.350000381469727,-14.630000114440918 C-10.350000381469727,-14.630000114440918 -14.720000267028809,1.5 -14.720000267028809,1.5 C-14.720000267028809,1.5 -12.180000305175781,14.630000114440918 -12.180000305175781,14.630000114440918 C-12.180000305175781,14.630000114440918 13.15999984741211,8.73900032043457 13.15999984741211,8.73900032043457 C13.15999984741211,8.73900032043457 14.720000267028809,-2.7709999084472656 14.720000267028809,-2.7709999084472656 C14.720000267028809,-2.7709999084472656 -10.350000381469727,-14.630000114440918 -10.350000381469727,-14.630000114440918z">
                </path>
            </g>
        </g>
        <g transform="matrix(1,0,0,1,110.56000518798828,-0.25)" opacity="1" style="display: block;">
            <g opacity="1" transform="matrix(1,0,0,1,0,0)">
                <g opacity="1" transform="matrix(1,0,0,1,101.46499633789062,242.36900329589844)">
                    <path fill="rgb(138,102,81)" fill-opacity="1"
                        d=" M17.354999542236328,-3.878999948501587 C17.354999542236328,-3.878999948501587 9.4350004196167,6.650000095367432 9.4350004196167,6.650000095367432 C9.4350004196167,6.650000095367432 -17.354999542236328,2.000999927520752 -17.354999542236328,2.000999927520752 C-17.354999542236328,2.000999927520752 4.494999885559082,-6.650000095367432 4.494999885559082,-6.650000095367432 C4.494999885559082,-6.650000095367432 17.354999542236328,-3.878999948501587 17.354999542236328,-3.878999948501587z">
                    </path>
                </g>
                <g opacity="1" transform="matrix(1,0,0,1,113.33499908447266,243.7550048828125)">
                    <path fill="rgb(195,151,122)" fill-opacity="1"
                        d=" M5.485000133514404,-5.264999866485596 C5.485000133514404,-5.264999866485596 -2.434999942779541,5.263999938964844 -2.434999942779541,5.263999938964844 C-2.434999942779541,5.263999938964844 -5.485000133514404,-4.406000137329102 -5.485000133514404,-4.406000137329102 C-5.485000133514404,-4.406000137329102 5.485000133514404,-5.264999866485596 5.485000133514404,-5.264999866485596z">
                    </path>
                </g>
                <g opacity="1" transform="matrix(1,0,0,1,95.9800033569336,232.72999572753906)">
                    <path fill="rgb(195,151,122)" fill-opacity="1"
                        d=" M-11.869999885559082,-0.42100000381469727 C-11.869999885559082,-0.42100000381469727 6.429999828338623,-11.640999794006348 6.429999828338623,-11.640999794006348 C6.429999828338623,-11.640999794006348 11.390000343322754,-4.710999965667725 11.390000343322754,-4.710999965667725 C11.390000343322754,-4.710999965667725 11.869999885559082,6.61899995803833 11.869999885559082,6.61899995803833 C11.869999885559082,6.61899995803833 -11.869999885559082,11.640000343322754 -11.869999885559082,11.640000343322754 C-11.869999885559082,11.640000343322754 -11.869999885559082,-0.42100000381469727 -11.869999885559082,-0.42100000381469727z">
                    </path>
                </g>
                <g opacity="1" transform="matrix(1,0,0,1,110.61499786376953,230.22000122070312)">
                    <path fill="rgb(232,201,182)" fill-opacity="1"
                        d=" M-8.204999923706055,-9.130000114440918 C-8.204999923706055,-9.130000114440918 5.664999961853027,-4.859000205993652 5.664999961853027,-4.859000205993652 C5.664999961853027,-4.859000205993652 8.204999923706055,8.270000457763672 8.204999923706055,8.270000457763672 C8.204999923706055,8.270000457763672 -2.765000104904175,9.130000114440918 -2.765000104904175,9.130000114440918 C-2.765000104904175,9.130000114440918 -2.937000036239624,8.552000045776367 -2.937000036239624,8.552000045776367 C-2.937000036239624,8.552000045776367 -8.204999923706055,-9.130000114440918 -8.204999923706055,-9.130000114440918z">
                    </path>
                </g>
            </g>
        </g>
        <g transform="matrix(1,0,0,1,110.56000518798828,-0.25)" opacity="1" style="display: block;">
            <g opacity="1" transform="matrix(1,0,0,1,0,0)">
                <g opacity="1" transform="matrix(1,0,0,1,93.80000305175781,84.29499816894531)">
                    <path fill="rgb(79,82,82)" fill-opacity="1"
                        d=" M9.510000228881836,1.534999966621399 C9.510000228881836,1.534999966621399 8.569999694824219,-4.65500020980835 8.569999694824219,-4.65500020980835 C8.569999694824219,-4.65500020980835 -9.510000228881836,4.65500020980835 -9.510000228881836,4.65500020980835 C-9.510000228881836,4.65500020980835 9.510000228881836,1.534999966621399 9.510000228881836,1.534999966621399z">
                    </path>
                </g>
                <g opacity="1" transform="matrix(1,0,0,1,121.31999969482422,81.37999725341797)">
                    <path fill="rgb(79,82,82)" fill-opacity="1"
                        d=" M-9.100000381469727,2.990000009536743 C-9.100000381469727,2.990000009536743 9.789999961853027,0.05000000074505806 9.789999961853027,0.05000000074505806 C9.789999961853027,0.05000000074505806 -9.789999961853027,-2.990000009536743 -9.789999961853027,-2.990000009536743 C-9.789999961853027,-2.990000009536743 -9.100000381469727,2.990000009536743 -9.100000381469727,2.990000009536743z">
                    </path>
                </g>
            </g>
        </g>
        <g transform="matrix(1,0,0,1,110.56000518798828,-0.25)" opacity="1" style="display: block;">
            <g opacity="1" transform="matrix(1,0,0,1,0,0)">
                <g opacity="1" transform="matrix(1,0,0,1,113.94499969482422,128.64999389648438)">
                    <path fill="rgb(28,118,120)" fill-opacity="1"
                        d=" M-9.704999923706055,1.7300000190734863 C-9.704999923706055,1.7300000190734863 -0.4339999854564667,-4.039999961853027 -0.4339999854564667,-4.039999961853027 C-0.4339999854564667,-4.039999961853027 9.704999923706055,-1.3600000143051147 9.704999923706055,-1.3600000143051147 C9.704999923706055,-1.3600000143051147 0.6460000276565552,4.039999961853027 0.6460000276565552,4.039999961853027 C0.6460000276565552,4.039999961853027 -9.704999923706055,1.7300000190734863 -9.704999923706055,1.7300000190734863z">
                    </path>
                </g>
                <g opacity="1" transform="matrix(1,0,0,1,113.26499938964844,130.86000061035156)">
                    <path fill="rgb(80,169,170)" fill-opacity="1"
                        d=" M-16.825000762939453,-1.4600000381469727 C-16.825000762939453,-1.4600000381469727 2.365000009536743,6.690000057220459 2.365000009536743,6.690000057220459 C2.365000009536743,6.690000057220459 16.825000762939453,-6.690000057220459 16.825000762939453,-6.690000057220459 C16.825000762939453,-6.690000057220459 1.3250000476837158,0.8299999833106995 1.3250000476837158,0.8299999833106995 C1.3250000476837158,0.8299999833106995 -16.825000762939453,-1.4600000381469727 -16.825000762939453,-1.4600000381469727z">
                    </path>
                </g>
            </g>
        </g>

        <g transform="matrix(1,0,0,1,110.56000518798828,-0.25)" opacity="1" style="display: block;">
            <g opacity="1" transform="matrix(1,0,0,1,0,0)">
                <g opacity="1" transform="matrix(1,0,0,1,95.9000015258789,99.73999786376953)">
                    <path fill="rgb(43,43,43)" fill-opacity="1"
                        d=" M4.281000137329102,0 C4.281000137329102,2.364000082015991 2.364000082015991,4.28000020980835 0,4.28000020980835 C-2.364000082015991,4.28000020980835 -4.281000137329102,2.364000082015991 -4.281000137329102,0 C-4.281000137329102,-2.364000082015991 -2.364000082015991,-4.28000020980835 0,-4.28000020980835 C2.364000082015991,-4.28000020980835 4.281000137329102,-2.364000082015991 4.281000137329102,0z">
                    </path>
                </g>
                <g opacity="1" transform="matrix(1,0,0,1,122.54000091552734,95.47200012207031)">
                    <path fill="rgb(43,43,43)" fill-opacity="1"
                        d=" M4.28000020980835,-0.013000000268220901 C4.285999774932861,2.3510000705718994 2.374000072479248,4.271999835968018 0.009999999776482582,4.2769999504089355 C-2.3540000915527344,4.2820000648498535 -4.276000022888184,2.371999979019165 -4.281000137329102,0.00800000037997961 C-4.285999774932861,-2.3559999465942383 -2.374000072479248,-4.2779998779296875 -0.010999999940395355,-4.2829999923706055 C-0.010999999940395355,-4.2829999923706055 0.009999999776482582,-4.2829999923706055 0.009999999776482582,-4.2829999923706055 C2.36899995803833,-4.2829999923706055 4.28000020980835,-2.371000051498413 4.28000020980835,-0.013000000268220901z">
                    </path>
                </g>
            </g>
        </g>

    </g>
</svg>