<svg xmlns="http://www.w3.org/2000/svg" viewBox="0 0 400 400" width="100%" height="100%"
    preserveAspectRatio="xMidYMid meet">
    <defs>
        <clipPath id="__lottie_element_402">
            <rect width="400" height="400" x="0" y="0"></rect>
        </clipPath>
    </defs>
    <g clip-path="url(#__lottie_element_402)">
        <g transform="matrix(1,0,0,1,55.91801452636719,-0.498992919921875)" opacity="1" style="display: block;">
            <g opacity="1" transform="matrix(1,0,0,1,0,0)">
                <g opacity="0.1" transform="matrix(1,0,0,1,150.7220001220703,392.031005859375)">
                    <path fill="rgb(0,0,0)" fill-opacity="1"
                        d=" M108.22100067138672,-0.20200000703334808 C108.22100067138672,-0.20200000703334808 -2.6689999103546143,-8.217000007629395 -2.6689999103546143,-8.217000007629395 C-2.6689999103546143,-8.217000007629395 -108.22100067138672,-1.8660000562667847 -108.22100067138672,-1.8660000562667847 C-108.22100067138672,-1.8660000562667847 -7.861999988555908,8.218999862670898 -7.861999988555908,8.218999862670898 C-7.861999988555908,8.218999862670898 108.22100067138672,-0.20200000703334808 108.22100067138672,-0.20200000703334808z">
                    </path>
                </g>
                <g opacity="1" transform="matrix(1,0,0,1,190.9600067138672,380.1839904785156)">
                    <path fill="rgb(223,188,164)" fill-opacity="1"
                        d=" M-13.196000099182129,-0.11599999666213989 C-13.196000099182129,-0.11599999666213989 -12.133999824523926,10.517999649047852 -12.133999824523926,10.517999649047852 C-12.133999824523926,10.517999649047852 3.571000099182129,10.517999649047852 3.571000099182129,10.517999649047852 C3.571000099182129,10.517999649047852 8.76200008392334,7.973999977111816 8.76200008392334,7.973999977111816 C8.76200008392334,7.973999977111816 13.196000099182129,3.677999973297119 13.196000099182129,3.677999973297119 C13.196000099182129,3.677999973297119 -0.6909999847412109,-10.28600025177002 -0.6909999847412109,-10.28600025177002 C-0.6909999847412109,-10.28600025177002 -7.466000080108643,-10.517000198364258 -7.466000080108643,-10.517000198364258 C-7.466000080108643,-10.517000198364258 -13.196000099182129,-0.11599999666213989 -13.196000099182129,-0.11599999666213989z">
                    </path>
                </g>
                <g opacity="1" transform="matrix(1,0,0,1,198.92799377441406,385.00299072265625)">
                    <path fill="rgb(195,151,122)" fill-opacity="1"
                        d=" M-20.101999282836914,5.698999881744385 C-20.101999282836914,5.698999881744385 -20.93199920654297,-2.6110000610351562 -20.93199920654297,-2.6110000610351562 C-20.93199920654297,-2.6110000610351562 -11.743000030517578,5.698999881744385 -11.743000030517578,5.698999881744385 C-11.743000030517578,5.698999881744385 10.800000190734863,-5.698999881744385 10.800000190734863,-5.698999881744385 C10.800000190734863,-5.698999881744385 20.93199920654297,5.698999881744385 20.93199920654297,5.698999881744385 C20.93199920654297,5.698999881744385 -20.101999282836914,5.698999881744385 -20.101999282836914,5.698999881744385z">
                    </path>
                </g>
                <g opacity="1" transform="matrix(1,0,0,1,117.78099822998047,381.0710144042969)">
                    <path fill="rgb(223,188,164)" fill-opacity="1"
                        d=" M2.8420000076293945,-11.404999732971191 C2.8420000076293945,-11.404999732971191 9.800000190734863,-2.5869998931884766 9.800000190734863,-2.5869998931884766 C9.800000190734863,-2.5869998931884766 12.157999992370605,11.404000282287598 12.157999992370605,11.404000282287598 C12.157999992370605,11.404000282287598 -0.2540000081062317,11.404000282287598 -0.2540000081062317,11.404000282287598 C-0.2540000081062317,11.404000282287598 -6.026000022888184,6.388000011444092 -6.026000022888184,6.388000011444092 C-6.026000022888184,6.388000011444092 -12.157999992370605,-1.003999948501587 -12.157999992370605,-1.003999948501587 C-12.157999992370605,-1.003999948501587 -7.418000221252441,-9.21399974822998 -7.418000221252441,-9.21399974822998 C-7.418000221252441,-9.21399974822998 2.8420000076293945,-11.404999732971191 2.8420000076293945,-11.404999732971191z">
                    </path>
                </g>
                <g opacity="1" transform="matrix(1,0,0,1,111.8290023803711,385.95001220703125)">
                    <path fill="rgb(195,151,122)" fill-opacity="1"
                        d=" M-5.5960001945495605,-6.525000095367432 C-5.5960001945495605,-6.525000095367432 -18.111000061035156,6.525000095367432 -18.111000061035156,6.525000095367432 C-18.111000061035156,6.525000095367432 18.111000061035156,6.525000095367432 18.111000061035156,6.525000095367432 C18.111000061035156,6.525000095367432 16.511999130249023,-2.9549999237060547 16.511999130249023,-2.9549999237060547 C16.511999130249023,-2.9549999237060547 9.960000038146973,6.525000095367432 9.960000038146973,6.525000095367432 C9.960000038146973,6.525000095367432 -5.5960001945495605,-6.525000095367432 -5.5960001945495605,-6.525000095367432z">
                    </path>
                </g>
                <g opacity="1" transform="matrix(1,0,0,1,183.48599243164062,373.2279968261719)">
                    <path fill="rgb(138,102,81)" fill-opacity="1"
                        d=" M3.2929999828338623,-6.840000152587891 C3.2929999828338623,-6.840000152587891 -2.246999979019165,-6.301000118255615 -2.246999979019165,-6.301000118255615 C-2.246999979019165,-6.301000118255615 -6.7829999923706055,-3.7920000553131104 -6.7829999923706055,-3.7920000553131104 C-6.7829999923706055,-3.7920000553131104 -5.7220001220703125,6.841000080108643 -5.7220001220703125,6.841000080108643 C-5.7220001220703125,6.841000080108643 6.7829999923706055,-3.3289999961853027 6.7829999923706055,-3.3289999961853027 C6.7829999923706055,-3.3289999961853027 3.2929999828338623,-6.840000152587891 3.2929999828338623,-6.840000152587891z">
                    </path>
                </g>
                <g opacity="1" transform="matrix(1,0,0,1,118.97200012207031,371.8580017089844)">
                    <path fill="rgb(138,102,81)" fill-opacity="1"
                        d=" M6.840000152587891,-3.871999979019165 C6.840000152587891,-3.871999979019165 2.382999897003174,-6.625999927520752 2.382999897003174,-6.625999927520752 C2.382999897003174,-6.625999927520752 -4.864999771118164,-6.486000061035156 -4.864999771118164,-6.486000061035156 C-4.864999771118164,-6.486000061035156 -8.609000205993652,0 -8.609000205993652,0 C-8.609000205993652,0 8.609000205993652,6.625999927520752 8.609000205993652,6.625999927520752 C8.609000205993652,6.625999927520752 6.840000152587891,-3.871999979019165 6.840000152587891,-3.871999979019165z">
                    </path>
                </g>
                <g opacity="1" transform="matrix(1,0,0,1,173.69700622558594,314.7749938964844)">
                    <path fill="rgb(190,143,0)" fill-opacity="1"
                        d=" M17.16200065612793,-30.332000732421875 C17.16200065612793,-30.332000732421875 -6.118000030517578,-20.927000045776367 -6.118000030517578,-20.927000045776367 C-6.118000030517578,-20.927000045776367 -28.93899917602539,-8.041999816894531 -28.93899917602539,-8.041999816894531 C-28.93899917602539,-8.041999816894531 -14.628000259399414,30.33300018310547 -14.628000259399414,30.33300018310547 C-14.628000259399414,30.33300018310547 7.465000152587891,25.67300033569336 7.465000152587891,25.67300033569336 C7.465000152587891,25.67300033569336 28.940000534057617,17.413999557495117 28.940000534057617,17.413999557495117 C28.940000534057617,17.413999557495117 17.16200065612793,-30.332000732421875 17.16200065612793,-30.332000732421875z">
                    </path>
                </g>
                <g opacity="1" transform="matrix(1,0,0,1,0,0)">
                    <g opacity="1" transform="matrix(1,0,0,1,180.85299682617188,345.8680114746094)">
                        <path fill="rgb(228,199,40)" fill-opacity="1"
                            d=" M-21.784000396728516,-0.7599999904632568 C-21.784000396728516,-0.7599999904632568 -16.718000411987305,13.678000450134277 -16.718000411987305,13.678000450134277 C-16.718000411987305,13.678000450134277 3.010999917984009,1.6130000352859497 3.010999917984009,1.6130000352859497 C3.010999917984009,1.6130000352859497 21.784000396728516,-13.678000450134277 21.784000396728516,-13.678000450134277 C21.784000396728516,-13.678000450134277 -21.784000396728516,-0.7599999904632568 -21.784000396728516,-0.7599999904632568z">
                        </path>
                    </g>
                    <g opacity="1" transform="matrix(1,0,0,1,187.18499755859375,346.8680114746094)">
                        <path fill="rgb(204,172,19)" fill-opacity="1"
                            d=" M-23.049999237060547,12.678000450134277 C-23.049999237060547,12.678000450134277 15.451000213623047,-14.678000450134277 15.451000213623047,-14.678000450134277 C15.451000213623047,-14.678000450134277 23.051000595092773,12.423999786376953 23.051000595092773,12.423999786376953 C23.051000595092773,12.423999786376953 0.06599999964237213,14.678000450134277 0.06599999964237213,14.678000450134277 C0.06599999964237213,14.678000450134277 -23.049999237060547,12.678000450134277 -23.049999237060547,12.678000450134277z">
                        </path>
                    </g>
                    <g opacity="1" transform="matrix(1,0,0,1,187.18499755859375,365.4989929199219)">
                        <path fill="rgb(228,199,40)" fill-opacity="1"
                            d=" M-23.049999237060547,-5.952000141143799 C-23.049999237060547,-5.952000141143799 -17.983999252319336,6.205999851226807 -17.983999252319336,6.205999851226807 C-17.983999252319336,6.205999851226807 23.051000595092773,-6.205999851226807 23.051000595092773,-6.205999851226807 C23.051000595092773,-6.205999851226807 -23.049999237060547,-5.952000141143799 -23.049999237060547,-5.952000141143799z">
                        </path>
                    </g>
                </g>
                <g opacity="1" transform="matrix(1,0,0,1,118.2239990234375,315.1549987792969)">
                    <path fill="rgb(190,143,0)" fill-opacity="1"
                        d=" M26.534000396728516,-8.42199993133545 C26.534000396728516,-8.42199993133545 23.367000579833984,28.68600082397461 23.367000579833984,28.68600082397461 C23.367000579833984,28.68600082397461 0.4970000088214874,26.1560001373291 0.4970000088214874,26.1560001373291 C0.4970000088214874,26.1560001373291 -26.534000396728516,20.073999404907227 -26.534000396728516,20.073999404907227 C-26.534000396728516,20.073999404907227 -22.60700035095215,-28.68600082397461 -22.60700035095215,-28.68600082397461 C-22.60700035095215,-28.68600082397461 6.3420000076293945,-18.736000061035156 6.3420000076293945,-18.736000061035156 C6.3420000076293945,-18.736000061035156 26.534000396728516,-8.42199993133545 26.534000396728516,-8.42199993133545z">
                    </path>
                </g>
                <g opacity="1" transform="matrix(1,0,0,1,0,0)">
                    <g opacity="1" transform="matrix(1,0,0,1,116.64099884033203,347.38800048828125)">
                        <path fill="rgb(228,199,40)" fill-opacity="1"
                            d=" M-24.950000762939453,-12.157999992370605 C-24.950000762939453,-12.157999992370605 0.453000009059906,2.549999952316284 0.453000009059906,2.549999952316284 C0.453000009059906,2.549999952316284 23.68400001525879,12.157999992370605 23.68400001525879,12.157999992370605 C23.68400001525879,12.157999992370605 24.950000762939453,-3.5460000038146973 24.950000762939453,-3.5460000038146973 C24.950000762939453,-3.5460000038146973 -24.950000762939453,-12.157999992370605 -24.950000762939453,-12.157999992370605z">
                        </path>
                    </g>
                    <g opacity="1" transform="matrix(1,0,0,1,114.74099731445312,348.1549987792969)">
                        <path fill="rgb(204,172,19)" fill-opacity="1"
                            d=" M-23.049999237060547,-12.925000190734863 C-23.049999237060547,-12.925000190734863 -25.58300018310547,11.644000053405762 -25.58300018310547,11.644000053405762 C-25.58300018310547,11.644000053405762 2.3440001010894775,12.925000190734863 2.3440001010894775,12.925000190734863 C2.3440001010894775,12.925000190734863 25.58300018310547,11.390999794006348 25.58300018310547,11.390999794006348 C25.58300018310547,11.390999794006348 -23.049999237060547,-12.925000190734863 -23.049999237060547,-12.925000190734863z">
                        </path>
                    </g>
                    <g opacity="1" transform="matrix(1,0,0,1,114.74099731445312,365.2449951171875)">
                        <path fill="rgb(228,199,40)" fill-opacity="1"
                            d=" M25.583999633789062,-5.698999881744385 C25.583999633789062,-5.698999881744385 -25.583999633789062,-5.446000099182129 -25.583999633789062,-5.446000099182129 C-25.583999633789062,-5.446000099182129 24.31800079345703,5.698999881744385 24.31800079345703,5.698999881744385 C24.31800079345703,5.698999881744385 25.583999633789062,-5.698999881744385 25.583999633789062,-5.698999881744385z">
                        </path>
                    </g>
                </g>
            </g>
        </g>
        <g transform="matrix(1,-0.0000028044692044204567,0.0000028044692044204567,1,55.91722106933594,-0.49859619140625)"
            opacity="1" style="display: block;">
            <g opacity="1" transform="matrix(1,0,0,1,143.11099243164062,197.27699279785156)">
                <path fill="rgb(70,70,70)" fill-opacity="1"
                    d=" M23.948999404907227,-25.496000289916992 C23.948999404907227,-25.496000289916992 34.332000732421875,-22.020999908447266 34.332000732421875,-22.020999908447266 C34.332000732421875,-22.020999908447266 40.084999084472656,-16.538999557495117 40.084999084472656,-16.538999557495117 C40.084999084472656,-16.538999557495117 47.62099838256836,-17.572999954223633 47.62099838256836,-17.572999954223633 C47.62099838256836,-17.572999954223633 61.80500030517578,-3.135999917984009 61.80500030517578,-3.135999917984009 C61.80500030517578,-3.135999917984009 57.73099899291992,10.105999946594238 57.73099899291992,10.105999946594238 C57.73099899291992,10.105999946594238 47.367000579833984,25.48699951171875 47.367000579833984,25.48699951171875 C47.367000579833984,25.48699951171875 -42.80799865722656,27.767000198364258 -42.80799865722656,27.767000198364258 C-42.80799865722656,27.767000198364258 -53.59700012207031,18.66699981689453 -53.59700012207031,18.66699981689453 C-53.59700012207031,18.66699981689453 -61.80500030517578,7.502999782562256 -61.80500030517578,7.502999782562256 C-61.80500030517578,7.502999782562256 -41.54100036621094,-17.82699966430664 -41.54100036621094,-17.82699966430664 C-41.54100036621094,-17.82699966430664 -33.821998596191406,-18.823999404907227 -33.821998596191406,-18.823999404907227 C-33.821998596191406,-18.823999404907227 -29.926000595092773,-22.797000885009766 -29.926000595092773,-22.797000885009766 C-29.926000595092773,-22.797000885009766 -18.309999465942383,-27.767000198364258 -18.309999465942383,-27.767000198364258 C-18.309999465942383,-27.767000198364258 -0.3799999952316284,-14.871000289916992 -0.3799999952316284,-14.871000289916992 C-0.3799999952316284,-14.871000289916992 23.948999404907227,-25.496000289916992 23.948999404907227,-25.496000289916992z">
                </path>
            </g>
            <g opacity="1" transform="matrix(1,0,0,1,0,0)">
                <g opacity="1" transform="matrix(1,0,0,1,143.23800659179688,257.718994140625)">
                    <path fill="rgb(133,99,0)" fill-opacity="1"
                        d=" M47.619998931884766,26.722999572753906 C47.619998931884766,26.722999572753906 1.5190000534057617,49.01300048828125 1.5190000534057617,49.01300048828125 C1.5190000534057617,49.01300048828125 -47.619998931884766,28.749000549316406 -47.619998931884766,28.749000549316406 C-47.619998931884766,28.749000549316406 -42.935001373291016,-32.67599868774414 -42.935001373291016,-32.67599868774414 C-42.935001373291016,-32.67599868774414 -35.28799819946289,-41.369998931884766 -35.28799819946289,-41.369998931884766 C-35.28799819946289,-41.369998931884766 -27.610000610351562,-45.72100067138672 -27.610000610351562,-45.72100067138672 C-27.610000610351562,-45.72100067138672 32.422000885009766,-49.013999938964844 32.422000885009766,-49.013999938964844 C32.422000885009766,-49.013999938964844 39.51599884033203,-45.257999420166016 39.51599884033203,-45.257999420166016 C39.51599884033203,-45.257999420166016 47.2400016784668,-34.95600128173828 47.2400016784668,-34.95600128173828 C47.2400016784668,-34.95600128173828 47.619998931884766,26.722999572753906 47.619998931884766,26.722999572753906z">
                    </path>
                </g>
                <g opacity="1" transform="matrix(1,0,0,1,183.1959991455078,199.00999450683594)">
                    <path fill="rgb(190,143,0)" fill-opacity="1"
                        d=" M7.535999774932861,-19.305999755859375 C7.535999774932861,-19.305999755859375 7.2829999923706055,23.7549991607666 7.2829999923706055,23.7549991607666 C7.2829999923706055,23.7549991607666 -7.535999774932861,9.696000099182129 -7.535999774932861,9.696000099182129 C-7.535999774932861,9.696000099182129 -5.757999897003174,-23.7549991607666 -5.757999897003174,-23.7549991607666 C-5.757999897003174,-23.7549991607666 7.535999774932861,-19.305999755859375 7.535999774932861,-19.305999755859375z">
                    </path>
                </g>
                <g opacity="1" transform="matrix(1,0,0,1,107.96499633789062,199.76199340820312)">
                    <path fill="rgb(190,143,0)" fill-opacity="1"
                        d=" M5.21999979019165,-25.281999588012695 C5.21999979019165,-25.281999588012695 7.663000106811523,12.23799991607666 7.663000106811523,12.23799991607666 C7.663000106811523,12.23799991607666 -7.663000106811523,25.2810001373291 -7.663000106811523,25.2810001373291 C-7.663000106811523,25.2810001373291 -6.395999908447266,-20.312000274658203 -6.395999908447266,-20.312000274658203 C-6.395999908447266,-20.312000274658203 5.21999979019165,-25.281999588012695 5.21999979019165,-25.281999588012695z">
                    </path>
                </g>
                <g opacity="1" transform="matrix(1,0,0.0000014654951883130707,1,-0.0003662109375,0)">
                    <g opacity="1" transform="matrix(1,0,0,1,145.51400756835938,244.03700256347656)">
                        <path fill="rgb(158,119,0)" fill-opacity="1"
                            d=" M20.260000228881836,20.648000717163086 C20.260000228881836,20.648000717163086 -20.260000228881836,20.648000717163086 -20.260000228881836,20.648000717163086 C-20.260000228881836,20.648000717163086 -20.260000228881836,-20.64900016784668 -20.260000228881836,-20.64900016784668 C-20.260000228881836,-20.64900016784668 20.260000228881836,-20.64900016784668 20.260000228881836,-20.64900016784668 C20.260000228881836,-20.64900016784668 20.260000228881836,20.648000717163086 20.260000228881836,20.648000717163086z">
                        </path>
                    </g>
                    <g opacity="1" transform="matrix(1,0,0,1,186.08599853515625,249.23599243164062)">
                        <path fill="rgb(158,119,0)" fill-opacity="1"
                            d=" M4.53000020980835,-4.052000045776367 C4.53000020980835,-4.052000045776367 -0.04100000113248825,-7.3470001220703125 -0.04100000113248825,-7.3470001220703125 C-0.04100000113248825,-7.3470001220703125 -4.599999904632568,1.0110000371932983 -4.599999904632568,1.0110000371932983 C-4.599999904632568,1.0110000371932983 1.4789999723434448,0 1.4789999723434448,0 C1.4789999723434448,0 4.599999904632568,7.3480000495910645 4.599999904632568,7.3480000495910645 C4.599999904632568,7.3480000495910645 4.53000020980835,-4.052000045776367 4.53000020980835,-4.052000045776367z">
                        </path>
                    </g>
                    <g opacity="1" transform="matrix(1,0,0,1,163.8820037841797,278.23699951171875)">
                        <path fill="rgb(204,172,19)" fill-opacity="1"
                            d=" M0.12600000202655792,-8.486000061035156 C0.12600000202655792,-8.486000061035156 -6.459000110626221,-3.1679999828338623 -6.459000110626221,-3.1679999828338623 C-6.459000110626221,-3.1679999828338623 -5.446000099182129,2.1519999504089355 -5.446000099182129,2.1519999504089355 C-5.446000099182129,2.1519999504089355 3.1659998893737793,8.486000061035156 3.1659998893737793,8.486000061035156 C3.1659998893737793,8.486000061035156 6.459000110626221,-4.940000057220459 6.459000110626221,-4.940000057220459 C6.459000110626221,-4.940000057220459 0.12600000202655792,-8.486000061035156 0.12600000202655792,-8.486000061035156z">
                        </path>
                    </g>
                    <g opacity="1" transform="matrix(1,0,0,1,132.1269989013672,249.10699462890625)">
                        <path fill="rgb(204,172,19)" fill-opacity="1"
                            d=" M-6.872000217437744,11.270999908447266 C-6.872000217437744,11.270999908447266 3.7660000324249268,7.7270002365112305 3.7660000324249268,7.7270002365112305 C3.7660000324249268,7.7270002365112305 2.753000020980835,-0.8849999904632568 2.753000020980835,-0.8849999904632568 C2.753000020980835,-0.8849999904632568 7.818999767303467,-2.9119999408721924 7.818999767303467,-2.9119999408721924 C7.818999767303467,-2.9119999408721924 4.7789998054504395,-11.270999908447266 4.7789998054504395,-11.270999908447266 C4.7789998054504395,-11.270999908447266 1.9930000305175781,-10.258000373840332 1.9930000305175781,-10.258000373840332 C1.9930000305175781,-10.258000373840332 2.246999979019165,-6.204999923706055 2.246999979019165,-6.204999923706055 C2.246999979019165,-6.204999923706055 -4.339000225067139,-6.710999965667725 -4.339000225067139,-6.710999965667725 C-4.339000225067139,-6.710999965667725 -6.872000217437744,-0.3779999911785126 -6.872000217437744,-0.3779999911785126 C-6.872000217437744,-0.3779999911785126 -7.817999839782715,4.814000129699707 -7.817999839782715,4.814000129699707 C-7.817999839782715,4.814000129699707 -6.872000217437744,11.270999908447266 -6.872000217437744,11.270999908447266z">
                        </path>
                    </g>
                    <g opacity="1" transform="matrix(1,0,0,1,142.7310028076172,274.3110046386719)">
                        <path fill="rgb(158,119,0)" fill-opacity="1"
                            d=" M3.2929999828338623,-1.7730000019073486 C3.2929999828338623,-1.7730000019073486 -3.2929999828338623,-3.5460000038146973 -3.2929999828338623,-3.5460000038146973 C-3.2929999828338623,-3.5460000038146973 -1.7730000019073486,3.5460000038146973 -1.7730000019073486,3.5460000038146973 C-1.7730000019073486,3.5460000038146973 3.0399999618530273,2.7869999408721924 3.0399999618530273,2.7869999408721924 C3.0399999618530273,2.7869999408721924 3.2929999828338623,-1.7730000019073486 3.2929999828338623,-1.7730000019073486z">
                        </path>
                    </g>
                    <g opacity="1" transform="matrix(1,0,0,1,120.947998046875,254.55299377441406)">
                        <path fill="rgb(181,138,0)" fill-opacity="1"
                            d=" M4.306000232696533,-5.824999809265137 C4.306000232696533,-5.824999809265137 -4.306000232696533,-4.559000015258789 -4.306000232696533,-4.559000015258789 C-4.306000232696533,-4.559000015258789 -0.2540000081062317,5.824999809265137 -0.2540000081062317,5.824999809265137 C-0.2540000081062317,5.824999809265137 4.306000232696533,5.824999809265137 4.306000232696533,5.824999809265137 C4.306000232696533,5.824999809265137 4.306000232696533,-5.824999809265137 4.306000232696533,-5.824999809265137z">
                        </path>
                    </g>
                </g>
            </g>
        </g>
        <g transform="matrix(1,0.000004429703494679416,-0.000004429703494679416,1,55.91862487792969,-0.500091552734375)"
            opacity="1" style="display: block;">
            <g opacity="1" transform="matrix(1,0,0,1,207.5760040283203,210.9219970703125)">
                <path fill="rgb(223,188,164)" fill-opacity="1"
                    d=" M17.097999572753906,0.06300000101327896 C17.097999572753906,0.06300000101327896 -2.6610000133514404,-16.7810001373291 -2.6610000133514404,-16.7810001373291 C-2.6610000133514404,-16.7810001373291 -17.097999572753906,11.840999603271484 -17.097999572753906,11.840999603271484 C-17.097999572753906,11.840999603271484 -2.5329999923706055,16.7810001373291 -2.5329999923706055,16.7810001373291 C-2.5329999923706055,16.7810001373291 10.784000396728516,12.133000373840332 10.784000396728516,12.133000373840332 C10.784000396728516,12.133000373840332 17.097999572753906,0.06300000101327896 17.097999572753906,0.06300000101327896z">
                </path>
            </g>
        </g>
        <g transform="matrix(1,-0.0000028044692044204567,0.0000028044692044204567,1,55.91722106933594,-0.49859619140625)"
            opacity="1" style="display: block;">
            <g opacity="1" transform="matrix(1,0,0,1,84.78600311279297,224.91700744628906)">
                <path fill="rgb(223,188,164)" fill-opacity="1"
                    d=" M15.517000198364258,0.12600000202655792 C15.517000198364258,0.12600000202655792 -8.800000190734863,20.136999130249023 -8.800000190734863,20.136999130249023 C-8.800000190734863,20.136999130249023 -15.517000198364258,-5.947000026702881 -15.517000198364258,-5.947000026702881 C-15.517000198364258,-5.947000026702881 -3.4809999465942383,-20.136999130249023 -3.4809999465942383,-20.136999130249023 C-3.4809999465942383,-20.136999130249023 15.517000198364258,0.12600000202655792 15.517000198364258,0.12600000202655792z">
                </path>
            </g>
        </g>
        <g transform="matrix(1,-0.0000028044692044204567,0.0000028044692044204567,1,55.91722106933594,-0.49859619140625)"
            opacity="1" style="display: block;">
            <g opacity="1" transform="matrix(1,0,0,1,0,0)">
                <g opacity="1" transform="matrix(1,0,0,1,56.03900146484375,252.90699768066406)">
                    <path fill="rgb(228,199,40)" fill-opacity="1"
                        d=" M9.055000305175781,-50.15299987792969 C9.055000305175781,-50.15299987792969 -40.084999084472656,-42.80799865722656 -40.084999084472656,-42.80799865722656 C-40.084999084472656,-42.80799865722656 -55.790000915527344,-0.7590000033378601 -55.790000915527344,-0.7590000033378601 C-55.790000915527344,-0.7590000033378601 -33.499000549316406,34.44900131225586 -33.499000549316406,34.44900131225586 C-33.499000549316406,34.44900131225586 11.335000038146973,50.15399932861328 11.335000038146973,50.15399932861328 C11.335000038146973,50.15399932861328 55.790000915527344,40.24700164794922 55.790000915527344,40.24700164794922 C55.790000915527344,40.24700164794922 51.60900115966797,-1.7719999551773071 51.60900115966797,-1.7719999551773071 C51.60900115966797,-1.7719999551773071 19.94700050354004,-7.8520002365112305 19.94700050354004,-7.8520002365112305 C19.94700050354004,-7.8520002365112305 9.055000305175781,-50.15299987792969 9.055000305175781,-50.15299987792969z">
                    </path>
                </g>
                <g opacity="1" transform="matrix(1,0,0,1,52.04999923706055,237.96200561523438)">
                    <path fill="rgb(195,151,122)" fill-opacity="1"
                        d=" M1.6460000276565552,-13.678000450134277 C1.6460000276565552,-13.678000450134277 -3.744999885559082,-8.404999732971191 -3.744999885559082,-8.404999732971191 C-3.744999885559082,-8.404999732971191 -11.524999618530273,-3.5450000762939453 -11.524999618530273,-3.5450000762939453 C-11.524999618530273,-3.5450000762939453 -0.6330000162124634,13.678000450134277 -0.6330000162124634,13.678000450134277 C-0.6330000162124634,13.678000450134277 11.524999618530273,3.546999931335449 11.524999618530273,3.546999931335449 C11.524999618530273,3.546999931335449 5.099999904632568,-6.123000144958496 5.099999904632568,-6.123000144958496 C5.099999904632568,-6.123000144958496 1.6460000276565552,-13.678000450134277 1.6460000276565552,-13.678000450134277z">
                    </path>
                </g>
                <g opacity="1" transform="matrix(1,0,0,1,52.04999923706055,234.4949951171875)">
                    <path fill="rgb(138,102,81)" fill-opacity="1"
                        d=" M7.689000129699707,10.211000442504883 C7.689000129699707,10.211000442504883 3.6740000247955322,-1.8519999980926514 3.6740000247955322,-1.8519999980926514 C3.6740000247955322,-1.8519999980926514 -11.524999618530273,-0.07800000160932541 -11.524999618530273,-0.07800000160932541 C-11.524999618530273,-0.07800000160932541 1.6469999551773071,-10.211000442504883 1.6469999551773071,-10.211000442504883 C1.6469999551773071,-10.211000442504883 11.524999618530273,7.013999938964844 11.524999618530273,7.013999938964844 C11.524999618530273,7.013999938964844 7.689000129699707,10.211000442504883 7.689000129699707,10.211000442504883z">
                    </path>
                </g>
                <g opacity="1" transform="matrix(1,0,0,1,45.97200012207031,242.9669952392578)">
                    <path fill="rgb(223,188,164)" fill-opacity="1"
                        d=" M9.751999855041504,-10.324000358581543 C9.751999855041504,-10.324000358581543 -5.447999954223633,-8.550999641418457 -5.447999954223633,-8.550999641418457 C-5.447999954223633,-8.550999641418457 -9.751999855041504,7.716000080108643 -9.751999855041504,7.716000080108643 C-9.751999855041504,7.716000080108643 -5.01200008392334,10.324000358581543 -5.01200008392334,10.324000358581543 C-5.01200008392334,10.324000358581543 9.751999855041504,-10.324000358581543 9.751999855041504,-10.324000358581543z">
                    </path>
                </g>
                <g opacity="1" transform="matrix(1,0,0,1,25.32699966430664,228.33700561523438)">
                    <path fill="rgb(70,70,70)" fill-opacity="1"
                        d=" M6.501999855041504,-3.009999990463257 C6.501999855041504,-3.009999990463257 -3.009999990463257,-6.501999855041504 -3.009999990463257,-6.501999855041504 C-3.009999990463257,-6.501999855041504 -6.501999855041504,3.009000062942505 -6.501999855041504,3.009000062942505 C-6.501999855041504,3.009000062942505 3.009999990463257,6.501999855041504 3.009999990463257,6.501999855041504 C3.009999990463257,6.501999855041504 6.501999855041504,-3.009999990463257 6.501999855041504,-3.009999990463257z">
                    </path>
                </g>
                <g opacity="1" transform="matrix(1,0,0,1,19.24799919128418,245.05499267578125)">
                    <path fill="rgb(128,44,0)" fill-opacity="1"
                        d=" M6.501999855041504,-3.009999990463257 C6.501999855041504,-3.009999990463257 -3.009999990463257,-6.501999855041504 -3.009999990463257,-6.501999855041504 C-3.009999990463257,-6.501999855041504 -6.501999855041504,3.009000062942505 -6.501999855041504,3.009000062942505 C-6.501999855041504,3.009000062942505 3.009000062942505,6.501999855041504 3.009000062942505,6.501999855041504 C3.009000062942505,6.501999855041504 6.501999855041504,-3.009999990463257 6.501999855041504,-3.009999990463257z">
                    </path>
                </g>
                <g opacity="1" transform="matrix(1,0,0,1,25.32699966430664,263.79901123046875)">
                    <path fill="rgb(168,64,0)" fill-opacity="1"
                        d=" M6.501999855041504,-3.009000062942505 C6.501999855041504,-3.009000062942505 -3.009999990463257,-6.501999855041504 -3.009999990463257,-6.501999855041504 C-3.009999990463257,-6.501999855041504 -6.501999855041504,3.009000062942505 -6.501999855041504,3.009000062942505 C-6.501999855041504,3.009000062942505 3.009999990463257,6.501999855041504 3.009999990463257,6.501999855041504 C3.009999990463257,6.501999855041504 6.501999855041504,-3.009000062942505 6.501999855041504,-3.009000062942505z">
                    </path>
                </g>
                <g opacity="1" transform="matrix(1,0,0,1,40.77799987792969,276.4639892578125)">
                    <path fill="rgb(204,78,0)" fill-opacity="1"
                        d=" M6.501999855041504,-3.009000062942505 C6.501999855041504,-3.009000062942505 -3.009999990463257,-6.501999855041504 -3.009999990463257,-6.501999855041504 C-3.009999990463257,-6.501999855041504 -6.501999855041504,3.009999990463257 -6.501999855041504,3.009999990463257 C-6.501999855041504,3.009999990463257 3.009999990463257,6.501999855041504 3.009999990463257,6.501999855041504 C3.009999990463257,6.501999855041504 6.501999855041504,-3.009000062942505 6.501999855041504,-3.009000062942505z">
                    </path>
                </g>
                <g opacity="1" transform="matrix(1,0,0,1,58.00199890136719,282.7959899902344)">
                    <path fill="rgb(236,133,0)" fill-opacity="1"
                        d=" M6.501999855041504,-3.009000062942505 C6.501999855041504,-3.009000062942505 -3.009999990463257,-6.501999855041504 -3.009999990463257,-6.501999855041504 C-3.009999990463257,-6.501999855041504 -6.501999855041504,3.009000062942505 -6.501999855041504,3.009000062942505 C-6.501999855041504,3.009000062942505 3.009999990463257,6.501999855041504 3.009999990463257,6.501999855041504 C3.009999990463257,6.501999855041504 6.501999855041504,-3.009000062942505 6.501999855041504,-3.009000062942505z">
                    </path>
                </g>
                <g opacity="1" transform="matrix(1,0,0,1,77.50700378417969,283.302001953125)">
                    <path fill="rgb(255,155,1)" fill-opacity="1"
                        d=" M6.501999855041504,-3.009000062942505 C6.501999855041504,-3.009000062942505 -3.009999990463257,-6.501999855041504 -3.009999990463257,-6.501999855041504 C-3.009999990463257,-6.501999855041504 -6.501999855041504,3.009000062942505 -6.501999855041504,3.009000062942505 C-6.501999855041504,3.009000062942505 3.007999897003174,6.501999855041504 3.007999897003174,6.501999855041504 C3.007999897003174,6.501999855041504 6.501999855041504,-3.009000062942505 6.501999855041504,-3.009000062942505z">
                    </path>
                </g>
                <g opacity="1" transform="matrix(1,0,0,1,94.73100280761719,273.42401123046875)">
                    <path fill="rgb(244,214,93)" fill-opacity="1"
                        d=" M6.501999855041504,-3.009000062942505 C6.501999855041504,-3.009000062942505 -3.009999990463257,-6.500999927520752 -3.009999990463257,-6.500999927520752 C-3.009999990463257,-6.500999927520752 -6.501999855041504,3.009000062942505 -6.501999855041504,3.009000062942505 C-6.501999855041504,3.009000062942505 3.009999990463257,6.500999927520752 3.009999990463257,6.500999927520752 C3.009999990463257,6.500999927520752 6.501999855041504,-3.009000062942505 6.501999855041504,-3.009000062942505z">
                    </path>
                </g>
                <g opacity="1" transform="matrix(1,0,0,1,51.37699890136719,242.14199829101562)">
                    <path fill="rgb(138,102,81)" fill-opacity="1"
                        d=" M4.3460001945495605,-9.49899959564209 C4.3460001945495605,-9.49899959564209 0.039000000804662704,9.49899959564209 0.039000000804662704,9.49899959564209 C0.039000000804662704,9.49899959564209 -4.3460001945495605,2.563999891281128 -4.3460001945495605,2.563999891281128 C-4.3460001945495605,2.563999891281128 4.3460001945495605,-9.49899959564209 4.3460001945495605,-9.49899959564209z">
                    </path>
                </g>
                <g opacity="1" transform="matrix(1,0,0,1,46.1879997253418,248.99899291992188)">
                    <path fill="rgb(204,172,19)" fill-opacity="1"
                        d=" M0.8429999947547913,-4.293000221252441 C0.8429999947547913,-4.293000221252441 -5.228000164031982,4.293000221252441 -5.228000164031982,4.293000221252441 C-5.228000164031982,4.293000221252441 5.228000164031982,2.6419999599456787 5.228000164031982,2.6419999599456787 C5.228000164031982,2.6419999599456787 0.8429999947547913,-4.293000221252441 0.8429999947547913,-4.293000221252441z">
                    </path>
                </g>
            </g>
        </g>
        <g transform="matrix(1,0.000004429703494679416,-0.000004429703494679416,1,55.91862487792969,-0.500091552734375)"
            opacity="1" style="display: block;">
            <g opacity="1" transform="matrix(1,0,0,1,228.52499389648438,216.218994140625)">
                <path fill="rgb(195,151,122)" fill-opacity="1"
                    d=" M-23.481000900268555,11.484000205993652 C-23.481000900268555,11.484000205993652 11.774999618530273,-18.948999404907227 11.774999618530273,-18.948999404907227 C11.774999618530273,-18.948999404907227 23.481000900268555,-19.614999771118164 23.481000900268555,-19.614999771118164 C23.481000900268555,-19.614999771118164 21.499000549316406,-5.831999778747559 21.499000549316406,-5.831999778747559 C21.499000549316406,-5.831999778747559 1.7039999961853027,19.614999771118164 1.7039999961853027,19.614999771118164 C1.7039999961853027,19.614999771118164 -23.481000900268555,11.484000205993652 -23.481000900268555,11.484000205993652z">
                </path>
            </g>
        </g>
        <g transform="matrix(1,0.000012000940841971897,-0.000012000940841971897,1,55.92021179199219,-0.501983642578125)"
            opacity="1" style="display: block;">
            <g opacity="1" transform="matrix(1,0,0,1,0,0)">
                <g opacity="1" transform="matrix(1,0,0,1,249.6219940185547,199.64599609375)">
                    <path fill="rgb(138,102,81)" fill-opacity="1"
                        d=" M-9.321000099182129,-2.375 C-9.321000099182129,-2.375 0.40299999713897705,10.739999771118164 0.40299999713897705,10.739999771118164 C0.40299999713897705,10.739999771118164 9.321000099182129,7.620999813079834 9.321000099182129,7.620999813079834 C9.321000099182129,7.620999813079834 2.2260000705718994,-10.739999771118164 2.2260000705718994,-10.739999771118164 C2.2260000705718994,-10.739999771118164 -9.321000099182129,-2.375 -9.321000099182129,-2.375z">
                    </path>
                </g>
                <g opacity="1" transform="matrix(1,0,0,1,236.27099609375,178.4530029296875)">
                    <path fill="rgb(70,70,70)" fill-opacity="1"
                        d=" M-27.125999450683594,-25.003000259399414 C-27.125999450683594,-25.003000259399414 19.145000457763672,25.003000259399414 19.145000457763672,25.003000259399414 C19.145000457763672,25.003000259399414 24.259000778198242,20.985000610351562 24.259000778198242,20.985000610351562 C24.259000778198242,20.985000610351562 27.125999450683594,15.583000183105469 27.125999450683594,15.583000183105469 C27.125999450683594,15.583000183105469 -27.125999450683594,-25.003000259399414 -27.125999450683594,-25.003000259399414z">
                    </path>
                </g>
                <g opacity="1" transform="matrix(1,0,0,1,280.6340026855469,220.375)">
                    <path fill="rgb(190,143,0)" fill-opacity="1"
                        d=" M-7.0320000648498535,-4.017000198364258 C-7.0320000648498535,-4.017000198364258 -5.631999969482422,3.493000030517578 -5.631999969482422,3.493000030517578 C-5.631999969482422,3.493000030517578 7.0329999923706055,5.265999794006348 7.0329999923706055,5.265999794006348 C7.0329999923706055,5.265999794006348 4.247000217437744,-1.3200000524520874 4.247000217437744,-1.3200000524520874 C4.247000217437744,-1.3200000524520874 -1.3980000019073486,-2.6989998817443848 -1.3980000019073486,-2.6989998817443848 C-1.3980000019073486,-2.6989998817443848 -4.769999980926514,-5.265999794006348 -4.769999980926514,-5.265999794006348 C-4.769999980926514,-5.265999794006348 -7.0320000648498535,-4.017000198364258 -7.0320000648498535,-4.017000198364258z">
                    </path>
                </g>
                <g opacity="1" transform="matrix(1,0,0,1,272.4330139160156,210.38600158691406)">
                    <path fill="rgb(133,99,0)" fill-opacity="1"
                        d=" M3.0759999752044678,-7.289999961853027 C3.0759999752044678,-7.289999961853027 6.802999973297119,7.289999961853027 6.802999973297119,7.289999961853027 C6.802999973297119,7.289999961853027 -6.802999973297119,4.107999801635742 -6.802999973297119,4.107999801635742 C-6.802999973297119,4.107999801635742 -2.3359999656677246,-2.5350000858306885 -2.3359999656677246,-2.5350000858306885 C-2.3359999656677246,-2.5350000858306885 3.0759999752044678,-7.289999961853027 3.0759999752044678,-7.289999961853027z">
                    </path>
                </g>
                <g opacity="1" transform="matrix(1,0,0,1,262.4750061035156,204.26499938964844)">
                    <path fill="rgb(143,143,143)" fill-opacity="1"
                        d=" M-13.034000396728516,-7.267000198364258 C-13.034000396728516,-7.267000198364258 3.1549999713897705,10.229000091552734 3.1549999713897705,10.229000091552734 C3.1549999713897705,10.229000091552734 13.034000396728516,-1.1690000295639038 13.034000396728516,-1.1690000295639038 C13.034000396728516,-1.1690000295639038 0.921999990940094,-10.229999542236328 0.921999990940094,-10.229999542236328 C0.921999990940094,-10.229999542236328 -13.034000396728516,-7.267000198364258 -13.034000396728516,-7.267000198364258z">
                    </path>
                </g>
                <g opacity="1" transform="matrix(1,0,0,1,251.84800720214844,193.59300231933594)">
                    <path fill="rgb(223,188,164)" fill-opacity="1"
                        d=" M-5.980999946594238,11.187000274658203 C-5.980999946594238,11.187000274658203 -2.4079999923706055,3.4059998989105225 -2.4079999923706055,3.4059998989105225 C-2.4079999923706055,3.4059998989105225 8.795999526977539,4.730999946594238 8.795999526977539,4.730999946594238 C8.795999526977539,4.730999946594238 11.54800033569336,0.4429999887943268 11.54800033569336,0.4429999887943268 C11.54800033569336,0.4429999887943268 -3.997999906539917,-11.187000274658203 -3.997999906539917,-11.187000274658203 C-3.997999906539917,-11.187000274658203 -11.54800033569336,3.677999973297119 -11.54800033569336,3.677999973297119 C-11.54800033569336,3.677999973297119 -5.980999946594238,11.187000274658203 -5.980999946594238,11.187000274658203z">
                    </path>
                </g>
                <g opacity="1" transform="matrix(1,0,0,1,262.9150085449219,192.75100708007812)">
                    <path fill="rgb(195,151,122)" fill-opacity="1"
                        d=" M3.9709999561309814,-9.0600004196167 C3.9709999561309814,-9.0600004196167 15.0649995803833,6.894999980926514 15.0649995803833,6.894999980926514 C15.0649995803833,6.894999980926514 12.593999862670898,10.345000267028809 12.593999862670898,10.345000267028809 C12.593999862670898,10.345000267028809 -15.0649995803833,-10.345000267028809 -15.0649995803833,-10.345000267028809 C-15.0649995803833,-10.345000267028809 -6.840000152587891,-9.789999961853027 -6.840000152587891,-9.789999961853027 C-6.840000152587891,-9.789999961853027 3.9709999561309814,-9.0600004196167 3.9709999561309814,-9.0600004196167z">
                    </path>
                </g>
            </g>
        </g>
        <g transform="matrix(1,0.000004884495410806267,-0.000004884495410806267,1,55.91871643066406,-0.4996795654296875)"
            opacity="1" style="display: block;">
            <g opacity="1" transform="matrix(1,0,0,1,0,0)">
                <g opacity="1" transform="matrix(1,0,0,1,134.8300018310547,67.41300201416016)">
                    <path fill="rgb(204,172,19)" fill-opacity="1"
                        d=" M-55.59000015258789,24.982999801635742 C-55.59000015258789,24.982999801635742 -1.128000020980835,11.779999732971191 -1.128000020980835,11.779999732971191 C-1.128000020980835,11.779999732971191 55.59000015258789,-4.866000175476074 55.59000015258789,-4.866000175476074 C55.59000015258789,-4.866000175476074 54.81100082397461,-13.038000106811523 54.81100082397461,-13.038000106811523 C54.81100082397461,-13.038000106811523 50.18199920654297,-24.982999801635742 50.18199920654297,-24.982999801635742 C50.18199920654297,-24.982999801635742 -3.765000104904175,-0.5299999713897705 -3.765000104904175,-0.5299999713897705 C-3.765000104904175,-0.5299999713897705 -55.59000015258789,24.982999801635742 -55.59000015258789,24.982999801635742z">
                    </path>
                </g>
                <g opacity="1" transform="matrix(1,0,0,1,127.1510009765625,67.41300201416016)">
                    <path fill="rgb(228,199,40)" fill-opacity="1"
                        d=" M57.86199951171875,-24.983999252319336 C57.86199951171875,-24.983999252319336 0.29100000858306885,-10.717000007629395 0.29100000858306885,-10.717000007629395 C0.29100000858306885,-10.717000007629395 -57.86199951171875,7.895999908447266 -57.86199951171875,7.895999908447266 C-57.86199951171875,7.895999908447266 -55.38100051879883,15.366999626159668 -55.38100051879883,15.366999626159668 C-55.38100051879883,15.366999626159668 -47.9109992980957,24.983999252319336 -47.9109992980957,24.983999252319336 C-47.9109992980957,24.983999252319336 57.86199951171875,-24.983999252319336 57.86199951171875,-24.983999252319336z">
                    </path>
                </g>
                <g opacity="1" transform="matrix(1,0,0,1,127.33999633789062,53.358001708984375)">
                    <path fill="rgb(117,87,0)" fill-opacity="1"
                        d=" M-6.258999824523926,-8.729000091552734 C-6.258999824523926,-8.729000091552734 -11.515000343322754,8.729000091552734 -11.515000343322754,8.729000091552734 C-11.515000343322754,8.729000091552734 11.515000343322754,2.186000108718872 11.515000343322754,2.186000108718872 C11.515000343322754,2.186000108718872 -6.258999824523926,-8.729000091552734 -6.258999824523926,-8.729000091552734z">
                    </path>
                </g>
                <g opacity="1" transform="matrix(1,0,0,1,194.63900756835938,56.869998931884766)">
                    <path fill="rgb(117,87,0)" fill-opacity="1"
                        d=" M-9.625,-14.440999984741211 C-9.625,-14.440999984741211 -0.41499999165534973,-11.36299991607666 -0.41499999165534973,-11.36299991607666 C-0.41499999165534973,-11.36299991607666 9.625,-4.057000160217285 9.625,-4.057000160217285 C9.625,-4.057000160217285 -2.0810000896453857,14.440999984741211 -2.0810000896453857,14.440999984741211 C-2.0810000896453857,14.440999984741211 -4.6620001792907715,9.170999526977539 -4.6620001792907715,9.170999526977539 C-4.6620001792907715,9.170999526977539 -4.2170000076293945,5.676000118255615 -4.2170000076293945,5.676000118255615 C-4.2170000076293945,5.676000118255615 -9.625,-14.440999984741211 -9.625,-14.440999984741211z">
                    </path>
                </g>
                <g opacity="1" transform="matrix(1,0,0,1,194.0469970703125,36.80500030517578)">
                    <path fill="rgb(204,172,19)" fill-opacity="1"
                        d=" M-9.032999992370605,5.624000072479248 C-9.032999992370605,5.624000072479248 -10.217000007629395,-3.7790000438690186 -10.217000007629395,-3.7790000438690186 C-10.217000007629395,-3.7790000438690186 -7.952000141143799,-16.006999969482422 -7.952000141143799,-16.006999969482422 C-7.952000141143799,-16.006999969482422 3.811000108718872,1.5 3.811000108718872,1.5 C3.811000108718872,1.5 10.217000007629395,16.006999969482422 10.217000007629395,16.006999969482422 C10.217000007629395,16.006999969482422 -9.032999992370605,5.624000072479248 -9.032999992370605,5.624000072479248z">
                    </path>
                </g>
                <g opacity="1" transform="matrix(1,0,0,1,201.55999755859375,36.80500030517578)">
                    <path fill="rgb(190,143,0)" fill-opacity="1"
                        d=" M-15.465999603271484,-16.006999969482422 C-15.465999603271484,-16.006999969482422 15.465999603271484,3.244999885559082 15.465999603271484,3.244999885559082 C15.465999603271484,3.244999885559082 2.7039999961853027,16.006999969482422 2.7039999961853027,16.006999969482422 C2.7039999961853027,16.006999969482422 -15.465999603271484,-16.006999969482422 -15.465999603271484,-16.006999969482422z">
                    </path>
                </g>
                <g opacity="1" transform="matrix(1,0,0,1,175.54400634765625,28.52400016784668)">
                    <path fill="rgb(133,99,0)" fill-opacity="1"
                        d=" M9.470000267028809,13.904999732971191 C9.470000267028809,13.904999732971191 10.550999641418457,-7.72599983215332 10.550999641418457,-7.72599983215332 C10.550999641418457,-7.72599983215332 11.199999809265137,-19.621999740600586 11.199999809265137,-19.621999740600586 C11.199999809265137,-19.621999740600586 6.99399995803833,-15.20300006866455 6.99399995803833,-15.20300006866455 C6.99399995803833,-15.20300006866455 -11.199000358581543,3.9149999618530273 -11.199000358581543,3.9149999618530273 C-11.199000358581543,3.9149999618530273 -10.652999877929688,19.621999740600586 -10.652999877929688,19.621999740600586 C-10.652999877929688,19.621999740600586 9.470000267028809,13.904999732971191 9.470000267028809,13.904999732971191z">
                    </path>
                </g>
                <g opacity="1" transform="matrix(1,0,0,1,163.96499633789062,16.58099937438965)">
                    <path fill="rgb(190,143,0)" fill-opacity="1"
                        d=" M-14.062000274658203,-4.859000205993652 C-14.062000274658203,-4.859000205993652 -15.723999977111816,4.2179999351501465 -15.723999977111816,4.2179999351501465 C-15.723999977111816,4.2179999351501465 -6.730999946594238,12.015000343322754 -6.730999946594238,12.015000343322754 C-6.730999946594238,12.015000343322754 1.7970000505447388,16.33099937438965 1.7970000505447388,16.33099937438965 C1.7970000505447388,16.33099937438965 15.722999572753906,0.3959999978542328 15.722999572753906,0.3959999978542328 C15.722999572753906,0.3959999978542328 -9.666999816894531,-16.33099937438965 -9.666999816894531,-16.33099937438965 C-9.666999816894531,-16.33099937438965 -14.062000274658203,-4.859000205993652 -14.062000274658203,-4.859000205993652z">
                    </path>
                </g>
                <g opacity="1" transform="matrix(1,0,0,1,152.3090057373047,38.17100143432617)">
                    <path fill="rgb(204,172,19)" fill-opacity="1"
                        d=" M13.45300006866455,-5.260000228881836 C13.45300006866455,-5.260000228881836 -4.067999839782715,-17.371999740600586 -4.067999839782715,-17.371999740600586 C-4.067999839782715,-17.371999740600586 -9.538999557495117,-3.7149999141693115 -9.538999557495117,-3.7149999141693115 C-9.538999557495117,-3.7149999141693115 -13.45300006866455,17.371999740600586 -13.45300006866455,17.371999740600586 C-13.45300006866455,17.371999740600586 12.581999778747559,9.973999977111816 12.581999778747559,9.973999977111816 C12.581999778747559,9.973999977111816 13.45300006866455,-5.260000228881836 13.45300006866455,-5.260000228881836z">
                    </path>
                </g>
                <g opacity="1" transform="matrix(1,0,0,1,136.55999755859375,10.71500015258789)">
                    <path fill="rgb(204,172,19)" fill-opacity="1"
                        d=" M-17.73699951171875,8.35200023651123 C-17.73699951171875,8.35200023651123 1.656999945640564,10.46500015258789 1.656999945640564,10.46500015258789 C1.656999945640564,10.46500015258789 11.680999755859375,10.083999633789062 11.680999755859375,10.083999633789062 C11.680999755859375,10.083999633789062 17.73699951171875,-10.46500015258789 17.73699951171875,-10.46500015258789 C17.73699951171875,-10.46500015258789 -17.73699951171875,8.35200023651123 -17.73699951171875,8.35200023651123z">
                    </path>
                </g>
                <g opacity="1" transform="matrix(1,0,0,1,133.5330047607422,37.305999755859375)">
                    <path fill="rgb(190,143,0)" fill-opacity="1"
                        d=" M14.708999633789062,-16.507999420166016 C14.708999633789062,-16.507999420166016 -14.708999633789062,-18.238000869750977 -14.708999633789062,-18.238000869750977 C-14.708999633789062,-18.238000869750977 -8.47700023651123,-4.182000160217285 -8.47700023651123,-4.182000160217285 C-8.47700023651123,-4.182000160217285 5.322999954223633,18.238000869750977 5.322999954223633,18.238000869750977 C5.322999954223633,18.238000869750977 14.708999633789062,-16.507999420166016 14.708999633789062,-16.507999420166016z">
                    </path>
                </g>
                <g opacity="1" transform="matrix(1,0,0,1,75.24500274658203,98.46499633789062)">
                    <path fill="rgb(117,87,0)" fill-opacity="1"
                        d=" M-11.164999961853027,1.128000020980835 C-11.164999961853027,1.128000020980835 11.163999557495117,6.068999767303467 11.163999557495117,6.068999767303467 C11.163999557495117,6.068999767303467 7.671000003814697,-1.7730000019073486 7.671000003814697,-1.7730000019073486 C7.671000003814697,-1.7730000019073486 3.994999885559082,-6.068999767303467 3.994999885559082,-6.068999767303467 C3.994999885559082,-6.068999767303467 -3.4159998893737793,-4.281000137329102 -3.4159998893737793,-4.281000137329102 C-3.4159998893737793,-4.281000137329102 -11.164999961853027,1.128000020980835 -11.164999961853027,1.128000020980835z">
                    </path>
                </g>
                <g opacity="1" transform="matrix(1,0,0,1,122.0260009765625,33.52000045776367)">
                    <path fill="rgb(204,172,19)" fill-opacity="1"
                        d=" M16.829999923706055,22.023000717163086 C16.829999923706055,22.023000717163086 0,12.76200008392334 0,12.76200008392334 C0,12.76200008392334 -10.503999710083008,8.269000053405762 -10.503999710083008,8.269000053405762 C-10.503999710083008,8.269000053405762 -16.829999923706055,3.502000093460083 -16.829999923706055,3.502000093460083 C-16.829999923706055,3.502000093460083 -14.177000045776367,-6.7779998779296875 -14.177000045776367,-6.7779998779296875 C-14.177000045776367,-6.7779998779296875 -9.939000129699707,-14.97700023651123 -9.939000129699707,-14.97700023651123 C-9.939000129699707,-14.97700023651123 -7.311999797821045,-22.023000717163086 -7.311999797821045,-22.023000717163086 C-7.311999797821045,-22.023000717163086 -3.2019999027252197,-14.45300006866455 -3.2019999027252197,-14.45300006866455 C-3.2019999027252197,-14.45300006866455 16.829999923706055,22.023000717163086 16.829999923706055,22.023000717163086z">
                    </path>
                </g>
                <g opacity="1" transform="matrix(1,0,0,1,97.93800354003906,26.639999389648438)">
                    <path fill="rgb(190,143,0)" fill-opacity="1"
                        d=" M7.258999824523926,10.381999969482422 C7.258999824523926,10.381999969482422 -2.430999994277954,7.304999828338623 -2.430999994277954,7.304999828338623 C-2.430999994277954,7.304999828338623 -12.10099983215332,-0.32499998807907104 -12.10099983215332,-0.32499998807907104 C-12.10099983215332,-0.32499998807907104 -14.149999618530273,-10.381999969482422 -14.149999618530273,-10.381999969482422 C-14.149999618530273,-10.381999969482422 14.149999618530273,-8.095999717712402 14.149999618530273,-8.095999717712402 C14.149999618530273,-8.095999717712402 7.258999824523926,10.381999969482422 7.258999824523926,10.381999969482422z">
                    </path>
                </g>
                <g opacity="1" transform="matrix(1,0,0,1,90.6500015258789,47.36000061035156)">
                    <path fill="rgb(133,99,0)" fill-opacity="1"
                        d=" M14.54699993133545,-10.338000297546387 C14.54699993133545,-10.338000297546387 -4.813000202178955,-21.04599952697754 -4.813000202178955,-21.04599952697754 C-4.813000202178955,-21.04599952697754 -14.54699993133545,-8.067000389099121 -14.54699993133545,-8.067000389099121 C-14.54699993133545,-8.067000389099121 -8.020000457763672,4.613999843597412 -8.020000457763672,4.613999843597412 C-8.020000457763672,4.613999843597412 2.934000015258789,21.04599952697754 2.934000015258789,21.04599952697754 C2.934000015258789,21.04599952697754 11.930000305175781,1.440999984741211 11.930000305175781,1.440999984741211 C11.930000305175781,1.440999984741211 14.54699993133545,-10.338000297546387 14.54699993133545,-10.338000297546387z">
                    </path>
                </g>
                <g opacity="1" transform="matrix(1,0,0,1,67.64399719238281,89.24299621582031)">
                    <path fill="rgb(133,99,0)" fill-opacity="1"
                        d=" M-7.199999809265137,-11.303000450134277 C-7.199999809265137,-11.303000450134277 -11.595999717712402,14.163999557495117 -11.595999717712402,14.163999557495117 C-11.595999717712402,14.163999557495117 11.595999717712402,3.1530001163482666 11.595999717712402,3.1530001163482666 C11.595999717712402,3.1530001163482666 1.6460000276565552,-13.9350004196167 1.6460000276565552,-13.9350004196167 C1.6460000276565552,-13.9350004196167 -2.5820000171661377,-14.163999557495117 -2.5820000171661377,-14.163999557495117 C-2.5820000171661377,-14.163999557495117 -7.199999809265137,-11.303000450134277 -7.199999809265137,-11.303000450134277z">
                    </path>
                </g>
                <g opacity="1" transform="matrix(1,0,0,1,78.8949966430664,53.8489990234375)">
                    <path fill="rgb(190,143,0)" fill-opacity="1"
                        d=" M-2.7920000553131104,-14.557000160217285 C-2.7920000553131104,-14.557000160217285 -11.567999839782715,-4.539999961853027 -11.567999839782715,-4.539999961853027 C-11.567999839782715,-4.539999961853027 -14.689000129699707,2.9649999141693115 -14.689000129699707,2.9649999141693115 C-14.689000129699707,2.9649999141693115 -4.23199987411499,7.564000129699707 -4.23199987411499,7.564000129699707 C-4.23199987411499,7.564000129699707 14.689000129699707,14.557000160217285 14.689000129699707,14.557000160217285 C14.689000129699707,14.557000160217285 -2.7920000553131104,-14.557000160217285 -2.7920000553131104,-14.557000160217285z">
                    </path>
                </g>
                <g opacity="1" transform="matrix(1,0,0,1,60.637001037597656,48.053001403808594)">
                    <path fill="rgb(204,172,19)" fill-opacity="1"
                        d=" M15.467000007629395,-8.76099967956543 C15.467000007629395,-8.76099967956543 -15.467000007629395,1.6230000257492065 -15.467000007629395,1.6230000257492065 C-15.467000007629395,1.6230000257492065 3.569999933242798,8.76099967956543 3.569999933242798,8.76099967956543 C3.569999933242798,8.76099967956543 15.467000007629395,-8.76099967956543 15.467000007629395,-8.76099967956543z">
                    </path>
                </g>
                <g opacity="1" transform="matrix(1,0,0,1,70.3499984741211,69.35900115966797)">
                    <path fill="rgb(204,172,19)" fill-opacity="1"
                        d=" M-6.144000053405762,-12.545999526977539 C-6.144000053405762,-12.545999526977539 -23.232999801635742,12.545999526977539 -23.232999801635742,12.545999526977539 C-23.232999801635742,12.545999526977539 -1.0609999895095825,5.948999881744385 -1.0609999895095825,5.948999881744385 C-1.0609999895095825,5.948999881744385 23.232999801635742,-0.953000009059906 23.232999801635742,-0.953000009059906 C23.232999801635742,-0.953000009059906 -6.144000053405762,-12.545999526977539 -6.144000053405762,-12.545999526977539z">
                    </path>
                </g>
                <g opacity="1" transform="matrix(1,0,0,1,107.80500030517578,61.016998291015625)">
                    <path fill="rgb(190,143,0)" fill-opacity="1"
                        d=" M-2.6080000400543213,-23.9950008392334 C-2.6080000400543213,-23.9950008392334 -14.220999717712402,7.388999938964844 -14.220999717712402,7.388999938964844 C-14.220999717712402,7.388999938964844 -1.0609999895095825,23.9950008392334 -1.0609999895095825,23.9950008392334 C-1.0609999895095825,23.9950008392334 8.020999908447266,1.069000005722046 8.020999908447266,1.069000005722046 C8.020999908447266,1.069000005722046 14.220999717712402,-14.734000205993652 14.220999717712402,-14.734000205993652 C14.220999717712402,-14.734000205993652 -2.6080000400543213,-23.9950008392334 -2.6080000400543213,-23.9950008392334z">
                    </path>
                </g>
                <g opacity="1" transform="matrix(1,0,0,1,144.34800720214844,128.73599243164062)">
                    <path fill="rgb(223,188,164)" fill-opacity="1"
                        d=" M46.073001861572266,-66.18900299072266 C46.073001861572266,-66.18900299072266 65.10800170898438,11.895999908447266 65.10800170898438,11.895999908447266 C65.10800170898438,11.895999908447266 30.499000549316406,24.22599983215332 30.499000549316406,24.22599983215332 C30.499000549316406,24.22599983215332 25.920000076293945,32.43899917602539 25.920000076293945,32.43899917602539 C25.920000076293945,32.43899917602539 22.711999893188477,43.04499816894531 22.711999893188477,43.04499816894531 C22.711999893188477,43.04499816894531 7.827000141143799,53.37200164794922 7.827000141143799,53.37200164794922 C7.827000141143799,53.37200164794922 -4.543000221252441,66.18900299072266 -4.543000221252441,66.18900299072266 C-4.543000221252441,66.18900299072266 -26.094999313354492,26.413000106811523 -26.094999313354492,26.413000106811523 C-26.094999313354492,26.413000106811523 -40.770999908447266,4.827000141143799 -40.770999908447266,4.827000141143799 C-40.770999908447266,4.827000141143799 -52.50299835205078,-15 -52.50299835205078,-15 C-52.50299835205078,-15 -54.983001708984375,-24.76099967956543 -54.983001708984375,-24.76099967956543 C-54.983001708984375,-24.76099967956543 -65.10800170898438,-36.3390007019043 -65.10800170898438,-36.3390007019043 C-65.10800170898438,-36.3390007019043 46.073001861572266,-66.18900299072266 46.073001861572266,-66.18900299072266z">
                    </path>
                </g>
                <g opacity="1" transform="matrix(1,0,0,1,105.6729965209961,116.98999786376953)">
                    <path fill="rgb(138,102,81)" fill-opacity="1"
                        d=" M7.735000133514404,4.958000183105469 C7.735000133514404,4.958000183105469 1.840999960899353,-4.958000183105469 1.840999960899353,-4.958000183105469 C1.840999960899353,-4.958000183105469 -7.735000133514404,0 -7.735000133514404,0 C-7.735000133514404,0 0.574999988079071,3.9170000553131104 0.574999988079071,3.9170000553131104 C0.574999988079071,3.9170000553131104 7.735000133514404,4.958000183105469 7.735000133514404,4.958000183105469z">
                    </path>
                </g>
                <g opacity="1" transform="matrix(1,0,0,1,135.31900024414062,137.75)">
                    <path fill="rgb(195,151,122)" fill-opacity="1"
                        d=" M-12.04800033569336,-57.17599868774414 C-12.04800033569336,-57.17599868774414 18.086999893188477,22.677000045776367 18.086999893188477,22.677000045776367 C18.086999893188477,22.677000045776367 30.44300079345703,22.618999481201172 30.44300079345703,22.618999481201172 C30.44300079345703,22.618999481201172 31.742000579833984,34.03099822998047 31.742000579833984,34.03099822998047 C31.742000579833984,34.03099822998047 4.486000061035156,57.17499923706055 4.486000061035156,57.17499923706055 C4.486000061035156,57.17499923706055 -14.369999885559082,25.236000061035156 -14.369999885559082,25.236000061035156 C-14.369999885559082,25.236000061035156 -16.4950008392334,18.448999404907227 -16.4950008392334,18.448999404907227 C-16.4950008392334,18.448999404907227 -19.975000381469727,15.743000030517578 -19.975000381469727,15.743000030517578 C-19.975000381469727,15.743000030517578 -31.742000579833984,-4.188000202178955 -31.742000579833984,-4.188000202178955 C-31.742000579833984,-4.188000202178955 -13.548999786376953,-14.994999885559082 -13.548999786376953,-14.994999885559082 C-13.548999786376953,-14.994999885559082 -19.523000717163086,-26.319000244140625 -19.523000717163086,-26.319000244140625 C-19.523000717163086,-26.319000244140625 -9.574000358581543,-32.159000396728516 -9.574000358581543,-32.159000396728516 C-9.574000358581543,-32.159000396728516 -22.32900047302246,-54.415000915527344 -22.32900047302246,-54.415000915527344 C-22.32900047302246,-54.415000915527344 -12.04800033569336,-57.17599868774414 -12.04800033569336,-57.17599868774414z">
                    </path>
                </g>
                <g opacity="1" transform="matrix(1,0,0,1,152.68299865722656,94.01699829101562)">
                    <path fill="rgb(195,151,122)" fill-opacity="1"
                        d=" M-11.348999977111816,-1.7680000066757202 C-11.348999977111816,-1.7680000066757202 -0.7649999856948853,-1.8370000123977661 -0.7649999856948853,-1.8370000123977661 C-0.7649999856948853,-1.8370000123977661 11.348999977111816,14.602999687194824 11.348999977111816,14.602999687194824 C11.348999977111816,14.602999687194824 9.029999732971191,-4.77400016784668 9.029999732971191,-4.77400016784668 C9.029999732971191,-4.77400016784668 2.315000057220459,-14.602999687194824 2.315000057220459,-14.602999687194824 C2.315000057220459,-14.602999687194824 -11.348999977111816,-1.7680000066757202 -11.348999977111816,-1.7680000066757202z">
                    </path>
                </g>
                <g opacity="1" transform="matrix(1,0,0,1,178.18899536132812,88.19999694824219)">
                    <path fill="rgb(195,151,122)" fill-opacity="1"
                        d=" M-9.29800033569336,-12.824999809265137 C-9.29800033569336,-12.824999809265137 -4.485000133514404,12.824999809265137 -4.485000133514404,12.824999809265137 C-4.485000133514404,12.824999809265137 0.5509999990463257,-5.104000091552734 0.5509999990463257,-5.104000091552734 C0.5509999990463257,-5.104000091552734 9.29800033569336,-10.45199966430664 9.29800033569336,-10.45199966430664 C9.29800033569336,-10.45199966430664 -9.29800033569336,-12.824999809265137 -9.29800033569336,-12.824999809265137z">
                    </path>
                </g>
                <g opacity="1" transform="matrix(1,0,0,1,146.7169952392578,85.83100128173828)">
                    <path fill="rgb(133,99,0)" fill-opacity="1"
                        d=" M8.281000137329102,-6.418000221252441 C8.281000137329102,-6.418000221252441 -8.281000137329102,-0.20600000023841858 -8.281000137329102,-0.20600000023841858 C-8.281000137329102,-0.20600000023841858 -5.382999897003174,6.418000221252441 -5.382999897003174,6.418000221252441 C-5.382999897003174,6.418000221252441 8.281000137329102,-6.418000221252441 8.281000137329102,-6.418000221252441z">
                    </path>
                </g>
                <g opacity="1" transform="matrix(1,0,0,1,178.18899536132812,74.21499633789062)">
                    <path fill="rgb(133,99,0)" fill-opacity="1"
                        d=" M-9.29800033569336,1.159000039100647 C-9.29800033569336,1.159000039100647 7.75600004196167,-3.5329999923706055 7.75600004196167,-3.5329999923706055 C7.75600004196167,-3.5329999923706055 9.29800033569336,3.5329999923706055 9.29800033569336,3.5329999923706055 C9.29800033569336,3.5329999923706055 -9.29800033569336,1.159000039100647 -9.29800033569336,1.159000039100647z">
                    </path>
                </g>
                <g opacity="1" transform="matrix(1,0,0,1,174.7239990234375,122.5459976196289)">
                    <path fill="rgb(117,87,0)" fill-opacity="1"
                        d=" M-13.895999908447266,4.302000045776367 C-13.895999908447266,4.302000045776367 -0.4830000102519989,-4.789000034332275 -0.4830000102519989,-4.789000034332275 C-0.4830000102519989,-4.789000034332275 13.895999908447266,-3.819999933242798 13.895999908447266,-3.819999933242798 C13.895999908447266,-3.819999933242798 2.3940000534057617,4.789000034332275 2.3940000534057617,4.789000034332275 C2.3940000534057617,4.789000034332275 -13.895999908447266,4.302000045776367 -13.895999908447266,4.302000045776367z">
                    </path>
                </g>
                <g opacity="1" transform="matrix(1,0,0,1,173.9810028076172,124.41000366210938)">
                    <path fill="rgb(181,138,0)" fill-opacity="1"
                        d=" M18.60300064086914,-8.220000267028809 C18.60300064086914,-8.220000267028809 2.6649999618530273,1.9819999933242798 2.6649999618530273,1.9819999933242798 C2.6649999618530273,1.9819999933242798 -18.601999282836914,2.5950000286102295 -18.601999282836914,2.5950000286102295 C-18.601999282836914,2.5950000286102295 4.111000061035156,8.220000267028809 4.111000061035156,8.220000267028809 C4.111000061035156,8.220000267028809 18.60300064086914,-8.220000267028809 18.60300064086914,-8.220000267028809z">
                    </path>
                </g>
                <g opacity="1" transform="matrix(1,0,0,1,102.49299621582031,98.53500366210938)">
                    <path fill="rgb(133,99,0)" fill-opacity="1"
                        d=" M10.498000144958496,-15.201000213623047 C10.498000144958496,-15.201000213623047 23.253000259399414,7.056000232696533 23.253000259399414,7.056000232696533 C23.253000259399414,7.056000232696533 13.303000450134277,12.897000312805176 13.303000450134277,12.897000312805176 C13.303000450134277,12.897000312805176 8.111000061035156,4.460000038146973 8.111000061035156,4.460000038146973 C8.111000061035156,4.460000038146973 -10.64799976348877,15.201000213623047 -10.64799976348877,15.201000213623047 C-10.64799976348877,15.201000213623047 -23.253000259399414,-6.138000011444092 -23.253000259399414,-6.138000011444092 C-23.253000259399414,-6.138000011444092 10.498000144958496,-15.201000213623047 10.498000144958496,-15.201000213623047z">
                    </path>
                </g>
                <g opacity="1" transform="matrix(1,0,0,1,160.24600219726562,162.37100219726562)">
                    <path fill="rgb(138,102,81)" fill-opacity="1"
                        d=" M14.60099983215332,-9.40999984741211 C14.60099983215332,-9.40999984741211 -14.600000381469727,0.7580000162124634 -14.600000381469727,0.7580000162124634 C-14.600000381469727,0.7580000162124634 6.814000129699707,9.40999984741211 6.814000129699707,9.40999984741211 C6.814000129699707,9.40999984741211 14.60099983215332,-9.40999984741211 14.60099983215332,-9.40999984741211z">
                    </path>
                </g>
                <g opacity="1" transform="matrix(1,0,0,1,114.81400299072266,137.6020050048828)">
                    <path fill="rgb(138,102,81)" fill-opacity="1"
                        d=" M6.848999977111816,-8.744999885559082 C6.848999977111816,-8.744999885559082 2.3949999809265137,8.744999885559082 2.3949999809265137,8.744999885559082 C2.3949999809265137,8.744999885559082 -6.848999977111816,-1.4459999799728394 -6.848999977111816,-1.4459999799728394 C-6.848999977111816,-1.4459999799728394 6.848999977111816,-8.744999885559082 6.848999977111816,-8.744999885559082z">
                    </path>
                </g>
                <g opacity="1" transform="matrix(1,0,0,1,125.34700012207031,152.31300354003906)">
                    <path fill="rgb(138,102,81)" fill-opacity="1"
                        d=" M9.949999809265137,-10.67300033569336 C9.949999809265137,-10.67300033569336 -4.400000095367432,10.67300033569336 -4.400000095367432,10.67300033569336 C-4.400000095367432,10.67300033569336 -9.949999809265137,1.1490000486373901 -9.949999809265137,1.1490000486373901 C-9.949999809265137,1.1490000486373901 -3.322000026702881,-5.965000152587891 -3.322000026702881,-5.965000152587891 C-3.322000026702881,-5.965000152587891 9.949999809265137,-10.67300033569336 9.949999809265137,-10.67300033569336z">
                    </path>
                </g>
                <g opacity="1" transform="matrix(1,0,0,1,166.3280029296875,91.99700164794922)">
                    <path fill="rgb(232,201,182)" fill-opacity="1"
                        d=" M2.562999963760376,-16.62299919128418 C2.562999963760376,-16.62299919128418 -11.331000328063965,-12.583999633789062 -11.331000328063965,-12.583999633789062 C-11.331000328063965,-12.583999633789062 -2.2960000038146973,16.62299919128418 -2.2960000038146973,16.62299919128418 C-2.2960000038146973,16.62299919128418 11.331000328063965,12.51200008392334 11.331000328063965,12.51200008392334 C11.331000328063965,12.51200008392334 2.562999963760376,-16.62299919128418 2.562999963760376,-16.62299919128418z">
                    </path>
                </g>
                <g opacity="1" transform="matrix(1,0,0,1,170.8459930419922,108.94300079345703)">
                    <path fill="rgb(138,102,81)" fill-opacity="1"
                        d=" M6.814000129699707,-4.434000015258789 C6.814000129699707,-4.434000015258789 2.055000066757202,4.434000015258789 2.055000066757202,4.434000015258789 C2.055000066757202,4.434000015258789 -6.814000129699707,-0.3240000009536743 -6.814000129699707,-0.3240000009536743 C-6.814000129699707,-0.3240000009536743 6.814000129699707,-4.434000015258789 6.814000129699707,-4.434000015258789z">
                    </path>
                </g>
            </g>
        </g>
        <g transform="matrix(1,0.000004884495410806267,-0.000004884495410806267,1,55.91871643066406,-0.4996795654296875)"
            opacity="1" style="display: block;">
            <g opacity="1" transform="matrix(1,0,0,1,0,0)">
                <g opacity="1" transform="matrix(1,0,0,1,119.43699645996094,137.6020050048828)">
                    <path fill="rgb(117,87,0)" fill-opacity="1"
                        d=" M4.039000034332275,-15.859999656677246 C4.039000034332275,-15.859999656677246 15.859999656677246,4.039000034332275 15.859999656677246,4.039000034332275 C15.859999656677246,4.039000034332275 -4.039999961853027,15.859999656677246 -4.039999961853027,15.859999656677246 C-4.039999961853027,15.859999656677246 -15.859999656677246,-4.039000034332275 -15.859999656677246,-4.039000034332275 C-15.859999656677246,-4.039000034332275 4.039000034332275,-15.859999656677246 4.039000034332275,-15.859999656677246z M-8.744999885559082,-2.2269999980926514 C-8.744999885559082,-2.2269999980926514 -2.2279999256134033,8.746000289916992 -2.2279999256134033,8.746000289916992 C-2.2279999256134033,8.746000289916992 8.744999885559082,2.2269999980926514 8.744999885559082,2.2269999980926514 C8.744999885559082,2.2269999980926514 2.2269999980926514,-8.744999885559082 2.2269999980926514,-8.744999885559082 C2.2269999980926514,-8.744999885559082 -8.744999885559082,-2.2269999980926514 -8.744999885559082,-2.2269999980926514z">
                    </path>
                </g>
                <g opacity="1" transform="matrix(1,0,0,1,113.19499969482422,127.09500122070312)">
                    <path fill="rgb(181,138,0)" fill-opacity="1"
                        d=" M-2.111999988555908,-9.060999870300293 C-2.111999988555908,-9.060999870300293 -6.947000026702881,-6.188000202178955 -6.947000026702881,-6.188000202178955 C-6.947000026702881,-6.188000202178955 2.1110000610351562,9.060999870300293 2.1110000610351562,9.060999870300293 C2.1110000610351562,9.060999870300293 6.947000026702881,6.188000202178955 6.947000026702881,6.188000202178955 C6.947000026702881,6.188000202178955 -2.111999988555908,-9.060999870300293 -2.111999988555908,-9.060999870300293z">
                    </path>
                </g>
            </g>
        </g>

        <g transform="matrix(1,0.000004884495410806267,-0.000004884495410806267,1,55.91871643066406,-0.4996795654296875)"
            opacity="1" style="display: block;">
            <g opacity="1" transform="matrix(1,0,0,1,0,0)">
                <g opacity="1" transform="matrix(1,0,0,1,152.72000122070312,100.322998046875)">
                    <path fill="rgb(43,43,43)" fill-opacity="1"
                        d=" M4.260000228881836,0 C4.260000228881836,2.3529999256134033 2.3529999256134033,4.260000228881836 0.0010000000474974513,4.260000228881836 C-2.3519999980926514,4.260000228881836 -4.260000228881836,2.3529999256134033 -4.260000228881836,0 C-4.260000228881836,-2.3529999256134033 -2.3519999980926514,-4.260000228881836 0.0010000000474974513,-4.260000228881836 C2.3529999256134033,-4.260000228881836 4.260000228881836,-2.3529999256134033 4.260000228881836,0z">
                    </path>
                </g>
                <g opacity="1" transform="matrix(1,0,0,1,181.48599243164062,90.80000305175781)">
                    <path fill="rgb(43,43,43)" fill-opacity="1"
                        d=" M4.260000228881836,0 C4.260000228881836,2.3519999980926514 2.3519999980926514,4.258999824523926 -0.0010000000474974513,4.258999824523926 C-2.3529999256134033,4.258999824523926 -4.260000228881836,2.3519999980926514 -4.260000228881836,0 C-4.260000228881836,-2.3529999256134033 -2.3529999256134033,-4.258999824523926 -0.0010000000474974513,-4.258999824523926 C2.3519999980926514,-4.258999824523926 4.260000228881836,-2.3529999256134033 4.260000228881836,0z">
                    </path>
                </g>
            </g>
        </g>

    </g>
</svg>