<svg xmlns="http://www.w3.org/2000/svg" viewBox="0 0 400 400" width="100%" height="100%"
    preserveAspectRatio="xMidYMid meet">
    <defs>
        <clipPath id="__lottie_element_249">
            <rect width="400" height="400" x="0" y="0"></rect>
        </clipPath>
    </defs>
    <g clip-path="url(#__lottie_element_249)">
        <g transform="matrix(1,0,0,1,93.39799499511719,-0.25)" opacity="1" style="display: block;">
            <g opacity="1" transform="matrix(1,0,0,1,0,0)">
                <g opacity="0.1" transform="matrix(1,0,0,1,101.18800354003906,390.4590148925781)">
                    <path fill="rgb(43,43,43)" fill-opacity="1"
                        d=" M-101.18800354003906,-2.1600000858306885 C-101.18800354003906,-2.1600000858306885 2.700000047683716,-9.791000366210938 2.700000047683716,-9.791000366210938 C2.700000047683716,-9.791000366210938 101.18800354003906,-1.871999979019165 101.18800354003906,-1.871999979019165 C101.18800354003906,-1.871999979019165 7.0920000076293945,9.791000366210938 7.0920000076293945,9.791000366210938 C7.0920000076293945,9.791000366210938 -101.18800354003906,-2.1600000858306885 -101.18800354003906,-2.1600000858306885z">
                    </path>
                </g>
                <g opacity="1" transform="matrix(1,0,0,1,92.80000305175781,384.2309875488281)">
                    <path fill="rgb(39,120,139)" fill-opacity="1"
                        d=" M-2.0160000324249268,3.7070000171661377 C-2.0160000324249268,3.7070000171661377 20.086000442504883,3.994999885559082 20.086000442504883,3.994999885559082 C20.086000442504883,3.994999885559082 20.013999938964844,-0.8999999761581421 20.013999938964844,-0.8999999761581421 C20.013999938964844,-0.8999999761581421 -20.086000442504883,-5.074999809265137 -20.086000442504883,-5.074999809265137 C-20.086000442504883,-5.074999809265137 -6.767000198364258,5.074999809265137 -6.767000198364258,5.074999809265137 C-6.767000198364258,5.074999809265137 -2.0160000324249268,3.7070000171661377 -2.0160000324249268,3.7070000171661377z">
                    </path>
                </g>
                <g opacity="1" transform="matrix(1,0,0,1,72.64199829101562,386.9670104980469)">
                    <path fill="rgb(39,120,139)" fill-opacity="1"
                        d=" M-10.295999526977539,-5.796000003814697 C-10.295999526977539,-5.796000003814697 -18.21500015258789,0.03500000014901161 -18.21500015258789,0.03500000014901161 C-18.21500015258789,0.03500000014901161 -18.28700065612793,4.859000205993652 -18.28700065612793,4.859000205993652 C-18.28700065612793,4.859000205993652 18.28700065612793,5.796000003814697 18.28700065612793,5.796000003814697 C18.28700065612793,5.796000003814697 18.14299964904785,0.9710000157356262 18.14299964904785,0.9710000157356262 C18.14299964904785,0.9710000157356262 -10.295999526977539,-5.796000003814697 -10.295999526977539,-5.796000003814697z">
                    </path>
                </g>
                <g opacity="1" transform="matrix(1,0,0,1,104.5,307.1610107421875)">
                    <path fill="rgb(79,82,82)" fill-opacity="1"
                        d=" M-3.996000051498413,-33.54899978637695 C-3.996000051498413,-33.54899978637695 3.7079999446868896,-36.500999450683594 3.7079999446868896,-36.500999450683594 C3.7079999446868896,-36.500999450683594 29.40999984741211,-34.70199966430664 29.40999984741211,-34.70199966430664 C29.40999984741211,-34.70199966430664 8.602999687194824,17.709999084472656 8.602999687194824,17.709999084472656 C8.602999687194824,17.709999084472656 -13.571999549865723,36.500999450683594 -13.571999549865723,36.500999450683594 C-13.571999549865723,36.500999450683594 -29.40999984741211,33.619998931884766 -29.40999984741211,33.619998931884766 C-29.40999984741211,33.619998931884766 -28.402000427246094,-7.559999942779541 -28.402000427246094,-7.559999942779541 C-28.402000427246094,-7.559999942779541 -3.996000051498413,-33.54899978637695 -3.996000051498413,-33.54899978637695z">
                    </path>
                </g>
                <g opacity="1" transform="matrix(1,0,0,1,94.09600067138672,348.125)">
                    <path fill="rgb(110,112,115)" fill-opacity="1"
                        d=" M19.006999969482422,-23.253999710083008 C19.006999969482422,-23.253999710083008 2.9509999752044678,15.767000198364258 2.9509999752044678,15.767000198364258 C2.9509999752044678,15.767000198364258 -6.047999858856201,19.29599952697754 -6.047999858856201,19.29599952697754 C-6.047999858856201,19.29599952697754 -19.006999969482422,23.2549991607666 -19.006999969482422,23.2549991607666 C-19.006999969482422,23.2549991607666 -7.48799991607666,-17.062000274658203 -7.48799991607666,-17.062000274658203 C-7.48799991607666,-17.062000274658203 19.006999969482422,-23.253999710083008 19.006999969482422,-23.253999710083008z">
                    </path>
                </g>
                <g opacity="1" transform="matrix(1,0,0,1,95.10399627685547,373.6109924316406)">
                    <path fill="rgb(48,143,166)" fill-opacity="1"
                        d=" M1.944000005722046,-9.718999862670898 C1.944000005722046,-9.718999862670898 17.711000442504883,9.718999862670898 17.711000442504883,9.718999862670898 C17.711000442504883,9.718999862670898 -17.566999435424805,9.718999862670898 -17.566999435424805,9.718999862670898 C-17.566999435424805,9.718999862670898 -17.711000442504883,2.1600000858306885 -17.711000442504883,2.1600000858306885 C-17.711000442504883,2.1600000858306885 -13.822999954223633,-7.702000141143799 -13.822999954223633,-7.702000141143799 C-13.822999954223633,-7.702000141143799 1.944000005722046,-9.718999862670898 1.944000005722046,-9.718999862670898z">
                    </path>
                </g>
                <g opacity="1" transform="matrix(1,0,0,1,66.52300262451172,314.072998046875)">
                    <path fill="rgb(110,112,115)" fill-opacity="1"
                        d=" M24.98200035095215,-12.312000274658203 C24.98200035095215,-12.312000274658203 20.086999893188477,16.989999771118164 20.086999893188477,16.989999771118164 C20.086999893188477,16.989999771118164 -1.225000023841858,34.91699981689453 -1.225000023841858,34.91699981689453 C-1.225000023841858,34.91699981689453 -17.135000228881836,15.90999984741211 -17.135000228881836,15.90999984741211 C-17.135000228881836,15.90999984741211 -24.98200035095215,-19.510000228881836 -24.98200035095215,-19.510000228881836 C-24.98200035095215,-19.510000228881836 0.21699999272823334,-34.917999267578125 0.21699999272823334,-34.917999267578125 C0.21699999272823334,-34.917999267578125 24.98200035095215,-12.312000274658203 24.98200035095215,-12.312000274658203z">
                    </path>
                </g>
                <g opacity="1" transform="matrix(1,0,0,1,107.52300262451172,277.7149963378906)">
                    <path fill="rgb(70,70,70)" fill-opacity="1"
                        d=" M18.03499984741211,-16.197999954223633 C18.03499984741211,-16.197999954223633 26.386999130249023,-5.25600004196167 26.386999130249023,-5.25600004196167 C26.386999130249023,-5.25600004196167 -9.82699966430664,16.197999954223633 -9.82699966430664,16.197999954223633 C-9.82699966430664,16.197999954223633 -26.386999130249023,-4.894999980926514 -26.386999130249023,-4.894999980926514 C-26.386999130249023,-4.894999980926514 18.03499984741211,-16.197999954223633 18.03499984741211,-16.197999954223633z">
                    </path>
                </g>
                <g opacity="1" transform="matrix(1,0,0,1,67.9990005493164,352.6610107421875)">
                    <path fill="rgb(79,82,82)" fill-opacity="1"
                        d=" M18.611000061035156,-21.597999572753906 C18.611000061035156,-21.597999572753906 13.282999992370605,13.248000144958496 13.282999992370605,13.248000144958496 C13.282999992370605,13.248000144958496 3.9230000972747803,22.67799949645996 3.9230000972747803,22.67799949645996 C3.9230000972747803,22.67799949645996 -9.755999565124512,17.135000228881836 -9.755999565124512,17.135000228881836 C-9.755999565124512,17.135000228881836 -18.611000061035156,-22.67799949645996 -18.611000061035156,-22.67799949645996 C-18.611000061035156,-22.67799949645996 18.611000061035156,-21.597999572753906 18.611000061035156,-21.597999572753906z">
                    </path>
                </g>
                <g opacity="1" transform="matrix(1,0,0,1,72.60600280761719,376.9230041503906)">
                    <path fill="rgb(57,159,185)" fill-opacity="1"
                        d=" M8.675999641418457,-11.013999938964844 C8.675999641418457,-11.013999938964844 18.17799949645996,11.013999938964844 18.17799949645996,11.013999938964844 C18.17799949645996,11.013999938964844 -18.17799949645996,10.079000473022461 -18.17799949645996,10.079000473022461 C-18.17799949645996,10.079000473022461 -14.36299991607666,-7.125999927520752 -14.36299991607666,-7.125999927520752 C-14.36299991607666,-7.125999927520752 8.675999641418457,-11.013999938964844 8.675999641418457,-11.013999938964844z">
                    </path>
                </g>
            </g>
            <g opacity="1" transform="matrix(1,0,0,1,0,0)">
                <g opacity="1" transform="matrix(1,0,0,1,66.45700073242188,300.95599365234375)">
                    <path fill="rgb(70,70,70)" fill-opacity="1"
                        d=" M25.047000885009766,0.8050000071525574 C25.047000885009766,0.8050000071525574 -22.108999252319336,6.906000137329102 -22.108999252319336,6.906000137329102 C-22.108999252319336,6.906000137329102 -25.047000885009766,-6.906000137329102 -25.047000885009766,-6.906000137329102 C-25.047000885009766,-6.906000137329102 -15.168000221252441,-5.386000156402588 -15.168000221252441,-5.386000156402588 C-15.168000221252441,-5.386000156402588 25.047000885009766,0.8050000071525574 25.047000885009766,0.8050000071525574z">
                    </path>
                </g>
            </g>
        </g>
        <g transform="matrix(1,0.000006559836947417352,-0.000006559836947417352,1,93.39947509765625,-0.2506561279296875)"
            opacity="1" style="display: block;">
            <g opacity="1" transform="matrix(1,0,0,1,0,0)">
                <g opacity="1" transform="matrix(1,0,0,1,84.23200225830078,80.99199676513672)">
                    <path fill="rgb(223,188,164)" fill-opacity="1"
                        d=" M38.733001708984375,-73.68599700927734 C38.733001708984375,-73.68599700927734 7.776000022888184,-67.3499984741211 7.776000022888184,-67.3499984741211 C7.776000022888184,-67.3499984741211 -10.151000022888184,-59.57600021362305 -10.151000022888184,-59.57600021362305 C-10.151000022888184,-59.57600021362305 -25.486000061035156,-64.75800323486328 -25.486000061035156,-64.75800323486328 C-25.486000061035156,-64.75800323486328 -47.5880012512207,-64.75800323486328 -47.5880012512207,-64.75800323486328 C-47.5880012512207,-64.75800323486328 -42.04499816894531,-53.382999420166016 -42.04499816894531,-53.382999420166016 C-42.04499816894531,-53.382999420166016 -32.54199981689453,-48.63100051879883 -32.54199981689453,-48.63100051879883 C-32.54199981689453,-48.63100051879883 -38.15700149536133,-34.665000915527344 -38.15700149536133,-34.665000915527344 C-38.15700149536133,-34.665000915527344 -36.64500045776367,-20.554000854492188 -36.64500045776367,-20.554000854492188 C-36.64500045776367,-20.554000854492188 -31.389999389648438,-3.2750000953674316 -31.389999389648438,-3.2750000953674316 C-31.389999389648438,-3.2750000953674316 -21.599000930786133,10.54699993133545 -21.599000930786133,10.54699993133545 C-21.599000930786133,10.54699993133545 -25.917999267578125,11.050999641418457 -25.917999267578125,11.050999641418457 C-25.917999267578125,11.050999641418457 -29.37299919128418,14.505999565124512 -29.37299919128418,14.505999565124512 C-29.37299919128418,14.505999565124512 -31.96500015258789,6.73199987411499 -31.96500015258789,6.73199987411499 C-31.96500015258789,6.73199987411499 -38.5890007019043,-5.435999870300293 -38.5890007019043,-5.435999870300293 C-38.5890007019043,-5.435999870300293 -50.18000030517578,-2.9149999618530273 -50.18000030517578,-2.9149999618530273 C-50.18000030517578,-2.9149999618530273 -57.59600067138672,1.7640000581741333 -57.59600067138672,1.7640000581741333 C-57.59600067138672,1.7640000581741333 -46.22100067138672,21.131000518798828 -46.22100067138672,21.131000518798828 C-46.22100067138672,21.131000518798828 -38.01300048828125,31.06599998474121 -38.01300048828125,31.06599998474121 C-38.01300048828125,31.06599998474121 -37.724998474121094,38.26499938964844 -37.724998474121094,38.26499938964844 C-37.724998474121094,38.26499938964844 -32.25400161743164,47.40800094604492 -32.25400161743164,47.40800094604492 C-32.25400161743164,47.40800094604492 -28.79800033569336,51.58399963378906 -28.79800033569336,51.58399963378906 C-28.79800033569336,51.58399963378906 -29.301000595092773,56.04800033569336 -29.301000595092773,56.04800033569336 C-29.301000595092773,56.04800033569336 -15.119000434875488,64.83100128173828 -15.119000434875488,64.83100128173828 C-15.119000434875488,64.83100128173828 7.056000232696533,73.68599700927734 7.056000232696533,73.68599700927734 C7.056000232696533,73.68599700927734 13.175999641418457,67.4229965209961 13.175999641418457,67.4229965209961 C13.175999641418457,67.4229965209961 16.055999755859375,59.862998962402344 16.055999755859375,59.862998962402344 C16.055999755859375,59.862998962402344 16.055999755859375,45.895999908447266 16.055999755859375,45.895999908447266 C16.055999755859375,45.895999908447266 57.59600067138672,37.04199981689453 57.59600067138672,37.04199981689453 C57.59600067138672,37.04199981689453 50.612998962402344,-11.33899974822998 50.612998962402344,-11.33899974822998 C50.612998962402344,-11.33899974822998 52.48400115966797,-20.698999404907227 52.48400115966797,-20.698999404907227 C52.48400115966797,-20.698999404907227 49.029998779296875,-37.183998107910156 49.029998779296875,-37.183998107910156 C49.029998779296875,-37.183998107910156 45.14099884033203,-41.8650016784668 45.14099884033203,-41.8650016784668 C45.14099884033203,-41.8650016784668 38.733001708984375,-73.68599700927734 38.733001708984375,-73.68599700927734z">
                    </path>
                </g>
                <g opacity="1" transform="matrix(1,0,0,1,68.46600341796875,85.45500183105469)">
                    <path fill="rgb(195,151,122)" fill-opacity="1"
                        d=" M-13.10200023651123,-66.63099670410156 C-13.10200023651123,-66.63099670410156 -3.382999897003174,-33.72999954223633 -3.382999897003174,-33.72999954223633 C-3.382999897003174,-33.72999954223633 3.0959999561309814,-3.2769999504089355 3.0959999561309814,-3.2769999504089355 C3.0959999561309814,-3.2769999504089355 14.687999725341797,44.74399948120117 14.687999725341797,44.74399948120117 C14.687999725341797,44.74399948120117 31.82200050354004,41.43299865722656 31.82200050354004,41.43299865722656 C31.82200050354004,41.43299865722656 30.238000869750977,48.12799835205078 30.238000869750977,48.12799835205078 C30.238000869750977,48.12799835205078 31.82200050354004,55.39899826049805 31.82200050354004,55.39899826049805 C31.82200050354004,55.39899826049805 22.82200050354004,69.22200012207031 22.82200050354004,69.22200012207031 C22.82200050354004,69.22200012207031 -13.53499984741211,51.58399963378906 -13.53499984741211,51.58399963378906 C-13.53499984741211,51.58399963378906 -22.461999893188477,33.0099983215332 -22.461999893188477,33.0099983215332 C-22.461999893188477,33.0099983215332 -28.22100067138672,16.66699981689453 -28.22100067138672,16.66699981689453 C-28.22100067138672,16.66699981689453 -13.604999542236328,10.041999816894531 -13.604999542236328,10.041999816894531 C-13.604999542236328,10.041999816894531 -17.260000228881836,2.1600000858306885 -17.260000228881836,2.1600000858306885 C-17.260000228881836,2.1600000858306885 -18.250999450683594,-5.061999797821045 -18.250999450683594,-5.061999797821045 C-18.250999450683594,-5.061999797821045 -12.239999771118164,-2.8440001010894775 -12.239999771118164,-2.8440001010894775 C-12.239999771118164,-2.8440001010894775 -20.878000259399414,-25.018999099731445 -20.878000259399414,-25.018999099731445 C-20.878000259399414,-25.018999099731445 -20.80500030517578,-38.26499938964844 -20.80500030517578,-38.26499938964844 C-20.80500030517578,-38.26499938964844 -16.774999618530273,-53.09600067138672 -16.774999618530273,-53.09600067138672 C-16.774999618530273,-53.09600067138672 -24.98200035095215,-59.43199920654297 -24.98200035095215,-59.43199920654297 C-24.98200035095215,-59.43199920654297 -31.82200050354004,-69.22200012207031 -31.82200050354004,-69.22200012207031 C-31.82200050354004,-69.22200012207031 -19.8700008392334,-68.5739974975586 -19.8700008392334,-68.5739974975586 C-19.8700008392334,-68.5739974975586 -13.10200023651123,-66.63099670410156 -13.10200023651123,-66.63099670410156z">
                    </path>
                </g>
                <g opacity="1" transform="matrix(1,0,0,1,47.551998138427734,106.98100280761719)">
                    <path fill="rgb(138,102,81)" fill-opacity="1"
                        d=" M-7.307000160217285,-4.859000205993652 C-7.307000160217285,-4.859000205993652 7.307000160217285,-11.484000205993652 7.307000160217285,-11.484000205993652 C7.307000160217285,-11.484000205993652 -1.5490000247955322,11.484000205993652 -1.5490000247955322,11.484000205993652 C-1.5490000247955322,11.484000205993652 -6.948999881744385,2.0510001182556152 -6.948999881744385,2.0510001182556152 C-6.948999881744385,2.0510001182556152 -7.307000160217285,-4.859000205993652 -7.307000160217285,-4.859000205993652z">
                    </path>
                </g>
                <g opacity="1" transform="matrix(1,0,0,1,88.12100219726562,140.78199768066406)">
                    <path fill="rgb(138,102,81)" fill-opacity="1"
                        d=" M12.166999816894531,-13.895000457763672 C12.166999816894531,-13.895000457763672 -12.166999816894531,-9.21500015258789 -12.166999816894531,-9.21500015258789 C-12.166999816894531,-9.21500015258789 3.1670000553131104,13.895000457763672 3.1670000553131104,13.895000457763672 C3.1670000553131104,13.895000457763672 9.86299991607666,7.416999816894531 9.86299991607666,7.416999816894531 C9.86299991607666,7.416999816894531 12.166999816894531,0.07199999690055847 12.166999816894531,0.07199999690055847 C12.166999816894531,0.07199999690055847 12.166999816894531,-13.895000457763672 12.166999816894531,-13.895000457763672z">
                    </path>
                </g>
                <g opacity="1" transform="matrix(1,0,0,1,87.86900329589844,64.8290023803711)">
                    <path fill="rgb(195,151,122)" fill-opacity="1"
                        d=" M-10.835000038146973,8.854999542236328 C-10.835000038146973,8.854999542236328 -9.538999557495117,-4.751999855041504 -9.538999557495117,-4.751999855041504 C-9.538999557495117,-4.751999855041504 3.634999990463257,-7.920000076293945 3.634999990463257,-7.920000076293945 C3.634999990463257,-7.920000076293945 10.043000221252441,6.11899995803833 10.043000221252441,6.11899995803833 C10.043000221252441,6.11899995803833 -16.30699920654297,17.35099983215332 -16.30699920654297,17.35099983215332 C-16.30699920654297,17.35099983215332 11.123000144958496,14.541999816894531 11.123000144958496,14.541999816894531 C11.123000144958496,14.541999816894531 16.378000259399414,19.222000122070312 16.378000259399414,19.222000122070312 C16.378000259399414,19.222000122070312 8.890999794006348,-19.222000122070312 8.890999794006348,-19.222000122070312 C8.890999794006348,-19.222000122070312 -13.859000205993652,-7.126999855041504 -13.859000205993652,-7.126999855041504 C-13.859000205993652,-7.126999855041504 -16.378000259399414,1.2949999570846558 -16.378000259399414,1.2949999570846558 C-16.378000259399414,1.2949999570846558 -10.835000038146973,8.854999542236328 -10.835000038146973,8.854999542236328z">
                    </path>
                </g>
                <g opacity="1" transform="matrix(1,0,0,1,125.41400146484375,59.71799850463867)">
                    <path fill="rgb(195,151,122)" fill-opacity="1"
                        d=" M-5.616000175476074,4.605999946594238 C-5.616000175476074,4.605999946594238 -5.328000068664551,-7.201000213623047 -5.328000068664551,-7.201000213623047 C-5.328000068664551,-7.201000213623047 6.623000144958496,-11.088000297546387 6.623000144958496,-11.088000297546387 C6.623000144958496,-11.088000297546387 10.005999565124512,-9.288999557495117 10.005999565124512,-9.288999557495117 C10.005999565124512,-9.288999557495117 9.430999755859375,6.118000030517578 9.430999755859375,6.118000030517578 C9.430999755859375,6.118000030517578 -12.02400016784668,14.109000205993652 -12.02400016784668,14.109000205993652 C-12.02400016784668,14.109000205993652 -11.230999946594238,18.503000259399414 -11.230999946594238,18.503000259399414 C-11.230999946594238,18.503000259399414 9.430999755859375,9.934000015258789 9.430999755859375,9.934000015258789 C9.430999755859375,9.934000015258789 13.102999687194824,-3.1689999103546143 13.102999687194824,-3.1689999103546143 C13.102999687194824,-3.1689999103546143 8.711000442504883,-18.503000259399414 8.711000442504883,-18.503000259399414 C8.711000442504883,-18.503000259399414 -13.102999687194824,-12.312000274658203 -13.102999687194824,-12.312000274658203 C-13.102999687194824,-12.312000274658203 -11.303000450134277,5.111000061035156 -11.303000450134277,5.111000061035156 C-11.303000450134277,5.111000061035156 -5.616000175476074,4.605999946594238 -5.616000175476074,4.605999946594238z">
                    </path>
                </g>
                <g opacity="1" transform="matrix(1,0,0,1,109.61100006103516,85.41899871826172)">
                    <path fill="rgb(138,102,81)" fill-opacity="1"
                        d=" M-5.36299991607666,-1.3680000305175781 C-5.36299991607666,-1.3680000305175781 0.8999999761581421,3.240000009536743 0.8999999761581421,3.240000009536743 C0.8999999761581421,3.240000009536743 5.36299991607666,-3.240000009536743 5.36299991607666,-3.240000009536743 C5.36299991607666,-3.240000009536743 -5.36299991607666,-1.3680000305175781 -5.36299991607666,-1.3680000305175781z">
                    </path>
                </g>
                <g opacity="1" transform="matrix(1,0,0,1,106.73100280761719,67.41999816894531)">
                    <path fill="rgb(232,201,182)" fill-opacity="1"
                        d=" M-8.243000030517578,-14.326000213623047 C-8.243000030517578,-14.326000213623047 2.196000099182129,-16.631000518798828 2.196000099182129,-16.631000518798828 C2.196000099182129,-16.631000518798828 8.243000030517578,14.758999824523926 8.243000030517578,14.758999824523926 C8.243000030517578,14.758999824523926 -2.4839999675750732,16.631000518798828 -2.4839999675750732,16.631000518798828 C-2.4839999675750732,16.631000518798828 -8.243000030517578,-14.326000213623047 -8.243000030517578,-14.326000213623047z">
                    </path>
                </g>
                <g opacity="1" transform="matrix(1,0,0,1,103.31199645996094,48.270999908447266)">
                    <path fill="rgb(39,120,139)" fill-opacity="1"
                        d=" M-4.823999881744385,4.822999954223633 C-4.823999881744385,4.822999954223633 -7.198999881744385,1.1510000228881836 -7.198999881744385,1.1510000228881836 C-7.198999881744385,1.1510000228881836 -6.552999973297119,-2.6640000343322754 -6.552999973297119,-2.6640000343322754 C-6.552999973297119,-2.6640000343322754 4.103000164031982,-4.822999954223633 4.103000164031982,-4.822999954223633 C4.103000164031982,-4.822999954223633 7.198999881744385,-1.440999984741211 7.198999881744385,-1.440999984741211 C7.198999881744385,-1.440999984741211 5.614999771118164,2.5179998874664307 5.614999771118164,2.5179998874664307 C5.614999771118164,2.5179998874664307 -4.823999881744385,4.822999954223633 -4.823999881744385,4.822999954223633z">
                    </path>
                </g>
                <g opacity="1" transform="matrix(1,0,0,1,83.87300109863281,63.893001556396484)">
                    <path fill="rgb(48,143,166)" fill-opacity="1"
                        d=" M12.88700008392334,-18.28700065612793 C12.88700008392334,-18.28700065612793 -18.790000915527344,-12.166999816894531 -18.790000915527344,-12.166999816894531 C-18.790000915527344,-12.166999816894531 -17.56599998474121,-0.6480000019073486 -17.56599998474121,-0.6480000019073486 C-17.56599998474121,-0.6480000019073486 -14.758000373840332,6.4079999923706055 -14.758000373840332,6.4079999923706055 C-14.758000373840332,6.4079999923706055 -12.312000274658203,18.28700065612793 -12.312000274658203,18.28700065612793 C-12.312000274658203,18.28700065612793 18.790000915527344,11.736000061035156 18.790000915527344,11.736000061035156 C18.790000915527344,11.736000061035156 14.614999771118164,-10.79800033569336 14.614999771118164,-10.79800033569336 C14.614999771118164,-10.79800033569336 12.88700008392334,-18.28700065612793 12.88700008392334,-18.28700065612793z M-9.86299991607666,-6.191999912261963 C-9.86299991607666,-6.191999912261963 -9.86299991607666,-6.191999912261963 -9.86299991607666,-6.191999912261963 C-9.86299991607666,-6.191999912261963 7.127999782562256,-9.503000259399414 7.127999782562256,-9.503000259399414 C7.127999782562256,-9.503000259399414 10.222999572753906,6.335000038146973 10.222999572753906,6.335000038146973 C10.222999572753906,6.335000038146973 -6.840000152587891,9.791000366210938 -6.840000152587891,9.791000366210938 C-6.840000152587891,9.791000366210938 -9.86299991607666,-6.191999912261963 -9.86299991607666,-6.191999912261963z">
                    </path>
                </g>
                <g opacity="1" transform="matrix(1,0,0,1,125.80999755859375,55.612998962402344)">
                    <path fill="rgb(48,143,166)" fill-opacity="1"
                        d=" M-18.395000457763672,-12.166999816894531 C-18.395000457763672,-12.166999816894531 12.633999824523926,-18.214000701904297 12.633999824523926,-18.214000701904297 C12.633999824523926,-18.214000701904297 18.395000457763672,12.095999717712402 18.395000457763672,12.095999717712402 C18.395000457763672,12.095999717712402 -12.420000076293945,18.214000701904297 -12.420000076293945,18.214000701904297 C-12.420000076293945,18.214000701904297 -16.882999420166016,-4.823999881744385 -16.882999420166016,-4.823999881744385 C-16.882999420166016,-4.823999881744385 -18.395000457763672,-12.166999816894531 -18.395000457763672,-12.166999816894531z M-8.890999794006348,-6.119999885559082 C-8.890999794006348,-6.119999885559082 -8.890999794006348,-6.119999885559082 -8.890999794006348,-6.119999885559082 C-8.890999794006348,-6.119999885559082 -6.01200008392334,8.711999893188477 -6.01200008392334,8.711999893188477 C-6.01200008392334,8.711999893188477 8.74899959564209,6.047999858856201 8.74899959564209,6.047999858856201 C8.74899959564209,6.047999858856201 5.796000003814697,-9.071999549865723 5.796000003814697,-9.071999549865723 C5.796000003814697,-9.071999549865723 -8.890999794006348,-6.119999885559082 -8.890999794006348,-6.119999885559082z">
                    </path>
                </g>
                <g opacity="1" transform="matrix(1,0,0,1,109.75499725341797,101.76200103759766)">
                    <path fill="rgb(138,102,81)" fill-opacity="1"
                        d=" M-15.729999542236328,1.7990000247955322 C-15.729999542236328,1.7990000247955322 15.22700023651123,-4.320000171661377 15.22700023651123,-4.320000171661377 C15.22700023651123,-4.320000171661377 15.729999542236328,-1.871999979019165 15.729999542236328,-1.871999979019165 C15.729999542236328,-1.871999979019165 -15.22700023651123,4.320000171661377 -15.22700023651123,4.320000171661377 C-15.22700023651123,4.320000171661377 -15.729999542236328,1.7990000247955322 -15.729999542236328,1.7990000247955322z">
                    </path>
                </g>
                <g opacity="1" transform="matrix(1,0,0,1,41.03300094604492,86.7760009765625)">
                    <path fill="rgb(138,102,81)" fill-opacity="1"
                        d=" M6.4039998054504395,6.0370001792907715 C6.4039998054504395,6.0370001792907715 0.07599999755620956,-6.0370001792907715 0.07599999755620956,-6.0370001792907715 C0.07599999755620956,-6.0370001792907715 -6.4039998054504395,-3.0850000381469727 -6.4039998054504395,-3.0850000381469727 C-6.4039998054504395,-3.0850000381469727 6.4039998054504395,6.0370001792907715 6.4039998054504395,6.0370001792907715z">
                    </path>
                </g>
                <g opacity="1" transform="matrix(1,0,0,1,93.59200286865234,10.833000183105469)">
                    <path fill="rgb(221,221,220)" fill-opacity="1"
                        d=" M-29.374000549316406,-10.583000183105469 C-29.374000549316406,-10.583000183105469 -25.413999557495117,2.2320001125335693 -25.413999557495117,2.2320001125335693 C-25.413999557495117,2.2320001125335693 -19.51099967956543,10.583000183105469 -19.51099967956543,10.583000183105469 C-19.51099967956543,10.583000183105469 29.374000549316406,-3.5260000228881836 29.374000549316406,-3.5260000228881836 C29.374000549316406,-3.5260000228881836 -29.374000549316406,-10.583000183105469 -29.374000549316406,-10.583000183105469z">
                    </path>
                </g>
                <g opacity="1" transform="matrix(1,0,0,1,36.24800109863281,31.892000198364258)">
                    <path fill="rgb(196,196,196)" fill-opacity="1"
                        d=" M0.3970000147819519,-15.659000396728516 C0.3970000147819519,-15.659000396728516 -12.345999717712402,-9.538999557495117 -12.345999717712402,-9.538999557495117 C-12.345999717712402,-9.538999557495117 -15.442999839782715,15.659000396728516 -15.442999839782715,15.659000396728516 C-15.442999839782715,15.659000396728516 -0.8999999761581421,11.484000205993652 -0.8999999761581421,11.484000205993652 C-0.8999999761581421,11.484000205993652 15.442999839782715,0.4690000116825104 15.442999839782715,0.4690000116825104 C15.442999839782715,0.4690000116825104 0.3970000147819519,-15.659000396728516 0.3970000147819519,-15.659000396728516z">
                    </path>
                </g>
                <g opacity="1" transform="matrix(1,0,0,1,33.36899948120117,61.44499969482422)">
                    <path fill="rgb(221,221,220)" fill-opacity="1"
                        d=" M-12.562999725341797,-13.895000457763672 C-12.562999725341797,-13.895000457763672 -18.32200050354004,29.084999084472656 -18.32200050354004,29.084999084472656 C-18.32200050354004,29.084999084472656 0.6840000152587891,16.6299991607666 0.6840000152587891,16.6299991607666 C0.6840000152587891,16.6299991607666 15.65999984741211,2.6640000343322754 15.65999984741211,2.6640000343322754 C15.65999984741211,2.6640000343322754 18.32200050354004,-29.084999084472656 18.32200050354004,-29.084999084472656 C18.32200050354004,-29.084999084472656 -12.562999725341797,-13.895000457763672 -12.562999725341797,-13.895000457763672z">
                    </path>
                </g>
                <g opacity="1" transform="matrix(1,0,0,1,37.28300094604492,92.2229995727539)">
                    <path fill="rgb(157,160,161)" fill-opacity="1"
                        d=" M12.753000259399414,-26.242000579833984 C12.753000259399414,-26.242000579833984 21.65999984741211,-8.170999526977539 21.65999984741211,-8.170999526977539 C21.65999984741211,-8.170999526977539 13.92300033569336,-4.60699987411499 13.92300033569336,-4.60699987411499 C13.92300033569336,-4.60699987411499 8.00100040435791,-17.38599967956543 8.00100040435791,-17.38599967956543 C8.00100040435791,-17.38599967956543 -8.270000457763672,-8.746999740600586 -8.270000457763672,-8.746999740600586 C-8.270000457763672,-8.746999740600586 2.6019999980926514,9.324000358581543 2.6019999980926514,9.324000358581543 C2.6019999980926514,9.324000358581543 8.720000267028809,26.242000579833984 8.720000267028809,26.242000579833984 C8.720000267028809,26.242000579833984 -21.65999984741211,-2.194999933242798 -21.65999984741211,-2.194999933242798 C-21.65999984741211,-2.194999933242798 -13.163999557495117,-8.963000297546387 -13.163999557495117,-8.963000297546387 C-13.163999557495117,-8.963000297546387 12.753000259399414,-26.242000579833984 12.753000259399414,-26.242000579833984z">
                    </path>
                </g>
                <g opacity="1" transform="matrix(1,0,0,1,55.362998962402344,10.833000183105469)">
                    <path fill="rgb(196,196,196)" fill-opacity="1"
                        d=" M8.854999542236328,-10.583000183105469 C8.854999542236328,-10.583000183105469 -18.718000411987305,5.400000095367432 -18.718000411987305,5.400000095367432 C-18.718000411987305,5.400000095367432 18.718000411987305,10.583000183105469 18.718000411987305,10.583000183105469 C18.718000411987305,10.583000183105469 8.854999542236328,-10.583000183105469 8.854999542236328,-10.583000183105469z">
                    </path>
                </g>
                <g opacity="1" transform="matrix(1,0,0,1,46.040000915527344,73.03600311279297)">
                    <path fill="rgb(39,120,139)" fill-opacity="1"
                        d=" M19.042999267578125,-21.309999465942383 C19.042999267578125,-21.309999465942383 -21.922000885009766,10.222999572753906 -21.922000885009766,10.222999572753906 C-21.922000885009766,10.222999572753906 -17.386999130249023,21.309999465942383 -17.386999130249023,21.309999465942383 C-17.386999130249023,21.309999465942383 -17.027000427246094,10.439000129699707 -17.027000427246094,10.439000129699707 C-17.027000427246094,10.439000129699707 21.922000885009766,-8.062999725341797 21.922000885009766,-8.062999725341797 C21.922000885009766,-8.062999725341797 19.042999267578125,-21.309999465942383 19.042999267578125,-21.309999465942383z">
                    </path>
                </g>
                <g opacity="1" transform="matrix(1,0,0,1,61.12300109863281,70.12100219726562)">
                    <path fill="rgb(138,102,81)" fill-opacity="1"
                        d=" M-7.992000102996826,1.8339999914169312 C-7.992000102996826,1.8339999914169312 6.840000152587891,-5.1479997634887695 6.840000152587891,-5.1479997634887695 C6.840000152587891,-5.1479997634887695 7.199999809265137,-3.562999963760376 7.199999809265137,-3.562999963760376 C7.199999809265137,-3.562999963760376 7.992000102996826,0.17900000512599945 7.992000102996826,0.17900000512599945 C7.992000102996826,0.17900000512599945 -6.510000228881836,5.1479997634887695 -6.510000228881836,5.1479997634887695 C-6.510000228881836,5.1479997634887695 -7.992000102996826,1.8339999914169312 -7.992000102996826,1.8339999914169312z">
                    </path>
                </g>
                <g opacity="1" transform="matrix(1,0,0,1,50.12900161743164,75.052001953125)">
                    <path fill="rgb(115,115,115)" fill-opacity="1"
                        d=" M-4.485000133514404,0.5040000081062317 C-4.485000133514404,0.5040000081062317 3.003000020980835,-3.0959999561309814 3.003000020980835,-3.0959999561309814 C3.003000020980835,-3.0959999561309814 4.485000133514404,0.2160000056028366 4.485000133514404,0.2160000056028366 C4.485000133514404,0.2160000056028366 -3.3329999446868896,3.0959999561309814 -3.3329999446868896,3.0959999561309814 C-3.3329999446868896,3.0959999561309814 -4.485000133514404,0.5040000081062317 -4.485000133514404,0.5040000081062317z">
                    </path>
                </g>
                <g opacity="1" transform="matrix(1,0,0,1,80.74099731445312,154.67799377441406)">
                    <path fill="rgb(221,221,220)" fill-opacity="1"
                        d=" M-25.809999465942383,-17.63800048828125 C-25.809999465942383,-17.63800048828125 -29.194000244140625,-3.5999999046325684 -29.194000244140625,-3.5999999046325684 C-29.194000244140625,-3.5999999046325684 1.8359999656677246,13.53499984741211 1.8359999656677246,13.53499984741211 C1.8359999656677246,13.53499984741211 14.579000473022461,17.63800048828125 14.579000473022461,17.63800048828125 C14.579000473022461,17.63800048828125 24.010000228881836,7.054999828338623 24.010000228881836,7.054999828338623 C24.010000228881836,7.054999828338623 29.194000244140625,-6.4079999923706055 29.194000244140625,-6.4079999923706055 C29.194000244140625,-6.4079999923706055 19.54599952697754,-13.824000358581543 19.54599952697754,-13.824000358581543 C19.54599952697754,-13.824000358581543 10.54699993133545,0 10.54699993133545,0 C10.54699993133545,0 -25.809999465942383,-17.63800048828125 -25.809999465942383,-17.63800048828125z">
                    </path>
                </g>
            </g>
            <g opacity="1" transform="matrix(1,0,0,1,0,0)">
                <g opacity="1" transform="matrix(1,0,0,1,93.16000366210938,163.4969940185547)">
                    <path fill="rgb(79,82,82)" fill-opacity="1"
                        d=" M-1.871999979019165,-8.819999694824219 C-1.871999979019165,-8.819999694824219 -9.503000259399414,3.131999969482422 -9.503000259399414,3.131999969482422 C-9.503000259399414,3.131999969482422 2.1600000858306885,8.819999694824219 2.1600000858306885,8.819999694824219 C2.1600000858306885,8.819999694824219 9.503000259399414,-3.059000015258789 9.503000259399414,-3.059000015258789 C9.503000259399414,-3.059000015258789 -1.871999979019165,-8.819999694824219 -1.871999979019165,-8.819999694824219z">
                    </path>
                </g>
            </g>
        </g>
        <g transform="matrix(1,0.0000034698516628850484,-0.0000034698516628850484,1,93.3989486694336,-0.2503662109375)"
            opacity="1" style="display: block;">
            <g opacity="1" transform="matrix(1,0,0,1,0,0)">
                <g opacity="1" transform="matrix(1,0,0,1,81.677001953125,170.1929931640625)">
                    <path fill="rgb(196,196,196)" fill-opacity="1"
                        d=" M28.259000778198242,-21.92300033569336 C28.259000778198242,-21.92300033569336 42.224998474121094,-17.604000091552734 42.224998474121094,-17.604000091552734 C42.224998474121094,-17.604000091552734 31.208999633789062,4.2829999923706055 31.208999633789062,4.2829999923706055 C31.208999633789062,4.2829999923706055 18.179000854492188,21.92300033569336 18.179000854492188,21.92300033569336 C18.179000854492188,21.92300033569336 -14.579000473022461,7.019000053405762 -14.579000473022461,7.019000053405762 C-14.579000473022461,7.019000053405762 -42.224998474121094,-9.970999717712402 -42.224998474121094,-9.970999717712402 C-42.224998474121094,-9.970999717712402 -30.1299991607666,-19.11400032043457 -30.1299991607666,-19.11400032043457 C-30.1299991607666,-19.11400032043457 13.644000053405762,2.124000072479248 13.644000053405762,2.124000072479248 C13.644000053405762,2.124000072479248 28.259000778198242,-21.92300033569336 28.259000778198242,-21.92300033569336z">
                    </path>
                </g>
                <g opacity="1" transform="matrix(1,0,0,1,69.65399932861328,194.7779998779297)">
                    <path fill="rgb(28,118,120)" fill-opacity="1"
                        d=" M-30.20199966430664,-34.55699920654297 C-30.20199966430664,-34.55699920654297 17.386999130249023,-9.430999755859375 17.386999130249023,-9.430999755859375 C17.386999130249023,-9.430999755859375 23.216999053955078,-7.703000068664551 23.216999053955078,-7.703000068664551 C23.216999053955078,-7.703000068664551 30.20199966430664,-2.6630001068115234 30.20199966430664,-2.6630001068115234 C30.20199966430664,-2.6630001068115234 -1.7649999856948853,34.55699920654297 -1.7649999856948853,34.55699920654297 C-1.7649999856948853,34.55699920654297 -30.058000564575195,-13.246000289916992 -30.058000564575195,-13.246000289916992 C-30.058000564575195,-13.246000289916992 -30.20199966430664,-34.55699920654297 -30.20199966430664,-34.55699920654297z">
                    </path>
                </g>
                <g opacity="1" transform="matrix(1,0,0,1,117.60199737548828,196.50599670410156)">
                    <path fill="rgb(28,118,120)" fill-opacity="1"
                        d=" M-17.746000289916992,-4.392000198364258 C-17.746000289916992,-4.392000198364258 -15.154999732971191,-11.519000053405762 -15.154999732971191,-11.519000053405762 C-15.154999732971191,-11.519000053405762 -9.395000457763672,-18.14299964904785 -9.395000457763672,-18.14299964904785 C-9.395000457763672,-18.14299964904785 6.298999786376953,-43.91699981689453 6.298999786376953,-43.91699981689453 C6.298999786376953,-43.91699981689453 21.34600067138672,-9.64799976348877 21.34600067138672,-9.64799976348877 C21.34600067138672,-9.64799976348877 11.482999801635742,16.05299949645996 11.482999801635742,16.05299949645996 C11.482999801635742,16.05299949645996 -2.98799991607666,33.803001403808594 -2.98799991607666,33.803001403808594 C-2.98799991607666,33.803001403808594 -11.626999855041504,43.91600036621094 -11.626999855041504,43.91600036621094 C-11.626999855041504,43.91600036621094 -21.34600067138672,19.8700008392334 -21.34600067138672,19.8700008392334 C-21.34600067138672,19.8700008392334 -17.746000289916992,-4.392000198364258 -17.746000289916992,-4.392000198364258z">
                    </path>
                </g>
                <g opacity="1" transform="matrix(1,0,0,1,97.6240005493164,182.21600341796875)">
                    <path fill="rgb(115,115,115)" fill-opacity="1"
                        d=" M-2.302999973297119,-9.899999618530273 C-2.302999973297119,-9.899999618530273 -10.583999633789062,3.131999969482422 -10.583999633789062,3.131999969482422 C-10.583999633789062,3.131999969482422 2.2330000400543213,9.899999618530273 2.2330000400543213,9.899999618530273 C2.2330000400543213,9.899999618530273 10.583999633789062,-3.8519999980926514 10.583999633789062,-3.8519999980926514 C10.583999633789062,-3.8519999980926514 -2.302999973297119,-9.899999618530273 -2.302999973297119,-9.899999618530273z">
                    </path>
                </g>
                <g opacity="1" transform="matrix(1,0,0,1,117.49500274658203,243.08599853515625)">
                    <path fill="rgb(54,147,149)" fill-opacity="1"
                        d=" M11.590999603271484,-30.525999069213867 C11.590999603271484,-30.525999069213867 -11.520000457763672,-2.6640000343322754 -11.520000457763672,-2.6640000343322754 C-11.520000457763672,-2.6640000343322754 -12.743000030517578,5.400000095367432 -12.743000030517578,5.400000095367432 C-12.743000030517578,5.400000095367432 -16.631000518798828,30.525999069213867 -16.631000518798828,30.525999069213867 C-16.631000518798828,30.525999069213867 16.631000518798828,29.37299919128418 16.631000518798828,29.37299919128418 C16.631000518798828,29.37299919128418 11.590999603271484,-30.525999069213867 11.590999603271484,-30.525999069213867z">
                    </path>
                </g>
            </g>
        </g>
        <g transform="matrix(1,-0.0000017956533611140912,0.0000017956533611140912,1,93.39801788330078,-0.2502899169921875)"
            opacity="1" style="display: block;">
            <g opacity="1" transform="matrix(1,0,0,1,67.49400329589844,241.82699584960938)">
                <path fill="rgb(143,143,143)" fill-opacity="1"
                    d=" M-30.128999710083008,-60.654998779296875 C-30.128999710083008,-60.654998779296875 32.36199951171875,-49.71200180053711 32.36199951171875,-49.71200180053711 C32.36199951171875,-49.71200180053711 45.608001708984375,-47.40800094604492 45.608001708984375,-47.40800094604492 C45.608001708984375,-47.40800094604492 38.49800109863281,-1.3990000486373901 38.49800109863281,-1.3990000486373901 C38.49800109863281,-1.3990000486373901 33.369998931884766,31.78499984741211 33.369998931884766,31.78499984741211 C33.369998931884766,31.78499984741211 28.9060001373291,60.654998779296875 28.9060001373291,60.654998779296875 C28.9060001373291,60.654998779296875 -47.119998931884766,49.06399917602539 -47.119998931884766,49.06399917602539 C-47.119998931884766,49.06399917602539 -30.128999710083008,-60.654998779296875 -30.128999710083008,-60.654998779296875z">
                </path>
            </g>
            <g opacity="1" transform="matrix(1,0,0,1,62.23899841308594,265.1159973144531)">
                <path fill="rgb(110,112,115)" fill-opacity="1"
                    d=" M38.625,8.496000289916992 C38.625,8.496000289916992 -38.625,5.400000095367432 -38.625,5.400000095367432 C-38.625,5.400000095367432 -36.5369987487793,-8.494999885559082 -36.5369987487793,-8.494999885559082 C-36.5369987487793,-8.494999885559082 13.354000091552734,-3.815999984741211 13.354000091552734,-3.815999984741211 C13.354000091552734,-3.815999984741211 24.082000732421875,1.2960000038146973 24.082000732421875,1.2960000038146973 C24.082000732421875,1.2960000038146973 30.993999481201172,3.0230000019073486 30.993999481201172,3.0230000019073486 C30.993999481201172,3.0230000019073486 38.625,8.496000289916992 38.625,8.496000289916992z">
                </path>
            </g>
        </g>
        <g transform="matrix(1,-0.0000017949562334251823,0.0000017949562334251823,1,93.39801788330078,-0.2502899169921875)"
            opacity="1" style="display: block;">
            <g opacity="1" transform="matrix(1,0,0,1,24.549999237060547,206.94500732421875)">
                <path fill="rgb(113,202,204)" fill-opacity="1"
                    d=" M14.902999877929688,-46.722999572753906 C14.902999877929688,-46.722999572753906 15.694999694824219,21.959999084472656 15.694999694824219,21.959999084472656 C15.694999694824219,21.959999084472656 -15.694999694824219,46.7239990234375 -15.694999694824219,46.7239990234375 C-15.694999694824219,46.7239990234375 -9.935999870300293,-32.32500076293945 -9.935999870300293,-32.32500076293945 C-9.935999870300293,-32.32500076293945 14.902999877929688,-46.722999572753906 14.902999877929688,-46.722999572753906z">
                </path>
            </g>
        </g>
        <g transform="matrix(1,-0.0000017956533611140912,0.0000017956533611140912,1,93.39801788330078,-0.2502899169921875)"
            opacity="1" style="display: block;">
            <g opacity="1" transform="matrix(1,0,0,1,45.77000045776367,246.11000061035156)">
                <path fill="rgb(54,147,149)" fill-opacity="1"
                    d=" M-5.525000095367432,-18.753999710083008 C-5.525000095367432,-18.753999710083008 28.420000076293945,-6.658999919891357 28.420000076293945,-6.658999919891357 C28.420000076293945,-6.658999919891357 31.804000854492188,-4.861000061035156 31.804000854492188,-4.861000061035156 C31.804000854492188,-4.861000061035156 36.915000915527344,-4.067999839782715 36.915000915527344,-4.067999839782715 C36.915000915527344,-4.067999839782715 33.81999969482422,18.753999710083008 33.81999969482422,18.753999710083008 C33.81999969482422,18.753999710083008 28.56399917602539,16.66699981689453 28.56399917602539,16.66699981689453 C28.56399917602539,16.66699981689453 23.452999114990234,17.025999069213867 23.452999114990234,17.025999069213867 C23.452999114990234,17.025999069213867 -36.915000915527344,7.558000087738037 -36.915000915527344,7.558000087738037 C-36.915000915527344,7.558000087738037 -5.525000095367432,-18.753999710083008 -5.525000095367432,-18.753999710083008z">
                </path>
            </g>
        </g>
        <g transform="matrix(1,0.0000034698516628850484,-0.0000034698516628850484,1,93.3989486694336,-0.2503662109375)"
            opacity="1" style="display: block;">
            <g opacity="1" transform="matrix(1,0,0,1,138.73199462890625,182.5749969482422)">
                <path fill="rgb(54,147,149)" fill-opacity="1"
                    d=" M-14.831000328063965,-29.986000061035156 C-14.831000328063965,-29.986000061035156 14.831000328063965,14.722999572753906 14.831000328063965,14.722999572753906 C14.831000328063965,14.722999572753906 4.0320000648498535,24.3700008392334 4.0320000648498535,24.3700008392334 C4.0320000648498535,24.3700008392334 -9.647000312805176,29.986000061035156 -9.647000312805176,29.986000061035156 C-9.647000312805176,29.986000061035156 -14.831000328063965,-29.986000061035156 -14.831000328063965,-29.986000061035156z">
                </path>
            </g>
        </g>
        <g transform="matrix(1,0.0000034698516628850484,-0.0000034698516628850484,1,93.3989486694336,-0.2503662109375)"
            opacity="1" style="display: block;">
            <g opacity="1" transform="matrix(1,0,0,1,159.10699462890625,206.80099487304688)">
                <path fill="rgb(113,202,204)" fill-opacity="1"
                    d=" M-30.02199935913086,5.758999824523926 C-30.02199935913086,5.758999824523926 -5.543000221252441,-9.503999710083008 -5.543000221252441,-9.503999710083008 C-5.543000221252441,-9.503999710083008 14.470000267028809,-22.534000396728516 14.470000267028809,-22.534000396728516 C14.470000267028809,-22.534000396728516 18.214000701904297,-22.67799949645996 18.214000701904297,-22.67799949645996 C18.214000701904297,-22.67799949645996 21.23900032043457,-26.926000595092773 21.23900032043457,-26.926000595092773 C21.23900032043457,-26.926000595092773 30.02199935913086,-19.367000579833984 30.02199935913086,-19.367000579833984 C30.02199935913086,-19.367000579833984 28.077999114990234,-8.928000450134277 28.077999114990234,-8.928000450134277 C28.077999114990234,-8.928000450134277 27.790000915527344,-2.015000104904175 27.790000915527344,-2.015000104904175 C27.790000915527344,-2.015000104904175 -9.430999755859375,26.926000595092773 -9.430999755859375,26.926000595092773 C-9.430999755859375,26.926000595092773 -30.02199935913086,5.758999824523926 -30.02199935913086,5.758999824523926z">
                </path>
            </g>
        </g>

        <g style="display: block;"
            transform="matrix(1,0.000006559836947417352,-0.000006559836947417352,1,93.39947509765625,-0.2506561279296875)"
            opacity="1">
            <g opacity="1" transform="matrix(1,0,0,1,0,0)">
                <g opacity="1" transform="matrix(1,0,0,1,86.28399658203125,61.6609992980957)">
                    <path fill="rgb(43,43,43)" fill-opacity="1"
                        d=" M3.2039999961853027,0.0010000000474974513 C3.2039999961853027,1.7999999523162842 1.6920000314712524,3.1679999828338623 0.035999998450279236,3.1679999828338623 C-1.7630000114440918,3.1679999828338623 -3.2039999961853027,1.7999999523162842 -3.2039999961853027,0.0010000000474974513 C-3.2039999961853027,-1.7999999523162842 -1.7630000114440918,-3.1679999828338623 0.035999998450279236,-3.1679999828338623 C1.6920000314712524,-3.1679999828338623 3.2039999961853027,-1.7999999523162842 3.2039999961853027,0.0010000000474974513z">
                    </path>
                </g>
                <g opacity="1" transform="matrix(1,0,0,1,125.80899810791016,54.42499923706055)">
                    <path fill="rgb(43,43,43)" fill-opacity="1"
                        d=" M3.1679999828338623,-0.035999998450279236 C3.1679999828338623,1.7640000581741333 1.7999999523162842,3.131999969482422 -0.0010000000474974513,3.131999969482422 C-1.656999945640564,3.131999969482422 -3.1679999828338623,1.7640000581741333 -3.1679999828338623,-0.035999998450279236 C-3.1679999828338623,-1.7649999856948853 -1.656999945640564,-3.131999969482422 -0.0010000000474974513,-3.131999969482422 C1.7999999523162842,-3.131999969482422 3.1679999828338623,-1.7649999856948853 3.1679999828338623,-0.035999998450279236z">
                    </path>
                </g>
            </g>
        </g>

        <g transform="matrix(1,0.0000028076794933440397,-0.0000028076794933440397,1,93.39881134033203,-0.250244140625)"
            opacity="1" style="display: block;">
            <g opacity="1" transform="matrix(1,0,0,1,0,0)">
                <g opacity="1" transform="matrix(1,0,0,1,183.69200134277344,192.33099365234375)">
                    <path fill="rgb(221,221,220)" fill-opacity="1"
                        d=" M-3.3459999561309814,-12.454999923706055 C-3.3459999561309814,-12.454999923706055 5.218999862670898,-3.5280001163482666 5.218999862670898,-3.5280001163482666 C5.218999862670898,-3.5280001163482666 10.114999771118164,6.98199987411499 10.114999771118164,6.98199987411499 C10.114999771118164,6.98199987411499 3.2049999237060547,12.454999923706055 3.2049999237060547,12.454999923706055 C3.2049999237060547,12.454999923706055 -10.114999771118164,-8.062999725341797 -10.114999771118164,-8.062999725341797 C-10.114999771118164,-8.062999725341797 -3.3459999561309814,-12.454999923706055 -3.3459999561309814,-12.454999923706055z">
                    </path>
                </g>
                <g opacity="1" transform="matrix(1,0,0,1,204.89500427246094,135.9949951171875)">
                    <path fill="rgb(143,143,143)" fill-opacity="1"
                        d=" M-4.607999801635742,6.2270002365112305 C-4.607999801635742,6.2270002365112305 1.7269999980926514,-8.604000091552734 1.7269999980926514,-8.604000091552734 C1.7269999980926514,-8.604000091552734 4.607999801635742,7.308000087738037 4.607999801635742,7.308000087738037 C4.607999801635742,7.308000087738037 -0.7919999957084656,8.604000091552734 -0.7919999957084656,8.604000091552734 C-0.7919999957084656,8.604000091552734 -4.607999801635742,6.2270002365112305 -4.607999801635742,6.2270002365112305z">
                    </path>
                </g>
                <g opacity="1" transform="matrix(1,0,0,1,193.12399291992188,187.2899932861328)">
                    <path fill="rgb(138,102,81)" fill-opacity="1"
                        d=" M-6.802999973297119,1.0809999704360962 C-6.802999973297119,1.0809999704360962 0.6840000152587891,12.02299976348877 0.6840000152587891,12.02299976348877 C0.6840000152587891,12.02299976348877 6.802999973297119,8.13700008392334 6.802999973297119,8.13700008392334 C6.802999973297119,8.13700008392334 4.859000205993652,-12.02299976348877 4.859000205993652,-12.02299976348877 C4.859000205993652,-12.02299976348877 -6.802999973297119,1.0809999704360962 -6.802999973297119,1.0809999704360962z">
                    </path>
                </g>
                <g opacity="1" transform="matrix(1,0,0,1,201.04400634765625,176.27499389648438)">
                    <path fill="rgb(79,82,82)" fill-opacity="1"
                        d=" M-0.7570000290870667,-34.053001403808594 C-0.7570000290870667,-34.053001403808594 8.458999633789062,-32.972999572753906 8.458999633789062,-32.972999572753906 C8.458999633789062,-32.972999572753906 0.8270000219345093,34.053001403808594 0.8270000219345093,34.053001403808594 C0.8270000219345093,34.053001403808594 -8.458999633789062,32.972999572753906 -8.458999633789062,32.972999572753906 C-8.458999633789062,32.972999572753906 -7.316999912261963,23.030000686645508 -7.316999912261963,23.030000686645508 C-7.316999912261963,23.030000686645508 -1.5499999523162842,14.652999877929688 -1.5499999523162842,14.652999877929688 C-1.5499999523162842,14.652999877929688 -4.25600004196167,-3.6080000400543213 -4.25600004196167,-3.6080000400543213 C-4.25600004196167,-3.6080000400543213 -0.7570000290870667,-34.053001403808594 -0.7570000290870667,-34.053001403808594z">
                    </path>
                </g>
                <g opacity="1" transform="matrix(1,0,0,1,203.19500732421875,185.9040069580078)">
                    <path fill="rgb(195,151,122)" fill-opacity="1"
                        d=" M-7.283999919891357,-14.583000183105469 C-7.283999919891357,-14.583000183105469 9.387999534606934,-9.628000259399414 9.387999534606934,-9.628000259399414 C9.387999534606934,-9.628000259399414 0.2160000056028366,14.583000183105469 0.2160000056028366,14.583000183105469 C0.2160000056028366,14.583000183105469 -9.387999534606934,13.409000396728516 -9.387999534606934,13.409000396728516 C-9.387999534606934,13.409000396728516 -7.408999919891357,-7.383999824523926 -7.408999919891357,-7.383999824523926 C-7.408999919891357,-7.383999824523926 -7.283999919891357,-14.583000183105469 -7.283999919891357,-14.583000183105469z">
                    </path>
                </g>
                <g opacity="1" transform="matrix(1,0,0,1,191.27000427246094,179.71400451660156)">
                    <path fill="rgb(223,188,164)" fill-opacity="1"
                        d=" M-10.923999786376953,0.16099999845027924 C-10.923999786376953,0.16099999845027924 5.995999813079834,-11.21399974822998 5.995999813079834,-11.21399974822998 C5.995999813079834,-11.21399974822998 10.923999786376953,5.863999843597412 10.923999786376953,5.863999843597412 C10.923999786376953,5.863999843597412 3.747999906539917,6.86299991607666 3.747999906539917,6.86299991607666 C3.747999906539917,6.86299991607666 1.6480000019073486,1.5 1.6480000019073486,1.5 C1.6480000019073486,1.5 -3.200000047683716,11.21500015258789 -3.200000047683716,11.21500015258789 C-3.200000047683716,11.21500015258789 -10.923999786376953,0.16099999845027924 -10.923999786376953,0.16099999845027924z">
                    </path>
                </g>
            </g>
        </g>
        <g transform="matrix(1,-0.0000017956533611140912,0.0000017956533611140912,1,93.39801788330078,-0.2502899169921875)"
            opacity="1" style="display: block;">
            <g opacity="1" transform="matrix(1,0,0,1,0,0)">
                <g opacity="1" transform="matrix(1,0,0,1,75.9540023803711,252.15699768066406)">
                    <path fill="rgb(221,221,220)" fill-opacity="1"
                        d=" M-1.7640000581741333,-12.706999778747559 C-1.7640000581741333,-12.706999778747559 6.73199987411499,-10.116000175476074 6.73199987411499,-10.116000175476074 C6.73199987411499,-10.116000175476074 6.515999794006348,0.46799999475479126 6.515999794006348,0.46799999475479126 C6.515999794006348,0.46799999475479126 3.635999917984009,12.706999778747559 3.635999917984009,12.706999778747559 C3.635999917984009,12.706999778747559 -6.73199987411499,10.979000091552734 -6.73199987411499,10.979000091552734 C-6.73199987411499,10.979000091552734 -1.7640000581741333,-12.706999778747559 -1.7640000581741333,-12.706999778747559z">
                    </path>
                </g>
                <g opacity="1" transform="matrix(1,0,0,1,94.2770004272461,241.41299438476562)">
                    <path fill="rgb(195,151,122)" fill-opacity="1"
                        d=" M-11.592000007629395,0.6290000081062317 C-11.592000007629395,0.6290000081062317 0.19699999690055847,-4.5920000076293945 0.19699999690055847,-4.5920000076293945 C0.19699999690055847,-4.5920000076293945 11.592000007629395,-0.28999999165534973 11.592000007629395,-0.28999999165534973 C11.592000007629395,-0.28999999165534973 10.850000381469727,4.5920000076293945 10.850000381469727,4.5920000076293945 C10.850000381469727,4.5920000076293945 1.9800000190734863,4.5920000076293945 1.9800000190734863,4.5920000076293945 C1.9800000190734863,4.5920000076293945 -11.592000007629395,0.6290000081062317 -11.592000007629395,0.6290000081062317z">
                    </path>
                </g>
                <g opacity="1" transform="matrix(1,0,0,1,94.4739990234375,257.8269958496094)">
                    <path fill="rgb(223,188,164)" fill-opacity="1"
                        d=" M-11.788999557495117,-15.78499984741211 C-11.788999557495117,-15.78499984741211 10.652999877929688,-11.821999549865723 10.652999877929688,-11.821999549865723 C10.652999877929688,-11.821999549865723 12.319000244140625,-2.6570000648498535 12.319000244140625,-2.6570000648498535 C12.319000244140625,-2.6570000648498535 14.885000228881836,3.3299999237060547 14.885000228881836,3.3299999237060547 C14.885000228881836,3.3299999237060547 11,8.800999641418457 11,8.800999641418457 C11,8.800999641418457 6.389999866485596,15.78499984741211 6.389999866485596,15.78499984741211 C6.389999866485596,15.78499984741211 -14.885000228881836,7.0370001792907715 -14.885000228881836,7.0370001792907715 C-14.885000228881836,7.0370001792907715 -11.788999557495117,-15.78499984741211 -11.788999557495117,-15.78499984741211z">
                    </path>
                </g>
                <g opacity="1" transform="matrix(1,0,0,1,107.73899841308594,259.8080139160156)">
                    <path fill="rgb(195,151,122)" fill-opacity="1"
                        d=" M-2.6110000610351562,-13.803999900817871 C-2.6110000610351562,-13.803999900817871 -6.875999927520752,13.803000450134277 -6.875999927520752,13.803000450134277 C-6.875999927520752,13.803000450134277 -0.2150000035762787,8.878999710083008 -0.2150000035762787,8.878999710083008 C-0.2150000035762787,8.878999710083008 6.875999927520752,-8.010000228881836 6.875999927520752,-8.010000228881836 C6.875999927520752,-8.010000228881836 -2.6110000610351562,-13.803999900817871 -2.6110000610351562,-13.803999900817871z">
                    </path>
                </g>
            </g>
        </g>
        <g transform="matrix(0.987422525882721,-0.1581036001443863,0.1581036001443863,0.987422525882721,209.5648956298828,211.73280334472656)"
            opacity="1" style="display: block;">
            <g opacity="1" transform="matrix(1,0,0,1,0,0)">
                <path stroke-linecap="butt" stroke-linejoin="miter" fill-opacity="0" stroke-miterlimit="4"
                    stroke="rgb(114,203,204)" stroke-opacity="1" stroke-width="4" d="M0 0"></path>
            </g>
            <g opacity="1" transform="matrix(1,0,0,1,0,0)">
                <path stroke-linecap="butt" stroke-linejoin="miter" fill-opacity="0" stroke-miterlimit="4"
                    stroke="rgb(114,203,204)" stroke-opacity="1" stroke-width="4" d="M0 0"></path>
            </g>
            <g opacity="1" transform="matrix(1,0,0,1,0,0)">
                <path stroke-linecap="butt" stroke-linejoin="miter" fill-opacity="0" stroke-miterlimit="4"
                    stroke="rgb(114,203,204)" stroke-opacity="1" stroke-width="4" d="M0 0"></path>
            </g>
        </g>
    </g>
</svg>