<svg xmlns="http://www.w3.org/2000/svg" viewBox="0 0 400 400" width="100%" height="100%"
    preserveAspectRatio="xMidYMid meet">
    <defs>
        <clipPath id="__lottie_element_458">
            <rect width="400" height="400" x="0" y="0"></rect>
        </clipPath>
    </defs>
    <g clip-path="url(#__lottie_element_458)">
        <g transform="matrix(1,0,0,1,50.7760009765625,-0.25)" opacity="1" style="display: block;">
            <g opacity="1" transform="matrix(1,0,0,1,0,0)">
                <g opacity="1" transform="matrix(1,0,0,1,66.0999984741211,132.6909942626953)">
                    <path fill="rgb(79,82,82)" fill-opacity="1"
                        d=" M-12.196000099182129,-11.788000106811523 C-12.196000099182129,-11.788000106811523 -1.6770000457763672,-16.889999389648438 -1.6770000457763672,-16.889999389648438 C-1.6770000457763672,-16.889999389648438 12.196000099182129,11.715999603271484 12.196000099182129,11.715999603271484 C12.196000099182129,11.715999603271484 1.9509999752044678,16.889999389648438 1.9509999752044678,16.889999389648438 C1.9509999752044678,16.889999389648438 -12.196000099182129,-11.788000106811523 -12.196000099182129,-11.788000106811523z">
                    </path>
                </g>
                <g opacity="1" transform="matrix(1,0,0,1,66.00800323486328,135.16400146484375)">
                    <path fill="rgb(133,133,133)" fill-opacity="1"
                        d=" M17.895999908447266,-23.395999908447266 C17.895999908447266,-23.395999908447266 -27.333999633789062,-1.4600000381469727 -27.333999633789062,-1.4600000381469727 C-27.333999633789062,-1.4600000381469727 -25.45599937438965,23.395999908447266 -25.45599937438965,23.395999908447266 C-25.45599937438965,23.395999908447266 27.33300018310547,-1.218000054359436 27.33300018310547,-1.218000054359436 C27.33300018310547,-1.218000054359436 17.895999908447266,-23.395999908447266 17.895999908447266,-23.395999908447266z">
                    </path>
                </g>
                <g opacity="1" transform="matrix(1,0,0,1,71.45999908447266,146.49400329589844)">
                    <path fill="rgb(110,112,115)" fill-opacity="1"
                        d=" M-30.906999588012695,12.065999984741211 C-30.906999588012695,12.065999984741211 -17.55500030517578,14.020000457763672 -17.55500030517578,14.020000457763672 C-17.55500030517578,14.020000457763672 30.906999588012695,-7.431000232696533 30.906999588012695,-7.431000232696533 C30.906999588012695,-7.431000232696533 24.989999771118164,-14.020999908447266 24.989999771118164,-14.020999908447266 C24.989999771118164,-14.020999908447266 19.559999465942383,-13.866000175476074 19.559999465942383,-13.866000175476074 C19.559999465942383,-13.866000175476074 -30.906999588012695,12.065999984741211 -30.906999588012695,12.065999984741211z">
                    </path>
                </g>
                <g opacity="1" transform="matrix(1,0,0,1,83.55999755859375,168.37399291992188)">
                    <path fill="rgb(79,82,82)" fill-opacity="1"
                        d=" M15.510000228881836,18.864999771118164 C15.510000228881836,18.864999771118164 -5.263999938964844,-23.966999053955078 -5.263999938964844,-23.966999053955078 C-5.263999938964844,-23.966999053955078 -15.510000228881836,-18.79400062561035 -15.510000228881836,-18.79400062561035 C-15.510000228881836,-18.79400062561035 4.989999771118164,23.966999053955078 4.989999771118164,23.966999053955078 C4.989999771118164,23.966999053955078 15.510000228881836,18.864999771118164 15.510000228881836,18.864999771118164z">
                    </path>
                </g>
                <g opacity="1" transform="matrix(1,0,0,1,93.13500213623047,125.31999969482422)">
                    <path fill="rgb(110,112,115)" fill-opacity="1"
                        d=" M-9.230999946594238,-13.553000450134277 C-9.230999946594238,-13.553000450134277 -3.859999895095825,-13.741999626159668 -3.859999895095825,-13.741999626159668 C-3.859999895095825,-13.741999626159668 3.819000005722046,-13.741999626159668 3.819000005722046,-13.741999626159668 C3.819000005722046,-13.741999626159668 9.230999946594238,13.741999626159668 9.230999946594238,13.741999626159668 C9.230999946594238,13.741999626159668 -2.115999937057495,7.309000015258789 -2.115999937057495,7.309000015258789 C-2.115999937057495,7.309000015258789 -9.230999946594238,-13.553000450134277 -9.230999946594238,-13.553000450134277z">
                    </path>
                </g>
            </g>
        </g>
        <g transform="matrix(1,0,0,1,50.7760009765625,-0.25)" opacity="1" style="display: block;">
            <g opacity="0.1" transform="matrix(1,0,0,1,153.63299560546875,388.52899169921875)">
                <path fill="rgb(0,0,0)" fill-opacity="1"
                    d=" M-113.48899841308594,2.6089999675750732 C-113.48899841308594,2.6089999675750732 -23.29199981689453,-11.720000267028809 -23.29199981689453,-11.720000267028809 C-23.29199981689453,-11.720000267028809 113.48899841308594,-3.2730000019073486 113.48899841308594,-3.2730000019073486 C113.48899841308594,-3.2730000019073486 -4.301000118255615,11.722999572753906 -4.301000118255615,11.722999572753906 C-4.301000118255615,11.722999572753906 -113.48899841308594,2.6089999675750732 -113.48899841308594,2.6089999675750732z">
                </path>
            </g>
            <g opacity="1" transform="matrix(1,0,0,1,171.4239959716797,319.64599609375)">
                <path fill="rgb(133,99,0)" fill-opacity="1"
                    d=" M28.649999618530273,-43.10300064086914 C28.649999618530273,-43.10300064086914 18.124000549316406,-16.006999969482422 18.124000549316406,-16.006999969482422 C18.124000549316406,-16.006999969482422 7.813000202178955,-3.3929998874664307 7.813000202178955,-3.3929998874664307 C7.813000202178955,-3.3929998874664307 5.88700008392334,15.494000434875488 5.88700008392334,15.494000434875488 C5.88700008392334,15.494000434875488 -0.8920000195503235,32.94599914550781 -0.8920000195503235,32.94599914550781 C-0.8920000195503235,32.94599914550781 -13.29800033569336,38.92499923706055 -13.29800033569336,38.92499923706055 C-13.29800033569336,38.92499923706055 -28.649999618530273,43.10300064086914 -28.649999618530273,43.10300064086914 C-28.649999618530273,43.10300064086914 -22.267000198364258,-9.642999649047852 -22.267000198364258,-9.642999649047852 C-22.267000198364258,-9.642999649047852 28.649999618530273,-43.10300064086914 28.649999618530273,-43.10300064086914z">
                </path>
            </g>
            <g opacity="1" transform="matrix(1,0,0,1,158.98899841308594,351.6549987792969)">
                <path fill="rgb(158,119,0)" fill-opacity="1"
                    d=" M-13.333999633789062,-0.9039999842643738 C-13.333999633789062,-0.9039999842643738 16.21500015258789,-11.093999862670898 16.21500015258789,-11.093999862670898 C16.21500015258789,-11.093999862670898 11.543000221252441,0.9369999766349792 11.543000221252441,0.9369999766349792 C11.543000221252441,0.9369999766349792 -1.9010000228881836,11.093999862670898 -1.9010000228881836,11.093999862670898 C-1.9010000228881836,11.093999862670898 -16.21500015258789,11.093999862670898 -16.21500015258789,11.093999862670898 C-16.21500015258789,11.093999862670898 -16.21500015258789,6.019999980926514 -16.21500015258789,6.019999980926514 C-16.21500015258789,6.019999980926514 -13.333999633789062,-0.9039999842643738 -13.333999633789062,-0.9039999842643738z">
                </path>
            </g>
            <g opacity="1" transform="matrix(1,0,0,1,164.60800170898438,367.3399963378906)">
                <path fill="rgb(117,87,0)" fill-opacity="1"
                    d=" M5.923999786376953,-14.74899959564209 C5.923999786376953,-14.74899959564209 28.95599937438965,11.581000328063965 28.95599937438965,11.581000328063965 C28.95599937438965,11.581000328063965 1.4789999723434448,14.74899959564209 1.4789999723434448,14.74899959564209 C1.4789999723434448,14.74899959564209 -28.95599937438965,11.581000328063965 -28.95599937438965,11.581000328063965 C-28.95599937438965,11.581000328063965 -28.95599937438965,-1.9859999418258667 -28.95599937438965,-1.9859999418258667 C-28.95599937438965,-1.9859999418258667 5.923999786376953,-14.74899959564209 5.923999786376953,-14.74899959564209z">
                </path>
            </g>
            <g opacity="1" transform="matrix(1,0,0,1,164.58599853515625,382.0889892578125)">
                <path fill="rgb(187,143,44)" fill-opacity="1"
                    d=" M-28.979000091552734,3.1670000553131104 C-28.979000091552734,3.1670000553131104 28.979000091552734,3.1670000553131104 28.979000091552734,3.1670000553131104 C28.979000091552734,3.1670000553131104 28.979000091552734,-3.1679999828338623 28.979000091552734,-3.1679999828338623 C28.979000091552734,-3.1679999828338623 -28.979000091552734,-3.1679999828338623 -28.979000091552734,-3.1679999828338623 C-28.979000091552734,-3.1679999828338623 -28.979000091552734,3.1670000553131104 -28.979000091552734,3.1670000553131104z">
                </path>
            </g>
            <g opacity="1" transform="matrix(1,0,0,1,172.01199340820312,322.86700439453125)">
                <path fill="rgb(158,119,0)" fill-opacity="1"
                    d=" M10.006999969482422,-11.902000427246094 C10.006999969482422,-11.902000427246094 -3.0859999656677246,-13.446999549865723 -3.0859999656677246,-13.446999549865723 C-3.0859999656677246,-13.446999549865723 -10.006999969482422,13.447999954223633 -10.006999969482422,13.447999954223633 C-10.006999969482422,13.447999954223633 5.298999786376953,12.27299976348877 5.298999786376953,12.27299976348877 C5.298999786376953,12.27299976348877 9.888999938964844,0.45500001311302185 9.888999938964844,0.45500001311302185 C9.888999938964844,0.45500001311302185 10.006999969482422,-11.902000427246094 10.006999969482422,-11.902000427246094z">
                </path>
            </g>
            <g opacity="1" transform="matrix(1,0,0,1,179.23699951171875,313.46600341796875)">
                <path fill="rgb(181,138,0)" fill-opacity="1"
                    d=" M-10.310999870300293,-4.046999931335449 C-10.310999870300293,-4.046999931335449 2.5940001010894775,9.82800006866455 2.5940001010894775,9.82800006866455 C2.5940001010894775,9.82800006866455 10.310999870300293,-9.82800006866455 10.310999870300293,-9.82800006866455 C10.310999870300293,-9.82800006866455 -10.310999870300293,-4.046999931335449 -10.310999870300293,-4.046999931335449z">
                </path>
            </g>
            <g opacity="1" transform="matrix(1,0,0,1,126.28800201416016,334.10699462890625)">
                <path fill="rgb(158,119,0)" fill-opacity="1"
                    d=" M28.048999786376953,-19.503000259399414 C28.048999786376953,-19.503000259399414 16.486000061035156,28.642000198364258 16.486000061035156,28.642000198364258 C16.486000061035156,28.642000198364258 8.24899959564209,31.57900047302246 8.24899959564209,31.57900047302246 C8.24899959564209,31.57900047302246 -22.035999298095703,37.266998291015625 -22.035999298095703,37.266998291015625 C-22.035999298095703,37.266998291015625 -28.048999786376953,-37.268001556396484 -28.048999786376953,-37.268001556396484 C-28.048999786376953,-37.268001556396484 28.048999786376953,-19.503000259399414 28.048999786376953,-19.503000259399414z">
                </path>
            </g>
            <g opacity="1" transform="matrix(1,0,0,1,149.15699768066406,295.5740051269531)">
                <path fill="rgb(190,143,0)" fill-opacity="1"
                    d=" M50.91699981689453,-19.0310001373291 C50.91699981689453,-19.0310001373291 5.179999828338623,19.0310001373291 5.179999828338623,19.0310001373291 C5.179999828338623,19.0310001373291 -50.91699981689453,1.2660000324249268 -50.91699981689453,1.2660000324249268 C-50.91699981689453,1.2660000324249268 -19.636999130249023,-6.796000003814697 -19.636999130249023,-6.796000003814697 C-19.636999130249023,-6.796000003814697 50.91699981689453,-19.0310001373291 50.91699981689453,-19.0310001373291z">
                </path>
            </g>
            <g opacity="1" transform="matrix(1,0,0,1,126.47799682617188,374)">
                <path fill="rgb(133,99,0)" fill-opacity="1"
                    d=" M16.295000076293945,-11.25100040435791 C16.295000076293945,-11.25100040435791 22.854000091552734,11.25100040435791 22.854000091552734,11.25100040435791 C22.854000091552734,11.25100040435791 -22.854000091552734,11.25100040435791 -22.854000091552734,11.25100040435791 C-22.854000091552734,11.25100040435791 -22.22599983215332,-2.625999927520752 -22.22599983215332,-2.625999927520752 C-22.22599983215332,-2.625999927520752 16.295000076293945,-11.25100040435791 16.295000076293945,-11.25100040435791z">
                </path>
            </g>
            <g opacity="1" transform="matrix(1,0,0,1,126.47799682617188,388.4179992675781)">
                <path fill="rgb(204,172,19)" fill-opacity="1"
                    d=" M-22.854000091552734,3.1679999828338623 C-22.854000091552734,3.1679999828338623 22.854000091552734,3.1679999828338623 22.854000091552734,3.1679999828338623 C22.854000091552734,3.1679999828338623 22.854000091552734,-3.1670000553131104 22.854000091552734,-3.1670000553131104 C22.854000091552734,-3.1670000553131104 -22.854000091552734,-3.1670000553131104 -22.854000091552734,-3.1670000553131104 C-22.854000091552734,-3.1670000553131104 -22.854000091552734,3.1679999828338623 -22.854000091552734,3.1679999828338623z">
                </path>
            </g>
            <g opacity="1" transform="matrix(1,0,0,1,124.36000061035156,361.06201171875)">
                <path fill="rgb(190,143,0)" fill-opacity="1"
                    d=" M21.295000076293945,-10.310999870300293 C21.295000076293945,-10.310999870300293 -21.295000076293945,-4.408999919891357 -21.295000076293945,-4.408999919891357 C-21.295000076293945,-4.408999919891357 -20.10700035095215,10.310999870300293 -20.10700035095215,10.310999870300293 C-20.10700035095215,10.310999870300293 18.413999557495117,1.6859999895095825 18.413999557495117,1.6859999895095825 C18.413999557495117,1.6859999895095825 21.295000076293945,-10.310999870300293 21.295000076293945,-10.310999870300293z">
                </path>
            </g>
        </g>
        <g transform="matrix(1,0,0,1,50.7760009765625,-0.25)" opacity="1" style="display: block;">
            <g opacity="1" transform="matrix(1,0,0,1,0,0)">
                <g opacity="1" transform="matrix(1,0,0,1,144.98699951171875,213.26800537109375)">
                    <path fill="rgb(228,199,40)" fill-opacity="1"
                        d=" M-34.38999938964844,-56.928001403808594 C-34.38999938964844,-56.928001403808594 13.25100040435791,-45.76599884033203 13.25100040435791,-45.76599884033203 C13.25100040435791,-45.76599884033203 41.8390007019043,33.30099868774414 41.8390007019043,33.30099868774414 C41.8390007019043,33.30099868774414 48.74599838256836,47.582000732421875 48.74599838256836,47.582000732421875 C48.74599838256836,47.582000732421875 -29.381000518798828,51.92100143432617 -29.381000518798828,51.92100143432617 C-29.381000518798828,51.92100143432617 -47.744998931884766,56.928001403808594 -47.744998931884766,56.928001403808594 C-47.744998931884766,56.928001403808594 -48.74599838256836,42.237998962402344 -48.74599838256836,42.237998962402344 C-48.74599838256836,42.237998962402344 -34.38999938964844,-56.928001403808594 -34.38999938964844,-56.928001403808594z">
                    </path>
                </g>
                <g opacity="1" transform="matrix(1,0,0,1,107.16600036621094,185.55499267578125)">
                    <path fill="rgb(190,143,0)" fill-opacity="1"
                        d=" M-16.601999282836914,-16.527999877929688 C-16.601999282836914,-16.527999877929688 3.431999921798706,-29.21500015258789 3.431999921798706,-29.21500015258789 C3.431999921798706,-29.21500015258789 16.601999282836914,28.402999877929688 16.601999282836914,28.402999877929688 C16.601999282836914,28.402999877929688 5.1020002365112305,29.21500015258789 5.1020002365112305,29.21500015258789 C5.1020002365112305,29.21500015258789 -9.23900032043457,2.640000104904175 -9.23900032043457,2.640000104904175 C-9.23900032043457,2.640000104904175 -16.601999282836914,-16.527999877929688 -16.601999282836914,-16.527999877929688z">
                    </path>
                </g>
                <g opacity="1" transform="matrix(1,0,0,1,145.37899780273438,243.625)">
                    <path fill="rgb(190,143,0)" fill-opacity="1"
                        d=" M-49.138999938964844,11.880999565124512 C-49.138999938964844,11.880999565124512 6.927999973297119,-26.570999145507812 6.927999973297119,-26.570999145507812 C6.927999973297119,-26.570999145507812 36.986000061035156,-14.489999771118164 36.986000061035156,-14.489999771118164 C36.986000061035156,-14.489999771118164 49.138999938964844,18.04599952697754 49.138999938964844,18.04599952697754 C49.138999938964844,18.04599952697754 -29.416000366210938,23.527999877929688 -29.416000366210938,23.527999877929688 C-29.416000366210938,23.527999877929688 -48.13800048828125,26.570999145507812 -48.13800048828125,26.570999145507812 C-48.13800048828125,26.570999145507812 -49.138999938964844,11.880999565124512 -49.138999938964844,11.880999565124512z">
                    </path>
                </g>
            </g>
        </g>
        <g transform="matrix(1,0,0,1,50.7760009765625,-0.25)" opacity="1" style="display: block;">
            <g opacity="0.2" transform="matrix(1,0,0,1,144.41000366210938,241.0810089111328)">
                <path fill="rgb(43,43,43)" fill-opacity="1"
                    d=" M3.937000036239624,2.200000047683716 C3.937000036239624,2.200000047683716 22.280000686645508,13.42300033569336 22.280000686645508,13.42300033569336 C22.280000686645508,13.42300033569336 48.16999816894531,15.399999618530273 48.16999816894531,15.399999618530273 C48.16999816894531,15.399999618530273 44.448001861572266,5.434999942779541 44.448001861572266,5.434999942779541 C44.448001861572266,5.434999942779541 11.210000038146973,-15.401000022888184 11.210000038146973,-15.401000022888184 C11.210000038146973,-15.401000022888184 -18.856000900268555,-2.171999931335449 -18.856000900268555,-2.171999931335449 C-18.856000900268555,-2.171999931335449 -48.16999816894531,14.425000190734863 -48.16999816894531,14.425000190734863 C-48.16999816894531,14.425000190734863 3.937000036239624,2.200000047683716 3.937000036239624,2.200000047683716z">
                </path>
            </g>
        </g>
        <g transform="matrix(1,0,0,1,50.7760009765625,-0.25)" opacity="1" style="display: block;">
            <g opacity="1" transform="matrix(1,0,0,1,163.3489990234375,276.11700439453125)">
                <path fill="rgb(133,99,0)" fill-opacity="1"
                    d=" M31.170000076293945,-14.446999549865723 C31.170000076293945,-14.446999549865723 7.796000003814697,-13.354000091552734 7.796000003814697,-13.354000091552734 C7.796000003814697,-13.354000091552734 1.2589999437332153,-7.114999771118164 1.2589999437332153,-7.114999771118164 C1.2589999437332153,-7.114999771118164 -6.26200008392334,-12.696999549865723 -6.26200008392334,-12.696999549865723 C-6.26200008392334,-12.696999549865723 -36.724998474121094,-11.27299976348877 -36.724998474121094,-11.27299976348877 C-36.724998474121094,-11.27299976348877 -36.66600036621094,1.1119999885559082 -36.66600036621094,1.1119999885559082 C-36.66600036621094,1.1119999885559082 -34.72100067138672,14.446999549865723 -34.72100067138672,14.446999549865723 C-34.72100067138672,14.446999549865723 -3.753000020980835,8.368000030517578 -3.753000020980835,8.368000030517578 C-3.753000020980835,8.368000030517578 1.2589999437332153,3.134999990463257 1.2589999437332153,3.134999990463257 C1.2589999437332153,3.134999990463257 10.065999984741211,5.6570000648498535 10.065999984741211,5.6570000648498535 C10.065999984741211,5.6570000648498535 36.724998474121094,0.42500001192092896 36.724998474121094,0.42500001192092896 C36.724998474121094,0.42500001192092896 31.170000076293945,-14.446999549865723 31.170000076293945,-14.446999549865723z">
                </path>
            </g>
            <g opacity="1" transform="matrix(1,0,0,1,165.25100708007812,273.625)">
                <path fill="rgb(204,172,19)" fill-opacity="1"
                    d=" M-8.163000106811523,-10.204000473022461 C-8.163000106811523,-10.204000473022461 -5.6570000648498535,10.861000061035156 -5.6570000648498535,10.861000061035156 C-5.6570000648498535,10.861000061035156 8.163000106811523,8.149999618530273 8.163000106811523,8.149999618530273 C8.163000106811523,8.149999618530273 5.894999980926514,-10.861000061035156 5.894999980926514,-10.861000061035156 C5.894999980926514,-10.861000061035156 -8.163000106811523,-10.204000473022461 -8.163000106811523,-10.204000473022461z">
                </path>
            </g>
        </g>
        <g transform="matrix(1,0,0,1,50.7760009765625,-0.25)" opacity="1" style="display: block;">
            <g opacity="1" transform="matrix(1,0,0,1,0,0)">
                <g opacity="1" transform="matrix(1,0,0,1,136.12100219726562,105.82599639892578)">
                    <path fill="rgb(223,188,164)" fill-opacity="1"
                        d=" M57.540000915527344,-44.040000915527344 C57.540000915527344,-44.040000915527344 60.590999603271484,-6.551000118255615 60.590999603271484,-6.551000118255615 C60.590999603271484,-6.551000118255615 57.948001861572266,29.33799934387207 57.948001861572266,29.33799934387207 C57.948001861572266,29.33799934387207 28.628999710083008,38.090999603271484 28.628999710083008,38.090999603271484 C28.628999710083008,38.090999603271484 14.614999771118164,53.176998138427734 14.614999771118164,53.176998138427734 C14.614999771118164,53.176998138427734 -7.426000118255615,53.76900100708008 -7.426000118255615,53.76900100708008 C-7.426000118255615,53.76900100708008 -25.52400016784668,50.51499938964844 -25.52400016784668,50.51499938964844 C-25.52400016784668,50.51499938964844 -37.316001892089844,22.900999069213867 -37.316001892089844,22.900999069213867 C-37.316001892089844,22.900999069213867 -46.845001220703125,5.750999927520752 -46.845001220703125,5.750999927520752 C-46.845001220703125,5.750999927520752 -56.42499923706055,-14.357999801635742 -56.42499923706055,-14.357999801635742 C-56.42499923706055,-14.357999801635742 -60.590999603271484,-46.391998291015625 -60.590999603271484,-46.391998291015625 C-60.590999603271484,-46.391998291015625 -30.172000885009766,-35.45199966430664 -30.172000885009766,-35.45199966430664 C-30.172000885009766,-35.45199966430664 12.567000389099121,-39.393001556396484 12.567000389099121,-39.393001556396484 C12.567000389099121,-39.393001556396484 22.437000274658203,-53.76900100708008 22.437000274658203,-53.76900100708008 C22.437000274658203,-53.76900100708008 34.37799835205078,-43.007999420166016 34.37799835205078,-43.007999420166016 C34.37799835205078,-43.007999420166016 57.540000915527344,-44.040000915527344 57.540000915527344,-44.040000915527344z">
                    </path>
                </g>
                <g opacity="1" transform="matrix(1,0,0,1,110.1240005493164,92.27899932861328)">
                    <path fill="rgb(195,151,122)" fill-opacity="1"
                        d=" M5.478000164031982,-21.641000747680664 C5.478000164031982,-21.641000747680664 10.211000442504883,15.743000030517578 10.211000442504883,15.743000030517578 C10.211000442504883,15.743000030517578 2.1429998874664307,21.641000747680664 2.1429998874664307,21.641000747680664 C2.1429998874664307,21.641000747680664 -6.5,17.6560001373291 -6.5,17.6560001373291 C-6.5,17.6560001373291 -10.211000442504883,2.627000093460083 -10.211000442504883,2.627000093460083 C-10.211000442504883,2.627000093460083 -2.5320000648498535,1.9589999914169312 -2.5320000648498535,1.9589999914169312 C-2.5320000648498535,1.9589999914169312 -4.175000190734863,-20.655000686645508 -4.175000190734863,-20.655000686645508 C-4.175000190734863,-20.655000686645508 5.478000164031982,-21.641000747680664 5.478000164031982,-21.641000747680664z">
                    </path>
                </g>
                <g opacity="1" transform="matrix(1,0,0,1,134.78900146484375,83.90299987792969)">
                    <path fill="rgb(195,151,122)" fill-opacity="1"
                        d=" M19.187000274658203,20.264999389648438 C19.187000274658203,20.264999389648438 5.605000019073486,-0.08299999684095383 5.605000019073486,-0.08299999684095383 C5.605000019073486,-0.08299999684095383 -19.187000274658203,-13.265000343322754 -19.187000274658203,-13.265000343322754 C-19.187000274658203,-13.265000343322754 17.017000198364258,-20.264999389648438 17.017000198364258,-20.264999389648438 C17.017000198364258,-20.264999389648438 19.187000274658203,20.264999389648438 19.187000274658203,20.264999389648438z">
                    </path>
                </g>
                <g opacity="1" transform="matrix(1,0,0,1,178.23800659179688,78.64099884033203)">
                    <path fill="rgb(195,151,122)" fill-opacity="1"
                        d=" M-5.291999816894531,18.006999969482422 C-5.291999816894531,18.006999969482422 0.6890000104904175,-1.7230000495910645 0.6890000104904175,-1.7230000495910645 C0.6890000104904175,-1.7230000495910645 12.559000015258789,-16.559999465942383 12.559000015258789,-16.559999465942383 C12.559000015258789,-16.559999465942383 -12.559000015258789,-18.006999969482422 -12.559000015258789,-18.006999969482422 C-12.559000015258789,-18.006999969482422 -5.291999816894531,18.006999969482422 -5.291999816894531,18.006999969482422z">
                    </path>
                </g>
                <g opacity="1" transform="matrix(1,0,0,1,144.677001953125,133.38800048828125)">
                    <path fill="rgb(195,151,122)" fill-opacity="1"
                        d=" M52.03499984741211,-34.112998962402344 C52.03499984741211,-34.112998962402344 -55.402000427246094,-21.81100082397461 -55.402000427246094,-21.81100082397461 C-55.402000427246094,-21.81100082397461 -34.08000183105469,22.95199966430664 -34.08000183105469,22.95199966430664 C-34.08000183105469,22.95199966430664 -19.2549991607666,26.39699935913086 -19.2549991607666,26.39699935913086 C-19.2549991607666,26.39699935913086 -6.438000202178955,28.535999298095703 -6.438000202178955,28.535999298095703 C-6.438000202178955,28.535999298095703 13.5600004196167,34.11399841308594 13.5600004196167,34.11399841308594 C13.5600004196167,34.11399841308594 17.472000122070312,19.576000213623047 17.472000122070312,19.576000213623047 C17.472000122070312,19.576000213623047 21.68000030517578,11.600000381469727 21.68000030517578,11.600000381469727 C21.68000030517578,11.600000381469727 55.402000427246094,7.258999824523926 55.402000427246094,7.258999824523926 C55.402000427246094,7.258999824523926 52.03499984741211,-34.112998962402344 52.03499984741211,-34.112998962402344z">
                    </path>
                </g>
                <g opacity="1" transform="matrix(1,0,0,1,114.59400177001953,142.031005859375)">
                    <path fill="rgb(195,151,122)" fill-opacity="1"
                        d=" M5.742000102996826,-34.00899887084961 C5.742000102996826,-34.00899887084961 11.112000465393066,7.705999851226807 11.112000465393066,7.705999851226807 C11.112000465393066,7.705999851226807 21.527999877929688,11.015000343322754 21.527999877929688,11.015000343322754 C21.527999877929688,11.015000343322754 25.319000244140625,21.972000122070312 25.319000244140625,21.972000122070312 C25.319000244140625,21.972000122070312 22.047000885009766,34.0099983215332 22.047000885009766,34.0099983215332 C22.047000885009766,34.0099983215332 -3.997999906539917,14.3100004196167 -3.997999906539917,14.3100004196167 C-3.997999906539917,14.3100004196167 -19.152999877929688,-17.506000518798828 -19.152999877929688,-17.506000518798828 C-19.152999877929688,-17.506000518798828 -19.87700080871582,-23.670000076293945 -19.87700080871582,-23.670000076293945 C-19.87700080871582,-23.670000076293945 -25.319000244140625,-30.452999114990234 -25.319000244140625,-30.452999114990234 C-25.319000244140625,-30.452999114990234 -10.970000267028809,-32.09600067138672 -10.970000267028809,-32.09600067138672 C-10.970000267028809,-32.09600067138672 5.742000102996826,-34.00899887084961 5.742000102996826,-34.00899887084961z">
                    </path>
                </g>
                <g opacity="0.15" transform="matrix(1,0,0,1,114.59400177001953,142.02999877929688)">
                    <path fill="rgb(43,43,43)" fill-opacity="1"
                        d=" M5.742000102996826,-34.00899887084961 C5.742000102996826,-34.00899887084961 11.112000465393066,7.705999851226807 11.112000465393066,7.705999851226807 C11.112000465393066,7.705999851226807 21.527999877929688,11.015000343322754 21.527999877929688,11.015000343322754 C21.527999877929688,11.015000343322754 25.319000244140625,21.972000122070312 25.319000244140625,21.972000122070312 C25.319000244140625,21.972000122070312 22.047000885009766,34.0099983215332 22.047000885009766,34.0099983215332 C22.047000885009766,34.0099983215332 -3.996999979019165,14.3100004196167 -3.996999979019165,14.3100004196167 C-3.996999979019165,14.3100004196167 -19.152000427246094,-17.506000518798828 -19.152000427246094,-17.506000518798828 C-19.152000427246094,-17.506000518798828 -19.875999450683594,-23.670000076293945 -19.875999450683594,-23.670000076293945 C-19.875999450683594,-23.670000076293945 -25.31800079345703,-30.452999114990234 -25.31800079345703,-30.452999114990234 C-25.31800079345703,-30.452999114990234 -10.968999862670898,-32.09600067138672 -10.968999862670898,-32.09600067138672 C-10.968999862670898,-32.09600067138672 5.742000102996826,-34.00899887084961 5.742000102996826,-34.00899887084961z">
                    </path>
                </g>
                <g opacity="1" transform="matrix(1,0,0,1,143.3800048828125,160.51400756835938)">
                    <path fill="rgb(138,102,81)" fill-opacity="1"
                        d=" M22.976999282836914,-15.526000022888184 C22.976999282836914,-15.526000022888184 -22.976999282836914,-10.123000144958496 -22.976999282836914,-10.123000144958496 C-22.976999282836914,-10.123000144958496 -6.739999771118164,15.526000022888184 -6.739999771118164,15.526000022888184 C-6.739999771118164,15.526000022888184 14.857000350952148,6.98799991607666 14.857000350952148,6.98799991607666 C14.857000350952148,6.98799991607666 22.976999282836914,-15.526000022888184 22.976999282836914,-15.526000022888184z">
                    </path>
                </g>
                <g opacity="1" transform="matrix(1,0,0,1,96.44999694824219,117.22899627685547)">
                    <path fill="rgb(138,102,81)" fill-opacity="1"
                        d=" M7.175000190734863,-7.295000076293945 C7.175000190734863,-7.295000076293945 -1.0089999437332153,7.295000076293945 -1.0089999437332153,7.295000076293945 C-1.0089999437332153,7.295000076293945 -7.175000190734863,-5.6519999504089355 -7.175000190734863,-5.6519999504089355 C-7.175000190734863,-5.6519999504089355 7.175000190734863,-7.295000076293945 7.175000190734863,-7.295000076293945z">
                    </path>
                </g>
                <g opacity="1" transform="matrix(1,0,0,1,151.80599975585938,123.49299621582031)">
                    <path fill="rgb(138,102,81)" fill-opacity="1"
                        d=" M-21.17099952697754,-4.468999862670898 C-21.17099952697754,-4.468999862670898 21.608999252319336,1.128999948501587 21.608999252319336,1.128999948501587 C21.608999252319336,1.128999948501587 21.17099952697754,4.468999862670898 21.17099952697754,4.468999862670898 C21.17099952697754,4.468999862670898 -21.608999252319336,-1.128999948501587 -21.608999252319336,-1.128999948501587 C-21.608999252319336,-1.128999948501587 -21.17099952697754,-4.468999862670898 -21.17099952697754,-4.468999862670898z">
                    </path>
                </g>
                <g opacity="1" transform="matrix(1,0,0,1,163.718994140625,105.947998046875)">
                    <path fill="rgb(138,102,81)" fill-opacity="1"
                        d=" M-9.743000030517578,-1.7790000438690186 C-9.743000030517578,-1.7790000438690186 1.093000054359436,4.010000228881836 1.093000054359436,4.010000228881836 C1.093000054359436,4.010000228881836 9.743000030517578,-4.010000228881836 9.743000030517578,-4.010000228881836 C9.743000030517578,-4.010000228881836 -0.061000000685453415,-3.937999963760376 -0.061000000685453415,-3.937999963760376 C-0.061000000685453415,-3.937999963760376 -9.743000030517578,-1.7790000438690186 -9.743000030517578,-1.7790000438690186z">
                    </path>
                </g>
                <g opacity="1" transform="matrix(1,0,0,1,133.16900634765625,71.9219970703125)">
                    <path fill="rgb(70,70,70)" fill-opacity="1"
                        d=" M-17.56599998474121,-1.284000039100647 C-17.56599998474121,-1.284000039100647 17.56599998474121,4.775000095367432 17.56599998474121,4.775000095367432 C17.56599998474121,4.775000095367432 16.59000015258789,-4.775000095367432 16.59000015258789,-4.775000095367432 C16.59000015258789,-4.775000095367432 2.9830000400543213,-4.5970001220703125 2.9830000400543213,-4.5970001220703125 C2.9830000400543213,-4.5970001220703125 -17.56599998474121,-1.284000039100647 -17.56599998474121,-1.284000039100647z">
                    </path>
                </g>
                <g opacity="1" transform="matrix(1,0,0,1,180.2899932861328,68.51100158691406)">
                    <path fill="rgb(70,70,70)" fill-opacity="1"
                        d=" M-9.38700008392334,6.640999794006348 C-9.38700008392334,6.640999794006348 -10.505999565124512,-4.264999866485596 -10.505999565124512,-4.264999866485596 C-10.505999565124512,-4.264999866485596 -1.3070000410079956,-6.640999794006348 -1.3070000410079956,-6.640999794006348 C-1.3070000410079956,-6.640999794006348 10.505999565124512,-6.429999828338623 10.505999565124512,-6.429999828338623 C10.505999565124512,-6.429999828338623 -9.38700008392334,6.640999794006348 -9.38700008392334,6.640999794006348z">
                    </path>
                </g>
                <g opacity="1" transform="matrix(1,0,0,1,86.32099914550781,77.81099700927734)">
                    <path fill="rgb(70,70,70)" fill-opacity="1"
                        d=" M19.628000259399414,-6.188000202178955 C19.628000259399414,-6.188000202178955 21.27199935913086,16.424999237060547 21.27199935913086,16.424999237060547 C21.27199935913086,16.424999237060547 13.592000007629395,17.093000411987305 13.592000007629395,17.093000411987305 C13.592000007629395,17.093000411987305 10.718000411987305,6.238999843597412 10.718000411987305,6.238999843597412 C10.718000411987305,6.238999843597412 -6.625999927520752,13.654000282287598 -6.625999927520752,13.654000282287598 C-6.625999927520752,13.654000282287598 -21.27199935913086,-17.093000411987305 -21.27199935913086,-17.093000411987305 C-21.27199935913086,-17.093000411987305 1.9550000429153442,-16.201000213623047 1.9550000429153442,-16.201000213623047 C1.9550000429153442,-16.201000213623047 19.628000259399414,-6.188000202178955 19.628000259399414,-6.188000202178955z">
                    </path>
                </g>
                <g opacity="1" transform="matrix(1,0,0,1,91.4219970703125,98.29299926757812)">
                    <path fill="rgb(138,102,81)" fill-opacity="1"
                        d=" M-5.5329999923706055,-3.7219998836517334 C-5.5329999923706055,-3.7219998836517334 1.1460000276565552,-6.39300012588501 1.1460000276565552,-6.39300012588501 C1.1460000276565552,-6.39300012588501 5.5329999923706055,6.39300012588501 5.5329999923706055,6.39300012588501 C5.5329999923706055,6.39300012588501 -5.5329999923706055,-3.7219998836517334 -5.5329999923706055,-3.7219998836517334z">
                    </path>
                </g>
                <g opacity="1" transform="matrix(1,0,0,1,0,0)">
                    <g opacity="1" transform="matrix(1,0,0,1,54.301998138427734,27.91699981689453)">
                        <path fill="rgb(158,119,0)" fill-opacity="1"
                            d=" M20.5310001373291,6.6570000648498535 C20.5310001373291,6.6570000648498535 2.244999885559082,-10.345000267028809 2.244999885559082,-10.345000267028809 C2.244999885559082,-10.345000267028809 -20.5310001373291,10.345000267028809 -20.5310001373291,10.345000267028809 C-20.5310001373291,10.345000267028809 -1.2139999866485596,10.201000213623047 -1.2139999866485596,10.201000213623047 C-1.2139999866485596,10.201000213623047 20.5310001373291,6.6570000648498535 20.5310001373291,6.6570000648498535z">
                        </path>
                    </g>
                    <g opacity="1" transform="matrix(1,0,0,1,37.54199981689453,51.97600173950195)">
                        <path fill="rgb(190,143,0)" fill-opacity="1"
                            d=" M-3.7699999809265137,-13.71399974822998 C-3.7699999809265137,-13.71399974822998 -37.29199981689453,17.402000427246094 -37.29199981689453,17.402000427246094 C-37.29199981689453,17.402000427246094 12.182000160217285,-4.613999843597412 12.182000160217285,-4.613999843597412 C12.182000160217285,-4.613999843597412 37.29100036621094,-17.402000427246094 37.29100036621094,-17.402000427246094 C37.29100036621094,-17.402000427246094 -3.7699999809265137,-13.71399974822998 -3.7699999809265137,-13.71399974822998z">
                        </path>
                    </g>
                    <g opacity="1" transform="matrix(1,0,0,1,37.54199981689453,51.97600173950195)">
                        <path fill="rgb(117,87,0)" fill-opacity="1"
                            d=" M-37.29199981689453,17.402000427246094 C-37.29199981689453,17.402000427246094 27.507999420166016,8.741999626159668 27.507999420166016,8.741999626159668 C27.507999420166016,8.741999626159668 37.29199981689453,-17.402000427246094 37.29199981689453,-17.402000427246094 C37.29199981689453,-17.402000427246094 -37.29199981689453,17.402000427246094 -37.29199981689453,17.402000427246094z">
                        </path>
                    </g>
                </g>
                <g opacity="1" transform="matrix(1,0,0,1,83.81500244140625,45.88199996948242)">
                    <path fill="rgb(158,119,0)" fill-opacity="1"
                        d=" M18.766000747680664,-14.836000442504883 C18.766000747680664,-14.836000442504883 3.9769999980926514,-14.362000465393066 3.9769999980926514,-14.362000465393066 C3.9769999980926514,-14.362000465393066 -8.982000350952148,-11.307999610900879 -8.982000350952148,-11.307999610900879 C-8.982000350952148,-11.307999610900879 -18.766000747680664,14.836000442504883 -18.766000747680664,14.836000442504883 C-18.766000747680664,14.836000442504883 5.435999870300293,-2.2679998874664307 5.435999870300293,-2.2679998874664307 C5.435999870300293,-2.2679998874664307 18.766000747680664,-14.836000442504883 18.766000747680664,-14.836000442504883z">
                    </path>
                </g>
                <g opacity="1" transform="matrix(1,0,0,1,131.34100341796875,17.41200065612793)">
                    <path fill="rgb(133,99,0)" fill-opacity="1"
                        d=" M14.545999526977539,-17.16200065612793 C14.545999526977539,-17.16200065612793 -18.937999725341797,-3.296999931335449 -18.937999725341797,-3.296999931335449 C-18.937999725341797,-3.296999931335449 -56.507999420166016,17.16200065612793 -56.507999420166016,17.16200065612793 C-56.507999420166016,17.16200065612793 -41.09199905395508,15.20199966430664 -41.09199905395508,15.20199966430664 C-41.09199905395508,15.20199966430664 -28.760000228881836,13.633000373840332 -28.760000228881836,13.633000373840332 C-28.760000228881836,13.633000373840332 9.960000038146973,12.092000007629395 9.960000038146973,12.092000007629395 C9.960000038146973,12.092000007629395 56.507999420166016,5.327000141143799 56.507999420166016,5.327000141143799 C56.507999420166016,5.327000141143799 14.545999526977539,-17.16200065612793 14.545999526977539,-17.16200065612793z">
                    </path>
                </g>
                <g opacity="1" transform="matrix(1,0,0,1,110.36000061035156,17.41200065612793)">
                    <path fill="rgb(190,143,0)" fill-opacity="1"
                        d=" M-24.138999938964844,-12.35099983215332 C-24.138999938964844,-12.35099983215332 -35.527000427246094,17.16200065612793 -35.527000427246094,17.16200065612793 C-35.527000427246094,17.16200065612793 35.527000427246094,-17.16200065612793 35.527000427246094,-17.16200065612793 C35.527000427246094,-17.16200065612793 -24.138999938964844,-12.35099983215332 -24.138999938964844,-12.35099983215332z">
                    </path>
                </g>
                <g opacity="1" transform="matrix(1,0,0,1,157.08799743652344,46.20199966430664)">
                    <path fill="rgb(228,199,40)" fill-opacity="1"
                        d=" M-54.50699996948242,-15.156000137329102 C-54.50699996948242,-15.156000137329102 50.869998931884766,-25.422000885009766 50.869998931884766,-25.422000885009766 C50.869998931884766,-25.422000885009766 54.72100067138672,13.71399974822998 54.72100067138672,13.71399974822998 C54.72100067138672,13.71399974822998 12.697999954223633,18.04400062561035 12.697999954223633,18.04400062561035 C12.697999954223633,18.04400062561035 1.4709999561309814,5.855000019073486 1.4709999561309814,5.855000019073486 C1.4709999561309814,5.855000019073486 -7.328000068664551,20.945999145507812 -7.328000068664551,20.945999145507812 C-7.328000068664551,20.945999145507812 -51.138999938964844,25.422000885009766 -51.138999938964844,25.422000885009766 C-51.138999938964844,25.422000885009766 -54.72100067138672,2.1730000972747803 -54.72100067138672,2.1730000972747803 C-54.72100067138672,2.1730000972747803 -54.50699996948242,-15.156000137329102 -54.50699996948242,-15.156000137329102z">
                    </path>
                </g>
                <g opacity="1" transform="matrix(1,0,0,1,133.93699645996094,47.48500061035156)">
                    <path fill="rgb(70,70,70)" fill-opacity="1"
                        d=" M-19.32699966430664,-8.100000381469727 C-19.32699966430664,-8.100000381469727 19.32699966430664,-11.949000358581543 19.32699966430664,-11.949000358581543 C19.32699966430664,-11.949000358581543 7.939000129699707,9.543000221252441 7.939000129699707,9.543000221252441 C7.939000129699707,9.543000221252441 -17.56399917602539,11.949000358581543 -17.56399917602539,11.949000358581543 C-17.56399917602539,11.949000358581543 -19.32699966430664,-8.100000381469727 -19.32699966430664,-8.100000381469727z">
                    </path>
                </g>
                <g opacity="1" transform="matrix(1,0,0,1,181.35400390625,42.27299880981445)">
                    <path fill="rgb(70,70,70)" fill-opacity="1"
                        d=" M18.27199935913086,-11.281000137329102 C18.27199935913086,-11.281000137329102 -20.399999618530273,-7.618000030517578 -20.399999618530273,-7.618000030517578 C-20.399999618530273,-7.618000030517578 -5.0879998207092285,11.281000137329102 -5.0879998207092285,11.281000137329102 C-5.0879998207092285,11.281000137329102 20.399999618530273,8.732999801635742 20.399999618530273,8.732999801635742 C20.399999618530273,8.732999801635742 18.27199935913086,-11.281000137329102 18.27199935913086,-11.281000137329102z">
                    </path>
                </g>
                <g opacity="1" transform="matrix(1,0,0,1,85.4990005493164,51.334999084472656)">
                    <path fill="rgb(204,172,19)" fill-opacity="1"
                        d=" M20.450000762939453,20.288999557495117 C20.450000762939453,20.288999557495117 -20.450000762939453,9.383000373840332 -20.450000762939453,9.383000373840332 C-20.450000762939453,9.383000373840332 17.08099937438965,-20.288999557495117 17.08099937438965,-20.288999557495117 C17.08099937438965,-20.288999557495117 20.450000762939453,20.288999557495117 20.450000762939453,20.288999557495117z">
                    </path>
                </g>
                <g opacity="1" transform="matrix(1,0,0,1,161.6790008544922,78.11199951171875)">
                    <path fill="rgb(232,201,182)" fill-opacity="1"
                        d=" M-3.121000051498413,-26.055999755859375 C-3.121000051498413,-26.055999755859375 8.104999542236328,-13.866999626159668 8.104999542236328,-13.866999626159668 C8.104999542236328,-13.866999626159668 11.784000396728516,23.825000762939453 11.784000396728516,23.825000762939453 C11.784000396728516,23.825000762939453 -7.703000068664551,26.055999755859375 -7.703000068664551,26.055999755859375 C-7.703000068664551,26.055999755859375 -11.782999992370605,-10.979999542236328 -11.782999992370605,-10.979999542236328 C-11.782999992370605,-10.979999542236328 -3.121000051498413,-26.055999755859375 -3.121000051498413,-26.055999755859375z">
                    </path>
                </g>
            </g>
        </g>

        <g transform="matrix(1,0,0,1,50.7760009765625,-0.25)" opacity="1" style="display: block;">
            <g opacity="1" transform="matrix(1,0,0,1,178.927001953125,82.29000091552734)">
                <path fill="rgb(43,43,43)" fill-opacity="1"
                    d=" M4.7789998054504395,0 C4.7789998054504395,2.6389999389648438 2.640000104904175,4.7789998054504395 0.0010000000474974513,4.7789998054504395 C-2.638000011444092,4.7789998054504395 -4.7789998054504395,2.6389999389648438 -4.7789998054504395,0 C-4.7789998054504395,-2.640000104904175 -2.638000011444092,-4.7789998054504395 0.0010000000474974513,-4.7789998054504395 C2.640000104904175,-4.7789998054504395 4.7789998054504395,-2.640000104904175 4.7789998054504395,0z">
                </path>
            </g>
        </g>

        <g transform="matrix(1,0,0,1,50.7760009765625,-0.25)" opacity="1" style="display: block;">
            <g opacity="1" transform="matrix(1,0,0,1,135.86199951171875,85.09700012207031)">
                <path fill="rgb(43,43,43)" fill-opacity="1"
                    d=" M-7.859000205993652,-2.6389999389648438 C-7.859000205993652,-2.6389999389648438 8.244000434875488,-0.8679999709129333 8.244000434875488,-0.8679999709129333 C8.244000434875488,-0.8679999709129333 7.857999801635742,2.6389999389648438 7.857999801635742,2.6389999389648438 C7.857999801635742,2.6389999389648438 -8.244000434875488,0.8690000176429749 -8.244000434875488,0.8690000176429749 C-8.244000434875488,0.8690000176429749 -7.859000205993652,-2.6389999389648438 -7.859000205993652,-2.6389999389648438z">
                </path>
            </g>
        </g>
        <g transform="matrix(1,0,0,1,50.7760009765625,-0.25)" opacity="1" style="display: block;">
            <g opacity="1" transform="matrix(1,0,0,1,87.05899810791016,196.99099731445312)">
                <path fill="rgb(204,172,19)" fill-opacity="1"
                    d=" M-7.8460001945495605,22.45400047302246 C-7.8460001945495605,22.45400047302246 -25.20800018310547,-13.272000312805176 -25.20800018310547,-13.272000312805176 C-25.20800018310547,-13.272000312805176 3.505000114440918,-27.964000701904297 3.505000114440918,-27.964000701904297 C3.505000114440918,-27.964000701904297 25.20800018310547,17.780000686645508 25.20800018310547,17.780000686645508 C25.20800018310547,17.780000686645508 13.604000091552734,27.964000701904297 13.604000091552734,27.964000701904297 C13.604000091552734,27.964000701904297 -7.8460001945495605,22.45400047302246 -7.8460001945495605,22.45400047302246z">
                </path>
            </g>
        </g>
        <g transform="matrix(1,0,0,1,50.7760009765625,-0.25)" opacity="1" style="display: block;">
            <g opacity="1" transform="matrix(1,0,0,1,101.91600036621094,235.13800048828125)">
                <path fill="rgb(228,199,40)" fill-opacity="1"
                    d=" M22.704999923706055,6.343999862670898 C22.704999923706055,6.343999862670898 -5.676000118255615,20.367000579833984 -5.676000118255615,20.367000579833984 C-5.676000118255615,20.367000579833984 -22.704999923706055,-15.692000389099121 -22.704999923706055,-15.692000389099121 C-22.704999923706055,-15.692000389099121 10.35099983215332,-20.367000579833984 10.35099983215332,-20.367000579833984 C10.35099983215332,-20.367000579833984 21.70400047302246,-8.03499984741211 21.70400047302246,-8.03499984741211 C21.70400047302246,-8.03499984741211 22.704999923706055,6.343999862670898 22.704999923706055,6.343999862670898z">
                </path>
            </g>
            <g opacity="1" transform="matrix(1,0,0,1,134.677001953125,224.9550018310547)">
                <path fill="rgb(223,188,164)" fill-opacity="1"
                    d=" M14.317999839782715,-16.527000427246094 C14.317999839782715,-16.527000427246094 -22.410999298095703,-10.182999610900879 -22.410999298095703,-10.182999610900879 C-22.410999298095703,-10.182999610900879 -10.057000160217285,16.527999877929688 -10.057000160217285,16.527999877929688 C-10.057000160217285,16.527999877929688 20.94300079345703,0.7260000109672546 20.94300079345703,0.7260000109672546 C20.94300079345703,0.7260000109672546 22.40999984741211,-7.901000022888184 22.40999984741211,-7.901000022888184 C22.40999984741211,-7.901000022888184 14.317999839782715,-16.527000427246094 14.317999839782715,-16.527000427246094z">
                </path>
            </g>
        </g>
        <g transform="matrix(1,0,0,1,50.7760009765625,-0.25)" opacity="1" style="display: block;">
            <g opacity="1" transform="matrix(1,0,0,1,0,0)">
                <g opacity="1" transform="matrix(1,0,0,1,125.37699890136719,311.2590026855469)">
                    <path fill="rgb(204,172,19)" fill-opacity="1"
                        d=" M1.246999979019165,-46.415000915527344 C1.246999979019165,-46.415000915527344 -9.770999908447266,-46.07099914550781 -9.770999908447266,-46.07099914550781 C-9.770999908447266,-46.07099914550781 -7.03000020980835,-1.8930000066757202 -7.03000020980835,-1.8930000066757202 C-7.03000020980835,-1.8930000066757202 -1.7569999694824219,46.415000915527344 -1.7569999694824219,46.415000915527344 C-1.7569999694824219,46.415000915527344 9.770999908447266,40.946998596191406 9.770999908447266,40.946998596191406 C9.770999908447266,40.946998596191406 1.246999979019165,-46.415000915527344 1.246999979019165,-46.415000915527344z">
                    </path>
                </g>
                <g opacity="1" transform="matrix(1,0,0,1,100.19100189208984,285.0350036621094)">
                    <path fill="rgb(204,172,19)" fill-opacity="1"
                        d=" M-15.414999961853027,7.47599983215332 C-15.414999961853027,7.47599983215332 -5.2870001792907715,19.847000122070312 -5.2870001792907715,19.847000122070312 C-5.2870001792907715,19.847000122070312 15.414999961853027,-19.847000122070312 15.414999961853027,-19.847000122070312 C15.414999961853027,-19.847000122070312 -13.833000183105469,-11.61400032043457 -13.833000183105469,-11.61400032043457 C-13.833000183105469,-11.61400032043457 -29.39299964904785,-7.080999851226807 -29.39299964904785,-7.080999851226807 C-29.39299964904785,-7.080999851226807 -15.414999961853027,7.47599983215332 -15.414999961853027,7.47599983215332z">
                    </path>
                </g>
                <g opacity="1" transform="matrix(1,0,0,1,0,0)">
                    <g opacity="1" transform="matrix(1,0,0,1,81.20999908447266,251.04200744628906)">
                        <path fill="rgb(79,82,82)" fill-opacity="1"
                            d=" M-0.8510000109672546,-10.628999710083008 C-0.8510000109672546,-10.628999710083008 5.679999828338623,-7.416999816894531 5.679999828338623,-7.416999816894531 C5.679999828338623,-7.416999816894531 1.9140000343322754,5.439000129699707 1.9140000343322754,5.439000129699707 C1.9140000343322754,5.439000129699707 -5.679999828338623,10.628999710083008 -5.679999828338623,10.628999710083008 C-5.679999828338623,10.628999710083008 -5.679999828338623,-0.12200000137090683 -5.679999828338623,-0.12200000137090683 C-5.679999828338623,-0.12200000137090683 -0.8510000109672546,-10.628999710083008 -0.8510000109672546,-10.628999710083008z">
                        </path>
                    </g>
                    <g opacity="1" transform="matrix(1,0,0,1,58.577999114990234,254.01199340820312)">
                        <path fill="rgb(79,82,82)" fill-opacity="1"
                            d=" M-9.472999572753906,-8.751999855041504 C-9.472999572753906,-8.751999855041504 -1.6649999618530273,-8.428000450134277 -1.6649999618530273,-8.428000450134277 C-1.6649999618530273,-8.428000450134277 9.472999572753906,7.6579999923706055 9.472999572753906,7.6579999923706055 C9.472999572753906,7.6579999923706055 -1.5010000467300415,8.75100040435791 -1.5010000467300415,8.75100040435791 C-1.5010000467300415,8.75100040435791 -9.472999572753906,-8.751999855041504 -9.472999572753906,-8.751999855041504z">
                        </path>
                    </g>
                    <g opacity="1" transform="matrix(1,0,0,1,92.09600067138672,279.41900634765625)">
                        <path fill="rgb(133,133,133)" fill-opacity="1"
                            d=" M-8.970999717712402,-22.937999725341797 C-8.970999717712402,-22.937999725341797 15.496000289916992,16.15399932861328 15.496000289916992,16.15399932861328 C15.496000289916992,16.15399932861328 13.619999885559082,22.937999725341797 13.619999885559082,22.937999725341797 C13.619999885559082,22.937999725341797 -6.205999851226807,-0.0010000000474974513 -6.205999851226807,-0.0010000000474974513 C-6.205999851226807,-0.0010000000474974513 -15.496999740600586,-20.858999252319336 -15.496999740600586,-20.858999252319336 C-15.496999740600586,-20.858999252319336 -8.970999717712402,-22.937999725341797 -8.970999717712402,-22.937999725341797z">
                        </path>
                    </g>
                    <g opacity="1" transform="matrix(1,0,0,1,75.52899932861328,273.8080139160156)">
                        <path fill="rgb(110,112,115)" fill-opacity="1"
                            d=" M-16.41699981689453,-13.3100004196167 C-16.41699981689453,-13.3100004196167 -9.86400032043457,-17.613000869750977 -9.86400032043457,-17.613000869750977 C-9.86400032043457,-17.613000869750977 -3.309999942779541,-21.91699981689453 -3.309999942779541,-21.91699981689453 C-3.309999942779541,-21.91699981689453 -13.317999839782715,-37.15700149536133 -13.317999839782715,-37.15700149536133 C-13.317999839782715,-37.15700149536133 4.828999996185303,-33.395999908447266 4.828999996185303,-33.395999908447266 C4.828999996185303,-33.395999908447266 1.0700000524520874,-15.246999740600586 1.0700000524520874,-15.246999740600586 C1.0700000524520874,-15.246999740600586 30.18600082397461,28.547000885009766 30.18600082397461,28.547000885009766 C30.18600082397461,28.547000885009766 23.632999420166016,32.85200119018555 23.632999420166016,32.85200119018555 C23.632999420166016,32.85200119018555 17.07900047302246,37.15599822998047 17.07900047302246,37.15599822998047 C17.07900047302246,37.15599822998047 -12.038000106811523,-6.640999794006348 -12.038000106811523,-6.640999794006348 C-12.038000106811523,-6.640999794006348 -30.187000274658203,-10.401000022888184 -30.187000274658203,-10.401000022888184 C-30.187000274658203,-10.401000022888184 -26.426000595092773,-28.54800033569336 -26.426000595092773,-28.54800033569336 C-26.426000595092773,-28.54800033569336 -16.41699981689453,-13.3100004196167 -16.41699981689453,-13.3100004196167z">
                        </path>
                    </g>
                </g>
                <g opacity="1" transform="matrix(1,0,0,1,97.07499694824219,311.4309997558594)">
                    <path fill="rgb(228,199,40)" fill-opacity="1"
                        d=" M26.54400062561035,46.24300003051758 C26.54400062561035,46.24300003051758 -20.53499984741211,43.90599822998047 -20.53499984741211,43.90599822998047 C-20.53499984741211,43.90599822998047 -26.54400062561035,-33.555999755859375 -26.54400062561035,-33.555999755859375 C-26.54400062561035,-33.555999755859375 -2.1710000038146973,-8.513999938964844 -2.1710000038146973,-8.513999938964844 C-2.1710000038146973,-8.513999938964844 18.5310001373291,-46.24300003051758 18.5310001373291,-46.24300003051758 C18.5310001373291,-46.24300003051758 26.54400062561035,46.24300003051758 26.54400062561035,46.24300003051758z">
                    </path>
                </g>
            </g>
        </g>
        <g transform="matrix(1,0,0,1,50.7760009765625,-0.25)" opacity="1" style="display: block;">
            <g opacity="1" transform="matrix(1,0,0,1,0,0)">
                <g opacity="1" transform="matrix(1,0,0,1,190.07200622558594,210.7830047607422)">
                    <path fill="rgb(204,172,19)" fill-opacity="1"
                        d=" M-0.4620000123977661,-18.351999282836914 C-0.4620000123977661,-18.351999282836914 8.053000450134277,-14.232000350952148 8.053000450134277,-14.232000350952148 C8.053000450134277,-14.232000350952148 3.186000108718872,-2.3469998836517334 3.186000108718872,-2.3469998836517334 C3.186000108718872,-2.3469998836517334 -7.705999851226807,18.351999282836914 -7.705999851226807,18.351999282836914 C-7.705999851226807,18.351999282836914 -8.053000450134277,-6.400000095367432 -8.053000450134277,-6.400000095367432 C-8.053000450134277,-6.400000095367432 -6.750999927520752,-15.873000144958496 -6.750999927520752,-15.873000144958496 C-6.750999927520752,-15.873000144958496 -0.4620000123977661,-18.351999282836914 -0.4620000123977661,-18.351999282836914z">
                    </path>
                </g>
                <g opacity="1" transform="matrix(1,0,0,1,202.24200439453125,210.3459930419922)">
                    <path fill="rgb(195,151,122)" fill-opacity="1"
                        d=" M-19.875999450683594,18.788000106811523 C-19.875999450683594,18.788000106811523 0.3490000069141388,-23.027000427246094 0.3490000069141388,-23.027000427246094 C0.3490000069141388,-23.027000427246094 16.788999557495117,-25.124000549316406 16.788999557495117,-25.124000549316406 C16.788999557495117,-25.124000549316406 19.875999450683594,-10.270000457763672 19.875999450683594,-10.270000457763672 C19.875999450683594,-10.270000457763672 10.854000091552734,25.124000549316406 10.854000091552734,25.124000549316406 C10.854000091552734,25.124000549316406 -19.875999450683594,18.788000106811523 -19.875999450683594,18.788000106811523z">
                    </path>
                </g>
            </g>
        </g>
        <g transform="matrix(1,0,0,1,50.7760009765625,-0.25)" opacity="1" style="display: block;">
            <g opacity="1" transform="matrix(1,0,0,1,0,0)">
                <g opacity="1" transform="matrix(1,0,0,1,168.92599487304688,227.10299682617188)">
                    <path fill="rgb(79,82,82)" fill-opacity="1"
                        d=" M-19.93199920654297,-18.676000595092773 C-19.93199920654297,-18.676000595092773 -2.2360000610351562,27.399999618530273 -2.2360000610351562,27.399999618530273 C-2.2360000610351562,27.399999618530273 19.93199920654297,19.413000106811523 19.93199920654297,19.413000106811523 C19.93199920654297,19.413000106811523 2.2190001010894775,-27.399999618530273 2.2190001010894775,-27.399999618530273 C2.2190001010894775,-27.399999618530273 -19.93199920654297,-18.676000595092773 -19.93199920654297,-18.676000595092773z">
                    </path>
                </g>
            </g>
            <g opacity="1" transform="matrix(1,0,0,1,0,0)">
                <g opacity="1" transform="matrix(1,0,0,1,165.67999267578125,214.41900634765625)">
                    <path fill="rgb(195,151,122)" fill-opacity="1"
                        d=" M-10.059000015258789,11.26099967956543 C-10.059000015258789,11.26099967956543 16.68600082397461,14.71500015258789 16.68600082397461,14.71500015258789 C16.68600082397461,14.71500015258789 10.642999649047852,-5.414999961853027 10.642999649047852,-5.414999961853027 C10.642999649047852,-5.414999961853027 5.464000225067139,-14.71500015258789 5.464000225067139,-14.71500015258789 C5.464000225067139,-14.71500015258789 -3.8350000381469727,-14.166999816894531 -3.8350000381469727,-14.166999816894531 C-3.8350000381469727,-14.166999816894531 -16.68600082397461,-5.992000102996826 -16.68600082397461,-5.992000102996826 C-16.68600082397461,-5.992000102996826 -10.059000015258789,11.26099967956543 -10.059000015258789,11.26099967956543z">
                    </path>
                </g>
                <g opacity="1" transform="matrix(1,0,0,1,180.5919952392578,210.7830047607422)">
                    <path fill="rgb(138,102,81)" fill-opacity="1"
                        d=" M1.7740000486373901,18.351999282836914 C1.7740000486373901,18.351999282836914 9.447999954223633,2.4860000610351562 9.447999954223633,2.4860000610351562 C9.447999954223633,2.4860000610351562 9.017999649047852,-18.35099983215332 9.017999649047852,-18.35099983215332 C9.017999649047852,-18.35099983215332 -0.3009999990463257,-17.280000686645508 -0.3009999990463257,-17.280000686645508 C-0.3009999990463257,-17.280000686645508 -9.446999549865723,-11.079000473022461 -9.446999549865723,-11.079000473022461 C-9.446999549865723,-11.079000473022461 1.7740000486373901,18.351999282836914 1.7740000486373901,18.351999282836914z">
                    </path>
                </g>
            </g>
            <g opacity="1" transform="matrix(1,0,0,1,0,0)">
                <g opacity="1" transform="matrix(1,0,0,1,186.05599975585938,175.2050018310547)">
                    <path fill="rgb(110,112,115)" fill-opacity="1"
                        d=" M-49.415000915527344,0.8339999914169312 C-49.415000915527344,0.8339999914169312 36.72800064086914,-33.222999572753906 36.72800064086914,-33.222999572753906 C36.72800064086914,-33.222999572753906 43.77899932861328,-17.68000030517578 43.77899932861328,-17.68000030517578 C43.77899932861328,-17.68000030517578 49.415000915527344,-0.8349999785423279 49.415000915527344,-0.8349999785423279 C49.415000915527344,-0.8349999785423279 -37.06100082397461,33.22200012207031 -37.06100082397461,33.22200012207031 C-37.06100082397461,33.22200012207031 -49.415000915527344,0.8339999914169312 -49.415000915527344,0.8339999914169312z">
                    </path>
                </g>
                <g opacity="1" transform="matrix(1,0,0,1,232.1320037841797,158.177001953125)">
                    <path fill="rgb(79,82,82)" fill-opacity="1"
                        d=" M-9.348999977111816,-16.194000244140625 C-9.348999977111816,-16.194000244140625 4.675000190734863,-8.847999572753906 4.675000190734863,-8.847999572753906 C4.675000190734863,-8.847999572753906 8.02400016784668,-2.888000011444092 8.02400016784668,-2.888000011444092 C8.02400016784668,-2.888000011444092 9.348999977111816,2.8369998931884766 9.348999977111816,2.8369998931884766 C9.348999977111816,2.8369998931884766 3.3389999866485596,16.194000244140625 3.3389999866485596,16.194000244140625 C3.3389999866485596,16.194000244140625 -9.348999977111816,-16.194000244140625 -9.348999977111816,-16.194000244140625z">
                    </path>
                </g>
                <g opacity="1" transform="matrix(1,0,0,1,0,0)">
                    <g opacity="1" transform="matrix(1,0,0,1,243.06300354003906,152.71099853515625)">
                        <path fill="rgb(70,70,70)" fill-opacity="1"
                            d=" M-6.255000114440918,-3.381999969482422 C-6.255000114440918,-3.381999969482422 6.047999858856201,-8.303999900817871 6.047999858856201,-8.303999900817871 C6.047999858856201,-8.303999900817871 6.255000114440918,-1.3799999952316284 6.255000114440918,-1.3799999952316284 C6.255000114440918,-1.3799999952316284 3.877000093460083,6.10699987411499 3.877000093460083,6.10699987411499 C3.877000093460083,6.10699987411499 -1.5809999704360962,8.303999900817871 -1.5809999704360962,8.303999900817871 C-1.5809999704360962,8.303999900817871 -6.255000114440918,-3.381999969482422 -6.255000114440918,-3.381999969482422z">
                        </path>
                    </g>
                    <g opacity="1" transform="matrix(1,0,0,1,253.3509979248047,149.58099365234375)">
                        <path fill="rgb(110,112,115)" fill-opacity="1"
                            d=" M-4.239999771118164,-5.173999786376953 C-4.239999771118164,-5.173999786376953 5.918000221252441,-9.237000465393066 5.918000221252441,-9.237000465393066 C5.918000221252441,-9.237000465393066 6.410999774932861,-3.0309998989105225 6.410999774932861,-3.0309998989105225 C6.410999774932861,-3.0309998989105225 3.750999927520752,5.145999908447266 3.750999927520752,5.145999908447266 C3.750999927520752,5.145999908447266 -6.410999774932861,9.237000465393066 -6.410999774932861,9.237000465393066 C-6.410999774932861,9.237000465393066 -4.239999771118164,-5.173999786376953 -4.239999771118164,-5.173999786376953z">
                        </path>
                    </g>
                    <g opacity="1" transform="matrix(1,0,0,1,263.1940002441406,145.53199768066406)">
                        <path fill="rgb(70,70,70)" fill-opacity="1"
                            d=" M-3.924999952316284,-5.189000129699707 C-3.924999952316284,-5.189000129699707 6.0920000076293945,-9.194999694824219 6.0920000076293945,-9.194999694824219 C6.0920000076293945,-9.194999694824219 5.574999809265137,-2.3910000324249268 5.574999809265137,-2.3910000324249268 C5.574999809265137,-2.3910000324249268 3.927999973297119,5.163000106811523 3.927999973297119,5.163000106811523 C3.927999973297119,5.163000106811523 -6.0920000076293945,9.194999694824219 -6.0920000076293945,9.194999694824219 C-6.0920000076293945,9.194999694824219 -3.924999952316284,-5.189000129699707 -3.924999952316284,-5.189000129699707z">
                        </path>
                    </g>
                    <g opacity="1" transform="matrix(1,0,0,1,273.03399658203125,141.58399963378906)">
                        <path fill="rgb(110,112,115)" fill-opacity="1"
                            d=" M-3.747999906539917,-5.247000217437744 C-3.747999906539917,-5.247000217437744 5.913000106811523,-9.109999656677246 5.913000106811523,-9.109999656677246 C5.913000106811523,-9.109999656677246 5.770999908447266,-2.5980000495910645 5.770999908447266,-2.5980000495910645 C5.770999908447266,-2.5980000495910645 3.753000020980835,5.21999979019165 3.753000020980835,5.21999979019165 C3.753000020980835,5.21999979019165 -5.9120001792907715,9.109999656677246 -5.9120001792907715,9.109999656677246 C-5.9120001792907715,9.109999656677246 -3.747999906539917,-5.247000217437744 -3.747999906539917,-5.247000217437744z">
                        </path>
                    </g>
                    <g opacity="1" transform="matrix(1,0,0,1,282.739990234375,137.69500732421875)">
                        <path fill="rgb(70,70,70)" fill-opacity="1"
                            d=" M-3.7929999828338623,-5.2210001945495605 C-3.7929999828338623,-5.2210001945495605 5.814000129699707,-9.0649995803833 5.814000129699707,-9.0649995803833 C5.814000129699707,-9.0649995803833 5.5329999923706055,-2.63700008392334 5.5329999923706055,-2.63700008392334 C5.5329999923706055,-2.63700008392334 3.6589999198913574,5.239999771118164 3.6589999198913574,5.239999771118164 C3.6589999198913574,5.239999771118164 -5.814000129699707,9.065999984741211 -5.814000129699707,9.065999984741211 C-5.814000129699707,9.065999984741211 -3.7929999828338623,-5.2210001945495605 -3.7929999828338623,-5.2210001945495605z">
                        </path>
                    </g>
                    <g opacity="1" transform="matrix(1,0,0,1,291.98699951171875,133.94500732421875)">
                        <path fill="rgb(110,112,115)" fill-opacity="1"
                            d=" M-3.433000087738037,-5.315000057220459 C-3.433000087738037,-5.315000057220459 5.5879998207092285,-8.989999771118164 5.5879998207092285,-8.989999771118164 C5.5879998207092285,-8.989999771118164 3.25,5.368000030517578 3.25,5.368000030517578 C3.25,5.368000030517578 -5.5879998207092285,8.989999771118164 -5.5879998207092285,8.989999771118164 C-5.5879998207092285,8.989999771118164 -3.433000087738037,-5.315000057220459 -3.433000087738037,-5.315000057220459z">
                        </path>
                    </g>
                </g>
                <g opacity="1" transform="matrix(1,0,0,1,0,0)">
                    <g opacity="1" transform="matrix(1,0,0,1,159.70599365234375,179.36599731445312)">
                        <path fill="rgb(79,82,82)" fill-opacity="1"
                            d=" M11.032999992370605,-2.4200000762939453 C11.032999992370605,-2.4200000762939453 -9.845999717712402,5.533999919891357 -9.845999717712402,5.533999919891357 C-9.845999717712402,5.533999919891357 -11.032999992370605,2.4200000762939453 -11.032999992370605,2.4200000762939453 C-11.032999992370605,2.4200000762939453 9.845000267028809,-5.533999919891357 9.845000267028809,-5.533999919891357 C9.845000267028809,-5.533999919891357 11.032999992370605,-2.4200000762939453 11.032999992370605,-2.4200000762939453z">
                        </path>
                    </g>
                    <g opacity="1" transform="matrix(1,0,0,1,161.843994140625,184.9770050048828)">
                        <path fill="rgb(79,82,82)" fill-opacity="1"
                            d=" M11.032999992370605,-2.4200000762939453 C11.032999992370605,-2.4200000762939453 -9.847000122070312,5.533999919891357 -9.847000122070312,5.533999919891357 C-9.847000122070312,5.533999919891357 -11.032999992370605,2.4200000762939453 -11.032999992370605,2.4200000762939453 C-11.032999992370605,2.4200000762939453 9.845000267028809,-5.533999919891357 9.845000267028809,-5.533999919891357 C9.845000267028809,-5.533999919891357 11.032999992370605,-2.4200000762939453 11.032999992370605,-2.4200000762939453z">
                        </path>
                    </g>
                    <g opacity="1" transform="matrix(1,0,0,1,163.98199462890625,190.58900451660156)">
                        <path fill="rgb(79,82,82)" fill-opacity="1"
                            d=" M11.032999992370605,-2.4200000762939453 C11.032999992370605,-2.4200000762939453 -9.847000122070312,5.533999919891357 -9.847000122070312,5.533999919891357 C-9.847000122070312,5.533999919891357 -11.032999992370605,2.4200000762939453 -11.032999992370605,2.4200000762939453 C-11.032999992370605,2.4200000762939453 9.845000267028809,-5.533999919891357 9.845000267028809,-5.533999919891357 C9.845000267028809,-5.533999919891357 11.032999992370605,-2.4200000762939453 11.032999992370605,-2.4200000762939453z">
                        </path>
                    </g>
                </g>
            </g>
        </g>
        <g transform="matrix(1,0,0,1,50.7760009765625,-0.25)" opacity="1" style="display: block;">
            <g opacity="1" transform="matrix(1,0,0,1,0,0)">
                <g opacity="1" transform="matrix(1,0,0,1,228.7949981689453,187.2239990234375)">
                    <path fill="rgb(195,151,122)" fill-opacity="1"
                        d=" M-6.677000045776367,12.852999687194824 C-6.677000045776367,12.852999687194824 6.677000045776367,2.502000093460083 6.677000045776367,2.502000093460083 C6.677000045776367,2.502000093460083 6.677000045776367,-12.852999687194824 6.677000045776367,-12.852999687194824 C6.677000045776367,-12.852999687194824 -4.676000118255615,-1.6679999828338623 -4.676000118255615,-1.6679999828338623 C-4.676000118255615,-1.6679999828338623 -6.677000045776367,12.852999687194824 -6.677000045776367,12.852999687194824z">
                    </path>
                </g>
                <g opacity="1" transform="matrix(1,0,0,1,219.031005859375,187.2239990234375)">
                    <path fill="rgb(138,102,81)" fill-opacity="1"
                        d=" M-16.44099998474121,0.0949999988079071 C-16.44099998474121,0.0949999988079071 -0.6439999938011169,-7.301000118255615 -0.6439999938011169,-7.301000118255615 C-0.6439999938011169,-7.301000118255615 16.440000534057617,-12.852999687194824 16.440000534057617,-12.852999687194824 C16.440000534057617,-12.852999687194824 3.0859999656677246,12.852999687194824 3.0859999656677246,12.852999687194824 C3.0859999656677246,12.852999687194824 -16.44099998474121,0.0949999988079071 -16.44099998474121,0.0949999988079071z">
                    </path>
                </g>
                <g opacity="1" transform="matrix(1,0,0,1,219.031005859375,171.82899475097656)">
                    <path fill="rgb(223,188,164)" fill-opacity="1"
                        d=" M-16.44099998474121,15.489999771118164 C-16.44099998474121,15.489999771118164 -11.614999771118164,-5.078999996185303 -11.614999771118164,-5.078999996185303 C-11.614999771118164,-5.078999996185303 9.37600040435791,-15.48900032043457 9.37600040435791,-15.48900032043457 C9.37600040435791,-15.48900032043457 16.440000534057617,2.5420000553131104 16.440000534057617,2.5420000553131104 C16.440000534057617,2.5420000553131104 -16.44099998474121,15.489999771118164 -16.44099998474121,15.489999771118164z">
                    </path>
                </g>
            </g>
        </g>
    </g>
</svg>